/* XPM */
static char *scorched3d[] = {
/* columns rows colors chars-per-pixel */
"32 32 256 2",
"   c #262522",
".  c #292623",
"X  c #2D2A25",
"o  c #2E2B28",
"O  c #302D2A",
"+  c #343224",
"@  c #36322C",
"#  c #39352F",
"$  c #383524",
"%  c #363330",
"&  c #3A3631",
"*  c #3D3A35",
"=  c #423E27",
"-  c #423C34",
";  c #433E39",
":  c #4A472A",
">  c #474037",
",  c #45423C",
"<  c #4B453C",
"1  c #4F4A3D",
"2  c #514D2B",
"3  c #524B3D",
"4  c #54513B",
"5  c #595533",
"6  c #59573E",
"7  c #5D5A3D",
"8  c #585434",
"9  c #605D3E",
"0  c #65633C",
"q  c #464441",
"w  c #4A4641",
"e  c #4D4A44",
"r  c #534D45",
"t  c #594F41",
"y  c #514E49",
"u  c #54514B",
"i  c #5B5444",
"p  c #59564D",
"a  c #5F5845",
"s  c #5D584F",
"d  c #5C5750",
"f  c #5B5852",
"g  c #60574A",
"h  c #645A49",
"j  c #695C4B",
"k  c #625E55",
"l  c #686440",
"z  c #6C624D",
"x  c #696648",
"c  c #656159",
"v  c #6E6652",
"b  c #6A655B",
"n  c #6D6952",
"m  c #72634D",
"M  c #736C4F",
"N  c #726652",
"B  c #746A54",
"V  c #756D5A",
"C  c #7B6B54",
"Z  c #7A6E5A",
"A  c #76715A",
"S  c #7C735C",
"D  c #7F7A5E",
"F  c #7F7C53",
"G  c #736E62",
"H  c #777267",
"J  c #7D7660",
"K  c #7C766A",
"L  c #7F7A61",
"P  c #7F796C",
"I  c #826D55",
"U  c #856E5A",
"Y  c #837357",
"T  c #83745B",
"R  c #807B5F",
"E  c #8C7D5C",
"W  c #88745C",
"Q  c #95775E",
"!  c #927A5E",
"~  c #837C62",
"^  c #817A6E",
"/  c #897760",
"(  c #8B7D62",
")  c #847E71",
"_  c #8A7F71",
"`  c #947E63",
"'  c #9A7D62",
"]  c #86815F",
"[  c #89835E",
"{  c #92825D",
"}  c #858362",
"|  c #8B8463",
" . c #8C846B",
".. c #8C896A",
"X. c #8D8966",
"o. c #8C8475",
"O. c #8E8678",
"+. c #8F8873",
"@. c #8F897A",
"#. c #938464",
"$. c #93866A",
"%. c #948A65",
"&. c #958C6A",
"*. c #9C8265",
"=. c #9B876B",
"-. c #988E67",
";. c #998D6E",
":. c #958B71",
">. c #928B7C",
",. c #9B8D72",
"<. c #9D906C",
"1. c #9D9373",
"2. c #9C937B",
"3. c #9F9A74",
"4. c #AB8A6B",
"5. c #A18A6E",
"6. c #A38D70",
"7. c #AB8F73",
"8. c #A4956C",
"9. c #A9956B",
"0. c #A39574",
"q. c #A3937B",
"w. c #A39975",
"e. c #A49C7A",
"r. c #AB9673",
"t. c #AC9A74",
"y. c #AC9B7A",
"u. c #AC977B",
"i. c #B19A76",
"p. c #B39D7A",
"a. c #B99977",
"s. c #BE9D7B",
"d. c #A7A07A",
"f. c #AFA676",
"g. c #ACA37B",
"h. c #AFA97A",
"j. c #B3A476",
"k. c #B4A37C",
"l. c #B4AA7E",
"z. c #B8A477",
"x. c #BAA37D",
"c. c #C19E7D",
"v. c #C4A07E",
"b. c #C0B37F",
"n. c #D7CA7E",
"m. c #988F80",
"M. c #979082",
"N. c #9C9484",
"B. c #A29683",
"V. c #A29985",
"C. c #A39C8B",
"Z. c #AB9780",
"A. c #AC9B83",
"S. c #A89F8D",
"D. c #B89F80",
"F. c #A7A581",
"G. c #ADA484",
"H. c #AAA18D",
"J. c #AEAF84",
"K. c #ADA492",
"L. c #AFA895",
"P. c #B3A483",
"I. c #B4A489",
"U. c #B4AB83",
"Y. c #B4AC8A",
"T. c #BCA683",
"R. c #BCAB84",
"E. c #BCAC8B",
"W. c #B6AB91",
"Q. c #B6AE9A",
"!. c #BBAD91",
"~. c #BEAF98",
"^. c #B6B78D",
"/. c #BDB385",
"(. c #BCB38B",
"). c #BAB986",
"_. c #BCB695",
"`. c #B6B0A3",
"'. c #C5A581",
"]. c #C3AC84",
"[. c #C3AE8A",
"{. c #C8A682",
"}. c #C8AE87",
"|. c #CDAF8C",
" X c #C3AE90",
".X c #C5B087",
"XX c #C3B18C",
"oX c #C7B985",
"OX c #C4BB8C",
"+X c #CFB783",
"@X c #CBB28C",
"#X c #CCBB85",
"$X c #C9BD8C",
"%X c #C3B491",
"&X c #C3BB93",
"*X c #C6B89B",
"=X c #CCB592",
"-X c #CBB994",
";X c #C8B599",
":X c #D1AE89",
">X c #D4B48E",
",X c #D4BE80",
"<X c #D5BD8B",
"1X c #D2B692",
"2X c #D5B798",
"3X c #D3BA94",
"4X c #D1BD9C",
"5X c #DCBB96",
"6X c #DABD9A",
"7X c #C7BFA6",
"8X c #C6BFA9",
"9X c #C7C189",
"0X c #CEC084",
"qX c #CBC28B",
"wX c #CBC392",
"eX c #CDC89E",
"rX c #C4C191",
"tX c #D4C283",
"yX c #D2C788",
"uX c #D5CA84",
"iX c #D7CA8B",
"pX c #D9C486",
"aX c #DBC48C",
"sX c #DCCA8C",
"dX c #D8CA81",
"fX c #D2C091",
"gX c #DAC796",
"hX c #DDC29B",
"jX c #D9CF98",
"kX c #DDD08E",
"lX c #DED696",
"zX c #CCC1A5",
"xX c #D3C6AB",
"cX c #DEC1A0",
"vX c #D5CDA5",
"bX c #D4CCB2",
"nX c #D8D0A5",
"mX c #D6D0B2",
"MX c #DED1B8",
"NX c #E4CE89",
"BX c #E0C59F",
"VX c #E1CB93",
"CX c #E9CF96",
"ZX c #E9CE9F",
"AX c #EDD58E",
"SX c #EED39B",
"DX c #ECD296",
"FX c #F4DB98",
"GX c #E6DEAD",
"HX c #E0D5BB",
"JX c #FAE199",
"KX c #E7E0B2",
"LX c #EAE1B3",
"PX c #EFE8C1",
"IX c #E5E0D1",
"UX c #F0ECD3",
/* pixels */
"t.t.t.j.l.j.j.j.z.p.t.9.t.i.T.].XX(.Y.P.d.w.3.3.w.e.w.w.9.9.9.9.",
"t.t.t.f.f.j.j.z.x.z.i.9.9.i.p.].[.!.Y.Y.k.w.w.3.w.w.w.0.0.9.9.t.",
"g.g.j.f.h.f.j.z.x.].T.z.i.i.i.P.].E.E.I.A.y.0.0.1.1.0.w.w.w.e.y.",
"j.j.k.l.h.h.f.z.R.}.}.].x.a.i.s.D.].E.I.D.p.0.0.0.0.0.r.i.p.A.p.",
"j.z.x.l.l.l.l.l.Y.}.=X@X}.x.b.v.[.}..X].I.k.i.u.w.y.i.i.k.k.k.p.",
"p.x.x.l./..X/.Y.E.[.-X2X3X>X+Xb.,XpXaXpX+XT.p.i.p.j.k.x.T.k.k.j.",
"p.k.P.Y..X@X@X=X=X=X3XhXCXAXNXpX<X3XaXaXsXtXR.k.x.R.l.U.P.g.A.g.",
"y.p.k.R.XX@X3X2X2X6XBXSXJXFXVX1X=X=X1X3XaXyXuXoX/.R.R.U.G.g.g.y.",
"p.i.p.T.|.2X2X6XhXcXZXFXSXhX2X=X=X=X1X1X3XfXkXkXwX(.Y.Y.U.g.d.e.",
"s.a.6.,.A. X4XhXhXhXSXSX5X=X@X@X}.}.@X=X1X-XwXkXiXOXOX/.U.l.d.w.",
"c.'.7.=.=.q.B.A.I.$XVXgX;X%X[.E. X[.E.].].E.E.#XuX,XoXoX).Y.F.d.",
"'.{.{.{.T.D.u.q.B.U./.G.H.W.!.*XzXzX*XE.I.P.k.oXdXuX$XOXOX^.Y.F.",
":X:X>X>X:X|.|.4XxXvXzX_.N.o.H P >.N.V.V.M.+.3.).uXiXOXOX&X_.^.J.",
"5X5X5X2X|.=XxXMXHXGXKXbXH.f * & ; y f k c k +._.lXjX*X&XrXrX9X).",
"cXhX5X2X;X XS.m.N.Y.wXzX`.N.P b u q q * * u @.zXKXvX_.Q.%X9XwX9X",
"5X6X=XZ._ b y w u N [  .@.N.C.K.V.>.K k f H `.IXUXzXN.N.W.%XqXqX",
">X|.D.C < * % * , , 7 l p f b H ) @.M.N.N.L.xXPXmXH.o.O.V.~.&XOX",
"'.'.4.h ; ; ; ; ; , 4 0 6 , , < y p k G ^ >.Y.wXY.2.+.@.>.N.H.e.",
"4.4.' j ; - % @ % & * 8 0 7 3 < q q q y i n F D @.C.N.>.@.o.H S ",
"' ' Q U m t @ .   X X + : 5 5 5 4 4 t 6 0 l 6 e f o.H.L.N.G e z ",
"5.' ' ' ! C 1 O   X     . + = : 2 5 5 5 4 1 < , q u K K.C.c , h ",
"6.,.=.` ( / N t , - @ o o . . X + + + + @ @ * ; ; ; e V G y 1 j ",
"y.q.,.=.` / U B v h g 3 , # @ o             o & ; < , < , 1 a z ",
"Z.q.,.=.` ( / Z B N M M z g i e & # $ o   .   o # ; 1 , , i x M ",
"q.0.;.$.#.| / S S A V V n B n z h i t < > - @ O - 3 r < t m C M ",
"2.1.,.$.$.$.$. .~ ~ J J A A V B N N v v j h i y g j j j N C C C ",
"V.w.1.1.<.:.,.;.:.:.+...} D L J A A A A A V V B C N C C I I I I ",
"Y.I.V.w.1.<.1.:.:.:.:...o. .~ ~ ~ ~ L J J L J S Z Z C C C I I U ",
"%XE.P.y.w.<.;........... .| | ~ ~ ~ L J ~ P ~ L S S S S Y Y Y Y ",
"-X.XP.y.0.<.&.X.} } } } ] ] ] ] ~ ~ L D D D L L ~ R W W T Y Y Y ",
"-X.XR.j.t.8.<.X.| | | | [ [ [ ] | ~ } ~ D D D D R E ( E E E E E ",
"XX}.x.j.i.9.8.<.-.-.-.&.-.<.%.%.#.X.| [ E ~ R ~ ~ ( ( #.%.*.{ { "
};
