/* XPM */
static char * gimmix_logo_small_xpm[] = {
"24 24 75 1",
" 	c None",
".	c #3283BA",
"+	c #2A68A3",
"@	c #3686BF",
"#	c #3684BE",
"$	c #2F6EAA",
"%	c #3785BF",
"&	c #3884BF",
"*	c #3982C0",
"=	c #367AB8",
"-	c #306AA9",
";	c #3883C0",
">	c #3A81C0",
",	c #3B80C1",
"'	c #3C7FC1",
")	c #3876B8",
"!	c #3167A9",
"~	c #3A82C0",
"{	c #3472B3",
"]	c #3A7BBE",
"^	c #3D7DC1",
"/	c #3E7CC2",
"(	c #3F7BC2",
"_	c #3970B6",
":	c #3B80C0",
"<	c #3368AB",
"[	c #386FB4",
"}	c #4079C2",
"|	c #417AC3",
"1	c #3F77C0",
"2	c #3367AB",
"3	c #3D7EC1",
"4	c #3569AE",
"5	c #3F77BF",
"6	c #3A6FB6",
"7	c #3B71B8",
"8	c #3A71B7",
"9	c #3F7CC2",
"0	c #407AC2",
"a	c #3568AD",
"b	c #3467AC",
"c	c #396EB4",
"d	c #386CB2",
"e	c #3468AC",
"f	c #376CB2",
"g	c #376BB1",
"h	c #3F78C1",
"i	c #3F78C0",
"j	c #3E76BF",
"k	c #3D74BC",
"l	c #3264A8",
"m	c #3E76BE",
"n	c #3C72BA",
"o	c #2E5FA1",
"p	c #3164A7",
"q	c #3D75BD",
"r	c #3A70B7",
"s	c #366AB0",
"t	c #3B72B9",
"u	c #3163A6",
"v	c #3A70B6",
"w	c #3062A5",
"x	c #3C73BA",
"y	c #3265A9",
"z	c #4079C1",
"A	c #3366AA",
"B	c #3265A8",
"C	c #3C73BB",
"D	c #3C74BB",
"E	c #3160A0",
"F	c #23487B",
"G	c #264F84",
"H	c #295289",
"I	c #224575",
"J	c #1C3861",
"                        ",
"           .+           ",
"           @#$          ",
"           %&*=-        ",
"           ;*>,')!      ",
"           ~>{]^/(_     ",
"           :'  <[}|12   ",
"           '3     45|6  ",
"           ^/       7|8 ",
"           90        a}b",
"           0|         cd",
"           ||         ef",
"           ||         gb",
"           }h         g ",
"           ij        e  ",
"           5k       l   ",
"           mn     op    ",
"           qr           ",
"   st}||}tukv           ",
" w5|||||||||c           ",
" x||||||||||y           ",
" 1||||||||zA            ",
" BC|||||DEF             ",
"    GHIJ                "};
