/* XPM */
static char *hp-logo[] = {
/* columns rows colors chars-per-pixel */
"32 32 26 1",
"  c #000100",
". c #080A06",
"X c #141513",
"o c #1F201E",
"O c #272826",
"+ c #2F312E",
"@ c #3A3B39",
"# c #3F403E",
"$ c #500000",
"% c #454744",
"& c #535552",
"* c #5E605D",
"= c #6D6F6C",
"- c #787A77",
"; c #818380",
": c #8E908D",
"> c #989A97",
", c #A2A4A1",
"< c #B1B3B0",
"1 c #BEC0BD",
"2 c #D0D2CF",
"3 c #D8DAD7",
"4 c #E2E4E0",
"5 c #EEF0ED",
"6 c #FDFFFC",
"7 c None",
/* pixels */
"77777777777777777777777777777777",
"77777777777777777777777777777777",
"77777777777777777777777777777777",
"77777777777777777777777777777777",
"77777777777777777777777777777777",
"77777777777777777777777777777777",
";.          &: o4             .;",
".          #2@ -4>-@           .",
"         X<63  366662#          ",
"        X366- +6666666=         ",
"        1666O :66666666*        ",
"       *6661  1566444465X       ",
"       2666=    >6X   X4:       ",
"      o6666X >@ -< .1  34       ",
"      &666< .4. 1& *: +66X      ",
"      *666& *: O5. <+ :66@      ",
"      &665. <@ -> X2 .466+      ",
"      +66> X3  3# =- %666.      ",
"       46# =- @4  =o ,661       ",
"       ;6**2;*<; .oo@666*       ",
"       X4666666+ ;666662.       ",
"        @566662  366664o        ",
"         @5666- @66663O         ",
"          X:56o >663=.          ",
"o           O1 .4%X            o",
"7&##########>:#-2#############&7",
"77777777777777777777777777777777",
"77777777777777777777777777777777",
"77777777777777777777777777777777",
"77777777777777777777777777777777",
"77777777777777777777777777777777",
"77777777777777777777777777777777"
};
