/* XPM */
static char *HPmenu[] = {
/* columns rows colors chars-per-pixel */
"32 32 90 1",
"  c black",
". c #000050",
"X c #000058",
"o c #000067",
"O c #00006B",
"+ c #000076",
"@ c #00007C",
"# c #000082",
"$ c #06068A",
"% c #0C0C89",
"& c #001E83",
"* c #14148C",
"= c #19198F",
"- c #1C1C91",
"; c #022285",
": c #082687",
"> c #0D2A89",
", c #112E8C",
"< c #16318E",
"1 c #19348F",
"2 c #1B3690",
"3 c #1E3992",
"4 c #232394",
"5 c #292997",
"6 c #2E2E99",
"7 c #243D94",
"8 c #32329B",
"9 c #38389E",
"0 c #3E3EA1",
"q c #294197",
"w c #2E4599",
"e c #344A9C",
"r c #394E9E",
"t c #3E52A1",
"y c #4343A3",
"u c #4949A6",
"i c #4D4DA8",
"p c #4356A3",
"a c #4658A5",
"s c #495CA6",
"d c #4D5FA8",
"f c #5454AB",
"g c #5A5AAE",
"h c #5F5FB0",
"j c #4F62A9",
"k c #5464AB",
"l c #5866AD",
"z c #5B6AAE",
"x c #5E6CB0",
"c c #6262B2",
"v c #606DB1",
"b c #6A6AB6",
"n c #6F6FB8",
"m c #6372B3",
"M c #6A76B5",
"N c #6D79B7",
"B c #6F7AB8",
"V c #7373BA",
"C c #727DB9",
"Z c #7A7BBD",
"A c #7681BC",
"S c #7B84BE",
"D c #7C88BF",
"F c #8484C2",
"G c #848AC2",
"H c #8C8DC5",
"J c #8A91C5",
"K c #8F96C8",
"L c #9494C9",
"P c #969ACA",
"I c #9C9CCD",
"U c #9DA2CE",
"Y c #A0A0CF",
"T c #A4A5D1",
"R c #A5A9D2",
"E c #A8A7D3",
"W c #ACACD5",
"Q c #B0B0D7",
"! c #B3B4D9",
"~ c #B6B8DA",
"^ c #BBBBDC",
"/ c #C0C0DF",
"( c #C4C4E1",
") c #CECEE6",
"_ c #D0D0E7",
"` c #D5D5E9",
"' c #E4E4F1",
"] c #ECECF5",
"[ c #F6F6FA",
"{ c None",
/* pixels */
"{{{{{{{{{{{o@####@#+O{{{{{{{{{{{",
"{{{{{{{{{@#$=6uffu6=###{{{{{{{{{",
"{{{{{{{#@%8nW_'[[')WV8%##{{{{{{{",
"{{{{{{@$5n/][[[[[[[[](n5$#{{{{{{",
"{{{{{#%yH_''''''''''''_Lu%#{{{{{",
"{{{{#*gF!)_``````````_)!Gf*#{{{{",
"{{{#%gLL!////)/)((((((^!LHg%#{{{",
"{{@$iLIIW^/^~~~^^^^^^!!ELLHi$#{{",
"{{#8HIPITWWWWWWWRQRQQRRULLLH6@{{",
"{@*nYHZarrrrrvNzDsterrretVHLn*@{",
"{#0LTZl<@&&:tSwkUDA3+>,>,dCLL9#{",
"{%cIYa,&:&:zRDqJRRRUj>@>;,aILh%{",
"@-FIIr&&;;tRRk7MKKAAAq@,;@eILF-@",
"#9HIIr&&;:ARUee>kjw@rA>@;&rIIH9#",
"#fPIIr&&@,P!Dqm<AwjqAD,>;@rIIIf#",
"#gYIYr&&:<U!ktaeA2z2KU,@::rYIIc#",
"@zRURt><;>KRqm3mawseRD,>:OrUURx+",
"@jUURj+@;;mJrMeG237A~A@,>,rRUUl@",
"@yUR~r@,;@eRQ!QA7DR~U3O>++sRYPr@",
"@4URRs,@:::m^/^at~(~A>,>,,jRTK4@",
"{%VWWDj,;;@<N!T7D(Us+>+,<sCEEn%{",
"{#yUWUDe<,<<2vDeKAe,<2<2eBIWY0@{",
"{+=Z!Q~~!~~~!!^^~~~~~~~~~^!WV=+{",
"{{#yRR!~^///((((((~((((~^^QP0#{{",
"{{#%bWEW^/((/((((((((/~!~!Eg$#{{",
"{{{@-ZEE!^((((((((((^QQ!!EV=@{{{",
"{{{{#4ZWWQ~/((/(((^~QQW!En-#{{{{",
"{{{{{#-bW~!~^//((/^^!~!Th=#{{{{{",
"{{{{{{@%iL^~!^((^^/^^!F0%#{{{{{{",
"{{{{{{{@@4iZIEW!^!WIZi-#@{{{{{{{",
"{{{{{{{{{+#%4ugbbhy4%#+{{{{{{{{{",
"{{{{{{{{{{{o@######@o{{{{{{{{{{{"
};
