/* XPM */
static char * xrced_xpm[] = {
"32 32 20 1",
" 	c None",
".	c #F8FCF8",
"+	c #C0C4C0",
"@	c #505450",
"#	c #E0E0E0",
"$	c #707070",
"%	c #888C88",
"&	c #A8A8A8",
"*	c #383838",
"=	c #000000",
"-	c #181C18",
";	c #E0E0F8",
">	c #A8A8F8",
",	c #0000F8",
"'	c #7070F8",
")	c #5054F8",
"!	c #888CF8",
"~	c #C0C4F8",
"{	c #181CF8",
"]	c #3838F8",
"................................",
"................................",
".+@@#..$@+.%@@@@@%#....%@@@&....",
"..*=$.%==..@======@...-=====$...",
"..+=-+-=+..@=&..#==..%=@+.+==+..",
"...*=*=@...@=&...==..@=&...@=@..",
"...#===+...@=$&&@=$.&==.........",
"....-==....@======#.&==.........",
"...+===&...@=$&&*=$.&==.........",
"..#*=@=-...@=&..&=@..@=%...*=@..",
"..%=@.-=@..@=&..&=@..&=*+.+==...",
".+-=+.+==#.@=&..&=*...$=====&...",
".%@@...$@&.%@+..#@@....%@@@&....",
"................................",
"................................",
".......................;>>......",
".......................>,,......",
".......................>,,......",
".......................>,,......",
".........>'))!~...;'))'>,,......",
"........~,,,,,{...',,,,],,......",
"........,,]>>,,).>,,'>',,,......",
".......>,{~..),,>),]...],,......",
".......>,,,,,,,,>),>...>,,......",
".......>,{))))))~),>...>,,......",
".......>,];..~>~.),'...',,......",
".......;,,'..{,).!,,~.~,,,......",
"........',,,,,,..;],,,,',,......",
".........>],,>....;],,>>,,......",
"................................",
"................................",
"................................"};
