/* XPM */
static char * gwibber_xpm[] = {
"28 28 393 2",
"  	c None",
". 	c #80837D",
"+ 	c #999B96",
"@ 	c #ABACA8",
"# 	c #A7A8A5",
"$ 	c #A4A5A2",
"% 	c #A8AAA6",
"& 	c #ABADA9",
"* 	c #A7A9A5",
"= 	c #8A8C88",
"- 	c #7D7F79",
"; 	c #838580",
"> 	c #ADAEAA",
", 	c #EBEBEA",
"' 	c #F1F1F0",
") 	c #F6F6F5",
"! 	c #F7F7F6",
"~ 	c #F6F5F4",
"{ 	c #F6F6F4",
"] 	c #F5F5F4",
"^ 	c #F6F6F3",
"/ 	c #F4F4F3",
"( 	c #EDEEED",
"_ 	c #DEDFDE",
": 	c #8A8C87",
"< 	c #81837E",
"[ 	c #7D7F7B",
"} 	c #EEEEED",
"| 	c #FFFFFF",
"1 	c #F8F8F5",
"2 	c #F4F4F1",
"3 	c #DCDCE1",
"4 	c #D3D4DD",
"5 	c #EDEDED",
"6 	c #F8F8F4",
"7 	c #F1F1EF",
"8 	c #F0F0EE",
"9 	c #F5F5F3",
"0 	c #CECFCC",
"a 	c #A0A19D",
"b 	c #71746E",
"c 	c #828580",
"d 	c #E3E4E2",
"e 	c #F9F9F9",
"f 	c #F8F8F6",
"g 	c #A2A4B9",
"h 	c #B5BACB",
"i 	c #D4D7E0",
"j 	c #C9D0DB",
"k 	c #A9B2CA",
"l 	c #858AAA",
"m 	c #BDBFCB",
"n 	c #FAFAF6",
"o 	c #F2F2F0",
"p 	c #F1F1EE",
"q 	c #AFB0AD",
"r 	c #82847F",
"s 	c #848680",
"t 	c #D7D7D6",
"u 	c #FAFAF9",
"v 	c #F9F9F7",
"w 	c #CFD0D9",
"x 	c #A8ACC0",
"y 	c #C3CED9",
"z 	c #D6DCE3",
"A 	c #EFEEEE",
"B 	c #CFD7DD",
"C 	c #B1CAE3",
"D 	c #ACC8E3",
"E 	c #B2BCD1",
"F 	c #9FA3B8",
"G 	c #E2E2E6",
"H 	c #F0F0ED",
"I 	c #EEEEEC",
"J 	c #FFFFFE",
"K 	c #B4B5B2",
"L 	c #7C7E78",
"M 	c #7E807B",
"N 	c #F9F9F8",
"O 	c #FFFFFC",
"P 	c #8689A7",
"Q 	c #CAD2D9",
"R 	c #BDCAD8",
"S 	c #C9D5E1",
"T 	c #D3E0EC",
"U 	c #CBD8E6",
"V 	c #C9D8E9",
"W 	c #BDD2E8",
"X 	c #CAD4DC",
"Y 	c #B0BBC7",
"Z 	c #9095A7",
"` 	c #E9E9EB",
" .	c #EFEFED",
"..	c #EDEDEB",
"+.	c #AAABA8",
"@.	c #B0B1AE",
"#.	c #F8F8F7",
"$.	c #D2D2DB",
"%.	c #F9FAFA",
"&.	c #E4E8EE",
"*.	c #F3F2F2",
"=.	c #CBD0D6",
"-.	c #E5F4FF",
";.	c #E0EEFD",
">.	c #D4E5F7",
",.	c #C0CAD5",
"'.	c #D5DCE3",
").	c #EFF0F2",
"!.	c #F8F8F8",
"~.	c #ECECEA",
"{.	c #A2A6B5",
"].	c #F3F3F1",
"^.	c #EFEFEC",
"/.	c #EEEEEB",
"(.	c #F3F4F2",
"_.	c #898A85",
":.	c #868882",
"<.	c #FBFBF9",
"[.	c #B9BBCC",
"}.	c #FEFEFE",
"|.	c #B8BDC1",
"1.	c #D6E5F2",
"2.	c #E1F0FF",
"3.	c #E2F0FF",
"4.	c #D6E7F8",
"5.	c #D7DDE3",
"6.	c #C1C5C8",
"7.	c #E2E3E5",
"8.	c #FBFBFB",
"9.	c #E6E6E6",
"0.	c #BBBDC2",
"a.	c #D2D3D9",
"b.	c #F3F3F0",
"c.	c #F3F3F2",
"d.	c #DEDEDC",
"e.	c #7E817B",
"f.	c #A9AAA7",
"g.	c #DEDEE5",
"h.	c #F1F2F4",
"i.	c #FDFBF9",
"j.	c #BCC7D2",
"k.	c #DFF0FF",
"l.	c #E0F0FF",
"m.	c #DFEFFF",
"n.	c #D3E5F7",
"o.	c #DADEE3",
"p.	c #DCE5EE",
"q.	c #AAB7C4",
"r.	c #A8B5C3",
"s.	c #DFDEDC",
"t.	c #747990",
"u.	c #F9F8F5",
"v.	c #F1F1ED",
"w.	c #ECECE9",
"x.	c #969893",
"y.	c #E5E5E4",
"z.	c #FBFBF8",
"A.	c #A2A5BA",
"B.	c #9CB9D6",
"C.	c #B5CDE6",
"D.	c #CEE5FA",
"E.	c #DDEEFE",
"F.	c #D9EBFC",
"G.	c #D3E4F3",
"H.	c #E9EBEC",
"I.	c #D5D7D8",
"J.	c #9EA6B0",
"K.	c #7D808F",
"L.	c #F8F7F4",
"M.	c #A9ABA7",
"N.	c #80827D",
"O.	c #ECECEB",
"P.	c #F4F4F2",
"Q.	c #FCFCF9",
"R.	c #868CA9",
"S.	c #DFE4E8",
"T.	c #9EB2C5",
"U.	c #ABCBED",
"V.	c #BAD5F3",
"W.	c #C6DEF6",
"X.	c #CDE2F7",
"Y.	c #CBDFF6",
"Z.	c #D1D8E0",
"`.	c #F9F8F8",
" +	c #929FAD",
".+	c #9CA5AF",
"++	c #7384A8",
"@+	c #E4E3E4",
"#+	c #EFEFEE",
"$+	c #EDEDEA",
"%+	c #A8A9A6",
"&+	c #ECECEC",
"*+	c #7E82A1",
"=+	c #98B9DC",
"-+	c #A9B6C4",
";+	c #DBDEE3",
">+	c #C7CED6",
",+	c #ACC8E6",
"'+	c #AECBEA",
")+	c #A7C7E8",
"!+	c #AFC6E0",
"~+	c #F1F2F3",
"{+	c #F2F4F6",
"]+	c #FDFDFD",
"^+	c #D4D4D4",
"/+	c #778DA6",
"(+	c #707C9F",
"_+	c #F1F0EE",
":+	c #A6A8A4",
"<+	c #81827D",
"[+	c #E7E8E7",
"}+	c #F7F7F4",
"|+	c #BEBFCD",
"1+	c #8BA8CD",
"2+	c #84AAD4",
"3+	c #D5DBE2",
"4+	c #98B4D1",
"5+	c #95B8DE",
"6+	c #8DB1D7",
"7+	c #83A3C7",
"8+	c #84A2C2",
"9+	c #EAEAEB",
"0+	c #DFDFDF",
"a+	c #C2C3C2",
"b+	c #4C709A",
"c+	c #676D91",
"d+	c #F8F7F3",
"e+	c #EBEBE8",
"f+	c #6E706A",
"g+	c #D1D1CF",
"h+	c #F2F2F1",
"i+	c #7C92B9",
"j+	c #7BA0CA",
"k+	c #FDFCFA",
"l+	c #F2F3F4",
"m+	c #7FA2C8",
"n+	c #7AA2CD",
"o+	c #709AC8",
"p+	c #6992BF",
"q+	c #D4D7DA",
"r+	c #D3D3D2",
"s+	c #878D94",
"t+	c #4D6F9E",
"u+	c #9598B0",
"v+	c #F4F4EF",
"w+	c #EAEAE7",
"x+	c #A9ABA6",
"y+	c #9C9D9A",
"z+	c #F2F2EF",
"A+	c #A2A6BD",
"B+	c #80A6CE",
"C+	c #97ABC0",
"D+	c #F2F2F2",
"E+	c #C5CCD2",
"F+	c #6A95C6",
"G+	c #6693C3",
"H+	c #5E8CBE",
"I+	c #5884B5",
"J+	c #C2C6C9",
"K+	c #BEBDBD",
"L+	c #59697E",
"M+	c #717EA2",
"N+	c #EAEAE9",
"O+	c #E9E9E6",
"P+	c #8D8E8A",
"Q+	c #7E807A",
"R+	c #DCDCDA",
"S+	c #D8D8DB",
"T+	c #7B88AA",
"U+	c #6A90B8",
"V+	c #DCDBDA",
"W+	c #C8C9C9",
"X+	c #597CA3",
"Y+	c #5887BC",
"Z+	c #5483B8",
"`+	c #4B7DB4",
" @	c #4074AD",
".@	c #A4AAB1",
"+@	c #9EA0A1",
"@@	c #687B9E",
"#@	c #9898A7",
"$@	c #E2E2DF",
"%@	c #EAEAE6",
"&@	c #F7F7F5",
"*@	c #C4C4C1",
"=@	c #7D7E79",
"-@	c #AAACA8",
";@	c #D9D9D6",
">@	c #AAAAAF",
",@	c #6E799A",
"'@	c #D5D4D2",
")@	c #6B819A",
"!@	c #4579B2",
"~@	c #4477B0",
"{@	c #4073AC",
"]@	c #3E6EA6",
"^@	c #39659C",
"/@	c #5D718A",
"(@	c #69748F",
"_@	c #767887",
":@	c #B1B1AF",
"<@	c #CECECC",
"[@	c #E9E9E7",
"}@	c #E6E6E3",
"|@	c #878984",
"1@	c #777A74",
"2@	c #C6C7C5",
"3@	c #DADAD7",
"4@	c #BDBDBB",
"5@	c #9A999A",
"6@	c #6A6E7F",
"7@	c #647BA1",
"8@	c #5575A3",
"9@	c #4F75A5",
"0@	c #4E73A3",
"a@	c #4E6C99",
"b@	c #576C93",
"c@	c #606885",
"d@	c #6B6B76",
"e@	c #9A9997",
"f@	c #B3B3B1",
"g@	c #D3D3D1",
"h@	c #EBEBE7",
"i@	c #9EA09B",
"j@	c #B8B9B6",
"k@	c #D3D3D0",
"l@	c #BABAB9",
"m@	c #A3A3A2",
"n@	c #8D8D8D",
"o@	c #7A7A7E",
"p@	c #5C5E73",
"q@	c #505571",
"r@	c #696A72",
"s@	c #797979",
"t@	c #898988",
"u@	c #9D9D9B",
"v@	c #B2B2B1",
"w@	c #D4D4D0",
"x@	c #E9E9E5",
"y@	c #E8E8E4",
"z@	c #FEFEFD",
"A@	c #9B9C98",
"B@	c #767872",
"C@	c #BBBCB8",
"D@	c #E6E6E5",
"E@	c #E4E4E1",
"F@	c #D5D5D3",
"G@	c #C7C7C5",
"H@	c #BBBBB8",
"I@	c #B2B2AF",
"J@	c #AEAEAA",
"K@	c #B1B1AE",
"L@	c #B9B9B7",
"M@	c #C5C5C3",
"N@	c #D4D4D1",
"O@	c #E6E6E2",
"P@	c #F7F7F7",
"Q@	c #797C76",
"R@	c #878A84",
"S@	c #C3C3C1",
"T@	c #FCFCFC",
"U@	c #E8E8E5",
"V@	c #E7E7E3",
"W@	c #E5E5E1",
"X@	c #9FA19D",
"Y@	c #6F726C",
"Z@	c #BBBDB9",
"`@	c #C7C9C6",
" #	c #E2E1E0",
".#	c #FAFAF8",
"+#	c #EFF0EE",
"@#	c #EAE9E6",
"##	c #B1B2AE",
"$#	c #848681",
"%#	c #8C8D89",
"&#	c #8B8C88",
"*#	c #888A85",
"=#	c #8C8D88",
"-#	c #868883",
";#	c #A2A3A0",
">#	c #EFF0EF",
",#	c #C5C7C4",
"'#	c #7D7F7A",
")#	c #7B7E78",
"!#	c #A9AAA6",
"~#	c #B5B6B3",
"{#	c #D5D6D3",
"]#	c #F8F9F8",
"^#	c #A7A9A4",
"/#	c #848781",
"(#	c #898B86",
"_#	c #8C8E89",
":#	c #000000",
"                  . + @ @ # $ % & * = -                 ",
"              ; > , ' ) ! ~ { ] ^ / ( _ : <             ",
"          [ @ } | { 1 2 3 4 5 6 2 7 8 9 | 0 a b         ",
"        c d e ) f 5 g h i j k l m n o 7 p ' ! q r       ",
"      s t u { v w x y z A B C D E F G 2 7 H I J K L     ",
"    M , N ) O P Q R S T U V W X Y 8 Z ` o 8  ...! +.    ",
"    @.e ) #.$.%.&.*.=.-.;.>.,.'.).!.~.{.].7  .^./.(._.  ",
"  :.) ) ! <.[.}.| |.1.2.3.4.5.6.7.8.9.0.a.b.H ^...c.d.e.",
"  f.| ] #.g.h.i.j.k.l.m.2.n.o.p.q.r.9.s.t.u.v.^...w.' x.",
". y.! ] z.A.Q B.C.D.E.E.F.G.8.}.| H.I.J.K.L. .^...w.o M.",
"N.O.P.9 Q.R.S.T.U.V.W.X.Y.Z.| }.}.`. +.+++@+#+^.$+w.p %+",
"- &+].P.z.*+=+-+;+>+,+'+)+!+~+{+]+&+^+/+(+_+^./.$+w.^.:+",
"<+[+P.c.}+|+1+2+<.J 3+4+5+6+7+8+9+0+a+b+c+d+^...w.e+p M.",
"f+g+#.o ].h+i+j+k+]+| l+m+n+o+p+q+r+s+t+u+v+..$+e+w+7 x+",
"  y+| 7 z+b.A+B+C+D+!.E+F+G+H+I+J+K+L+M+N+/.$+w.e+O+#+P+",
"  Q+R+7 8 8 S+T+U+V+W+X+Y+Z+`+ @.@+@@@#@$@$+e+e+%@&@*@=@",
"    -@f ..H ;@>@,@'@)@!@~@{@]@^@/@(@_@:@<@w+e+%@[@}@|@  ",
"    1@2@N /.3@4@5@6@7@8@9@0@a@b@c@d@e@f@g@h@O+O+#.i@    ",
"      ; j@N e+k@l@m@n@o@p@q@r@s@t@u@v@w@O+x@y@z@A@;     ",
"        B@C@D@{ E@F@G@H@I@J@K@L@M@N@E@w+y@O@P@f.Q@      ",
"            R@S@T@P.w+O+O+O+x@x@U@y@U@y@V@W@! X@        ",
"              Y@|@Z@`@ #P.N .#.#P.+#&@@#W@W@P.##        ",
"                      $#%#&#*#|@=#-#;#>#) $+x@,#'#      ",
"                                      )#!#~#{#]#^#/#    ",
"                                            ; (#_#_#    ",
"              :#:#:#:#:#:#:#:#:#:#:#:#:#                ",
"            :#:#:#:#:#:#:#:#:#:#:#:#:#:#:#:#            ",
"                                                        "};
