/* XPM */
static char * kino_xpm[] = {
"32 32 457 2",
"  	c None",
". 	c #4A4A48",
"+ 	c #A3A09B",
"@ 	c #C2C0BC",
"# 	c #94928E",
"$ 	c #403E39",
"% 	c #1B1A18",
"& 	c #242320",
"* 	c #AAA8A2",
"= 	c #EAE8E3",
"- 	c #C1BEB9",
"; 	c #514E47",
"> 	c #4E4B44",
", 	c #ACAAA4",
"' 	c #989693",
") 	c #676663",
"! 	c #292825",
"~ 	c #43413C",
"{ 	c #A4A29C",
"] 	c #C5C3BD",
"^ 	c #55524B",
"/ 	c #423F38",
"( 	c #AFACA7",
"_ 	c #D0CDC8",
": 	c #44413B",
"< 	c #3E3C36",
"[ 	c #8B8A87",
"} 	c #6E6D6B",
"| 	c #272725",
"1 	c #2C2A26",
"2 	c #7F7E78",
"3 	c #DBD8D3",
"4 	c #C7C5C0",
"5 	c #5A5750",
"6 	c #A3A19B",
"7 	c #D9D7D2",
"8 	c #AEACA5",
"9 	c #C5C2BD",
"0 	c #54514B",
"a 	c #312F2B",
"b 	c #535250",
"c 	c #272624",
"d 	c #575552",
"e 	c #686662",
"f 	c #3D3B36",
"g 	c #3C3933",
"h 	c #9A9790",
"i 	c #E1DFDA",
"j 	c #48453E",
"k 	c #B0ADA8",
"l 	c #C5C4BF",
"m 	c #A09E9A",
"n 	c #3F3D38",
"o 	c #201F1D",
"p 	c #090807",
"q 	c #41403D",
"r 	c #928F8A",
"s 	c #ACAAA5",
"t 	c #393630",
"u 	c #3E3B35",
"v 	c #989690",
"w 	c #C9C7C2",
"x 	c #595650",
"y 	c #A7A59F",
"z 	c #D6D4CF",
"A 	c #423F39",
"B 	c #4A4740",
"C 	c #B2B1AB",
"D 	c #A9A8A4",
"E 	c #636260",
"F 	c #2F2F2B",
"G 	c #282725",
"H 	c #12110F",
"I 	c #191815",
"J 	c #65635E",
"K 	c #CAC7C2",
"L 	c #C9C6C0",
"M 	c #5D5A53",
"N 	c #9E9B96",
"O 	c #DFDCD7",
"P 	c #A6A49D",
"Q 	c #C6C4BF",
"R 	c #57544E",
"S 	c #878681",
"T 	c #71716E",
"U 	c #2F2F2E",
"V 	c #181716",
"W 	c #302F2C",
"X 	c #23221F",
"Y 	c #2A2823",
"Z 	c #7B7974",
"` 	c #DCDAD4",
" .	c #E5E3DE",
"..	c #434038",
"+.	c #9B9893",
"@.	c #C8C6C0",
"#.	c #68655C",
"$.	c #615E55",
"%.	c #615D55",
"&.	c #605C54",
"*.	c #5B5851",
"=.	c #525048",
"-.	c #141412",
";.	c #595754",
">.	c #74736F",
",.	c #302E29",
"'.	c #3B3832",
").	c #929089",
"!.	c #C7C5BF",
"~.	c #58554C",
"{.	c #48443C",
"].	c #3D3A33",
"^.	c #7D7B74",
"/.	c #3D3B35",
"(.	c #0A0909",
"_.	c #191917",
":.	c #5E5E5B",
"<.	c #787775",
"[.	c #615F5C",
"}.	c #2D2C27",
"|.	c #2D2C28",
"1.	c #686663",
"2.	c #7B7977",
"3.	c #6A6865",
"4.	c #363531",
"5.	c #2E2D28",
"6.	c #5A5955",
"7.	c #7D7C79",
"8.	c #7D7B79",
"9.	c #363430",
"0.	c #2F2D29",
"a.	c #4E4C48",
"b.	c #7E7C7A",
"c.	c #7B7A77",
"d.	c #474642",
"e.	c #2F2E29",
"f.	c #5E5C57",
"g.	c #D4D1CC",
"h.	c #C9C6C1",
"i.	c #58544C",
"j.	c #454139",
"k.	c #403C35",
"l.	c #4C4943",
"m.	c #37352F",
"n.	c #0B0A09",
"o.	c #292824",
"p.	c #AEADA7",
"q.	c #ECE9E5",
"r.	c #D9D6D2",
"s.	c #47443C",
"t.	c #9D9A94",
"u.	c #D8D5D0",
"v.	c #6A6760",
"w.	c #75736B",
"x.	c #6E6C65",
"y.	c #DBD9D4",
"z.	c #EBE8E3",
"A.	c #95928C",
"B.	c #4C4A43",
"C.	c #DDDBD6",
"D.	c #D5D3CD",
"E.	c #54514A",
"F.	c #5C5953",
"G.	c #3E3B34",
"H.	c #413E37",
"I.	c #423F3A",
"J.	c #38362F",
"K.	c #0C0C0A",
"L.	c #262521",
"M.	c #797770",
"N.	c #6E6B65",
"O.	c #6A6761",
"P.	c #DAD8D3",
"Q.	c #8F8D86",
"R.	c #47433D",
"S.	c #DDDCD7",
"T.	c #ABA9A3",
"U.	c #45433C",
"V.	c #4C4942",
"W.	c #B9B7B1",
"X.	c #CDCBC5",
"Y.	c #434039",
"Z.	c #A4A19B",
"`.	c #D2D0CA",
" +	c #56544C",
".+	c #74726C",
"++	c #3E3A34",
"@+	c #3B3933",
"#+	c #827F78",
"$+	c #272622",
"%+	c #4F4C45",
"&+	c #E4E3DD",
"*+	c #9E9C96",
"=+	c #424039",
"-+	c #C1BFB9",
";+	c #C0BDB8",
">+	c #B0AEA8",
",+	c #59564F",
"'+	c #908E88",
")+	c #E8E6E1",
"!+	c #59554F",
"~+	c #797670",
"{+	c #CCCAC4",
"]+	c #56534B",
"^+	c #413E36",
"/+	c #46423A",
"(+	c #3C3932",
"_+	c #0C0C0B",
":+	c #272623",
"<+	c #48463E",
"[+	c #A2A099",
"}+	c #C3C1BB",
"|+	c #A6A39C",
"1+	c #545149",
"2+	c #48453D",
"3+	c #89867F",
"4+	c #C1BFB8",
"5+	c #BFBDB6",
"6+	c #4E4B43",
"7+	c #727068",
"8+	c #BFBCB6",
"9+	c #68665E",
"0+	c #46433B",
"a+	c #BFBDB7",
"b+	c #78756F",
"c+	c #45413A",
"d+	c #58554E",
"e+	c #99968F",
"f+	c #545148",
"g+	c #0C0B09",
"h+	c #282723",
"i+	c #555148",
"j+	c #605C52",
"k+	c #646056",
"l+	c #625D53",
"m+	c #5A564B",
"n+	c #575349",
"o+	c #5B564C",
"p+	c #5F5B52",
"q+	c #5E5A51",
"r+	c #565148",
"s+	c #544F46",
"t+	c #5B574E",
"u+	c #535046",
"v+	c #4F4C43",
"w+	c #58544B",
"x+	c #57544B",
"y+	c #524E45",
"z+	c #4C483F",
"A+	c #514D44",
"B+	c #4B473F",
"C+	c #49453D",
"D+	c #49453C",
"E+	c #47433B",
"F+	c #090907",
"G+	c #59554B",
"H+	c #59544A",
"I+	c #585349",
"J+	c #565248",
"K+	c #555147",
"L+	c #545046",
"M+	c #534E45",
"N+	c #514C43",
"O+	c #4F4B42",
"P+	c #4E4A41",
"Q+	c #4D4940",
"R+	c #4C4840",
"S+	c #4A473E",
"T+	c #4A463E",
"U+	c #545047",
"V+	c #747067",
"W+	c #98958D",
"X+	c #98948C",
"Y+	c #97948C",
"Z+	c #97938C",
"`+	c #96938C",
" @	c #96928B",
".@	c #95928B",
"+@	c #95928A",
"@@	c #94918A",
"#@	c #939089",
"$@	c #928F88",
"%@	c #918E88",
"&@	c #918E87",
"*@	c #908D87",
"=@	c #8F8C86",
"-@	c #8E8B85",
";@	c #8E8B84",
">@	c #8D8B84",
",@	c #77746D",
"'@	c #3D3B34",
")@	c #272723",
"!@	c #535047",
"~@	c #58544A",
"{@	c #575248",
"]@	c #555047",
"^@	c #534F46",
"/@	c #524D44",
"(@	c #504C43",
"_@	c #504B42",
":@	c #4B473E",
"<@	c #4A463D",
"[@	c #46423B",
"}@	c #444039",
"|@	c #433F38",
"1@	c #3A3731",
"2@	c #272722",
"3@	c #524F46",
"4@	c #534F45",
"5@	c #444139",
"6@	c #423E37",
"7@	c #393730",
"8@	c #282623",
"9@	c #514D45",
"0@	c #524E44",
"a@	c #4F4A42",
"b@	c #4D4941",
"c@	c #48453C",
"d@	c #45423A",
"e@	c #444038",
"f@	c #403D36",
"g@	c #38352F",
"h@	c #504D44",
"i@	c #635F55",
"j@	c #85827A",
"k@	c #89857D",
"l@	c #88847D",
"m@	c #87847C",
"n@	c #86837B",
"o@	c #85827B",
"p@	c #848179",
"q@	c #838078",
"r@	c #837F78",
"s@	c #817E77",
"t@	c #817D76",
"u@	c #807D76",
"v@	c #7F7C75",
"w@	c #7F7B75",
"x@	c #7E7B74",
"y@	c #7D7A74",
"z@	c #7C7A73",
"A@	c #69665F",
"B@	c #080807",
"C@	c #57534A",
"D@	c #615C54",
"E@	c #605C53",
"F@	c #5F5B53",
"G@	c #5E5A52",
"H@	c #5E5951",
"I@	c #5D5850",
"J@	c #5C5850",
"K@	c #5B5750",
"L@	c #5B564F",
"M@	c #5A564F",
"N@	c #59554E",
"O@	c #58544D",
"P@	c #57534C",
"Q@	c #56524B",
"R@	c #56514B",
"S@	c #55514A",
"T@	c #54504A",
"U@	c #535049",
"V@	c #726F69",
"W@	c #716F69",
"X@	c #514D47",
"Y@	c #514C46",
"Z@	c #4A4640",
"`@	c #37342E",
" #	c #423F37",
".#	c #413D36",
"+#	c #67645D",
"@#	c #66635D",
"##	c #35332D",
"$#	c #4D4A42",
"%#	c #3F3C35",
"&#	c #66635C",
"*#	c #65625C",
"=#	c #3D3933",
"-#	c #3B3831",
";#	c #34322C",
">#	c #4D4A41",
",#	c #7B7770",
"'#	c #7B776F",
")#	c #7A776F",
"!#	c #7A766F",
"~#	c #79766E",
"{#	c #78756E",
"]#	c #78756D",
"^#	c #77736D",
"/#	c #76736C",
"(#	c #75726B",
"_#	c #75716A",
":#	c #74716A",
"<#	c #737069",
"[#	c #736F69",
"}#	c #726F68",
"|#	c #716E68",
"1#	c #706D67",
"2#	c #86837D",
"3#	c #85827C",
"4#	c #6F6C66",
"5#	c #625F59",
"6#	c #393731",
"7#	c #080706",
"8#	c #4C4940",
"9#	c #555149",
"0#	c #66625A",
"a#	c #65615A",
"b#	c #646159",
"c#	c #636058",
"d#	c #635F58",
"e#	c #625E57",
"f#	c #615D56",
"g#	c #605C56",
"h#	c #5F5C55",
"i#	c #5F5B54",
"j#	c #5E5B54",
"k#	c #5E5A53",
"l#	c #5D5953",
"m#	c #5C5952",
"n#	c #5C5851",
"o#	c #58554F",
"p#	c #58544F",
"q#	c #57534D",
"r#	c #4F4C46",
"s#	c #4B483F",
"t#	c #4D4840",
"u#	c #3F3B34",
"v#	c #3E3A33",
"w#	c #3A3730",
"x#	c #39362F",
"y#	c #322F2A",
"z#	c #4A463F",
"A#	c #49463D",
"B#	c #3C3832",
"C#	c #3B3731",
"D#	c #35322D",
"E#	c #3F3C34",
"F#	c #3C3831",
"G#	c #3A3630",
"H#	c #39352F",
"I#	c #38342E",
"J#	c #37342D",
"K#	c #36332D",
"L#	c #35322C",
"M#	c #34312B",
"N#	c #33302A",
"O#	c #040403",
"P#	c #0E0D0C",
"Q#	c #0D0D0B",
"R#	c #0C0B0A",
"S#	c #0B0B09",
"T#	c #0A0A08",
"U#	c #0A0908",
"V#	c #090908",
"W#	c #0A0A09",
"X#	c #050404",
"    .                                                           ",
"    + @ # $ %                                                   ",
"  & * = - ; > , ' ) !                                           ",
"  ~ { = ] ^ / ( = _ : < [ } |                                   ",
"  1 2 3 4 5 / 6 = 7 / / 8 = 9 0 a b                             ",
"    c d e f g h = i / / { = 9 ^ j k l m n o                     ",
"            p q r s t u v = w x / y = z A B C D E F             ",
"                  G H I J K L M / N = O / / P = Q R A S T U     ",
"                          V W X Y Z `  .../ +.@.#.$.%.&.*.=.-.  ",
"                                  c ;.>.,.'.).!.~.{.{.].^./.(.  ",
"_.:.<.[.}.|.1.2.3.4.5.6.7.8.9.0.a.b.c.d.e.f.g.h.i.j.{.k.l.m.n.  ",
"o.p.q.r.j s.t.q.u.v.s.^.q.q.w.s.x.y.z.A.s.B.C.D.E.F.G.H.I.J.K.  ",
"L.M.= = N./ O.P.= Q./ R.S.= T.U.V.W.= X.Y./ Z.`. +.+++@+#+< K.  ",
"$+%+&+= *+=+; -+= ;+/ / >+= h.,+/ '+= )+!+/ ~+{+]+^+/+/+H.(+_+  ",
":+<+[+}+|+1+2+3+4+5+6+s.7+8+W.9+0+,+a+a+b+c+d+e+f+{.{.{.{.G.g+  ",
"h+i+j+k+l+m+n+o+p+q+r+s+i+t+t+u+v+v+w+x+y+z+z+A+B+C+D+{.E+].F+  ",
"h+i+o+m+G+H+I+n+J+K+L+s+M+y+A+N+O+O+P+Q+R+z+S+T+C+{.E+E+/+(+p   ",
"h+U+V+W+W+X+Y+Z+`+ @.@+@@@@@#@#@).$@%@&@&@*@Q.=@=@-@;@>@,@'@p   ",
")@!@~@I+{@J+K+]@^@M+/@A+(@_@P+P+Q+R+B+:@<@C+{.E+[@/+j.}@|@1@p   ",
"2@3@n+{@K+]@s+4@y+/@N+(@O+P+Q+Q+z+B+T+C+{.{.E+[@c+5@..|@6@7@p   ",
"8@9@r+K+L+^@y+0@N+(@O+a@b@Q+z+B+T+<@c@{.E+0+d@j.e@|@6@H.f@g@p   ",
"8@h@i@j@k@l@m@m@n@n@o@j@p@p@q@r@#+#+s@t@u@u@v@w@x@y@y@z@A@t B@  ",
"8@v+C@D@%.D@E@F@G@H@I@J@K@L@M@N@O@i.P@Q@R@S@T@U@V@W@X@Y@Z@`@B@  ",
"8@6+0@A+(@_@a@P+Q+R+B+:@<@C+{.s.0+/+j.}@|@ #H..#+#@#G.].(+##B@  ",
":+$#(@(@O+P+Q+Q+B+B+T+C+{.{.E+/+j.5@..|@6@^+k.%#&#*#=#(+-#;#B@  ",
"  >#q+,#,#'#)#!#~#{#]#,@^#/#(#(#_#:#<#[#}#|#|#1#2#3#4#N.5#6#7#  ",
"  8#9#0#0#0#a#b#c#d#e#e#f#g#h#i#j#k#l#m#n#K@5 x o#p#R q#r###7#  ",
"  s#t#z+:@T+C+C+{.E+/+d@5@}@|@ #.#f@%#u#v#].(+'.1@w#x#g@`@y#7#  ",
"  z#B+:@A#C+{.E+[@/+j.}@|@ #^+.#k.%#G.].(+B#C#w#t g@`@`@`@y#7#  ",
"  D#E#u#u#k.k.%#k.u#u#v#].(+F#C#w#G#H#g@I#J#K#D#L#M#M#M#M#N#O#  ",
"    P#Q#_+R#S#T#U#U#U#U#U#V#V#V#V#V#V#V#V#V#V#F+F+V#V#T#W#X#    ",
"                                                                "};
