/* XPM */
static char * gnome_grecord_xpm[] = {
"32 32 13 1",
" 	c None",
".	c #333333",
"+	c #4C4C4C",
"@	c #191919",
"#	c #666667",
"$	c #7F7F7F",
"%	c #000000",
"&	c #999999",
"*	c #B2B2B2",
"=	c #007F7F",
"-	c #CCCCCC",
";	c #00007F",
">	c #0000FF",
"                                ",
"                                ",
"                                ",
"        $$#++                   ",
"        #++++                   ",
"        #+++.                   ",
"            .@       &***       ",
"       &+   +.     $++.#&&      ",
"       $++ &$+    $..@..+&&     ",
"  +##  ..  #++   #..@.@..+&$    ",
"   +++      .   #.@@@.@...$$    ",
"   ##..        #.@.@.@....#$    ",
"   +++        $.@@.@@.@...+#    ",
"   +.         +.@@.@......+#    ",
"  $#.        #@@.@.@.+=.+.+#    ",
"  *#.        +@@@@..#$#=+.##    ",
"  ..        $....@.=$$#++.=#    ",
"        +   #.@.>..&&$=+++###   ",
"       +++  +.....#&$#++#=#++   ",
"      #+ @ #.+.+++#$=++#$#++++  ",
"   $$++    #+++.+=++..+&$=...   ",
"   ##++    =+.=++#$#+=&&#.@..   ",
"   +.+     ##++#$&*-*-*$+.;..   ",
"           $+#=&&*---&$..@@@    ",
"           &#+$**---*$..;@@     ",
"           &$=$**-**=.@@%%%     ",
"            $#&***$+.;@%%%%%%   ",
"            .+.=..@@@%%%%%%%%   ",
"             @@@@@@;%%@%@%%%    ",
"                ;%%%%%%%%%      ",
"                                ",
"                                "};
