/* XPM */
static char * lastfm32a_xpm[] = {
"32 32 519 2",
"  	c None",
". 	c #D22944",
"+ 	c #D53952",
"@ 	c #D7445B",
"# 	c #D8465E",
"$ 	c #D64058",
"% 	c #D3314C",
"& 	c #D0213D",
"* 	c #D43650",
"= 	c #DF6D7F",
"- 	c #E99BA7",
"; 	c #EEB5BE",
"> 	c #F1C1C8",
", 	c #F2C5CB",
"' 	c #F2C5CC",
") 	c #F2C4CB",
"! 	c #F0BDC4",
"~ 	c #ECABB5",
"{ 	c #E58796",
"] 	c #DA5268",
"^ 	c #D0223E",
"/ 	c #D43851",
"( 	c #E68B99",
"_ 	c #F1C0C7",
": 	c #F2C6CC",
"< 	c #F0BAC2",
"[ 	c #EDAFB9",
"} 	c #ECA8B3",
"| 	c #EBA5B0",
"1 	c #ECA8B2",
"2 	c #EDACB6",
"3 	c #F1C2C8",
"4 	c #F2C8CE",
"5 	c #EDADB6",
"6 	c #DD6175",
"7 	c #DF6B7D",
"8 	c #F0BDC5",
"9 	c #F0BEC5",
"0 	c #EA9EAB",
"a 	c #EA9DA9",
"b 	c #EA9EAA",
"c 	c #EA9DAA",
"d 	c #EAA2AE",
"e 	c #EEB1BB",
"f 	c #F1C3CA",
"g 	c #E99EA9",
"h 	c #D53851",
"i 	c #EA8A99",
"j 	c #F0BFC6",
"k 	c #ECA6B1",
"l 	c #EA9FAB",
"m 	c #EEB0BA",
"n 	c #EDB0B9",
"o 	c #D84A61",
"p 	c #EB8797",
"q 	c #EEAEB9",
"r 	c #E999A6",
"s 	c #E99AA7",
"t 	c #EA9BA8",
"u 	c #EBA4AF",
"v 	c #D7415A",
"w 	c #E3667A",
"x 	c #EDA1AE",
"y 	c #E893A1",
"z 	c #E895A2",
"A 	c #E999A5",
"B 	c #E78E9D",
"C 	c #D32C47",
"D 	c #B8384D",
"E 	c #EF93A2",
"F 	c #E78F9D",
"G 	c #E895A3",
"H 	c #DF6F81",
"I 	c #EE7487",
"J 	c #E68D9C",
"K 	c #E58897",
"L 	c #E58594",
"M 	c #E48090",
"N 	c #E38190",
"O 	c #E38291",
"P 	c #E38090",
"Q 	c #E48191",
"R 	c #E58695",
"S 	c #E58292",
"T 	c #E48292",
"U 	c #E68E9C",
"V 	c #D63E57",
"W 	c #B5354A",
"X 	c #EC8797",
"Y 	c #E48291",
"Z 	c #E2798A",
"` 	c #E5909D",
" .	c #EDB8C1",
"..	c #F3D2D7",
"+.	c #F4D7DD",
"@.	c #F2CBD2",
"#.	c #EBAEB8",
"$.	c #E38695",
"%.	c #E37A8B",
"&.	c #E27D8E",
"*.	c #E8A1AD",
"=.	c #F0C3CB",
"-.	c #F0C6CD",
";.	c #E9A6B1",
">.	c #E27E8E",
",.	c #E4808F",
"'.	c #DE687A",
").	c #E1576D",
"!.	c #E58191",
"~.	c #E37B8C",
"{.	c #E3788A",
"].	c #E17989",
"^.	c #EEBDC6",
"/.	c #FDFBFC",
"(.	c #FFFFFF",
"_.	c #FAF0F2",
":.	c #E8A3AF",
"<.	c #E17385",
"[.	c #E1788A",
"}.	c #F1CBD2",
"|.	c #FEFFFF",
"1.	c #F3D6DB",
"2.	c #E27F8F",
"3.	c #E3798B",
"4.	c #E37C8D",
"5.	c #E67A8C",
"6.	c #BF2941",
"7.	c #EB687D",
"8.	c #E17889",
"9.	c #E17485",
"0.	c #DF7284",
"a.	c #F2CFD5",
"b.	c #F9ECEF",
"c.	c #EAADB7",
"d.	c #E38B99",
"e.	c #E38594",
"f.	c #E592A0",
"g.	c #EEC1C9",
"h.	c #E9A8B3",
"i.	c #DF6C7F",
"j.	c #E06E80",
"k.	c #E8A0AC",
"l.	c #F2D1D7",
"m.	c #E28291",
"n.	c #E17F8F",
"o.	c #EFC1C9",
"p.	c #F8EBEE",
"q.	c #E28796",
"r.	c #E07183",
"s.	c #E17586",
"t.	c #E77A8C",
"u.	c #BF3B51",
"v.	c #981F33",
"w.	c #E96B7F",
"x.	c #E07081",
"y.	c #DE6579",
"z.	c #EBB2BC",
"A.	c #DE7385",
"B.	c #DE6478",
"C.	c #DF697C",
"D.	c #DF6A7D",
"E.	c #DF687B",
"F.	c #DD6377",
"G.	c #E38C9B",
"H.	c #FBF4F5",
"I.	c #FDFCFC",
"J.	c #E28595",
"K.	c #DD6074",
"L.	c #EFC0C8",
"M.	c #E17E8F",
"N.	c #DF6579",
"O.	c #DE6B7E",
"P.	c #E06B7E",
"Q.	c #E27385",
"R.	c #D94A61",
"S.	c #B2263C",
"T.	c #E56A7E",
"U.	c #DE6679",
"V.	c #DF7586",
"W.	c #FCF7F8",
"X.	c #FAEFF1",
"Y.	c #DD6F81",
"Z.	c #DE6276",
"`.	c #DE687B",
" +	c #DC5C71",
".+	c #E596A3",
"++	c #F0C9D0",
"@+	c #DA566B",
"#+	c #EDBAC3",
"$+	c #DB596E",
"%+	c #DE6578",
"&+	c #DF677A",
"*+	c #E04F67",
"=+	c #BC2039",
"-+	c #DE4F66",
";+	c #E79EAA",
">+	c #E9ABB6",
",+	c #DB576C",
"'+	c #DD6075",
")+	c #DB5D71",
"!+	c #F5DCE1",
"~+	c #DE6F81",
"{+	c #E18090",
"]+	c #F9EDF0",
"^+	c #E69DA9",
"/+	c #DD6E80",
"(+	c #DA596E",
"_+	c #DB586D",
":+	c #DE6477",
"<+	c #DE677A",
"[+	c #DA3F58",
"}+	c #BD1C36",
"|+	c #D31F3B",
"1+	c #CE1F3B",
"2+	c #E8A7B2",
"3+	c #E07C8D",
"4+	c #DC596E",
"5+	c #DE6779",
"6+	c #E69CA8",
"7+	c #EAAFB9",
"8+	c #D95167",
"9+	c #E6A0AC",
"0+	c #FDFAFB",
"a+	c #FDFBFB",
"b+	c #E38F9D",
"c+	c #DC6074",
"d+	c #DC586D",
"e+	c #D84B61",
"f+	c #D2304A",
"g+	c #D21F3B",
"h+	c #B71D35",
"i+	c #D5203D",
"j+	c #CB102E",
"k+	c #E6A1AC",
"l+	c #D3465D",
"m+	c #CE1A37",
"n+	c #D12A45",
"o+	c #D3334D",
"p+	c #D53D55",
"q+	c #D7465E",
"r+	c #D94F66",
"s+	c #DC5E73",
"t+	c #DD6B7E",
"u+	c #F8EBED",
"v+	c #FCF6F7",
"w+	c #E07A8A",
"x+	c #DE6D80",
"y+	c #E38D9C",
"z+	c #F2D4D9",
"A+	c #ECBCC4",
"B+	c #CD213D",
"C+	c #CE1836",
"D+	c #CE1C39",
"E+	c #D5213D",
"F+	c #A51B31",
"G+	c #D7223E",
"H+	c #CC1330",
"I+	c #E18A99",
"J+	c #D96478",
"K+	c #CD1330",
"L+	c #CF1F3B",
"M+	c #CE1D39",
"N+	c #CE1C38",
"O+	c #CE1B37",
"P+	c #CE1A36",
"Q+	c #CB0D2B",
"R+	c #E18B99",
"S+	c #DB6F81",
"T+	c #CB0C2B",
"U+	c #CD1633",
"V+	c #CC112F",
"W+	c #CC1C38",
"X+	c #D34A60",
"Y+	c #EFC6CD",
"Z+	c #DE7F8F",
"`+	c #CC1431",
" @	c #D0213C",
".@	c #D6213E",
"+@	c #841829",
"@@	c #DD2A45",
"#@	c #CF1F39",
"$@	c #D6566B",
"%@	c #EBB7C0",
"&@	c #CC1935",
"*@	c #D12740",
"=@	c #D12841",
"-@	c #D02841",
";@	c #D1253F",
">@	c #CC2640",
",@	c #CE223C",
"'@	c #D13C53",
")@	c #FCF9FA",
"!@	c #F2D3D8",
"~@	c #CD233E",
"{@	c #D12640",
"]@	c #CE1834",
"^@	c #D13D54",
"/@	c #ECBBC4",
"(@	c #CD1D38",
"_@	c #D42942",
":@	c #C9253E",
"<@	c #DE314B",
"[@	c #D22F47",
"}@	c #CF2B43",
"|@	c #EFC9CF",
"1@	c #DB7383",
"2@	c #CE1E38",
"3@	c #D22E45",
"4@	c #D23047",
"5@	c #D23048",
"6@	c #D33148",
"7@	c #D22C44",
"8@	c #CF2D44",
"9@	c #E7B0BA",
"0@	c #D85C6F",
"a@	c #CE2039",
"b@	c #E8AAB4",
"c@	c #D96577",
"d@	c #D0223B",
"e@	c #D23148",
"f@	c #D12840",
"g@	c #D24157",
"h@	c #EDBEC5",
"i@	c #CE263F",
"j@	c #DB324B",
"k@	c #A72237",
"l@	c #CA3147",
"m@	c #D83B50",
"n@	c #D33147",
"o@	c #D6576A",
"p@	c #FAF4F6",
"q@	c #FDFCFD",
"r@	c #E08A97",
"s@	c #D1394E",
"t@	c #D12E44",
"u@	c #D13046",
"v@	c #D2354A",
"w@	c #D55165",
"x@	c #EDBDC5",
"y@	c #E396A1",
"z@	c #D23046",
"A@	c #D85C6E",
"B@	c #FDFEFE",
"C@	c #F5DDE1",
"D@	c #D2465B",
"E@	c #D02A41",
"F@	c #D12B42",
"G@	c #CF3349",
"H@	c #E8ACB6",
"I@	c #E08996",
"J@	c #E23B52",
"K@	c #87212F",
"L@	c #E34559",
"M@	c #D64254",
"N@	c #D3374A",
"O@	c #D96A79",
"P@	c #F7E7EA",
"Q@	c #EBB7BF",
"R@	c #E9ADB5",
"S@	c #EFC8CF",
"T@	c #FCF7F9",
"U@	c #EFCACF",
"V@	c #D85B6B",
"W@	c #D94E5F",
"X@	c #D54355",
"Y@	c #E49AA4",
"Z@	c #F9EEF0",
"`@	c #EAB4BC",
" #	c #E9ADB6",
".#	c #F5DFE3",
"+#	c #EFCBD1",
"@#	c #D34154",
"##	c #DA4254",
"$#	c #CE384C",
"%#	c #D54153",
"&#	c #DB4D5D",
"*#	c #D74A5A",
"=#	c #D54051",
"-#	c #D65464",
";#	c #E7AAB3",
">#	c #F9EDEF",
",#	c #FEFEFE",
"'#	c #E396A0",
")#	c #D85867",
"!#	c #DB5A68",
"~#	c #DC5E6C",
"{#	c #DB5B6A",
"]#	c #D85060",
"^#	c #E1909B",
"/#	c #F6E3E7",
"(#	c #E6A4AD",
"_#	c #D54B5B",
":#	c #D64556",
"<#	c #E64E60",
"[#	c #7B1F2C",
"}#	c #741E2A",
"|#	c #E85665",
"1#	c #D95360",
"2#	c #D94F5D",
"3#	c #D74B59",
"4#	c #D85C6A",
"5#	c #DD737F",
"6#	c #DF7C87",
"7#	c #DB6370",
"8#	c #DC616D",
"9#	c #DF6B76",
"0#	c #DF6C77",
"a#	c #DE6A76",
"b#	c #DE6975",
"c#	c #DD6671",
"d#	c #DA5966",
"e#	c #D95B69",
"f#	c #DB6875",
"g#	c #DA6673",
"h#	c #D75462",
"i#	c #D64755",
"j#	c #D8505D",
"k#	c #E15865",
"l#	c #C23D4E",
"m#	c #AB3644",
"n#	c #E8626D",
"o#	c #DA5B66",
"p#	c #DB5E68",
"q#	c #DD636D",
"r#	c #DD656F",
"s#	c #DE6670",
"t#	c #DE6973",
"u#	c #E06E78",
"v#	c #E1747D",
"w#	c #E17780",
"x#	c #E17881",
"y#	c #E1767F",
"z#	c #E0747E",
"A#	c #E0717B",
"B#	c #DF6E78",
"C#	c #DD626D",
"D#	c #DC5E69",
"E#	c #DB5B67",
"F#	c #DB5B66",
"G#	c #DF5F6A",
"H#	c #E05361",
"I#	c #C04452",
"J#	c #E96B74",
"K#	c #DD6971",
"L#	c #DF6C74",
"M#	c #E07179",
"N#	c #E1757D",
"O#	c #E17981",
"P#	c #E27D84",
"Q#	c #E38087",
"R#	c #E38289",
"S#	c #E4838A",
"T#	c #E37F86",
"U#	c #E27C83",
"V#	c #E17980",
"W#	c #E0757D",
"X#	c #DF7179",
"Y#	c #DD6770",
"Z#	c #E06871",
"`#	c #E75F6B",
" $	c #BB4652",
".$	c #EF7980",
"+$	c #E2797E",
"@$	c #E17A80",
"#$	c #E27E84",
"$$	c #E38388",
"%$	c #E4868C",
"&$	c #E58A8F",
"*$	c #E68D92",
"=$	c #E68E93",
"-$	c #E58C91",
";$	c #E58A8E",
">$	c #E4868B",
",$	c #E38288",
"'$	c #E17A7F",
")$	c #E0767C",
"!$	c #E8797E",
"~$	c #E3636D",
"{$	c #953742",
"]$	c #EC7E85",
"^$	c #EC9194",
"/$	c #E48E91",
"($	c #E48F92",
"_$	c #E59497",
":$	c #E6979A",
"<$	c #E79A9D",
"[$	c #E89D9F",
"}$	c #E89C9F",
"|$	c #E59396",
"1$	c #E38C8F",
"2$	c #E78E90",
"3$	c #F1898E",
"4$	c #C95862",
"5$	c #BD5D66",
"6$	c #EF969A",
"7$	c #F2A9AA",
"8$	c #ECABAB",
"9$	c #E9AAAB",
"0$	c #E9ABAC",
"a$	c #E9AEAF",
"b$	c #E9ADAE",
"c$	c #E8AAAB",
"d$	c #E8A8A9",
"e$	c #EAA8A9",
"f$	c #EFA9A9",
"g$	c #F2A0A2",
"h$	c #DA787F",
"i$	c #81323B",
"j$	c #9B4E56",
"k$	c #D08086",
"l$	c #E9A0A4",
"m$	c #F3B2B4",
"n$	c #F6BBBB",
"o$	c #F6BBBC",
"p$	c #F4B5B6",
"q$	c #EEA8AA",
"r$	c #DD8F94",
"s$	c #B6646C",
"t$	c #702E37",
"                          . + @ # $ % &                         ",
"                    * = - ; > , ' ) ! ~ { ] ^                   ",
"                / ( _ : < [ } | | 1 2 ; 3 4 5 6                 ",
"              7 8 9 1 0 a a b b b b a a c d e f g h             ",
"            i j k a b l l l l l l l l l l l a b m n o           ",
"          p q r s t t t t t t t t t t t t t t t r l u v         ",
"        w x y z z z z z z z z z z z z z z z z z z z A B C       ",
"      D E F B B B B B B B B B B B B B B B B B B B B B G H       ",
"      I J K K K L M N O P Q R K K K K K K S P P T { K K U V     ",
"    W X Y Y M Z `  ...+.@.#.$.%.Y Y Y M &.*.=.-.;.>.,.Y { '.    ",
"    ).!.~.{.].^./.(.(.(.(.(._.:.<.~.%.[.}.(.(.|.(.1.2.3.4.5.6.  ",
"    7.8.9.0.a.(.b.c.d.e.f.g./.(.h.i.j.k.(.l.m.n.o.p.q.r.s.t.u.  ",
"  v.w.x.y.z.(.1.A.B.C.D.E.F.G.H.I.J.K.L.(.M.N.D.O.H P.j.j.Q.R.  ",
"  S.T.U.V.W.X.Y.Z.E.`.E.E.E. +.+(.++@+#+(.q.$+%+&+&+E.`.`.= *+  ",
"  =+-+ +;+(.>+,+6 K.K.K.'+6 K.)+!+|.~+{+|.]+^+/+(+_+K.:+<+E.[+  ",
"  }+|+1+2+(.3+4+U.`.E.E.5+%+:+$+6+(.7+8+9+0+(.a+a.b+c+d+e+f+g+  ",
"  h+i+j+k+(.l+m+n+o+p+q+r+,+s+Z.t+u+v+w+6 x+y+z+(.(.A+B+C+D+E+  ",
"  F+G+H+I+(.J+K+L+M+N+O+m+m+O+P+Q+R+(.S+T+U+V+W+X+Y+(.Z+`+ @.@  ",
"  +@@@#@$@(.%@&@*@=@=@=@=@-@;@>@,@'@)@!@~@*@=@{@]@^@(./@(@_@:@  ",
"    <@[@}@|@(.1@2@3@4@5@6@7@8@9@0@a@b@(.c@d@e@5@f@g@|.h@i@j@k@  ",
"    l@m@n@o@p@q@r@s@t@u@v@w@x@(.y@z@A@B@C@D@E@F@G@H@(.I@t@J@    ",
"    K@L@M@N@O@p.(.P@Q@R@S@T@(.U@V@W@X@Y@(.Z@`@ #.#(.+#@###$#    ",
"      %#&#*#=#-#;#>#(.(.,#C@'#)#!#~#{#]#^#/#|.(.b.(#_#:#<#[#    ",
"      }#|#1#1#2#3#4#5#6#5#7#8#9#0#a#b#c#d#e#f#g#h#i#j#k#l#      ",
"        m#n#o#p#q#r#s#t#u#v#w#x#x#y#z#A#B#t#C#D#E#F#G#H#        ",
"          I#J#K#L#M#N#O#P#Q#R#S#S#R#T#U#V#W#X#L#Y#Z#`#          ",
"             $.$+$@$#$$$%$&$*$=$=$-$;$>$,$#$'$)$!$~$            ",
"              {$]$^$/$($_$:$<$[$}$<$:$|$($1$2$3$4$              ",
"                  5$6$7$8$9$0$a$b$c$d$e$f$g$h$i$                ",
"                      j$k$l$m$n$o$p$q$r$s$t$                    ",
"                                                                ",
"                                                                "};
