/* XPM */
static char * lastfm16a_xpm[] = {
"16 16 144 2",
"  	c None",
". 	c #E58695",
"+ 	c #E58897",
"@ 	c #E37C8C",
"# 	c #E794A1",
"$ 	c #EEB3BC",
"% 	c #ECA9B3",
"& 	c #EBA2AE",
"* 	c #ECA7B2",
"= 	c #EEB2BC",
"- 	c #EAA1AD",
"; 	c #ECA4B0",
"> 	c #EA9EAA",
", 	c #EA9DA9",
"' 	c #EA9DAA",
") 	c #EA9CA9",
"! 	c #ECA6B1",
"~ 	c #EA8A9A",
"{ 	c #E8919F",
"] 	c #E892A0",
"^ 	c #E48292",
"/ 	c #E793A0",
"( 	c #EBABB5",
"_ 	c #E99EAB",
": 	c #E48493",
"< 	c #E48594",
"[ 	c #E48494",
"} 	c #E58A99",
"| 	c #EAA2AE",
"1 	c #E58B9A",
"2 	c #E07283",
"3 	c #E46E81",
"4 	c #E27688",
"5 	c #F0C1C9",
"6 	c #F8E5E8",
"7 	c #F1C4CB",
"8 	c #F4D4DA",
"9 	c #F8E3E7",
"0 	c #E38091",
"a 	c #E38090",
"b 	c #F8E6EA",
"c 	c #F0C0C8",
"d 	c #F6E0E4",
"e 	c #E27C8D",
"f 	c #E4798B",
"g 	c #E36B7E",
"h 	c #E9A1AD",
"i 	c #F2CDD3",
"j 	c #DE687C",
"k 	c #DF697C",
"l 	c #DE677A",
"m 	c #E89CA9",
"n 	c #F4D2D8",
"o 	c #E58C9A",
"p 	c #DE6377",
"q 	c #DF6A7D",
"r 	c #E06E80",
"s 	c #D73A53",
"t 	c #F3D1D6",
"u 	c #E07687",
"v 	c #DE6477",
"w 	c #DE6478",
"x 	c #DC5E72",
"y 	c #F6DEE2",
"z 	c #E07C8C",
"A 	c #F6E2E6",
"B 	c #E28493",
"C 	c #DD5F73",
"D 	c #DA5268",
"E 	c #D11936",
"F 	c #F1CAD1",
"G 	c #D2364F",
"H 	c #D02642",
"I 	c #D22E48",
"J 	c #D43650",
"K 	c #D63D56",
"L 	c #EEB8C0",
"M 	c #D53C55",
"N 	c #DB6477",
"O 	c #F0C4CB",
"P 	c #E697A4",
"Q 	c #CE1A37",
"R 	c #D72A44",
"S 	c #E5929F",
"T 	c #E4909E",
"U 	c #D02740",
"V 	c #D22C44",
"W 	c #D22B44",
"X 	c #D54A5F",
"Y 	c #D1364E",
"Z 	c #F5DDE1",
"` 	c #D2344C",
" .	c #D03048",
"..	c #D22841",
"+.	c #C8364A",
"@.	c #D44054",
"#.	c #F2D1D6",
"$.	c #EAAAB4",
"%.	c #DE7080",
"&.	c #E4919E",
"*.	c #F6E1E4",
"=.	c #DA5C6C",
"-.	c #E48E99",
";.	c #DD6E7D",
">.	c #EBAFB8",
",.	c #E8A5AE",
"'.	c #D7394E",
").	c #DD505F",
"!.	c #D74E5C",
"~.	c #E49099",
"{.	c #EEBBC1",
"].	c #EBACB4",
"^.	c #DE6E7A",
"/.	c #DD6470",
"(.	c #DC5E6C",
"_.	c #E28A94",
":.	c #ECB3BA",
"<.	c #E38B95",
"[.	c #D94E5D",
"}.	c #DF636D",
"|.	c #DE6972",
"1.	c #E06F78",
"2.	c #E27880",
"3.	c #E27D85",
"4.	c #E17880",
"5.	c #E0717A",
"6.	c #DE6771",
"7.	c #DD616C",
"8.	c #CF515D",
"9.	c #E78086",
"0.	c #E3888C",
"a.	c #E58F93",
"b.	c #E79498",
"c.	c #E69498",
"d.	c #E58E92",
"e.	c #E3878B",
"f.	c #E68286",
"g.	c #C95C64",
"h.	c #C3787C",
"i.	c #E49EA0",
"j.	c #EFB2B2",
"k.	c #EFB2B3",
"l.	c #E7A2A4",
"m.	c #CB8084",
"              . + @             ",
"        # $ % & & * = -         ",
"      ; > , ' ' ' ' ' ) !       ",
"    ~ { ] ] ] ] ] ] ] ] ] ]     ",
"    . ^ / ( _ : < [ } | 1 [ 2   ",
"  3 4 5 6 7 8 9 0 a b c d e f   ",
"  g h i j k l m n o 5 p q q r   ",
"  s t u v w p x y z A 5 B C D   ",
"  E F G H I J K z L M N O P Q   ",
"  R S T U V W X Y Z ` V  .y ..  ",
"  +.@.#.$.%.&.*.=.-.O ;.>.,.'.  ",
"    ).!.~.{.].^./.(._.:.<.[.    ",
"      }.|.1.2.3.3.4.5.6.7.8.    ",
"        9.0.a.b.c.d.e.f.g.      ",
"          h.i.j.k.l.m.          ",
"                                "};
