/* XPM */
static char *slrn[] = {
/* columns rows colors chars-per-pixel */
"32 32 12 1",
"  c black",
". c #191919",
"X c gray20",
"o c #4C4C4C",
"O c #666667",
"+ c gray50",
"@ c gray60",
"# c #B2B2B2",
"$ c gray80",
"% c gray90",
"& c gray100",
"* c None",
/* pixels */
"********************************",
"********************************",
"********************************",
"********************************",
"********************************",
"* @O.. *************  .o+@@@O***",
"* @%$#oo **********.o+@#$%%%@***",
"**o%%%%%@@X ***  .o+@@###@@#@***",
"**X$%%%%&&%@X* .oO+++@@@+O@$.***",
"***@%#@#%%%%%ooO++oXX+@@o@o#.***",
"***@%@+#%###%#+OOoXooooOOOo@.***",
"***+%#@#%#%@$#oOoXXoOXoXO###.***",
"***.%$##%#@O$$X.XXXoOO+@@@O@.***",
"***.%$##%%#@$%oXXX.oO+@O+++O ***",
"***.%%$%&&%$%%OoOooOOOO+O++O.***",
"***.%%#%%&%$%%OooooooO+O+o@@ ***",
"***.%%###$$%%%+oooooOO++@@#+. **",
"***.%%$$%$$$&%+oXoooOO+O@@#O  **",
"***.%%%$%%$$%%+oooooOOOO@@#X   *",
"***.%%$%&$#$%%+ooXoooO+O@@#o   *",
"***.%&%&&$$@%%+Ooooooo+O##$o   *",
"** .#%&&&$$$%$+ooooO++++@@#o    ",
"**  .o@#%&%$&$+OOOOoOO++@#$o    ",
"**     .X+$&&$@OOooooOOOooo.    ",
"**        .@$%@OooX. ..         ",
"***         .+OX.               ",
"*****                           ",
"*******                         ",
"********                       *",
"*********                    ***",
"**********             *********",
"*************       ************"
};
