/* XPM */
static char *emma[] = {
/* columns rows colors chars-per-pixel */
"32 32 117 2",
"   c #606060",
".  c #626262",
"X  c #646464",
"o  c #656565",
"O  c gray40",
"+  c #676767",
"@  c #686868",
"#  c DimGray",
"$  c #6A6A6A",
"%  c gray42",
"&  c #6C6C6C",
"*  c #6D6D6D",
"=  c gray43",
"-  c gray44",
";  c gray45",
":  c #747474",
">  c gray46",
",  c #767676",
"<  c #777777",
"1  c gray47",
"2  c #797979",
"3  c gray48",
"4  c #7B7B7B",
"5  c #7C7C7C",
"6  c gray49",
"7  c #7E7E7E",
"8  c #7F7F7F",
"9  c #E13434",
"0  c #808080",
"q  c #818181",
"w  c gray51",
"e  c #838383",
"r  c #848484",
"t  c gray52",
"y  c #868686",
"u  c gray53",
"i  c #898989",
"p  c gray54",
"a  c #8B8B8B",
"s  c #8D8D8D",
"d  c #8E8E8E",
"f  c gray56",
"g  c #909090",
"h  c gray57",
"j  c #959595",
"k  c gray59",
"l  c #979797",
"z  c #989898",
"x  c gray60",
"c  c #9B9B9B",
"v  c gray61",
"b  c #9D9D9D",
"n  c gray62",
"m  c #9F9F9F",
"M  c #A0A0A0",
"N  c #A2A2A2",
"B  c gray64",
"V  c #A4A4A4",
"C  c #A5A5A5",
"Z  c gray65",
"A  c #A7A7A7",
"S  c gray66",
"D  c #AAAAAA",
"F  c gray67",
"G  c #ACACAC",
"H  c #AEAEAE",
"J  c #AFAFAF",
"K  c gray69",
"L  c #B1B1B1",
"P  c gray70",
"I  c gray71",
"U  c #B6B6B6",
"Y  c #B7B7B7",
"T  c #B9B9B9",
"R  c #BBBBBB",
"E  c #BCBCBC",
"W  c gray74",
"Q  c gray",
"!  c gray75",
"~  c #C0C0C0",
"^  c #C1C1C1",
"/  c #C3C3C3",
"(  c gray77",
")  c #C5C5C5",
"_  c gray78",
"`  c #C8C8C8",
"'  c gray79",
"]  c #CACACA",
"[  c #CBCBCB",
"{  c gray80",
"}  c #CDCDCD",
"|  c gray81",
" . c #D0D0D0",
".. c gray82",
"X. c #D2D2D2",
"o. c LightGray",
"O. c gray83",
"+. c #D5D5D5",
"@. c gray84",
"#. c #D7D7D7",
"$. c gray85",
"%. c #DADADA",
"&. c gray86",
"*. c gainsboro",
"=. c #DDDDDD",
"-. c #DFDFDF",
";. c #E1E1E1",
":. c #E2E2E2",
">. c gray89",
",. c #E4E4E4",
"<. c gray90",
"1. c #E6E6E6",
"2. c #E7E7E7",
"3. c gray91",
"4. c #E9E9E9",
"5. c #EAEAEA",
"6. c gray92",
/* pixels */
"L @ o o a ~ 2.6.6.6.6.6.6.6.6.6.6.6.6.6.6.6.6.6.6.6.6.6.6.6.6.6.",
"d g ..D 3 $ M ] | $.1.6.6.6.6.6.6.6.6.6.6.6.6.6.6.6.6.6.6.6.6.6.",
"A 6 O.5.%.n *   X 1 j ` 2.6.6.6.6.6.6.6.6.6.6.6.6.6.6.6.6.6.6.6.",
"#.q h -.6.1.@..._ v - - C =.5.6.6.6.6.6.6.6.6.6.6.6.6.6.6.6.6.6.",
"5.[ 1 H 4.6.>.#.3.3.+.b & t ' 5.6.6.6.6.6.6.6.6.6.6.6.6.6.6.6.6.",
"6.3.G 5 +.6.X.i E 6.6.<.~ 3 , ! 3.6.6.6.6.6.6.6.6.6.6.6.6.6.6.6.",
"6.6.+.3 J 6.1.F K 6.6.6.5.o.w # Y 5.6.6.6.6.6.6.6.6.6.6.6.6.6.6.",
"6.6.,.v g >.6.,.;.6.6.6.6.5.o.8 = / 4.6.6.6.6.6.6.6.6.6.6.6.6.6.",
"6.6.5.Q 2 X.6.6.6.6.6.6.6.5.5.X.2 > | 6.6.6.6.6.6.6.6.6.6.6.6.6.",
"6.6.6.*.r N 2.6.6.6.6.6.6.6.6.4.( - s >.6.6.6.6.6.6.6.6.6.6.6.6.",
"6.6.6.3.K , ] 6.6.6.6.6.6.6.6.6.2.C O I 4.6.6.6.6.6.6.6.6.6.6.6.",
"6.6.6.6.-.d f :.6.6.6.6.6.6.6.6.6.&.0 4 *.6.6.6.6.6.6.6.6.6.6.6.",
"6.6.6.6.1.v s :.6.6.6.6.6.6.6.6.6.4.P X R 5.6.6.6.6.6.6.6.6.6.6.",
"6.6.6.6.=.w K 6.6.6.6.6.6.6.6.6.6.6.o.; a 2.6.6.6.6.6.6.6.6.6.6.",
"6.6.6.6.X.5 { 6.6.6.6.6.6.6.6.6.6.6.2.b = ) 6.6.6.6.6.6.6.6.6.6.",
"6.6.6.5.~ w *.6.5.3.6.6.6.6.6.6.6.6.6.X.& c <.6.6.6.6.6.6.6.6.6.",
"6.6.6.4.U 0 -.4.) J 1.6.6.6.6.6.6.6.6.1.l %  .6.6.6.6.6.6.6.6.6.",
"6.6.6.5./ 8 #.&.e < @.6.6.6.6.6.6.6.6.6.` # z 3.6.6.6.6.6.6.6.6.",
"6.6.6.6.O.2 ^ ] . X L 5.6.6.6.6.6.6.6.6.>.g % L %.4.6.6.6.6.6.6.",
"6.6.6.6.-.y m T O y w @.6.6.6.6.6.6.6.6.5. .p o 2 C %.5.6.6.6.6.",
"6.6.6.6.4.Y > u = W q B 1.6.6.6.6.6.6.6.6.5.-.} V 3 7 ! 2.6.6.6.",
"6.6.6.6.6.>.B % g *.~ 7 ` 5.6.6.6.6.6.6.6.6.6.6.4.=.n : Z :.6.6.",
"6.6.6.6.6.6.,.o.=.5.2.Q b =.6.6.6.6.6.6.6.6.6.6.6.6.1.Q 7 k *.6.",
"6.6.6.6.6.6.6.6.6.6.6.4.} ! >.6.6.6.6.6.6.6.6.6.>.' K m p   V 2.",
"6.6.6.6.6.6.6.6.6.6.6.6.5.$...6.6.6.6.6.6.6.6.2.x $ O 7 z S | 4.",
"6.6.6.6.6.6.6.6.6.6.6.6.6.6.5.6.6.6.6.6.6.6.6.4.P . r +.2.4.6.6.",
"6.6.6.6.6.6.6.6.6.6.6.6.6.6.6.6.6.6.6.6.6.6.6.6.>.m @ 8 Q 1.6.6.",
"6.9 9 9 9 6.6.9 9 9 9 9 9 9 6.9 9 9 9 9 9 9 6.6.6.9 9 9 + Z :.6.",
"9 6.6.6.6.9 6.6.9 6.9 6.6.9 6.6.9 6.9 6.6.9 6.6.6.6.5.#.9 e S <.",
"9 9 9 9 9 9 6.6.9 6.9 6.6.9 3.6.9 6.9 6.6.9 6.6.6.9 9 9 9 $.B Q ",
"9 6.6.6.6.6.6.6.9 6.9 6.6.9 6.6.9 6.9 6.6.9 6.6.9 6.6.6.9 6.1...",
"6.9 9 9 9 6.6.9 9 9 9 9 6.9 9 9 9 9 9 9 6.9 9 6.9 9 9 9 9 9 6.6."
};
