/* XPM */
static char *blackbox_16x16[] = {
/* columns rows colors chars-per-pixel */
"16 16 88 1",
"  c black",
". c gray5",
"X c #101010101010",
"o c gray7",
"O c gray8",
"+ c #161616161616",
"@ c gray9",
"# c #181818181818",
"$ c #191919191919",
"% c gray10",
"& c #1B1B1B1B1B1B",
"* c gray11",
"= c #1E1E1E1E1E1E",
"- c gray12",
"; c #202020202020",
": c gray13",
"> c #222222222222",
", c #232323232323",
"< c gray14",
"1 c #252525252525",
"2 c #272727272727",
"3 c gray16",
"4 c #2A2A2A2A2A2A",
"5 c gray17",
"6 c #2C2C2C2C2C2C",
"7 c #2D2D2D2D2D2D",
"8 c gray18",
"9 c #2F2F2F2F2F2F",
"0 c gray19",
"q c #313131313131",
"w c #323232323232",
"e c #343434343434",
"r c gray21",
"t c #373737373737",
"y c gray22",
"u c #393939393939",
"i c gray23",
"p c #3C3C3C3C3C3C",
"a c #3F3F3F3F3F3F",
"s c gray25",
"d c gray26",
"f c #444444444444",
"g c gray27",
"h c #464646464646",
"j c gray28",
"k c #484848484848",
"l c #494949494949",
"z c #4E4E4E4E4E4E",
"x c gray31",
"c c #505050505050",
"v c #515151515151",
"b c #535353535353",
"n c #555555555555",
"m c #565656565656",
"M c gray34",
"N c #585858585858",
"B c gray36",
"V c #5D5D5D5D5D5D",
"C c gray37",
"Z c #606060606060",
"A c #646464646464",
"S c #656565656565",
"D c gray40",
"F c #686868686868",
"G c gray42",
"H c #6C6C6C6C6C6C",
"J c #6D6D6D6D6D6D",
"K c #6F6F6F6F6F6F",
"L c gray45",
"P c #747474747474",
"I c gray46",
"U c #767676767676",
"Y c #777777777777",
"T c #7B7B7B7B7B7B",
"R c #7C7C7C7C7C7C",
"E c #808080808080",
"W c #818181818181",
"Q c gray51",
"! c #848484848484",
"~ c #868686868686",
"^ c gray54",
"/ c #8B8B8B8B8B8B",
"( c #8D8D8D8D8D8D",
") c #8E8E8E8E8E8E",
"_ c gray57",
"` c #989898989898",
"' c #9B9B9B9B9B9B",
"] c None",
/* pixels */
"]]]]]]]SCn]]]]]]",
"]]]]]IGNvdywt]]]",
"]]](QIGNvgt8->t]",
"]'`(RLGCzgy8w3d]",
"]_/!QIGNvgyt3>n]",
"]/!RLLGZvly8,-]]",
"]QRIJSCNvt8,>#]]",
"]TIJSCnzgw3>-@]]",
"]IJSCnzgd3,>@X]]",
"]JSCnzlay,>#@@]]",
"]SCNvlayt>-@X,]]",
"]Cnzgdy88-@X.#]]",
"]]zldyw33#@X]]]]",
"]]]lyw3>,@@]]]]]",
"]]]]]g,#-#]]]]]]",
"]]]]]]]83]]]]]]]"
};
