/* XPM */
static char *blackbox_32x32[] = {
/* columns rows colors chars-per-pixel */
"32 32 134 2",
"   c gray4",
".  c #0B0B0B0B0B0B",
"X  c #0C0C0C0C0C0C",
"o  c gray5",
"O  c #0E0E0E0E0E0E",
"+  c gray6",
"@  c #101010101010",
"#  c #111111111111",
"$  c gray7",
"%  c #131313131313",
"&  c gray8",
"*  c #151515151515",
"=  c #161616161616",
"-  c gray9",
";  c #181818181818",
":  c #191919191919",
">  c gray10",
",  c #1B1B1B1B1B1B",
"<  c gray11",
"1  c #1D1D1D1D1D1D",
"2  c #1E1E1E1E1E1E",
"3  c gray12",
"4  c #202020202020",
"5  c gray13",
"6  c #222222222222",
"7  c #232323232323",
"8  c gray14",
"9  c #252525252525",
"0  c gray15",
"q  c #272727272727",
"w  c #282828282828",
"e  c gray16",
"r  c #2A2A2A2A2A2A",
"t  c gray17",
"y  c #2C2C2C2C2C2C",
"u  c #2D2D2D2D2D2D",
"i  c gray18",
"p  c #2F2F2F2F2F2F",
"a  c gray19",
"s  c #313131313131",
"d  c #323232323232",
"f  c gray20",
"g  c #343434343434",
"h  c #353535353535",
"j  c gray21",
"k  c #373737373737",
"l  c gray22",
"z  c #393939393939",
"x  c #3A3A3A3A3A3A",
"c  c gray23",
"v  c #3C3C3C3C3C3C",
"b  c gray24",
"n  c #3E3E3E3E3E3E",
"m  c #3F3F3F3F3F3F",
"M  c gray25",
"N  c #414141414141",
"B  c gray26",
"V  c #434343434343",
"C  c #444444444444",
"Z  c gray27",
"A  c #464646464646",
"S  c gray28",
"D  c #484848484848",
"F  c gray29",
"G  c #4B4B4B4B4B4B",
"H  c #4C4C4C4C4C4C",
"J  c gray30",
"K  c #4E4E4E4E4E4E",
"L  c gray31",
"P  c #505050505050",
"I  c #515151515151",
"U  c gray32",
"Y  c #535353535353",
"T  c gray33",
"R  c #555555555555",
"E  c #565656565656",
"W  c gray34",
"Q  c #585858585858",
"!  c gray35",
"~  c #5A5A5A5A5A5A",
"^  c #5B5B5B5B5B5B",
"/  c gray36",
"(  c #5D5D5D5D5D5D",
")  c gray37",
"_  c #5F5F5F5F5F5F",
"`  c #606060606060",
"'  c gray38",
"]  c #626262626262",
"[  c gray39",
"{  c #656565656565",
"}  c gray40",
"|  c #676767676767",
" . c #686868686868",
".. c DimGray",
"X. c #6A6A6A6A6A6A",
"o. c gray42",
"O. c #6C6C6C6C6C6C",
"+. c #6D6D6D6D6D6D",
"@. c gray43",
"#. c gray44",
"$. c #717171717171",
"%. c #727272727272",
"&. c gray45",
"*. c #747474747474",
"=. c gray46",
"-. c #777777777777",
";. c gray47",
":. c #797979797979",
">. c gray48",
",. c #7C7C7C7C7C7C",
"<. c gray49",
"1. c #7E7E7E7E7E7E",
"2. c gray50",
"3. c #808080808080",
"4. c #818181818181",
"5. c #838383838383",
"6. c #848484848484",
"7. c #868686868686",
"8. c gray53",
"9. c #888888888888",
"0. c #898989898989",
"q. c gray54",
"w. c #8B8B8B8B8B8B",
"e. c gray55",
"r. c gray56",
"t. c #939393939393",
"y. c gray58",
"u. c gray59",
"i. c #979797979797",
"p. c #9A9A9A9A9A9A",
"a. c gray62",
"s. c #A0A0A0A0A0A0",
"d. c #A7A7A7A7A7A7",
"f. c None",
/* pixels */
"f.f.f.f.f.f.f.f.f.f.f.f.f.f.:.@.@.f.f.f.f.f.f.f.f.f.f.f.f.f.f.f.",
"f.f.f.f.f.f.f.f.f.f.f.f.:.@./ ^ T L L S @.f.f.f.f.f.f.f.f.f.f.f.",
"f.f.f.f.f.f.f.f.f.f.<.-.o.| / ^ I L S N m x N h @.f.f.f.f.f.f.f.",
"f.f.f.f.f.f.f.f.6.3.-.-.o.| / ^ I L S N x h s r 9 9 m 9 f.f.f.f.",
"f.f.f.f.f.f.p.0.6.<.:.@.o.| / ^ I L S N x h i r 9 < : < s f.f.f.",
"f.f.f.f.d.i.r.0.6.<.-.@.o.| / ^ I L S N x h i r 4 4 9 s s f.f.f.",
"f.f.f.a.a.i.r.0.3.<.:.@.o.| / ^ I L S N x h i r r s i 9 x f.f.f.",
"f.f.f.i.i.i.i.0.6.<.:.@.o.[ / ^ T L S m m h i i x i r 9 N f.f.f.",
"f.f.f.t.r.0.0.r.6.3.:.@.o.| / ^ I G G N m h x x r r 9 4 I f.f.f.",
"f.f.f.r.r.6.6.3.<.3.<.-.o.[ / ^ T L S N m N x i r 9 9 4 G f.f.f.",
"f.f.f.0.0.6.3.<.:.@.-.-.@.o.[ ^ T L S S N h i r 9 9 4 < < f.f.f.",
"f.f.f.0.6.<.<.<.-.@.@.| | o.o./ I L L S s s r r 9 4 4 < 9 f.f.f.",
"f.f.f.6.3.<.:.@.@.@.| [ [ ^ ^ / / T N s i i r 9 9 4 < : m f.f.f.",
"f.f.f.3.<.-.-.@.@.o.| [ ^ ^ T I T S h s i r 9 9 4 < < : I f.f.f.",
"f.f.f.<.-.-.@.@.o.| [ / ^ T I L L m s i r r 9 9 4 < : * @.f.f.f.",
"f.f.f.:.-.@.@.o.[ [ ^ ^ T I L L L m s i r 9 9 4 < : * * t.f.f.f.",
"f.f.f.-.@.o.o.| [ / / T I L G S S x i r r 9 4 < < : * + f.f.f.f.",
"f.f.f.@.@.| | [ / / T I L G S N S h r r 9 4 4 < : * * + f.f.f.f.",
"f.f.f.o.o.| | / / T I L G S N m N h r 9 9 4 < : : * + : f.f.f.f.",
"f.f.f.o.| [ / / T T L G S N m m m i r 4 4 < < : * + + 9 f.f.f.f.",
"f.f.f.| [ / ^ T T L G S N m x x x r 9 4 4 < : * + + X h f.f.f.f.",
"f.f.f.[ / ^ ^ I I G S S m m x s x r 9 4 < < : * + X   S f.f.f.f.",
"f.f.f./ ^ T I L G S N N x h s i h r 4 < < : * + + X X h f.f.f.f.",
"f.f.f./ ^ I L L S N m m x h s i h 9 < < : * * + + + 4 f.f.f.f.f.",
"f.f.f.^ I L G S N N m x s s i r s 9 < : : + + X : f.f.f.f.f.f.f.",
"f.f.f.f.T L S S m m h h i i r 9 s 4 < : * * + < f.f.f.f.f.f.f.f.",
"f.f.f.f.f.f.G N x h h i i r 9 4 i < : : + + 9 o.f.f.f.f.f.f.f.f.",
"f.f.f.f.f.f.f.f.S h s i r 9 4 < r < : * + 4 f.f.f.f.f.f.f.f.f.f.",
"f.f.f.f.f.f.f.f.f./ N r 9 4 < : 4 < * + 4 f.f.f.f.f.f.f.f.f.f.f.",
"f.f.f.f.f.f.f.f.f.f.f.^ x 4 : : < : * i f.f.f.f.f.f.f.f.f.f.f.f.",
"f.f.f.f.f.f.f.f.f.f.f.f.f.I 9 + : < m f.f.f.f.f.f.f.f.f.f.f.f.f.",
"f.f.f.f.f.f.f.f.f.f.f.f.f.f.f.N 9 T f.f.f.f.f.f.f.f.f.f.f.f.f.f."
};
