/* XPM */
static char *blackbox_22x22[] = {
/* columns rows colors chars-per-pixel */
"22 22 105 2",
"   c black",
".  c #0B0B0B0B0B0B",
"X  c #0E0E0E0E0E0E",
"o  c gray6",
"O  c #101010101010",
"+  c #111111111111",
"@  c gray7",
"#  c #131313131313",
"$  c gray8",
"%  c #151515151515",
"&  c #161616161616",
"*  c gray9",
"=  c #181818181818",
"-  c #191919191919",
";  c gray10",
":  c #1B1B1B1B1B1B",
">  c gray11",
",  c #1D1D1D1D1D1D",
"<  c #1E1E1E1E1E1E",
"1  c gray12",
"2  c #202020202020",
"3  c gray13",
"4  c #222222222222",
"5  c #232323232323",
"6  c gray14",
"7  c #252525252525",
"8  c gray15",
"9  c #272727272727",
"0  c #282828282828",
"q  c gray16",
"w  c #2A2A2A2A2A2A",
"e  c gray17",
"r  c #2C2C2C2C2C2C",
"t  c #2D2D2D2D2D2D",
"y  c gray18",
"u  c #2F2F2F2F2F2F",
"i  c gray19",
"p  c #313131313131",
"a  c #323232323232",
"s  c gray20",
"d  c #343434343434",
"f  c gray21",
"g  c #373737373737",
"h  c gray22",
"j  c #3A3A3A3A3A3A",
"k  c #3C3C3C3C3C3C",
"l  c gray24",
"z  c #3F3F3F3F3F3F",
"x  c gray25",
"c  c #414141414141",
"v  c gray26",
"b  c #434343434343",
"n  c #444444444444",
"m  c #464646464646",
"M  c gray28",
"N  c #484848484848",
"B  c #494949494949",
"V  c gray29",
"C  c #4B4B4B4B4B4B",
"Z  c #4C4C4C4C4C4C",
"A  c gray30",
"S  c #4E4E4E4E4E4E",
"D  c #505050505050",
"F  c #515151515151",
"G  c gray32",
"H  c #535353535353",
"J  c gray34",
"K  c #585858585858",
"L  c gray35",
"P  c #5A5A5A5A5A5A",
"I  c #5B5B5B5B5B5B",
"U  c gray36",
"Y  c #5D5D5D5D5D5D",
"T  c gray37",
"R  c #5F5F5F5F5F5F",
"E  c #606060606060",
"W  c #626262626262",
"Q  c gray39",
"!  c #656565656565",
"~  c #676767676767",
"^  c #686868686868",
"/  c DimGray",
"(  c #6C6C6C6C6C6C",
")  c #6D6D6D6D6D6D",
"_  c gray43",
"`  c #6F6F6F6F6F6F",
"'  c #717171717171",
"]  c gray45",
"[  c #747474747474",
"{  c gray47",
"}  c #797979797979",
"|  c gray49",
" . c #7E7E7E7E7E7E",
".. c gray50",
"X. c #808080808080",
"o. c #848484848484",
"O. c #868686868686",
"+. c #898989898989",
"@. c gray56",
"#. c #909090909090",
"$. c gray58",
"%. c #9A9A9A9A9A9A",
"&. c gray62",
"*. c #A2A2A2A2A2A2",
"=. c None",
/* pixels */
"=.=.=.=.=.=.=.=.=.=.~ ~ ~ =.=.=.=.=.=.=.=.=.",
"=.=.=.=.=.=.=.=.] Q L G M c M B =.=.=.=.=.=.",
"=.=.=.=.=.=...[ ( Q L G B c g t 8 8 t G =.=.",
"=.=.=.*.@.o...] ( Q L G B c h u q , 3 u =.=.",
"=.=.&.%.@.o...] ` Q U G B c g t q t t g =.=.",
"=.=.$.#.#.+...[ ( Q U G B c g g g q 8 c =.=.",
"=.=.@.+.o.X...{ ` Q L G B c z h t 8 3 c =.=.",
"=.=.+.o...{ ] ` ` ~ U G B M g t q 3 3 , =.=.",
"=.=.o...{ ] ( ( Q U U L B g t q 8 3 ; t =.=.",
"=.=...{ ] ` ~ Q U J G G g t q 8 3 , ; c =.=.",
"=.=.{ [ ` ~ Q U J G C B g t q 8 , , * L =.=.",
"=.=.] ` ~ Q U L G C B M t q 8 , ; * * =.=.=.",
"=.=.` ( ~ U J G B M c c t 8 3 , * * X =.=.=.",
"=.=.~ Q U L G C M c z h 8 8 , ; * # # =.=.=.",
"=.=.Q U L G C B c z g g 8 , , ; # X ; =.=.=.",
"=.=.U L G C B c h g u g 3 , ; # X . * =.=.=.",
"=.=.J G C B c z h u t u 3 ; * X X , =.=.=.=.",
"=.=.Q G B c z g u q q t ; ; # X t =.=.=.=.=.",
"=.=.=.=.G c g u t 8 3 q ; # # M =.=.=.=.=.=.",
"=.=.=.=.=.=.L u 8 3 ; 3 * * =.=.=.=.=.=.=.=.",
"=.=.=.=.=.=.=.=.c 8 * ; ; =.=.=.=.=.=.=.=.=.",
"=.=.=.=.=.=.=.=.=.=.g q G =.=.=.=.=.=.=.=.=."
};
