/* XPM */
static char *blackbox_48x48[] = {
/* columns rows colors chars-per-pixel */
"48 48 153 2",
"   c black",
".  c #090909090909",
"X  c gray4",
"o  c #0B0B0B0B0B0B",
"O  c #0C0C0C0C0C0C",
"+  c gray5",
"@  c #0E0E0E0E0E0E",
"#  c gray6",
"$  c #101010101010",
"%  c #111111111111",
"&  c gray7",
"*  c #131313131313",
"=  c gray8",
"-  c #151515151515",
";  c #161616161616",
":  c gray9",
">  c #181818181818",
",  c #191919191919",
"<  c gray10",
"1  c #1B1B1B1B1B1B",
"2  c gray11",
"3  c #1D1D1D1D1D1D",
"4  c #1E1E1E1E1E1E",
"5  c gray12",
"6  c #202020202020",
"7  c gray13",
"8  c #222222222222",
"9  c #232323232323",
"0  c gray14",
"q  c #252525252525",
"w  c gray15",
"e  c #272727272727",
"r  c #282828282828",
"t  c gray16",
"y  c #2A2A2A2A2A2A",
"u  c gray17",
"i  c #2C2C2C2C2C2C",
"p  c #2D2D2D2D2D2D",
"a  c gray18",
"s  c #2F2F2F2F2F2F",
"d  c gray19",
"f  c #313131313131",
"g  c #323232323232",
"h  c gray20",
"j  c #343434343434",
"k  c #353535353535",
"l  c gray21",
"z  c #373737373737",
"x  c gray22",
"c  c #393939393939",
"v  c #3A3A3A3A3A3A",
"b  c gray23",
"n  c #3C3C3C3C3C3C",
"m  c gray24",
"M  c #3E3E3E3E3E3E",
"N  c #3F3F3F3F3F3F",
"B  c gray25",
"V  c #414141414141",
"C  c gray26",
"Z  c #434343434343",
"A  c #444444444444",
"S  c gray27",
"D  c #464646464646",
"F  c gray28",
"G  c #484848484848",
"H  c #494949494949",
"J  c gray29",
"K  c #4B4B4B4B4B4B",
"L  c #4C4C4C4C4C4C",
"P  c gray30",
"I  c #4E4E4E4E4E4E",
"U  c gray31",
"Y  c #505050505050",
"T  c #515151515151",
"R  c gray32",
"E  c #535353535353",
"W  c gray33",
"Q  c #555555555555",
"!  c #565656565656",
"~  c gray34",
"^  c #585858585858",
"/  c gray35",
"(  c #5A5A5A5A5A5A",
")  c #5B5B5B5B5B5B",
"_  c gray36",
"`  c #5D5D5D5D5D5D",
"'  c gray37",
"]  c #5F5F5F5F5F5F",
"[  c #606060606060",
"{  c gray38",
"}  c #626262626262",
"|  c gray39",
" . c #646464646464",
".. c #656565656565",
"X. c gray40",
"o. c #676767676767",
"O. c #686868686868",
"+. c DimGray",
"@. c #6A6A6A6A6A6A",
"#. c gray42",
"$. c #6C6C6C6C6C6C",
"%. c #6D6D6D6D6D6D",
"&. c gray43",
"*. c #6F6F6F6F6F6F",
"=. c gray44",
"-. c #717171717171",
";. c #727272727272",
":. c gray45",
">. c #747474747474",
",. c gray46",
"<. c #767676767676",
"1. c #777777777777",
"2. c gray47",
"3. c #797979797979",
"4. c gray48",
"5. c #7B7B7B7B7B7B",
"6. c #7C7C7C7C7C7C",
"7. c gray49",
"8. c #7E7E7E7E7E7E",
"9. c gray50",
"0. c #808080808080",
"q. c #818181818181",
"w. c gray51",
"e. c #838383838383",
"r. c #848484848484",
"t. c #868686868686",
"y. c gray53",
"u. c #888888888888",
"i. c #898989898989",
"p. c #8B8B8B8B8B8B",
"a. c gray55",
"s. c #8D8D8D8D8D8D",
"d. c #8E8E8E8E8E8E",
"f. c gray56",
"g. c #909090909090",
"h. c gray57",
"j. c #929292929292",
"k. c #939393939393",
"l. c gray58",
"z. c #959595959595",
"x. c gray59",
"c. c #979797979797",
"v. c #989898989898",
"b. c gray60",
"n. c #9A9A9A9A9A9A",
"m. c #9B9B9B9B9B9B",
"M. c #9D9D9D9D9D9D",
"N. c #9F9F9F9F9F9F",
"B. c #A0A0A0A0A0A0",
"V. c #A2A2A2A2A2A2",
"C. c gray64",
"Z. c #AEAEAEAEAEAE",
"A. c None",
/* pixels */
"A.A.A.A.A.A.A.A.A.A.A.A.A.A.A.A.A.A.A.A.A.A.a.#.3.A.A.A.A.A.A.A.A.A.A.A.A.A.A.A.A.A.A.A.A.A.A.A.",
"A.A.A.A.A.A.A.A.A.A.A.A.A.A.A.A.A.A.A.A.7.*.' ~ ~ T T *.A.A.A.A.A.A.A.A.A.A.A.A.A.A.A.A.A.A.A.A.",
"A.A.A.A.A.A.A.A.A.A.A.A.A.A.A.A.A.A.1.1.X.' ' ~ T U U F F F | *.A.A.A.A.A.A.A.A.A.A.A.A.A.A.A.A.",
"A.A.A.A.A.A.A.A.A.A.A.A.A.A.A.A.3.3.#.X.| | / / ~ U K F Z N b b N U N Z 1.A.A.A.A.A.A.A.A.A.A.A.",
"A.A.A.A.A.A.A.A.A.A.A.A.A.A.w.3.1.*.*.X.| | / / ~ U U F Z N b z h i i i b z b -.A.A.A.A.A.A.A.A.",
"A.A.A.A.A.A.A.A.A.A.A.A.y.w.7.3.-.-.#.X.| ' ' ~ T U K F Z Z b b z h i y 8 8 8 0 < i -.A.A.A.A.A.",
"A.A.A.A.A.A.A.A.A.A.f.y.w.w.3.3.1.-.*.#.X.| / / ~ U U F F N b z h i y y 0 8 2 < = = y N A.A.A.A.",
"A.A.A.A.A.A.A.A.C.f.a.p.y.7.7.1.-.-.#.X.| ' ' ~ T U K F Z N b b h h i y 0 2 2 < 2 h h b A.A.A.A.",
"A.A.A.A.A.A.Z.x.f.f.a.p.y.7.7.3.1.*.*.X.| ' / / ~ U K F F N N z h h y 0 0 8 2 y z i y Z A.A.A.A.",
"A.A.A.A.A.V.V.m.x.f.a.y.w.w.7.1.-.*.#.#.X.| ' ~ T T K K Z N b z h h y y 0 0 h z y 0 y U A.A.A.A.",
"A.A.A.A.m.m.m.m.m.f.a.p.y.7.3.3.1.*.#.X.| ' ' / ~ T U F Z N N z h i i y i b h y 0 0 y | A.A.A.A.",
"A.A.A.A.x.m.f.x.x.x.f.y.w.w.7.3.-.*.*.X.| | / / T T K F Z Z b z z h i h Z h y 0 0 0 y 1.A.A.A.A.",
"A.A.A.A.x.x.f.a.p.p.p.f.p.7.3.3.1.*.#.#.| ' ' / T T U F F Z b b z h N N y y y 0 0 8 i a.A.A.A.A.",
"A.A.A.A.f.f.a.p.y.y.y.w.y.p.w.3.1.*.#.X.| | / / ~ U K F F N b b b Z b y y y y 0 0 8 h V.A.A.A.A.",
"A.A.A.A.f.a.a.p.y.w.w.7.3.7.7.7.3.-.*.X.X.' ' ~ ~ U K K Z Z N Z Z b i y y 0 0 8 8 8 0 A.A.A.A.A.",
"A.A.A.A.f.a.p.y.w.w.7.7.3.1.1.1.3.1.1.#.| ' ' ~ ~ T U F F Z F N z i i y y y 8 8 8 2 2 A.A.A.A.A.",
"A.A.A.A.p.p.y.y.w.7.7.3.1.1.-.*.*.*.*.-.*.| ' / ~ T K K K U b h h i y y y 0 8 8 2 2 8 A.A.A.A.A.",
"A.A.A.A.y.y.w.w.7.7.3.3.-.-.*.#.#.X.| X.X.*.X./ ~ T U T K b h i i i y 0 0 0 8 8 2 2 y A.A.A.A.A.",
"A.A.A.A.y.w.w.7.7.3.1.-.-.*.#.#.X.X.| ' ' / ' #.' T ~ K z h h i i y y 0 0 8 2 2 2 < b A.A.A.A.A.",
"A.A.A.A.y.w.7.7.3.3.1.-.*.*.#.X.X.| ' ' / ~ ~ T / ' F z h h h i y y y 0 8 8 8 2 < = F A.A.A.A.A.",
"A.A.A.A.w.7.7.3.1.1.-.*.#.#.X.X.| ' ' / / ~ T U U T b h h h i i y 0 0 0 8 8 2 2 < = ~ A.A.A.A.A.",
"A.A.A.A.7.7.3.3.1.-.*.*.#.#.X.| | ' / / ~ T U U U T b h i i i y y y 0 8 8 2 2 < < < *.A.A.A.A.A.",
"A.A.A.A.7.3.1.1.-.*.#.#.X.X.| | ' / / ~ T T U K K U b h i i y y 0 0 8 8 2 2 < = = = w.A.A.A.A.A.",
"A.A.A.A.1.1.1.-.-.#.#.#.| | | ' / / ~ T T U U K K K b i h y y y 0 8 8 8 2 2 < < = = x.A.A.A.A.A.",
"A.A.A.A.3.1.-.-.*.#.X.X.| ' ' / ~ ~ T U U K F F Z K z i i y y 0 0 8 8 2 2 2 < = & & A.A.A.A.A.A.",
"A.A.A.A.1.-.*.*.#.X.X.| | ' / / ~ ~ T U K K F Z Z F z i y y 0 0 8 8 2 2 < < = = & # A.A.A.A.A.A.",
"A.A.A.A.-.*.*.#.#.X.| | ' ' / ~ T T U K F F Z Z Z F h y y y 0 0 8 2 2 < < = = = & # A.A.A.A.A.A.",
"A.A.A.A.*.*.#.X.X.| ' ' / / ~ T T U K K F Z Z N N Z i y y 0 0 8 8 2 2 < < = = & # < A.A.A.A.A.A.",
"A.A.A.A.*.#.X.X.| ' ' / / ~ ~ T U K F F Z Z N b N N i y 0 0 0 8 2 2 2 < = = & # # 0 A.A.A.A.A.A.",
"A.A.A.A.#.#.X.| | ' ' / ~ T U U U K F Z Z N b b b N y y 0 0 8 8 2 < < < = & # # . z A.A.A.A.A.A.",
"A.A.A.A.X.X.| | ' ' ~ ~ T T U K F F F Z N N b z z z y 0 0 8 2 2 2 < < = = & # # . F A.A.A.A.A.A.",
"A.A.A.A.X.X.' ' / / ~ ~ T T K K F Z Z N b b z z h b 0 0 8 8 8 2 < < = & & & # # . / A.A.A.A.A.A.",
"A.A.A.A.| ' ' / / ~ T T T K K F Z Z N b b z z h h b 0 8 8 8 2 < < = = = # # # . . #.A.A.A.A.A.A.",
"A.A.A.A.| | ' / ~ ~ T U U K F Z Z Z b b z z h h i N 0 8 8 2 < < < = = = # # . . . | A.A.A.A.A.A.",
"A.A.A.A.' / ~ ~ T T U U K F F Z N b b z z h h i i b 8 8 2 2 < < = & & & # . . & A.A.A.A.A.A.A.A.",
"A.A.A.A.' / ~ ~ T T U K F Z Z N N b z z h i i y i b 8 2 2 < < < = & & # # # = y A.A.A.A.A.A.A.A.",
"A.A.A.A./ ~ ~ T U K K K Z Z N N b z h z h i i y i b 8 2 2 < < = = & # # . 2 A.A.A.A.A.A.A.A.A.A.",
"A.A.A.A./ ' T U U K F Z Z N b b z z h i i y y 0 0 z 2 2 < < = = & & # . y T A.A.A.A.A.A.A.A.A.A.",
"A.A.A.A.A.A.~ ~ F F F Z N N b z z h h i i y 0 0 0 z 2 < < = = & & # # h A.A.A.A.A.A.A.A.A.A.A.A.",
"A.A.A.A.A.A.A.A.T U Z N N b z z z h i i y 0 0 8 0 z 2 < < = = & # # N *.A.A.A.A.A.A.A.A.A.A.A.A.",
"A.A.A.A.A.A.A.A.A.A.~ Z b b z h h h y y 0 0 8 2 8 h < = = = & & # U A.A.A.A.A.A.A.A.A.A.A.A.A.A.",
"A.A.A.A.A.A.A.A.A.A.A.A.T z z i i y y 0 0 8 8 2 2 i < < = & & & h A.A.A.A.A.A.A.A.A.A.A.A.A.A.A.",
"A.A.A.A.A.A.A.A.A.A.A.A.A.x.F z y y 0 8 8 8 2 2 2 i < = = & = y A.A.A.A.A.A.A.A.A.A.A.A.A.A.A.A.",
"A.A.A.A.A.A.A.A.A.A.A.A.A.A.A.#.K h 0 8 2 2 < = < 0 = = & 2 h A.A.A.A.A.A.A.A.A.A.A.A.A.A.A.A.A.",
"A.A.A.A.A.A.A.A.A.A.A.A.A.A.A.A.A.K U 0 2 2 = = = 8 = & 0 b A.A.A.A.A.A.A.A.A.A.A.A.A.A.A.A.A.A.",
"A.A.A.A.A.A.A.A.A.A.A.A.A.A.A.A.A.A.A.F F 2 = & = 8 = i K A.A.A.A.A.A.A.A.A.A.A.A.A.A.A.A.A.A.A.",
"A.A.A.A.A.A.A.A.A.A.A.A.A.A.A.A.A.A.A.A.A.~ h & = 0 z ' A.A.A.A.A.A.A.A.A.A.A.A.A.A.A.A.A.A.A.A.",
"A.A.A.A.A.A.A.A.A.A.A.A.A.A.A.A.A.A.A.A.A.A.A.X.8 F 7.A.A.A.A.A.A.A.A.A.A.A.A.A.A.A.A.A.A.A.A.A."
};
