/* XPM */
static char * dosbox_xpm[] = {
"32 32 684 2",
"  	c #674225",
". 	c #90592F",
"+ 	c #8E582D",
"@ 	c #8D572C",
"# 	c #91592E",
"$ 	c #9A5E30",
"% 	c #985D2F",
"& 	c #975D2E",
"* 	c #995E2F",
"= 	c #9B5F30",
"- 	c #985E30",
"; 	c #975D30",
"> 	c #9B5F31",
", 	c #975D2F",
"' 	c #8F592D",
") 	c #8B562C",
"! 	c #90582D",
"~ 	c #945C2F",
"{ 	c #945B2E",
"] 	c #965C2E",
"^ 	c #92592D",
"/ 	c #90582C",
"( 	c #925A2D",
"_ 	c #8A542B",
": 	c #85522A",
"< 	c #855229",
"[ 	c #86522A",
"} 	c #8A562D",
"| 	c #754A29",
"1 	c #6B4325",
"2 	c #955E33",
"3 	c #A46433",
"4 	c #A06130",
"5 	c #9C5F30",
"6 	c #9E6131",
"7 	c #9E6030",
"8 	c #9D6030",
"9 	c #A16331",
"0 	c #A26331",
"a 	c #A36332",
"b 	c #9A5E2F",
"c 	c #9B5E2F",
"d 	c #9B5F2F",
"e 	c #935A2D",
"f 	c #955B2E",
"g 	c #995D2F",
"h 	c #9F6130",
"i 	c #965B2E",
"j 	c #945A2D",
"k 	c #9A6133",
"l 	c #8C582E",
"m 	c #643E21",
"n 	c #955C2F",
"o 	c #9C6234",
"p 	c #935B30",
"q 	c #84522A",
"r 	c #86532B",
"s 	c #84512A",
"t 	c #7F4E29",
"u 	c #7D4E29",
"v 	c #804F29",
"w 	c #7E4E29",
"x 	c #805127",
"y 	c #95632B",
"z 	c #96642A",
"A 	c #916229",
"B 	c #8F6128",
"C 	c #8A5C28",
"D 	c #804F28",
"E 	c #825029",
"F 	c #815029",
"G 	c #7B4C27",
"H 	c #7A4C27",
"I 	c #744826",
"J 	c #7B4C28",
"K 	c #7C4C27",
"L 	c #7E4E28",
"M 	c #86542C",
"N 	c #A16332",
"O 	c #653F21",
"P 	c #975C2E",
"Q 	c #A56533",
"R 	c #815832",
"S 	c #725636",
"T 	c #745837",
"U 	c #826640",
"V 	c #826641",
"W 	c #806641",
"X 	c #816641",
"Y 	c #816742",
"Z 	c #8B6C33",
"` 	c #CCA334",
" .	c #DEB73C",
"..	c #E0B93E",
"+.	c #D6AD37",
"@.	c #D4AC38",
"#.	c #B18E38",
"$.	c #866A3F",
"%.	c #836945",
"&.	c #806642",
"*.	c #7D643F",
"=.	c #7F6540",
"-.	c #705535",
";.	c #6D5334",
">.	c #69492B",
",.	c #814F28",
"'.	c #A06230",
").	c #86532A",
"!.	c #6B4222",
"~.	c #9F6131",
"{.	c #A56532",
"].	c #86633B",
"^.	c #84704A",
"/.	c #816E49",
"(.	c #8C7951",
"_.	c #A28F61",
":.	c #A69364",
"<.	c #A79465",
"[.	c #A89666",
"}.	c #A99667",
"|.	c #9C8758",
"1.	c #977A3C",
"2.	c #E8C040",
"3.	c #DCBA4A",
"4.	c #937E4D",
"5.	c #9A7C38",
"6.	c #EAC43E",
"7.	c #D2B44D",
"8.	c #A49161",
"9.	c #A59363",
"0.	c #A69464",
"a.	c #A18F61",
"b.	c #8D7B52",
"c.	c #83704B",
"d.	c #85724C",
"e.	c #6E5434",
"f.	c #8B552B",
"g.	c #6A4223",
"h.	c #A66633",
"i.	c #A86733",
"j.	c #88643C",
"k.	c #826F49",
"l.	c #836F4A",
"m.	c #83704A",
"n.	c #8A7750",
"o.	c #A08E5F",
"p.	c #A29060",
"q.	c #A69363",
"r.	c #A79464",
"s.	c #A59263",
"t.	c #A18545",
"u.	c #EBC242",
"v.	c #DFBD4E",
"w.	c #A08C5A",
"x.	c #B0944A",
"y.	c #EEC741",
"z.	c #D0B44B",
"A.	c #A28F5F",
"B.	c #A28F60",
"C.	c #89774F",
"D.	c #84714B",
"E.	c #6F5435",
"F.	c #7E4D27",
"G.	c #AA6833",
"H.	c #89542A",
"I.	c #694122",
"J.	c #9E6130",
"K.	c #A76633",
"L.	c #87643C",
"M.	c #7E6C48",
"N.	c #826E49",
"O.	c #8B7850",
"P.	c #9F8C5E",
"Q.	c #A39061",
"R.	c #A08444",
"S.	c #E8BF40",
"T.	c #EEC849",
"U.	c #DCB842",
"V.	c #E0BA3F",
"W.	c #DDBB47",
"X.	c #AB9557",
"Y.	c #A08D5F",
"Z.	c #8A774F",
"`.	c #826E4A",
" +	c #806D49",
".+	c #6E5535",
"++	c #7C4D27",
"@+	c #A06131",
"#+	c #88532A",
"$+	c #A76634",
"%+	c #967347",
"&+	c #8B7950",
"*+	c #7E6C47",
"=+	c #836F49",
"-+	c #88764E",
";+	c #A39161",
">+	c #A59161",
",+	c #E9C142",
"'+	c #E1BE4C",
")+	c #A0874B",
"!+	c #A08138",
"~+	c #EAC441",
"{+	c #D0B44F",
"]+	c #A39060",
"^+	c #88754E",
"/+	c #7F6D48",
"(+	c #7E6440",
"_+	c #8C562D",
":+	c #6E4424",
"<+	c #A96734",
"[+	c #997649",
"}+	c #A59262",
"|+	c #917F55",
"1+	c #7F6D47",
"2+	c #816E48",
"3+	c #A7935F",
"4+	c #B39749",
"5+	c #EBC341",
"6+	c #E2BE4A",
"7+	c #AF9958",
"8+	c #BA9E4A",
"9+	c #ECC741",
"0+	c #CFB34E",
"a+	c #806742",
"b+	c #7B4B27",
"c+	c #6F4423",
"d+	c #9C5F2F",
"e+	c #A96834",
"f+	c #977549",
"g+	c #8E7C52",
"h+	c #85724B",
"i+	c #8B774F",
"j+	c #A38A49",
"k+	c #D2AC3A",
"l+	c #DFB639",
"m+	c #E0B83C",
"n+	c #DAB640",
"o+	c #D9B43D",
"p+	c #C1A347",
"q+	c #A59057",
"r+	c #8A764F",
"s+	c #806E49",
"t+	c #907E54",
"u+	c #7E6541",
"v+	c #7C4C28",
"w+	c #91582D",
"x+	c #6A4222",
"y+	c #A66634",
"z+	c #97764B",
"A+	c #A99767",
"B+	c #958358",
"C+	c #816F4A",
"D+	c #86724C",
"E+	c #87734D",
"F+	c #85714B",
"G+	c #7F6B44",
"H+	c #8A7548",
"I+	c #937D4F",
"J+	c #947E4F",
"K+	c #988353",
"L+	c #998759",
"M+	c #89764F",
"N+	c #88744E",
"O+	c #826F4A",
"P+	c #A69465",
"Q+	c #A79566",
"R+	c #7D6540",
"S+	c #7B4D27",
"T+	c #9C6030",
"U+	c #A66533",
"V+	c #A49160",
"W+	c #8F7D53",
"X+	c #806E48",
"Y+	c #88754D",
"Z+	c #A28F5E",
"`+	c #9F8C5B",
" @	c #9C895A",
".@	c #928156",
"+@	c #A69362",
"@@	c #A59261",
"#@	c #7E653F",
"$@	c #8E562C",
"%@	c #694222",
"&@	c #A7692C",
"*@	c #C49C33",
"=@	c #F1CD44",
"-@	c #F6D348",
";@	c #E2BF42",
">@	c #DEBC42",
",@	c #B49D53",
"'@	c #978457",
")@	c #8A7545",
"!@	c #D1B345",
"~@	c #E5C341",
"{@	c #D8B539",
"]@	c #DDBB3E",
"^@	c #A68E43",
"/@	c #877249",
"(@	c #84714C",
"_@	c #978559",
":@	c #AF9856",
"<@	c #E8C748",
"[@	c #E0BE42",
"}@	c #D8B53D",
"|@	c #E5C243",
"1@	c #957839",
"2@	c #794B26",
"3@	c #8C552B",
"4@	c #674021",
"5@	c #A2622F",
"6@	c #84602E",
"7@	c #E3BA3D",
"8@	c #F4CE49",
"9@	c #A38A4C",
"0@	c #AC8A37",
"a@	c #E2BF44",
"b@	c #B39D5A",
"c@	c #948257",
"d@	c #856F43",
"e@	c #C1A13F",
"f@	c #E7C442",
"g@	c #A3873C",
"h@	c #816832",
"i@	c #AC892E",
"j@	c #E7C543",
"k@	c #A38A46",
"l@	c #82704B",
"m@	c #958359",
"n@	c #A18C59",
"o@	c #CAA840",
"p@	c #E3C246",
"q@	c #A8904C",
"r@	c #987E45",
"s@	c #BF9A34",
"t@	c #C5A035",
"u@	c #845528",
"v@	c #9D5F30",
"w@	c #8B542B",
"x@	c #684122",
"y@	c #A16231",
"z@	c #815C33",
"A@	c #DFB538",
"B@	c #F2CC44",
"C@	c #9E8A59",
"D@	c #917C4D",
"E@	c #D1AB36",
"F@	c #DDBE4B",
"G@	c #9C8A5D",
"H@	c #8E7438",
"I@	c #E0B93D",
"J@	c #D2B244",
"K@	c #867146",
"L@	c #7E6A44",
"M@	c #84682E",
"N@	c #E8C13D",
"O@	c #CFAF42",
"P@	c #958256",
"Q@	c #A18E5E",
"R@	c #998351",
"S@	c #A98733",
"T@	c #E2BC3D",
"U@	c #CEB14C",
"V@	c #AB9555",
"W@	c #978250",
"X@	c #715835",
"Y@	c #6E4423",
"Z@	c #A46432",
"`@	c #89542B",
" #	c #985D2E",
".#	c #A36331",
"+#	c #825D34",
"@#	c #E1B83A",
"##	c #F4CE44",
"$#	c #9D8A59",
"%#	c #9A8657",
"&#	c #BF9B38",
"*#	c #A59362",
"=#	c #9D813E",
"-#	c #E4BD3F",
";#	c #D4B447",
">#	c #897348",
",#	c #836E48",
"'#	c #886D33",
")#	c #EAC23F",
"!#	c #DFBF49",
"~#	c #A3905F",
"{#	c #A08E5E",
"]#	c #9D8A5A",
"^#	c #947D4A",
"/#	c #A88736",
"(#	c #D5AD36",
"_#	c #E1BF43",
":#	c #C6AB4D",
"<#	c #7A613B",
"[#	c #724724",
"}#	c #8A552C",
"|#	c #A66532",
"1#	c #815C32",
"2#	c #DFB638",
"3#	c #9E8B59",
"4#	c #998554",
"5#	c #D1AC3A",
"6#	c #E2C143",
"7#	c #A39160",
"8#	c #967B3D",
"9#	c #D6AF37",
"0#	c #D4B344",
"a#	c #897447",
"b#	c #8E7235",
"c#	c #EBC43F",
"d#	c #D4B648",
"e#	c #AE995C",
"f#	c #A48E54",
"g#	c #8E7745",
"h#	c #E1BB3C",
"i#	c #B89635",
"j#	c #784C25",
"k#	c #825F36",
"l#	c #E2B93B",
"m#	c #F3CD46",
"n#	c #9D8957",
"o#	c #A78F4F",
"p#	c #E9C540",
"q#	c #C0A64E",
"r#	c #A08E5D",
"s#	c #958457",
"t#	c #786237",
"u#	c #AC872B",
"v#	c #E2BE40",
"w#	c #9F8640",
"x#	c #856F40",
"y#	c #BD9E3D",
"z#	c #EAC742",
"A#	c #A68D43",
"B#	c #9B895D",
"C#	c #A89566",
"D#	c #A28D57",
"E#	c #C8A744",
"F#	c #D6B94D",
"G#	c #A48F57",
"H#	c #9B8348",
"I#	c #D5B13D",
"J#	c #CBA737",
"K#	c #7C4F25",
"L#	c #8C562C",
"M#	c #663F20",
"N#	c #A5672E",
"O#	c #B9933A",
"P#	c #E8C041",
"Q#	c #EDC644",
"R#	c #D0B048",
"S#	c #E1BE42",
"T#	c #C5A94D",
"U#	c #A79360",
"V#	c #766037",
"W#	c #AB882E",
"X#	c #D1AD39",
"Y#	c #D7B33B",
"Z#	c #CCA939",
"`#	c #9E843F",
" $	c #826D47",
".$	c #A08C5D",
"+$	c #977B3F",
"@$	c #C9A336",
"#$	c #D4B23F",
"$$	c #D4B340",
"%$	c #D5B342",
"&$	c #816736",
"*$	c #7B4C26",
"=$	c #684021",
"-$	c #9C5E2A",
";$	c #997331",
">$	c #A98A3F",
",$	c #A98A40",
"'$	c #AD8F42",
")$	c #AD934B",
"!$	c #A4905E",
"~$	c #98865B",
"{$	c #83714B",
"]$	c #7F6C47",
"^$	c #7E693F",
"/$	c #977F47",
"($	c #9C8349",
"_$	c #887242",
":$	c #816D48",
"<$	c #948156",
"[$	c #99814B",
"}$	c #A0874C",
"|$	c #A38B4F",
"1$	c #A38D56",
"2$	c #7A623E",
"3$	c #764926",
"4$	c #664021",
"5$	c #947246",
"6$	c #938157",
"7$	c #897449",
"8$	c #947F48",
"9$	c #A79258",
"0$	c #A3905D",
"a$	c #968047",
"b$	c #927C48",
"c$	c #8F7D52",
"d$	c #A08D5D",
"e$	c #7E6540",
"f$	c #947348",
"g$	c #958458",
"h$	c #89744E",
"i$	c #90763B",
"j$	c #D6B43F",
"k$	c #D2B54C",
"l$	c #A6935F",
"m$	c #A78E4E",
"n$	c #E0BE40",
"o$	c #C7A940",
"p$	c #837049",
"q$	c #7F6C48",
"r$	c #917F54",
"s$	c #A08D5E",
"t$	c #A18F5F",
"u$	c #7E6642",
"v$	c #784B26",
"w$	c #87522A",
"x$	c #694223",
"y$	c #8F582C",
"z$	c #9D6031",
"A$	c #957448",
"B$	c #957D49",
"C$	c #B99434",
"D$	c #EAC744",
"E$	c #BEA657",
"F$	c #A7925C",
"G$	c #D1B048",
"H$	c #EFCD47",
"I$	c #BDA451",
"J$	c #826E48",
"K$	c #7E6D47",
"L$	c #8C7B51",
"M$	c #A18E5F",
"N$	c #7C633F",
"O$	c #724725",
"P$	c #6C4423",
"Q$	c #997549",
"R$	c #A49263",
"S$	c #9F8D60",
"T$	c #A08C5C",
"U$	c #947A43",
"V$	c #CAA335",
"W$	c #E2BF47",
"X$	c #C3A64D",
"Y$	c #EEC944",
"Z$	c #C5AA50",
"`$	c #9F8C5F",
" %	c #897750",
".%	c #7D633F",
"+%	c #784A26",
"@%	c #957246",
"#%	c #8B7951",
"$%	c #86744C",
"%%	c #A18F5E",
"&%	c #9F8D5D",
"*%	c #957A40",
"=%	c #D1A93A",
"-%	c #F1CA48",
";%	c #CDB04D",
">%	c #8A7851",
",%	c #85714C",
"'%	c #7B623E",
")%	c #87532B",
"!%	c #633E20",
"~%	c #85633C",
"{%	c #806D48",
"]%	c #9E8C5D",
"^%	c #A88F4F",
"/%	c #DBB541",
"(%	c #EDC646",
"_%	c #CEB04D",
":%	c #9E8B5E",
"<%	c #816F49",
"[%	c #6D5435",
"}%	c #835028",
"|%	c #643E20",
"1%	c #A26332",
"2%	c #86623B",
"3%	c #A49262",
"4%	c #9E8B5B",
"5%	c #A79053",
"6%	c #E0BD44",
"7%	c #A78537",
"8%	c #E0B93A",
"9%	c #C5A94E",
"0%	c #A5915C",
"a%	c #8C7A52",
"b%	c #6D5333",
"c%	c #663F21",
"d%	c #85613A",
"e%	c #84704B",
"f%	c #8A784F",
"g%	c #9E8B5D",
"h%	c #A08B52",
"i%	c #D3B244",
"j%	c #EDCB43",
"k%	c #B79F4F",
"l%	c #927B48",
"m%	c #B49033",
"n%	c #ECC942",
"o%	c #BFA651",
"p%	c #8A7850",
"q%	c #816D49",
"r%	c #6E5333",
"s%	c #A36432",
"t%	c #643F21",
"u%	c #AC6A35",
"v%	c #906137",
"w%	c #83613A",
"x%	c #87633C",
"y%	c #957145",
"z%	c #937146",
"A%	c #907045",
"B%	c #906F44",
"C%	c #937046",
"D%	c #956F33",
"E%	c #CA9E30",
"F%	c #C8A13C",
"G%	c #977343",
"H%	c #936F43",
"I%	c #8B652E",
"J%	c #CFA331",
"K%	c #C8A23A",
"L%	c #916F44",
"M%	c #917046",
"N%	c #937248",
"O%	c #957348",
"P%	c #937045",
"Q%	c #84623B",
"R%	c #82603A",
"S%	c #7A5330",
"T%	c #88542A",
"U%	c #965C2F",
"V%	c #A46736",
"W%	c #A76735",
"X%	c #9F6232",
"Y%	c #A26333",
"Z%	c #945B2F",
"`%	c #925A2F",
" &	c #9B6031",
".&	c #945928",
"+&	c #975D25",
"@&	c #9E642C",
"#&	c #9D6131",
"$&	c #94592A",
"%&	c #955D25",
"&&	c #976029",
"*&	c #975C2F",
"=&	c #995E30",
"-&	c #985D30",
";&	c #995D30",
">&	c #965D31",
",&	c #89552B",
"'&	c #6A4324",
")&	c #87552E",
"!&	c #8F582D",
"~&	c #845129",
"{&	c #825028",
"]&	c #804E28",
"^&	c #835029",
"/&	c #7F4E28",
"(&	c #87532A",
"_&	c #7E4D28",
":&	c #925C30",
"<&	c #8F592E",
"[&	c #51341E",
"}&	c #674123",
"|&	c #613C1F",
"1&	c #603C1F",
"2&	c #653F20",
"3&	c #674121",
"4&	c #623E20",
"5&	c #5F3C1F",
"6&	c #5F3B1F",
"7&	c #5E3B1F",
"8&	c #5D3A1E",
"9&	c #5B391E",
"0&	c #664022",
"a&	c #623E22",
"  . + @ # $ % & * = = - ; > , ' ) ! - ~ { ] { ^ / ( _ : < [ } | ",
"1 2 3 4 5 6 7 8 9 0 a b c 8 d e f f g c h h g i b 7 i / j g k l ",
"m n o p q r s t u u v w x y z A B C D E F G H I J K L H w M N [ ",
"O P Q R S T U V W W X Y Z `  ...+.@.#.$.%.&.*.*.=.=.-.;.>.,.'.).",
"!.~.{.].^./.(._.:.<.[.}.|.1.2.3.4.5.6.7.8.9.9.0.a.b.c.d.e.G {.f.",
"g.h.i.j.k.l.m.n.o.p.q.r.s.t.u.v.w.x.y.z.A.q.r.B.C./.m.D.E.F.G.H.",
"I.J.K.L.M.N.^./.O.P.9.r.Q.R.S.T.U.V.W.X.8.9.Y.Z.`.l.k. +.+++@+#+",
"g.* $+%+&+*+k.=+k.-+;+0.>+t.,+'+)+!+~+{+]+B.^+k.=+k./+b.(+H 5 _+",
":+d <+[+}+|+1+2+=+2+Z.Y.3+4+5+6+7+8+9+0+Y.n.2+k.N.*+|+9.a+b+8 + ",
"c+d+e+f+9.s.g+/+^.h+d.i+j+k+l+m+n+o+p+q+r+D.^.l.s+t+:.r.u+v+~.w+",
"x+7 y+z+A+A+9.B+C+D+E+F+G+H+I+J+I+K+L+M+E+N+F+O+B+P+Q+r.R+S+0 ( ",
"x+T+U+%+V+]+]+]+W+X+m.D+F+Y+Y.Z+`+ @Y+D+E+D.O+.@}++@@@8.#@S+7 $@",
"%@7 &@*@=@-@;@>@,@'@s+O+^.)@!@~@{@]@^@/@(@c._@:@<@[@}@|@1@2@c 3@",
"4@8 5@6@7@8@9@0@a@b@c@c.d@e@f@g@h@i@j@k@l@m@n@o@p@q@r@s@t@u@v@w@",
"x@& y@z@A@B@C@D@E@F@r.G@H@I@J@K@L@M@N@O@P@Q@R@S@T@U@V@W@X@Y@Z@`@",
"%@ #.#+#@###$#%#&#=@V+*#=#-#;#>#,#'#)#!#~#{#]#^#/#(#_#:#<#[#b }#",
"x@j |#1#2#B@3#4#5#6#`+7#8#9#0#a#,#b#c#d#}+0.+@e#f#g#S@h#i#j#c ) ",
"x@e |#k#l#m#n#o#p#q#r#s#t#u#v#w#x#y#z#A#B#C#D#E#F#G#H#I#J#K#7 L#",
"M#b N#O#P#Q#R#S#T#U#m@c.k.V#W#X#Y#Z#`# $C+m@.$+$@$#$$$%$&$*$g H.",
"=$b -$;$>$,$'$)$!$~${$(@d.]$^$/$($_$:$F+O+s+<$%#[$}$|$1$2$3$7 H.",
"4$j y@5$}+9.0.0.6$O+D.E+7$8$9$~#}+0$a$b$D+^.X+c$d$d$A.]+e$G 8 [ ",
"4@w+3 f$r.Q+P+g$C+F+h$E+i$j$k$l$8.m$n$o$p$D+^.q$r$s$t$:.u$v$d w$",
"x$y$z$A$r.:.t+s+k.^.D.Z.B$C$D$E$F$G$H$I$^+^.^.J$K$L$M$B.N$O$g H.",
"P$i a Q$R$|+*+/.J$X+M+S$T$U$V$W$X$Y$Z$3+`$ %/.=+/.1+W+M$.%+%P f.",
"x@P 0 @%#%*+2+J$X+$%s$t$%%&%*%=%-%;%~#s.0.R$>%(@,%(@s+b.'%+%f )%",
"!%f 9 ~%M.{%N.2+-+]%]+A.B.B.^%/%(%_%~#0.:.9.:%C.<%m./.*+[%+%* }%",
"|%d 1%2%m././+-+{#3%7#%%4%5%;@6%7%8%9%0%B.}+9.s.a%k.2+2+b%H {.< ",
"c%g Z@d%e%/.f%g%p.t${#s$h%i%j%k%l%m%n%o%]+8.<.[.B.p%q%l.r%K s%H.",
"t%i u%v%w%x%y%z%A%B%C%f$D%E%F%G%H%I%J%K%B%L%M%N%O%P%Q%R%S%y$0 T%",
"O U%V%W%X%Y%* Z%# `%U% &.&+&@&#&Z%$&%&&&= *&=&=&Z%e -&;&-&>&Q ,&",
"'&)&!&_ ~&[ {&]&^&{&H.e #+~&~&E /&{&E E (&(&< < ,.,.L _&~&,&:&<&",
"[&}&!%|&1&|&1&|&!%|%2&4$3&4@2&|&|&4&c%m |&!%5&6&1&7&8&9&7&1&0&a&"};
