/* XPM */
static char * gliv_xpm[] = {
"32 32 136 2",
"  	c None",
". 	c #180027",
"+ 	c #1B002C",
"@ 	c #220037",
"# 	c #25003B",
"$ 	c #370058",
"% 	c #1F0031",
"& 	c #410069",
"* 	c #60009A",
"= 	c #6700A6",
"- 	c #7000B4",
"; 	c #7700BF",
"> 	c #7900C3",
", 	c #7300B9",
"' 	c #6A00AB",
") 	c #5F0099",
"! 	c #470072",
"~ 	c #290043",
"{ 	c #12001D",
"] 	c #39005C",
"^ 	c #62009E",
"/ 	c #7F00CC",
"( 	c #550089",
"_ 	c #1C002D",
": 	c #26003D",
"< 	c #5F0098",
"[ 	c #7E00CB",
"} 	c #6E00B0",
"| 	c #2A0044",
"1 	c #0F0018",
"2 	c #3D0062",
"3 	c #7F00CB",
"4 	c #7E00C9",
"5 	c #7C00C6",
"6 	c #7400B9",
"7 	c #7A00C4",
"8 	c #7D00C8",
"9 	c #43006C",
"0 	c #7E00CA",
"a 	c #7D00C9",
"b 	c #6400A0",
"c 	c #050009",
"d 	c #030004",
"e 	c #320051",
"f 	c #31004E",
"g 	c #6500A3",
"h 	c #45006F",
"i 	c #4B0077",
"j 	c #530086",
"k 	c #45006E",
"l 	c #000000",
"m 	c #7B00C6",
"n 	c #4E007C",
"o 	c #520083",
"p 	c #56008A",
"q 	c #62009D",
"r 	c #5C0093",
"s 	c #590090",
"t 	c #7200B7",
"u 	c #6D00AE",
"v 	c #59008E",
"w 	c #0B0012",
"x 	c #8000CC",
"y 	c #7C00C7",
"z 	c #7800C1",
"A 	c #480074",
"B 	c #7A00C3",
"C 	c #450070",
"D 	c #7600BE",
"E 	c #3A005E",
"F 	c #280041",
"G 	c #6F00B3",
"H 	c #7B00C5",
"I 	c #7800C0",
"J 	c #7900C2",
"K 	c #7100B6",
"L 	c #30004E",
"M 	c #400066",
"N 	c #7500BC",
"O 	c #6500A2",
"P 	c #160023",
"Q 	c #480073",
"R 	c #58008D",
"S 	c #520084",
"T 	c #6900A9",
"U 	c #460071",
"V 	c #57008C",
"W 	c #07000B",
"X 	c #5B0093",
"Y 	c #7900C1",
"Z 	c #6C00AD",
"` 	c #040006",
" .	c #4F007F",
"..	c #7D00CA",
"+.	c #6600A4",
"@.	c #4E007D",
"#.	c #6D00AF",
"$.	c #400068",
"%.	c #6900A8",
"&.	c #170025",
"*.	c #24003A",
"=.	c #57008B",
"-.	c #210035",
";.	c #7600BD",
">.	c #7C00C8",
",.	c #7F00CD",
"'.	c #6B00AC",
").	c #1A0029",
"!.	c #2F004C",
"~.	c #2A0043",
"{.	c #5A0090",
"].	c #08000D",
"^.	c #8000CD",
"/.	c #12001C",
"(.	c #230038",
"_.	c #6F00B2",
":.	c #270040",
"<.	c #030005",
"[.	c #240039",
"}.	c #7200B8",
"|.	c #490075",
"1.	c #0C0014",
"2.	c #3B005F",
"3.	c #6700A5",
"4.	c #06000A",
"5.	c #27003F",
"6.	c #4D007C",
"7.	c #6A00AA",
"8.	c #42006B",
"9.	c #1A002A",
"0.	c #010001",
"a.	c #050008",
"b.	c #290042",
"c.	c #30004D",
"d.	c #38005A",
"e.	c #0E0016",
"                          . + @ # $                             ",
"                    % & * = - ; > , ' ) ! ~                     ",
"              { ] ^ / / / / / / / / / / / / ( _                 ",
"            : < [ / / / / / / / / / / / / / [ } |               ",
"        1 2 3 / / / / [ / 4 5 [   6 7 / 8 / / / - @             ",
"        9 > / / / 0 [                     a / / / b c           ",
"    d e / / / 3 /                           4 / / / f           ",
"    { g / / / 0     h /       i j             0 / / k           ",
"  l 2 [ / /         h / m     n o             / / / p           ",
"  l q / / /         h / m     r s     t u     / / / v     [ !   ",
"  w 0 / / x         h / m     / /       y z A B / / ) C 3 D E   ",
"  F / / /           h / m     / /       G > > H / / I J K L     ",
"l M / / /           h / m     / /           N / / / 0 O P       ",
"l Q / / /           h / m     / /             J / / R :         ",
"l S / / /           h / m                       T U             ",
"d V / / /           h / m           / / / / / ;                 ",
"W X / / /           h / m     a / / / / / / / / Y Z             ",
"` v / / /           h / m   / / / / / / / / / / / H             ",
"l  ./ / /           h / ../ / / / m +.V Q @.= 8 / / #.          ",
"l $./ / /           h / / / / / %.e &.      *.=./ / 8 !         ",
"  -./ / /           h / 3 / / ;.T z /           H / / v         ",
"  W >./ / ,.        h / / / / / / / /           ; / / '.l       ",
"  l p / / /         ).!.!.!.!.!.!.!.!.          / / / %.l       ",
"  l ~.z / / /                                   / / / {.l       ",
"    ].( / / / /                               ^./ / y f         ",
"    l &.N / / / / ,.                        x / / / +./.        ",
"      l (._./ / / / / /                 / / / / / m :.l         ",
"        <.[.}./ / / / / / / / / / / / / / / / / 8 |.<.          ",
"          l 1.2.3.7 / / / / / / / / / / / / 0 } ] 4.            ",
"            l l { 5.6.7.4 / / / / / / / 0 _.8.9.0.l             ",
"                l l l l a.P b.c.d.$ c.F e.0.l l                 ",
"                          l l l l l l l                         "};
