/* XPM */
static char * gnome_planner_xpm[] = {
"32 31 49 1",
" 	c None",
".	c #000000",
"+	c #212B31",
"@	c #7294A7",
"#	c #6A8A9C",
"$	c #090B0D",
"%	c #2D3B42",
"&	c #92BED7",
"*	c #8CB6CE",
"=	c #7DA3B8",
"-	c #0A0D0F",
";	c #080B0C",
">	c #1D262A",
",	c #5A7584",
"'	c #536C7A",
")	c #536C79",
"!	c #050708",
"~	c #040506",
"{	c #83AAC0",
"]	c #81A8BE",
"^	c #7FA6BB",
"/	c #3F525D",
"(	c #050607",
"_	c #97C4DD",
":	c #89B2C9",
"<	c #40545E",
"[	c #95C2DB",
"}	c #8AB3CB",
"|	c #87B0C7",
"1	c #030304",
"2	c #4F6774",
"3	c #465B66",
"4	c #273238",
"5	c #4C6370",
"6	c #92BDD6",
"7	c #91BCD5",
"8	c #8BB5CC",
"9	c #2B3840",
"0	c #506875",
"a	c #8FBAD2",
"b	c #84ABC2",
"c	c #27333A",
"d	c #4E6673",
"e	c #8AB4CB",
"f	c #81A7BD",
"g	c #232D33",
"h	c #3B4C56",
"i	c #394A53",
"j	c #13191C",
"                                ",
"                                ",
"  .........................     ",
"  ..                     ..     ",
"  .                       .     ",
"                                ",
"                                ",
"                                ",
"  +@@@@@@@@@@@@@@@#$            ",
"  %&**************=-            ",
"  %&**************=;            ",
"  >,'''''''''''''')!            ",
"    ................            ",
"                ..              ",
"               ............     ",
"              ~{]]]]]]]]]^/     ",
"              (_*********:<     ",
"              ([}}}}}}}}}|<.    ",
"              1233333333334.    ",
"                 ..........     ",
"                                ",
"       ..........               ",
"       5677777789               ",
"       0a******bc               ",
"       de||||||fc.              ",
"       ghiiiiiiij.              ",
"         ........               ",
"                                ",
"                                ",
"                                ",
"                                "};
