/* XPM */
static char *yakuake-16[] = {
/* columns rows colors chars-per-pixel */
"16 16 139 2",
"   c black",
".  c #0D373D",
"X  c #24370B",
"o  c #2B330C",
"O  c #223D13",
"+  c #362E0E",
"@  c #132645",
"#  c #213E42",
"$  c #1A4F3E",
"%  c #284528",
"&  c #2E4B36",
"*  c #22533F",
"=  c #15455F",
"-  c #164A5B",
";  c #164E59",
":  c #164C5C",
">  c #175456",
",  c #195457",
"<  c #195654",
"1  c #1A545C",
"2  c #1A5A57",
"3  c #1D5E53",
"4  c #334B40",
"5  c #29496A",
"6  c #2C4A6D",
"7  c #2E4C6A",
"8  c #37516A",
"9  c #3A5473",
"0  c #3A5573",
"q  c #3B5473",
"w  c #3A5574",
"e  c #3B5774",
"r  c #3B5775",
"t  c #3B5875",
"y  c #3B5876",
"u  c #3C5877",
"i  c #3D5977",
"p  c #404D3E",
"a  c #43474C",
"s  c #494342",
"d  c #4B4B4B",
"f  c #4E4E4E",
"g  c gray31",
"h  c #555555",
"j  c #565656",
"k  c #5D5D5D",
"l  c #474C6A",
"z  c #484C6A",
"x  c #4A4E6A",
"c  c #4B4E6A",
"v  c #4C526A",
"b  c #4D526A",
"n  c #4E546A",
"m  c #465D75",
"M  c #475D75",
"N  c #465D76",
"B  c #485D76",
"V  c #4B5F79",
"C  c #4C5F7D",
"Z  c #51536A",
"A  c #55566A",
"S  c #565A6A",
"D  c #4E6378",
"F  c #4D607E",
"G  c #556072",
"H  c #546577",
"J  c #60626A",
"K  c #62646A",
"L  c #1D4E85",
"P  c #355383",
"I  c #3F5C83",
"U  c #539C3F",
"Y  c #64B82A",
"T  c #65BC28",
"R  c #66BC28",
"E  c #66BD28",
"W  c #5FC51D",
"Q  c #61C71B",
"!  c #60C51C",
"~  c #60C51D",
"^  c #61C61C",
"/  c #63CA15",
"(  c #72CF17",
")  c #70CF1B",
"_  c #71CF1B",
"`  c #74D31B",
"'  c #75D519",
"]  c gray55",
"[  c #8E8E8E",
"{  c #959595",
"}  c #A09FA0",
"|  c #A4A4A4",
" . c #AAB9A8",
".. c #ACBAA8",
"X. c #BABEBA",
"o. c gray74",
"O. c gray",
"+. c #B1C0A8",
"@. c #B3C5A8",
"#. c #B5C5A9",
"$. c #B5C6A9",
"%. c #B6C8A8",
"&. c #BACAA9",
"*. c #BCCDA9",
"=. c #BDCDA9",
"-. c gray76",
";. c #C5C5C5",
":. c #C6C6C6",
">. c #C5C5C9",
",. c #CBCBCB",
"<. c gray80",
"1. c #CCCCCD",
"2. c #CCCDCD",
"3. c #CDCDCD",
"4. c #CFCFD1",
"5. c gray82",
"6. c gray85",
"7. c gainsboro",
"8. c #DDDDDD",
"9. c #E0E0DF",
"0. c #E1E1E1",
"q. c #E4E4E3",
"w. c gray90",
"e. c #E6E6E6",
"r. c #E6E7E7",
"t. c #E7E7E6",
"y. c #E7E8E8",
"u. c gray91",
"i. c #E9E9E9",
"p. c #E9E9EA",
"a. c #E9EAEA",
"s. c #EAEAEA",
"d. c #EAEBEB",
"f. c gray92",
"g. c #ECECEC",
"h. c #EDECEC",
"j. c gray94",
"k. c #F6F6F6",
"l. c None",
/* pixels */
"g h k g g g g g g g g g g k h g ",
"h | 3.3.3.3.3.3.3.3.,.,.,.3.| h ",
"k u.H i i t r r e e e 9 e 6 6.k ",
"g u.m 3.F 8 7 6 5 5 5 5 5 L e.g ",
"g u.B 8 <.A Z c x x x x x P u.g ",
"h u.V 5.c Z b Z c c S K K I u.g ",
"g u.B & s a & & % O X o + # u.g ",
"g u.F &.%.#.$.=.*.$..... .. u.g ",
"h u.C ( E U Y E E ) _ ` ` * u.g ",
"g u.F / ^ ^ ^ W W W W W Q $ u.g ",
"g u.G 3 2 < > , 1 ; : : = @ 8.g ",
"g [ 8.9.q.j.j.5.>.j.j.h.u.u.[ g ",
"g g g { -.:.0.u.u.e.8.X.{ g g g ",
"l.l.g g g [ O.5.O.-.[ g h f l.l.",
"l.l.l.g g 3.u.k.k.k.5.g g l.l.l.",
"l.l.l.g g g g g g g g g g l.l.l."
};
