/* XPM */
static char *yakuake[] = {
/* columns rows colors chars-per-pixel */
"32 32 188 2",
"   c #000000",
".  c #0D0D0D",
"X  c #151515",
"o  c #181818",
"O  c #0D373D",
"+  c #25360B",
"@  c #22380B",
"#  c #2B330C",
"$  c #223D13",
"%  c #362E0E",
"&  c #31310E",
"*  c #232323",
"=  c #2A2A2A",
"-  c #313131",
";  c #3C3C3C",
":  c #0E375D",
">  c #132747",
",  c #0B3F7B",
"<  c #173E64",
"1  c #183D63",
"2  c #213E42",
"3  c #0E403F",
"4  c #1A4F3E",
"5  c #1D503D",
"6  c #244322",
"7  c #28462A",
"8  c #25453D",
"9  c #2E4B36",
"0  c #22533F",
"q  c #0D4B5A",
"w  c #144A46",
"e  c #1C4941",
"r  c #164C5D",
"t  c #17505B",
"y  c #195657",
"u  c #19545A",
"i  c #1A5A55",
"p  c #154762",
"a  c #144862",
"s  c #184064",
"d  c #334B40",
"f  c #3C4743",
"g  c #394455",
"h  c #3D4A5D",
"j  c #2A4763",
"k  c #29496A",
"l  c #374261",
"z  c #334F6A",
"x  c #394561",
"c  c #3B4A61",
"v  c #38496A",
"b  c #37516C",
"n  c #3C546C",
"m  c #3A5573",
"M  c #3B5876",
"N  c #47443E",
"B  c #404D3E",
"V  c #4F4131",
"C  c #4E4438",
"Z  c #51402C",
"A  c #43474C",
"S  c #45484D",
"D  c #4C4541",
"F  c #4F4B47",
"G  c #4C4C4B",
"H  c #4E565C",
"J  c #555555",
"K  c #5F5F5F",
"L  c #444E62",
"P  c #474B6A",
"I  c #494D6A",
"U  c #425065",
"Y  c #43516A",
"T  c #495462",
"R  c #4D536A",
"E  c #465D75",
"W  c #485E77",
"Q  c #495F78",
"!  c #52556A",
"~  c #505C67",
"^  c #545C69",
"/  c #595D6A",
"(  c #4D617B",
")  c #56606A",
"_  c #5A616A",
"`  c #576274",
"'  c #646464",
"]  c #62636A",
"[  c #65686A",
"{  c #6D6D6D",
"}  c #686A78",
"|  c #6C737A",
" . c gray49",
".. c #1D4E85",
"X. c #264C84",
"o. c #355383",
"O. c #3D5A82",
"+. c #415D83",
"@. c #4D6180",
"#. c #617487",
"$. c #7B7D86",
"%. c #3EA54D",
"&. c #539C3F",
"*. c #5AA737",
"=. c #5FA738",
"-. c #5BAC34",
";. c #57BF2F",
":. c #63BA1C",
">. c #63BD26",
",. c #65BB28",
"<. c #6FBF2E",
"1. c #43A642",
"2. c #4BA940",
"3. c #52A947",
"4. c #52B040",
"5. c #5FC41D",
"6. c #5EC120",
"7. c #58C12A",
"8. c #5DC920",
"9. c #57C633",
"0. c #60C51C",
"q. c #63CA15",
"w. c #66CA1A",
"e. c #6BC11C",
"r. c #69CB19",
"t. c #67D01D",
"y. c #6CD111",
"u. c #72CF17",
"i. c #70CD1B",
"p. c #73D21A",
"a. c #75DB1F",
"s. c #7AD41B",
"d. c #7ED91B",
"f. c #63C220",
"g. c #60CC20",
"h. c #7CD520",
"j. c #80D91C",
"k. c #808387",
"l. c #8D8D8D",
"z. c #939393",
"x. c #989898",
"c. c #A09FA0",
"v. c #A7A29D",
"b. c #A9A49F",
"n. c #A3A3A1",
"m. c #A8A5A0",
"M. c #A9A9A9",
"N. c #AEACB0",
"B. c #ABBAA8",
"V. c #B1ACB2",
"C. c #B3B2B1",
"Z. c #B6B0B8",
"A. c #B9B4BC",
"S. c #BAB8B5",
"D. c #BDBDBD",
"F. c #BEBBC3",
"G. c #B3C4A8",
"H. c #B6C8A8",
"J. c #BACBA8",
"K. c #B2C2B0",
"L. c #C0BCC2",
"P. c #C4C4C4",
"I. c #C6C5C8",
"U. c #C2CDC2",
"Y. c #CACACA",
"T. c #D1D1CF",
"R. c #D1D1D2",
"E. c #DBDBDC",
"W. c #D5E5CE",
"Q. c #D5EBCC",
"!. c #D8E3CE",
"~. c #D3E4D1",
"^. c #D2E8D2",
"/. c #D8E4D0",
"(. c #DBEAD2",
"). c #E2DCD6",
"_. c #E2DDD9",
"`. c #E7E2DC",
"'. c #E8E3DE",
"]. c #E3E3E3",
"[. c #EAE5E1",
"{. c #ECEAE6",
"}. c #EBEBEB",
"|. c #F1EFF0",
" X c #F0F0EF",
".X c #F4F4F4",
"XX c #FCFCFC",
"oX c None",
/* pixels */
"' z.x.x.z.x.z.x.z.x.z.x.z.z.z.z.z.z.z.z.z.z.z.z.z.l.z.l.z.z.{ . ",
"z.XXXXXXXXXXXXXXXXXXXXXXXXXXXXXXXXXXXXXXXXXXXXXXXXXXXXXXXXXXY.X ",
"x.XX{.]._._._._.).).)._._.).).).).)._._.).).).)._.).)._.E..XY.o ",
"z.XX].| b E M M M M M m M M M m m m m M m m b m m m m h C.XXI.o ",
"z.XX`.m : s < < 1 1 < < < < < < 1 1 1 1 1 1 1 1 < s s s v.XXY.o ",
"z.XX`.E j Y.#.( n n z z k k k k k k k k k k k k k k k ..b.XXI.o ",
"z.XX`.E T k.{.$./ / / ^ ^ ^ R Y v v v v v v v v b v v X.b.XXI.o ",
"z.XX`.E L Y.$.} ^ ! ! R R I P P I I P P P P P P P P R o.b.XXP.o ",
"z.XX`.E x R I I I P I I I I R I I I I I R ! ^ / ` ] [ +.n.XXI.o ",
"z.XX`.E x R R R R R R R R R R R ! R ! ! ! ^ / / ] ] [ O.n.XXI.o ",
"z.XX'.E c R R R R R R R R R R R ! ^ ^ ^ / / ] ] ] ] [ +.n.XXI.o ",
"z.XX'.E c / / _ _ / / / / _ _ _ / / / ] / / _ ^ ! ^ / O.m.XXP.o ",
"z.XX'.Q U _ _ _ ) ) _ _ ) ) ) / ~ ~ ~ H G F D C V Z Z g M.XXP.o ",
"z.XX'.Q 8 B N D S A f 9 f 9 7 7 6 6 6 $ @ + # # # % & 2 N.XXP.o ",
"z.XX'.( ^.Q.!.!.!.~.W.W./.(.^.(.~.~.~.~.~.~.~.~.~.~.~.3 V.XXP.o ",
"z..X'.( K.J.J.H.H.G.G.G.H.J.J.J.J.J.H.G.G.G.B.B.B.B.B.O V..XP.X ",
"z.XX[.( 3.=.<.d.h.h.d.d.d.s.s.s.s.d.j.j.j.d.s.i.e.:.0.e V.XXP.o ",
"z.XX[.@.-.u.,.>.-.&.*.,.,.,.,.,.i.i.i.i.i.i.i.p.p.s.a.e V.XXP.X ",
"z..X[.( 2.y.r.t.w.f.>.w.w.w.w.w.w.f.w.w.w.w.r.r.w.r.t.5 V.XXP.X ",
"z.XX[.( %.w.0.0.0.0.0.0.0.0.0.5.5.5.5.5.0.6.0.0.0.0.5.5 V..XP.X ",
"l..X{.@.%.8.7.7.7.7.7.7.7.7.7.7.7.7.7.7.7.7.7.;.;.;.9.w V..XP.o ",
"z..X{.` q i i i i i y y t u y u t t r r a r r r r p a > S.XXP.o ",
"z..X].T.A.L.F.F.L.L.F.D.L.F.Z.A.A.F.F.F.F.L.L.L.F.F.P.P.E. XP.X ",
"z.XX X.X.X.X}.XXXXXXXXXXXXE.I.R.T.E.XXXXXXXXXXXX|.}. X X}..XY.X ",
"{ Y.].{..XXX.X}.E.E.E.].].].].}.].].].].].{.}.U.U..X.X}.].R.l.. ",
". * ; G { z.N.I.D.P.P.E.}.{.}.}.}.}.].].].E.E.D.n.c. .J ; * .   ",
"oX          . X * { M.x.c.c.n.n.n.n.c.x.c.z.- o X               ",
"oXoXoXoX        . z.R.L.Y.R.P.D.L.Y.R.P.P.D.=             oXoXoX",
"oXoXoXoXoXoXoXoXS K.].E.E.].].].].].E.E.E.].'   oXoXoXoXoXoXoXoX",
"oXoXoXoXoXoXoXoX{  XXX.X.X.X.X.X.X.X.X.XXXXXM..   oXoXoXoXoXoXoX",
"oXoXoXoXoXoXoXoXK M.M.M.M.M.M.M.M.M.M.M.M.M. .X   oXoXoXoXoXoXoX",
"oXoXoXoXoXoXoXoX. X . . . . . . . . . . . . .     oXoXoXoXoXoXoX"
};
