/* XPM */
static char * rasmol_small_xpm[] = {
"32 32 526 2",
"  	c None",
". 	c #9495AE",
"+ 	c #8D8FB6",
"@ 	c #908FC6",
"# 	c #9B9AD4",
"$ 	c #AAA8E1",
"% 	c #B0AFE1",
"& 	c #B0B1D9",
"* 	c #717290",
"= 	c #7C7DAC",
"- 	c #9090C5",
"; 	c #A3A3DC",
"> 	c #B3B4E7",
", 	c #CAC9EE",
"' 	c #D3D3F3",
") 	c #D5D3FA",
"! 	c #C8C7F0",
"~ 	c #73728F",
"{ 	c #6E6D98",
"] 	c #8685C0",
"^ 	c #9794D0",
"/ 	c #B1AFE5",
"( 	c #C3C2ED",
"_ 	c #D9D8F4",
": 	c #EAE8F9",
"< 	c #EEEDFB",
"[ 	c #E6E8F8",
"} 	c #CDCBF2",
"| 	c #A1A1AB",
"1 	c #5E5D83",
"2 	c #7473A5",
"3 	c #8A89C4",
"4 	c #9E9BD8",
"5 	c #B6B3E8",
"6 	c #CAC9F2",
"7 	c #E0E1F6",
"8 	c #F4F3FA",
"9 	c #FEFEFE",
"0 	c #F9FBFC",
"a 	c #E2E3F7",
"b 	c #C1BEE7",
"c 	c #5B5B70",
"d 	c #62608B",
"e 	c #7575A6",
"f 	c #8B8AC4",
"g 	c #9C99D6",
"h 	c #B6B2EB",
"i 	c #C8C6F3",
"j 	c #DEDFF7",
"k 	c #F2F0FA",
"l 	c #FDFCFD",
"m 	c #FBFBFC",
"n 	c #EAEBF4",
"o 	c #CCCAF2",
"p 	c #66647C",
"q 	c #656392",
"r 	c #7474A4",
"s 	c #8786BE",
"t 	c #9896D1",
"u 	c #AEABE6",
"v 	c #C0BDF1",
"w 	c #D6D5F7",
"x 	c #E9E6F9",
"y 	c #F5F4FA",
"z 	c #F6F5F9",
"A 	c #E5E4F8",
"B 	c #CECDFA",
"C 	c #AAA9D9",
"D 	c #5E5C75",
"E 	c #605E89",
"F 	c #7271A4",
"G 	c #8283BA",
"H 	c #9292CC",
"I 	c #A4A3DF",
"J 	c #B5B2E9",
"K 	c #C9C6F4",
"L 	c #D9D6FA",
"M 	c #E2E1F8",
"N 	c #E5E3F8",
"O 	c #D9D7F7",
"P 	c #C2C1F1",
"Q 	c #A8A6DD",
"R 	c #5C5A73",
"S 	c #59587E",
"T 	c #6B6B9B",
"U 	c #7D7CB4",
"V 	c #8C89C4",
"W 	c #9A99D9",
"X 	c #A5A7E3",
"Y 	c #B5B3E9",
"Z 	c #C2C1F2",
"` 	c #CAC9F6",
" .	c #CCCBF7",
"..	c #C2C0F1",
"+.	c #B1AFE9",
"@.	c #9D99D4",
"#.	c #605E78",
"$.	c #525275",
"%.	c #646590",
"&.	c #7576AB",
"*.	c #8281B6",
"=.	c #9090CC",
"-.	c #9B9BD7",
";.	c #A8A8DF",
">.	c #B1B1E7",
",.	c #B8B7EE",
"'.	c #B6B6EF",
").	c #B0B0E8",
"!.	c #A5A2DF",
"~.	c #918DC5",
"{.	c #6C6A7E",
"].	c #4A4A68",
"^.	c #5A5A81",
"/.	c #6C6C9D",
"(.	c #7677AB",
"_.	c #8584BD",
":.	c #908DC7",
"<.	c #9998CF",
"[.	c #9E9DD6",
"}.	c #A3A2DD",
"|.	c #9FA1DE",
"1.	c #9A9BD5",
"2.	c #9291CD",
"3.	c #7F7F89",
"4.	c #494864",
"5.	c #4F4E73",
"6.	c #6D6D82",
"7.	c #8887A0",
"8.	c #7E7BAB",
"9.	c #8481B8",
"0.	c #8B88C2",
"a.	c #928EC9",
"b.	c #9490CB",
"c.	c #9292CB",
"d.	c #8B8BC9",
"e.	c #8684C0",
"f.	c #66667B",
"g.	c #4F4C61",
"h.	c #A9AA8C",
"i.	c #EAEBC8",
"j.	c #ADABB9",
"k.	c #7371A1",
"l.	c #7B78AD",
"m.	c #7F7CB4",
"n.	c #807DB7",
"o.	c #7E7EB2",
"p.	c #7876AE",
"q.	c #9797A0",
"r.	c #7D7D74",
"s.	c #D7D9A8",
"t.	c #F3F4CA",
"u.	c #9DA298",
"v.	c #656792",
"w.	c #6D6C99",
"x.	c #6F6D9D",
"y.	c #706DA2",
"z.	c #6D6C9C",
"A.	c #656589",
"B.	c #CCCDBA",
"C.	c #BCC095",
"D.	c #EFF1C6",
"E.	c #DBDCB7",
"F.	c #5C5D61",
"G.	c #4E4E71",
"H.	c #54527C",
"I.	c #59567F",
"J.	c #575672",
"K.	c #66656F",
"L.	c #BABA9E",
"M.	c #C5C5A8",
"N.	c #D6D8A7",
"O.	c #F2F0CE",
"P.	c #CACCAC",
"Q.	c #7F7E86",
"R.	c #676877",
"S.	c #6A697D",
"T.	c #7E7E8D",
"U.	c #7F817F",
"V.	c #7C7F62",
"W.	c #C2C38E",
"X.	c #D7D7B3",
"Y.	c #ADACC9",
"Z.	c #B0AECF",
"`.	c #BAB9D7",
" +	c #CAC7DD",
".+	c #B3B3A3",
"++	c #EBECC8",
"@+	c #DFE0B6",
"#+	c #77785C",
"$+	c #A7A678",
"%+	c #C8C899",
"&+	c #C7C9CD",
"*+	c #ABADCA",
"=+	c #B0B1D2",
"-+	c #B7B8D3",
";+	c #8D8BB1",
">+	c #8D89C0",
",+	c #9B99D3",
"'+	c #A7A6DE",
")+	c #B3B3E7",
"!+	c #B3B2E4",
"~+	c #B4B6CF",
"{+	c #CDCDD3",
"]+	c #D0D3AF",
"^+	c #878579",
"/+	c #83835C",
"(+	c #BABC80",
"_+	c #AFAFAB",
":+	c #9B9ACE",
"<+	c #A5A7DD",
"[+	c #B2B3E4",
"}+	c #B7B6E4",
"|+	c #BABADF",
"1+	c #73718B",
"2+	c #74749A",
"3+	c #8987C1",
"4+	c #9997D3",
"5+	c #AEAFE3",
"6+	c #BFC1EF",
"7+	c #D2D4F7",
"8+	c #D9DBF6",
"9+	c #D5D7F1",
"0+	c #C5C3EB",
"a+	c #BCBBD6",
"b+	c #888694",
"c+	c #686D56",
"d+	c #9B9E6E",
"e+	c #C2C2A2",
"f+	c #B7B6D7",
"g+	c #C4C7F2",
"h+	c #D3D5F6",
"i+	c #DBDCF6",
"j+	c #D7D8F5",
"k+	c #C2C1E2",
"l+	c #B7B6D0",
"m+	c #69678C",
"n+	c #7878AB",
"o+	c #8B8CC4",
"p+	c #9E9FD4",
"q+	c #B7B9E8",
"r+	c #CBCDF1",
"s+	c #E5E7F8",
"t+	c #F0F1F7",
"u+	c #F2F2F9",
"v+	c #E2E2F7",
"w+	c #C1C1E4",
"x+	c #CED0E1",
"y+	c #6C6B90",
"z+	c #6B6F72",
"A+	c #787D59",
"B+	c #B9BB9A",
"C+	c #BCBED5",
"D+	c #D0D1F8",
"E+	c #E5E6F8",
"F+	c #F2F3F8",
"G+	c #F2F3F9",
"H+	c #DCDAF6",
"I+	c #BFBDE0",
"J+	c #606079",
"K+	c #6C6A9A",
"L+	c #7B7CB4",
"M+	c #9294CA",
"N+	c #A3A5DA",
"O+	c #BDBEF0",
"P+	c #D1D1F8",
"Q+	c #ECEDF8",
"R+	c #FAFBFC",
"S+	c #FDFDFD",
"T+	c #F4F5F5",
"U+	c #D3D0F4",
"V+	c #B6B7D8",
"W+	c #646882",
"X+	c #676897",
"Y+	c #7E80A9",
"Z+	c #8583A5",
"`+	c #AAA6CA",
" @	c #BFBFEA",
".@	c #D5D5F9",
"+@	c #ECECF8",
"@@	c #FBFCFA",
"#@	c #EFF0F6",
"$@	c #D5D4F7",
"%@	c #B3B0D9",
"&@	c #60607F",
"*@	c #6D6D9D",
"=@	c #7E80B6",
"-@	c #9194CA",
";@	c #A1A4DC",
">@	c #BABAEF",
",@	c #CFCEF6",
"'@	c #E9E9F7",
")@	c #F7F6FA",
"!@	c #FBFCFB",
"~@	c #F4F7F8",
"{@	c #DCD9F6",
"]@	c #B6B5E1",
"^@	c #AFB1BA",
"/@	c #535576",
"(@	c #696C99",
"_@	c #7F82B7",
":@	c #9393CC",
"<@	c #A5A4E0",
"[@	c #BABAEE",
"}@	c #D5D3F9",
"|@	c #E7E7F9",
"1@	c #F9F9FC",
"2@	c #FDFEFC",
"3@	c #F3F3F9",
"4@	c #DBDAF9",
"5@	c #B7B4E2",
"6@	c #7C7C8E",
"7@	c #535375",
"8@	c #6A6A98",
"9@	c #7879AE",
"0@	c #8E8EC6",
"a@	c #9E9ED7",
"b@	c #B4B4EB",
"c@	c #C5C6F4",
"d@	c #DDDDF6",
"e@	c #EAE9FA",
"f@	c #F0F1FB",
"g@	c #E8EAEC",
"h@	c #C0BEB8",
"i@	c #AEADAA",
"j@	c #B2B39D",
"k@	c #C8C9AA",
"l@	c #C8C8AE",
"m@	c #898985",
"n@	c #565577",
"o@	c #6C6D9A",
"p@	c #7E80B5",
"q@	c #8D8EC6",
"r@	c #A2A1DD",
"s@	c #B3B2EA",
"t@	c #CBCAF6",
"u@	c #DCDBF8",
"v@	c #F2F3FA",
"w@	c #E9E9F9",
"x@	c #D7D7F7",
"y@	c #B1AFE3",
"z@	c #9B9BA9",
"A@	c #4F4E71",
"B@	c #686894",
"C@	c #7575AA",
"D@	c #8B89C1",
"E@	c #9997D1",
"F@	c #A8A8E1",
"G@	c #B8B9EB",
"H@	c #CECFF5",
"I@	c #D8D8F6",
"J@	c #E0E1F8",
"K@	c #C0C2C6",
"L@	c #898965",
"M@	c #8C8968",
"N@	c #8A8B65",
"O@	c #8A8B67",
"P@	c #898A67",
"Q@	c #666461",
"R@	c #565278",
"S@	c #686795",
"T@	c #7A79B0",
"U@	c #8887C0",
"V@	c #9C98D4",
"W@	c #ABA7E2",
"X@	c #BCBCEE",
"Y@	c #CCCDF5",
"Z@	c #DADBF8",
"`@	c #DEDFF8",
" #	c #D8D8F7",
".#	c #C8C9F1",
"+#	c #A9A9E1",
"@#	c #9D9CAA",
"##	c #4C4B6E",
"$#	c #62618B",
"%#	c #7270A1",
"&#	c #8380B9",
"*#	c #918DC9",
"=#	c #9D9CD7",
"-#	c #AAAAE3",
";#	c #B7B8EB",
">#	c #C1C1F0",
",#	c #C9C7F8",
"'#	c #ABAAC1",
")#	c #68684B",
"!#	c #676748",
"~#	c #656647",
"{#	c #656749",
"]#	c #68674B",
"^#	c #565457",
"/#	c #4E4C74",
"(#	c #61608C",
"_#	c #7572A6",
":#	c #8380B7",
"<#	c #9591CA",
"[#	c #9F9CD7",
"}#	c #ABAAE3",
"|#	c #B7B6EB",
"1#	c #C6C5F4",
"2#	c #C6C7F3",
"3#	c #C2C2F4",
"4#	c #B5B7E9",
"5#	c #9A9CD5",
"6#	c #7F7D8E",
"7#	c #4B486A",
"8#	c #5A5980",
"9#	c #6A6895",
"0#	c #7C79B1",
"a#	c #8682BD",
"b#	c #9694CE",
"c#	c #9D9CD9",
"d#	c #A9A8E1",
"e#	c #AEB0E3",
"f#	c #B3B4EB",
"g#	c #B0AEE0",
"h#	c #8D8BA2",
"i#	c #81818D",
"j#	c #686870",
"k#	c #49496B",
"l#	c #5A5982",
"m#	c #6E6C9D",
"n#	c #7B78AC",
"o#	c #8988BF",
"p#	c #9493CD",
"q#	c #A09FD9",
"r#	c #AAA7E2",
"s#	c #B2B1E7",
"t#	c #B2B4E8",
"u#	c #AEAFE8",
"v#	c #A3A6DE",
"w#	c #9091C8",
"x#	c #504F6A",
"y#	c #4E4F72",
"z#	c #5F5E88",
"A#	c #6F6D9E",
"B#	c #7A78AD",
"C#	c #8685BD",
"D#	c #8D8CC7",
"E#	c #9897D3",
"F#	c #9C9ED7",
"G#	c #9C9FD9",
"H#	c #9B9CD9",
"I#	c #9393CF",
"J#	c #8887B8",
"K#	c #484765",
"L#	c #4F4E75",
"M#	c #63628E",
"N#	c #7D7BB2",
"O#	c #8585BD",
"P#	c #9190C8",
"Q#	c #9895CF",
"R#	c #9D9BD9",
"S#	c #9D9FDB",
"T#	c #999AD5",
"U#	c #9192CD",
"V#	c #8C8BB4",
"W#	c #49496A",
"X#	c #525179",
"Y#	c #676691",
"Z#	c #706E9F",
"`#	c #7B79AF",
" $	c #8180BA",
".$	c #8988C5",
"+$	c #8C8BC8",
"@$	c #8D8DC7",
"#$	c #8B8CC3",
"$$	c #8484C0",
"%$	c #494666",
"&$	c #49486B",
"*$	c #555678",
"=$	c #65648C",
"-$	c #7170A4",
";$	c #7878AE",
">$	c #8383B9",
",$	c #8C89C0",
"'$	c #8E8CC8",
")$	c #8D8ECB",
"!$	c #898AC1",
"~$	c #8081B8",
"{$	c #8480A2",
"]$	c #494566",
"^$	c #474766",
"/$	c #545477",
"($	c #61608A",
"_$	c #6B699A",
":$	c #726FA2",
"<$	c #7879AB",
"[$	c #787AAD",
"}$	c #7979AD",
"|$	c #7A78A9",
"1$	c #484764",
"2$	c #4A4A6A",
"3$	c #515277",
"4$	c #636490",
"5$	c #7272A2",
"6$	c #7878A9",
"7$	c #7B7BB1",
"8$	c #7B7AB1",
"9$	c #7877A7",
"0$	c #726E96",
"a$	c #474660",
"b$	c #4A4968",
"c$	c #504E73",
"d$	c #5F5D86",
"e$	c #65638D",
"f$	c #6A6993",
"g$	c #6C6C97",
"h$	c #6B699C",
"i$	c #66638E",
"j$	c #494862",
"k$	c #48496B",
"l$	c #525277",
"m$	c #5B5B80",
"n$	c #686692",
"o$	c #6B6997",
"p$	c #6C6A98",
"q$	c #545266",
"r$	c #524F68",
"s$	c #4A4969",
"t$	c #4E4E70",
"u$	c #514E71",
"v$	c #575574",
"w$	c #696982",
"x$	c #474765",
"y$	c #4B4968",
"z$	c #4E4C6F",
"A$	c #525073",
"                                                                ",
"                        . + @ # $ % &                           ",
"                      * = - ; > , ' ) !                         ",
"                    ~ { ] ^ / ( _ : < [ }                       ",
"                  | 1 2 3 4 5 6 7 8 9 0 a b                     ",
"                  c d e f g h i j k l m n o                     ",
"                  p q r s t u v w x y z A B C                   ",
"                  D E F G H I J K L M N O P Q                   ",
"                  R S T U V W X Y Z `  ...+.@.                  ",
"                  #.$.%.&.*.=.-.;.>.,.'.).!.~.                  ",
"                  {.].^./.(._.:.<.[.}.|.1.2.                    ",
"                  3.4.5.6.7.8.9.0.a.b.c.d.e.                    ",
"                    f.g.h.i.j.k.l.m.n.o.p.                      ",
"                    q.r.s.t.u.v.w.x.y.z.A.                      ",
"                    B.C.D.E.F.G.H.I.J.K.L.                      ",
"                    M.N.O.P.Q.R.S.T.U.V.W.X.                    ",
"            Y.Z.`. +.+++@+            #+$+%+&+*+=+-+            ",
"        ;+>+,+'+)+!+~+{+]+            ^+/+(+_+:+<+[+}+|+        ",
"    1+2+3+4+5+6+7+8+9+0+a+            b+c+d+e+f+g+h+i+j+k+l+    ",
"    m+n+o+p+q+r+s+t+u+v+w+x+          y+z+A+B+C+D+E+F+G+H+I+    ",
"  J+K+L+M+N+O+P+Q+R+S+T+U+V+        W+X+Y+Z+`+ @.@+@R+@@#@$@%@  ",
"  &@*@=@-@;@>@,@'@)@!@~@{@]@      ^@/@(@_@:@<@[@}@|@1@2@3@4@5@  ",
"6@7@8@9@0@a@b@c@d@e@f@g@h@i@j@k@l@m@n@o@p@q@r@s@t@u@+@v@w@x@y@  ",
"z@A@B@C@D@E@F@G@H@I@J@K@L@M@N@O@P@Q@R@S@T@U@V@W@X@Y@Z@`@ #.#+#  ",
"@###$#%#&#*#=#-#;#>#,#'#)#!#~#{#]#^#/#(#_#:#<#[#}#|#1#2#3#4#5#  ",
"6#7#8#9#0#a#b#c#d#e#f#g#h#i#      j#k#l#m#n#o#p#q#r#s#t#u#v#w#  ",
"  x#y#z#A#B#C#D#E#F#G#H#I#J#        K#L#M#A#N#O#P#Q#R#S#T#U#V#  ",
"    W#X#Y#Z#`# $.$+$@$#$$$          %$&$*$=$-$;$>$,$'$)$!$~${$  ",
"    ]$^$/$($_$:$<$[$}$|$              1$2$3$4$T 5$6$7$8$9$0$    ",
"      a$b$c$d$e$f$g$h$i$                j$k$l$m$n$o$z.p$        ",
"        q$r$s$t$u$v$w$                      x$y$z$A$            ",
"                                                                "};
