/* XPM */
static char * gsticon_xpm[] = {
"32 32 535 2",
"  	c #FFFFFF",
". 	c #CEDBEC",
"+ 	c #89A9E1",
"@ 	c #89ADDC",
"# 	c #FBFCFF",
"$ 	c #E4E9FF",
"% 	c #DBE3FF",
"& 	c #D8E1FF",
"* 	c #EDE9EB",
"= 	c #1E8997",
"- 	c #68A3AA",
"; 	c #D6E4FE",
"> 	c #117F80",
", 	c #00788A",
"' 	c #000282",
") 	c #E1EDFF",
"! 	c #FEFFFF",
"~ 	c #EEF0FF",
"{ 	c #1C78D3",
"] 	c #1C7BCF",
"^ 	c #3A66FF",
"/ 	c #90AAFE",
"( 	c #F9F5F9",
"_ 	c #92B1B1",
": 	c #007D7C",
"< 	c #015D7F",
"[ 	c #00817B",
"} 	c #8388B5",
"| 	c #C9DBFA",
"1 	c #4E85F0",
"2 	c #4F86F0",
"3 	c #CEDAF9",
"4 	c #A3BCC2",
"5 	c #00827E",
"6 	c #006A6B",
"7 	c #342633",
"8 	c #9AA3C4",
"9 	c #F5F6FF",
"0 	c #4687E7",
"a 	c #0F7EC5",
"b 	c #5B82F1",
"c 	c #02456C",
"d 	c #6F90FF",
"e 	c #67AFB8",
"f 	c #0F7C9B",
"g 	c #859AAB",
"h 	c #00564A",
"i 	c #000073",
"j 	c #007484",
"k 	c #26578F",
"l 	c #758BCC",
"m 	c #5E90F8",
"n 	c #83A7F2",
"o 	c #81828B",
"p 	c #529083",
"q 	c #000875",
"r 	c #004F4B",
"s 	c #FCFFFF",
"t 	c #B0C9FC",
"u 	c #1D6EB3",
"v 	c #4C7FFC",
"w 	c #336DB0",
"x 	c #013651",
"y 	c #2E5FC5",
"z 	c #EEF2FF",
"A 	c #7D8080",
"B 	c #333129",
"C 	c #040584",
"D 	c #6B7694",
"E 	c #5B64B4",
"F 	c #50A8BA",
"G 	c #00057F",
"H 	c #008185",
"I 	c #99A5E8",
"J 	c #4074A0",
"K 	c #569A94",
"L 	c #00547D",
"M 	c #3C346B",
"N 	c #253A9B",
"O 	c #E2F2FF",
"P 	c #6081FF",
"Q 	c #0273A9",
"R 	c #4272F8",
"S 	c #4476C6",
"T 	c #003A5A",
"U 	c #418AC8",
"V 	c #EFF2FF",
"W 	c #FEFEFF",
"X 	c #79D1DA",
"Y 	c #00353C",
"Z 	c #7599B5",
"` 	c #478D87",
" .	c #436FAC",
"..	c #939EC3",
"+.	c #2D2B2E",
"@.	c #969DBC",
"#.	c #00707D",
"$.	c #9EA0CB",
"%.	c #018084",
"&.	c #444283",
"*.	c #00007F",
"=.	c #7EACBE",
"-.	c #DCECF2",
";.	c #ACBDFF",
">.	c #6388FE",
",.	c #6287FF",
"'.	c #3478F1",
").	c #104C85",
"!.	c #013752",
"~.	c #2E71E0",
"{.	c #ADB3D8",
"].	c #000225",
"^.	c #005F87",
"/.	c #535252",
"(.	c #030606",
"_.	c #024242",
":.	c #037C7C",
"<.	c #004C85",
"[.	c #5A938B",
"}.	c #B9ACAC",
"|.	c #388784",
"1.	c #584748",
"2.	c #07154C",
"3.	c #C3D6DE",
"4.	c #2870E9",
"5.	c #3F7BEF",
"6.	c #C4D1FC",
"7.	c #137AC6",
"8.	c #5178FF",
"9.	c #5580EA",
"0.	c #005479",
"a.	c #14558B",
"b.	c #3F9ADE",
"c.	c #EFF1FF",
"d.	c #071A95",
"e.	c #000000",
"f.	c #006C6C",
"g.	c #F3F5FF",
"h.	c #034A5F",
"i.	c #3F8AB2",
"j.	c #000104",
"k.	c #04CDCC",
"l.	c #058685",
"m.	c #02003A",
"n.	c #007B7B",
"o.	c #6BA0CE",
"p.	c #5B81FF",
"q.	c #04578F",
"r.	c #DBE6FF",
"s.	c #B2BEFF",
"t.	c #4F76FF",
"u.	c #0D517D",
"v.	c #023F58",
"w.	c #6A91EB",
"x.	c #DFE9FE",
"y.	c #BAC1C3",
"z.	c #B6B6BC",
"A.	c #F5F7FF",
"B.	c #447ED9",
"C.	c #1280BD",
"D.	c #678ED5",
"E.	c #4754C8",
"F.	c #5D514C",
"G.	c #5A5251",
"H.	c #7F9ADD",
"I.	c #0667A6",
"J.	c #2D88D5",
"K.	c #0B517C",
"L.	c #2D67AA",
"M.	c #E0E5FF",
"N.	c #7DB2E6",
"O.	c #177EC7",
"P.	c #6482FF",
"Q.	c #0D5381",
"R.	c #0B4768",
"S.	c #5C89F9",
"T.	c #F0F2FF",
"U.	c #257ED6",
"V.	c #117EB9",
"W.	c #3883C6",
"X.	c #01476C",
"Y.	c #3071E0",
"Z.	c #FDFDFD",
"`.	c #6594E9",
" +	c #276FDD",
".+	c #5D85E0",
"++	c #275BC9",
"@+	c #8EBAF0",
"#+	c #0E7FBF",
"$+	c #3E76F3",
"%+	c #5C83FF",
"&+	c #14577F",
"*+	c #005680",
"=+	c #5C88F7",
"-+	c #3A6FEA",
";+	c #016AAC",
">+	c #4E7BD6",
",+	c #98AFAB",
"'+	c #1323F3",
")+	c #5E5FFE",
"!+	c #BCBCFF",
"~+	c #5252FF",
"{+	c #5679F3",
"]+	c #1A29F1",
"^+	c #6C77EA",
"/+	c #283EF1",
"(+	c #2A51EB",
"_+	c #A8BAD8",
":+	c #4474C7",
"<+	c #01354D",
"[+	c #035F96",
"}+	c #DDEEFD",
"|+	c #3A6CE5",
"1+	c #003463",
"2+	c #01384F",
"3+	c #0303FF",
"4+	c #FBF4FE",
"5+	c #0202FF",
"6+	c #A0A0FF",
"7+	c #0202FE",
"8+	c #DEE2DB",
"9+	c #0303FE",
"0+	c #181FF4",
"a+	c #6B91FF",
"b+	c #1120F8",
"c+	c #033E61",
"d+	c #00496B",
"e+	c #2F6CDA",
"f+	c #DAEDF6",
"g+	c #F8F9FF",
"h+	c #4F83F5",
"i+	c #0A6CB0",
"j+	c #3751FE",
"k+	c #0000FF",
"l+	c #707BFD",
"m+	c #D4D9E3",
"n+	c #3E3FF2",
"o+	c #CDCDE3",
"p+	c #0D16DF",
"q+	c #13201E",
"r+	c #1014EE",
"s+	c #09609D",
"t+	c #9AADFF",
"u+	c #FCFCFF",
"v+	c #DBE2FF",
"w+	c #8C8EFF",
"x+	c #74748B",
"y+	c #8988FF",
"z+	c #6670FA",
"A+	c #BDBDC0",
"B+	c #2E33F4",
"C+	c #C2C2BF",
"D+	c #1A23FA",
"E+	c #3D68DB",
"F+	c #1524FD",
"G+	c #B6C9FF",
"H+	c #595DF5",
"I+	c #2930FF",
"J+	c #7878D7",
"K+	c #8285FF",
"L+	c #3B3EFF",
"M+	c #B0B3E8",
"N+	c #4343E8",
"O+	c #5358FF",
"P+	c #4949E6",
"Q+	c #5056FF",
"R+	c #FBFAFD",
"S+	c #EFEFF3",
"T+	c #FDFFFF",
"U+	c #FFFFFA",
"V+	c #FBFBFC",
"W+	c #FDFDFA",
"X+	c #FFFFFD",
"Y+	c #F1F1F5",
"Z+	c #FEFDFD",
"`+	c #F3F2F5",
" @	c #2E2CF6",
".@	c #2222D6",
"+@	c #D5D8DC",
"@@	c #E6EDFF",
"#@	c #3535ED",
"$@	c #2249E7",
"%@	c #3E3EEA",
"&@	c #8D8FF5",
"*@	c #2F3CF9",
"=@	c #4E96CC",
"-@	c #4072FF",
";@	c #1C1CDA",
">@	c #BCC2F8",
",@	c #2D31D5",
"'@	c #8AA0FF",
")@	c #8AA5FF",
"!@	c #1B62FF",
"~@	c #E1E8FF",
"{@	c #3636E4",
"]@	c #A3B5F4",
"^@	c #C5D0FE",
"/@	c #717192",
"(@	c #ADADCB",
"_@	c #A8A8C7",
":@	c #E5F6FF",
"<@	c #B8B8B8",
"[@	c #9EAFD8",
"}@	c #CDCDBB",
"|@	c #3F51FF",
"1@	c #4575FF",
"2@	c #6362FF",
"3@	c #0102FF",
"4@	c #3760FE",
"5@	c #1A1AEC",
"6@	c #C7D1EF",
"7@	c #B2B2C4",
"8@	c #99A2FF",
"9@	c #0009FF",
"0@	c #B1B4D0",
"a@	c #698CFF",
"b@	c #A8ADCC",
"c@	c #0000F5",
"d@	c #ECECD5",
"e@	c #0707FF",
"f@	c #667CFF",
"g@	c #7E7ED5",
"h@	c #6A6AF6",
"i@	c #A4B9E5",
"j@	c #5A5AD4",
"k@	c #B9C8EE",
"l@	c #3A4AFF",
"m@	c #FAFAFF",
"n@	c #6261FF",
"o@	c #0606FC",
"p@	c #8A9CF5",
"q@	c #B1B1AD",
"r@	c #8596FE",
"s@	c #939EFF",
"t@	c #7E83FF",
"u@	c #6086FF",
"v@	c #969AD7",
"w@	c #AFB0CF",
"x@	c #5B5AFF",
"y@	c #7E98F1",
"z@	c #B8B8C2",
"A@	c #3D40FF",
"B@	c #6D6D91",
"C@	c #5353E8",
"D@	c #909EFF",
"E@	c #3C4DFF",
"F@	c #C6C8FF",
"G@	c #605FFF",
"H@	c #2727F1",
"I@	c #C7C7BD",
"J@	c #8898FF",
"K@	c #8888D2",
"L@	c #8DAAFF",
"M@	c #1414E8",
"N@	c #969ADE",
"O@	c #9191CF",
"P@	c #FBF4FF",
"Q@	c #9695D5",
"R@	c #A9A9B8",
"S@	c #CFC7F0",
"T@	c #A2A0D9",
"U@	c #9494D2",
"V@	c #AAA7DF",
"W@	c #9292CE",
"X@	c #7E8EE9",
"Y@	c #BCB3FE",
"Z@	c #D2CAEE",
"`@	c #B0ADE5",
" #	c #9696CD",
".#	c #C2BDF3",
"+#	c #C2BDF5",
"@#	c #9797CE",
"##	c #9595D2",
"$#	c #688CFF",
"%#	c #0053FF",
"&#	c #1763FF",
"*#	c #7191FF",
"=#	c #99B9FF",
"-#	c #C9DAFF",
";#	c #E6EBFF",
">#	c #2799FF",
",#	c #CDD4FF",
"'#	c #256BFF",
")#	c #3C7CFF",
"!#	c #1D68FF",
"~#	c #E2ECFF",
"{#	c #5E92FF",
"]#	c #DFE6FF",
"^#	c #C8D0FF",
"/#	c #316BFF",
"(#	c #1160FF",
"_#	c #D6E1FF",
":#	c #C5D7FF",
"<#	c #EAEFFF",
"[#	c #CFDCFF",
"}#	c #DAE4FF",
"|#	c #F7F9FF",
"1#	c #C5D8FF",
"2#	c #EFF3FF",
"3#	c #F1F7FC",
"4#	c #D1DCFF",
"5#	c #D6EEFF",
"6#	c #E0E8FF",
"7#	c #D8E3FF",
"8#	c #538BFF",
"9#	c #E5EBFF",
"0#	c #D4E0FF",
"a#	c #6988FF",
"b#	c #C6D5FF",
"c#	c #5D85FF",
"d#	c #1461FF",
"e#	c #3F7DFF",
"f#	c #C3D5FC",
"g#	c #A4BFFF",
"h#	c #3778FF",
"i#	c #DEE7FF",
"j#	c #87A7FF",
"k#	c #216AFF",
"l#	c #69CAFF",
"m#	c #D6E2FF",
"n#	c #D9E2FF",
"o#	c #CFEAFF",
"p#	c #D4DEFF",
"q#	c #E2E8FF",
"r#	c #D2E1FF",
"s#	c #4671FF",
"t#	c #0F5BFF",
"u#	c #317DFF",
"v#	c #EFEFFF",
"w#	c #C1D5FF",
"x#	c #CBDCFF",
"y#	c #396CFF",
"z#	c #C6D5F8",
"A#	c #E6EEFF",
"B#	c #2467FF",
"C#	c #53B9FF",
"D#	c #CACCFF",
"E#	c #E4EBFF",
"F#	c #276BFF",
"G#	c #5C92FF",
"H#	c #2C70FF",
"I#	c #83A2FC",
"J#	c #89A8FC",
"K#	c #B3C6FF",
"L#	c #D3E2FF",
"M#	c #DAE3FF",
"N#	c #4873FF",
"O#	c #E9EEFF",
"P#	c #0E5BFF",
"Q#	c #307DFF",
"R#	c #F4F4FF",
"S#	c #4583FF",
"T#	c #C7D9FF",
"U#	c #688EFF",
"V#	c #F6F9FF",
"W#	c #92AEFF",
"X#	c #E3E4FF",
"Y#	c #92B3F8",
"Z#	c #E5ECFF",
"`#	c #6282FF",
" $	c #40AEFF",
".$	c #286FFF",
"+$	c #7393FF",
"@$	c #3777FF",
"#$	c #97ADFF",
"$$	c #EBEBFF",
"%$	c #A2CCFF",
"&$	c #CADBFF",
"*$	c #3677FF",
"=$	c #6587FF",
"-$	c #F9F8FF",
";$	c #A9C7FF",
">$	c #4574FF",
",$	c #DEE6FF",
"'$	c #3979FF",
")$	c #3A78FF",
"!$	c #7498FF",
"~$	c #85A0FF",
"{$	c #2166FF",
"]$	c #A3BFFF",
"^$	c #A3CCFF",
"/$	c #266DFF",
"($	c #D3DBFF",
"_$	c #175EFF",
":$	c #3C71FF",
"<$	c #4675FF",
"[$	c #3978FF",
"}$	c #E8ECFF",
"|$	c #427EFF",
"1$	c #3F6EFF",
"2$	c #EAEEFF",
"3$	c #2168FF",
"4$	c #D9E5FF",
"5$	c #5987FF",
"6$	c #AEBFFF",
"7$	c #2778FF",
"8$	c #5D93FF",
"9$	c #638AFF",
"0$	c #276EFF",
"a$	c #B1D5FF",
"b$	c #99BAFF",
"c$	c #CEDDFF",
"d$	c #A5C3FF",
"e$	c #3A70FF",
"f$	c #1D74FF",
"g$	c #F3F3FF",
"h$	c #236BFF",
"i$	c #EAF1FF",
"j$	c #3576FF",
"k$	c #3D71FF",
"l$	c #4180FF",
"m$	c #A6C2FF",
"n$	c #A3C1FF",
"o$	c #D9E3FF",
"p$	c #3167FF",
"q$	c #AAD1FF",
"r$	c #99C7FF",
"s$	c #D7E4FF",
"t$	c #C6D8FF",
"u$	c #D1DFFF",
"v$	c #D9EFFF",
"w$	c #CFEBFF",
"x$	c #D7E2FF",
"y$	c #D8E5FF",
"z$	c #CADAFF",
"A$	c #FDFCFF",
"B$	c #C4DBFF",
"C$	c #C8DEFF",
"D$	c #D0EBFF",
"E$	c #DFE5FF",
"F$	c #CCE0FF",
"G$	c #D3F1FF",
"H$	c #C7D8FF",
"I$	c #F9FBFF",
"J$	c #C2D6FF",
"                                . + @ #           $ % &         ",
"            * = -             ; > , ' )       ! ~ { ] ^ /       ",
"        ( _ : < [ } | 1 2 3 4 5 6 7 8         9 0 a b c d       ",
"  !   e f g h i j k l m n o p q r s         t u v w x y z       ",
"    A B C D E F G H I J K L M N O !       P Q R S T U V W       ",
"  X Y Z `  ...+.@.#.$.%.&.*.=.-.W     ;.>.,.'.).!.~.            ",
"{.].^./.(._.:.<.[.}.|.1.2.3.4.5.    6.7.8.9.0.a.b.c.W           ",
"  d.e.f.g.h.i.j.k.l.m.n.o.p.q.r.  s.7.t.u.v.w.x.                ",
"  y.z.A.B.C.D.E.F.G.H.I.J.K.L.M.N.O.P.Q.R.S.                    ",
"  W T.U.V.W.X.Y.Z.Z.`. +.+++@+#+$+%+&+*+=+                      ",
"    -+;+>+,+'+)+!+~+{+]+^+/+(+_+:+<+[+}+                        ",
"    |+1+2+3+4+5+6+7+8+9+0+a+b+c+d+e+f+g+                        ",
"    h+i+j+k+W   l+m+n+o+p+q+r+s+t+  W                           ",
"    u+v+w+x+y+k+z+A+B+C+D+E+F+G+                                ",
"          H+I+J+K+L+M+N+O+P+Q+                                  ",
"R+S+T+            U+V+W+X+  X+W   Y+Z+`+                        ",
" @.@+@          @@#@$@%@&@*@=@  -@;@>@,@'@)@!@~@                ",
"{@]@^@/@(@_@:@<@[@}@|@1@2@3@4@5@6@7@8@9@0@  a@                  ",
"b@c@d@e@f@g@h@i@j@k@l@m@n@o@p@q@r@_@s@k+t@  u@                  ",
"v@w@x@e@y@z@A@B@C@D@E@F@G@H@I@k+J@K@L@M@N@  u@                  ",
"O@O@P@Q@R@S@T@U@V@W@X@W@Y@Z@`@ #.#W@+#@###  $#                  ",
"                %#@@  &#  *#*#  =#-#;#>#,#  '#                  ",
"              W   )#!#~#  {#{#  ]#]#  ^#/#(#                    ",
"                                                                ",
"    _#:#<#                  [#}#|#1#  2#3#      4#5#6#7#        ",
"  8#9#0#a#                  b#c#  d#  e#f#      g#h#i#j#        ",
"  k#;#  l#m#n#o#o#p#  q#r#  n#s#;#t#  u#v#  w#m@x#y#A.L@  z#    ",
"  A#B#C#D#E#F#G#G#H#I#J#K#L#M#N#O#P#  Q#R#S#T#U#}#y#V#W#X#Y#    ",
"    Z#`# $  .$+$+$@$#$$$%$&$M#N#O#P#  *$=$-$;$>$,$'$;#)$!$      ",
"  ~$    {$  .$+$+$.$<#]$^$&$M#N#;#t#  /$($_$:$<$,$[$}$|$1$2$    ",
"  3$4$5$6$9#7$8$9$0$a$^$b$c$d$e$  f$g$h$i$j$k$l$m$n$o$p$q$r$    ",
"  s$1#t$  u$v$w$x$y$&$&$z$A$B$C$|#D$E$y$r#y$F$G$z$H$I$t$W J$    "};
