/* XPM */
static char * devhelp_debian_xpm[] = {
"32 32 287 2",
"  	c None",
". 	c #000000",
"+ 	c #010000",
"@ 	c #210200",
"# 	c #5C0200",
"$ 	c #650000",
"% 	c #630000",
"& 	c #620000",
"* 	c #600000",
"= 	c #5F0000",
"- 	c #5E0000",
"; 	c #5C0000",
"> 	c #5B0000",
", 	c #590000",
"' 	c #580000",
") 	c #560000",
"! 	c #440402",
"~ 	c #150807",
"{ 	c #030000",
"] 	c #3F0300",
"^ 	c #780200",
"/ 	c #8A0000",
"( 	c #880000",
"_ 	c #860000",
": 	c #840000",
"< 	c #810000",
"[ 	c #7F0000",
"} 	c #7C0000",
"| 	c #7A0000",
"1 	c #780000",
"2 	c #750000",
"3 	c #730000",
"4 	c #6B0100",
"5 	c #4E312E",
"6 	c #4B4949",
"7 	c #250200",
"8 	c #680400",
"9 	c #990000",
"0 	c #980000",
"a 	c #950000",
"b 	c #930000",
"c 	c #900000",
"d 	c #8E0000",
"e 	c #8C0000",
"f 	c #870000",
"g 	c #850000",
"h 	c #820000",
"i 	c #800000",
"j 	c #720201",
"k 	c #522825",
"l 	c #888888",
"m 	c #4C4C4C",
"n 	c #050100",
"o 	c #340400",
"p 	c #8A0200",
"q 	c #A30100",
"r 	c #A30000",
"s 	c #A10000",
"t 	c #9E0000",
"u 	c #9C0000",
"v 	c #970000",
"w 	c #940000",
"x 	c #920000",
"y 	c #8B0000",
"z 	c #591F1C",
"A 	c #7B7676",
"B 	c #7C7C7C",
"C 	c #4F4F4F",
"D 	c #1B0200",
"E 	c #6C0400",
"F 	c #AC0100",
"G 	c #B20000",
"H 	c #B00000",
"I 	c #AE0000",
"J 	c #AB0000",
"K 	c #A90000",
"L 	c #A70000",
"M 	c #A40000",
"N 	c #A20000",
"O 	c #9F0000",
"P 	c #9D0000",
"Q 	c #9A0000",
"R 	c #900100",
"S 	c #621410",
"T 	c #7D7C7C",
"U 	c #808080",
"V 	c #757575",
"W 	c #474747",
"X 	c #3F0100",
"Y 	c #900200",
"Z 	c #BD0100",
"` 	c #BE0000",
" .	c #BB0000",
"..	c #B90000",
"+.	c #B60000",
"@.	c #B40000",
"#.	c #B10000",
"$.	c #AF0000",
"%.	c #AC0000",
"&.	c #AA0000",
"*.	c #A80000",
"=.	c #A60000",
"-.	c #720E0B",
";.	c #776867",
">.	c #7E7E7E",
",.	c #767676",
"'.	c #6B6B6B",
").	c #212121",
"!.	c #130000",
"~.	c #430000",
"{.	c #890000",
"].	c #830000",
"^.	c #4A2C2C",
"/.	c #797979",
"(.	c #7A7A7A",
"_.	c #6F6F6F",
":.	c #1F1F1F",
"<.	c #280000",
"[.	c #9B0000",
"}.	c #C10000",
"|.	c #C20000",
"1.	c #C30000",
"2.	c #C40000",
"3.	c #522121",
"4.	c #737373",
"5.	c #363636",
"6.	c #2B0000",
"7.	c #AD0000",
"8.	c #D70000",
"9.	c #D80000",
"0.	c #572020",
"a.	c #383838",
"b.	c #020202",
"c.	c #592121",
"d.	c #030303",
"e.	c #270000",
"f.	c #CA0000",
"g.	c #C90000",
"h.	c #390303",
"i.	c #181818",
"j.	c #160000",
"k.	c #740000",
"l.	c #720000",
"m.	c #710000",
"n.	c #6F0000",
"o.	c #6E0000",
"p.	c #6D0000",
"q.	c #6C0000",
"r.	c #6B0000",
"s.	c #6A0000",
"t.	c #690202",
"u.	c #690303",
"v.	c #331818",
"w.	c #4A4A4A",
"x.	c #1D0505",
"y.	c #300000",
"z.	c #260100",
"A.	c #070000",
"B.	c #150000",
"C.	c #410200",
"D.	c #960200",
"E.	c #960000",
"F.	c #910000",
"G.	c #7D0201",
"H.	c #502422",
"I.	c #707070",
"J.	c #545454",
"K.	c #340202",
"L.	c #600100",
"M.	c #432725",
"N.	c #212020",
"O.	c #020000",
"P.	c #470000",
"Q.	c #890100",
"R.	c #7E0000",
"S.	c #7D0000",
"T.	c #5C1210",
"U.	c #766E6D",
"V.	c #7F7F7F",
"W.	c #727272",
"X.	c #626262",
"Y.	c #1D1212",
"Z.	c #570100",
"`.	c #4A1613",
" +	c #848383",
".+	c #373737",
"++	c #B30000",
"@+	c #B50000",
"#+	c #B80000",
"$+	c #BA0000",
"%+	c #760F0F",
"&+	c #5F5D5D",
"*+	c #747474",
"=+	c #686868",
"-+	c #1C0909",
";+	c #5A0100",
">+	c #561F1D",
",+	c #848180",
"'+	c #717171",
")+	c #303030",
"!+	c #890202",
"~+	c #D20303",
"{+	c #D20404",
"]+	c #D30303",
"^+	c #D30404",
"/+	c #D30202",
"(+	c #D30101",
"_+	c #820F0F",
":+	c #605E5E",
"<+	c #6C6C6C",
"[+	c #262222",
"}+	c #580100",
"|+	c #5D0804",
"1+	c #797473",
"2+	c #2F2F2F",
"3+	c #8C0303",
"4+	c #D80707",
"5+	c #D90808",
"6+	c #D90909",
"7+	c #D80606",
"8+	c #D80909",
"9+	c #881313",
"0+	c #585656",
"a+	c #2A2020",
"b+	c #510000",
"c+	c #6E110E",
"d+	c #766A69",
"e+	c #777777",
"f+	c #676767",
"g+	c #202020",
"h+	c #890707",
"i+	c #D50606",
"j+	c #D50808",
"k+	c #D40707",
"l+	c #D40606",
"m+	c #D40505",
"n+	c #D40404",
"o+	c #800909",
"p+	c #211E1E",
"q+	c #660000",
"r+	c #594644",
"s+	c #868686",
"t+	c #292929",
"u+	c #690101",
"v+	c #A20101",
"w+	c #A10303",
"x+	c #A00404",
"y+	c #9E0303",
"z+	c #9E0404",
"A+	c #9D0303",
"B+	c #9D0404",
"C+	c #9C0303",
"D+	c #9B0202",
"E+	c #9B0303",
"F+	c #9A0202",
"G+	c #9A0303",
"H+	c #440000",
"I+	c #3F3A3A",
"J+	c #313131",
"K+	c #240000",
"L+	c #330000",
"M+	c #2D0000",
"N+	c #3C0000",
"O+	c #7B0000",
"P+	c #D30000",
"Q+	c #CB0000",
"R+	c #413B3B",
"S+	c #404040",
"T+	c #060606",
"U+	c #400000",
"V+	c #CF0000",
"W+	c #3F3838",
"X+	c #010101",
"Y+	c #410000",
"Z+	c #C60000",
"`+	c #D20000",
" @	c #211818",
".@	c #0E0E0E",
"+@	c #320000",
"@@	c #2E0000",
"#@	c #230000",
"$@	c #220000",
"%@	c #210000",
"&@	c #200000",
"*@	c #1F0000",
"=@	c #1E0000",
"-@	c #1D0000",
"                                                                ",
"                                                                ",
"                                                                ",
"                              . . . . . + + + + + + + .         ",
"                          @ # $ % & * = - ; > , ' ) ! ~         ",
"                      { ] ^ / ( _ : < [ } | 1 2 3 4 5 6 .       ",
"                    7 8 9 0 a b c d e / f g h i j k l m . .     ",
"                n o p q r s t u 9 v w x c d y ( z A B C . .     ",
"              D E F G H I J K L M N O P Q 0 R S T U V W . .     ",
"            X Y Z `  ...+.@.#.$.%.&.*.=.r s -.;.>.,.'.).. .     ",
"        !.~.g e y {.{.( f g : : ].h < < i [ ^./.(._.:.. . .     ",
"        <.[.}.}.}.|.|.1.1.1.1.1.2.2.2.2.1.2.3.4._.5.. . .       ",
"        6.7.8.8.8.9.8.9.9.9.9.9.9.9.9.8.9.9.0.'.a.b.. .         ",
"        6.7.9.8.9.9.8.8.9.9.9.9.9.9.9.9.9.9.c.W d.. . .         ",
"        e.N f.f.f.f.f.f.f.f.f.f.f.f.g.g.g.g.h.i.d.. . .         ",
"        j.= k.3 l.m.m.n.n.o.p.p.q.r.r.s.t.u.v.w.x.y.z.A.        ",
"    B.C.D.t Q Q 9 v E.a w x F.c d e G.H.>.'.I.J.K.L.M.N.        ",
"  O.P.Q.v w c d y ( _ : h i R.S.} | T.U.V.W.X.Y.Z.`. +.+. .     ",
"  2 H #.++@.@++.#+....$+$+$+$+ . . .%+&+*+=+-+;+>+,+'+)+. .     ",
"  !+~+{+~+]+{+^+]+^+/+^+]+/+(+/+]+/+_+:+<+[+}+|+1+U 4.2+. .     ",
"  3+4+5+6+7+5+6+4+8+7+4+4+7+7+4+7+4+9+0+a+b+c+d+U e+f+g+. .     ",
"  h+i+i+j+k+l+k+m+l+l+m+l+m+m+m+n+n+o+p+6.q+r+s+4.(.t+b.. .     ",
"  u+v+v+w+x+y+y+z+y+A+B+C+D+E+F+G+0 > H+@.++I+4.4.J+. . .       ",
"  K+L+M+N+O+].].: ].g : g _ g : _ f _ @.P+Q+R+/.S+T+. .         ",
"        U+g.9.9.9.9.9.9.9.9.9.9.9.9.9.9.9.V+W+w.X+. .           ",
"        Y+Z+P+`+P+P+P+P+P+P+P+P+P+P+P+P+P+Q+ @.@. . .           ",
"        +@x P P u u [.Q Q 9 9 9 v v v E.a c A.. . .             ",
"          @@@@<.K+K+#@#@$@$@%@%@&@*@*@*@=@-@+ . .               ",
"                                                                ",
"                                                                ",
"                                                                ",
"                                                                "};
