/* XPM */
static char *glade[] = {
/* columns rows colors chars-per-pixel */
"32 32 146 2",
"   c black",
".  c #5A4902",
"X  c #6A643D",
"o  c #6F683E",
"O  c #756D3E",
"+  c #4C4E4B",
"@  c #50524E",
"#  c #545652",
"$  c #565851",
"%  c #585950",
"&  c #5E605C",
"*  c #635F45",
"=  c #686965",
"-  c #6B6E69",
";  c #7E7F7C",
":  c #9B7E03",
">  c #837328",
",  c #917E26",
"<  c #807F6E",
"1  c #9E830D",
"2  c #9B841A",
"3  c #A28504",
"4  c #A48709",
"5  c #A58807",
"6  c #A6890A",
"7  c #A88B0F",
"8  c #A2891B",
"9  c #AA8E13",
"0  c #AC9119",
"q  c #B4970C",
"w  c #B5980C",
"e  c #B0941E",
"r  c #B69A12",
"t  c #B89C15",
"y  c #AF9523",
"u  c #B39924",
"i  c #B59B29",
"p  c #B59D35",
"a  c #BBA228",
"s  c #BBA331",
"d  c #B8A13E",
"f  c #B6A242",
"g  c #B9A448",
"h  c #D5B91C",
"j  c #C1A937",
"k  c #C4AC3D",
"l  c #D7BC20",
"z  c #D9BE24",
"x  c #C0AE5E",
"c  c #CDB745",
"v  c #CCB64B",
"b  c #D1BA4B",
"n  c #D2BD57",
"m  c #C8B668",
"M  c #C9B869",
"N  c #C5B97B",
"B  c #CCBB73",
"V  c #C9BA78",
"C  c #DBC12C",
"Z  c #DDC332",
"A  c #DCC43D",
"S  c #E0C73A",
"D  c #E1C93C",
"F  c #DDC644",
"G  c #DFC94F",
"H  c #D5C057",
"J  c #D6C15B",
"K  c #DBC75D",
"L  c #D9C660",
"P  c #DDC961",
"I  c #DDCA68",
"U  c #E5CD45",
"Y  c #E5CE4A",
"T  c #E4CE50",
"R  c #E1CD5B",
"E  c #E7D050",
"W  c #E3D05E",
"Q  c #E8D154",
"!  c #E8D25A",
"~  c #E0CE6C",
"^  c #E4D26C",
"/  c #E9D564",
"(  c #E9D66B",
")  c #EBD86A",
"_  c #E3D274",
"`  c #E5D57A",
"'  c #E8D673",
"]  c #E8D77A",
"[  c #ECDA74",
"{  c #EAD97B",
"}  c gray53",
"|  c #878984",
" . c #888A85",
".. c #8B8D89",
"X. c #8D908B",
"o. c #959792",
"O. c #979895",
"+. c #989996",
"@. c #9B9C98",
"#. c #9FA29B",
"$. c #A1A39F",
"%. c #A5A6A3",
"&. c #ABACA9",
"*. c #B4B4B2",
"=. c #B4B8B0",
"-. c #BBBFB7",
";. c #BCBCBA",
":. c #BFC0BD",
">. c #CCBF83",
",. c #D1C592",
"<. c #C1C4BF",
"1. c #C4C8BF",
"2. c #D8CFA9",
"3. c #D3CFB1",
"4. c #DAD3B1",
"5. c #DCD5B8",
"6. c #E6D782",
"7. c #E8D780",
"8. c #EBDB83",
"9. c #EEDE89",
"0. c #EFE08C",
"q. c #F0E18E",
"w. c #F0E290",
"e. c #C3C4C1",
"r. c #CACBC7",
"t. c #CBCDCA",
"y. c #CED1CB",
"u. c #D0D1CF",
"i. c #DCDCCE",
"p. c #D3D3D1",
"a. c #DADCD3",
"s. c #DADBD9",
"d. c #DEE0DB",
"f. c #E2DEC9",
"g. c #E5E2D2",
"h. c #E3E3DC",
"j. c #E8E7DE",
"k. c #EEEAD9",
"l. c #E6E6E4",
"z. c #EAE9E3",
"x. c #ECEDEA",
"c. c #EFF0ED",
"v. c #F5F5F4",
"b. c #F8F8F6",
"n. c #FDFDFD",
"m. c None",
/* pixels */
"m.m.m.m.m.m.m.m.m.m.m.m.m.m.m.m.m.m.m.m.m.m.m.m.m.m.m.m.m.m.m.m.",
"m.m.m.m.m.m.m.m.m.m.m.m.m.m.m.m.m.m.m.m.m.m.m.m.m.m.m.m.m.m.m.m.",
"m.m.m.m.m.m.} ...... .}  ... . . ... . ... . ... ... . . ...m.m.",
"m.m.m.m.m. ...&.+.b.b.v.b.b.b.b.b.b.b.b.b.b.b.b.b.b.b.b.b. .m.m.",
"m.m.m.m. .X.y.1.;.x.x.x.x.x.x.x.x.x.x.x.x.x.x.x.x.x.x.x.b. .m.m.",
"m.m.m. .X.1.x.;.r.x.x.x.x.x.x.x.x.x.x.x.x.x.x.x.x.x.r.x.b. .m.m.",
"m.m. ...:.s.v.r.r.x.x.x.x.x.x.x.x.x.x.x.x.x.x.x.x.x.# x.b. .m.m.",
"m.m...#.a.x.n.t.= # # # # # # # # # # # # # # # # # # # b. .m.3 ",
"m. . .=.t.d.l.<.O.;.<.e.e.e.e.e.e.:.e.e.e.e.e.e.e.e.# x.b. .6 3 ",
"m...X.@.O.- O.+.&.p.s.s.s.s.s.s.s.s.s.s.s.s.s.s.s.s.# x.k.8 k 5 ",
"m. .v.x.%.# @ + + # # # # # # # # # # # # # # # # # # o 9 J q.3 ",
"m. .b.x.x.# x.x.x.x.x.x.x.x.x.x.x.x.x.x.x.x.x.x.x.x.> 0 ` [ q.5 ",
"m. .n.x.x.# x.*.; *.x.x.x.x.x.x.x.x.x.x.x.x.x.x.g.p a 9./ U q.6 ",
"m. .b.x.x.# x.; ;.; x.}  . . .#.;.p.x.x.x.x.x.4.9 n q.Q Y U q.5 ",
"m. .b.x.x.# x.*.; *.x.x.x.x.x.x.x.x.x.x.x.x.B e _ [ E Q 8.U q.5 ",
"m. .b.x.x.# x.x.x.x.x.x.x.x.x.x.x.x.x.x.j.p s 8.) Y ! q.q.U q.5 ",
"m.} b.x.x.# x.*.; *.x.x.x.x.x.x.x.x.x.5.0 v 0.! Y [ ] a w.Y q.5 ",
"m.} b.x.x.# x.; ;.; x. .o.&.r.s.x.x.>.9 I { Y E 8.I 7 6 w.Y q.5 ",
"m. .b.x.x.# x.*.; *.x.x.x.x.x.x.l.f i ` / D ! 9.c 9 X 6 q.U q.5 ",
"m. .n.x.x.# x.x.x.x.x.x.x.= # * : c { T D ( ` i f i.% 6 q.Y q.5 ",
"m. .b.x.x.# x.x.x.x.x.x.x.# ,.9 n ] A U ] K 9 N h.s.% 5 q.U q.5 ",
"m. .b.x.x.# x.x.x.x.x.x.z., 0 ~ R Z Y ] k 0 3.h.d.s.% 5 q.U q.5 ",
"m. .b.x.x.# x.c.c.c.x.f.y j ' F C W _ u g a.s.s.d.a.% 3 q.U q.5 ",
"m. .n.x.v.# $ & & % O 4 b ~ Z C ^ n 7 V a.a.a.a.a.a.% 5 q.U q.5 ",
"m. .n.x.x.l.l.l.l.g u P R l A _ k 6 6 7 6 6 6 5 4 4 3 3 9.U 0.5 ",
"m. .b.x.x.x.x.g.i s _ F l G ' ] ' ] ] ] ] 8.] 8.8.8.0.9.9.D 0.5 ",
"m. .b.x.x.x.2.9 c ^ z h h h h h h z z z C C C C C Z Z D D D 0.3 ",
"m. .b.b.b.B 9 K P t l h h q h h w h h l q z C C r C Z Z t Z 9.5 ",
"m.} ; g 2 u I ` _ m _ _ _ m _ _ M _ _ _ m ` ` ` m 6.7.8.M 6.8.4 ",
"m.  . : 3 3 3 3 3 3 3 3 3 3 3 3 3 3 3 3 3 3 3 3 3 3 3 3 3 3 3 3 ",
"m.m.                                                            ",
"m.m.m.m.m.m.m.m.m.m.m.m.m.m.m.m.m.m.m.m.m.m.m.m.m.m.m.m.m.m.m.m."
};
