/* XPM */
static char *gsearchtool.xpm[] = {
/* columns rows colors chars-per-pixel */
"32 32 92 1",
"  c #001700170017",
". c #080708070809",
"X c #081407A20714",
"o c #0C030C000BFB",
"O c #005B0632119B",
"+ c #1462145F1459",
"@ c #1C261C051BCF",
"# c #2276208E1E97",
"$ c #245C244C2429",
"% c #28702820277F",
"& c #2C792C792C74",
"* c #315D2DB22C64",
"= c #343F33B733AC",
"- c #3A91373335BC",
"; c #3BA43B8C3B90",
": c #44EF3EF33D86",
"> c #445B40C73DA9",
", c #4AFD427C3EB5",
"< c #448C445F4404",
"1 c #4A8447AD46D6",
"2 c #497648D04828",
"3 c #4C194BF64BD0",
"4 c #538E49F3431D",
"5 c #5AA951B64A22",
"6 c #551A550754E5",
"7 c #5CE05CEB5C68",
"8 c #5FD360526111",
"9 c #62ED5A0255AA",
"0 c #651A62925D94",
"q c #6BDB6263597D",
"w c #64D664AF6440",
"e c #6D3E6D216CE0",
"r c #74CD6CC2631C",
"t c #72426ED76BA6",
"y c #79DB6E54638D",
"u c #77CA712C6796",
"i c #755F70CA6D89",
"p c #7AE1761B6D0B",
"a c #73A27357732E",
"s c #7B1D776B73BF",
"d c #7AD979BB7752",
"f c #7D8D7CBD7C64",
"g c #81AC7172632E",
"h c #854777B569F9",
"j c #808778AE6E3C",
"k c #83367FC27AC2",
"l c #852A816B7EFD",
"z c #8CDD88828010",
"x c #91A9831975B3",
"c c #A56893147E03",
"v c #861E85AA8552",
"b c #89BF881A8666",
"n c #8E6E8ABB84A3",
"m c #8E0F8D5C8C58",
"M c #97598E2680C1",
"N c #93168ECD8BAC",
"B c #987995088C0E",
"V c #9A1F9221886B",
"C c #9630962395FA",
"Z c #978A985998E2",
"A c #99BB96D09569",
"S c #9B749B3A9B17",
"D c #A55F952F8168",
"F c #A8A99BD88E6B",
"G c #AC28A1B38EF9",
"H c #AA69A140971B",
"J c #BC0DAB14933D",
"K c #A599A545A53C",
"L c #A530A7D8A92C",
"P c #A90AA6D7A48F",
"I c #AB3BAB3BAB3B",
"U c #B27CAC89A381",
"Y c #B1D7B16BB049",
"T c #B9F2B16BA80E",
"R c #BD45B67CAB24",
"E c #B4D4B495B443",
"W c #B9E3B895B894",
"Q c #BBE2BBDCBBCC",
"! c #C6D7B37898F0",
"~ c #CD1CBAD5A0BF",
"^ c #CB17C3FAB7FD",
"/ c #D229C78BB960",
"( c #C4E6C356C302",
") c #CCBACCA0CC68",
"_ c #DEF6D420C4EB",
"` c #E0B5DAEDCBB1",
"' c #DD44DCF5DC55",
"] c #E7C3E796E756",
"[ c #E9F0E9A7E9AC",
"{ c #F562F569F53A",
"} c #FEECFED9FECC",
"| c None",
/* pixels */
"||||||||||||||||||||||||||||||||",
"||||||||||||||||||||           |",
"|||||||||||||||||||             ",
"||||||||||||||||                ",
"|||||||||||||||                 ",
"|||QLLE|||||||                  ",
"|QISvaw;;|||                    ",
"WSbvke2--:|                     ",
"EdaCSCNy,,*        X            ",
"SemZZCKTh4-X    o@=$o          |",
"tfSZZSSEUy5#   +3Ca>+         ||",
"pbSZSSSKEVq,o %b'{)d@         ||",
"svSSZSSKPPxg-7)}}}{a+        |||",
"tvSZZZSLKAFcH[}}}}Q&        ||||",
"pBSCCZSPKfM!_}}}}]3X       |||||",
"HNZvvbSLKwr~_}}}{vo      |||||||",
"`BvdaavKPw0J^}}{Z@      ||||||||",
"^p8e678bPfucT}[C$         ||||||",
"Su26876wmSnlvEa$           |||||",
"Bf2<8078aSzlbw%.            ||||",
"|l6-6ww8wvltd6%$@+           |||",
"|Ka2:6efefs063=--%+.          ||",
"||C9:;6fva087332<<=#+         ||",
"||||2;3ilw6|||0w62<=%+o        |",
"|||||||||||||||Z7633<=$+X      |",
"|||||||||||||||||ew663-%@X      ",
"||||||||||||||||||ve863<&#o     ",
"|||||||||||||||||||8fe63>=%+.   ",
"||||||||||||||||||||(lw6<23;@   ",
"||||||||||||||||||||||f86<62@   ",
"||||||||||||||||||||||||e2--@  |",
"||||||||||||||||||||||||||||||||"
};
