/* XPM */
static char * crunchyfrog_xpm[] = {
"24 24 68 1",
" 	c None",
".	c #0D0D0D",
"+	c #595959",
"@	c #040404",
"#	c #7F7F7F",
"$	c #FFFFFF",
"%	c #707070",
"&	c #666666",
"*	c #000000",
"=	c #0C0C0C",
"-	c #1C1C1C",
";	c #0B0B0B",
">	c #070707",
",	c #6E6E6E",
"'	c #696969",
")	c #6D6D6D",
"!	c #555555",
"~	c #101010",
"{	c #2E2E2E",
"]	c #E1E1E1",
"^	c #1D1D1D",
"/	c #020D00",
"(	c #082800",
"_	c #0E4800",
":	c #114F00",
"<	c #0C3E00",
"[	c #051600",
"}	c #030C00",
"|	c #020B00",
"1	c #092D00",
"2	c #1A8100",
"3	c #1C8A00",
"4	c #146400",
"5	c #030F00",
"6	c #282828",
"7	c #EEEEEE",
"8	c #D0D0D0",
"9	c #1B1B1B",
"0	c #020C00",
"a	c #0D4200",
"b	c #1A7E00",
"c	c #041200",
"d	c #0F0F0F",
"e	c #1E1E1E",
"f	c #061F00",
"g	c #176D00",
"h	c #020E00",
"i	c #156700",
"j	c #061E00",
"k	c #125D00",
"l	c #020A00",
"m	c #041100",
"n	c #115600",
"o	c #030E00",
"p	c #0C3A00",
"q	c #104E00",
"r	c #041300",
"s	c #1A7F00",
"t	c #0F4A00",
"u	c #051700",
"v	c #115500",
"w	c #104F00",
"x	c #1C8500",
"y	c #187500",
"z	c #082A00",
"A	c #010B00",
"B	c #031300",
"C	c #041000",
"                        ",
"   .++++++@             ",
"   #$$$$$$%             ",
"   #$$$$$$&*********    ",
"   #$$$$$$%        *    ",
"   #$$$$$$%        *    ",
"   =------;        *    ",
"               >,,,'),!~",
"               {$$$$$$]^",
"               {$$$$$$]^",
"    /(_:<[}    {$$$$$$]^",
"  |123333345   677777789",
" 0a33333333bc  deeeeee9d",
" f3333333333g5          ",
"hi33333333333j          ",
"/333333333333_          ",
"c333333333333kl         ",
"m333333333333n          ",
"o233333333333p          ",
" q33333333333r          ",
" cs333333333t           ",
"  ub3333333v}           ",
"   hwx333yzA            ",
"    l/B[Co              "};
