/* XPM */
static char *avidemux_icon[] = {
/* columns rows colors chars-per-pixel */
"32 32 110 2",
"   c #020202",
".  c #0B0B0B",
"X  c #100F0A",
"o  c #13120D",
"O  c #131313",
"+  c #1D1C17",
"@  c #1D1C1C",
"#  c #201E1A",
"$  c #23221D",
"%  c #232323",
"&  c #282722",
"*  c #2B2A25",
"=  c #2D2D2B",
"-  c #302F2A",
";  c #34332E",
":  c #353433",
">  c #3B3A36",
",  c #3B3B3B",
"<  c #403F3A",
"1  c #43423D",
"2  c #444443",
"3  c #484742",
"4  c #4D4D4B",
"5  c #53524E",
"6  c #545453",
"7  c #585757",
"8  c #5A5956",
"9  c #5F5F5F",
"0  c #64635E",
"q  c #636362",
"w  c #696863",
"e  c #6B6B6B",
"r  c #73736F",
"t  c #747373",
"y  c #7C7B75",
"u  c #7D7D7D",
"i  c #83827E",
"p  c #CFB679",
"a  c #DBB961",
"s  c #FDD90F",
"d  c #FDDC16",
"f  c #FACE2A",
"g  c #F9D820",
"h  c #FEED0E",
"j  c #FEEA19",
"k  c #EAD04C",
"l  c #F3D25E",
"z  c #E3C278",
"x  c #FAC86B",
"c  c #F9D365",
"v  c #FDD372",
"b  c #FEEE7A",
"n  c #858585",
"m  c #888785",
"M  c #8A8985",
"N  c #8D8D8C",
"B  c #908F8C",
"V  c #9D9A87",
"C  c #949493",
"Z  c #9C9B9B",
"A  c #A4A4A4",
"S  c #A8A7A7",
"D  c #ADADAD",
"F  c #AFAFB0",
"G  c #B5AAAB",
"H  c #B2B1AE",
"J  c #B2B2B2",
"K  c #BFB3B5",
"L  c #BFBCB0",
"P  c #BCBCBC",
"I  c #C0BEBD",
"U  c #D5C8B4",
"Y  c #EAD38F",
"T  c #F6DC8E",
"R  c #FBDF98",
"E  c #ECD5A1",
"W  c #F9E18B",
"Q  c #FCEA9C",
"!  c #FEF286",
"~  c #FAE7A0",
"^  c #FBEBA6",
"/  c #FCEBAF",
"(  c #FBE6B7",
")  c #C5C5C4",
"_  c #CAC9C7",
"`  c #CCCCCC",
"'  c #D2D1CA",
"]  c #DCD2C3",
"[  c #DAD4CC",
"{  c #D5D5D5",
"}  c #D6D6D8",
"|  c #DCDBDB",
" . c #DEDFE0",
".. c #E9DDC1",
"X. c #E4DFD7",
"o. c #E0DFDF",
"O. c #E0DEE0",
"+. c #E2E0DC",
"@. c #F1E5DA",
"#. c #E4E3E4",
"$. c #E8E7E8",
"%. c #E8E8E7",
"&. c #ECECEC",
"*. c #EFF0F3",
"=. c #F0EEEF",
"-. c #F0EFF0",
";. c #FCF4EE",
":. c #F3F3F3",
">. c #FEFCF5",
",. c #FEFEFE",
/* pixels */
"% = @ @ = % = = % % % % = .                   . * = @ , % @ % @ ",
"% 7 7 % , 7 6 , , 7 4 @ = = @     % @     % @ . = 9 4 , : 4 7 , ",
"+ I C   O J C   . J A . O J A   . J Z . O ) Z   . S A . . S S . ",
"+ } A   @ ) S   O ) J . O ) F . . ) D . O { F . O P J . . P P O ",
"O i q . O u q . O t r o O y e . O t e o O u e . O r e o O t t . ",
"2 S F F F F F F J D F F J D D J J J D J F F D J F F F F F F S 2 ",
"9 :.,.,.,.,.,.,.,.,.,.,.,.,.,.,.,.,.,.,.,.,.,.,.,.,.,.,.,.,.*.9 ",
"9 :.,.,.,.,.,.,.,.,.,.,.,.,.,.,.,.,.,.,.,.,.,.,.,.,.,.,.,.,.*.9 ",
"9 :.,.,.,.,.,.,.,.,.,.,.,.,.,.,.,.,.,.,.,.,.,.,.,.,.,.,.,.,.:.9 ",
"9 :.,.,.,.,.,.,.,.,.,.,.,.,.,.,.,.,.,.,.,.,.{ i C P ,.,.,.,.:.9 ",
"9 :.,.,.,.,.,.,.:.} ` { -.,.,.,.,.,.,.,.>._ r * * 8 %.,.,.,.:.9 ",
"9 :.,.,.,.,.,.| S Z Z m C } ,.,.,.,.,.+.n N ' i ; 1 ` ,.,.,.:.9 ",
"9 :.,.,.,.,.#.C S A e e q t | ,.,.=.) H r > 8 5 ; 1 P ,.,.,.:.9 ",
"9 :.,.,.,.,.Z C { Z n N 7 , n :.} N 3 i i ; ; 8 A | ,.,.,.,.:.9 ",
"9 :.,.,.,.$.7 u P V L F u = , J C ) w $ = 8 D %.,.,.,.,.,.,.:.q ",
"9 :.,.,.,._ = 7 _ k a ` Z % . u r > = 4 S &.,.,.,.,.,.,.,.,.:.9 ",
"9 -.,.,.:.t = _ >.l p *.:.B . % e 5 r r S A M A Z Z { ,.,.,.:.9 ",
"9 -.,.,.O.t C :.,...+.:.&.| 7 , B H M r _ V M ) 0 1 0 | ,.,.:.9 ",
"9 :.,.,.,.&.$.:.:.:.:.-.$.o.S P I 1 ; 8 y 0 M B 1 5 0 +.,.,.:.9 ",
"9 :.,.,.,.,.-.$.&.-.%.#.o.} ` =.I ; - > 1 1 < < ; < 8 &.,.,.:.9 ",
"9 :.,.,.,.,.:.o.+.+. .| ] U [ ,.G $ * * ; ; ; ; = = 6 &.,.,.:.9 ",
"9 :.,.,.,.,.( c T E ] Y T c x >.G # + $ $ * $ * $ # 4 &.,.,.:.9 ",
"9 :.,.,.,.,.Q d j f z d h d v >.{ i 5 * $ + # $ + o 3 &.,.,.:.9 ",
"9 :.,.,.,.,.;./ ! ~ @.~ b ^ ;.,.,.,.&._ B 8 = + o X 8 &.,.,.:.9 ",
"9 :.,.,.,.,.,.,.,.,.,.,.,.,.,.,.,.,.,.,.,.:.{ Z 0 M | ,.,.,.:.9 ",
"9 :.,.,.,.,.,.,.,.,.,.,.,.,.,.,.,.,.,.,.,.,.,.,.,.,.,.,.,.,.:.q ",
": n n u n n n n u n m u u m n u i n m n u m n u u n n n u n n : ",
"O N e   . n e   . n y   . n t . . n t   . N r   . y u   . u y . ",
"@ } A   O _ A   O ) J . O ) J . . ) D . O { S . . P J . . P P . ",
"@ P C   O D C . . F A . O D Z   . F Z   O P Z   . A A . . A S . ",
"  O .     O .     O O % = % O     O O     O O     O @ @ = : @   ",
"                      @ = .                           @ , :     "
};
