/* XPM */
static char * fotowall_xpm[] = {
"32 32 682 2",
"  	c None",
". 	c #588568",
"+ 	c #5D896F",
"@ 	c #628B75",
"# 	c #2E6132",
"$ 	c #2D6734",
"% 	c #36763F",
"& 	c #458551",
"* 	c #518E60",
"= 	c #5C936B",
"- 	c #6D9772",
"; 	c #658C6F",
"> 	c #618773",
", 	c #559374",
"' 	c #589476",
") 	c #668B78",
"! 	c #4A644C",
"~ 	c #47624C",
"{ 	c #4A624F",
"] 	c #388745",
"^ 	c #2A903A",
"/ 	c #3A9A41",
"( 	c #77AD45",
"_ 	c #529712",
": 	c #79AE22",
"< 	c #79A646",
"[ 	c #4B9054",
"} 	c #549764",
"| 	c #4F8362",
"1 	c #588E73",
"2 	c #5C9271",
"3 	c #5C9367",
"4 	c #5B925B",
"5 	c #5F9950",
"6 	c #477140",
"7 	c #558255",
"8 	c #49694F",
"9 	c #101713",
"0 	c #070A08",
"a 	c #010201",
"b 	c #000000",
"c 	c #0C0E0D",
"d 	c #3A8A46",
"e 	c #218F30",
"f 	c #3E9D3D",
"g 	c #57981E",
"h 	c #51A004",
"i 	c #80B816",
"j 	c #7FB039",
"k 	c #358F37",
"l 	c #399A41",
"m 	c #417C4F",
"n 	c #58875F",
"o 	c #4E7C46",
"p 	c #527F3A",
"q 	c #55862D",
"r 	c #3C641A",
"s 	c #3E5E0B",
"t 	c #6D9513",
"u 	c #589211",
"v 	c #4C840D",
"w 	c #284B06",
"x 	c #426B33",
"y 	c #8CBE6A",
"z 	c #324312",
"A 	c #0C1005",
"B 	c #3C4E13",
"C 	c #677A2D",
"D 	c #080A07",
"E 	c #428C4D",
"F 	c #238C2C",
"G 	c #64A93E",
"H 	c #43920A",
"I 	c #66AB0A",
"J 	c #7EB814",
"K 	c #448C1D",
"L 	c #339038",
"M 	c #36973E",
"N 	c #4B7D59",
"O 	c #58883D",
"P 	c #4E7F0E",
"Q 	c #4C7A10",
"R 	c #426E0D",
"S 	c #497512",
"T 	c #3A670B",
"U 	c #39580C",
"V 	c #6F900F",
"W 	c #5C980E",
"X 	c #467A0C",
"Y 	c #46742A",
"Z 	c #517C51",
"` 	c #38670C",
" .	c #6C9029",
"..	c #6A8A28",
"+.	c #3C6212",
"@.	c #8CB437",
"#.	c #141D06",
"$.	c #498C52",
"%.	c #37902E",
"&.	c #659C2A",
"*.	c #3C8E06",
"=.	c #77B20E",
"-.	c #7FB424",
";.	c #24781B",
">.	c #2B8B31",
",.	c #2E9139",
"'.	c #548266",
").	c #60964B",
"!.	c #4F8110",
"~.	c #4A7D0F",
"{.	c #477910",
"].	c #40700E",
"^.	c #5E8E1F",
"/.	c #526F22",
"(.	c #203E05",
"_.	c #426005",
":.	c #63990C",
"<.	c #4E8421",
"[.	c #425F50",
"}.	c #77AA68",
"|.	c #42700C",
"1.	c #2B5007",
"2.	c #518414",
"3.	c #487310",
"4.	c #35520D",
"5.	c #293B0A",
"6.	c #75A261",
"7.	c #5F922C",
"8.	c #2A730A",
"9.	c #398805",
"0.	c #77AF0B",
"a.	c #8CB537",
"b.	c #1A751C",
"c.	c #22842A",
"d.	c #288A33",
"e.	c #547E67",
"f.	c #639A54",
"g.	c #4C820E",
"h.	c #558D13",
"i.	c #5F931A",
"j.	c #567F1C",
"k.	c #3E5F16",
"l.	c #406C0B",
"m.	c #4A7A10",
"n.	c #345C08",
"o.	c #243E03",
"p.	c #5A8414",
"q.	c #527160",
"r.	c #87BC74",
"s.	c #90C440",
"t.	c #283E0B",
"u.	c #2E490A",
"v.	c #3D7403",
"w.	c #0C2101",
"x.	c #030900",
"y.	c #85A55F",
"z.	c #38770B",
"A.	c #1D6E04",
"B.	c #549606",
"C.	c #549408",
"D.	c #48831F",
"E.	c #126F18",
"F.	c #187B22",
"G.	c #298737",
"H.	c #4E7460",
"I.	c #66965C",
"J.	c #4E7815",
"K.	c #466D14",
"L.	c #375F0A",
"M.	c #426F0A",
"N.	c #507E12",
"O.	c #598E11",
"P.	c #548710",
"Q.	c #4A7C0E",
"R.	c #35590D",
"S.	c #183006",
"T.	c #5F7E6D",
"U.	c #8DC07B",
"V.	c #89C430",
"W.	c #69902D",
"X.	c #6E9827",
"Y.	c #507A0F",
"Z.	c #477611",
"`.	c #202B17",
" +	c #64825B",
".+	c #095704",
"++	c #257302",
"@+	c #5F9806",
"#+	c #2F7B04",
"$+	c #5D9728",
"%+	c #0E6B15",
"&+	c #11731C",
"*+	c #2F863E",
"=+	c #446352",
"-+	c #659263",
";+	c #43730C",
">+	c #528610",
",+	c #568D11",
"'+	c #5C9214",
")+	c #50870F",
"!+	c #598F12",
"~+	c #52870F",
"{+	c #508012",
"]+	c #32550B",
"^+	c #386108",
"/+	c #65846C",
"(+	c #92C099",
"_+	c #A2D094",
":+	c #B2D8AC",
"<+	c #BAC6AE",
"[+	c #B2BEAB",
"}+	c #B7C5B2",
"|+	c #C1CEB8",
"1+	c #84A47D",
"2+	c #125C02",
"3+	c #266D02",
"4+	c #569004",
"5+	c #276C04",
"6+	c #548D23",
"7+	c #04620E",
"8+	c #086A15",
"9+	c #3A8949",
"0+	c #729F72",
"a+	c #48760F",
"b+	c #4C7E10",
"c+	c #59970F",
"d+	c #518213",
"e+	c #538E10",
"f+	c #538A10",
"g+	c #568C12",
"h+	c #3E6610",
"i+	c #4C7E0D",
"j+	c #50860C",
"k+	c #6D8F6B",
"l+	c #92BBA3",
"m+	c #9FBEAC",
"n+	c #BDD7C8",
"o+	c #C2CDC2",
"p+	c #C0CABD",
"q+	c #C0CCBE",
"r+	c #C8D4C0",
"s+	c #8FAB8C",
"t+	c #115402",
"u+	c #457D03",
"v+	c #317103",
"w+	c #2E6A09",
"x+	c #2E6F11",
"y+	c #005809",
"z+	c #02610E",
"A+	c #468E55",
"B+	c #76A080",
"C+	c #42710C",
"D+	c #558C12",
"E+	c #487313",
"F+	c #48790F",
"G+	c #508812",
"H+	c #538514",
"I+	c #426D10",
"J+	c #4F8310",
"K+	c #568D0D",
"L+	c #46760D",
"M+	c #6D9168",
"N+	c #81AD93",
"O+	c #99BEA8",
"P+	c #AECCBB",
"Q+	c #6A9D72",
"R+	c #5A8058",
"S+	c #496648",
"T+	c #3E6A38",
"U+	c #265720",
"V+	c #145102",
"W+	c #4A7704",
"X+	c #1C5A02",
"Y+	c #376E11",
"Z+	c #306915",
"`+	c #004E03",
" @	c #005507",
".@	c #4F8D5C",
"+@	c #84AC91",
"@@	c #447410",
"#@	c #3E6A0C",
"$@	c #528810",
"%@	c #54880F",
"&@	c #4E840D",
"*@	c #4D7E0F",
"=@	c #52860E",
"-@	c #54890E",
";@	c #4C7C0E",
">@	c #42740A",
",@	c #729767",
"'@	c #8BAF99",
")@	c #76B085",
"!@	c #56865D",
"~@	c #3A5F3B",
"{@	c #1D4C1B",
"]@	c #0A3A04",
"^@	c #205102",
"/@	c #386503",
"(@	c #164E02",
"_@	c #2A5A0C",
":@	c #245A0C",
"<@	c #004301",
"[@	c #004801",
"}@	c #588961",
"|@	c #87A490",
"1@	c #476F1A",
"2@	c #487D0E",
"3@	c #518911",
"4@	c #669420",
"5@	c #709835",
"6@	c #7C974D",
"7@	c #90A564",
"8@	c #9EAC79",
"9@	c #B3B898",
"0@	c #CAC9B8",
"a@	c #B1CCB9",
"b@	c #A3C9B1",
"c@	c #A2BEAD",
"d@	c #A0BCAB",
"e@	c #AECDBB",
"f@	c #B4D4C1",
"g@	c #B4D7C0",
"h@	c #A0C39F",
"i@	c #81AB7D",
"j@	c #5C845B",
"k@	c #618945",
"l@	c #2C5B1C",
"m@	c #013701",
"n@	c #003A00",
"o@	c #62876A",
"p@	c #827336",
"q@	c #A88E57",
"r@	c #ACAE8F",
"s@	c #C2C2A0",
"t@	c #D4CAB8",
"u@	c #D9C8C0",
"v@	c #CDBDB6",
"w@	c #C9B9B4",
"x@	c #C9BAB4",
"y@	c #DBCCC5",
"z@	c #DBCFC8",
"A@	c #E2D7D3",
"B@	c #C5DDCF",
"C@	c #90B7A0",
"D@	c #A8CCB7",
"E@	c #BDE1CB",
"F@	c #BEDECA",
"G@	c #B2D0BE",
"H@	c #C3E4D0",
"I@	c #C2E3CF",
"J@	c #C1E2CE",
"K@	c #C0E0CD",
"L@	c #BEDECB",
"M@	c #BBDAC8",
"N@	c #ACCBB8",
"O@	c #91B69B",
"P@	c #819F8C",
"Q@	c #986C26",
"R@	c #B38650",
"S@	c #C9BCB1",
"T@	c #C2B5AB",
"U@	c #C6B7B0",
"V@	c #CCBBB5",
"W@	c #D5C2BE",
"X@	c #E3CECA",
"Y@	c #E2CAC4",
"Z@	c #D8B6B0",
"`@	c #C7A198",
" #	c #BC988C",
".#	c #95A496",
"+#	c #435B4B",
"@#	c #465F4D",
"##	c #618068",
"$#	c #88A488",
"%#	c #96AA93",
"&#	c #9CA990",
"*#	c #A1A68A",
"=#	c #A0A485",
"-#	c #A1A685",
";#	c #A5AD92",
">#	c #8D978D",
",#	c #BCD8C6",
"'#	c #88A090",
")#	c #A2672B",
"!#	c #B87845",
"~#	c #E0BEA8",
"{#	c #DCAE96",
"]#	c #D59A83",
"^#	c #CC8370",
"/#	c #C16B5A",
"(#	c #B65445",
"_#	c #AC4638",
":#	c #A74235",
"<#	c #9C3C30",
"[#	c #983932",
"}#	c #7C7565",
"|#	c #597E65",
"1#	c #B9C9A8",
"2#	c #C7A552",
"3#	c #E3A335",
"4#	c #F6B83D",
"5#	c #D9BA59",
"6#	c #B6A953",
"7#	c #B0A346",
"8#	c #B0A84A",
"9#	c #B8B35E",
"0#	c #C0C788",
"a#	c #727E6F",
"b#	c #91A898",
"c#	c #6C8072",
"d#	c #A85F2D",
"e#	c #B86434",
"f#	c #C26A3C",
"g#	c #C46840",
"h#	c #C46341",
"i#	c #C25E42",
"j#	c #C4614C",
"k#	c #C55B4E",
"l#	c #C44C47",
"m#	c #C93A41",
"n#	c #D5323E",
"o#	c #DE394B",
"p#	c #AD6D69",
"q#	c #5B7D66",
"r#	c #C3D3B3",
"s#	c #CBD3A4",
"t#	c #D4AE52",
"u#	c #E8A633",
"v#	c #F6B438",
"w#	c #DBAC3C",
"x#	c #A99532",
"y#	c #A69B36",
"z#	c #AFA847",
"A#	c #BCC078",
"B#	c #4D544A",
"C#	c #262F29",
"D#	c #A9542D",
"E#	c #BB5F36",
"F#	c #C5663C",
"G#	c #C76640",
"H#	c #C96C49",
"I#	c #CE6C54",
"J#	c #C64F4A",
"K#	c #C5323A",
"L#	c #CB242E",
"M#	c #E2343C",
"N#	c #EE464F",
"O#	c #ED5965",
"P#	c #C86E70",
"Q#	c #BFD1B2",
"R#	c #C7D1A2",
"S#	c #C4C389",
"T#	c #D3AA48",
"U#	c #EAA934",
"V#	c #F5B236",
"W#	c #D6A02E",
"X#	c #9F8D27",
"Y#	c #A09B31",
"Z#	c #AFB062",
"`#	c #3E3F37",
" $	c #A94A30",
".$	c #BA5936",
"+$	c #C4603D",
"@$	c #C76340",
"#$	c #D27156",
"$$	c #CF5E5A",
"%$	c #B51F28",
"&$	c #C81B29",
"*$	c #DF2F3A",
"=$	c #E93A43",
"-$	c #EC4950",
";$	c #EA535E",
">$	c #D96E72",
",$	c #BCD2B7",
"'$	c #C4D0A5",
")$	c #BDBF87",
"!$	c #B2A75E",
"~$	c #CA9B35",
"{$	c #E7A431",
"]$	c #E8A330",
"^$	c #BC9228",
"/$	c #948A22",
"($	c #B0B363",
"_$	c #565846",
":$	c #A54331",
"<$	c #B65137",
"[$	c #C25B3C",
"}$	c #CF7253",
"|$	c #D97E73",
"1$	c #C02F34",
"2$	c #C51C2A",
"3$	c #D32330",
"4$	c #DC2C37",
"5$	c #E4383E",
"6$	c #E83F43",
"7$	c #E43A3F",
"8$	c #E14F56",
"9$	c #7D8C7D",
"0$	c #C1DBC9",
"a$	c #CAE0C0",
"b$	c #C1CC9C",
"c$	c #AFAE6F",
"d$	c #99853B",
"e$	c #B48226",
"f$	c #CF8E27",
"g$	c #BB8925",
"h$	c #927C1B",
"i$	c #BCCFA6",
"j$	c #737C68",
"k$	c #9F4133",
"l$	c #C36A50",
"m$	c #CE7859",
"n$	c #D16856",
"o$	c #C55E57",
"p$	c #BD2F34",
"q$	c #CA2430",
"r$	c #D62C38",
"s$	c #E24247",
"t$	c #E53D3E",
"u$	c #E53C3C",
"v$	c #E23B3B",
"w$	c #DA302F",
"x$	c #978679",
"y$	c #C4E0D0",
"z$	c #D1EBD6",
"A$	c #CDE1C0",
"B$	c #C2CE9F",
"C$	c #A9A669",
"D$	c #7F6F2D",
"E$	c #805F18",
"F$	c #8A6716",
"G$	c #947F43",
"H$	c #D2F4E8",
"I$	c #7E8E71",
"J$	c #606E63",
"K$	c #9E4B44",
"L$	c #AB4436",
"M$	c #C4664E",
"N$	c #C0644E",
"O$	c #AA4E43",
"P$	c #B43B3C",
"Q$	c #CB3237",
"R$	c #DC393D",
"S$	c #E64140",
"T$	c #EA4846",
"U$	c #E43F38",
"V$	c #DE372E",
"W$	c #D33029",
"X$	c #AB7B6F",
"Y$	c #C6E2D5",
"Z$	c #D6F2E0",
"`$	c #D4ECD6",
" %	c #D0E4C6",
".%	c #C6D3A8",
"+%	c #ADB07A",
"@%	c #87844C",
"#%	c #8F9166",
"$%	c #8C8A78",
"%%	c #D0F6F0",
"&%	c #617849",
"*%	c #6A786C",
"=%	c #88524E",
"-%	c #8D2624",
";%	c #A7382F",
">%	c #B94C38",
",%	c #C55C41",
"'%	c #CC6C4E",
")%	c #CF775A",
"!%	c #D68066",
"~%	c #DC7560",
"{%	c #E36457",
"]%	c #DC5246",
"^%	c #D06F61",
"/%	c #C69E8D",
"(%	c #BBC5B4",
"_%	c #C6E2D7",
":%	c #D6F4E6",
"<%	c #D7F1DD",
"[%	c #D6F0DA",
"}%	c #D2E8D0",
"|%	c #CDE1C3",
"1%	c #CBE4CC",
"2%	c #D2F5EC",
"3%	c #D2F8F3",
"4%	c #9EBDB6",
"5%	c #213413",
"6%	c #748276",
"7%	c #876A63",
"8%	c #70191C",
"9%	c #811E1F",
"0%	c #992D27",
"a%	c #B14430",
"b%	c #C1593D",
"c%	c #C76446",
"d%	c #C57C61",
"e%	c #C19B84",
"f%	c #C2C2AF",
"g%	c #C0D1C2",
"h%	c #C1D3C3",
"i%	c #C3D5C5",
"j%	c #C5D7C7",
"k%	c #C5E2D9",
"l%	c #D5F8F1",
"m%	c #D6F8EF",
"n%	c #D4F5E5",
"o%	c #CFEEDE",
"p%	c #CEEEE4",
"q%	c #D1F5EF",
"r%	c #D1F7F2",
"s%	c #BBDCD6",
"t%	c #313836",
"u%	c #20291C",
"v%	c #7C897D",
"w%	c #8C7C72",
"x%	c #6F1C1E",
"y%	c #741C1E",
"z%	c #7F2C2C",
"A%	c #9F625B",
"B%	c #B89F8E",
"C%	c #BFC7B7",
"D%	c #C0D1C1",
"E%	c #C2D3C3",
"F%	c #C4D5C5",
"G%	c #C6D7C7",
"H%	c #C6D8C8",
"I%	c #ACBCAD",
"J%	c #849185",
"K%	c #C0D6CA",
"L%	c #C5DED2",
"M%	c #C4DCD0",
"N%	c #C1D7C8",
"O%	c #BED3C6",
"P%	c #BED3C4",
"Q%	c #BED1C3",
"R%	c #BCCEBF",
"S%	c #BCCDBD",
"T%	c #BDCEBE",
"U%	c #8A968B",
"V%	c #96998C",
"W%	c #9A7871",
"X%	c #B0ABA0",
"Y%	c #B8C7B8",
"Z%	c #ABBAAC",
"`%	c #A5B2A5",
" &	c #B7C6B7",
".&	c #C7D7C7",
"+&	c #BECEBE",
"@&	c #98A799",
"#&	c #69756A",
"$&	c #B1C0B2",
"%&	c #A6B4A6",
"&&	c #A7B4A6",
"*&	c #ABB9AB",
"=&	c #A0ADA1",
"-&	c #A8B5A8",
";&	c #A6B3A6",
">&	c #B3C2B4",
",&	c #C4D4C4",
"'&	c #C5D5C6",
")&	c #96A196",
"!&	c #98A697",
"~&	c #A7B3A6",
"{&	c #A8B4A7",
"]&	c #B2BFB2",
"^&	c #C1CFC0",
"/&	c #ACBAAB",
"(&	c #838E82",
"_&	c #4B534A",
":&	c #BBCABA",
"<&	c #B1BFAF",
"[&	c #A9B6A7",
"}&	c #A0AD9F",
"|&	c #98A497",
"1&	c #8E9A8D",
"2&	c #859084",
"3&	c #7B867A",
"4&	c #707A6F",
"5&	c #646E63",
"6&	c #576057",
"7&	c #C2D0C0",
"8&	c #9AA598",
"9&	c #6A7369",
"                                                                ",
"                                    . + @                       ",
"                                    # $ % & * = - ; >           ",
"                              , ' ) ! ~ { ] ^ / ( _ : < [ } |   ",
"            1 2 3 4 5 6 7   8 9 0 a b b c d e f g h i j k l m   ",
"    n o p q r s t u v w x   y z A b B C D E F G H I J K L M N   ",
"    O P Q R S T U V W X Y   Z `  ...+.@.#.$.%.&.*.=.-.;.>.,.'.  ",
"    ).!.~.{.].^./.(._.:.<.[.}.|.1.2.3.4.5.6.7.8.9.0.a.b.c.d.e.  ",
"    f.g.h.i.j.k.l.m.n.o.p.q.r.s.t.u.v.w.x.y.z.A.B.C.D.E.F.G.H.  ",
"    I.J.K.L.M.N.O.P.Q.R.S.T.U.V.W.X.Y.Z.`. +.+++@+#+$+%+&+*+=+  ",
"    -+;+>+,+'+)+!+~+{+]+^+/+(+_+:+<+[+}+|+1+2+3+4+5+6+7+8+9+    ",
"    0+a+b+c+d+e+f+g+h+i+j+k+l+m+n+o+p+q+r+s+t+u+v+w+x+y+z+A+    ",
"    B+C+D+E+F+G+H+I+J+K+L+M+N+O+P+Q+R+S+T+U+V+W+X+Y+Z+`+ @.@    ",
"    +@@@#@$@%@&@*@=@-@;@>@,@    '@)@!@~@{@]@^@/@(@_@:@<@[@}@    ",
"    |@1@2@3@4@5@6@7@8@9@0@a@    b@c@d@e@f@g@h@i@j@k@l@m@n@o@    ",
"  p@q@r@s@t@u@v@w@x@y@z@A@B@    C@D@E@F@G@H@I@J@K@L@M@N@O@P@    ",
"  Q@R@S@T@U@V@W@X@Y@Z@`@ #.#      +#@###$#%#&#*#=#-#;#>#,#'#    ",
"  )#!#~#{#]#^#/#(#_#:#<#[#}#    |#1#2#3#4#5#6#7#8#9#0#a#b#c#    ",
"  d#e#f#g#h#i#j#k#l#m#n#o#p#    q#r#s#t#u#v#w#x#y#z#A#B#C#      ",
"  D#E#F#G#H#I#J#K#L#M#N#O#P#      Q#R#S#T#U#V#W#X#Y#Z#`#        ",
"   $.$+$@$#$$$%$&$*$=$-$;$>$      ,$'$)$!$~${$]$^$/$($_$        ",
"  :$<$[$}$|$1$2$3$4$5$6$7$8$9$    0$a$b$c$d$e$f$g$h$i$j$        ",
"  k$l$m$n$o$p$q$r$s$t$u$v$w$x$    y$z$A$B$C$D$E$F$G$H$I$J$      ",
"  K$L$M$N$O$P$Q$R$S$T$U$V$W$X$    Y$Z$`$ %.%+%@%#%$%%%&%*%      ",
"  =%-%;%>%,%'%)%!%~%{%]%^%/%(%    _%:%<%[%}%|%1%2%3%4%5%6%      ",
"  7%8%9%0%a%b%c%d%e%f%g%h%i%j%    k%l%m%n%o%p%q%r%s%t%u%v%      ",
"  w%x%y%z%A%B%C%D%E%F%G%H%I%J%    K%L%M%N%O%P%Q%R%S%S%T%U%      ",
"  V%W%X%Y%Z%`% &.&+&@&#&          $&%&&&*&=&-&;&>&,&,&'&)&      ",
"  !&~&{&]&^&/&(&_&                :&<&[&}&|&1&2&3&4&5&6&        ",
"    7&8&9&                                                      ",
"                                                                ",
"                                                                "};
