/* XPM */
static char * gpaint_xpm[] = {
"32 32 246 2",
"  	c None",
". 	c #663806",
"+ 	c #663705",
"@ 	c #673907",
"# 	c #6E3D07",
"$ 	c #6D3C07",
"% 	c #693A07",
"& 	c #6B3B07",
"* 	c #7B4308",
"= 	c #814708",
"- 	c #673806",
"; 	c #6E3C07",
"> 	c #8C4D0A",
", 	c #94510B",
"' 	c #7D4508",
") 	c #683A07",
"! 	c #774208",
"~ 	c #96530A",
"{ 	c #A0590B",
"] 	c #854909",
"^ 	c #6C3C07",
"/ 	c #663807",
"( 	c #653905",
"_ 	c #804608",
": 	c #AD5F0C",
"< 	c #B3630D",
"[ 	c #95520A",
"} 	c #723F08",
"| 	c #824709",
"1 	c #B3620D",
"2 	c #BB670E",
"3 	c #9C560B",
"4 	c #7E4508",
"5 	c #653707",
"6 	c #653807",
"7 	c #804609",
"8 	c #B9660D",
"9 	c #CA700F",
"0 	c #AB5F0C",
"a 	c #894C0A",
"b 	c #643707",
"c 	c #653705",
"d 	c #80796C",
"e 	c #735737",
"f 	c #7C562C",
"g 	c #BA660E",
"h 	c #CF720F",
"i 	c #94520A",
"j 	c #733F08",
"k 	c #888984",
"l 	c #878984",
"m 	c #85837A",
"n 	c #898377",
"o 	c #B47F45",
"p 	c #B27029",
"q 	c #A0580C",
"r 	c #814709",
"s 	c #673807",
"t 	c #663805",
"u 	c #8A8C88",
"v 	c #9C9D9A",
"w 	c #9A9A96",
"x 	c #998468",
"y 	c #96744B",
"z 	c #884D0E",
"A 	c #6F3D08",
"B 	c #6A3A07",
"C 	c #693907",
"D 	c #868884",
"E 	c #888A85",
"F 	c #9FA19D",
"G 	c #CBCBCA",
"H 	c #CFCFCE",
"I 	c #A3A4A0",
"J 	c #93948F",
"K 	c #7D6549",
"L 	c #724D26",
"M 	c #878983",
"N 	c #969794",
"O 	c #CFD0CF",
"P 	c #F1F1F1",
"Q 	c #E4E4E4",
"R 	c #B1B2B0",
"S 	c #999A97",
"T 	c #807768",
"U 	c #796043",
"V 	c #ADAEAC",
"W 	c #E4E5E4",
"X 	c #FEFEFE",
"Y 	c #B9B9B9",
"Z 	c #A4A5A3",
"` 	c #8D8F8A",
" .	c #848279",
"..	c #6F4E28",
"+.	c #939490",
"@.	c #C8C8C8",
"#.	c #E8E8E8",
"$.	c #C5C5C5",
"%.	c #AAAAAA",
"&.	c #9D9D9B",
"*.	c #8A8C87",
"=.	c #78664C",
"-.	c #AAABA8",
";.	c #E3E3E3",
">.	c #C9C9C9",
",.	c #B3B3B3",
"'.	c #A6A6A6",
").	c #888A84",
"!.	c #86857E",
"~.	c #84827C",
"{.	c #91928E",
"].	c #CDCDCC",
"^.	c #F0F0F0",
"/.	c #D3D3D3",
"(.	c #B7B7B7",
"_.	c #A7A7A6",
":.	c #979895",
"<.	c #898C87",
"[.	c #868983",
"}.	c #A9AAA7",
"|.	c #E1E2E1",
"1.	c #C2C2C2",
"2.	c #ABABAB",
"3.	c #898B86",
"4.	c #91938F",
"5.	c #D7D7D6",
"6.	c #EDEDED",
"7.	c #CBCBCB",
"8.	c #B0B0B0",
"9.	c #989996",
"0.	c #82847F",
"a.	c #9D9F9C",
"b.	c #E6E6E6",
"c.	c #DDDDDD",
"d.	c #B8B8B8",
"e.	c #9B9D9A",
"f.	c #5E605D",
"g.	c #666765",
"h.	c #8A8A89",
"i.	c #B7B7B6",
"j.	c #9D9E9B",
"k.	c #8B8D88",
"l.	c #4B4B4B",
"m.	c #5A5A5A",
"n.	c #626262",
"o.	c #565656",
"p.	c #545454",
"q.	c #6E6E6E",
"r.	c #7E7E7C",
"s.	c #8A8B87",
"t.	c #434343",
"u.	c #656565",
"v.	c #8B8B8B",
"w.	c #838383",
"x.	c #5E5E5E",
"y.	c #555555",
"z.	c #636462",
"A.	c #848781",
"B.	c #323232",
"C.	c #454545",
"D.	c #7D7D7D",
"E.	c #AEAEAE",
"F.	c #989898",
"G.	c #676767",
"H.	c #4A4A4A",
"I.	c #474747",
"J.	c #2F2F2F",
"K.	c #727272",
"L.	c #9E9E9E",
"M.	c #757575",
"N.	c #585858",
"O.	c #4E4E4E",
"P.	c #444444",
"Q.	c #3D3E3D",
"R.	c #212121",
"S.	c #383838",
"T.	c #505050",
"U.	c #4D4D4D",
"V.	c #4C4C4C",
"W.	c #464646",
"X.	c #3E3E3E",
"Y.	c #363636",
"Z.	c #3B3B3B",
"`.	c #424242",
" +	c #404040",
".+	c #414141",
"++	c #3D3D3D",
"@+	c #2B2B38",
"#+	c #000080",
"$+	c #04047C",
"%+	c #0A0A84",
"&+	c #24248A",
"*+	c #282828",
"=+	c #343434",
"-+	c #2E2E2E",
";+	c #353535",
">+	c #373737",
",+	c #292936",
"'+	c #10105D",
")+	c #0E0E75",
"!+	c #111176",
"~+	c #202076",
"{+	c #020235",
"]+	c #080828",
"^+	c #141439",
"/+	c #1F1F3E",
"(+	c #16163C",
"_+	c #1D1D37",
":+	c #1F1F40",
"<+	c #282839",
"[+	c #25253F",
"}+	c #27273C",
"|+	c #1E1E47",
"1+	c #10105E",
"2+	c #02027B",
"3+	c #00007E",
"4+	c #5858AA",
"5+	c #4E4EA5",
"6+	c #09097C",
"7+	c #000065",
"8+	c #000070",
"9+	c #02026A",
"0+	c #0B0B70",
"a+	c #0E0E6B",
"b+	c #10106F",
"c+	c #101069",
"d+	c #10106E",
"e+	c #0F0F6B",
"f+	c #0D0D72",
"g+	c #07077A",
"h+	c #090979",
"i+	c #0A0A78",
"j+	c #08087A",
"k+	c #0B0B77",
"l+	c #080879",
"m+	c #0C0C77",
"n+	c #02027C",
"o+	c #01017E",
"p+	c #2A2A94",
"q+	c #101074",
"r+	c #161670",
"s+	c #121272",
"t+	c #0E0E74",
"u+	c #0A0A76",
"v+	c #0C0C76",
"w+	c #141470",
"                                                                ",
"                                                    . + . .     ",
"                                                  . @ # $ %     ",
"                                                + & * = $ -     ",
"                                              + ; > , ' ) @     ",
"                                            + ! ~ { ] ^ / .     ",
"                                        ( . _ : < [ } / @       ",
"                                      . @ | 1 2 3 4 5 6 .       ",
"                                      + 7 8 9 0 a ; b @ c       ",
"                                  d e f g h < i j / @ +         ",
"                                k l m n o p q r % s @ t         ",
"                                k u v w x y z A B C +           ",
"                              D E F G H I J K L & @ c           ",
"                              M N O P Q R S T U ) .             ",
"                            M E V W X Q Y Z `  ...              ",
"                            k +.@.#.#.$.%.&.*. .=.              ",
"                            E -.;.;.>.,.'.N ).!.~.              ",
"                          M {.].^./.(._.:.<.[.                  ",
"                          l }.|.Q 1.2.:.3.l                     ",
"                        M 4.5.6.7.8.9.*.M                       ",
"                        0.a.b.c.d.e.3.l                         ",
"                      f.g.h.>.i.j.k.M                           ",
"                  l.m.n.o.p.q.r.s.l                             ",
"                t.u.v.w.x.o.y.z.A.                              ",
"              B.C.D.E.F.G.o.H.I.                                ",
"              J.C.K.L.M.N.O.P.Q.                                ",
"            R.S.T.T.N.U.V.W.X.Y.                                ",
"            Z.N.N.`. +.+`.++Y.@+                    #+$+%+&+    ",
"          *+ +Y.=+-+;+;+>+B.,+'+#+                    )+!+~+    ",
"      {+]+^+/+(+_+:+<+[+}+|+1+2+#+3+#+3+#+3+#+%+4+5+6+          ",
"        7+8+9+0+a+b+c+d+e+f+g+h+g+i+j+k+l+m+n+o+p+              ",
"                q+r+q+s+t+t+u+t+v+s+t+w+t+                      "};
