/* XPM */
static char * gprolog_xpm[] = {
"32 32 12 1",
" 	c None",
".	c #000000",
"+	c #FFFFFF",
"@	c #191919",
"#	c #7F7F7F",
"$	c #333333",
"%	c #4C4C4C",
"&	c #CCCCCC",
"*	c #666667",
"=	c #B2B2B2",
"-	c #999999",
";	c #E5E5E5",
"                                ",
"            ........            ",
"         ..............         ",
"        ................        ",
"      ....................      ",
"     ......................     ",
"    ........................    ",
"    ........................    ",
"   ..........................   ",
"  ..++-@.....#++++++@@++-@....  ",
"  ..++=$@....#++++++%@++=$@...  ",
"  ..++;=####.%==&&&&*$++&%@...  ",
" ...++++++++$@$%%%%%$@++=%@.... ",
" ...++++++++*@@.@@@@@.++&%@.... ",
"....++&-####*-++++++@@++++++++$ ",
"....++&*$$@$@#++++++*@++++++++* ",
"....++;=####@%-=&=&=*$++;&&=&&# ",
"....++++++++$@$%%*%%$@++&#*%%%% ",
" ...++++++++*$.@@@@@@.++&%@@@.@ ",
" ...++&####**-++++++@@++&%@.... ",
" ...++&*$$$@@#++++++%@++&%@.... ",
"  ..++&%@....#++++++#$++=%@...  ",
"  ..@%*$@....@$*###**@@**$@...  ",
"   .@@$@......@$@$@$@.@@$@...   ",
"    ........................    ",
"    ........................    ",
"     ......................     ",
"      ....................      ",
"        ................        ",
"         ..............         ",
"           ..........           ",
"                                "};
