/* XPM */
static char *k3b[] = {
/* columns rows colors chars-per-pixel */
"32 32 11 1",
"  c #7F0000",
". c #7F007F",
"X c #666667",
"o c gray50",
"O c red",
"+ c magenta",
"@ c gray60",
"# c #B2B2B2",
"$ c gray80",
"% c gray90",
"& c gray100",
/* pixels */
" O.O.O.O.O.O.O .OO.OO O.O.O.OO.O",
"O.O O.. O O.. O.O.O..O.O.O.O .O ",
".O.O.OOO.OO.OO.OO. .O.OOOO.O.O.O",
"O.&#O.O.O. O.O@%&OO$$$%$$$$$$.O.",
" .&%oO.OO.O.O#&&& O$%$#$$#$$$O.O",
"OO&&&@O O..O%&&&%.O$$$$$$$##$O. ",
".O$&&&$..Oo&&&&@O.O$$$$##$$$%.O.",
"O.Oo&&&&O#&&&$.O O.%$##$#$$$$O O",
".O.O.%&&&&&&#OO.O.O$$##$$##$$O.O",
"O O.O$&&&&&&#..O O.$#$$$$$$##OO.",
".O$$#$@&&&%. O.OO.O$$$$$#$$$%O O",
"O &&&&&&&&&&&&&&&OO$$#$$$##$$.O.",
".O%%&&&&&&&&&&&&&.O%%$$$$$$%$O.O",
"O.@o@..@Oo.@Oo.ooO.OO.O.O.OOO.O ",
"..OOOO.O.O.O.O.OO.O. OO .OO .O.O",
"O &&@OO@&&oOO#&&oOOo&&&&&&%.O.O.",
".O&&#O.O&&@O.O&&.O.@&&&&&&&$O.O.",
"O &&@ O+&%@ Oo&&@O.O&&#.@%&&.O.O",
".O&&O.O@&&+O.@&&@OO@&&@OO.&&@.O ",
"O.&&@O.O&&@.OO&&@ O+&%@.O@&&OOO.",
"..&&+O @&&.O.@&&O.O@&&#O#&&%.O.O",
"O &&@.O@&&@.OO&&@O.O&&&&&&&OO.O ",
".O&&OO.O&&OO.@&&+O.@&&&&&&&%XO.O",
"O &&@.Oo&&@.O.&&O O#&&#.O#&&%.O.",
".O&&oO.@&&oO.@&&@OO@&&@..O#%& .O",
"O.&&.O.O&&O..O&&..O#&&OOO..&&OO.",
" O&&@.O#&&o.O@%&@O.O&&.O.O$&&O O",
"O.&&OOO@&&OOO#&&@OOo&&%$$%&&%.O.",
"O &&@O.@&&o.O@&&+O.@&&&&&&&%.O O",
"..O.O.OO.OOO. O.O  O.O O .O.O.O.",
"O..O.O.OO.. O..OO.O.O.. O..O O.O",
" OO.O O..OOO.O O.O.O.OOO.OOO..O."
};
