/* XPM */
static char * boinc32_xpm[] = {
"32 32 402 2",
"  	c None",
". 	c #597C9E",
"+ 	c #174876",
"@ 	c #3E6790",
"# 	c #8BA1B8",
"$ 	c #225C96",
"% 	c #174674",
"& 	c #375E88",
"* 	c #90A2B7",
"= 	c #123965",
"- 	c #163D68",
"; 	c #173D67",
"> 	c #1A4875",
", 	c #1B4674",
"' 	c #194370",
") 	c #2B527C",
"! 	c #96A5B8",
"~ 	c #123461",
"{ 	c #173862",
"] 	c #17375F",
"^ 	c #24538B",
"/ 	c #255C95",
"( 	c #1B4471",
"_ 	c #1D4470",
": 	c #1A416C",
"< 	c #234772",
"[ 	c #8592A8",
"} 	c #48658D",
"| 	c #31486E",
"1 	c #203A64",
"2 	c #193460",
"3 	c #1A3560",
"4 	c #233D66",
"5 	c #2A436B",
"6 	c #4A6184",
"7 	c #98A4B6",
"8 	c #14315C",
"9 	c #18355E",
"0 	c #17335A",
"a 	c #224E86",
"b 	c #225993",
"c 	c #1B416C",
"d 	c #1E416C",
"e 	c #1C3E69",
"f 	c #203F6B",
"g 	c #8A98AB",
"h 	c #395B89",
"i 	c #204270",
"j 	c #0E305E",
"k 	c #122E5B",
"l 	c #14305D",
"m 	c #15305D",
"n 	c #142F56",
"o 	c #99A5B8",
"p 	c #15315C",
"q 	c #19325B",
"r 	c #193056",
"s 	c #164077",
"t 	c #265991",
"u 	c #1B3D69",
"v 	c #1F3E69",
"w 	c #1C3863",
"x 	c #253F68",
"y 	c #243F67",
"z 	c #152F5A",
"A 	c #0F315F",
"B 	c #17345B",
"C 	c #1C3E6C",
"D 	c #234573",
"E 	c #224472",
"F 	c #153765",
"G 	c #203A57",
"H 	c #EFF9FF",
"I 	c #99A6B7",
"J 	c #183460",
"K 	c #1B365F",
"L 	c #1A3157",
"M 	c #103569",
"N 	c #225087",
"O 	c #1F3962",
"P 	c #1A355D",
"Q 	c #103260",
"R 	c #183A68",
"S 	c #7592B9",
"T 	c #FCFFFF",
"U 	c #F6FBFE",
"V 	c #C7D9EE",
"W 	c #E0EDFB",
"X 	c #F5FBFF",
"Y 	c #F1F8FF",
"Z 	c #F6F7F1",
"` 	c #9CA4AB",
" .	c #173460",
"..	c #1C3963",
"+.	c #1F3860",
"@.	c #0E366C",
"#.	c #1A467D",
"$.	c #163460",
"%.	c #143664",
"&.	c #294B79",
"*.	c #6A8CBA",
"=.	c #1B3760",
"-.	c #18335F",
";.	c #213C65",
">.	c #163664",
",.	c #C0D4EA",
"'.	c #174984",
").	c #315381",
"!.	c #BCD5F5",
"~.	c #436593",
"{.	c #1B3660",
"].	c #19325C",
"^.	c #1B3862",
"/.	c #6B7F9F",
"(.	c #CFE0F2",
"_.	c #385A88",
":.	c #FDECB3",
"<.	c #FDE193",
"[.	c #FCDA73",
"}.	c #FBD265",
"|.	c #FBCE54",
"1.	c #FCDA6E",
"2.	c #BFD8F8",
"3.	c #3A5C8A",
"4.	c #1F3C67",
"5.	c #1C3B67",
"6.	c #2A4268",
"7.	c #F6FCFF",
"8.	c #F8FCFF",
"9.	c #FEE9A9",
"0.	c #FFF9E5",
"a.	c #FFFEFB",
"b.	c #FFFBEF",
"c.	c #FFF5D0",
"d.	c #FEE99C",
"e.	c #FEDA68",
"f.	c #F8C43C",
"g.	c #83A5D3",
"h.	c #264571",
"i.	c #1C3A69",
"j.	c #1A3B6B",
"k.	c #677FA1",
"l.	c #112D54",
"m.	c #0C2852",
"n.	c #FEE38C",
"o.	c #FFF2C7",
"p.	c #FFF9E3",
"q.	c #FFEFB7",
"r.	c #FEEA9D",
"s.	c #FEE484",
"t.	c #FDD659",
"u.	c #F8C238",
"v.	c #4F719F",
"w.	c #2C558B",
"x.	c #265085",
"y.	c #1E3F6C",
"z.	c #0B2750",
"A.	c #0E2A52",
"B.	c #1B3860",
"C.	c #FDDF7F",
"D.	c #FFEAA6",
"E.	c #FFF2C5",
"F.	c #FFF0BA",
"G.	c #FFEDAB",
"H.	c #FEECA7",
"I.	c #FEEBA3",
"J.	c #FEE99B",
"K.	c #FEE588",
"L.	c #FDDF71",
"M.	c #F9C12A",
"N.	c #F7C751",
"O.	c #9EB7D7",
"P.	c #48668B",
"Q.	c #2C4975",
"R.	c #153360",
"S.	c #7992B7",
"T.	c #0B2850",
"U.	c #0F2B54",
"V.	c #314D72",
"W.	c #C4D7EF",
"X.	c #FBD25A",
"Y.	c #FEE58D",
"Z.	c #FEECA6",
"`.	c #FEE78E",
" +	c #FEE589",
".+	c #FDDF7B",
"++	c #FCD55A",
"@+	c #FBCC3E",
"#+	c #FAC42B",
"$+	c #F4B10E",
"%+	c #F0B227",
"&+	c #324764",
"*+	c #2A4168",
"=+	c #17325B",
"-+	c #7488A4",
";+	c #203E6A",
">+	c #597595",
",+	c #F8BF33",
"'+	c #FDD75D",
")+	c #FDD759",
"!+	c #FDCF44",
"~+	c #FCCA36",
"{+	c #FBC528",
"]+	c #FBC01B",
"^+	c #FABB12",
"/+	c #F8B70D",
"(+	c #F6B50A",
"_+	c #F0AC06",
":+	c #EDA613",
"<+	c #1A3050",
"[+	c #0E254E",
"}+	c #092149",
"|+	c #7F90AA",
"1+	c #486383",
"2+	c #F6B923",
"3+	c #F6B60F",
"4+	c #F9BC13",
"5+	c #F9BD14",
"6+	c #F9BD16",
"7+	c #F9BD17",
"8+	c #F8BB14",
"9+	c #F6B60E",
"0+	c #F4B308",
"a+	c #F4B207",
"b+	c #EFAB06",
"c+	c #F0A412",
"d+	c #1B3352",
"e+	c #10264F",
"f+	c #071D46",
"g+	c #7587A4",
"h+	c #152C53",
"i+	c #13294F",
"j+	c #143056",
"k+	c #E59D00",
"l+	c #EDA803",
"m+	c #F4B50C",
"n+	c #F5B60E",
"o+	c #F5B40B",
"p+	c #F4B208",
"q+	c #F3B106",
"r+	c #F3B207",
"s+	c #F4B50E",
"t+	c #F0AC0D",
"u+	c #F5AC26",
"v+	c #0D2342",
"w+	c #0F254D",
"x+	c #09224C",
"y+	c #132A50",
"z+	c #062651",
"A+	c #A3B2C1",
"B+	c #FDFEFF",
"C+	c #EBBC4D",
"D+	c #F0B008",
"E+	c #F2AF05",
"F+	c #F3B30B",
"G+	c #F3B510",
"H+	c #F7C027",
"I+	c #F7C332",
"J+	c #F4AE16",
"K+	c #F7C361",
"L+	c #163658",
"M+	c #0D2148",
"N+	c #0D2A58",
"O+	c #1C355E",
"P+	c #13294E",
"Q+	c #0B2853",
"R+	c #294363",
"S+	c #E4A00A",
"T+	c #EBA707",
"U+	c #F3B310",
"V+	c #F7BE22",
"W+	c #F6BB1E",
"X+	c #FAC430",
"Y+	c #FCCB3E",
"Z+	c #FBD25B",
"`+	c #F8B52D",
" @	c #0B356D",
".@	c #16386B",
"+@	c #3C5D8C",
"@@	c #0E254C",
"#@	c #09264E",
"$@	c #AEBDCD",
"%@	c #E7A309",
"&@	c #F5BB26",
"*@	c #FAC438",
"=@	c #FCD256",
"-@	c #FCD763",
";@	c #FAD150",
">@	c #F8BA37",
",@	c #F1F9FF",
"'@	c #102C59",
")@	c #19365B",
"!@	c #EFBA3A",
"~@	c #F8C455",
"{@	c #5072A0",
"]@	c #9BB4D7",
"^@	c #0E2A57",
"/@	c #294669",
"(@	c #7A9CCA",
"_@	c #14305C",
":@	c #184278",
"<@	c #173058",
"[@	c #0B2857",
"}@	c #334D63",
"|@	c #FEFEFF",
"1@	c #698BB9",
"2@	c #122F5C",
"3@	c #16315E",
"4@	c #18335D",
"5@	c #174279",
"6@	c #4A6283",
"7@	c #132A51",
"8@	c #122A52",
"9@	c #123B6F",
"0@	c #A3B9D4",
"a@	c #FAFEFF",
"b@	c #E3EDF8",
"c@	c #D2DFEE",
"d@	c #F5FAFA",
"e@	c #F2F8FE",
"f@	c #DDE5E4",
"g@	c #81A3D1",
"h@	c #335583",
"i@	c #0B2758",
"j@	c #142C56",
"k@	c #183057",
"l@	c #1B345B",
"m@	c #19335C",
"n@	c #18457C",
"o@	c #607794",
"p@	c #142F57",
"q@	c #10366A",
"r@	c #A3BCDC",
"s@	c #F2FAFF",
"t@	c #16355D",
"u@	c #2A4665",
"v@	c #3F5871",
"w@	c #465F78",
"x@	c #3E5874",
"y@	c #214371",
"z@	c #092B59",
"A@	c #0D2755",
"B@	c #162C52",
"C@	c #112A53",
"D@	c #0F2952",
"E@	c #172E54",
"F@	c #1A3158",
"G@	c #19325A",
"H@	c #1A4378",
"I@	c #67809D",
"J@	c #0C325E",
"K@	c #143767",
"L@	c #0B254E",
"M@	c #102851",
"N@	c #112851",
"O@	c #14294E",
"P@	c #102953",
"Q@	c #0D3165",
"R@	c #5376A5",
"S@	c #0B2147",
"T@	c #13284C",
"U@	c #162B51",
"V@	c #193159",
"W@	c #113B6F",
"X@	c #607E9E",
"Y@	c #0D3665",
"Z@	c #193A67",
"`@	c #4B6E9F",
" #	c #193D74",
".#	c #0E2D5D",
"+#	c #0C2652",
"@#	c #0C254F",
"##	c #0C2651",
"$#	c #103367",
"%#	c #1B4783",
"&#	c #4974AB",
"*#	c #081D44",
"=#	c #112548",
"-#	c #152D53",
";#	c #1B4271",
">#	c #5C7FA0",
",#	c #0D3B6A",
"'#	c #163E6A",
")#	c #204675",
"!#	c #122A4F",
"~#	c #17355D",
"{#	c #1A3C66",
"]#	c #487097",
"^#	c #104272",
"/#	c #16426E",
"(#	c #153C67",
"_#	c #27548C",
":#	c #1D4173",
"<#	c #143158",
"[#	c #163962",
"}#	c #183F6A",
"|#	c #1C416D",
"1#	c #275A94",
"2#	c #15426F",
"3#	c #224D83",
"4#	c #13365F",
"5#	c #2A5283",
"    .                                                     +     ",
"  @ + @                                                 # + +   ",
"$ + + % &                                             * = - ; + ",
"  $ > , ' )                                         ! ~ { ] ^   ",
"    / ( _ : <           [ } | 1 2 3 4 5 6         7 8 9 0 a     ",
"      b c d e f     g h i j k l l m l n         o p q r s       ",
"        t u v w x y z A A B C D E F G   H     I J K L M         ",
"          N w O P Q A R S T U T T V W X Y Z `  ...+.@.          ",
"            #.$.%.A &.T T T T T T T T T T *.=.-.;.>.            ",
"            ,.'.j ).T T T T T T T T T T T !.~.{.].^./.          ",
"              (._.T T T T :.<.[.}.|.1.T T T 2.3.2 4.5.          ",
"        6.  7.8.T T T T 9.0.a.b.c.d.e.f.T T T g.h.i.j.k.        ",
"        l.m.T 8.T T T n.o.p.p.c.q.r.s.t.u.T T T v.w.x.y.        ",
"        z.A.B.W T T C.D.E.F.G.H.I.J.K.L.M.N.T T O.P.Q.R.        ",
"      S.T.U.V.W.T T X.Y.Z.`. +Y..+++@+#+$+%+T T T &+*+=+        ",
"      -+$.;+>+T T T ,+'+)+!+~+{+]+^+/+(+_+:+T T T <+[+}+        ",
"      |+;+;+1+T T T 2+3+4+5+6+7+8+9+0+a+b+c+T T T d+e+f+        ",
"      g+h+i+j+T T T k+l+m+n+9+o+p+q+r+s+t+u+T T W.v+w+x+        ",
"      S.y+i+z+A+B+T C+k+D+q+E+q+F+G+H+I+J+K+T T W L+M+N+        ",
"        O+P+Q+R+B+T T S+T+U+V+W+X+Y+L.Z+`+T T T 8.T  @.@        ",
"        +@@@#@#@$@T T T %@&@*@=@-@L.;@>@T T T T 8.,@            ",
"          '@#@#@)@T T T T !@G+G+G+G+~@T T T T {@]@              ",
"          +@#@#@^@/@T T T T T T T T T T T T (@_@:@              ",
"            <@#@#@[@}@T T T T T T |@|@|@T 1@2@3@4@5@            ",
"          6@7@7@8@9@0@a@a@T b@c@d@e@f@g@h@i@j@k@l@m@n@          ",
"        o@p@p@7@q@r@  s@  t@u@v@w@x@y@z@A@B@C@D@E@F@G@H@        ",
"      I@J@J@p@K@        L@M@#@#@#@#@N@O@P@Q@R@  S@T@U@V@W@      ",
"    X@Y@Y@J@Z@        `@ #.#+#@####@$#%#&#        *#=#-#B.;#    ",
"  >#,#'#Y@)#                                        ^@!#~#{#(   ",
"]#^#/#(#_#                                            :#<#[#}#|#",
"  1#2#1#                                                3#4#<#  ",
"    1#                                                    5#    "};
