/* XPM */
static char * boinc16_xpm[] = {
"16 16 111 2",
"  	c None",
". 	c #000021",
"+ 	c #000041",
"@ 	c #000035",
"# 	c #000039",
"$ 	c #466287",
"% 	c #AEB9C8",
"& 	c #21406B",
"* 	c #00164A",
"= 	c #00043A",
"- 	c #0C2852",
"; 	c #000020",
"> 	c #071F4D",
", 	c #00154C",
"' 	c #4A678E",
") 	c #8195B4",
"! 	c #657EA8",
"~ 	c #AABACD",
"{ 	c #F7F9FB",
"] 	c #8190A3",
"^ 	c #00093C",
"/ 	c #2C5486",
"( 	c #000C45",
"_ 	c #B4C3D7",
": 	c #FFFFFF",
"< 	c #FFFFFD",
"[ 	c #FFFFFE",
"} 	c #CDDEF5",
"| 	c #001B50",
"1 	c #000A3D",
"2 	c #F5FCFF",
"3 	c #C6D5E3",
"4 	c #FFE186",
"5 	c #FCD66C",
"6 	c #FACD58",
"7 	c #FFE085",
"8 	c #9BB6D8",
"9 	c #000D46",
"0 	c #5B769A",
"a 	c #041543",
"b 	c #B7C2D1",
"c 	c #FFF5CC",
"d 	c #FFFDEA",
"e 	c #FFF6BF",
"f 	c #FDD242",
"g 	c #FFDC74",
"h 	c #577CAB",
"i 	c #062E64",
"j 	c #000138",
"k 	c #7E98BC",
"l 	c #FAC741",
"m 	c #FFE06E",
"n 	c #FED655",
"o 	c #FCCE44",
"p 	c #F8BA15",
"q 	c #F0A906",
"r 	c #9BAAC2",
"s 	c #000530",
"t 	c #000737",
"u 	c #A0B5D0",
"v 	c #EDA700",
"w 	c #F7B100",
"x 	c #F7B200",
"y 	c #F4AA00",
"z 	c #F1A600",
"A 	c #F2A709",
"B 	c #5F7799",
"C 	c #000013",
"D 	c #00002D",
"E 	c #344F75",
"F 	c #F4C45D",
"G 	c #EA9600",
"H 	c #F7B509",
"I 	c #F8C328",
"J 	c #F5B412",
"K 	c #F7C35C",
"L 	c #B9C5D3",
"M 	c #0C2459",
"N 	c #395982",
"O 	c #00001D",
"P 	c #ADC0D1",
"Q 	c #F2C560",
"R 	c #F0A712",
"S 	c #EEA413",
"T 	c #FFDF8B",
"U 	c #CEDDEB",
"V 	c #EBF4FE",
"W 	c #030C35",
"X 	c #000230",
"Y 	c #C1CFDD",
"Z 	c #CFDEF2",
"` 	c #07255A",
" .	c #204479",
"..	c #000029",
"+.	c #264272",
"@.	c #DBE3EA",
"#.	c #B9C2CF",
"$.	c #7189AA",
"%.	c #9BACC4",
"&.	c #5E779A",
"*.	c #001148",
"=.	c #000031",
"-.	c #00002B",
";.	c #000024",
">.	c #002054",
",.	c #000026",
"'.	c #000135",
").	c #000E48",
"!.	c #44638F",
"~.	c #00000F",
"{.	c #000037",
".                             . ",
"  +                         @   ",
"    # $   % & * = -       ;     ",
"      = > , ' ) ! ~ { ] ^       ",
"      / ( _ : < [ : } | 1       ",
"      2 3 : 4 5 6 7 : 8 9 0     ",
"    a b : 4 c d e f g : h i     ",
"    j k : l m n o p q : r s     ",
"    t u : v w x y z A : B C     ",
"    D E : F G H I J K : L M     ",
"    N O P : Q R S T : U V       ",
"      W X Y : : < : Z `  .      ",
"      ..+.@.#.$.%.&.*.=.-.      ",
"    ;.      >.,.'.).!.    ~.    ",
"  {.                        .   ",
".                               "};
