/* XPM */
static char * ario_xpm[] = {
"32 32 367 2",
"  	c None",
". 	c #749EC4",
"+ 	c #709BC2",
"@ 	c #8AAECD",
"# 	c #6A97BF",
"$ 	c #719CC2",
"% 	c #86ABCB",
"& 	c #8EB0CE",
"* 	c #A0BDD6",
"= 	c #BFD2E4",
"- 	c #C1D3E4",
"; 	c #5689B5",
"> 	c #7599B9",
", 	c #7AA1C5",
"' 	c #84A9CB",
") 	c #8DB0CF",
"! 	c #ACC5DC",
"~ 	c #BBCFE2",
"{ 	c #8EB0CF",
"] 	c #81A7C9",
"^ 	c #6E9AC0",
"/ 	c #4F83B2",
"( 	c #065193",
"_ 	c #CBCBCB",
": 	c #EFEFEF",
"< 	c #F5F6F7",
"[ 	c #E4F0F9",
"} 	c #CEE8FA",
"| 	c #CEE6F6",
"1 	c #91B3D1",
"2 	c #82A7C9",
"3 	c #6C96BC",
"4 	c #4B7EAB",
"5 	c #28659B",
"6 	c #C1C1C1",
"7 	c #F8F8F8",
"8 	c #C7E5F9",
"9 	c #70C1F9",
"0 	c #72C3FB",
"a 	c #8DD0FF",
"b 	c #95D4FF",
"c 	c #86CDFF",
"d 	c #4994CF",
"e 	c #6EBBF2",
"f 	c #ADD9F8",
"g 	c #E7E9EA",
"h 	c #075293",
"i 	c #DFDFDF",
"j 	c #F1F7FC",
"k 	c #6DBFF9",
"l 	c #E2F4FF",
"m 	c #E7F5FF",
"n 	c #E8F6FF",
"o 	c #EAF6FF",
"p 	c #EEF8FF",
"q 	c #90B5D4",
"r 	c #EFF7FC",
"s 	c #C9E8FE",
"t 	c #86CCFD",
"u 	c #C8E6FA",
"v 	c #CFCFCF",
"w 	c #DDDDDD",
"x 	c #4DB3FB",
"y 	c #B4E0FF",
"z 	c #CEEBFF",
"A 	c #D0ECFF",
"B 	c #D2ECFF",
"C 	c #D4EDFF",
"D 	c #D6EEFF",
"E 	c #D9F0FF",
"F 	c #84AFD3",
"G 	c #D8EDFC",
"H 	c #DDF1FE",
"I 	c #E1F3FF",
"J 	c #AADCFF",
"K 	c #ACDBFD",
"L 	c #B5B5B5",
"M 	c #FAFCFD",
"N 	c #52B5F9",
"O 	c #90D2FF",
"P 	c #B7E1FF",
"Q 	c #B8E2FF",
"R 	c #B9E2FF",
"S 	c #BBE3FF",
"T 	c #BCE4FF",
"U 	c #BFE5FF",
"V 	c #C5E7FF",
"W 	c #77AAD3",
"X 	c #C2E4FC",
"Y 	c #C6E8FE",
"Z 	c #C8E8FF",
"` 	c #CAE9FF",
" .	c #ACDCFF",
"..	c #A2D7FD",
"+.	c #D6D6D6",
"@.	c #F5F5F5",
"#.	c #A4D5F7",
"$.	c #40B0FF",
"%.	c #A2D9FF",
"&.	c #A1D8FF",
"*.	c #A2D8FF",
"=.	c #A3D9FF",
"-.	c #A4DAFF",
";.	c #A6DAFF",
">.	c #A8DBFF",
",.	c #AEDDFF",
"'.	c #69A4D3",
").	c #AADAFC",
"!.	c #AEDEFE",
"~.	c #B0DEFF",
"{.	c #B2DFFF",
"].	c #B3E0FF",
"^.	c #83CBFF",
"/.	c #BEE3FC",
"(.	c #BEBEBE",
"_.	c #F8FAFB",
":.	c #3EADFA",
"<.	c #63BEFF",
"[.	c #8BCFFF",
"}.	c #8CD0FF",
"|.	c #8ED0FF",
"1.	c #8FD1FF",
"2.	c #90D1FF",
"3.	c #91D2FF",
"4.	c #92D2FF",
"5.	c #99D5FF",
"6.	c #5C9ED2",
"7.	c #94D2FC",
"8.	c #97D4FE",
"9.	c #98D5FF",
"0.	c #9AD5FF",
"a.	c #9BD6FF",
"b.	c #9DD6FF",
"c.	c #55B8FE",
"d.	c #E8EFF5",
"e.	c #E7E7E7",
"f.	c #C6E2F6",
"g.	c #2BA7FF",
"h.	c #65C0FF",
"i.	c #7AC8FF",
"j.	c #7BC8FF",
"k.	c #7CC9FF",
"l.	c #7DCAFF",
"m.	c #7ECAFF",
"n.	c #4E98D2",
"o.	c #80C9FC",
"p.	c #82CCFE",
"q.	c #83CCFF",
"r.	c #84CCFF",
"s.	c #85CCFF",
"t.	c #86CEFF",
"u.	c #66C0FF",
"v.	c #92D1FD",
"w.	c #C9C9C9",
"x.	c #F9F9F9",
"y.	c #90CCF6",
"z.	c #34ABFF",
"A.	c #59BAFF",
"B.	c #6BC2FF",
"C.	c #6CC3FF",
"D.	c #6DC3FF",
"E.	c #6EC3FF",
"F.	c #6EC4FF",
"G.	c #77C7FF",
"H.	c #4696D3",
"I.	c #70C2FC",
"J.	c #71C4FE",
"K.	c #72C5FF",
"L.	c #72C6FF",
"M.	c #73C6FF",
"N.	c #6AC2FF",
"O.	c #42B1FF",
"P.	c #EEF0F2",
"Q.	c #FEFEFE",
"R.	c #73C2F9",
"S.	c #3EAFFF",
"T.	c #4AB5FF",
"U.	c #62BFFF",
"V.	c #63BFFF",
"W.	c #4095D4",
"X.	c #63BDFC",
"Y.	c #64BFFE",
"Z.	c #64BFFF",
"`.	c #61BEFF",
" +	c #C9E7FC",
".+	c #72C3FC",
"++	c #46B3FF",
"@+	c #48B4FF",
"#+	c #5ABBFF",
"$+	c #5CBCFF",
"%+	c #64C0FF",
"&+	c #3C95D6",
"*+	c #5ABAFC",
"=+	c #5CBCFE",
"-+	c #68C1FF",
";+	c #74C6FF",
">+	c #B3DEFB",
",+	c #ADBFCE",
"'+	c #A9BBCB",
")+	c #085293",
"!+	c #FFFFFF",
"~+	c #7CC7FC",
"{+	c #50B7FF",
"]+	c #53B9FF",
"^+	c #58BBFF",
"/+	c #5EBDFF",
"(+	c #3B96D6",
"_+	c #56B9FC",
":+	c #58BAFE",
"<+	c #58BAFF",
"[+	c #67C1FF",
"}+	c #58AAE4",
"|+	c #3F9FDA",
"1+	c #40A8E2",
"2+	c #379AD5",
"3+	c #1466A5",
"4+	c #98D1F9",
"5+	c #5FBCFF",
"6+	c #79C7FF",
"7+	c #7DC7FB",
"8+	c #7EC7FB",
"9+	c #4A9AD6",
"0+	c #5EBBFC",
"a+	c #5EBCFE",
"b+	c #5DBCFF",
"c+	c #5CBBFF",
"d+	c #78C7FF",
"e+	c #54A6E0",
"f+	c #44AAE3",
"g+	c #49B2EA",
"h+	c #2076B3",
"i+	c #F6F6F6",
"j+	c #C5E3F9",
"k+	c #80C4F4",
"l+	c #4998D1",
"m+	c #368FC9",
"n+	c #368EC9",
"o+	c #2F82BF",
"p+	c #6EC2FC",
"q+	c #6EC3FE",
"r+	c #70C4FF",
"s+	c #3992CE",
"t+	c #42A3DA",
"u+	c #3997D0",
"v+	c #E3E3E3",
"w+	c #F2F7FB",
"x+	c #6FC3FD",
"y+	c #86C8F8",
"z+	c #3684BD",
"A+	c #3B8EC4",
"B+	c #3686BF",
"C+	c #7EC8FC",
"D+	c #80CAFE",
"E+	c #75C6FE",
"F+	c #3E8FCA",
"G+	c #3A8DC3",
"H+	c #398CC3",
"I+	c #2F80B8",
"J+	c #13588C",
"K+	c #B4B4B4",
"L+	c #FEFFFF",
"M+	c #9ED4F9",
"N+	c #76C7FF",
"O+	c #78C8FF",
"P+	c #7BC9FF",
"Q+	c #59A0D6",
"R+	c #3278AE",
"S+	c #4F94CA",
"T+	c #8ED0FC",
"U+	c #89CEFF",
"V+	c #84CCFE",
"W+	c #7DC7FA",
"X+	c #5DA9E1",
"Y+	c #94BEDF",
"Z+	c #B5BABF",
"`+	c #E4F2FB",
" @	c #82CBFE",
".@	c #88CEFF",
"+@	c #68ABDE",
"@@	c #28639A",
"#@	c #2A649A",
"$@	c #27639A",
"%@	c #4887BC",
"&@	c #99D0F8",
"*@	c #A0D6FE",
"=@	c #A0D8FF",
"-@	c #9CD7FF",
";@	c #8FD1FE",
">@	c #89CDFD",
",@	c #E8F2F9",
"'@	c #C0C0C0",
")@	c #BEE2FB",
"!@	c #94D3FF",
"~@	c #9BD4FC",
"{@	c #7EB8E4",
"]@	c #6EA6D4",
"^@	c #8BC1EA",
"/@	c #ADDCFD",
"(@	c #AFDEFF",
"_@	c #AEDEFF",
":@	c #ABDDFF",
"<@	c #A3DAFF",
"[@	c #9ED7FF",
"}@	c #B1DEFD",
"|@	c #F0F0F0",
"1@	c #E9E9E9",
"2@	c #FBFCFE",
"3@	c #ADDBFB",
"4@	c #A8DBFE",
"5@	c #ACDCFD",
"6@	c #B1DDFD",
"7@	c #B5DFFD",
"8@	c #B8E2FE",
"9@	c #BCE3FF",
"0@	c #BDE4FF",
"a@	c #BAE3FF",
"b@	c #B6E1FF",
"c@	c #B1DFFF",
"d@	c #ACDDFE",
"e@	c #EAF4FB",
"f@	c #C2C2C2",
"g@	c #F1F1F1",
"h@	c #F6FAFD",
"i@	c #B7E0FC",
"j@	c #C1E6FF",
"k@	c #C4E7FF",
"l@	c #C7E8FF",
"m@	c #C9E9FF",
"n@	c #C6E8FF",
"o@	c #C2E6FF",
"p@	c #DDF0FC",
"q@	c #F8FBFC",
"r@	c #CEE8FB",
"s@	c #CBEAFF",
"t@	c #CFEBFF",
"u@	c #D1ECFF",
"v@	c #D3EDFF",
"w@	c #D2EDFF",
"x@	c #CDEAFF",
"y@	c #E2F1FC",
"z@	c #E5E5E5",
"A@	c #FAFAFA",
"B@	c #EBF5FC",
"C@	c #D1EBFC",
"D@	c #D0EBFF",
"E@	c #D7EFFF",
"F@	c #DAF0FF",
"G@	c #DCF1FF",
"H@	c #DDF1FF",
"I@	c #DDF0FD",
"J@	c #EFF6FB",
"K@	c #ECECEC",
"L@	c #C3C3C3",
"M@	c #EDEDED",
"N@	c #F3F8FC",
"O@	c #E9F4FC",
"P@	c #E4F3FD",
"Q@	c #E8F5FE",
"R@	c #EDF6FC",
"S@	c #F0F8FD",
"T@	c #F2F3F4",
"U@	c #D8D8D8",
"V@	c #B7B7B7",
"W@	c #D9D9D9",
"X@	c #EBEBEB",
"Y@	c #E0E0E0",
"Z@	c #949494",
"                                                                ",
"                                                                ",
"                                                  . +           ",
"                                      @ # $ % & * = - ;         ",
"                              > , ' ) ! ~ ! { ] ^ /   (         ",
"                  _ : < [ } | 1 1 2 3 4 5             (         ",
"              6 7 8 9 0 a b c d e f g                 h         ",
"            i j k a l m n o p q r s t u v             h         ",
"          w r x y z A B C D E F G H I J K w           h         ",
"        L M N O P Q R S T U V W X Y Z `  ...+.        h         ",
"        @.#.$.%.&.*.=.-.;.>.,.'.).!.~.{.].^./.        h         ",
"      (._.:.<.[.}.|.1.2.3.4.5.6.7.8.9.0.a.b.c.d.      h         ",
"      e.f.g.h.i.j.k.l.m.m.m.c n.o.p.q.r.s.t.u.v.w.    h         ",
"      x.y.z.A.B.C.D.D.E.F.F.G.H.I.J.K.L.M.M.N.O.P.    h         ",
"      Q.R.S.T.U.U.U.U.U.U.V.B.W.X.Y.Z.Z.Z.h.`.$. +    h         ",
"      Q..+++@+#+$+$+$+$+$+$+%+&+*+=+$+$+$+$+-+;+>+,+'+)+        ",
"      !+~+{+{+]+^+^+^+^+/+%+-+(+_+:+<+<+<+[+m.}+|+1+2+3+        ",
"      Q.4+#+#+#+#+#+5+6+c 7+8+9+0+a+b+c+c+d+e+f+g+g+g+h+        ",
"      i+j+U.U.U.U.u.c k+l+m+n+o+p+q+D.B.N.r+s+t+t+t+u+          ",
"      v+w+x+C.C.E.m.y+z+A+A+A+B+C+D+m.k.i.E+F+G+H+I+J+          ",
"      K+L+M+N+O+P+r.Q+R+R+R+R+S+T+O 1.}.U+V+W+X+Y+Z+            ",
"        @.`+ @r..@}.+@@@#@$@%@&@*@=@=@-@5.b ;@>@,@              ",
"        '@Q.)@O !@9.~@{@]@^@)./@(@_@_@:@>.<@[@}@|@              ",
"          1@2@3@=@-.4@5@6@7@8@9@0@0@T a@b@c@d@e@f@              ",
"            g@h@i@_@y Q 0@j@k@l@m@m@Z n@o@0@p@1@                ",
"              |@q@r@0@o@l@s@t@u@v@C w@A x@y@|@                  ",
"                z@A@B@C@D@C E@F@G@H@H@I@J@K@                    ",
"                  L@M@x.N@O@P@Q@R@S@N@T@U@                      ",
"                      V@W@e.K@K@X@Y@_ Z@                        ",
"                                                                ",
"                                                                ",
"                                                                "};
