/* XPM */
static char * xfce4_mixer_xpm[] = {
"32 32 333 2",
"  	c None",
". 	c #000000",
"+ 	c #08090A",
"@ 	c #1D2329",
"# 	c #293139",
"$ 	c #444F5B",
"% 	c #495662",
"& 	c #3C4751",
"* 	c #171B1F",
"= 	c #181C20",
"- 	c #283038",
"; 	c #394450",
"> 	c #394550",
", 	c #2E3943",
"' 	c #5A6A78",
") 	c #778B9F",
"! 	c #232A31",
"~ 	c #010102",
"{ 	c #040506",
"] 	c #1B2127",
"^ 	c #2C343D",
"/ 	c #48596C",
"( 	c #6E87A3",
"_ 	c #6A829D",
": 	c #69819C",
"< 	c #68809B",
"[ 	c #3E4B59",
"} 	c #46525F",
"| 	c #8DA4BA",
"1 	c #323B44",
"2 	c #191F25",
"3 	c #252D36",
"4 	c #5F758D",
"5 	c #748FAD",
"6 	c #6E88A5",
"7 	c #647B95",
"8 	c #36414D",
"9 	c #758697",
"0 	c #869AAF",
"a 	c #090B0D",
"b 	c #010101",
"c 	c #1C2227",
"d 	c #323B45",
"e 	c #5E738B",
"f 	c #7590AE",
"g 	c #6B849F",
"h 	c #647A94",
"i 	c #38404A",
"j 	c #9EB0C3",
"k 	c #43505C",
"l 	c #030304",
"m 	c #0E1114",
"n 	c #2F3841",
"o 	c #475768",
"p 	c #738EAB",
"q 	c #728CA9",
"r 	c #6A839E",
"s 	c #3B4857",
"t 	c #82919F",
"u 	c #7A8D9E",
"v 	c #0F1215",
"w 	c #0A0D10",
"x 	c #2B333A",
"y 	c #333F4A",
"z 	c #758FAD",
"A 	c #4C5D70",
"B 	c #5B6874",
"C 	c #A6B8C9",
"D 	c #282F35",
"E 	c #19222C",
"F 	c #11161B",
"G 	c #0F1114",
"H 	c #5E7289",
"I 	c #728CAA",
"J 	c #506276",
"K 	c #46535E",
"L 	c #BACCDC",
"M 	c #424C55",
"N 	c #1B242E",
"O 	c #334758",
"P 	c #020304",
"Q 	c #040405",
"R 	c #343D47",
"S 	c #374452",
"T 	c #748EAC",
"U 	c #69829D",
"V 	c #576C84",
"W 	c #3A4752",
"X 	c #BACCDF",
"Y 	c #5C6976",
"Z 	c #11181D",
"` 	c #435D74",
" .	c #273745",
"..	c #050709",
"+.	c #131619",
"@.	c #2D353D",
"#.	c #5B7188",
"$.	c #6C86A2",
"%.	c #6B839F",
"&.	c #677F9A",
"*.	c #5E748D",
"=.	c #333E49",
"-.	c #B8CADD",
";.	c #6C7985",
">.	c #0F151A",
",.	c #415A71",
"'.	c #445F77",
").	c #19232B",
"!.	c #21262D",
"~.	c #2E373F",
"{.	c #3B4856",
"].	c #2A3A49",
"^.	c #324253",
"/.	c #5B718A",
"(.	c #60778F",
"_.	c #333D47",
":.	c #B1C5D8",
"<.	c #798998",
"[.	c #0C1014",
"}.	c #3D566B",
"|.	c #4A6882",
"1.	c #46637B",
"2.	c #0E1419",
"3.	c #2C343C",
"4.	c #445363",
"5.	c #657D97",
"6.	c #384959",
"7.	c #768798",
"8.	c #3E5975",
"9.	c #273D53",
"0.	c #435467",
"a.	c #5C7189",
"b.	c #323D48",
"c.	c #B7CADC",
"d.	c #768594",
"e.	c #0C1116",
"f.	c #3E576D",
"g.	c #35495C",
"h.	c #0B0E12",
"i.	c #3A4550",
"j.	c #5A6F86",
"k.	c #3F5060",
"l.	c #738494",
"m.	c #566F87",
"n.	c #304D6B",
"o.	c #2D4864",
"p.	c #2B3A4B",
"q.	c #566980",
"r.	c #3E4A56",
"s.	c #B9CBDE",
"t.	c #697683",
"u.	c #405A71",
"v.	c #2F4151",
"w.	c #111418",
"x.	c #364250",
"y.	c #637A94",
"z.	c #6D87A3",
"A.	c #424F5B",
"B.	c #A1AEBB",
"C.	c #35526F",
"D.	c #304C6A",
"E.	c #233445",
"F.	c #4C5E72",
"G.	c #4B5865",
"H.	c #BECFE0",
"I.	c #12191F",
"J.	c #435E76",
"K.	c #496680",
"L.	c #12181F",
"M.	c #010202",
"N.	c #252C32",
"O.	c #34404C",
"P.	c #6D86A2",
"Q.	c #5B7086",
"R.	c #596977",
"S.	c #ACB8C4",
"T.	c #2B3D4F",
"U.	c #5E6E7E",
"V.	c #BECEDF",
"W.	c #404A53",
"X.	c #1C2731",
"Y.	c #48657F",
"Z.	c #314455",
"`.	c #030405",
" +	c #2F373F",
".+	c #323D4A",
"++	c #4B5D70",
"@+	c #6F8092",
"#+	c #A3B3C2",
"$+	c #2A425B",
"%+	c #39495A",
"&+	c #414F60",
"*+	c #748493",
"=+	c #AFBFCF",
"-+	c #293038",
";+	c #253543",
">+	c #3C5469",
",+	c #0B0F13",
"'+	c #35414E",
")+	c #47586B",
"!+	c #7E8E9C",
"~+	c #ADB9C5",
"{+	c #283D53",
"]+	c #4C6075",
"^+	c #313B46",
"/+	c #9BABBB",
"(+	c #91A2B0",
"_+	c #15191D",
":+	c #354A5C",
"<+	c #3F586E",
"[+	c #0D1317",
"}+	c #2D343B",
"|+	c #3B4959",
"1+	c #566A81",
"2+	c #5F6E7C",
"3+	c #B2BDC7",
"4+	c #324F6D",
"5+	c #2C3946",
"6+	c #4F6174",
"7+	c #46515C",
"8+	c #B9CADA",
"9+	c #677685",
"0+	c #0A0C0F",
"a+	c #456079",
"b+	c #394F63",
"c+	c #070A0C",
"d+	c #303840",
"e+	c #35424F",
"f+	c #334455",
"g+	c #748495",
"h+	c #2A435D",
"i+	c #243342",
"j+	c #5A6F87",
"k+	c #303B47",
"l+	c #8596A6",
"m+	c #BBCDDE",
"n+	c #19242D",
"o+	c #020203",
"p+	c #2C333B",
"q+	c #313C49",
"r+	c #5B7189",
"s+	c #3E4F60",
"t+	c #374658",
"u+	c #50657B",
"v+	c #5B7088",
"w+	c #303A44",
"x+	c #B1C3D5",
"y+	c #9BADBF",
"z+	c #0A0D0F",
"A+	c #2F4252",
"B+	c #1C2126",
"C+	c #313D4A",
"D+	c #7089A6",
"E+	c #6F89A6",
"F+	c #404F60",
"G+	c #5F6D7B",
"H+	c #B8C9D9",
"I+	c #47525D",
"J+	c #141B22",
"K+	c #435D75",
"L+	c #3C5267",
"M+	c #131A20",
"N+	c #0A0C0E",
"O+	c #6B839D",
"P+	c #6C84A0",
"Q+	c #A0B0C1",
"R+	c #8FA1B2",
"S+	c #181C21",
"T+	c #2B3D4D",
"U+	c #496781",
"V+	c #324759",
"W+	c #0F1318",
"X+	c #2A333B",
"Y+	c #576B81",
"Z+	c #6E87A4",
"`+	c #617790",
" @	c #2D3740",
".@	c #8B9CAC",
"+@	c #B4C7D9",
"@@	c #2E363E",
"#@	c #11171C",
"$@	c #48657E",
"%@	c #324658",
"&@	c #0F151B",
"*@	c #3F4D5D",
"=@	c #425262",
"-@	c #515F6C",
";@	c #B7CADB",
">@	c #6E7D8D",
",@	c #334657",
"'@	c #34495C",
")@	c #141C23",
"!@	c #040608",
"~@	c #0C0E10",
"{@	c #1F252A",
"]@	c #5C7188",
"^@	c #657C96",
"/@	c #485767",
"(@	c #ACBDCD",
"_@	c #72808E",
":@	c #101316",
"<@	c #24313C",
"[@	c #0D1218",
"}@	c #1B1F24",
"|@	c #2F3A46",
"1@	c #5B6F87",
"2@	c #657D96",
"3@	c #34404D",
"4@	c #404C57",
"5@	c #899AAB",
"6@	c #14181D",
"7@	c #0C0F13",
"8@	c #12181E",
"9@	c #050708",
"0@	c #272E34",
"a@	c #2F3840",
"b@	c #384350",
"c@	c #414F5E",
"d@	c #394653",
"e@	c #333C46",
"f@	c #778797",
"g@	c #A4B4C5",
"h@	c #0B0D0F",
"i@	c #1E2329",
"j@	c #44515C",
"k@	c #647586",
"l@	c #72879B",
"m@	c #7B90A4",
"n@	c #606E7D",
"o@	c #30363D",
"p@	c #050608",
"q@	c #030404",
"r@	c #090C0F",
"                            .                                   ",
"                    . . . . . . . . .                           ",
"                  . . + @ # $ % & * . .                         ",
"                . . = - # ; > , ' ) ! ~ .                       ",
"              . { ] ^ / ( _ : < [ } | 1 . .                     ",
"            . . 2 3 4 5 5 6 : : 7 8 9 0 a .                     ",
"          . b c d e f f f f g : : h i j k l . .                 ",
"          . m n o p f f f f q r : : s t u v w ~                 ",
"        . . x y f f f f f f z ( : : A B C D E F .               ",
"        . G 1 H f f f f f f z I : : J K L M N O P .             ",
"      . Q R S T f f f f f f f f U < V W X Y Z `  ...            ",
"      . +.@.#.f f f f f f f I $.%.&.*.=.-.;.>.,.'.)..           ",
"      . !.~.f f f f f f 5 4 {.].^./.(._.:.<.[.}.|.1.2.b         ",
"    . . 3.4.f f f f f f 5.6.7.8.9.0.a.b.c.d.e.f.|.|.g.h.        ",
"    . P i.j.f f f f f f k.l.m.n.o.p.q.r.s.t.>.u.|.|.|.v.~       ",
"    . w.x.y.f f f f f z.A.B.C.n.D.E.F.G.H.Y I.J.|.|.|.K.L.M.    ",
"    . N.O.P.f f f f f Q.R.S.n.n.o.T./ U.V.W.X.Y.|.|.|.|.Z.`.    ",
"    .  +.+p f f f f f ++@+#+n.n.$+%+&+*+=+-+;+|.|.|.|.|.>+,+.   ",
"  . .  +'+f f f f f f )+!+~+n.n.{+]+^+/+(+_+:+|.|.|.|.|.<+[+.   ",
"  . . }+|+f f f f f f 1+2+3+4+D.5+6+7+8+9+0+a+|.|.|.|.|.b+c+    ",
"  . . d+e+f f f f f f 6 f+g+h+i+j+k+l+m+x n+|.|.|.|.|.|.].o+    ",
"    . p+q+z f f f f f f r+s+t+u+v+w+x+y+z+A+|.|.|.|.|.1.[.~     ",
"    . B+C+D+f f f f f f f E+: : F+G+H+I+J+K+|.|.|.|.L+M+.       ",
"    . N+=.O+f f f f f f T P+: 4 R Q+R+S+T+U+|.|.K.V+W+b         ",
"    . . X+Y+f f f f f f Z+: `+ @.@+@@@#@$@|.J.%@&@~ .           ",
"    . . * *@f f f f f 5 _ : =@-@;@>@0+,@Y.'@)@!@M.              ",
"      . ~@{@]@5 f f p g ^@/@7+(@_@:@<@Z.[@`..                   ",
"      . b }@|@1@f f P.2@3@4@C 5@6@7@8@9@.                       ",
"        . . 0@a@b@c@d@e@f@g@B h@. . .                           ",
"        . . Q i@j@k@l@m@n@o@p@. .                               ",
"            . . . q@r@P . . .                                   ",
"                . . . . .                                       "};
