/* XPM */
static char *monodoc_new[] = {
/* columns rows colors chars-per-pixel */
"32 32 121 2",
"   c #01BF01C101CE",
".  c #07BF07C60778",
"X  c #0C510C590C58",
"o  c #1325134613AF",
"O  c #1BDC1C0C1CE3",
"+  c #1F611FE32127",
"@  c #228B22CA23A5",
"#  c #277A27AD2791",
"$  c #255325972815",
"%  c #2B542BB82CA8",
"&  c #2F8D302432BB",
"*  c #331A33633451",
"=  c #354735C03952",
"-  c #3CE03D123BB2",
";  c #3D213DB041AE",
":  c #4331439B44F9",
">  c #48094837453D",
",  c #44B0452D482F",
"<  c #4CA84D0E4CE2",
"1  c #4C2B4CB051E3",
"2  c #526952D95375",
"3  c #540054C75A50",
"4  c #5C275C735A1A",
"5  c #5AFE5BEE622D",
"6  c #5F175FEE5FF9",
"7  c #62B963616408",
"8  c #6C3E6C8E668E",
"9  c #655066266B52",
"0  c #679168156B81",
"q  c #6C256CA96B1E",
"w  c #6FC970236CC8",
"e  c #712871C96E43",
"r  c #6D106DD672C7",
"t  c #6FED70DF7580",
"y  c #739D744374C8",
"u  c #777377FA77F4",
"i  c #7A427AD7768F",
"p  c #7555764D7D3E",
"a  c #76D678267CE8",
"s  c #7BA97C427A04",
"d  c #7FC9805E7C20",
"f  c #825082617BB1",
"g  c #7CF87DDB8647",
"h  c #831583F2846B",
"j  c #896C89A78204",
"k  c #834384328B27",
"l  c #86E2880D8EEF",
"z  c #8B9A8C798BD6",
"x  c #8F7E90D98F78",
"c  c #92A493558CD2",
"v  c #8C308D28951F",
"b  c #8EA38FA59B45",
"n  c #8F8A903D93F1",
"m  c #8F68907E9BD6",
"M  c #92E9940494D2",
"N  c #9A559AC293F8",
"B  c #9128925C9C7D",
"V  c #97F29990983A",
"C  c #9D8B9ECC9C8D",
"Z  c #A2FCA3D59D8A",
"A  c #AA2CAA2B9FB4",
"S  c #9C639D68A3F8",
"D  c #9E1D9F54A941",
"F  c #9F60A058A6E8",
"G  c #9FF3A0F8A9F5",
"H  c #A3DBA51BA420",
"J  c #A73DA913A6D7",
"K  c #AB3AABF3A4EB",
"L  c #A27AA37AAA40",
"P  c #A76BA95AA832",
"I  c #AC34AD68AA83",
"U  c #B013B0EDABB2",
"Y  c #B1E5B201A754",
"T  c #B2D1B348AACF",
"R  c #A4D4A628B595",
"E  c #AB1EAC13B31B",
"W  c #A969AAA9B8A0",
"Q  c #AF6BB051B3D1",
"!  c #B379B452B49C",
"~  c #BA1EBAFEB775",
"^  c #B1EFB31DBBA2",
"/  c #BA05BB2ABFDD",
"(  c #BFC7C044B8FF",
")  c #C06BC18DBB8B",
"_  c #B3D6B50CC371",
"`  c #BC2BBD61CBE0",
"'  c #BEDEC058D11B",
"]  c #C952CA30C392",
"[  c #C3BCC4FFCC66",
"{  c #CD7DCE5ECDDD",
"}  c #D351D41FCEFD",
"|  c #C4CAC68CD77D",
" . c #CB2BCC7ED609",
".. c #CDA1CEE8DEE9",
"X. c #D27ED36ED595",
"o. c #DCEDDDD4D7C6",
"O. c #D827D946DCCD",
"+. c #DB6ADC52DB01",
"@. c #DFFEE0C3DA91",
"#. c #E131E23ADDA5",
"$. c #D03DD1BFE177",
"%. c #D362D4BFE3CA",
"&. c #D7A9D993E458",
"*. c #DD65DEAFE4A9",
"=. c #D583D707E9FB",
"-. c #DCA3DE0DEED4",
";. c #DC00DDA7F13E",
":. c #E01BE158E708",
">. c #DF29E0EDED1F",
",. c #E05BE20CF0D3",
"<. c #E43AE541E5C3",
"1. c #E773E877E4B9",
"2. c #EB07EC03E527",
"3. c #E43EE5F4EDE2",
"4. c #E7E8E8F0EDD0",
"5. c #EB0BEC0DEE2E",
"6. c #EFCEF0D0ED65",
"7. c #F263F364ED7E",
"8. c #EC0BED4EF212",
"9. c #F48BF590F120",
"0. c None",
/* pixels */
"0.0.0.0.0.0.0.0.0.0.0.  0.0.0.0.0.0.0.0.0.0.0.0.0.0.0.0.0.0.0.0.",
"0.0.0.0.0.0.0.0.0.0.0.X X   0.0.0.0.0.0.0.0.0.0.0.0.0.0.0.0.0.0.",
"0.0.0.0.0.0.0.0.0.0.X 8 f %   0.0.0.0.0.0.0.0.0.0.0.0.0.0.0.0.0.",
"0.0.0.0.0.0.0.0.0.  > A Y N > X 0.0.0.0.0.0.0.0.0.0.0.0.0.0.0.0.",
"0.0.0.0.0.0.0.0.  # N Y Y Y A 8 O   0.0.0.0.0.0.0.0.0.0.0.0.0.0.",
"0.0.0.0.0.0.0.0.o d Y Y Y Y Y Y f *   0.0.0.0.0.0.0.0.0.0.0.0.0.",
"0.0.0.0.0.0.0.. 4 Y Z f i i N K T Z 2 o   0.0.0.0.0.0.0.0.0.0.0.",
"0.0.0.0.0.0.  = Z C e Z ) Y f e N Y A e @   0.0.0.0.0.0.0.0.0.0.",
"0.0.0.0.0.  O z C w T 7.9.9.2.) w N K K c - .   0.0.0.0.0.0.0.0.",
"0.0.0.0.0.X e Z q T 7.7.7.7.7.) < w N K I Z 4 o   0.0.0.0.0.0.0.",
"0.0.0.0.  1 H y J 7.7.7.7.7.} e H K u y M K K d # . 0.0.0.0.0.0.",
"0.0.0.  % V j u <.6.6.7.6.6.#.o.6.6.1.! u d J K M > X   0.0.0.0.",
"0.0.  o h I 7 4 <.5.5.6.5.7.6.6.6.6.6.7.o.z y H K H 0 O   0.0.0.",
"0.0.. 5 H M 7 ! 5.5.5.5.5.5.5.5.5.4.X.{ ~ h = i J J J h $   0.0.",
"0.  : C H 0 ! 5.5.5.5.5.5.5.5.5.5.X.t 2 2 2 y 0 z J I z O 0.0.0.",
"  X h L L 7 { 8.6.4.*.4.5.5.4.4.5.5.<.O.O.4.8.[ q C C :   0.0.0.",
"0.  * k H h a E E h n 3.4.4.4.4.4.4.4.4.4.5.8.&.t h 6 . 0.0.0.0.",
"0.0.  O 0 S k y 3 w  .3.4.3.4.3.4.4.4.4.5.*.I t a y o   0.0.0.0.",
"0.0.0.  X , n D y ^ 3.3.3.4.3.3.4.4.3.:.Q a t B n % @ o 0.0.0.0.",
"0.0.0.  O O # r r O.,.3.3.3.3.3.3.:._ a q l H S , * Z 7 0.0.0.0.",
"0.0.0.0.o 9 ; X 2 =.>.>.3.3.>.3.*.v 6 l D G G 0 O z #.o.2   0.0.",
"0.0.0.0.  ; R 9 O 5 | >.>.-.-.3.=.r b D G G g + 8 { #.~ 4 . 0.0.",
"0.0.0.0.0.. g | k % * G =.-.-.-.>.l g D D m = , T J 7 O .   0.0.",
"0.0.0.0.0.0.+ ^ $.F : + g ..3.-.-.` 9 S S 1 $ y 2 O   0.0.0.0.0.",
"0.0.0.0.0.0.0.3 =.%.W 0 O 1 _ ;.;.$.t b r o O o   0.0.0.0.0.0.0.",
"0.0.0.0.0.0.0.o m ;.=.` k & % b =.=.S 5 @     0.0.0.0.0.0.0.0.0.",
"0.0.0.0.0.0.0.0.* ` ;.=.` R 1 O 9 | W @   0.0.0.0.0.0.0.0.0.0.0.",
"0.0.0.0.0.0.0.0.. r =.;.;.` b &   ; 3 X 0.0.0.0.0.0.0.0.0.0.0.0.",
"0.0.0.0.0.0.0.0.0.O R =.W 9 O .     . 0.0.0.0.0.0.0.0.0.0.0.0.0.",
"0.0.0.0.0.0.0.0.0.  = 3 O   0.0.0.0.0.0.0.0.0.0.0.0.0.0.0.0.0.0.",
"0.0.0.0.0.0.0.0.0.0.    0.0.0.0.0.0.0.0.0.0.0.0.0.0.0.0.0.0.0.0.",
"0.0.0.0.0.0.0.0.0.0.0.0.0.0.0.0.0.0.0.0.0.0.0.0.0.0.0.0.0.0.0.0."
};
