/* XPM */
static char *amarok[] = {
/* columns rows colors chars-per-pixel */
"32 32 182 2",
"   c #000000",
".  c #020508",
"X  c #03090E",
"o  c #0E0E0E",
"O  c #050A10",
"+  c #09131E",
"@  c #101112",
"#  c #14191F",
"$  c #0A1622",
"%  c #0B1926",
"&  c #0D1C2C",
"*  c #0E1F30",
"=  c #161E26",
"-  c #0F2032",
";  c #18222D",
":  c #102336",
">  c #12273C",
",  c #1A2632",
"<  c #1C2B3B",
"1  c #142C44",
"2  c #162F48",
"3  c #16304A",
"4  c #18324E",
"5  c #183450",
"6  c #1B3A5A",
"7  c #20344A",
"8  c #223A52",
"9  c #1E4064",
"0  c #22456B",
"q  c #23486E",
"w  c #28496F",
"e  c #244A72",
"r  c #244D78",
"t  c #2B4C72",
"y  c #26517E",
"u  c #2C5077",
"i  c #2B537B",
"p  c #325175",
"a  c #355479",
"s  c #33587E",
"d  c #395575",
"f  c #38567A",
"g  c #3B597C",
"h  c #405C7D",
"j  c #49627D",
"k  c #52677E",
"l  c #275280",
"z  c #285685",
"x  c #295788",
"c  c #2D5982",
"v  c #2A598A",
"b  c #2C5D91",
"n  c #355C83",
"m  c #395E83",
"M  c #2E6094",
"N  c #336189",
"B  c #3A658C",
"V  c #336395",
"C  c #356892",
"Z  c #386798",
"A  c #3C6C93",
"S  c #3C6A9A",
"D  c #3D729A",
"F  c #425D80",
"G  c #456083",
"H  c #41678D",
"J  c #496485",
"K  c #4C6688",
"L  c #4F6889",
"P  c #466E93",
"I  c #426E9B",
"U  c #417096",
"Y  c #42739B",
"T  c #47789F",
"R  c #4B749C",
"E  c #506782",
"W  c #536A84",
"Q  c #536C8B",
"!  c #586C82",
"~  c #5D7084",
"^  c #5D748D",
"/  c #51769D",
"(  c #55799E",
")  c #5A7190",
"_  c #447AA1",
"`  c #457CA8",
"'  c #4F78A2",
"]  c #5C7EA1",
"[  c #627B96",
"{  c #6A7F96",
"}  c #4681AB",
"|  c #4984AB",
" . c #4E8BB2",
".. c #5082A7",
"X. c #5084AA",
"o. c #5E80A4",
"O. c #5B81A9",
"+. c #548CB2",
"@. c #5390B6",
"#. c #5594BD",
"$. c #5B94BC",
"%. c #5E99BE",
"&. c #6C8197",
"*. c #69809B",
"=. c #758699",
"-. c #778A9D",
";. c #7C8691",
":. c #798A9D",
">. c #6080A2",
",. c #6A86A3",
"<. c #6E8CAB",
"1. c #608FB2",
"2. c #7389A3",
"3. c #7B91A6",
"4. c #7B9AB9",
"5. c #579AC1",
"6. c #5B9EC5",
"7. c #669EC2",
"8. c #68A8CC",
"9. c #6AACD0",
"0. c #72ABCD",
"q. c #78AFCE",
"w. c #71B0D2",
"e. c #7BB4D4",
"r. c #858F9B",
"t. c #87909A",
"y. c #8D949B",
"u. c #94989C",
"i. c #9D9D9D",
"p. c #8493A3",
"a. c #8395A8",
"s. c #8798A9",
"d. c #859FB9",
"f. c #9199A3",
"g. c #8EA2B7",
"h. c #8CA5BF",
"j. c #96A2AB",
"k. c #9BA4AD",
"l. c #9DA9B5",
"z. c #A3A3A3",
"x. c #A6A9AC",
"c. c #ACACAC",
"v. c #A3ABB2",
"b. c #A4AEB8",
"n. c #AAAEB1",
"m. c #ADB0B3",
"M. c #ADB4BB",
"N. c #B3B3B3",
"B. c #B0B7BE",
"V. c #B6B8B9",
"C. c #BBBBBB",
"Z. c #8FA7C1",
"A. c #87B6D1",
"S. c #85BBD7",
"D. c #A2B1C1",
"F. c #AFBBC7",
"G. c #ADBAC8",
"H. c #B2BCC7",
"J. c #B0BCCA",
"K. c #B8BDC3",
"L. c #93C2DA",
"P. c #9EC9DE",
"I. c #BFC3C7",
"U. c #B0C1D3",
"Y. c #AFD1E1",
"T. c #B4D6E4",
"R. c #C3C3C4",
"E. c #C1C4C8",
"W. c #CCCCCC",
"Q. c #C1CEDC",
"!. c #CFD4D9",
"~. c #D3D3D3",
"^. c #D6DADE",
"/. c #DBDBDB",
"(. c #DAE0E6",
"). c #E2E3E3",
"_. c #E2E5E8",
"`. c #ECECEC",
"'. c #EAEEF1",
"]. c #F4F4F4",
"[. c #FBFBFB",
"{. c None",
/* pixels */
"{.{.{.{.{.{.{.{.{.{.{.o # , 7 8 8 < ; @ o {.{.{.{.{.{.{.{.{.{.{.",
"{.{.{.{.{.{.{.{.{.X 4 l M I / ( ( R Z v 9 *     {.{.{.{.{.{.{.{.",
"{.{.{.{.{.{.{.X 6 M ( s.n.N.N.N.N.N.N.k.,.S r &   {.{.{.{.{.{.{.",
"{.{.{.{.{.{.- v ( k.N.C.W.W.~.~.W.R.R.V.N.N.3.Z 6 .   {.{.{.{.{.",
"{.{.{.{.  3 V a.N.C.~.)./././.~.~.~.W.W.R.V.N.n./ r X   {.{.{.{.",
"{.{.{.{.2 Z j.N.W./././././.~.~.~.W.W.W.W.R.K.N.N.o.y .   {.{.{.",
"{.{.{.& V j.N.W.).)././.~.~.~.~.~.W.W.W.W.R.n.R.C.V.] q     {.{.",
"{.{.. v a.N.R.)././././.~./.~.~.W.~.W.W.R.E q n.R.C.V.I 1   {.{.",
"{.{.6 ( N.C././././.~.~.~.~.~.~.W.~.~.b.j ^ p j R.C.C.v.v X   {.",
"{.X b k.N.W././././.~./.~.~.~.~.~.W.:.e Q ) K k x.R.R.R.o.5   {.",
"{.4 ' N.V././.~.~./.~.~.~.~.~.~.E.J p F ) ) p y.i.R.R.R.b.v   . ",
"o r s.N.R./.~.~.~.~.~.~.~.W.I.B.h d s Q Q K ! z.c.W.W.R.R.I %   ",
"@ M n.N.W.~.~.~.~.~.~.E.Q g g f p w L Q Q t u.z.W.W.W.W.W.<.4 . ",
", S N.N.W.~.~.~.~.~.K.h G &.D.Q 0 F K L j j z.C.l.M.~.W.W.g.0 . ",
"< / N.N.W.W.W.W.W.M.f h [ [.'.a g K G L p 0 d g w &.~.~.~.M.0 . ",
"8 ( N.N.W.W.W.p.Q w p w (.F.f f F F G K g a g d j t.c.!.~.K.i . ",
"7 ( N.N.R.R.{ 2.F 0 0 Q H.e g g F F F F G g g u.c.n.C././.H.r . ",
", I N.m.f.^ h 0 0 0 0 d t a f g g F F F p ! c.N.W./.)././.D.q   ",
"= V y.h f t d m p 0 0 q p p d a g g F p ! N.C.).).).).).).d.6   ",
"o x :.t w t a d t 0 q t p a d s f f a 0 c.C.).`.`.`.).).).] , . ",
"o 8 ,.r.q 0 q 0 0 q t u p s s g m f e g V./.`.`.`.`.`._.^.M X . ",
"{.% Z m.;.q 0 0 q e i i s N h N m s r ^ C.`.].].].].`.`.Z.9   . ",
"{.  r 2.N.! q q t n c m N B B B B c s =.R.].].].].].]._.S $   {.",
"{.. $ Z =.q q u m c H B A U U U B B n p.~.].].[.[.[.].4.9     {.",
"{.{.  6 z q r i c P U Y Y T _ _ D Y N j.~.].[.[.[.].U.v X   {.{.",
"{.{.{.. e y r c A Y T ..| @. . .| ..D l./.`.].].[.Q.V %     {.{.",
"{.{.{.  . e c N A D @.@.8.6.6.%.%.+.T n./.`.].].J.Z *     {.{.{.",
"{.{.{.{.  . 9 M D X.@.6.q.w.w.8.8.%.| N./.`.(.4.v %     {.{.{.{.",
"{.{.{.{.{.    > N } #.9.S.L.L.S.w.0.@.c.~.h.S 9 X     {.{.{.{.{.",
"{.{.{.{.{.{.    X 2 C $.A.Y.T.P.q.#.` ' b 0 +       {.{.{.{.{.{.",
"{.{.{.{.{.{.{.{.      # < 9 p w w 0 5 - .       {.{.{.{.{.{.{.{.",
"{.{.{.{.{.{.{.{.{.{.  . .   . .   . . .   . {.{.{.{.{.{.{.{.{.{."
};
