/* XPM */
static char *amarok-16[] = {
/* columns rows colors chars-per-pixel */
"16 16 188 2",
"   c black",
".  c #010203",
"X  c #010304",
"o  c #030405",
"O  c #030406",
"+  c #05070A",
"@  c #03080C",
"#  c #05090D",
"$  c #04090F",
"%  c #050A10",
"&  c #070F17",
"*  c #071019",
"=  c #0A1521",
"-  c #0B1825",
";  c #0D1824",
":  c #0D1926",
">  c #0F1A26",
",  c #0F1E2C",
"<  c #0E1F30",
"1  c #101D2A",
"2  c #0F2133",
"3  c #102030",
"4  c #132436",
"5  c #132639",
"6  c #142638",
"7  c #17293B",
"8  c #14283C",
"9  c #152A40",
"0  c #193047",
"q  c #193149",
"w  c #19324B",
"e  c #203A55",
"r  c #223D59",
"t  c #26415E",
"y  c #234562",
"u  c #22456C",
"i  c #23486F",
"p  c #26486E",
"a  c #284360",
"s  c #294663",
"d  c #244A71",
"f  c #264F7A",
"g  c #294A70",
"h  c #2A4B71",
"j  c #2D4D73",
"k  c #29537B",
"l  c #2D5178",
"z  c #304F74",
"x  c #35506D",
"c  c #325176",
"v  c #325277",
"b  c #335377",
"n  c #355377",
"m  c #365575",
"M  c #37567A",
"N  c #32597F",
"B  c #33587E",
"V  c #375A7F",
"C  c #385472",
"Z  c #395572",
"A  c #3A5675",
"S  c #38567A",
"D  c #3B5876",
"F  c #3A597A",
"G  c #3B587A",
"H  c #3B5A7B",
"J  c #3B587C",
"K  c #405C7F",
"L  c #445E7F",
"P  c #46607E",
"I  c #2B5781",
"U  c #385C82",
"Y  c #376088",
"T  c #37628A",
"R  c #3A688F",
"E  c #3E6A90",
"W  c #3F6B92",
"Q  c #415D80",
"!  c #435E81",
"~  c #445F80",
"^  c #445F82",
"/  c #466686",
"(  c #476687",
")  c #4A6486",
"_  c #4E6989",
"`  c #4F6E8F",
"'  c #42769E",
"]  c #46769D",
"[  c #50698A",
"{  c #506A89",
"}  c #516A89",
"|  c #506F8F",
" . c #546D8C",
".. c #556E8E",
"X. c #5B7088",
"o. c #5B718A",
"O. c #587591",
"+. c #5B7491",
"@. c #5E7B9A",
"#. c #487BA2",
"$. c #6F7D8C",
"%. c #607790",
"&. c #637B97",
"*. c #627E9B",
"=. c #6B7D90",
"-. c #4980A8",
";. c #4A83AA",
":. c #5491B8",
">. c #5693B9",
",. c #5E99BE",
"<. c #658DAC",
"1. c #6A87A0",
"2. c #6A87A4",
"3. c #6D89A7",
"4. c #758BA2",
"5. c #758FA9",
"6. c #7E8FA1",
"7. c #7F93A7",
"8. c #7997AC",
"9. c #63A5CA",
"0. c #6CA7CA",
"q. c #6CA8CB",
"w. c #8B949E",
"e. c #8093A7",
"r. c #8594A4",
"t. c #8395A8",
"y. c #8D99A6",
"u. c #8F9DAB",
"i. c #93A0AD",
"p. c #9AA0A8",
"a. c #9EA7B1",
"s. c #A5A6A7",
"d. c #A3ACB7",
"f. c #A9AFB7",
"g. c #A5B2BF",
"h. c #B0B1B2",
"j. c #B2B2B2",
"k. c gray70",
"l. c #B1B3B6",
"z. c #B4B5B6",
"x. c #B6B6B6",
"c. c #BBBBBB",
"v. c #B8BBBE",
"b. c #BCBCBC",
"n. c #BDBEBF",
"m. c gray75",
"M. c #A8B8C9",
"N. c #B9BDC2",
"B. c #BABEC3",
"V. c #93C1D9",
"C. c #9BC7DD",
"Z. c #BFC5CB",
"A. c #B9C4D0",
"S. c #C1C1C1",
"D. c #C3C3C3",
"F. c #C6C6C6",
"G. c gray78",
"H. c #C5C8CB",
"J. c gray79",
"K. c #CACACA",
"L. c #CBCBCB",
"P. c gray80",
"I. c #CDCDCD",
"U. c #CECECE",
"Y. c gray81",
"T. c #C1C8D0",
"R. c #D0D0D0",
"E. c gray82",
"W. c #D1D1D2",
"Q. c #D2D2D2",
"!. c LightGray",
"~. c gray83",
"^. c #D5D5D5",
"/. c #D7D7D7",
"(. c #DADADA",
"). c gray86",
"_. c gainsboro",
"`. c gray87",
"'. c #CFD8E1",
"]. c #D0D9E1",
"[. c #E4E4E4",
"{. c gray90",
"}. c gray91",
"|. c gray92",
" X c #EAEDF1",
".X c gray94",
"XX c gray97",
"oX c None",
/* pixels */
"oXoXoXoXX 6 a D Z r 1   oXoXoXoX",
"oXoXoX2 | i.n.D.n.l.t.F * oXoXoX",
"oXoXw e.G.).).~.Q.L.D.z.*.- oXoX",
"oX< 7.K._.(.(.~.Q.P.f.y.c.@.% oX",
"X ` b._.(./.~.~.Q.r. .L b.v.s   ",
"4 u.L./.~.~.Q.H.+.!  .$.z.G.5.# ",
"t k.Y.Q.Q.d._ +.c _ ~ s.B.P.g.3 ",
"Z k.P.B.6.n A.&.L ) z F o.G.H.9 ",
"x j.d._ h b _ J K ~ ! w.D.~.T.8 ",
"e X.j S h p c M J c p.).{.{.M.: ",
"> 4.D u u l N U J H R..X.X|.3.O ",
"  C =.d I T E E T O.`.XXXX].w   ",
"oX& f k E ] -.;.#.1.[.XX X/   oX",
"oXoX= I ' >.q.9.,.8.{.]./ @   oX",
"oXoXoX# y :.V.C.0.<.2.w X   oXoX",
"oXoXoXoX  + , 7 4 ; O   oXoXoXoX"
};
