/* XPM */
static char *gcstar_logo[] = {
/* columns rows colors chars-per-pixel */
"32 32 253 2",
"   c #05101A",
".  c #195082",
"X  c #255683",
"o  c #2772B9",
"O  c #2872B9",
"+  c #1A84EC",
"@  c #1F89ED",
"#  c #2F85D5",
"$  c #2A84DA",
"%  c #3884CC",
"&  c #3D88C8",
"*  c #3185D4",
"=  c #3189DD",
"-  c #388ED0",
";  c #3B8EDF",
":  c #3D91CC",
">  c #2385E2",
",  c #2087ED",
"<  c #238BED",
"1  c #2887E1",
"2  c #2C8AE1",
"3  c #2A8DED",
"4  c #2391ED",
"5  c #2B91ED",
"6  c #328EE6",
"7  c #3293ED",
"8  c #3399EE",
"9  c #3E96E5",
"0  c #3995EC",
"q  c #3B98E6",
"w  c #3C99ED",
"e  c #3799F0",
"r  c #3D9AF0",
"t  c #3FA0F1",
"y  c #4C86B8",
"u  c #5086B4",
"i  c #669D9E",
"p  c #738EA2",
"a  c #6DA09A",
"s  c #75A28D",
"d  c #71A298",
"f  c #60A0B6",
"g  c #4085C5",
"h  c #4389C9",
"j  c #4695CB",
"k  c #439ADF",
"l  c #4A9CDD",
"z  c #4095E2",
"x  c #459BE5",
"c  c #429CEC",
"v  c #4B9DE4",
"b  c #499EEA",
"n  c #409AF0",
"m  c #519DE1",
"M  c #509FE8",
"N  c #4EA0DE",
"B  c #55A2D3",
"V  c #51A0D9",
"C  c #5BA3D2",
"Z  c #5BA4DC",
"A  c #46A0ED",
"S  c #4CA1E4",
"D  c #4CA1EC",
"F  c #44A2F0",
"G  c #4BA3F0",
"H  c #52A1E3",
"J  c #53A5EC",
"K  c #5BA5E5",
"L  c #59A7EC",
"P  c #5EA9E5",
"I  c #5BA9EB",
"U  c #51A5F1",
"Y  c #56A9F2",
"T  c #59ACF2",
"R  c #62A7CC",
"E  c #60A7D3",
"W  c #61A5DE",
"Q  c #62A8D0",
"!  c #62A9D8",
"~  c #6BADD5",
"^  c #6AA9DC",
"/  c #71AAD8",
"(  c #74B1D5",
")  c #73B2DB",
"_  c #7AB4D4",
"`  c #61A6E1",
"'  c #62A9E5",
"]  c #63ADEA",
"[  c #69ADE0",
"{  c #61ADF2",
"}  c #68AFF2",
"|  c #69B0EA",
" . c #63B2F3",
".. c #6CB5F3",
"X. c #6DB8F4",
"o. c #75B4E4",
"O. c #70B7F4",
"+. c #73BAF4",
"@. c #7AB7F0",
"#. c #7DBEF4",
"$. c #7DC0F5",
"%. c #8C9576",
"&. c #899379",
"*. c #8AA277",
"=. c #90A671",
"-. c #AB8F55",
";. c #A5945B",
":. c #B28850",
">. c #BE9D41",
",. c #ADAB53",
"<. c #BEA141",
"1. c #B9A846",
"2. c #BFBB41",
"3. c #BBBA4A",
"4. c #B4AF7E",
"5. c #C1AE3E",
"6. c #D6AF2D",
"7. c #DCA322",
"8. c #DEA12B",
"9. c #ED9911",
"0. c #FD8900",
"q. c #FD8E0A",
"w. c #F98F11",
"e. c #F1950F",
"r. c #FD9200",
"t. c #FD9C00",
"y. c #F79219",
"u. c #FD9313",
"i. c #E18F2B",
"p. c #EE9D37",
"a. c #F49421",
"s. c #F09B32",
"d. c #E2AF1C",
"f. c #ECA118",
"g. c #EABF13",
"h. c #FDA300",
"j. c #FDAC00",
"k. c #FDB300",
"l. c #FDBB00",
"z. c #FDA133",
"x. c #D19242",
"c. c #D6A059",
"v. c #D4BB5E",
"b. c #C9A675",
"n. c #DDB67A",
"m. c #DDB87F",
"M. c #E6A754",
"N. c #FDAC48",
"B. c #FBAF55",
"V. c #FDB646",
"C. c #FDBB4B",
"Z. c #FDBD5A",
"A. c #FCB661",
"S. c #FDBA60",
"D. c #DBC523",
"F. c #EFCC0E",
"G. c #EBC013",
"H. c #E8C816",
"J. c #FDC300",
"K. c #FDCC00",
"L. c #FDD000",
"P. c #F7CA47",
"I. c #FDC55A",
"U. c #F7D357",
"Y. c #F8C66D",
"T. c #F9CC6C",
"R. c #F9CC78",
"E. c #F7D873",
"W. c #909083",
"Q. c #9FAF90",
"!. c #8EB4A1",
"~. c #87B3BE",
"^. c #AEA488",
"/. c #A5AF9E",
"(. c #B0A185",
"). c #BDBB9B",
"_. c #87A7C2",
"`. c #88B4CC",
"'. c #8BB8CC",
"]. c #80B7D9",
"[. c #95BCC9",
"{. c #81BDF3",
"}. c #BAC7BD",
"|. c #83C3F6",
" X c #89C4F5",
".X c #89C8F6",
"XX c #9AC6E5",
"oX c #96CBF7",
"OX c #94CDF8",
"+X c #9ACCF5",
"@X c #96D0F8",
"#X c #9BD3F8",
"$X c #A0C6DD",
"%X c #A8CCD1",
"&X c #BDC2C5",
"*X c #B3D3D3",
"=X c #A2CAE9",
"-X c #A4D3F2",
";X c #A0D5F8",
":X c #A6D9F9",
">X c #ADD4F5",
",X c #A9D6F8",
"<X c #AEDAF1",
"1X c #ABDBF9",
"2X c #B4D8E9",
"3X c #BDDBE6",
"4X c #B2DBF6",
"5X c #B3DCF9",
"6X c #B7E1F7",
"7X c #B4E0FA",
"8X c #B8E0FA",
"9X c #C6B896",
"0X c #CCBD9A",
"qX c #D7B682",
"wX c #DAB884",
"eX c #DBBE8D",
"rX c #D2BF97",
"tX c #C9CDBF",
"yX c #C2D1BA",
"uX c #CAD1B5",
"iX c #D2C3A0",
"pX c #D6CCB1",
"aX c #DCE1BD",
"sX c #FDCB87",
"dX c #FECC8E",
"fX c #FCD180",
"gX c #FAD49F",
"hX c #FDD891",
"jX c #F1CFA8",
"kX c #FCDDAC",
"lX c #F2D8BC",
"zX c #FDDEBD",
"xX c #F6E19E",
"cX c #FAE39B",
"vX c #F9E89F",
"bX c #EDE2AD",
"nX c #F3E3A3",
"mX c #F6E3AC",
"MX c #FBE3A3",
"NX c #FBE2AC",
"BX c #FDE8A5",
"VX c #FDEAA9",
"CX c #FCE2B4",
"ZX c #FDE1BA",
"AX c #C0D6DA",
"SX c #D1D8D1",
"DX c #C1DFF7",
"FX c #D4E0C9",
"GX c #C2E2F3",
"HX c #C6E3F8",
"JX c #CBE4F8",
"KX c #D5E9F8",
"LX c None",
/* pixels */
"LXLXLXLXLXLXLXLXLXLXLXLXm m e 8 7 7 9 9 LXLXLXLXLXLXLXLXLXLXLXLX",
"LXLXLXLXLXLXLXLXLXLXm 9 < < 3 5 4 4 @ , 6 c LXLXLXLXLXLXLXLXLXLX",
"LXLXLXLXLXLXLXLXm 3 < 8 T X.+.+.X.X.Y b e 4 4 0 LXLXLXLXLXLXLXLX",
"LXLXLXLXLXLXLXZ , < Y $..X.X$.X.T T T T G n 3 4 c LXLXLXLXLXLXLX",
"LXLXLXLXLXLXb 3 w +.#X@X+.Z h g * $ , 3 w G n e < 5 LXLXLXLXLXLX",
"LXLXLXLXLX` 3 3 #.#X#Xo.W.:.x.c.b.(.p * @ 8 b n 5 < b LXLXLXLXLX",
"LXLXLXLXK 3 7 O.1X-X(.i.N.sXCXZXZXzXZXjX_.6 6 U t 5 < x LXLXLXLX",
"LXLXLXLX0 < L #X<X9Xa.Z.kXzXZXCXzXzXzXzXlX&X6 n  .8 4 5 LXLXLXLX",
"LXLXLXJ 3 5 @X7X0Xa.dXZXzXNXZXCXCXCXCXzXZXkXtXv ] X.5 4 S LXLXLX",
"LXLXK 0 < G 5X5Xp.B.ZXZXzXNXCXCXkXNXNXNXCXkXkX}.c  XF @ 8 I LXLX",
"LXLXK 3 7 #.4X0Xz.jXCXCXNXNXBXMXxXMXnXMXMXMXMXBX`.@.|.8 4 P LXLX",
"LXLXc 3 w oX3XM.Z.NXNXVXMXMXMXBXcXgXvXgXMXMXBXMXuXo.>XU 4 S LXLX",
"LXLXr < U :XSXy.hXVXxXnXvXnXxXcXcXcXcXcXvXBXBXVXmX'.KX#.4 q LXLX",
"LXLX6 < { 1XiXw.hXVXgXMXbXFXaXnXvXcXcXcXBXBXVXVXVXyXJX,X4 5 LXLX",
"LXLX1 , ..8XwX0.Z.fXR.Y.[.) [ /.V.C.I.T.%X*XxXBXVXnX<XHX4 4 LXLX",
"LXLX1 , O.5Xm.0.q.u.u.u.= + @ u r.t.h.7.5 q v.P.E.U.=XJX5 4 LXLX",
"LXLX2 , ..8XwX0.0.0.0.0.$ + + # t.t.h.<.+ + 1.l.l.J.$XDX5 5 LXLX",
"LXLX1 , } 5XeX0.0.0.0.0.y + + & t.h.j.<.+ + 5.J.K.K.XX>X5 5 LXLX",
"LXLX6 , b 1XpXy.0.0.0.0.-.# > &.h.j.k.d.> > g.K.K.H.+X X8 5 LXLX",
"LXLXe < n oXSXs.0.0.r.r.9.;.%.7.j.k.k.l.*.*.K.K.K.3.>X+.5 w LXLX",
"LXLXr < 3 O.DXwXr.r.t.t.h.h.j.k.l.l.l.J.K.K.L.L.H.!.@XY 5 N LXLX",
"LXLXb 3 , U <XAXe.r.t.t.h.j.k.k.l.l.J.K.K.K.L.L.3._ $.A 5 C LXLX",
"LXLXm n , 3 |.8X).f.h.j.j.k.l.l.J.J.K.L.L.L.L.D.C |.Y 8 q C LXLX",
"LXLXLXm , @ Y OX2X4.j.k.k.l.l.l.J.K.L.L.L.L.D.a  .+.A 4 N LXLXLX",
"LXLXLXLX7 < 3 Y ;X,X/.6.l.l.K.K.L.L.L.L.F.v.j G O.T < 7 LXLXLXLX",
"LXLXLXLXx < , 7 +.;X-X~.,.g.K.L.L.L.L.D.s : b .. .e 4 l LXLXLXLX",
"LXLXLXLXLXx , , 7 T oX1X|.L f d s i : < q T +. .5 < l LXLXLXLXLX",
"LXLXLXLXLXLX7 , < 3 T {.#X;X|.X.Y G T  .$.$.G 8 < 5 LXLXLXLXLXLX",
"LXLXLXLXLXLXLXx , , , 0 G } #.|..X.X$...b 7 4 < 9 LXLXLXLXLXLXLX",
"LXLXLXLXLXLXLXLXn 3 , , 3 7 e r w w 7 8 5 < 3 w LXLXLXLXLXLXLXLX",
"LXLXLXLXLXLXLXLXLXLXc 7 < 3 3 7 5 3 3 4 5 q LXLXLXLXLXLXLXLXLXLX",
"LXLXLXLXLXLXLXLXLXLXLXLXr r 3 7 7 7 r n c LXLXLXLXLXLXLXLXLXLXLX"
};
