/* XPM */
static char *gdict.xpm[] = {
/* columns rows colors chars-per-pixel */
"32 32 205 2",
"   c #00220016000D",
".  c #0724082107AD",
"X  c #0B1B01470155",
"o  c #0E8009EF0A59",
"O  c #000011810347",
"+  c #000019AE04D0",
"@  c #15860471032A",
"#  c #12840B7C0B73",
"$  c #1C5A020201A4",
"%  c #1E9E09790609",
"&  c #1AB10DD10DD2",
"*  c #1514128F1244",
"=  c #1C7A147414CE",
"-  c #213C0E060EF5",
";  c #284411780F9D",
":  c #2407153B16E5",
">  c #24B019241A5E",
",  c #29A51A761AE5",
"<  c #31B30238030A",
"1  c #38EF025A0373",
"2  c #3B4F04830817",
"3  c #2DFF1F4B2089",
"4  c #38821E612049",
"5  c #2E0B29E329E7",
"6  c #3B4F220D2327",
"7  c #3F9B25522854",
"8  c #3CF72F72266A",
"9  c #3F8F284C28D5",
"0  c #36EA343B3491",
"q  c #3BB2336C336E",
"w  c #424E03B00534",
"e  c #4A2C0FE01268",
"r  c #52C8068B0A0F",
"t  c #557B09490B87",
"y  c #5E4E061F0741",
"u  c #52EC19951BFC",
"i  c #41B42C4B2CDF",
"p  c #4AC72C072BFE",
"a  c #4AEA37EA3AA0",
"s  c #4C6B3F4E3E87",
"d  c #544A27312AB3",
"f  c #549C2A5E2E17",
"g  c #5E7C24C32527",
"h  c #5CED2EA13134",
"j  c #548F3EA83FFB",
"k  c #59AB32063341",
"l  c #654B09000846",
"z  c #6E300A6A0C9C",
"x  c #761D0ACC0DB5",
"c  c #78950BA40CA0",
"v  c #75EF0DFB10E6",
"b  c #7B1E0E5012E8",
"n  c #77D813FE143A",
"m  c #73E018D6188F",
"M  c #7CBD12CF1629",
"N  c #7E3E16881BB9",
"B  c #80321AA620B1",
"V  c #608D2CA02D4C",
"C  c #679134BB3A9B",
"Z  c #6AB93504358B",
"A  c #727F2F1B2FE9",
"S  c #714F34253873",
"D  c #736639153D53",
"F  c #7B1B340D35C9",
"G  c #7FB33A0C3D02",
"H  c #69DC3D64426E",
"J  c #43AD43D2420D",
"K  c #4BD54A994A90",
"L  c #4F24530E5109",
"P  c #5275444044E6",
"I  c #521F4FCF4F63",
"U  c #5FD94261424B",
"Y  c #5BEC4EB94EC9",
"T  c #5C9B4F67507D",
"R  c #5A5355334CBE",
"E  c #56FD572E55A3",
"W  c #577459F857FD",
"Q  c #5D88554B5598",
"!  c #5FF6604F5F6E",
"~  c #5FD5642C6188",
"^  c #792D45F74857",
"/  c #77C956A159DF",
"(  c #6106609A601B",
")  c #648A6507645B",
"_  c #6AA86B9E6AF4",
"`  c #72EA6D1E6CD8",
"'  c #711070717021",
"]  c #742C74BC7470",
"[  c #7C1E7CB87C49",
"{  c #823115E81BAC",
"}  c #836818D81D09",
"|  c #8A0C18BB1E61",
" . c #84741BB4222E",
".. c #8D331BEE22C9",
"X. c #92701E1E2574",
"o. c #84CA20C727D8",
"O. c #870A22172941",
"+. c #835A2BB62C00",
"@. c #8F0721C427B9",
"#. c #8CA124B22C52",
"$. c #89202838262F",
"%. c #811B2FFE35A7",
"&. c #86D037F03D86",
"*. c #80C539B63BAD",
"=. c #89ED33E136E1",
"-. c #927A205B2667",
";. c #949725352B1A",
":. c #96182A0B2E3E",
">. c #99712DC42FEC",
",. c #959E2ACD335B",
"<. c #98512F8F39AC",
"1. c #9A0C2E7334C4",
"2. c #971F3AEA402C",
"3. c #9BB331EA35B6",
"4. c #9E5635363B49",
"5. c #9E993A943EDF",
"6. c #A20835BD3985",
"7. c #AF5C3AE4401C",
"8. c #84AE3E56450F",
"9. c #9EC9360940F2",
"0. c #9DA03CA94514",
"q. c #A3703BF94452",
"w. c #A62A3E4448B9",
"e. c #A9E33D6D431C",
"r. c #AC123FF549FC",
"t. c #8C724EC8550F",
"y. c #8C2850D85782",
"u. c #914E40554520",
"i. c #9C655D5F5FB5",
"p. c #9B305CDE63C2",
"a. c #82386EA16EDC",
"s. c #A023634464E5",
"d. c #9FF1609368D1",
"f. c #A7DC44984C1A",
"g. c #B05F41ED48B7",
"h. c #A34356F15E57",
"j. c #AF355A4658BE",
"k. c #B43545774EFD",
"l. c #B1694D7A5048",
"z. c #B26A47585153",
"x. c #B38B4ACD5372",
"c. c #BC4D4F095AF1",
"v. c #BE5757695E3D",
"b. c #C0485CC75F3E",
"n. c #A4E85CDC65DD",
"m. c #A76A5E516A77",
"M. c #BB965F2165C8",
"N. c #A82B65F36D04",
"B. c #A6C36A936D08",
"V. c #AC0F67746F12",
"C. c #AF9A6B736D30",
"Z. c #A46378DC7D6C",
"A. c #B9466AB96CA0",
"S. c #B47C6E6D751A",
"D. c #B30D756C7B4E",
"F. c #BF657D337EE9",
"G. c #C5855D0966BD",
"H. c #C4B46CC16D66",
"J. c #CBA76B857879",
"K. c #C6F6738D7574",
"L. c #C418708E79D2",
"P. c #CCB975C67B36",
"I. c #CCDD7A897E86",
"U. c #D1A56A167AE7",
"Y. c #CE977F45856E",
"T. c #D42C7EF785A0",
"R. c #D4E57DFA8D6E",
"E. c #CEAC80848006",
"W. c #836F849A834A",
"Q. c #8D018E788DD8",
"!. c #8E7090C58F52",
"~. c #998D8D0F8C4C",
"^. c #90C991A79153",
"/. c #9A5F9B7B9B1D",
"(. c #A90781728159",
"). c #A0DFA02B9FBC",
"_. c #B4BC83218504",
"`. c #A3FAA52FA4A3",
"'. c #AC8EAD63ACAC",
"]. c #B73DAD01ACE9",
"[. c #B1B4B0CFB06E",
"{. c #B218B27CB266",
"}. c #B886B96BB957",
"|. c #BF04BF5BBF33",
" X c #CD68840684B1",
".X c #D00284E28C12",
"XX c #CFC1899A8ABD",
"oX c #D09395239288",
"OX c #CE2A9C29974F",
"+X c #D496836185E6",
"@X c #D4AA85648B1C",
"#X c #D3758A0F8BF5",
"$X c #D91687348D06",
"%X c #D2F385DF93BC",
"&X c #D29E87B09B84",
"*X c #D29F8BA19337",
"=X c #D9A98FB297A5",
"-X c #D28490E08849",
";X c #D2CF93AE976D",
":X c #D42193C59CFF",
">X c #D35D99F29C51",
",X c #D9B4937B99A9",
"<X c #D6919D15A524",
"1X c #D554A48A9E34",
"2X c None",
/* pixels */
"2X2X2X2X2X2X2X2X2X2X2X2X2X2X2X2X2X2X2X2X2X2X2X2X2X2X2X2X2X2X2X2X",
"2X2X2X2X2X2X2X2X2X2X2X2X2X2X2X2X2X2X2X2X2X2X2X2X2X2X2X2X2X2X2X2X",
"2X2X2X2X2X2X2X2X2X2X2X2X2X2X2X2X2X2X2X2X2X2X2X2X2X2X2X2X2X2X2X2X",
"2X2X2X2X2X2X2X2X2X2X2X2X2X          2X2X2X2X2X2X2X2X2X2X2X2X2X2X",
"2X2X2X2X2X2X2X                          2X2X2X2X2X2X2X2X2X2X2X2X",
"                          . o o X           2X2X2X2X2X2X2X2X2X2X",
"          # o # * 3 i p k S F =.e X           2X2X2X2X2X2X2X2X2X",
"  > i 9 p H ^ 8.G 0.4.5.3.X...N n t $           2X2X2X2X2X2X2X2X",
"* a._.A.j.f.g.w.6.3.:.;.X... . .N M z 2 X           2X2X2X2X2X2X",
"= Z.<X:XJ.v.e.e.6.6.3.>.;.;.#. . .N M b r $             2X2X2X2X",
"= N.@X<X=XU.v.k.w.6.4.3.<.,.#.O. . .{ c c l < X           2X2X2X",
"= N.R.@X,X:XP.b.e.q.0.4.3.,.;.X.....{ M n x l w X           2X2X",
"# d.$X+X+X;X1XY.G.x.q.0.3.>.:.-.X... .N M b v x r $             ",
"  9 D.*X#X X;X<X%XG.k.q.4.3.>.;.X.X. . .} N v v x y < X         ",
"    9 S.*X#X+X+X>XXXH.l.q.4.3.<.,.#.#.O.} { b c z v m u -       ",
"      6 S.$X#X XI.OXOXH.x.w.5.4.<.,.#. .| } } $.+.F G f -       ",
"        6 C.#X#XXXY.oX>XL.c.w.1.;.:.:.;.>.2.F A C a Y Q .       ",
"2X        4 C.+X-X XY.#X;XY.M.r.5.6.u.G g d j Q ' Q.).I         ",
"2X2X        , s.+X#XY.P.I.oX Xi.H f 6 q I ( ] W.!./.'._ .       ",
"2X2X2X        > p.@XR.T.P.K.F.U 5 0 K W ) [ W.^.`.'.}.[.0       ",
"2X2X2X2X        > p.@X@X.XP.N.P J K E ~ [ Q.).`.[.|.].(.Z X     ",
"2X2X2X2X2X        : p.@X%XT.p.s I ) _ [ Q./.`.'.~./ h r 1 X     ",
"2X2X2X2X2X2X        & y.R.&Xn.P ) ' [ W.Q.W._ R ; $ $ X         ",
"2X2X2X2X2X2X2X        & t.%Xm.Y ' [ W._ J 8 @ $ X               ",
"2X2X2X2X2X2X2X2X        & t.i.Y ~ J * # % $ X                   ",
"2X2X2X2X2X2X2X2X2X        & k , .     X X                     2X",
"2X2X2X2X2X2X2X2X2X2X        X X                           2X2X2X",
"2X2X2X2X2X2X2X2X2X2X2X                .                 2X2X2X2X",
"2X2X2X2X2X2X2X2X2X2X2X2X            . + O     2X        2X2X2X2X",
"2X2X2X2X2X2X2X2X2X2X2X2X2X            2X2X              2X2X2X2X",
"2X2X2X2X2X2X2X2X2X2X2X2X2X2X2X                        2X2X2X2X2X",
"2X2X2X2X2X2X2X2X2X2X2X2X2X2X2X2X2X                    2X2X2X2X2X"
};
