/* XPM */
static char *gconf_cleaner[] = {
/* columns rows colors chars-per-pixel */
"32 32 256 2",
"   c #0A1E0A1D0A1C",
".  c #1DBC0D3D0984",
"X  c #13B413B413B4",
"o  c #1F0B1F0B1F0B",
"O  c #361312930AD0",
"+  c #3F3219C011C5",
"@  c #22A222CF22D9",
"#  c #3D1E3D1E3D1E",
"$  c #34CB34CB34CB",
"%  c #4D8414BB0856",
"&  c #57841DDB110C",
"*  c #6B901DFB0C01",
"=  c #457724561CBC",
"-  c #551824091904",
";  c #5B9F2555195B",
":  c #5EBE292A1D74",
">  c #550F371B17C0",
",  c #62F528CA1BD6",
"<  c #77E52A22187F",
"1  c #769731A11C5A",
"2  c #443C32332E17",
"3  c #43153795350D",
"4  c #610D2CEE217C",
"5  c #71603A372D91",
"6  c #4C0240693DBD",
"7  c #57DE42583DA9",
"8  c #7BEE517C2B2F",
"9  c #760B44C039A1",
"0  c #44334431442F",
"q  c #484748474847",
"w  c #56474A6647B4",
"e  c #5E7250C84F06",
"r  c #5D615DC95DE1",
"t  c #55CB55CB55CB",
"y  c #609854E051EF",
"u  c #66945A43577A",
"i  c #684C587854E3",
"p  c #6EA6610A5E69",
"a  c #77FF64FC5DEC",
"s  c #637E63B963C7",
"d  c #6B7665CA6475",
"f  c #6AC76B2E6B46",
"g  c #75616D026B06",
"h  c #79736D256A96",
"j  c #726172A972B9",
"k  c #7B067B3E7B4A",
"l  c #8B5D2B8E1612",
"z  c #94A22AD612A6",
"x  c #9CB22D1F13F4",
"c  c #95AB2F491832",
"v  c #8EA0304A194B",
"b  c #97BC31EB1AC9",
"n  c #994432BD1BC0",
"m  c #A44C2D6412C8",
"M  c #AD0D2EF513CB",
"N  c #AAC431E31677",
"B  c #A3D433B61A8D",
"V  c #AE5434FC19AF",
"C  c #B39A31B21495",
"Z  c #BA56341B15F6",
"A  c #B27F34AF17D3",
"S  c #8E293882253A",
"D  c #86373C302B88",
"F  c #8D6A3DA32C33",
"G  c #8DD434E12065",
"H  c #93D03D762A4A",
"J  c #94AD37DE230B",
"K  c #A4D93B92234E",
"L  c #AA963B532200",
"P  c #A36D3EBC2866",
"I  c #B5A03C212146",
"U  c #BF743DFD211B",
"Y  c #C2C8358C162F",
"T  c #C21D372E18BA",
"R  c #C5273A7B1BD6",
"E  c #CD043B3A1B2B",
"W  c #CA383854178C",
"Q  c #D3E73D981C1D",
"!  c #DB5D3E7B1C0B",
"~  c #A0B842681E6D",
"^  c #BC8047DB1B2D",
"/  c #91DE6E3A16BF",
"(  c #9A6C42AE2FAE",
")  c #8C4C440F3408",
"_  c #9A1E470E34E9",
"`  c #A52F43DD239D",
"'  c #AB3745DE27BA",
"]  c #B86344A62692",
"[  c #AE21583027D3",
"{  c #A8444B5B36BD",
"}  c #BC015AEC37B5",
"|  c #9FA1787C2F97",
" . c #9E7278D3332A",
".. c #BEA56C47307F",
"X. c #CBA2421D1B31",
"o. c #DF2441A21DCE",
"O. c #E2CD42581DB1",
"+. c #EC8243C61E27",
"@. c #CDA142F323EE",
"#. c #CE3F4A9F2C77",
"$. c #CC25468127BF",
"%. c #D397442423C3",
"&. c #DBC1441221E3",
"*. c #D42F4A362AE5",
"=. c #DBCD481826C2",
"-. c #DAFF50A82107",
";. c #D0204FCC32B4",
":. c #C717578B372C",
">. c #E00A545234AB",
",. c #D60557503ACE",
"<. c #E2F244E02108",
"1. c #E960463F22B0",
"2. c #E56D48BB256D",
"3. c #E51C4D4F2A96",
"4. c #EB134D0929C7",
"5. c #E7A548F0270A",
"6. c #F7C349532236",
"7. c #E4FD50292DBD",
"8. c #E84658A52DE9",
"9. c #F91F53CD2F31",
"0. c #E52C53E2333A",
"q. c #E98B559333D2",
"w. c #E4115A203AAF",
"e. c #EAE55B0B3A56",
"r. c #F8C85B2C3840",
"t. c #C837695726E9",
"y. c #DB7C755B2DD5",
"u. c #C1D06F66360F",
"i. c #D8826B1130AA",
"p. c #D8587F493CA7",
"a. c #C93B741C2B70",
"s. c #888A4F364191",
"d. c #933B51694274",
"f. c #98185F2F5231",
"g. c #BA855AFB45C6",
"h. c #B6685BAE476C",
"j. c #A5795805470A",
"k. c #BFD263544F57",
"l. c #AD8364885468",
"z. c #BA866D025BED",
"x. c #B9D0648B5155",
"c. c #C63E5AC44381",
"v. c #DE805E4C4155",
"b. c #D5635BB03FE2",
"n. c #E1635DE64076",
"m. c #E0CE549E3FC7",
"M. c #EBB25B0150AC",
"N. c #C49E63FB4E67",
"B. c #DCDA64D94A45",
"V. c #DE3669524F2D",
"C. c #D41F655C4C49",
"Z. c #DDC878064243",
"A. c #C736725C5F78",
"S. c #D16D70405A18",
"D. c #E44562F345B4",
"F. c #EE7C6BF24E6B",
"G. c #E5EC679E4AB0",
"H. c #F4B96C094E19",
"J. c #FA896491433F",
"K. c #E6C969A45234",
"L. c #F3C76EAC503E",
"P. c #E22A74725BD4",
"I. c #E4BB73E05A2C",
"U. c #FCC5711C524E",
"Y. c #C25A7612653F",
"T. c #DFAA7E7A687A",
"R. c #E78179AC67B4",
"E. c #B1C78DFF36C1",
"W. c #CF8B8C8A34B9",
"Q. c #D85D86363836",
"!. c #C4E1966B3B95",
"~. c #DAC496C13DC4",
"^. c #CB40A49C387F",
"/. c #E12AB2213BC4",
"(. c #B1BD92AA43A5",
"). c #DFEC83CD45A2",
"_. c #CBAB90424685",
"`. c #E02489EE53F8",
"'. c #E5548E5648D5",
"]. c #DD1BA89C470F",
"[. c #D9FEA9165241",
"{. c #DE30B36E5144",
"}. c #E78DABBC49D7",
"|. c #E302B5944531",
" X c #E910BEC246BF",
".X c #E5E7B2FB4B81",
"XX c #E576BB034AE0",
"oX c #E916B9D149F4",
"OX c #E0B6AEC1525D",
"+X c #EA79B9DB5103",
"@X c #F1D8BEB85E26",
"#X c #CC42824A71C2",
"$X c #F64186D36E81",
"%X c #E5309E6F6F06",
"&X c #E9C18708766F",
"*X c #D9FDA977644F",
"=X c #DFE4B93A6BD0",
"-X c #DAD5B721731C",
";X c #E02BBD2B7B53",
":X c #E14AB973646C",
">X c #E330BDEE6BC8",
",X c #E42BB97F66B8",
"<X c #EB5FC2EC4D40",
"1X c #F013C9E15C15",
"2X c #EADCC3FD5799",
"3X c #F3A3CD05542B",
"4X c #F622D1D55C05",
"5X c #F580D312565B",
"6X c #E9F9C4DD634D",
"7X c #EF54CC0864D8",
"8X c #F230D04B674E",
"9X c #E532C44D752B",
"0X c #E46FC3107EA1",
"qX c #F555D79C76D7",
"wX c #7F04806480B3",
"eX c #843D844E8451",
"rX c #8BA88C5A8C83",
"tX c #99EA90E68EC2",
"yX c #948F950A9526",
"uX c #9B8B9BBF9BCB",
"iX c #93A289808723",
"pX c #A4309C659A8C",
"aX c #9F04A05EA0AC",
"sX c #A2C9A388A3B5",
"dX c #AC7CACD1ACED",
"fX c #AEDFB014B058",
"gX c #B350B3DDB3FD",
"hX c #BC6FBC87BC8E",
"jX c #EB08998C8512",
"kX c #E8E0AEDF84FA",
"lX c #E998AAC59C96",
"zX c #EA3EB9B7911C",
"xX c #E0A3AFA5A485",
"cX c #F0ABB012A379",
"vX c #E6FCB2DFA73A",
"bX c #ED4EB841A642",
"nX c #E71BC7728762",
"mX c #F684DE0F8CDD",
"MX c #F56BDACC8590",
"NX c #EA85CE5295C4",
"BX c #F473DBB99138",
"VX c #F8FEE5599E7D",
"CX c #F9D7E5FBA1BE",
"ZX c #C2EFC33BC349",
"AX c #CB6DCB6DCB6D",
"SX c #DAEDCA7DC70A",
"DX c #D7E2C850C50B",
"FX c #DF36D0E9CDE0",
"GX c #D81EDA13DA83",
"HX c #F42DCEFDC4E0",
"JX c #FA5FCD9DD194",
"KX c #EA2FD8AFD4BA",
"LX c #EF07ECE6EC75",
"PX c #E96BE691E5D5",
"IX c #F177EEDBEE3B",
"UX c None",
/* pixels */
"UXUXUXUXUXUXUXUXUXUXUXUXUXUXUXUXUXUXUXUXUXUXUXUXUX(.E.UXUXUXUXUX",
"UXUXUXUXUXUXUXUXUXUXUXUXUXUXUXUXUXUXUXUXUXUXUXUXUXE.UXUXUXUXUXUX",
"UXUXUXUXUXUXUXUXUX= - - - - - - & % UXUXUXUXUX ./ UXUXUXUXUXUXUX",
"UXUXUXUXUXUXUX= { *.*.@.%.%.=.=.&.%.v 8 -X-X[.!.^.UXUXUXUXUXUXUX",
"UXUXUXUXUXUXUX) 0.R Y T R E Q ! <.8.).*X0XnX;X=X,X].UXUXUXUXUXUX",
"UXUXUXUXUXUXUX( S.K W T R E &.4.1.p.:X>X9X0XnXNXnX!.UXUXUXUXUXUX",
"UXUXUXUXUXUXUXH T.{ Y W T Q ! 5.M.jX,X:X>X9X9X9X{.UXUXUXUXUXUXUX",
"UXUXUXUXUXUXUXS ,._ C T Z E -.y.&XJXHXzXkX%X`.Z.i.UXUXUXUXUXUXUX",
"UXUXUXUXUXUXUXS c.H m Z Z X.Q./.[.zXbXcXjXR.K.m.UXUXUXUXUXUXUXUX",
"UXUXUXUXUXUXUXF N.n m C Z a.|.|.|.XX.XOX}.].].!.> UXUXUXUXUXUXUX",
"UXUXUXUXUXUXUXF k.B M M ^ ].XX|.XX+X XXX XXX X~.1 UXUXUXUXUXUXUX",
"UXUXUXUXUXUXUXF g.m C N a.XX<X X2X6X7X6X7X2X2X.X} + UXUXUXUXUXUX",
"UXUXUXUXUXUXUXF g.m Z A W.<X8XMXBXBXmXqXqX7X1X3X.X .UXUXUXUXUXUX",
"UXUXUXUXUXUXUX) { C Z C t.1XCXMXVXmXMXMXqX4X5X3X3X].| UXUXUXUXUX",
"UXUXUXUXUXUXUXf.' Y U I ] Q.>Xp.*X:X_.@X4X}.}.+X'.).` UXUXUXUXUX",
"UXUXUXUXUXUX; A.K V L K K K ' ~ ` [ ' ] ..u.:.:.} c.:.UXUXUXUXUX",
"UXUXUXUXUX4 B.z.w e 6 w u y p p u g y e h a 9 S c.P.K.UXUXUXUXUX",
"UXUXUXUX4 V.H.D 0 r f eXyXsXZXhXgXdXsXgXtX9 h.I.I.w.7.UXUXUXUXUX",
"UXUXUX4 K.U.4.B 7 k sXhXAXAXAXZXgXsXuXg d.C.F.G.7.O.O.UXUXUXUXUX",
"UXUX: B.H.9.+.Y , k ZXhXhXhXgXhXyXsXd d.R.D.>.3.O.O.Q UXUXUXUXUX",
"UX. { z.Y.w.+.E < g uXwXwXwXwXyXeXeXs.P.V.g.Y.,.o.O.A UXUXUXUXUX",
"UX, l.FXLXvX4.! V j.l.x.x.x.g._ 5 ) B.D.h.DXLXvX>.O.N UXUXUXUXUX",
"UXJ #XPXGXKXF.O.*.v.%.@.@.@.&.1.%.0.e.%.z.IXGXKXG.O.N UXUXUXUXUX",
"UXP F.vXSXlXJ.+.o.V B I ] ] L =.4.q.0.o.;.xXSXlXw.O.N UXUXUXUXUX",
"UXP J.H.$XL.6.6.Q L $.*.*.;.] $.2.q.3.<.3.D.P.D.<.O.x UXUXUXUXUX",
"UXv r.r.' D R 6.5.v.D.n.D.D.b.n.5.4.%.G F #.3.&.Z < O UXUXUXUXUX",
"UX3 1 l i ZX; x x n n b n b c c z z * pXiX* z < 2 eX@ UXUXUXUXUX",
"UXuXfXrXf dX0 aXaXaXaXaXaXaXaXaXaXsXd pXj s sXsXuXj   UXUXUXUXUX",
"UXj uXeXr yX# uXuXuXuXuXuXuXuXuXuXuXs rXs s sXZXk o UXUXUXUXUXUX",
"UX  o X q eXX o o o o o o o o o o @ X k t X @ $ @ UXUXUXUXUXUXUX",
"UXUXUXUX@ 0   UXUXUXUXUXUXUXUXUXUXUXUX# $ UXUXUXUXUXUXUXUXUXUXUX",
"UXUXUXUXUXUXUXUXUXUXUXUXUXUXUXUXUXUXUXUXUXUXUXUXUXUXUXUXUXUXUXUX"
};
