<?xml version="1.0" encoding="UTF-8" standalone="no"?>
<!-- Created with Inkscape (http://www.inkscape.org/) -->

<svg
   xmlns:dc="http://purl.org/dc/elements/1.1/"
   xmlns:cc="http://creativecommons.org/ns#"
   xmlns:rdf="http://www.w3.org/1999/02/22-rdf-syntax-ns#"
   xmlns:svg="http://www.w3.org/2000/svg"
   xmlns="http://www.w3.org/2000/svg"
   xmlns:xlink="http://www.w3.org/1999/xlink"
   xmlns:sodipodi="http://sodipodi.sourceforge.net/DTD/sodipodi-0.dtd"
   xmlns:inkscape="http://www.inkscape.org/namespaces/inkscape"
   width="800"
   height="800"
   id="svg2"
   version="1.1"
   inkscape:version="0.47 r22583"
   sodipodi:docname="animals.svg"
   inkscape:export-filename="/home/fuddl/saugsaug/scorched3d-tmp/scorched3d/debian/avatars-free/animals.png"
   inkscape:export-xdpi="3.5999999"
   inkscape:export-ydpi="3.5999999">
  <defs
     id="defs4">
    <linearGradient
       id="linearGradient3685">
      <stop
         style="stop-color:#006a30;stop-opacity:1;"
         offset="0"
         id="stop3687" />
      <stop
         style="stop-color:#80dbae;stop-opacity:1;"
         offset="1"
         id="stop3689" />
    </linearGradient>
    <inkscape:perspective
       sodipodi:type="inkscape:persp3d"
       inkscape:vp_x="0 : 526.18109 : 1"
       inkscape:vp_y="0 : 1000 : 0"
       inkscape:vp_z="744.09448 : 526.18109 : 1"
       inkscape:persp3d-origin="372.04724 : 350.78739 : 1"
       id="perspective10" />
    <inkscape:perspective
       id="perspective2885"
       inkscape:persp3d-origin="0.5 : 0.33333333 : 1"
       inkscape:vp_z="1 : 0.5 : 1"
       inkscape:vp_y="0 : 1000 : 0"
       inkscape:vp_x="0 : 0.5 : 1"
       sodipodi:type="inkscape:persp3d" />
    <linearGradient
       gradientUnits="userSpaceOnUse"
       id="linearGradient11708"
       inkscape:collect="always"
       spreadMethod="reflect"
       x1="150.20929"
       x2="100.73916"
       xlink:href="#linearGradient4191"
       y1="272.98285"
       y2="331.89728" />
    <linearGradient
       id="linearGradient4191">
      <stop
         id="stop4193"
         offset="0.00000000"
         style="stop-color:#000000;stop-opacity:1.0000000;" />
      <stop
         id="stop4195"
         offset="1.0000000"
         style="stop-color:#6e6e6e;stop-opacity:1.0000000;" />
    </linearGradient>
    <radialGradient
       cx="240.37982"
       cy="169.99573"
       fx="240.37982"
       fy="169.99573"
       gradientTransform="matrix(1,0,0,0.905825,0,20.87199)"
       gradientUnits="userSpaceOnUse"
       id="radialGradient11710"
       inkscape:collect="always"
       r="73.131134"
       xlink:href="#linearGradient4927" />
    <linearGradient
       id="linearGradient4927">
      <stop
         id="stop4929"
         offset="0.00000000"
         style="stop-color:#e0de2c;stop-opacity:1.0000000;" />
      <stop
         id="stop4931"
         offset="1.0000000"
         style="stop-color:#e5e5e5;stop-opacity:1.0000000;" />
    </linearGradient>
    <linearGradient
       gradientUnits="userSpaceOnUse"
       id="linearGradient11712"
       inkscape:collect="always"
       x1="263.05844"
       x2="281.70435"
       xlink:href="#linearGradient5675"
       y1="423.44086"
       y2="331.09995" />
    <linearGradient
       id="linearGradient5675">
      <stop
         id="stop5677"
         offset="0.00000000"
         style="stop-color:#ffffff;stop-opacity:1.0000000;" />
      <stop
         id="stop5679"
         offset="1.0000000"
         style="stop-color:#e7edbe;stop-opacity:1.0000000;" />
    </linearGradient>
    <linearGradient
       gradientUnits="userSpaceOnUse"
       id="linearGradient11714"
       inkscape:collect="always"
       spreadMethod="repeat"
       x1="493.30402"
       x2="496.70248"
       xlink:href="#linearGradient6411"
       y1="326.13086"
       y2="324.03946" />
    <linearGradient
       id="linearGradient6411">
      <stop
         id="stop6413"
         offset="0"
         style="stop-color:#000000;stop-opacity:1;" />
      <stop
         id="stop6415"
         offset="1.0000000"
         style="stop-color:#595959;stop-opacity:1.0000000;" />
    </linearGradient>
    <radialGradient
       cx="495.40192"
       cy="134.40182"
       fx="495.40192"
       fy="134.40182"
       gradientTransform="matrix(-1.213234,-0.380133,0.06201452,-0.197881,1111.652,361.1912)"
       gradientUnits="userSpaceOnUse"
       id="radialGradient11716"
       inkscape:collect="always"
       r="45.169621"
       xlink:href="#linearGradient9363" />
    <linearGradient
       id="linearGradient9363">
      <stop
         id="stop9365"
         offset="0.00000000"
         style="stop-color:#797979;stop-opacity:1.0000000;" />
      <stop
         id="stop9367"
         offset="1.0000000"
         style="stop-color:#2a2a2a;stop-opacity:1.0000000;" />
    </linearGradient>
    <linearGradient
       gradientUnits="userSpaceOnUse"
       id="linearGradient11718"
       inkscape:collect="always"
       x1="318.59756"
       x2="288.71396"
       xlink:href="#linearGradient7887"
       y1="103.31743"
       y2="233.45561" />
    <linearGradient
       id="linearGradient7887">
      <stop
         id="stop7889"
         offset="0"
         style="stop-color:#000000;stop-opacity:1;" />
      <stop
         id="stop7891"
         offset="1.0000000"
         style="stop-color:#2c2c2c;stop-opacity:1.0000000;" />
    </linearGradient>
    <linearGradient
       gradientUnits="userSpaceOnUse"
       id="linearGradient11720"
       inkscape:collect="always"
       x1="494.05084"
       x2="444.90613"
       xlink:href="#linearGradient8627"
       y1="163.0381"
       y2="168.24548" />
    <linearGradient
       id="linearGradient8627">
      <stop
         id="stop8629"
         offset="0"
         style="stop-color:#000000;stop-opacity:1;" />
      <stop
         id="stop8631"
         offset="1.0000000"
         style="stop-color:#e85600;stop-opacity:1.0000000;" />
    </linearGradient>
    <linearGradient
       gradientUnits="userSpaceOnUse"
       id="linearGradient11722"
       inkscape:collect="always"
       spreadMethod="reflect"
       x1="374.20142"
       x2="378.57401"
       xlink:href="#linearGradient10101"
       y1="267.59784"
       y2="264.83621" />
    <linearGradient
       id="linearGradient10101">
      <stop
         id="stop10103"
         offset="0.00000000"
         style="stop-color:#4d400c;stop-opacity:1.0000000;" />
      <stop
         id="stop10105"
         offset="1.0000000"
         style="stop-color:#86692d;stop-opacity:1.0000000" />
    </linearGradient>
    <linearGradient
       y2="264.83621"
       x2="378.57401"
       y1="267.59784"
       x1="374.20142"
       spreadMethod="reflect"
       gradientUnits="userSpaceOnUse"
       id="linearGradient2932"
       xlink:href="#linearGradient10101"
       inkscape:collect="always" />
    <linearGradient
       inkscape:collect="always"
       xlink:href="#linearGradient3685"
       id="linearGradient3691"
       x1="725.71429"
       y1="899.07648"
       x2="725.71429"
       y2="234.21933"
       gradientUnits="userSpaceOnUse"
       gradientTransform="matrix(1.0719256,0,0,1.2370026,-352.10473,-38.490005)" />
  </defs>
  <sodipodi:namedview
     id="base"
     pagecolor="#ffffff"
     bordercolor="#666666"
     borderopacity="1.0"
     inkscape:pageopacity="0.0"
     inkscape:pageshadow="2"
     inkscape:zoom="0.175"
     inkscape:cx="555.12806"
     inkscape:cy="364.61347"
     inkscape:document-units="px"
     inkscape:current-layer="layer1"
     showgrid="false"
     objecttolerance="20"
     guidetolerance="10000"
     inkscape:window-width="684"
     inkscape:window-height="559"
     inkscape:window-x="12"
     inkscape:window-y="54"
     inkscape:window-maximized="0" />
  <metadata
     id="metadata7">
    <rdf:RDF>
      <cc:Work
         rdf:about="">
        <dc:format>image/svg+xml</dc:format>
        <dc:type
           rdf:resource="http://purl.org/dc/dcmitype/StillImage" />
        <dc:title></dc:title>
      </cc:Work>
    </rdf:RDF>
  </metadata>
  <g
     inkscape:label="Ebene 1"
     inkscape:groupmode="layer"
     id="layer1"
     transform="translate(0,-252.36218)">
    <rect
       style="fill:url(#linearGradient3691);fill-opacity:1;stroke:none"
       id="rect2911"
       width="851.61414"
       height="820.18549"
       x="0"
       y="252.36218" />
    <g
       id="use11644"
       style="stroke:#000000;stroke-opacity:1"
       transform="matrix(1.6232592,0,0,1.6232592,-101.63044,357.26896)">
      <path
         d="M 182.0073,248.20952 C 101.2378,254.50465 72.221971,363.1248 65.513484,427.05667 116.68209,291.59877 121.08781,294.78524 195.57352,261.02753 l 2.16867,-8.35178 -15.73489,-4.46623 z"
         id="path11688"
         sodipodi:nodetypes="ccccc"
         style="fill:url(#linearGradient11708);fill-opacity:1;fill-rule:nonzero;stroke:#000000;stroke-width:1px;stroke-linecap:butt;stroke-linejoin:miter;stroke-opacity:1" />
      <path
         d="m 258.1441,239.70296 c -7.34556,0.74955 -14.69113,1.49909 -22.03669,2.24864 -5.39674,-0.89945 -8.99457,-2.24864 -9.4443,-6.74592 32.83018,-79.45202 -0.89945,-93.69342 -45.87229,-67.00953 -20.38769,23.23597 -27.28352,51.86867 -39.5761,80.50138 -11.24321,11.99276 -17.78382,22.7178 -27.22812,38.30838 40.32565,-47.07157 72.8006,-39.35774 83.44417,-34.26082 20.23778,-4.34738 40.47555,-8.69475 60.71333,-13.04213 z"
         id="path11690"
         sodipodi:nodetypes="cccccccc"
         style="fill:url(#radialGradient11710);fill-opacity:1;fill-rule:evenodd;stroke:#000000;stroke-width:1px;stroke-linecap:butt;stroke-linejoin:miter;stroke-opacity:1" />
      <path
         d="m 195.29456,260.61533 c 0.74955,-2.77332 1.31496,-5.36252 2.06451,-8.13584 75.20398,-13.7149 107.75691,-32.65337 159.27555,2.51424 16.03558,16.29138 31.56722,28.55121 58.68956,26.19668 38.7556,-0.16193 86.58218,70.73216 119.29046,146.16173 -156.39305,0 -312.78611,0 -469.179158,0 C 107.71395,320.37098 106.14935,297.04442 195.29456,260.61533 z"
         id="path11692"
         sodipodi:nodetypes="ccccccc"
         style="fill:url(#linearGradient11712);fill-opacity:1;fill-rule:evenodd;stroke:#000000;stroke-width:1px;stroke-linecap:butt;stroke-linejoin:miter;stroke-opacity:1" />
      <path
         d="m 534.60722,427.66258 c 7.08598,0.24863 13.25132,-0.60751 20.3373,-0.35888 -3.72947,-74.83795 -47.73716,-131.40151 -85.03182,-152.9081 -17.52849,-5.09694 -38.04055,-24.36585 -55.94199,-30.95457 -11.5608,6.71998 -20.32324,13.76734 -30.20867,24.24153 64.89271,20.13912 89.68194,28.32987 150.84518,159.98002 z"
         id="path11694"
         sodipodi:nodetypes="cccccc"
         style="fill:url(#linearGradient11714);fill-opacity:1;fill-rule:evenodd;stroke:#000000;stroke-width:1px;stroke-linecap:butt;stroke-linejoin:miter;stroke-opacity:1" />
      <path
         d="m 458.90099,134.39747 c 12.69301,0.75941 28.64063,8.67898 44.91372,7.64835 28.64063,2.44096 41.82183,14.15758 44.42552,24.40962 -1.19336,0.65092 -2.38672,1.30185 -3.58008,1.95277 -1.03063,0.27122 -2.06126,0.54244 -3.09189,0.81366 -13.23544,-2.92916 -28.42366,-5.53285 -40.19452,-5.85831 -13.72363,-4.44798 -22.07715,-6.45499 -40.68271,-7.48562 4.93617,-2.22399 9.54688,-3.95979 14.80851,-6.67197 -6.8347,-8.51625 -10.08931,-10.03506 -16.59855,-14.8085 z"
         id="path11696"
         sodipodi:nodetypes="ccccccccc"
         style="fill:url(#radialGradient11716);fill-opacity:1;fill-rule:evenodd;stroke:#000000;stroke-width:1px;stroke-linecap:butt;stroke-linejoin:miter;stroke-opacity:1" />
      <path
         d="M 181.43441,167.02682 C 214.8352,121.95196 245.8039,92.981134 291.8516,90.711177 c 34.21149,-11.187645 64.04521,-4.377775 92.41967,10.214803 3.24279,0.64856 6.48559,1.29712 9.72838,1.94568 22.86171,0.48642 32.10368,4.86419 48.15552,26.26664 17.02467,3.72922 22.37529,9.40411 33.56293,18.48394 -0.48863,-1.80415 50.3742,0.3259 67.6765,20.5679 -2.35636,1.08781 -2.6406,-1.39207 -3.37023,-1.02725 -16.40105,-18.06811 -63.16768,-19.02546 -64.62694,-18.29583 -2.91852,1.45925 -14.27191,6.05147 -17.19043,7.51073 -23.02385,3.89135 -47.02054,5.35061 -64.69377,18.97035 22.69957,1.94568 82.65314,-9.2664 107.37818,-11.76314 11.55727,0.89192 11.71892,-0.44265 26.96416,3.17795 -52.53329,2.59424 -69.64856,10.36873 -92.99669,33.87899 -2.59424,6.80987 -3.2252,14.35598 -7.78271,20.42962 -4.13677,8.19905 -6.80108,14.18943 -11.67407,20.91603 -11.80599,7.16436 -21.95484,15.6176 -32.10367,24.80738 -48.80407,-34.04935 -85.44766,-39.39996 -136.19741,-24.80738 -11.67406,1.6214 -20.42961,-1.13498 -20.42961,-8.26913 25.2938,-64.85591 14.59258,-93.28256 -45.237,-66.69164 z"
         id="path11698"
         sodipodi:nodetypes="cccccccccccccccccccc"
         style="fill:url(#linearGradient11718);fill-opacity:1;fill-rule:evenodd;stroke:#000000;stroke-width:1px;stroke-linecap:butt;stroke-linejoin:miter;stroke-opacity:1" />
      <path
         d="m 307.27071,160.31313 c 2.83171,2.2493 10.30261,8.23406 18.07475,10.24236 9.21812,-0.88365 11.82389,-2.92209 16.26727,-5.42243 -0.73805,-3.22333 -9.09762,-10.00135 -15.42378,-9.76036 -6.32616,0.24099 -11.38709,1.60664 -18.91824,4.94043 z"
         id="path11700"
         sodipodi:nodetypes="ccccc"
         style="fill:#000000;fill-opacity:1;fill-rule:evenodd;stroke:#000000;stroke-width:1px;stroke-linecap:butt;stroke-linejoin:miter;stroke-opacity:1" />
      <path
         d="m 342.62969,166.48564 c -0.28546,0.66934 -1.49135,1.35301 -2.19776,1.955 -0.7064,0.602 -1.35979,1.10755 -2.14586,1.4902 -0.78607,0.38265 -1.6428,0.62146 -2.47146,0.92393 -0.82866,0.30247 -1.61963,0.59121 -2.52822,0.79075 -0.9086,0.19954 -1.70626,0.29235 -2.90156,0.32365 -1.19529,0.0313 -2.88877,0.0588 -4.25744,-0.003 -1.36867,-0.0614 -2.44968,-0.49973 -3.77026,-1.04388 -1.32058,-0.54415 -2.90265,-1.25729 -4.22352,-1.95891 -1.32087,-0.70162 -2.59828,-1.46629 -3.64502,-2.29729 -1.04674,-0.83099 -2.01051,-1.43683 -2.88217,-2.3254 -0.87166,-0.88857 -1.82118,-1.64021 -2.90298,-2.32258 -1.0818,-0.68238 -3.05053,-0.79643 -3.69093,-0.87571 -0.64039,-0.0793 -0.64727,-0.29462 0.006,-0.31094 0.65375,-0.0163 2.66097,-0.2887 3.77334,0.38038 1.11237,0.66908 2.07056,1.42633 2.9497,2.31377 0.87914,0.88744 1.81646,1.50984 2.85846,2.33876 1.04199,0.82892 2.30217,1.23756 3.61331,1.94176 1.31114,0.70421 2.91827,1.90114 4.19782,2.30905 1.30974,0.41753 2.84946,0.49415 4.20522,0.56677 1.35577,0.0726 2.65722,-0.0819 3.7606,-0.37591 1.06765,-0.28452 1.97676,-0.12889 2.8781,-0.32471 0.90134,-0.19583 1.67759,-0.51177 2.50308,-0.80073 0.82549,-0.28896 1.67136,-0.54255 2.44454,-0.92937 0.77318,-0.38682 1.40608,-0.88173 2.11843,-1.47395 0.71235,-0.59221 1.8598,-1.88414 2.17333,-2.00439 0.31353,-0.12024 0.42023,1.043 0.13477,1.71234 z"
         id="path11702"
         sodipodi:nodetypes="czzzzzzzzzzzzzzzzzzzzzzzzzz"
         style="fill:#d3d1e2;fill-opacity:1;fill-rule:nonzero;stroke:#000000;stroke-width:1px;stroke-linecap:butt;stroke-linejoin:miter;stroke-opacity:1" />
      <path
         d="m 393.80865,175.40564 c 42.33714,-30.78325 93.38039,-17.22235 107.23963,-11.55389 -21.29062,1.11199 -88.06451,15.48655 -107.23963,11.55389 z"
         id="path11704"
         sodipodi:nodetypes="ccc"
         style="fill:url(#linearGradient11720);fill-opacity:1;fill-rule:evenodd;stroke:#000000;stroke-width:1px;stroke-linecap:butt;stroke-linejoin:miter;stroke-opacity:1" />
      <path
         d="m 307.00165,234.68836 c 75.02439,15.57255 29.9177,17.56706 118.05986,47.40805 -25.00813,1.15068 -43.57245,-4.14245 -57.76418,-16.5698 -15.2657,-18.33418 -40.88753,-26.54237 -60.29568,-30.83825 z"
         id="path11706"
         sodipodi:nodetypes="cccc"
         style="fill:url(#linearGradient2932);fill-opacity:1;fill-rule:evenodd;stroke:#000000;stroke-width:1px;stroke-linecap:butt;stroke-linejoin:miter;stroke-opacity:1" />
    </g>
  </g>
</svg>
