<?xml version="1.0" encoding="UTF-8" standalone="no"?>
<!-- Created with Inkscape (http://www.inkscape.org/) -->

<svg
   xmlns:dc="http://purl.org/dc/elements/1.1/"
   xmlns:cc="http://creativecommons.org/ns#"
   xmlns:rdf="http://www.w3.org/1999/02/22-rdf-syntax-ns#"
   xmlns:svg="http://www.w3.org/2000/svg"
   xmlns="http://www.w3.org/2000/svg"
   xmlns:xlink="http://www.w3.org/1999/xlink"
   xmlns:sodipodi="http://sodipodi.sourceforge.net/DTD/sodipodi-0.dtd"
   xmlns:inkscape="http://www.inkscape.org/namespaces/inkscape"
   width="800"
   height="800"
   id="svg2"
   version="1.1"
   inkscape:version="0.47 r22583"
   sodipodi:docname="animal.svg"
   inkscape:export-filename="/home/fuddl/saugsaug/scorched3d-tmp/scorched3d/debian/avatars-free/animal.png"
   inkscape:export-xdpi="3.5999999"
   inkscape:export-ydpi="3.5999999">
  <defs
     id="defs4">
    <linearGradient
       id="linearGradient3685">
      <stop
         style="stop-color:#ff8805;stop-opacity:1;"
         offset="0"
         id="stop3687" />
      <stop
         style="stop-color:#d7e32a;stop-opacity:1;"
         offset="1"
         id="stop3689" />
    </linearGradient>
    <inkscape:perspective
       sodipodi:type="inkscape:persp3d"
       inkscape:vp_x="0 : 526.18109 : 1"
       inkscape:vp_y="0 : 1000 : 0"
       inkscape:vp_z="744.09448 : 526.18109 : 1"
       inkscape:persp3d-origin="372.04724 : 350.78739 : 1"
       id="perspective10" />
    <inkscape:perspective
       id="perspective2885"
       inkscape:persp3d-origin="0.5 : 0.33333333 : 1"
       inkscape:vp_z="1 : 0.5 : 1"
       inkscape:vp_y="0 : 1000 : 0"
       inkscape:vp_x="0 : 0.5 : 1"
       sodipodi:type="inkscape:persp3d" />
    <linearGradient
       gradientUnits="userSpaceOnUse"
       id="linearGradient11708"
       inkscape:collect="always"
       spreadMethod="reflect"
       x1="150.20929"
       x2="100.73916"
       xlink:href="#linearGradient4191"
       y1="272.98285"
       y2="331.89728" />
    <linearGradient
       id="linearGradient4191">
      <stop
         id="stop4193"
         offset="0.00000000"
         style="stop-color:#000000;stop-opacity:1.0000000;" />
      <stop
         id="stop4195"
         offset="1.0000000"
         style="stop-color:#6e6e6e;stop-opacity:1.0000000;" />
    </linearGradient>
    <radialGradient
       cx="240.37982"
       cy="169.99573"
       fx="240.37982"
       fy="169.99573"
       gradientTransform="matrix(1,0,0,0.905825,0,20.87199)"
       gradientUnits="userSpaceOnUse"
       id="radialGradient11710"
       inkscape:collect="always"
       r="73.131134"
       xlink:href="#linearGradient4927" />
    <linearGradient
       id="linearGradient4927">
      <stop
         id="stop4929"
         offset="0.00000000"
         style="stop-color:#e0de2c;stop-opacity:1.0000000;" />
      <stop
         id="stop4931"
         offset="1.0000000"
         style="stop-color:#e5e5e5;stop-opacity:1.0000000;" />
    </linearGradient>
    <linearGradient
       gradientUnits="userSpaceOnUse"
       id="linearGradient11712"
       inkscape:collect="always"
       x1="263.05844"
       x2="281.70435"
       xlink:href="#linearGradient5675"
       y1="423.44086"
       y2="331.09995" />
    <linearGradient
       id="linearGradient5675">
      <stop
         id="stop5677"
         offset="0.00000000"
         style="stop-color:#ffffff;stop-opacity:1.0000000;" />
      <stop
         id="stop5679"
         offset="1.0000000"
         style="stop-color:#e7edbe;stop-opacity:1.0000000;" />
    </linearGradient>
    <linearGradient
       gradientUnits="userSpaceOnUse"
       id="linearGradient11714"
       inkscape:collect="always"
       spreadMethod="repeat"
       x1="493.30402"
       x2="496.70248"
       xlink:href="#linearGradient6411"
       y1="326.13086"
       y2="324.03946" />
    <linearGradient
       id="linearGradient6411">
      <stop
         id="stop6413"
         offset="0"
         style="stop-color:#000000;stop-opacity:1;" />
      <stop
         id="stop6415"
         offset="1.0000000"
         style="stop-color:#595959;stop-opacity:1.0000000;" />
    </linearGradient>
    <radialGradient
       cx="495.40192"
       cy="134.40182"
       fx="495.40192"
       fy="134.40182"
       gradientTransform="matrix(-1.213234,-0.380133,0.06201452,-0.197881,1111.652,361.1912)"
       gradientUnits="userSpaceOnUse"
       id="radialGradient11716"
       inkscape:collect="always"
       r="45.169621"
       xlink:href="#linearGradient9363" />
    <linearGradient
       id="linearGradient9363">
      <stop
         id="stop9365"
         offset="0.00000000"
         style="stop-color:#797979;stop-opacity:1.0000000;" />
      <stop
         id="stop9367"
         offset="1.0000000"
         style="stop-color:#2a2a2a;stop-opacity:1.0000000;" />
    </linearGradient>
    <linearGradient
       gradientUnits="userSpaceOnUse"
       id="linearGradient11718"
       inkscape:collect="always"
       x1="318.59756"
       x2="288.71396"
       xlink:href="#linearGradient7887"
       y1="103.31743"
       y2="233.45561" />
    <linearGradient
       id="linearGradient7887">
      <stop
         id="stop7889"
         offset="0"
         style="stop-color:#000000;stop-opacity:1;" />
      <stop
         id="stop7891"
         offset="1.0000000"
         style="stop-color:#2c2c2c;stop-opacity:1.0000000;" />
    </linearGradient>
    <linearGradient
       gradientUnits="userSpaceOnUse"
       id="linearGradient11720"
       inkscape:collect="always"
       x1="494.05084"
       x2="444.90613"
       xlink:href="#linearGradient8627"
       y1="163.0381"
       y2="168.24548" />
    <linearGradient
       id="linearGradient8627">
      <stop
         id="stop8629"
         offset="0"
         style="stop-color:#000000;stop-opacity:1;" />
      <stop
         id="stop8631"
         offset="1.0000000"
         style="stop-color:#e85600;stop-opacity:1.0000000;" />
    </linearGradient>
    <linearGradient
       gradientUnits="userSpaceOnUse"
       id="linearGradient11722"
       inkscape:collect="always"
       spreadMethod="reflect"
       x1="374.20142"
       x2="378.57401"
       xlink:href="#linearGradient10101"
       y1="267.59784"
       y2="264.83621" />
    <linearGradient
       id="linearGradient10101">
      <stop
         id="stop10103"
         offset="0.00000000"
         style="stop-color:#4d400c;stop-opacity:1.0000000;" />
      <stop
         id="stop10105"
         offset="1.0000000"
         style="stop-color:#86692d;stop-opacity:1.0000000" />
    </linearGradient>
    <linearGradient
       y2="264.83621"
       x2="378.57401"
       y1="267.59784"
       x1="374.20142"
       spreadMethod="reflect"
       gradientUnits="userSpaceOnUse"
       id="linearGradient2932"
       xlink:href="#linearGradient10101"
       inkscape:collect="always" />
    <linearGradient
       inkscape:collect="always"
       xlink:href="#linearGradient3685"
       id="linearGradient3691"
       x1="725.71429"
       y1="899.07648"
       x2="725.71429"
       y2="234.21933"
       gradientUnits="userSpaceOnUse"
       gradientTransform="matrix(1.0719256,0,0,1.2370026,-352.10473,-38.490005)" />
    <inkscape:perspective
       id="perspective3813"
       inkscape:persp3d-origin="0.5 : 0.33333333 : 1"
       inkscape:vp_z="1 : 0.5 : 1"
       inkscape:vp_y="0 : 1000 : 0"
       inkscape:vp_x="0 : 0.5 : 1"
       sodipodi:type="inkscape:persp3d" />
  </defs>
  <sodipodi:namedview
     id="base"
     pagecolor="#ffffff"
     bordercolor="#666666"
     borderopacity="1.0"
     inkscape:pageopacity="0.0"
     inkscape:pageshadow="2"
     inkscape:zoom="0.175"
     inkscape:cx="555.12806"
     inkscape:cy="364.61347"
     inkscape:document-units="px"
     inkscape:current-layer="layer1"
     showgrid="false"
     objecttolerance="20"
     guidetolerance="10000"
     inkscape:window-width="684"
     inkscape:window-height="559"
     inkscape:window-x="0"
     inkscape:window-y="25"
     inkscape:window-maximized="0" />
  <metadata
     id="metadata7">
    <rdf:RDF>
      <cc:Work
         rdf:about="">
        <dc:format>image/svg+xml</dc:format>
        <dc:type
           rdf:resource="http://purl.org/dc/dcmitype/StillImage" />
        <dc:title></dc:title>
      </cc:Work>
    </rdf:RDF>
  </metadata>
  <g
     inkscape:label="Ebene 1"
     inkscape:groupmode="layer"
     id="layer1"
     transform="translate(0,-252.36218)">
    <rect
       style="fill:url(#linearGradient3691);fill-opacity:1;stroke:none"
       id="rect2911"
       width="851.61414"
       height="820.18549"
       x="0"
       y="252.36218" />
    <g
       id="g3869"
       transform="translate(-42.529169,-14.285742)">
      <path
         style="color:#000000;fill:#deb5aa;fill-opacity:1;fill-rule:evenodd;stroke:#000000;stroke-width:9.71888924;stroke-linecap:butt;stroke-linejoin:round;stroke-miterlimit:4;stroke-opacity:1;stroke-dashoffset:0;marker:none;visibility:visible;display:inline"
         sodipodi:nodetypes="ccccccccccccccccccccc"
         id="path121"
         d="m 446.14821,395.69517 c -50.4652,0 -87.52243,98.19121 -87.52243,144.89837 0,36.37729 24.88292,67.34825 59.71357,79.29842 -19.42974,4.15673 -37.46061,13.80562 -53.05069,27.96391 L 249.2939,580.26799 c -3.86567,-2.25286 -8.80147,-0.93803 -11.05434,2.92762 l -16.35435,28.06488 c -2.25284,3.86567 -0.93804,8.80149 2.92763,11.05433 l 110.03855,64.10503 c -16.7646,29.23554 -26.80296,65.60943 -26.80296,105.14233 0,96.09864 58.81247,174.09311 131.28911,174.0931 72.47663,0 131.2891,-77.99446 131.2891,-174.0931 0,-35.57228 -8.07796,-68.63496 -21.90675,-96.20801 l 111.65379,-67.5879 c 3.82674,-2.31838 5.04406,-7.27806 2.72572,-11.1048 l -16.85911,-27.76202 c -2.31836,-3.82673 -7.2276,-5.04409 -11.05432,-2.72573 l -114.2281,69.20314 c -14.41556,-15.21515 -31.29945,-26.38963 -49.71925,-32.5068 40.23623,-8.86833 70.21267,-42.33447 70.21267,-82.27652 0,-46.70716 -44.83788,-144.89837 -95.30308,-144.89837 z" />
      <path
         style="color:#000000;fill:#000000;fill-opacity:1;fill-rule:evenodd;stroke:#000000;stroke-width:6.01697636;stroke-linecap:butt;stroke-linejoin:round;stroke-miterlimit:4;stroke-opacity:1;stroke-dashoffset:0;marker:none;visibility:visible;display:inline"
         sodipodi:type="arc"
         sodipodi:ry="25.89138"
         sodipodi:rx="22.880754"
         sodipodi:cy="412.30316"
         sodipodi:cx="451.59384"
         id="path126"
         d="m 474.4746,412.30316 c 0,14.29942 -10.24407,25.89138 -22.88076,25.89138 -12.63669,0 -22.88075,-11.59196 -22.88075,-25.89138 0,-14.29941 10.24406,-25.89138 22.88075,-25.89138 12.63669,0 22.88076,11.59197 22.88076,25.89138 z"
         transform="matrix(1.6152447,0,0,1.6152447,-275.50921,-113.68154)" />
      <path
         style="color:#000000;fill:#ff0000;fill-opacity:1;fill-rule:evenodd;stroke:#000000;stroke-width:9.71888924;stroke-linecap:butt;stroke-linejoin:round;stroke-miterlimit:4;stroke-opacity:1;stroke-dashoffset:0;marker:none;visibility:visible;display:inline"
         id="path127"
         d="m 451.95664,561.03647 c -12.02944,0 -22.91393,3.3146 -31.59823,8.58099 5.83429,14.4173 18.64507,24.48104 33.5668,24.48105 14.26613,0 26.49876,-9.25958 32.65824,-22.6639 -9.05605,-6.40214 -21.20917,-10.39814 -34.62681,-10.39814 z" />
      <path
         style="color:#000000;fill:#ffffff;fill-opacity:1;fill-rule:evenodd;stroke:#000000;stroke-width:9.71888924;stroke-linecap:butt;stroke-linejoin:round;stroke-miterlimit:4;stroke-opacity:1;stroke-dashoffset:0;marker:none;visibility:visible;display:inline"
         id="rect129"
         d="m 453.92521,510.45912 c -7.15585,0 -13.77203,2.42108 -19.4334,6.41051 l 0,18.57531 c 0,4.47423 3.60199,8.07621 8.07621,8.07622 l 13.02291,0 c 4.47424,0 8.07623,-3.602 8.07623,-8.07622 l 0,-23.3201 c -3.11864,-0.96816 -6.35286,-1.66572 -9.74195,-1.66572 z" />
      <path
         transform="matrix(1.6152447,0,0,1.6152447,-277.45436,-111.73638)"
         style="color:#000000;fill:#ffffff;fill-opacity:1;fill-rule:evenodd;stroke:#000000;stroke-width:6.01697636;stroke-linecap:butt;stroke-linejoin:round;stroke-miterlimit:4;stroke-opacity:1;stroke-dashoffset:0;marker:none;visibility:visible;display:inline"
         sodipodi:type="arc"
         sodipodi:ry="18.063755"
         sodipodi:rx="13.246753"
         sodipodi:cy="356.30551"
         sodipodi:cx="438.34711"
         id="path131"
         d="m 451.59386,356.30551 c 0,9.97634 -5.93077,18.06376 -13.24675,18.06376 -7.31598,0 -13.24676,-8.08742 -13.24676,-18.06376 0,-9.97633 5.93078,-18.06375 13.24676,-18.06375 7.31598,0 13.24675,8.08742 13.24675,18.06375 z" />
      <path
         transform="matrix(1.6152447,0,0,1.6152447,-289.12532,-117.57185)"
         style="color:#000000;fill:#ffffff;fill-opacity:1;fill-rule:evenodd;stroke:#000000;stroke-width:6.01697636;stroke-linecap:butt;stroke-linejoin:round;stroke-miterlimit:4;stroke-opacity:1;stroke-dashoffset:0;marker:none;visibility:visible;display:inline"
         sodipodi:type="arc"
         sodipodi:ry="15.655253"
         sodipodi:rx="12.042502"
         sodipodi:cy="362.32678"
         sodipodi:cx="469.65762"
         id="path132"
         d="m 481.70013,362.32678 c 0,8.64616 -5.39162,15.65526 -12.04251,15.65526 -6.65089,0 -12.0425,-7.0091 -12.0425,-15.65526 0,-8.64616 5.39161,-15.65525 12.0425,-15.65525 6.65089,0 12.04251,7.00909 12.04251,15.65525 z" />
      <rect
         y="-101.82281"
         x="-1201.2761"
         width="138.43732"
         transform="matrix(-0.55716491,-0.83040187,0.83040187,-0.55716491,0,0)"
         style="color:#000000;fill:#deb5aa;fill-opacity:1;fill-rule:evenodd;stroke:#000000;stroke-width:9.71888924;stroke-linecap:butt;stroke-linejoin:round;stroke-miterlimit:4;stroke-opacity:1;stroke-dashoffset:0;marker:none;visibility:visible;display:inline"
         ry="27.012152"
         rx="23.694326"
         id="rect141"
         height="54.024303" />
      <path
         style="color:#000000;fill:#ffffff;fill-opacity:1;fill-rule:evenodd;stroke:#000000;stroke-width:8.64492226;stroke-linecap:butt;stroke-linejoin:round;stroke-miterlimit:4;stroke-opacity:1;stroke-dashoffset:0;marker:none;visibility:visible;display:inline"
         id="path133"
         d="m 290.9874,781.64701 c -4.01734,14.90696 -6.30955,30.5767 -6.30955,46.8421 0,94.31699 72.3546,170.86261 161.474,170.86261 82.5542,0 150.56932,-65.721 160.16161,-150.36921 L 290.9874,781.64701 z" />
      <path
         style="color:#000000;fill:#ffffff;fill-opacity:1;fill-rule:evenodd;stroke:#000000;stroke-width:9.71888924;stroke-linecap:butt;stroke-linejoin:round;stroke-miterlimit:4;stroke-opacity:1;stroke-dashoffset:0;marker:none;visibility:visible;display:inline"
         id="path135"
         d="m 290.53203,864.48697 311.22544,3.89033" />
      <path
         style="color:#000000;fill:#ffffff;fill-opacity:1;fill-rule:evenodd;stroke:#000000;stroke-width:9.71888924;stroke-linecap:butt;stroke-linejoin:round;stroke-miterlimit:4;stroke-opacity:1;stroke-dashoffset:0;marker:none;visibility:visible;display:inline"
         id="path136"
         d="M 562.13075,945.18819 310.42613,920.43037" />
      <rect
         y="884.11993"
         x="-496.98218"
         width="138.43739"
         transform="matrix(0.72767407,-0.68592306,0.68592306,0.72767407,0,0)"
         style="color:#000000;fill:#deb5aa;fill-opacity:1;fill-rule:evenodd;stroke:#000000;stroke-width:9.7188921;stroke-linecap:butt;stroke-linejoin:round;stroke-miterlimit:4;stroke-opacity:1;stroke-dashoffset:0;marker:none;visibility:visible;display:inline"
         ry="27.012167"
         rx="23.69434"
         id="rect137"
         height="54.024334" />
      <path
         style="color:#000000;fill:none;stroke:#000000;stroke-width:9.71888924;stroke-linecap:butt;stroke-linejoin:round;stroke-miterlimit:4;stroke-opacity:1;stroke-dashoffset:0;marker:none;visibility:visible;display:inline"
         sodipodi:nodetypes="ccccc"
         id="path138"
         d="m 447.06616,394.22923 0,-47.27129 c 0,0 -30.3887,27.01218 -38.83,-1.68824 -8.4413,-28.70043 35.45347,-69.21869 54.02433,-52.33609 18.57085,16.8826 6.75305,30.3887 6.75305,30.3887" />
      <path
         transform="matrix(1.6152447,0,0,1.6152447,-432.51741,-51.215905)"
         style="color:#000000;fill:none;stroke:#000000;stroke-width:6.01697636;stroke-linecap:butt;stroke-linejoin:round;stroke-miterlimit:4;stroke-opacity:1;stroke-dashoffset:0;marker:none;visibility:visible;display:inline"
         sodipodi:type="arc"
         sodipodi:ry="2.6130099"
         sodipodi:rx="2.0904078"
         sodipodi:cy="319.15161"
         sodipodi:cx="537.23486"
         id="path139"
         d="m 539.32527,319.15161 c 0,1.44313 -0.93591,2.61301 -2.09041,2.61301 -1.1545,0 -2.0904,-1.16988 -2.0904,-2.61301 0,-1.44312 0.9359,-2.61301 2.0904,-2.61301 1.1545,0 2.09041,1.16989 2.09041,2.61301 z" />
      <path
         transform="matrix(1.6152447,0,0,1.6152447,-402.12877,-50.371795)"
         style="color:#000000;fill:none;stroke:#000000;stroke-width:6.01697636;stroke-linecap:butt;stroke-linejoin:round;stroke-miterlimit:4;stroke-opacity:1;stroke-dashoffset:0;marker:none;visibility:visible;display:inline"
         sodipodi:type="arc"
         sodipodi:ry="2.6130099"
         sodipodi:rx="2.0904078"
         sodipodi:cy="319.15161"
         sodipodi:cx="537.23486"
         id="path140"
         d="m 539.32527,319.15161 c 0,1.44313 -0.93591,2.61301 -2.09041,2.61301 -1.1545,0 -2.0904,-1.16988 -2.0904,-2.61301 0,-1.44312 0.9359,-2.61301 2.0904,-2.61301 1.1545,0 2.09041,1.16989 2.09041,2.61301 z" />
      <path
         transform="matrix(1.6152447,0,0,1.6152447,-582.77254,-79.916333)"
         style="color:#000000;fill:none;stroke:#000000;stroke-width:6.01697636;stroke-linecap:butt;stroke-linejoin:round;stroke-miterlimit:4;stroke-opacity:1;stroke-dashoffset:0;marker:none;visibility:visible;display:inline"
         sodipodi:type="arc"
         sodipodi:ry="4.1808157"
         sodipodi:rx="4.1808157"
         sodipodi:cy="536.03143"
         sodipodi:cx="633.39362"
         id="path142"
         d="m 637.57443,536.03143 c 0,2.309 -1.87181,4.18082 -4.18081,4.18082 -2.30901,0 -4.18082,-1.87182 -4.18082,-4.18082 0,-2.309 1.87181,-4.18081 4.18082,-4.18081 2.309,0 4.18081,1.87181 4.18081,4.18081 z" />
    </g>
  </g>
</svg>
