<?xml version="1.0" encoding="UTF-8" standalone="no"?>
<!-- Created with Inkscape (http://www.inkscape.org/) -->

<svg
   xmlns:dc="http://purl.org/dc/elements/1.1/"
   xmlns:cc="http://creativecommons.org/ns#"
   xmlns:rdf="http://www.w3.org/1999/02/22-rdf-syntax-ns#"
   xmlns:svg="http://www.w3.org/2000/svg"
   xmlns="http://www.w3.org/2000/svg"
   xmlns:xlink="http://www.w3.org/1999/xlink"
   xmlns:sodipodi="http://sodipodi.sourceforge.net/DTD/sodipodi-0.dtd"
   xmlns:inkscape="http://www.inkscape.org/namespaces/inkscape"
   width="800"
   height="800"
   id="svg2"
   version="1.1"
   inkscape:version="0.47 r22583"
   sodipodi:docname="baby.svg"
   inkscape:export-filename="/home/fuddl/saugsaug/scorched3d-tmp/scorched3d/debian/avatars-free/baby.png"
   inkscape:export-xdpi="3.5999999"
   inkscape:export-ydpi="3.5999999">
  <defs
     id="defs4">
    <linearGradient
       id="linearGradient3685">
      <stop
         style="stop-color:#1b05ff;stop-opacity:1;"
         offset="0"
         id="stop3687" />
      <stop
         style="stop-color:#d62ae3;stop-opacity:1;"
         offset="1"
         id="stop3689" />
    </linearGradient>
    <inkscape:perspective
       sodipodi:type="inkscape:persp3d"
       inkscape:vp_x="0 : 526.18109 : 1"
       inkscape:vp_y="0 : 1000 : 0"
       inkscape:vp_z="744.09448 : 526.18109 : 1"
       inkscape:persp3d-origin="372.04724 : 350.78739 : 1"
       id="perspective10" />
    <inkscape:perspective
       id="perspective2885"
       inkscape:persp3d-origin="0.5 : 0.33333333 : 1"
       inkscape:vp_z="1 : 0.5 : 1"
       inkscape:vp_y="0 : 1000 : 0"
       inkscape:vp_x="0 : 0.5 : 1"
       sodipodi:type="inkscape:persp3d" />
    <linearGradient
       id="linearGradient4191">
      <stop
         id="stop4193"
         offset="0.00000000"
         style="stop-color:#000000;stop-opacity:1.0000000;" />
      <stop
         id="stop4195"
         offset="1.0000000"
         style="stop-color:#6e6e6e;stop-opacity:1.0000000;" />
    </linearGradient>
    <linearGradient
       id="linearGradient4927">
      <stop
         id="stop4929"
         offset="0.00000000"
         style="stop-color:#e0de2c;stop-opacity:1.0000000;" />
      <stop
         id="stop4931"
         offset="1.0000000"
         style="stop-color:#e5e5e5;stop-opacity:1.0000000;" />
    </linearGradient>
    <linearGradient
       id="linearGradient5675">
      <stop
         id="stop5677"
         offset="0.00000000"
         style="stop-color:#ffffff;stop-opacity:1.0000000;" />
      <stop
         id="stop5679"
         offset="1.0000000"
         style="stop-color:#e7edbe;stop-opacity:1.0000000;" />
    </linearGradient>
    <linearGradient
       id="linearGradient6411">
      <stop
         id="stop6413"
         offset="0"
         style="stop-color:#000000;stop-opacity:1;" />
      <stop
         id="stop6415"
         offset="1.0000000"
         style="stop-color:#595959;stop-opacity:1.0000000;" />
    </linearGradient>
    <linearGradient
       id="linearGradient9363">
      <stop
         id="stop9365"
         offset="0.00000000"
         style="stop-color:#797979;stop-opacity:1.0000000;" />
      <stop
         id="stop9367"
         offset="1.0000000"
         style="stop-color:#2a2a2a;stop-opacity:1.0000000;" />
    </linearGradient>
    <linearGradient
       id="linearGradient7887">
      <stop
         id="stop7889"
         offset="0"
         style="stop-color:#000000;stop-opacity:1;" />
      <stop
         id="stop7891"
         offset="1.0000000"
         style="stop-color:#2c2c2c;stop-opacity:1.0000000;" />
    </linearGradient>
    <linearGradient
       id="linearGradient8627">
      <stop
         id="stop8629"
         offset="0"
         style="stop-color:#000000;stop-opacity:1;" />
      <stop
         id="stop8631"
         offset="1.0000000"
         style="stop-color:#e85600;stop-opacity:1.0000000;" />
    </linearGradient>
    <linearGradient
       gradientUnits="userSpaceOnUse"
       id="linearGradient11722"
       inkscape:collect="always"
       spreadMethod="reflect"
       x1="374.20142"
       x2="378.57401"
       xlink:href="#linearGradient10101"
       y1="267.59784"
       y2="264.83621" />
    <linearGradient
       id="linearGradient10101">
      <stop
         id="stop10103"
         offset="0.00000000"
         style="stop-color:#4d400c;stop-opacity:1.0000000;" />
      <stop
         id="stop10105"
         offset="1.0000000"
         style="stop-color:#86692d;stop-opacity:1.0000000" />
    </linearGradient>
    <linearGradient
       inkscape:collect="always"
       xlink:href="#linearGradient3685"
       id="linearGradient3691"
       x1="725.71429"
       y1="899.07648"
       x2="725.71429"
       y2="234.21933"
       gradientUnits="userSpaceOnUse"
       gradientTransform="matrix(1.0719256,0,0,1.2370026,-352.10473,-38.490005)" />
    <inkscape:perspective
       id="perspective3813"
       inkscape:persp3d-origin="0.5 : 0.33333333 : 1"
       inkscape:vp_z="1 : 0.5 : 1"
       inkscape:vp_y="0 : 1000 : 0"
       inkscape:vp_x="0 : 0.5 : 1"
       sodipodi:type="inkscape:persp3d" />
    <inkscape:perspective
       id="perspective5041"
       inkscape:persp3d-origin="0.5 : 0.33333333 : 1"
       inkscape:vp_z="1 : 0.5 : 1"
       inkscape:vp_y="0 : 1000 : 0"
       inkscape:vp_x="0 : 0.5 : 1"
       sodipodi:type="inkscape:persp3d" />
  </defs>
  <sodipodi:namedview
     id="base"
     pagecolor="#ffffff"
     bordercolor="#666666"
     borderopacity="1.0"
     inkscape:pageopacity="0.0"
     inkscape:pageshadow="2"
     inkscape:zoom="0.175"
     inkscape:cx="555.12806"
     inkscape:cy="364.61347"
     inkscape:document-units="px"
     inkscape:current-layer="layer1"
     showgrid="false"
     objecttolerance="20"
     guidetolerance="10000"
     inkscape:window-width="684"
     inkscape:window-height="559"
     inkscape:window-x="0"
     inkscape:window-y="25"
     inkscape:window-maximized="0" />
  <metadata
     id="metadata7">
    <rdf:RDF>
      <cc:Work
         rdf:about="">
        <dc:format>image/svg+xml</dc:format>
        <dc:type
           rdf:resource="http://purl.org/dc/dcmitype/StillImage" />
        <dc:title></dc:title>
      </cc:Work>
    </rdf:RDF>
  </metadata>
  <g
     inkscape:label="Ebene 1"
     inkscape:groupmode="layer"
     id="layer1"
     transform="translate(0,-252.36218)">
    <rect
       style="fill:url(#linearGradient3691);fill-opacity:1;stroke:none"
       id="rect2911"
       width="851.61414"
       height="820.18549"
       x="0"
       y="252.36218" />
    <g
       id="g1343"
       transform="matrix(5.3986678,0,0,5.3986678,-1650.1401,-2243.0137)">
      <path
         d="m 369.01575,599.65023 c -5.39151,-3.35463 -15.42952,-10.68996 -18.97582,-19.50529 -0.96141,-2.38988 0.0805,-6.66674 4.37181,-8.07586 3.27306,-1.07477 9.63358,-4.32833 16.77123,-3.50725 3.57992,0.41181 4.6229,1.44337 6.86749,3.45213 1.94844,1.74372 5.19157,1.70803 7.16931,0.0711 1.83911,-1.52227 4.62007,-3.03755 7.12817,-2.60238 6.9367,1.20358 6.00258,1.05819 10.27675,2.1765 13.10579,3.42905 10.09694,6.41921 8.24576,10.78763 -3.40955,8.04594 -10.05927,13.24017 -12.36256,15.09725 -2.16574,1.74617 -6.87408,3.69107 -13.06039,4.70308 -4.33526,0.70921 -10.97343,0.79934 -16.43175,-2.59687 z m 16.26578,-10.59156 c 3.98468,-1.03579 17.26284,-4.56776 17.93767,-9.34812 0.23113,-1.63727 0.87434,-1.61249 -8.76103,-1.63709 -5.61214,-0.0143 -12.27295,2.06574 -18.92379,0.23072 -10.18285,-2.80952 -22.11259,-2.7448 -13.7492,0.55908 2.67765,1.05778 2.65474,3.55713 6.30676,5.8811 6.15932,3.9195 12.54391,5.52194 17.18959,4.31431 z"
         id="path1710"
         sodipodi:nodetypes="cssssssssssscssssss"
         style="fill:#000000" />
      <path
         d="m 317.83796,470.89372 c 7.63064,-2.58389 18.32285,0.90672 22.12749,3.25565 8.16516,5.04102 17.43545,14.13566 16.06935,15.76481 -0.54917,0.6549 -4.66568,-1.49516 -9.60813,-5.01831 -8.98012,-6.4014 -21.51484,-11.19701 -26.33915,-10.07695 -1.50461,0.34932 -8.70645,2.11118 -16.0041,3.91525 0,0 -2.66313,-2.2811 13.75454,-7.84045 z"
         id="path1714"
         style="fill:#000000" />
      <path
         d="m 389.36104,549.29191 c 1.50042,-1.17935 3.42568,-1.58834 4.27839,-0.90888 2.26904,1.8081 -0.008,3.89157 -3.76196,3.44185 -2.98936,-0.35815 -3.02996,-0.5573 -0.51643,-2.53297 z"
         id="path1718"
         style="fill:#000000" />
      <path
         d="m 339.44149,529.92919 c -9.50485,-0.28806 -19.4061,-4.67625 -25.4486,-11.17724 -5.92234,-6.3717 8.5003,-16.96219 11.01168,-18.48094 10.83132,-6.55021 21.23306,-4.31381 29.43476,-1.02768 6.12689,2.45481 -0.21842,0.21491 -6.50774,-0.76115 -20.47805,-3.17801 -15.5294,3.90589 -11.75018,4.35868 7.93498,0.95068 20.2329,7.40443 24.97196,13.10489 3.92089,4.7163 2.43164,6.7657 -2.02004,2.7798 -4.28243,-3.83438 -4.87654,-3.73159 -7.31972,1.26647 -3.64837,7.46353 -12.90414,8.27434 -18.15767,1.59061 -2.66872,-3.39521 -3.04078,-5.14659 -1.83072,-8.61757 3.1076,-12.34089 -14.75695,-6.798 -12.59044,2.79393 2.04974,10.63375 20.86043,12.46387 23.66396,11.57901 3.00164,-0.94739 5.59036,2.86541 -3.45725,2.59119 z m 6.67027,-15.20992 c 0.24047,-2.00712 -0.64286,-3.13092 -2.64998,-3.37139 -2.00713,-0.24047 -3.13094,0.64286 -3.37141,2.64998 -0.24047,2.00712 0.64286,3.13094 2.64998,3.37141 2.00714,0.24047 3.13094,-0.64286 3.37141,-2.65 z"
         id="path1720"
         sodipodi:nodetypes="ccccscccccccccccccc"
         style="fill:#000000" />
      <path
         d="m 415.62313,526.00839 c 0.23268,-1.16206 4.40139,-0.66383 7.11715,-1.04048 6.13154,-0.8504 16.33906,-3.84066 17.24601,-8.20524 3.28534,-5.44065 1.61655,-11.88464 -9.37683,-13.16618 -2.96491,-0.59366 -4.08351,2.21797 -2.40484,6.04463 5.59281,12.74933 -11.2988,20.99228 -18.60074,9.07699 -1.48511,-2.42339 -3.04406,-4.47502 -3.46431,-4.55918 -0.42029,-0.0841 -1.99727,1.68748 -3.50443,3.93695 -2.64898,3.95362 -5.67426,5.17227 -5.04558,2.03247 1.40765,-7.03015 14.62379,-18.17443 23.99475,-20.1327 5.38362,-0.86574 5.3257,-4.27539 -1.39224,-3.43748 -4.06524,0.50705 -8.19834,-0.33873 -13.85215,3.84022 -2.24773,1.6614 -0.93113,0.62852 -4.33271,3.1805 0.98718,-4.9303 11.87235,-10.18699 24.81642,-7.95673 15.18283,2.87395 22.50145,13.28431 21.85806,16.33118 -1.5134,7.16702 -15.91168,13.65131 -22.30406,15.31302 -6.19167,1.60952 -11.20463,0.99018 -10.7545,-1.25797 z m 5.898,-13.4294 c 0.63804,-3.18654 -3.7737,-3.59119 -5.05165,-0.46333 -0.78037,1.91008 -0.29614,2.63675 1.76715,2.65196 1.56314,0.0115 3.04117,-0.97337 3.2845,-2.18863 z"
         id="path1722"
         sodipodi:nodetypes="ccccccccccssccccccccc"
         style="fill:#000000" />
      <path
         d="m 398.66796,489.06901 c -0.0469,-0.87828 3.33614,-4.21735 7.51782,-7.42014 7.21349,-5.52489 8.44528,-5.99144 24.04236,-9.10656 14.43493,-2.88301 17.07689,-3.06341 21.66773,-1.47956 6.08834,2.10053 6.88046,1.82553 -15.57153,5.40559 -14.53023,2.3169 -18.87425,3.50021 -25.72839,7.00831 -4.53557,2.3214 -8.92103,6.68549 -9.95777,6.86426 -1.03677,0.17874 -1.92336,-0.3936 -1.97022,-1.2719 z"
         id="path1724"
         style="fill:#000000" />
      <path
         d="m 374.23642,549.21307 c -1.50042,-1.17935 -3.42568,-1.58834 -4.27839,-0.90888 -2.26904,1.8081 0.008,3.89157 3.76196,3.44185 2.98936,-0.35815 3.02996,-0.55729 0.51643,-2.53297 z"
         id="path1726"
         style="fill:#000000" />
      <path
         d="m 426.6473,498.01043 c 0.26764,-0.97297 10.08971,-5.25363 2.46599,-1.73675 -0.86969,0.40119 1.67369,-0.9335 2.48408,-1.44396 1.30407,-0.8214 2.94315,-0.91765 4.42787,-1.33109 -0.48225,2.30444 -7.87209,5.86362 -3.94062,4.16976 -9.80305,4.69085 12.56483,-7.49717 1.90885,0.99701 0.40979,-0.71591 7.81808,-4.12035 5.91002,-1.63203 -6.04573,3.71033 -3.99521,2.56965 0.91622,0.71178 4.81999,-1.59463 -1.59116,2.31679 -3.09441,3.14146 0.16942,-0.2153 5.83897,-3.04164 6.97929,-1.94074 -0.44068,1.52901 -5.54385,2.91871 -2.75729,2.14767 3.61916,-1.32835 5.66441,-1.29656 1.68287,1.35944 -1.38007,0.82363 3.61996,-1.48141 4.59829,-0.39234 -1.61607,2.02657 -6.11804,2.45906 -1.31583,1.54919 5.20452,-1.29677 2.47901,0.49362 -0.31458,2.32631 -2.35655,0.95318 3.5291,-0.97353 4.44489,-0.97013 -0.22825,1.86342 -6.55098,3.14925 -2.84289,2.28493 7.25432,-2.18071 0.31391,1.41529 -3.53222,2.97314 0.43388,-0.2195 -1.1707,0.47721 -0.88558,0.34037 3.32967,-1.59798 4.69039,-2.15331 8.38828,-3.02172 0.94993,1.66287 -4.41669,3.28508 -6.64214,3.9451 l 3.57314,-2.35999 c 4.52786,-1.61257 -4.42981,1.31238 -0.51627,0.7546 -4.30369,0.9926 -8.81292,1.11308 -0.40847,-2.04022 3.95396,-1.60941 -0.96278,1.11412 -3.50998,1.72137 -4.3541,0.91558 1.13493,-2.81917 2.54604,-2.5253 -0.97059,0.32311 -7.09094,2.49849 -4.67613,0.15928 2.63203,-1.71625 5.86053,-2.59033 0.87269,-1.30811 -4.83758,0.9541 -1.8596,-1.17503 0.76793,-2.22581 -0.5259,0.22621 -5.86444,2.51408 -4.59945,0.052 3.94177,-2.56886 2.40431,-1.0759 -1.16391,-0.28958 -3.53844,0.88445 1.03846,-2.70185 2.26514,-2.81257 -1.00856,0.56627 -6.52822,3.16109 -7.03275,1.50503 1.26345,-0.66559 7.78004,-4.30771 3.71599,-2.04081 -4.94233,1.82105 -8.02987,2.03497 -1.50762,-1.73136 1.81613,-1.06221 -5.09723,3.5042 -5.94151,1.64085 4.89501,-3.85313 10.24338,-5.71648 -1.28722,0.0345 -4.37921,1.78815 2.53918,-3.88681 3.37509,-4.93916 13.08143,-5.45713 -14.06255,7.5931 -1.62257,0.64054 l -3.73123,2.28735 z"
         id="path1728"
         style="fill:#000000;fill-opacity:1;fill-rule:nonzero;stroke:none" />
      <path
         d="m 332.03297,498.71407 c -0.36176,-0.89748 -9.87956,-3.76719 -2.46877,-1.35389 0.84539,0.27531 -1.64624,-0.68424 -2.45034,-1.07148 -1.29394,-0.62312 -2.80833,-0.51064 -4.21911,-0.72093 0.71779,2.14462 7.91921,4.62761 4.11186,3.49766 9.54943,3.26455 -12.41735,-5.60485 -1.63097,1.19211 -0.46136,-0.63381 -7.6612,-2.96645 -5.61409,-0.82388 5.98709,2.79537 3.97053,1.95992 -0.75494,0.79537 -4.61015,-0.92413 1.73602,2.01802 3.21298,2.6194 -0.1811,-0.18485 -5.71751,-2.18137 -6.63142,-0.98576 0.58695,1.40786 5.43224,2.10058 2.78503,1.71065 -3.47727,-0.81923 -5.34874,-0.53354 -1.38043,1.51067 1.36389,0.6158 -3.4963,-0.96555 -4.26309,0.19851 1.72417,1.73725 5.90373,1.58917 1.39179,1.31798 -4.92712,-0.59116 -2.21398,0.78168 0.56664,2.18645 2.27475,0.61786 -3.35224,-0.491 -4.19153,-0.37345 0.43216,1.75437 6.38324,2.19548 2.87993,1.83132 -6.91228,-1.18105 -0.11856,1.39327 3.59429,2.40374 -0.42408,-0.15586 1.13047,0.31047 0.85269,0.21513 -3.2441,-1.11334 -4.55817,-1.47481 -8.05261,-1.84418 -0.67211,1.70952 4.44256,2.59181 6.56202,2.94555 l -3.55847,-1.81198 c -4.34446,-0.97776 4.21863,0.70276 0.5636,0.65752 4.06477,0.41255 8.21369,-0.0349 0.13053,-2.00296 -3.81788,-1.04636 1.016,0.94578 3.42415,1.20887 4.10179,0.33257 -1.37778,-2.55561 -2.63647,-2.09835 0.92857,0.18802 6.80048,1.50549 4.30658,-0.43119 -2.61858,-1.31355 -5.68332,-1.7469 -0.95663,-1.14264 4.5497,0.30912 1.56453,-1.35629 -0.97031,-2.03369 0.50924,0.15078 5.67779,1.67347 4.22343,-0.5243 -3.92144,-1.96582 -2.33319,-0.7293 1.03256,-0.42232 3.35017,0.40461 -1.27532,-2.4554 -2.4133,-2.40823 0.99248,0.41591 6.36379,2.20965 6.62833,0.56223 -1.23807,-0.47912 -7.64873,-3.15045 -3.65126,-1.48879 4.74941,1.12549 7.60595,0.94483 1.17524,-1.84464 -1.79226,-0.78962 5.09275,2.71651 5.64401,0.82838 -4.94909,-3.0756 -10.07584,-4.19088 1.18437,-0.12763 4.22916,1.16428 -2.79305,-3.40182 -3.68536,-4.30434 -12.64702,-3.58855 13.80208,5.50969 1.56437,0.41035 l 3.6947,1.72274 z"
         id="path1730"
         style="fill:#000000;fill-opacity:1;fill-rule:nonzero;stroke:none" />
    </g>
  </g>
</svg>
