<?xml version="1.0" encoding="UTF-8" standalone="no"?>
<!-- Created with Inkscape (http://www.inkscape.org/) -->

<svg
   xmlns:dc="http://purl.org/dc/elements/1.1/"
   xmlns:cc="http://creativecommons.org/ns#"
   xmlns:rdf="http://www.w3.org/1999/02/22-rdf-syntax-ns#"
   xmlns:svg="http://www.w3.org/2000/svg"
   xmlns="http://www.w3.org/2000/svg"
   xmlns:xlink="http://www.w3.org/1999/xlink"
   xmlns:sodipodi="http://sodipodi.sourceforge.net/DTD/sodipodi-0.dtd"
   xmlns:inkscape="http://www.inkscape.org/namespaces/inkscape"
   width="800"
   height="800"
   id="svg2"
   version="1.1"
   inkscape:version="0.47 r22583"
   sodipodi:docname="bavia.svg"
   inkscape:export-filename="/home/fuddl/saugsaug/scorched3d-tmp/scorched3d/debian/avatars-free/bavia.png"
   inkscape:export-xdpi="3.5999999"
   inkscape:export-ydpi="3.5999999">
  <defs
     id="defs4">
    <linearGradient
       id="linearGradient3685">
      <stop
         style="stop-color:#1b05ff;stop-opacity:1;"
         offset="0"
         id="stop3687" />
      <stop
         style="stop-color:#d62ae3;stop-opacity:1;"
         offset="1"
         id="stop3689" />
    </linearGradient>
    <inkscape:perspective
       sodipodi:type="inkscape:persp3d"
       inkscape:vp_x="0 : 526.18109 : 1"
       inkscape:vp_y="0 : 1000 : 0"
       inkscape:vp_z="744.09448 : 526.18109 : 1"
       inkscape:persp3d-origin="372.04724 : 350.78739 : 1"
       id="perspective10" />
    <inkscape:perspective
       id="perspective2885"
       inkscape:persp3d-origin="0.5 : 0.33333333 : 1"
       inkscape:vp_z="1 : 0.5 : 1"
       inkscape:vp_y="0 : 1000 : 0"
       inkscape:vp_x="0 : 0.5 : 1"
       sodipodi:type="inkscape:persp3d" />
    <linearGradient
       id="linearGradient4191">
      <stop
         id="stop4193"
         offset="0.00000000"
         style="stop-color:#000000;stop-opacity:1.0000000;" />
      <stop
         id="stop4195"
         offset="1.0000000"
         style="stop-color:#6e6e6e;stop-opacity:1.0000000;" />
    </linearGradient>
    <linearGradient
       id="linearGradient4927">
      <stop
         id="stop4929"
         offset="0.00000000"
         style="stop-color:#e0de2c;stop-opacity:1.0000000;" />
      <stop
         id="stop4931"
         offset="1.0000000"
         style="stop-color:#e5e5e5;stop-opacity:1.0000000;" />
    </linearGradient>
    <linearGradient
       id="linearGradient5675">
      <stop
         id="stop5677"
         offset="0.00000000"
         style="stop-color:#ffffff;stop-opacity:1.0000000;" />
      <stop
         id="stop5679"
         offset="1.0000000"
         style="stop-color:#e7edbe;stop-opacity:1.0000000;" />
    </linearGradient>
    <linearGradient
       id="linearGradient6411">
      <stop
         id="stop6413"
         offset="0"
         style="stop-color:#000000;stop-opacity:1;" />
      <stop
         id="stop6415"
         offset="1.0000000"
         style="stop-color:#595959;stop-opacity:1.0000000;" />
    </linearGradient>
    <linearGradient
       id="linearGradient9363">
      <stop
         id="stop9365"
         offset="0.00000000"
         style="stop-color:#797979;stop-opacity:1.0000000;" />
      <stop
         id="stop9367"
         offset="1.0000000"
         style="stop-color:#2a2a2a;stop-opacity:1.0000000;" />
    </linearGradient>
    <linearGradient
       id="linearGradient7887">
      <stop
         id="stop7889"
         offset="0"
         style="stop-color:#000000;stop-opacity:1;" />
      <stop
         id="stop7891"
         offset="1.0000000"
         style="stop-color:#2c2c2c;stop-opacity:1.0000000;" />
    </linearGradient>
    <linearGradient
       id="linearGradient8627">
      <stop
         id="stop8629"
         offset="0"
         style="stop-color:#000000;stop-opacity:1;" />
      <stop
         id="stop8631"
         offset="1.0000000"
         style="stop-color:#e85600;stop-opacity:1.0000000;" />
    </linearGradient>
    <linearGradient
       gradientUnits="userSpaceOnUse"
       id="linearGradient11722"
       inkscape:collect="always"
       spreadMethod="reflect"
       x1="374.20142"
       x2="378.57401"
       xlink:href="#linearGradient10101"
       y1="267.59784"
       y2="264.83621" />
    <linearGradient
       id="linearGradient10101">
      <stop
         id="stop10103"
         offset="0.00000000"
         style="stop-color:#4d400c;stop-opacity:1.0000000;" />
      <stop
         id="stop10105"
         offset="1.0000000"
         style="stop-color:#86692d;stop-opacity:1.0000000" />
    </linearGradient>
    <linearGradient
       inkscape:collect="always"
       xlink:href="#linearGradient9363"
       id="linearGradient3691"
       x1="725.71436"
       y1="235.12657"
       x2="725.71436"
       y2="898.16925"
       gradientUnits="userSpaceOnUse"
       gradientTransform="matrix(1.0719256,0,0,1.2370026,-352.10473,-38.490005)" />
    <inkscape:perspective
       id="perspective3813"
       inkscape:persp3d-origin="0.5 : 0.33333333 : 1"
       inkscape:vp_z="1 : 0.5 : 1"
       inkscape:vp_y="0 : 1000 : 0"
       inkscape:vp_x="0 : 0.5 : 1"
       sodipodi:type="inkscape:persp3d" />
    <inkscape:perspective
       id="perspective5041"
       inkscape:persp3d-origin="0.5 : 0.33333333 : 1"
       inkscape:vp_z="1 : 0.5 : 1"
       inkscape:vp_y="0 : 1000 : 0"
       inkscape:vp_x="0 : 0.5 : 1"
       sodipodi:type="inkscape:persp3d" />
    <inkscape:perspective
       id="perspective12807"
       inkscape:persp3d-origin="0.5 : 0.33333333 : 1"
       inkscape:vp_z="1 : 0.5 : 1"
       inkscape:vp_y="0 : 1000 : 0"
       inkscape:vp_x="0 : 0.5 : 1"
       sodipodi:type="inkscape:persp3d" />
  </defs>
  <sodipodi:namedview
     id="base"
     pagecolor="#ffffff"
     bordercolor="#666666"
     borderopacity="1.0"
     inkscape:pageopacity="0.0"
     inkscape:pageshadow="2"
     inkscape:zoom="0.175"
     inkscape:cx="64.301219"
     inkscape:cy="550.46319"
     inkscape:document-units="px"
     inkscape:current-layer="layer1"
     showgrid="false"
     objecttolerance="20"
     guidetolerance="10000"
     inkscape:window-width="684"
     inkscape:window-height="559"
     inkscape:window-x="0"
     inkscape:window-y="25"
     inkscape:window-maximized="0" />
  <metadata
     id="metadata7">
    <rdf:RDF>
      <cc:Work
         rdf:about="">
        <dc:format>image/svg+xml</dc:format>
        <dc:type
           rdf:resource="http://purl.org/dc/dcmitype/StillImage" />
        <dc:title></dc:title>
      </cc:Work>
    </rdf:RDF>
  </metadata>
  <g
     inkscape:label="Ebene 1"
     inkscape:groupmode="layer"
     id="layer1"
     transform="translate(0,-252.36218)">
    <rect
       style="fill:url(#linearGradient3691);fill-opacity:1;stroke:none;fill-rule:nonzero"
       id="rect2911"
       width="851.61414"
       height="820.18549"
       x="0"
       y="252.36218" />
    <g
       id="g572"
       transform="matrix(1.7178562,0,0,1.7178562,-85.326383,-145.07142)">
      <path
         d="m 339.797,253.868 c -2.728,-0.545 99.266,-3.273 99.811,-3.273 0.546,0 48.543,12.545 48.543,12.545 0,0 2.727,247.075 3.272,247.075 0.545,0 -20.18,17.999 -20.18,17.999 0,0 2.181,21.817 1.636,21.817 -0.546,0 -43.038,41.39 -89.994,68.723 -74.273,43.323 -120.177,54.461 -126.503,56.758 -6.039,1.595 -13.264,4.791 -18.395,-1.159 -6.597,-7.65 -7.446,-10.33 -10.547,-10.33 -4.829,1.307 -9.658,2.375 -14.487,3.682 -6.387,2.282 -23.987,-17.385 -35.146,-28.225 0,0 -39.27,-60.542 -38.725,-60.542 0.545,0 -14.726,-44.724 -14.726,-44.724 0,0 -25.0897,-26.726 -25.0897,-30.544 -2.1817,0 -25.6626,-155.787 -25.6626,-155.787 L 339.797,253.868 z"
         id="path561"
         sodipodi:nodetypes="ccccccscscccccccc"
         style="fill:#9d9d9d;fill-opacity:1;fill-rule:evenodd;stroke:#000000;stroke-width:3.5;stroke-linecap:butt;stroke-linejoin:miter;stroke-opacity:1;stroke-dasharray:none" />
      <path
         d="m 454.88,306.774 c 4.724,-3.374 14.338,65.58 14.726,103.629 1.083,38.744 -0.989,84.67 -4.363,83.995 4.724,0 -24.907,26.589 -86.176,64.359 -24.446,14.801 -142.9,58.906 -142.9,58.906 L 192.533,409.858 454.88,306.774 z"
         id="path560"
         sodipodi:nodetypes="cscsccc"
         style="fill:#e4fff7;fill-opacity:1;fill-rule:evenodd;stroke:#000000;stroke-width:1pt;stroke-linecap:butt;stroke-linejoin:miter;stroke-opacity:1" />
      <path
         d="m 199.624,417.494 c 1.636,0 169.08,-60.542 170.716,-60.542 1.636,0 104.175,-49.087 104.175,-49.087 0,0 7.636,83.994 8.181,103.084 0.546,19.089 -1.636,85.631 -1.636,86.721 0,1.091 -71.995,56.724 -100.903,70.36 -28.907,13.635 -129.809,55.632 -129.809,55.632 0,0 -9.273,5.455 -12.545,-14.726 -3.273,-20.18 -12.545,-80.722 -15.817,-94.903 -3.273,-14.181 -23.453,-96.539 -22.362,-96.539 z m -55.088,-25.635 344.16,-127.628 2.727,246.53 c 0,0 -76.359,63.268 -115.084,82.358 -38.724,19.09 -153.262,68.177 -153.262,68.177 0,0 -10.363,6 -12.545,-2.727 -2.182,-8.726 -65.996,-266.71 -65.996,-266.71 z"
         id="path564"
         style="font-size:12px;fill:#b9b9b9;fill-opacity:1;fill-rule:evenodd;stroke:#000000;stroke-width:1pt" />
      <path
         d="M 439.063,250.05 121.073,362.693 160.99,389.29"
         id="path565"
         sodipodi:nodetypes="ccc"
         style="font-size:12px;fill:none;stroke:#000000;stroke-width:1pt"
         transform="translate(-16.70029,2.14711)" />
      <path
         d="m 120.706,362.2 c 0,0.546 64.132,259.795 64.132,259.795"
         id="path566"
         sodipodi:nodetypes="cc"
         style="font-size:12px;fill:none;stroke:#000000;stroke-width:1pt"
         transform="translate(-16.70029,2.14711)" />
    </g>
  </g>
</svg>
