<?xml version="1.0" encoding="UTF-8" standalone="no"?>
<!-- Created with Inkscape (http://www.inkscape.org/) -->

<svg
   xmlns:dc="http://purl.org/dc/elements/1.1/"
   xmlns:cc="http://creativecommons.org/ns#"
   xmlns:rdf="http://www.w3.org/1999/02/22-rdf-syntax-ns#"
   xmlns:svg="http://www.w3.org/2000/svg"
   xmlns="http://www.w3.org/2000/svg"
   xmlns:xlink="http://www.w3.org/1999/xlink"
   xmlns:sodipodi="http://sodipodi.sourceforge.net/DTD/sodipodi-0.dtd"
   xmlns:inkscape="http://www.inkscape.org/namespaces/inkscape"
   width="800"
   height="800"
   id="svg2"
   version="1.1"
   inkscape:version="0.47 r22583"
   sodipodi:docname="daisy.svg"
   inkscape:export-filename="/home/fuddl/saugsaug/scorched3d-tmp/scorched3d/debian/avatars-free/daisy.png"
   inkscape:export-xdpi="3.5999999"
   inkscape:export-ydpi="3.5999999">
  <defs
     id="defs4">
    <linearGradient
       id="linearGradient3685">
      <stop
         style="stop-color:#1b05ff;stop-opacity:1;"
         offset="0"
         id="stop3687" />
      <stop
         style="stop-color:#d62ae3;stop-opacity:1;"
         offset="1"
         id="stop3689" />
    </linearGradient>
    <inkscape:perspective
       sodipodi:type="inkscape:persp3d"
       inkscape:vp_x="0 : 526.18109 : 1"
       inkscape:vp_y="0 : 1000 : 0"
       inkscape:vp_z="744.09448 : 526.18109 : 1"
       inkscape:persp3d-origin="372.04724 : 350.78739 : 1"
       id="perspective10" />
    <inkscape:perspective
       id="perspective2885"
       inkscape:persp3d-origin="0.5 : 0.33333333 : 1"
       inkscape:vp_z="1 : 0.5 : 1"
       inkscape:vp_y="0 : 1000 : 0"
       inkscape:vp_x="0 : 0.5 : 1"
       sodipodi:type="inkscape:persp3d" />
    <linearGradient
       id="linearGradient4191">
      <stop
         id="stop4193"
         offset="0.00000000"
         style="stop-color:#000000;stop-opacity:1.0000000;" />
      <stop
         id="stop4195"
         offset="1.0000000"
         style="stop-color:#6e6e6e;stop-opacity:1.0000000;" />
    </linearGradient>
    <linearGradient
       id="linearGradient4927">
      <stop
         id="stop4929"
         offset="0.00000000"
         style="stop-color:#e0de2c;stop-opacity:1.0000000;" />
      <stop
         id="stop4931"
         offset="1.0000000"
         style="stop-color:#e5e5e5;stop-opacity:1.0000000;" />
    </linearGradient>
    <linearGradient
       id="linearGradient5675">
      <stop
         id="stop5677"
         offset="0.00000000"
         style="stop-color:#ffffff;stop-opacity:1.0000000;" />
      <stop
         id="stop5679"
         offset="1.0000000"
         style="stop-color:#e7edbe;stop-opacity:1.0000000;" />
    </linearGradient>
    <linearGradient
       id="linearGradient6411">
      <stop
         id="stop6413"
         offset="0"
         style="stop-color:#000000;stop-opacity:1;" />
      <stop
         id="stop6415"
         offset="1.0000000"
         style="stop-color:#595959;stop-opacity:1.0000000;" />
    </linearGradient>
    <linearGradient
       id="linearGradient9363">
      <stop
         id="stop9365"
         offset="0"
         style="stop-color:#5c1b74;stop-opacity:1;" />
      <stop
         id="stop9367"
         offset="1"
         style="stop-color:#181931;stop-opacity:1;" />
    </linearGradient>
    <linearGradient
       id="linearGradient7887">
      <stop
         id="stop7889"
         offset="0"
         style="stop-color:#000000;stop-opacity:1;" />
      <stop
         id="stop7891"
         offset="1.0000000"
         style="stop-color:#2c2c2c;stop-opacity:1.0000000;" />
    </linearGradient>
    <linearGradient
       id="linearGradient8627">
      <stop
         id="stop8629"
         offset="0"
         style="stop-color:#000000;stop-opacity:1;" />
      <stop
         id="stop8631"
         offset="1.0000000"
         style="stop-color:#e85600;stop-opacity:1.0000000;" />
    </linearGradient>
    <linearGradient
       gradientUnits="userSpaceOnUse"
       id="linearGradient11722"
       inkscape:collect="always"
       spreadMethod="reflect"
       x1="374.20142"
       x2="378.57401"
       xlink:href="#linearGradient10101"
       y1="267.59784"
       y2="264.83621" />
    <linearGradient
       id="linearGradient10101">
      <stop
         id="stop10103"
         offset="0.00000000"
         style="stop-color:#4d400c;stop-opacity:1.0000000;" />
      <stop
         id="stop10105"
         offset="1.0000000"
         style="stop-color:#86692d;stop-opacity:1.0000000" />
    </linearGradient>
    <linearGradient
       inkscape:collect="always"
       xlink:href="#linearGradient7887"
       id="linearGradient3691"
       x1="725.71436"
       y1="898.16925"
       x2="725.71436"
       y2="235.12657"
       gradientUnits="userSpaceOnUse"
       gradientTransform="matrix(1.0719256,0,0,1.2370026,-352.10473,-38.490005)" />
    <inkscape:perspective
       id="perspective3813"
       inkscape:persp3d-origin="0.5 : 0.33333333 : 1"
       inkscape:vp_z="1 : 0.5 : 1"
       inkscape:vp_y="0 : 1000 : 0"
       inkscape:vp_x="0 : 0.5 : 1"
       sodipodi:type="inkscape:persp3d" />
    <inkscape:perspective
       id="perspective5041"
       inkscape:persp3d-origin="0.5 : 0.33333333 : 1"
       inkscape:vp_z="1 : 0.5 : 1"
       inkscape:vp_y="0 : 1000 : 0"
       inkscape:vp_x="0 : 0.5 : 1"
       sodipodi:type="inkscape:persp3d" />
    <inkscape:perspective
       id="perspective12807"
       inkscape:persp3d-origin="0.5 : 0.33333333 : 1"
       inkscape:vp_z="1 : 0.5 : 1"
       inkscape:vp_y="0 : 1000 : 0"
       inkscape:vp_x="0 : 0.5 : 1"
       sodipodi:type="inkscape:persp3d" />
    <inkscape:perspective
       id="perspective15292"
       inkscape:persp3d-origin="0.5 : 0.33333333 : 1"
       inkscape:vp_z="1 : 0.5 : 1"
       inkscape:vp_y="0 : 1000 : 0"
       inkscape:vp_x="0 : 0.5 : 1"
       sodipodi:type="inkscape:persp3d" />
    <linearGradient
       id="linearGradient6295">
      <stop
         id="stop6296"
         offset="0.0000000"
         style="stop-color:#ffff00;stop-opacity:1.0000000;" />
      <stop
         id="stop6297"
         offset="1.0000000"
         style="stop-color:#c59700;stop-opacity:1.0000000;" />
    </linearGradient>
    <linearGradient
       id="linearGradient7858">
      <stop
         id="stop7859"
         offset="0.0000000"
         style="stop-color:#543900;stop-opacity:1.0000000;" />
      <stop
         id="stop7860"
         offset="1.0000000"
         style="stop-color:#543900;stop-opacity:0.0000000;" />
    </linearGradient>
    <linearGradient
       id="linearGradient15305">
      <stop
         id="stop15307"
         offset="0.0000000"
         style="stop-color:#ffff00;stop-opacity:1.0000000;" />
      <stop
         id="stop15309"
         offset="1.0000000"
         style="stop-color:#c59700;stop-opacity:1.0000000;" />
    </linearGradient>
    <linearGradient
       id="linearGradient15312">
      <stop
         id="stop15314"
         offset="0.0000000"
         style="stop-color:#543900;stop-opacity:1.0000000;" />
      <stop
         id="stop15316"
         offset="1.0000000"
         style="stop-color:#543900;stop-opacity:0.0000000;" />
    </linearGradient>
    <linearGradient
       id="linearGradient15319">
      <stop
         id="stop15321"
         offset="0.0000000"
         style="stop-color:#ffff00;stop-opacity:1.0000000;" />
      <stop
         id="stop15323"
         offset="1.0000000"
         style="stop-color:#c59700;stop-opacity:1.0000000;" />
    </linearGradient>
    <linearGradient
       id="linearGradient15326">
      <stop
         id="stop15328"
         offset="0.0000000"
         style="stop-color:#543900;stop-opacity:1.0000000;" />
      <stop
         id="stop15330"
         offset="1.0000000"
         style="stop-color:#543900;stop-opacity:0.0000000;" />
    </linearGradient>
    <linearGradient
       id="linearGradient15333">
      <stop
         id="stop15335"
         offset="0.0000000"
         style="stop-color:#ffff00;stop-opacity:1.0000000;" />
      <stop
         id="stop15337"
         offset="1.0000000"
         style="stop-color:#c59700;stop-opacity:1.0000000;" />
    </linearGradient>
    <linearGradient
       id="linearGradient15340">
      <stop
         id="stop15342"
         offset="0.0000000"
         style="stop-color:#543900;stop-opacity:1.0000000;" />
      <stop
         id="stop15344"
         offset="1.0000000"
         style="stop-color:#543900;stop-opacity:0.0000000;" />
    </linearGradient>
    <linearGradient
       id="linearGradient15347">
      <stop
         id="stop15349"
         offset="0.0000000"
         style="stop-color:#ffff00;stop-opacity:1.0000000;" />
      <stop
         id="stop15351"
         offset="1.0000000"
         style="stop-color:#c59700;stop-opacity:1.0000000;" />
    </linearGradient>
    <linearGradient
       id="linearGradient15354">
      <stop
         id="stop15356"
         offset="0.0000000"
         style="stop-color:#543900;stop-opacity:1.0000000;" />
      <stop
         id="stop15358"
         offset="1.0000000"
         style="stop-color:#543900;stop-opacity:0.0000000;" />
    </linearGradient>
    <linearGradient
       id="linearGradient15361">
      <stop
         id="stop15363"
         offset="0.0000000"
         style="stop-color:#ffff00;stop-opacity:1.0000000;" />
      <stop
         id="stop15365"
         offset="1.0000000"
         style="stop-color:#c59700;stop-opacity:1.0000000;" />
    </linearGradient>
    <linearGradient
       id="linearGradient15368">
      <stop
         id="stop15370"
         offset="0.0000000"
         style="stop-color:#543900;stop-opacity:1.0000000;" />
      <stop
         id="stop15372"
         offset="1.0000000"
         style="stop-color:#543900;stop-opacity:0.0000000;" />
    </linearGradient>
    <linearGradient
       id="linearGradient15375">
      <stop
         id="stop15377"
         offset="0.0000000"
         style="stop-color:#ffff00;stop-opacity:1.0000000;" />
      <stop
         id="stop15379"
         offset="1.0000000"
         style="stop-color:#c59700;stop-opacity:1.0000000;" />
    </linearGradient>
    <linearGradient
       id="linearGradient15382">
      <stop
         id="stop15384"
         offset="0.0000000"
         style="stop-color:#543900;stop-opacity:1.0000000;" />
      <stop
         id="stop15386"
         offset="1.0000000"
         style="stop-color:#543900;stop-opacity:0.0000000;" />
    </linearGradient>
    <linearGradient
       id="linearGradient15389">
      <stop
         id="stop15391"
         offset="0.0000000"
         style="stop-color:#ffff00;stop-opacity:1.0000000;" />
      <stop
         id="stop15393"
         offset="1.0000000"
         style="stop-color:#c59700;stop-opacity:1.0000000;" />
    </linearGradient>
    <linearGradient
       id="linearGradient15396">
      <stop
         id="stop15398"
         offset="0.0000000"
         style="stop-color:#543900;stop-opacity:1.0000000;" />
      <stop
         id="stop15400"
         offset="1.0000000"
         style="stop-color:#543900;stop-opacity:0.0000000;" />
    </linearGradient>
    <linearGradient
       id="linearGradient15403">
      <stop
         id="stop15405"
         offset="0.0000000"
         style="stop-color:#ffff00;stop-opacity:1.0000000;" />
      <stop
         id="stop15407"
         offset="1.0000000"
         style="stop-color:#c59700;stop-opacity:1.0000000;" />
    </linearGradient>
    <linearGradient
       id="linearGradient15410">
      <stop
         id="stop15412"
         offset="0.0000000"
         style="stop-color:#543900;stop-opacity:1.0000000;" />
      <stop
         id="stop15414"
         offset="1.0000000"
         style="stop-color:#543900;stop-opacity:0.0000000;" />
    </linearGradient>
    <linearGradient
       id="linearGradient15417">
      <stop
         id="stop15419"
         offset="0.0000000"
         style="stop-color:#ffff00;stop-opacity:1.0000000;" />
      <stop
         id="stop15421"
         offset="1.0000000"
         style="stop-color:#c59700;stop-opacity:1.0000000;" />
    </linearGradient>
    <linearGradient
       id="linearGradient15424">
      <stop
         id="stop15426"
         offset="0.0000000"
         style="stop-color:#543900;stop-opacity:1.0000000;" />
      <stop
         id="stop15428"
         offset="1.0000000"
         style="stop-color:#543900;stop-opacity:0.0000000;" />
    </linearGradient>
    <linearGradient
       id="linearGradient15431">
      <stop
         id="stop15433"
         offset="0.0000000"
         style="stop-color:#ffff00;stop-opacity:1.0000000;" />
      <stop
         id="stop15435"
         offset="1.0000000"
         style="stop-color:#c59700;stop-opacity:1.0000000;" />
    </linearGradient>
    <linearGradient
       id="linearGradient15438">
      <stop
         id="stop15440"
         offset="0.0000000"
         style="stop-color:#543900;stop-opacity:1.0000000;" />
      <stop
         id="stop15442"
         offset="1.0000000"
         style="stop-color:#543900;stop-opacity:0.0000000;" />
    </linearGradient>
    <linearGradient
       id="linearGradient15445">
      <stop
         id="stop15447"
         offset="0.0000000"
         style="stop-color:#ffff00;stop-opacity:1.0000000;" />
      <stop
         id="stop15449"
         offset="1.0000000"
         style="stop-color:#c59700;stop-opacity:1.0000000;" />
    </linearGradient>
    <linearGradient
       id="linearGradient15452">
      <stop
         id="stop15454"
         offset="0.0000000"
         style="stop-color:#543900;stop-opacity:1.0000000;" />
      <stop
         id="stop15456"
         offset="1.0000000"
         style="stop-color:#543900;stop-opacity:0.0000000;" />
    </linearGradient>
    <linearGradient
       id="linearGradient15459">
      <stop
         id="stop15461"
         offset="0.0000000"
         style="stop-color:#ffff00;stop-opacity:1.0000000;" />
      <stop
         id="stop15463"
         offset="1.0000000"
         style="stop-color:#c59700;stop-opacity:1.0000000;" />
    </linearGradient>
    <linearGradient
       id="linearGradient15466">
      <stop
         id="stop15468"
         offset="0.0000000"
         style="stop-color:#543900;stop-opacity:1.0000000;" />
      <stop
         id="stop15470"
         offset="1.0000000"
         style="stop-color:#543900;stop-opacity:0.0000000;" />
    </linearGradient>
    <linearGradient
       id="linearGradient15473">
      <stop
         id="stop15475"
         offset="0.0000000"
         style="stop-color:#ffff00;stop-opacity:1.0000000;" />
      <stop
         id="stop15477"
         offset="1.0000000"
         style="stop-color:#c59700;stop-opacity:1.0000000;" />
    </linearGradient>
    <linearGradient
       id="linearGradient15480">
      <stop
         id="stop15482"
         offset="0.0000000"
         style="stop-color:#543900;stop-opacity:1.0000000;" />
      <stop
         id="stop15484"
         offset="1.0000000"
         style="stop-color:#543900;stop-opacity:0.0000000;" />
    </linearGradient>
    <linearGradient
       id="linearGradient15487">
      <stop
         id="stop15489"
         offset="0.0000000"
         style="stop-color:#ffff00;stop-opacity:1.0000000;" />
      <stop
         id="stop15491"
         offset="1.0000000"
         style="stop-color:#c59700;stop-opacity:1.0000000;" />
    </linearGradient>
    <linearGradient
       id="linearGradient15494">
      <stop
         id="stop15496"
         offset="0.0000000"
         style="stop-color:#543900;stop-opacity:1.0000000;" />
      <stop
         id="stop15498"
         offset="1.0000000"
         style="stop-color:#543900;stop-opacity:0.0000000;" />
    </linearGradient>
    <linearGradient
       id="linearGradient15501">
      <stop
         id="stop15503"
         offset="0.0000000"
         style="stop-color:#ffff00;stop-opacity:1.0000000;" />
      <stop
         id="stop15505"
         offset="1.0000000"
         style="stop-color:#c59700;stop-opacity:1.0000000;" />
    </linearGradient>
    <linearGradient
       id="linearGradient15508">
      <stop
         id="stop15510"
         offset="0.0000000"
         style="stop-color:#543900;stop-opacity:1.0000000;" />
      <stop
         id="stop15512"
         offset="1.0000000"
         style="stop-color:#543900;stop-opacity:0.0000000;" />
    </linearGradient>
    <linearGradient
       id="linearGradient15515">
      <stop
         id="stop15517"
         offset="0.0000000"
         style="stop-color:#ffff00;stop-opacity:1.0000000;" />
      <stop
         id="stop15519"
         offset="1.0000000"
         style="stop-color:#c59700;stop-opacity:1.0000000;" />
    </linearGradient>
    <linearGradient
       id="linearGradient15522">
      <stop
         id="stop15524"
         offset="0.0000000"
         style="stop-color:#543900;stop-opacity:1.0000000;" />
      <stop
         id="stop15526"
         offset="1.0000000"
         style="stop-color:#543900;stop-opacity:0.0000000;" />
    </linearGradient>
    <linearGradient
       id="linearGradient15529">
      <stop
         id="stop15531"
         offset="0.0000000"
         style="stop-color:#ffff00;stop-opacity:1.0000000;" />
      <stop
         id="stop15533"
         offset="1.0000000"
         style="stop-color:#c59700;stop-opacity:1.0000000;" />
    </linearGradient>
    <linearGradient
       id="linearGradient15536">
      <stop
         id="stop15538"
         offset="0.0000000"
         style="stop-color:#543900;stop-opacity:1.0000000;" />
      <stop
         id="stop15540"
         offset="1.0000000"
         style="stop-color:#543900;stop-opacity:0.0000000;" />
    </linearGradient>
    <linearGradient
       id="linearGradient15543">
      <stop
         id="stop15545"
         offset="0.0000000"
         style="stop-color:#ffff00;stop-opacity:1.0000000;" />
      <stop
         id="stop15547"
         offset="1.0000000"
         style="stop-color:#c59700;stop-opacity:1.0000000;" />
    </linearGradient>
    <linearGradient
       id="linearGradient15550">
      <stop
         id="stop15552"
         offset="0.0000000"
         style="stop-color:#543900;stop-opacity:1.0000000;" />
      <stop
         id="stop15554"
         offset="1.0000000"
         style="stop-color:#543900;stop-opacity:0.0000000;" />
    </linearGradient>
    <linearGradient
       id="linearGradient15557">
      <stop
         id="stop15559"
         offset="0.0000000"
         style="stop-color:#ffff00;stop-opacity:1.0000000;" />
      <stop
         id="stop15561"
         offset="1.0000000"
         style="stop-color:#c59700;stop-opacity:1.0000000;" />
    </linearGradient>
    <linearGradient
       id="linearGradient15564">
      <stop
         id="stop15566"
         offset="0.0000000"
         style="stop-color:#543900;stop-opacity:1.0000000;" />
      <stop
         id="stop15568"
         offset="1.0000000"
         style="stop-color:#543900;stop-opacity:0.0000000;" />
    </linearGradient>
    <inkscape:perspective
       id="perspective16982"
       inkscape:persp3d-origin="0.5 : 0.33333333 : 1"
       inkscape:vp_z="1 : 0.5 : 1"
       inkscape:vp_y="0 : 1000 : 0"
       inkscape:vp_x="0 : 0.5 : 1"
       sodipodi:type="inkscape:persp3d" />
  </defs>
  <sodipodi:namedview
     id="base"
     pagecolor="#ffffff"
     bordercolor="#666666"
     borderopacity="1.0"
     inkscape:pageopacity="0.0"
     inkscape:pageshadow="2"
     inkscape:zoom="0.175"
     inkscape:cx="64.301219"
     inkscape:cy="550.46319"
     inkscape:document-units="px"
     inkscape:current-layer="layer1"
     showgrid="false"
     objecttolerance="20"
     guidetolerance="10000"
     inkscape:window-width="684"
     inkscape:window-height="559"
     inkscape:window-x="0"
     inkscape:window-y="25"
     inkscape:window-maximized="0" />
  <metadata
     id="metadata7">
    <rdf:RDF>
      <cc:Work
         rdf:about="">
        <dc:format>image/svg+xml</dc:format>
        <dc:type
           rdf:resource="http://purl.org/dc/dcmitype/StillImage" />
        <dc:title></dc:title>
      </cc:Work>
    </rdf:RDF>
  </metadata>
  <g
     inkscape:label="Ebene 1"
     inkscape:groupmode="layer"
     id="layer1"
     transform="translate(0,-252.36218)">
    <rect
       style="fill:url(#linearGradient3691);fill-opacity:1;stroke:none;fill-rule:nonzero"
       id="rect2911"
       width="851.61414"
       height="820.18549"
       x="0"
       y="252.36218" />
    <g
       id="g17056"
       transform="translate(9.4776881,8.571422)">
      <path
         style="fill:#ffbf00;overflow:visible"
         id="path3"
         d="m 600.75077,472.23844 c 1.17704,-21.21306 4.99718,-41.42247 19.61564,-57.75658 14.92585,-16.67828 39.10779,-25.85291 25.90021,-51.05688 -21.284,-40.62113 -64.10683,-45.15065 -104.75686,-47.92248 -85.77179,-5.84843 -191.22489,-53.07205 -265.31031,14.65524 -16.13968,14.75508 -28.51177,32.37132 -48.23776,43.03565 -19.22154,10.39108 -40.23229,15.74295 -59.91624,24.95962 -38.77675,18.15747 -79.011667,37.37113 -100.839516,75.59089 -22.886665,40.07464 -23.393739,87.03027 -12.290647,130.50993 11.539231,45.18218 43.611036,70.85118 70.367753,106.7116 23.9481,32.09807 43.25109,66.14826 73.30248,92.78149 11.78358,10.44626 8.01336,15.60371 3.63097,29.3893 -6.13482,19.29511 -15.63261,36.50148 -24.76258,54.4803 -10.8929,21.44425 -32.90204,87.20893 12.54812,76.93081 39.43622,-8.91978 56.62946,-71.32147 70.6594,-103.01756 9.17988,-20.74277 16.96992,-34.42852 42.59425,-31.03927 23.45154,3.10025 26.44144,25.00429 32.3976,44.45441 6.78902,22.18516 13.68313,44.49644 22.30339,66.05105 5.59096,13.98001 17.18799,48.88933 33.12799,53.93118 24.64172,7.79526 51.56396,-41.47764 51.51142,-60.0949 -0.0578,-20.10957 -22.0538,-41.19389 -33.31191,-56.39036 -10.06004,-13.58329 -30.94993,-32.27411 -33.38809,-49.60134 -2.93473,-20.85574 18.26256,-22.15364 33.18316,-26.41254 22.77369,-6.50789 44.83011,-13.959 66.47142,-23.62757 21.6019,-9.6528 40.72886,-23.4384 58.40027,-38.99744 9.12209,-8.03175 21.27874,-3.8648 30.31938,1.86803 19.97032,12.6611 37.82565,28.04674 56.34307,42.66782 14.9206,11.77832 34.25511,35.06433 53.58962,22.1694 17.08027,-11.3921 31.79331,-26.33109 42.99099,-43.51382 10.80095,-16.56531 9.93656,-36.05746 10.34905,-55.00576 0.73302,-33.71914 10.98749,-65.32328 9.3165,-99.63094 -1.63682,-33.57726 -16.22901,-65.14199 -22.17991,-97.92055 -2.56427,-14.12715 2.31205,-35.74481 -3.31569,-48.44006 -5.97454,-13.48608 -27.0247,-6.68655 -38.96066,-3.96201 -24.58391,5.60934 -45.35558,32.86788 -71.65251,14.20334" />
      <path
         style="fill:#ff4000;overflow:visible"
         id="path5"
         d="m 147.07411,470.25743 c 10.36218,6.39229 31.97459,-4.00142 43.23269,-6.12693 22.50309,-4.24314 45.0298,-7.87411 67.73255,-10.87189 42.49179,-5.61197 86.51006,-17.88423 127.86685,-1.79972 21.11847,8.21566 39.38366,21.21043 56.80811,35.47157 16.4786,13.48608 41.22804,20.72962 61.39279,26.77511 20.91091,6.27143 42.64155,10.23082 62.96131,18.29672 6.42382,2.55113 43.37458,21.58613 38.30383,0.98787 -2.84014,-11.54185 -28.84544,-19.3529 -37.64174,-26.74621 -12.43778,-10.45151 -20.52732,-24.83088 -31.86162,-36.15467 -22.55299,-22.5346 -57.80912,-26.15243 -85.51956,-39.45723 -19.55521,-9.39007 -37.01118,-19.39494 -58.06922,-25.41152 -21.4574,-6.13219 -44.97462,-5.03659 -67.01791,-4.42442 -38.20399,1.06406 -77.22771,11.92807 -114.46484,19.92829 -26.36525,5.66452 -49.66178,14.60795 -71.32148,30.87111 -9.172,6.88886 -2.19119,25.12515 9.57662,22.28763 -0.73566,-1.05356 -1.37935,-2.58529 -1.97838,-3.62571" />
      <path
         style="fill:#ffff00;overflow:visible"
         id="path7"
         d="m 201.5544,670.68059 c 9.41373,19.58148 25.81352,31.63304 45.29516,40.39256 7.53518,3.38662 14.76559,6.80478 21.40222,11.77306 4.78174,3.58105 12.42727,12.64533 18.49114,13.536 4.74233,0.69887 11.21081,-4.09338 16.01357,-4.78437 5.27042,-0.7593 9.54509,8.58086 18.1601,9.24557 9.4794,0.7304 18.76438,-2.01253 28.23065,-0.82498 10.64331,1.33468 20.82421,5.62774 31.36505,7.59561 37.89397,7.07277 70.60947,-22.03541 105.16673,-33.51421 7.06226,-2.34621 10.62754,-7.67443 16.83592,-11.06106 7.16998,-3.90946 15.34097,-1.48444 22.61867,-4.62147 14.05359,-6.05074 27.72358,-25.65849 39.29171,-35.98915 7.27245,-6.49476 20.14373,-13.3731 20.14373,-24.43679 0,-9.17988 -7.23829,-15.03094 -15.66939,-10.6144 -19.17687,10.04165 -34.6571,25.0726 -50.2608,39.80403 -18.34401,17.32461 -30.61627,16.46547 -53.93118,20.99761 1.38197,-1.09822 2.32781,-2.54325 3.63359,-3.63359 -52.33376,7.00183 -107.52869,31.19953 -159.47887,10.89816 0.40461,1.63682 -0.0814,3.3367 0.32842,4.95251 -9.37431,-2.27527 -18.82744,1.36621 -28.49864,1.04042 -14.0746,-0.47029 -28.92689,-8.44686 -40.58172,-15.78762 -5.61986,-3.53638 -39.9249,-27.00368 -38.55606,-14.96789" />
      <path
         style="fill:#ff9e2b;overflow:visible"
         id="path9"
         d="m 352.44979,500.63461 c 20.68234,4.21423 38.81879,-7.4695 55.11611,-18.612 16.77024,-11.46829 34.78321,-18.87736 55.16602,-21.00812 9.08005,-0.94847 18.73286,-0.66735 27.73934,0.98787 15.35149,2.82438 18.03924,4.73708 21.31815,19.72862 4.78962,21.90666 5.49375,44.44652 5.14694,66.77881 -0.65421,42.07405 -12.50346,86.34717 -29.11081,124.81127 -12.13826,28.10979 -59.73232,93.71157 -88.55149,44.32829 -6.57095,-11.26336 -8.93029,-23.68537 -14.62897,-35.08535 -5.55155,-11.10046 -25.60332,-4.46383 -33.51421,-13.3731 -6.38703,-7.18575 -5.82216,-25.6007 -11.3921,-35.16418 -5.88259,-10.09945 -12.67686,-18.96406 -14.69465,-30.70822 -5.96141,-34.69387 2.77972,-86.024 36.98229,-102.68652 -3.15543,0.003 -6.43696,-0.28375 -9.57662,0.003" />
      <path
         id="path11"
         d="m 727.87408,746.95458 c -4.51638,20.04389 -10.73264,41.11244 -26.78299,55.01889 -8.32075,7.20677 -48.80526,25.19346 -56.21433,17.25367 -13.5649,-14.53701 -28.79815,-27.14556 -40.9443,-43.02251 -8.33126,-10.8929 -14.06934,-12.19343 -26.95376,-15.38301 -13.39413,-3.31832 -16.01095,-7.17524 -22.11949,-19.1506 -18.43596,9.53458 -35.65548,20.37231 -49.99281,35.54776 -14.03257,14.85229 -30.7923,16.1318 -48.07487,26.52814 -8.10268,4.8737 -13.28377,11.68899 -22.78419,12.87391 -10.93495,1.36884 -21.59665,0.51759 -31.36768,-4.94989 -15.35411,-8.59136 -3.83853,-23.65909 9.41372,-27.73933 9.26133,-2.85066 18.74073,3.05558 27.8996,0 4.83429,-1.61056 7.71909,-5.41493 9.18514,-10.22294 2.10975,-6.92827 6.38704,-9.28761 12.83188,-12.72678 20.79793,-11.08996 42.84648,-18.94042 64.162,-28.89011 21.64656,-10.10208 32.01926,-22.76318 45.06657,-42.34466 5.33085,-8.00022 10.04428,-15.9295 14.07723,-24.66274 2.95837,-6.40805 3.13966,-25.26965 6.89149,-29.40769 0.55173,-0.88016 1.10085,-1.76031 1.65258,-2.6431 7.08328,18.07603 6.21627,35.34809 -1.2979,53.18502 -3.5574,8.44161 -9.595,15.84805 -14.8444,23.28602 -3.42341,4.85268 -17.63201,18.82219 -16.87534,24.8992 1.18755,9.53983 18.37029,11.9596 25.25652,12.87654 13.29691,1.77082 16.70981,8.19726 23.60917,18.48851 10.82723,16.14756 24.82826,29.41295 43.05667,36.92185 6.41856,2.6431 19.78116,-11.08732 25.62171,-16.11866 9.08793,-7.82681 9.87613,-18.38342 16.70456,-26.10777 16.54166,-18.70395 18.40444,-41.31474 22.58977,-65.02376 4.05923,-23.01015 14.95476,-40.16661 13.03418,-64.21718 -1.71827,-21.51782 -3.25526,-43.68197 -6.09803,-65.05266 -1.27688,-9.59501 -2.46443,-19.74175 -7.76375,-28.06776 -2.15967,-3.3945 -7.03336,-4.7108 -8.44424,-8.06327 -2.17543,-5.17058 -3.48647,-10.31489 -4.58469,-15.81389 -2.13602,-10.68797 2.25425,-51.04112 -9.75527,-53.2218 -7.79529,-1.41613 -14.64473,4.22737 -20.63504,8.42059 -9.21405,6.45009 -19.11908,8.13158 -29.71772,11.72051 -9.83935,3.33408 -19.39757,7.33288 -28.56169,12.21708 -7.1621,3.81751 -18.26782,-13.26801 -22.61605,-18.1601 -12.64796,-14.22436 -26.95114,-28.15183 -42.07667,-39.84081 -14.74457,-11.38947 -28.79028,-30.46126 -44.78808,-38.88184 -17.30096,-9.10633 -39.36527,-5.24153 -58.08762,-8.11845 -20.33027,-3.1239 -36.20984,-14.15342 -54.48029,-22.45315 -13.36522,-6.07176 -31.90628,-5.70131 -43.58476,-13.86705 -1.75243,-1.22433 -4.88946,-0.0236 -5.94302,-4.6241 -0.49919,-2.17805 5.12855,-9.87613 5.78801,-9.85511 20.63504,0.71464 40.09041,3.55215 59.58519,10.51457 21.22094,7.57985 35.52412,17.68718 58.82852,18.4386 20.54834,0.66209 42.6941,0.0473 58.72081,15.24113 7.61662,7.22253 12.26437,17.30885 18.78014,25.45357 6.36602,7.95555 15.46709,14.25588 23.48307,20.44062 7.84783,6.05336 15.83491,11.69161 22.7842,18.81955 6.70231,6.87572 13.18919,23.04956 21.79106,26.74621 12.02529,5.16533 41.3384,-16.36038 51.95018,-22.25873 11.85713,-6.58934 26.99055,-9.97859 40.50027,-10.09945 17.55844,-0.15764 22.84726,11.93858 19.13747,28.61687 -2.86642,12.89493 -5.06549,27.74196 -4.52426,40.79716 0.77243,18.59623 13.99841,31.4754 17.7476,49.1258 6.46061,30.41396 6.44484,67.44616 5.94302,98.72451 -0.48868,30.26946 -12.60592,60.03184 -16.17909,88.83262"
         style="overflow:visible" />
      <path
         id="path13"
         d="m 704.09938,693.7932 c -22.00913,7.0176 -75.4963,-1.59216 -80.56441,-29.05825 13.22071,1.89693 23.16253,12.2959 36.48571,13.86704 17.88686,2.11237 36.31494,7.31185 53.98373,0.9905 1.74192,7.05963 -4.23,11.47092 -9.90503,14.20071"
         style="overflow:visible" />
      <path
         id="path15"
         d="m 684.28669,615.20979 c -19.13746,0 -39.64639,-1.23484 -51.17774,-18.81955 20.30663,-4.54003 40.28221,12.12249 60.0949,3.63097 0.74353,6.62087 -3.21848,12.29852 -8.91716,15.18858"
         style="overflow:visible" />
      <path
         id="path17"
         d="m 645.32603,517.80157 c -6.9414,-2.83226 -13.79873,-6.25829 -16.17646,-13.86704 17.36401,-5.43069 34.28664,-11.40261 51.17774,-18.1601 -6.10329,13.52549 -18.31511,32.43963 -35.00128,32.02714"
         style="overflow:visible" />
      <path
         id="path19"
         d="m 660.18358,542.89782 c -9.62654,0.99313 -20.9766,6.6813 -30.21166,1.64996 -19.9966,-10.89553 9.31388,-16.1318 17.9972,-16.67565 8.19727,-0.51233 28.5039,-12.85552 23.60656,0.16552 -2.2201,5.90623 -6.34763,11.26598 -11.3921,14.86017"
         style="overflow:visible" />
      <path
         id="path21"
         d="m 668.43864,749.92609 c -24.58391,2.29366 -38.31171,-26.33372 -57.44917,-36.98229 15.63523,-0.88278 29.25005,11.82298 41.05201,20.34867 5.05761,3.65724 28.66942,11.24497 16.39716,16.63362"
         style="overflow:visible" />
      <path
         id="path23"
         d="m 650.93801,393.98344 c -10.19141,16.27368 -30.60313,23.13626 -36.92186,42.08193 -4.40077,13.1997 -10.89816,2.21221 -12.11198,-6.25567 -2.63259,-18.3913 5.53841,-28.65365 17.9972,-41.43823 14.21122,-14.58956 20.34341,-30.879 1.98101,-45.56577 -15.92425,-12.73992 -36.90609,-10.30964 -56.79235,-14.19808 -20.33815,-3.97515 -40.50553,-9.19565 -61.21939,-10.99538 -21.97761,-1.91006 -43.69773,3.384 -65.34167,-0.54911 -22.50307,-4.08812 -37.60759,-7.30923 -60.32347,-3.31569 -23.27814,4.09338 -46.57729,-2.2017 -69.82915,0.58853 -6.39492,0.76718 -42.92005,34.01865 -44.58315,25.66374 -2.35408,-11.83611 15.82966,-20.48791 23.47256,-25.88444 17.97881,-12.69525 35.15629,-9.34015 53.7788,-16.50225 45.52898,-17.51378 92.31908,-4.56893 139.26945,-1.96525 9.22455,0.51233 22.3323,-2.27001 30.76865,0.54123 10.23607,3.40765 20.82684,5.30195 31.40446,7.31449 9.48203,1.80497 18.69082,3.81225 27.82079,7.00708 10.82985,3.79124 20.83997,2.46181 32.09019,4.23 37.53928,5.90361 63.70222,42.95158 48.53991,79.24287"
         style="overflow:visible" />
      <path
         id="path25"
         d="m 514.90017,497.00101 c 21.80157,5.74071 -2.96626,115.51577 -5.48586,133.55239 -5.3834,38.5324 -34.60193,95.5796 -74.74751,107.81507 -22.0538,6.72333 -42.8097,-5.81428 -47.05284,-28.39617 -1.77607,-9.46102 -2.23848,-19.91516 -12.54549,-21.7937 -8.31287,-1.51597 -16.26317,-3.48384 -21.95922,-10.23607 -6.35551,-7.53518 -8.56772,-19.31875 -11.88603,-28.3988 -3.71768,-10.16776 -12.38261,-20.8715 -14.71305,-30.94994 -4.5768,-19.81006 -4.87106,-39.27856 -0.45715,-59.11752 1.96261,-8.81207 6.50264,-16.77024 11.53397,-24.17669 0.68311,5.27831 -1.8943,8.037 -3.95938,12.5455 -3.42341,7.47738 -4.64512,11.46304 -5.4412,20.24094 -1.64996,18.14434 -1.07983,40.25594 7.75062,56.69513 4.17482,7.77164 10.24395,18.23367 15.51963,25.42467 6.45535,8.8068 11.74153,7.20151 19.97821,10.73001 10.9402,4.68715 18.58573,7.86097 20.63504,19.97821 2.17543,12.85026 2.66149,27.42406 14.52913,36.32019 13.35997,10.01275 33.66397,-1.00364 44.57526,-10.23607 14.47921,-12.24598 25.14354,-34.27876 35.7816,-49.83518 12.48506,-18.25468 11.84925,-45.1559 17.03297,-66.93383 6.58409,-27.64475 14.40565,-60.22889 10.24921,-88.28088 -0.71989,-4.86581 -2.19382,-14.48709 -3.63097,-20.96608 -2.73767,-12.34057 -22.08795,-12.09097 -31.63829,-10.65908 -12.04893,1.80761 -24.08473,8.88563 -36.52776,6.51841 -7.36177,-1.40037 -21.08957,18.24417 -30.56109,22.7947 -19.59462,9.41635 -42.74401,15.52226 -61.41381,0.9905 14.09825,-7.64815 29.09241,-5.69079 43.58476,-15.51963 17.60573,-11.93858 35.11162,-30.03299 58.11389,-27.57119 9.98385,1.0667 19.46588,-3.56528 29.899,-2.07296 9.64755,1.37935 18.76701,5.0182 27.21913,9.83147 19.47902,11.10046 8.2104,16.5075 5.61723,31.7066"
         style="overflow:visible" />
      <path
         id="path27"
         d="m 440.2814,539.92631 c -15.48285,8.35228 -37.23713,14.07723 -50.72847,-0.4519 -3.24212,-3.49172 16.03984,-6.39492 19.94406,-7.53518 8.99071,-2.62207 17.9972,-4.68715 27.22438,-6.22414 6.66816,-1.11136 41.64053,-6.31873 30.63465,8.59662 -5.076,6.8836 -19.74437,3.4129 -27.07462,5.6146"
         style="overflow:visible" />
      <path
         id="path29"
         d="m 451.1743,592.09455 c -19.26094,-5.17583 -69.1329,8.02387 -70.32834,-21.46265 9.05378,2.14653 82.58221,-0.94846 70.32834,21.46265"
         style="overflow:visible" />
      <path
         id="path31"
         d="m 440.2814,956.29227 c -3.11339,2.66148 -8.33126,5.65664 -9.90766,9.57398 -2.38561,5.93514 2.29366,9.7868 1.98101,15.19122 -1.26375,21.92773 -32.24521,18.88787 -47.21836,15.68253 -8.41533,-1.80498 -15.26478,-25.63485 -20.41434,-32.35819 -12.51397,-16.33673 -17.10129,-40.52392 -24.11363,-59.79275 -7.26982,-19.97821 -14.92586,-39.82768 -23.68537,-59.2016 -8.14735,-18.01822 -19.38969,-32.20055 -15.98467,-53.19553 0.93533,-5.76699 3.12127,-16.08451 9.24557,-10.23608 3.76234,3.59419 1.32155,16.37089 1.32155,20.96346 0,19.7365 17.35351,36.14417 23.7747,53.98636 6.21888,17.27731 12.979,35.6476 20.37756,52.47038 3.63885,8.27084 7.02022,16.75448 11.32904,24.71003 4.75284,8.77528 5.07863,18.69082 9.56611,28.1492 6.211,13.08673 4.3167,29.26845 23.11261,26.91174 15.5932,-1.95474 15.59582,-6.42645 17.33512,-20.30663 1.9521,-15.60371 13.46243,-5.14168 19.31612,-16.17909 7.28558,-13.73831 -8.46788,-33.97662 -15.18596,-45.23472 -10.32541,-17.30097 -26.76986,-27.19286 -35.72379,-45.7418 -9.3638,-19.40808 -17.80804,-40.28484 -25.03057,-60.57833 -2.52486,-7.09378 -4.99718,-15.94788 -0.9905,-22.94971 6.53679,-11.42363 9.31914,6.99395 9.90503,8.749 2.15178,6.4606 8.3155,10.74578 10.71162,17.94203 3.77547,11.32904 5.79063,22.92345 10.35956,34.03442 16.90949,41.13872 67.94535,66.14563 49.91925,117.41008"
         style="overflow:visible" />
      <path
         id="path33"
         d="m 434.6668,663.74707 c -21.75691,-3.02668 -43.58476,-40.95218 -56.79497,-56.13026 16.18172,-1.21382 27.22438,7.70859 37.17933,19.41859 6.30296,7.41432 22.50833,27.80765 19.61564,36.71167"
         style="overflow:visible" />
      <path
         id="path35"
         d="m 319.42952,362.94418 c -42.16075,9.37956 -87.05654,14.55015 -126.29571,32.85475 -20.90828,9.75264 -41.50129,15.12816 -61.14845,28.52491 -7.64028,5.20736 -22.59503,9.14573 -28.5144,15.25427 -9.784177,10.09682 -19.56835,20.19628 -29.352523,30.29047 -10.90867,11.25811 -16.058237,40.17186 -15.28843,55.46817 0.769807,15.32521 -11.830862,25.43255 1.736664,40.0116 14.726182,15.82703 37.773111,12.67686 57.207459,16.41292 10.68272,2.05457 15.54591,8.83571 26.32847,9.51093 11.71789,0.7304 22.95497,5.85369 34.67023,5.7775 8.8252,-0.0578 15.40666,-1.78133 12.87917,-11.555 15.82703,11.25811 24.47095,25.34322 18.81956,45.07183 -1.69725,5.92726 -10.12048,8.85673 -14.52913,4.45595 -3.08449,-3.0766 -1.37935,-14.98103 -1.59479,-19.10068 -0.23646,-4.50324 -11.58652,-3.63359 -14.58431,-3.68351 -19.79429,-0.32317 -41.0993,-0.74617 -58.44493,-9.57662 -17.766,-9.04064 -38.151442,-0.89329 -57.451801,-10.56712 -1.873288,41.8192 36.175691,78.1683 63.397451,105.66067 6.78639,6.85207 13.5465,13.78822 19.81268,21.1316 6.1138,7.16473 10.79044,18.54632 17.7082,24.47094 14.33996,12.29065 14.82339,32.52108 25.59281,47.21836 6.02447,8.22354 15.34624,3.81225 24.65487,6.13744 9.60551,2.40138 17.94991,8.14735 27.13768,11.65746 15.70617,5.99819 33.32766,6.20312 49.19673,12.21445 6.97556,2.64309 16.93314,13.24174 8.20778,21.42587 -13.45981,12.62431 -52.94594,-8.65705 -67.23598,-15.20173 -8.6912,-3.98303 -15.64049,-8.54932 -25.05946,-10.11521 -8.12108,-1.35045 -15.94527,-4.0277 -22.6108,-9.02488 C 167.67237,794.9296 165.12386,775.42694 154.67234,758.17853 133.63795,723.46888 98.02713,698.93226 75.035375,664.9898 63.51191,647.97784 52.805542,630.01479 46.699629,610.25203 43.599381,600.213 41.673549,589.65639 41.184866,579.1681 40.775002,570.36917 45.3413,569.83582 43.068661,561.87764 38.88858,547.2513 35.467798,538.34203 37.301674,521.8319 c 2.338322,-21.03965 13.010533,-40.14033 24.917587,-57.19695 3.207972,2.54588 41.813939,-37.22926 49.173089,-43.04879 25.94225,-20.51156 55.05831,-36.24663 84.02724,-51.99484 27.67103,-15.04146 58.91523,-22.51884 90.33546,-24.48145 12.09359,-0.75667 22.86301,-0.18129 34.50471,1.48444 15.14918,2.17543 7.94767,10.23345 -0.83024,16.34987"
         style="overflow:visible" />
      <path
         id="path37"
         d="m 303.58147,581.53007 c -8.74637,15.82702 -0.0131,33.66922 -4.62147,50.51828 -11.53923,-5.19423 -13.40726,-26.97479 -14.37412,-37.3107 -2.13076,-22.7264 8.53882,-46.26464 13.07359,-68.17393 1.42927,-6.90725 1.9127,-14.38988 5.59359,-20.64555 3.0188,-5.13118 9.12997,-13.26013 7.52204,-0.40461 -3.16068,25.26702 -3.85692,50.75999 -7.19363,76.01651"
         style="overflow:visible" />
      <path
         id="path39"
         d="m 245.47021,913.69801 c -17.40605,24.41051 -31.68821,53.23494 -64.38796,51.8372 32.56313,-1.02991 54.74041,-51.84246 57.62259,-79.21922 0.85914,-8.16311 0.99313,-18.97457 6.76537,-25.45094 7.84521,-8.80418 12.3248,-3.5574 10.56449,6.10854 -2.75081,15.08875 -4.04871,33.94246 -10.56449,46.72442"
         style="overflow:visible" />
      <path
         id="path41"
         d="m 221.36447,538.27635 c -21.17365,14.62108 -27.37678,-35.68964 -20.14374,-47.54677 2.94787,-4.82903 11.02691,-11.7284 17.1696,-7.26457 10.37007,7.53255 6.93878,46.13064 2.97414,54.81134"
         style="overflow:visible" />
      <path
         id="path43"
         d="m 183.06326,904.45244 c -4.44544,11.91231 -13.47032,21.94871 -15.19122,34.83575 -0.73828,5.5463 1.58691,10.96385 0.99313,16.0162 -0.40986,3.48647 -2.79285,4.12491 -2.31205,8.2577 -6.91513,-20.50368 -12.03316,-41.47502 -2.41977,-61.77114 9.14048,-19.30035 26.59908,-33.97661 30.48753,-55.77819 16.86483,9.61603 -11.46829,46.30667 -11.55762,58.43968"
         style="overflow:visible" />
    </g>
  </g>
</svg>
