/* XPM */
static char * avogadro_xpm[] = {
"32 32 196 2",
"  	c None",
". 	c #000000",
"+ 	c #EE2F00",
"@ 	c #EE3000",
"# 	c #F14205",
"$ 	c #FA8B19",
"% 	c #FEAA21",
"& 	c #FD9C1D",
"* 	c #F4590B",
"= 	c #F14706",
"- 	c #F24C08",
"; 	c #EF3401",
"> 	c #FD9B1D",
", 	c #FFAE22",
"' 	c #FFAC22",
") 	c #F24A07",
"! 	c #EF3802",
"~ 	c #F24907",
"{ 	c #EF3702",
"] 	c #FA8517",
"^ 	c #FFAC21",
"/ 	c #F24E08",
"( 	c #F77513",
"_ 	c #681500",
": 	c #F77413",
"< 	c #FC981C",
"[ 	c #FFAB21",
"} 	c #FEA41F",
"| 	c #F03E04",
"1 	c #FD9E1E",
"2 	c #FC951B",
"3 	c #F14807",
"4 	c #F77212",
"5 	c #A02000",
"6 	c #200600",
"7 	c #0A0200",
"8 	c #721600",
"9 	c #F03B03",
"0 	c #F66A10",
"a 	c #FC991C",
"b 	c #FA8A18",
"c 	c #F5640E",
"d 	c #EF3301",
"e 	c #EE3100",
"f 	c #F66D11",
"g 	c #F77011",
"h 	c #EE3101",
"i 	c #FB911A",
"j 	c #FEA921",
"k 	c #FA8918",
"l 	c #F0540A",
"m 	c #991F00",
"n 	c #250700",
"o 	c #0B0200",
"p 	c #6F1600",
"q 	c #DC3D05",
"r 	c #F87B14",
"s 	c #FC971C",
"t 	c #F6680F",
"u 	c #F77112",
"v 	c #FC9B1D",
"w 	c #EF3502",
"x 	c #F6670F",
"y 	c #EF3A03",
"z 	c #F87A14",
"A 	c #F24B07",
"B 	c #A62100",
"C 	c #DE3F05",
"D 	c #F87C14",
"E 	c #FB931B",
"F 	c #F0550A",
"G 	c #BF2600",
"H 	c #9B1F00",
"I 	c #DB3D05",
"J 	c #F98016",
"K 	c #FB8E1A",
"L 	c #BC2600",
"M 	c #F04105",
"N 	c #FEA620",
"O 	c #F24F08",
"P 	c #F14305",
"Q 	c #FDA01E",
"R 	c #F35209",
"S 	c #090200",
"T 	c #651400",
"U 	c #D53804",
"V 	c #FB8F1A",
"W 	c #F24D08",
"X 	c #F5670F",
"Y 	c #EC4F09",
"Z 	c #8E1C00",
"` 	c #F5610D",
" .	c #FC9A1D",
"..	c #F24F09",
"+.	c #F3550A",
"@.	c #FD9D1E",
"#.	c #F25009",
"$.	c #220700",
"%.	c #AF2501",
"&.	c #F45E0D",
"*.	c #F98517",
"=.	c #F98216",
"-.	c #D83904",
";.	c #4E0F00",
">.	c #FFAD22",
",.	c #FDA11F",
"'.	c #F14406",
").	c #050100",
"!.	c #EB4D08",
"~.	c #F6690F",
"{.	c #A82301",
"].	c #1B0500",
"^.	c #F45C0C",
"/.	c #F03D04",
"(.	c #FB901A",
"_.	c #F66B10",
":.	c #C82800",
"<.	c #2A0800",
"[.	c #C02D02",
"}.	c #FA8617",
"|.	c #DF3B04",
"1.	c #B62701",
"2.	c #E44507",
"3.	c #5D1200",
"4.	c #F03C03",
"5.	c #D75C0E",
"6.	c #EB4E09",
"7.	c #F25B0C",
"8.	c #891B00",
"9.	c #140400",
"0.	c #531000",
"a.	c #DD3E05",
"b.	c #E93903",
"c.	c #F76F11",
"d.	c #F77312",
"e.	c #D23603",
"f.	c #3B0C00",
"g.	c #150400",
"h.	c #A32200",
"i.	c #F66E11",
"j.	c #FB8E19",
"k.	c #9D2000",
"l.	c #0E0300",
"m.	c #601300",
"n.	c #EA4C08",
"o.	c #F3530A",
"p.	c #F14907",
"q.	c #EE530A",
"r.	c #661400",
"s.	c #80480D",
"t.	c #83400A",
"u.	c #2C0900",
"v.	c #D13603",
"w.	c #E64406",
"x.	c #3D0C00",
"y.	c #341704",
"z.	c #4B3109",
"A.	c #451201",
"B.	c #440D00",
"C.	c #4A2A07",
"D.	c #382206",
"E.	c #120400",
"F.	c #DE3101",
"G.	c #F87813",
"H.	c #F3560A",
"I.	c #480E00",
"J.	c #EE3201",
"K.	c #F98116",
"L.	c #F97E15",
"M.	c #FDA21F",
"N.	c #F87613",
"O.	c #F03C04",
"P.	c #FEA31F",
"Q.	c #F4580B",
"R.	c #010000",
"S.	c #211003",
"T.	c #410E00",
"U.	c #2F0900",
"V.	c #180500",
"W.	c #410D00",
"X.	c #230901",
"Y.	c #ED4305",
"Z.	c #160400",
"`.	c #971E00",
" +	c #961E00",
".+	c #170400",
"++	c #ED4506",
"@+	c #F14606",
"#+	c #F87C15",
"$+	c #B57817",
"%+	c #B27316",
"&+	c #FB941B",
"*+	c #EF3903",
"=+	c #EF3602",
"-+	c #440E00",
";+	c #420D00",
"                                                                ",
"                          . . . . . .                           ",
"            + @ +         . . . . . .                           ",
"          # $ % & *     . . . . . . . .                         ",
"  @ = - ; > , , , ' )   . . . . . . . .             + ! ~ - {   ",
"+ ] , ^ / , , , , , ( _ . . . . . . . .       @ - : < [ [ , } | ",
"+ 1 2 { 3 , , , , , 4 5 6 . . . . . . 7 8 9 0 a b c = d e f , - ",
"  g & h @ i , , , j 3 k l m n . . o p q r s t 9 +         u v h ",
"  w a x   y z < k A B C D E F G H I J K l L         + + M N O   ",
"    P Q R     +     . S T U r V W X Y Z 6 .       `  .i ..+.    ",
"      3 @.#.        . . $.%.&.A *.=.-.;.. .     3 >., , ,.h     ",
"        '. .*     . ).8 !.E ~.d + #.E 0 {.]..   ^., , , , 9     ",
"          /.(._.:.<.[.r }.|.        1._.i 2.3.  4.N , , V +     ",
"            ; z 5.6.2 7.8.9.        . 0.a.V f b.c.# d._.!       ",
"              h ( $ e.f..             . g.h.i.V |               ",
"            /.j.f k.l.. ].            g.. . m.n.< o.            ",
"          p.a q.r.. . . s.#.+       /.t.. . . u.v.i t +         ",
"        o.v w.x.. . . . y.z.A.u.g.B.C.D.. . . . E.F.}.G.@       ",
"      H.& # I.. . . . . . . . . . . . . . . . . .   J.K.L.@     ",
"    O M.'.  . . . . . . . . . . . . . . . . . . . .   J.b N.+   ",
"  O.P.Q.    . . . . . . . . . . . . . . . . . . . .     y ,.^.  ",
"  r 2 +   R.. . . . S.T.U.. . . . . . V.W.X.. . . . ).    ~.P.w ",
"+ Q v - Y.Z.. . . . `.                     +. . . . .+++@+#+, / ",
"  4 [ , $+. . . . .                         . . . . . %+>., &+*+",
"    d =+-+. . . . .                         . . . . . ;+d =++   ",
"        . . . . .                             . . . . .         ",
"        . . . . .                             . . . . .         ",
"      . . . . . .                               . . . . .       ",
"        . . . .                                   . . .         ",
"                                                                ",
"                                                                ",
"                                                                "};
