/* XPM */
static char *nmap-1[] = {
/* columns rows colors chars-per-pixel */
"32 32 28 1",
"  c #040404",
". c #330000",
"X c #333300",
"o c #333366",
"O c #663300",
"+ c #663366",
"@ c gray30",
"# c gray40",
"$ c #800000",
"% c #993300",
"& c #993366",
"* c #996600",
"= c #996666",
"- c #CC6666",
"; c #FF6666",
": c #996699",
"> c #CC6699",
", c #FF6699",
"< c #CC9966",
"1 c #FF9966",
"2 c #868686",
"3 c #A0A0A4",
"4 c #CC9999",
"5 c #FF9999",
"6 c #CCCC99",
"7 c #FFCC99",
"8 c #FFCCFF",
"9 c #FFFBF0",
/* pixels */
"99977777777777797979799989998632",
"4746666666666646466467647676763=",
"=4=============:==-4->4<4<4544=#",
"-==+O++O+O@O+O+OO++===------1-=#",
"==#O@OOXOOOXOOXX+OOO+#*=---,--=#",
"==+XOXO.X.X.oX+XXO+OO$+===:-->=#",
"==OOXOXOX+XO.OX+XOXOOO@O+#==4-=#",
"==++O+O++O+O@OOXOXOOXoOOOO@====#",
">==O+O+OOO+%+O+O+@OoXOXoXOOO+&+O",
"===O&O+++O+O&O+=O&O++OOOOoXXOO@@",
">==+O+%O%+%+O+%O===*=+O+OOOOoOXO",
"===O%+O++O+%+%+O&O+O+O+O+O+OXO.X",
"-:=O+%+OO+$OO@OO@OO+O$O$+OO+O+OO",
"=-=&O+O+OOX+OOoXO@@O++OOO@O+%O@O",
">=-O&O+OXOOXoXXoXX@@+O@@OO$O++$O",
"4===O+OO$+OXX.X=#@==#@XO@+O++OO@",
"<4-==O+O+OO@OXX@+@9946-OXOO+O&@$",
"4;---==OO+O#@@#@O479989=O+OO+OO@",
"44=-=-=+$O+=#@+#>987878=+O+&O+$O",
"<4-----=O++O#==679787974#O=*=&O@",
"41=--=--==%+OO#=68989847-O===O+O",
"44-------====+O@O@==-=-===-1-==+",
"14;>---=-----===O&O++==--=-:-=+O",
"444-->----=-------=-=-=-:-----=+",
"41-5;1,4;------------=-=-=>=--=+",
"45<-4-1-5>1>----->->-=>=-3-->==+",
"<4,5;54515-5;5,5>14<-5<5-->---=+",
"45<-4<51455<5<5<15155<,------==O",
"4--=---=-==>=>=-:=:=-:========#O",
"-=@@@@@+@#@@#@@@#@+@@O@@#@@@+OOo",
"O@XOXOOX+XOXOXOOXOXOO+XOXOXOXoXX",
"OXXoXo oXXoXoXo oXoXoXXo o o X  "
};
