/* XPM */
static char *icedove[] = {
/* columns rows colors chars-per-pixel */
"32 32 166 2 ",
"   c #53575C",
".  c #71787F",
"X  c #55A30C",
"o  c #58A60E",
"O  c #5AA612",
"+  c #5CAA12",
"@  c #64AD1E",
"#  c #61B115",
"$  c #66B21C",
"%  c #69BB1A",
"&  c #519A29",
"*  c #66AF22",
"=  c #69AF26",
"-  c #67B021",
";  c #6AB324",
":  c #6EBA24",
">  c #67B52B",
",  c #6DB32A",
"<  c #6FBA29",
"1  c #71B62E",
"2  c #70B82C",
"3  c #66B23A",
"4  c #6BB03A",
"5  c #73B632",
"6  c #75B934",
"7  c #75B639",
"8  c #77B838",
"9  c #7BBB3D",
"0  c #71C420",
"q  c #75C924",
"w  c #79CE27",
"e  c #72C32E",
"r  c #5A9D44",
"t  c #5A985B",
"y  c #69AD4A",
"u  c #7EBC43",
"i  c #77B548",
"p  c #66A25B",
"a  c #68A45C",
"s  c #6CA95F",
"d  c #74BB52",
"f  c #5A9664",
"g  c #619E6D",
"h  c #6FA966",
"j  c #74AA6B",
"k  c #75B366",
"l  c #77AB71",
"z  c #79AD73",
"x  c #7DB275",
"c  c #7FB479",
"v  c #81BD47",
"b  c #84BE4E",
"n  c #87BF51",
"m  c #88BC74",
"M  c #81B37D",
"N  c #84BB7D",
"B  c #81C046",
"V  c #85C14B",
"C  c #87C251",
"Z  c #8BC355",
"A  c #8EC55A",
"S  c #95C766",
"D  c #95CA63",
"F  c #98CC67",
"G  c #91C569",
"H  c #9ACB6C",
"J  c #9ECD70",
"K  c #A2D076",
"L  c #A6D37B",
"P  c #727B82",
"I  c #649A83",
"U  c #6F9C9A",
"Y  c #73A586",
"T  c #73A19E",
"R  c #7EAA9B",
"E  c #719EA7",
"W  c #759FB2",
"Q  c #799FBB",
"!  c #7EA8B5",
"~  c #7CA2BD",
"^  c #7B9FC1",
"/  c #7FA1C6",
"(  c #83B583",
")  c #8696A8",
"_  c #93B7A4",
"`  c #80A6B8",
"'  c #88AEBF",
"]  c #9CBABB",
"[  c #98C681",
"{  c #9BC884",
"}  c #ADD684",
"|  c #AFD68C",
" . c #B0D989",
".. c #B7DB95",
"X. c #BCDE9B",
"o. c #A2C6A1",
"O. c #C0DEA4",
"+. c #C2E1A4",
"@. c #C7E4AB",
"#. c #C8E5AC",
"$. c #CBE5B3",
"%. c #C7E0BD",
"&. c #81A4C0",
"*. c #85A8C3",
"=. c #8CACC4",
"-. c #86A7C8",
";. c #86A8CF",
":. c #8EADCC",
">. c #92AFCB",
",. c #94B3D3",
"<. c #99B5D4",
"1. c #9DBAD2",
"2. c #A9B4C0",
"3. c #A3BBD7",
"4. c #A1BDDA",
"5. c #ABBFDB",
"6. c #ABC6C5",
"7. c #A8C1CA",
"8. c #B5CDC8",
"9. c #A7C0DA",
"0. c #B3C7DE",
"q. c #B3C9DC",
"w. c #AFC6E0",
"e. c #B3C7E1",
"r. c #B5CBE2",
"t. c #B9CCE2",
"y. c #BFD1E6",
"u. c #CCCDC9",
"i. c #CED0CB",
"p. c #D1D3CE",
"a. c #D2D4D0",
"s. c #D7D8D5",
"d. c #D8DAD6",
"f. c #DBDDD9",
"g. c #D4E9C0",
"h. c #D8ECC6",
"j. c #DEE0DD",
"k. c #E0E1DE",
"l. c #E0F1D0",
"z. c #C3D3E6",
"x. c #CDD8E6",
"c. c #C1D4E8",
"v. c #CEDDEC",
"b. c #D4DCE5",
"n. c #D2DDEB",
"m. c #D5E0ED",
"M. c #D9E2EE",
"N. c #D4E2F0",
"B. c #DBE6F1",
"V. c #DEE9F4",
"C. c #E4E5E2",
"Z. c #E7E8E6",
"A. c #E8E9E7",
"S. c #EBECEA",
"D. c #EFF1ED",
"F. c #F0F8EA",
"G. c #E4ECF5",
"H. c #E9EEF4",
"J. c #ECF1F6",
"K. c #ECF3F9",
"L. c #F3F4F3",
"P. c #F5FAF0",
"I. c #F2F5F9",
"U. c #F6F9FC",
"Y. c #FEFEFE",
"T. c None",
/* pixels */
"T.T.T.T.T.T.T.T.T.T.T.T.T.T.T.T.T.T.T.T.T.T.T.T.T.T.T.T.T.T.T.T.",
"T.T.d.U.d.Y.d.U.d.P.k.L.Z.S.S.Z.L.f.L.f.U.d.Y.d.U.f.L.k.L.Z.T.T.",
"T.T.S.Y.Y.Y.Y.Y.Y.Y.Y.Y.Y.Y.Y.Y.Y.Y.Y.Y.Y.Y.Y.Y.Y.Y.Y.Y.Y.U.T.T.",
"T.T.a.Y.3.q._ N N M M z z z z z z z z z >.q.=.Y N M 7.3.U.C.T.T.",
"T.T.L.Y.] : w 0 $ # # @ X X X X X X X X f G.Y.1.> e q j L.U.T.T.",
"T.T.p.Y.k q % # O o O X X X X X X X X X X r.Y.U.,.t.3 d I.j.T.T.",
"T.T.L.Y.k % # o X O @ X X X X X X X X X X U U.Y.y.U.<.y U.Y.T.T.",
"T.T.p.Y.a + o o O.@ X X X X O O X o o O X & v.Y.Y.K.m.t I.k.T.T.",
"T.T.L.Y.a o o + O.+ O O @ , 7 u u u 7 = + + 3.Y.Y.Y.U.;.U.Y.T.T.",
"T.T.a.Y.a + o 1 = O.$.H A Z n n n n A S J S ' Y.Y.Y.Y.4.I.k.T.T.",
"T.T.S.Y.a * v 8 H F.P.| , @ @ * = * * @ = , T Y.Y.Y.Y.t.L.U.T.T.",
"T.T.s.Y.a g.F.A 9 O.g.A = = , , , , , ; ; * f K.Y.Y.Y.n.I.Z.T.T.",
"T.T.A.Y.j $.h., @ ; 9 Z 1 5 6 6 5 5 5 1 1 , r G.Y.Y.Y.n.I.L.T.T.",
"T.T.f.Y.j V $ $ ; , 2 D Z 9 9 9 u 7 9 8 6 2 f H.Y.Y.Y.n.I.S.T.T.",
"T.T.C.Y.z 9 $ ; , 2 6 C K Z b V V V v u 9 8 ! Y.Y.Y.Y.n.U.S.T.T.",
"T.T.k.Y.( 2 ; < 2 6 9 v L } A A A A Z V B i r.Y.Y.Y.Y.n.I.D.T.T.",
"T.T.f.Y.( ; ; 2 6 9 B V J ..} F F D D A C *.U.Y.Y.Y.Y.n.I.A.T.T.",
"T.T.S.Y.( : 2 5 p I h Z F X.+.} L K H S -.J.Y.Y.Y.Y.Y.n.I.P.T.T.",
"T.T.a.Y.M : 4 Q v.U.v.:.G | $.#. .} [ 1.U.Y.Y.Y.Y.Y.Y.n.I.Z.T.T.",
"T.T.D.Y.x < ~ H.Y.Y.Y.Y.,.{ $.h.@.o.w.Y.Y.Y.Y.Y.Y.Y.Y.n.I.U.T.T.",
"T.T.i.Y.x g V.  x.Y.U.) G.R X.l.8.r.Y.Y.Y.Y.Y.Y.Y.Y.Y.z.I.j.T.T.",
"T.T.L.Y.x E Y.H.K.Y.V.P H.W @.6.r.Y.Y.Y.K.Y.Y.Y.Y.v.v.e.I.U.T.T.",
"T.T.u.Y.Y ` Y.Y.2.P S.U.K./ %.e.Y.Y.Y.J.Y.Y.Y.Y.Y.K.n.z.U.f.T.T.",
"T.T.L.Y.<.9.Y.Y.Y.I.Y.U.J./ ` U.Y.Y.G.Y.Y.Y.Y.Y.Y.Y.U.z.I.Y.T.T.",
"T.T.i.Y.t.B.Y.Y.Y.Y.Y.U.K.-.1.Y.Y.U.B.Y.Y.Y.Y.Y.Y.Y.V.n.I.j.T.T.",
"T.T.L.Y.t.m.Y.Y.Y.Y.Y.Y.U.y.3.Y.Y.I.K.Y.Y.Y.Y.Y.J.V.Y.n.I.U.T.T.",
"T.T.p.Y.5.y.J.J.J.J.J.J.J.J.c.J.J.J.J.J.H.n.v.v.G.J.J.r.U.k.T.T.",
"T.T.S.Y.b.b.M.b.b.b.M.b.b.b.m.m.b.b.M.b.M.b.b.b.b.m.b.b.Y.U.T.T.",
"T.T.d.Y.f.f.Y.j.f.k.Y.Z.C.Z.L.L.Z.A.Y.j.Y.j.j.j.j.Y.k.k.Y.Z.T.T.",
"T.T.A.Y.Y.Y.Y.Y.Y.Y.Y.Y.Y.Y.Y.Y.Y.Y.Y.Y.Y.Y.Y.Y.Y.Y.Y.Y.Y.L.T.T.",
"T.T.j.Y.j.Y.k.Y.C.U.Z.L.A.S.L.Z.P.Z.U.k.Y.f.Y.j.Y.k.U.Z.L.S.T.T.",
"T.T.T.T.T.T.T.T.T.T.T.T.T.T.T.T.T.T.T.T.T.T.T.T.T.T.T.T.T.T.T.T."
};
