/* XPM */
static char *gmpc[] = {
/* columns rows colors chars-per-pixel */
"32 32 78 1",
"  c #000000",
". c #010101",
"X c #020202",
"o c #030303",
"O c #040404",
"+ c #050505",
"@ c #060606",
"# c #070707",
"$ c #080808",
"% c #090909",
"& c #0A0A0A",
"* c #0B0B0B",
"= c #0C0C0C",
"- c #0D0D0D",
"; c #0E0E0E",
": c #0F0F0F",
"> c #101010",
", c #111111",
"< c #121212",
"1 c #141414",
"2 c #151515",
"3 c #161616",
"4 c #181818",
"5 c #191919",
"6 c #1A1A1A",
"7 c #1C1C1C",
"8 c #1D1D1D",
"9 c #1E1E1E",
"0 c #1F1F1F",
"q c #202020",
"w c #212121",
"e c #222222",
"r c #242424",
"t c #252525",
"y c #262626",
"u c #272727",
"i c #282828",
"p c #2A2A2A",
"a c #2C2C2C",
"s c #2D2D2D",
"d c #2E2E2E",
"f c #2F2F2F",
"g c #303030",
"h c #313131",
"j c #333333",
"k c #343434",
"l c #353535",
"z c #363636",
"x c #373737",
"c c #383838",
"v c #393939",
"b c #3A3A3A",
"n c #3B3B3B",
"m c #3C3C3C",
"M c #3D3D3D",
"N c #3E3E3E",
"B c #3F3F3F",
"V c #404040",
"C c #414141",
"Z c #424242",
"A c #444444",
"S c #454545",
"D c #464646",
"F c #474747",
"G c #484848",
"H c #494949",
"J c #4A4A4A",
"K c #4B4B4B",
"L c #4C4C4C",
"P c #4D4D4D",
"I c #4E4E4E",
"U c #4F4F4F",
"Y c #525252",
"T c #545454",
"R c #555555",
"E c #575757",
"W c #595959",
"Q c None",
/* pixels */
"QQQQQQQQQQQQQQQQQQQQQQQQQQQQQQQQ",
"QQQQQQQQQQQQQQQQQQQQQQQQQQQQQQQQ",
"QQQQ    Q    QQQQQQQQQQQQQQQQQQQ",
"QQQQ   gv   vyQQQQQQQ     QQQQ  ",
"QQQQ   GP   PxQQQQQQQ      QQQ $",
"QQQQ   FP  @GxQQQQQQQ   @      p",
"QQ     ZZ  @Fg QQQQQQ         ;Z",
"QQ     ;;   ;$>2 QQQQ         $Z",
"QQ  @   @@   @ZG QQQQ  $;     ;F",
"QQ $v2 xPZ2 vGYZ QQQQ  9F2    2G",
"QQQ ;@ FY> @PB$$ QQQ   yvpp229FZ",
"QQQQ   FG   PxQQQQQQ   ayQ4BZFv;",
"QQ     vB   Zp QQQQQ   x9QQ  @ Q",
"QQ     @@   @ 9y QQQ   v9QQQQQQQ",
"QQ  >@ $;>@ ;>GG@QQQ   v>QQQQQQQ",
"QQ $x2 BRB; ZPFx QQQ  @Z;QQQQQQQ",
"QQQQ   FP@  PxQ  QQQ  $Z$QQQQQQQ",
"QQQQ   FG  @PxQ       ;B QQQQQQQ",
"QQQQ   FP   Gx        2ZQQQQQQQQ",
"QQQQ  2RP  2Wx        4vQQQQQQQQ",
"QQQQ Q4xyQQ4x>        egQQQQQQQQ",
"QQQQQQQQQQQQ          egQQQQQQQQ",
"QQQQQQQQQQQQ          yaQQQQQQQQ",
"QQQQQQQQQQQQ          BaQQQQQQQQ",
"QQQQQQQQQQQQQ@$      eR2QQQQQQQQ",
"QQQQQQQQQQQQQ ee$ @$aWaQQQQQQQQQ",
"QQQQQQQQQQQQQQ$aZZFYPy QQQQQQQQQ",
"QQQQQQQQQQQQQQQQ$4e4$QQQQQQQQQQQ",
"QQQQQQQQQQQQQQQQQQQQQQQQQQQQQQQQ",
"QQQQQQQQQQQQQQQQQQQQQQQQQQQQQQQQ",
"QQQQQQQQQQQQQQQQQQQQQQQQQQQQQQQQ",
"QQQQQQQQQQQQQQQQQQQQQQQQQQQQQQQQ"
};
