/* XPM */
static char *gmidimonitor32x32[] = {
/* columns rows colors chars-per-pixel */
"32 32 100 2 ",
"   c #CC262C",
".  c #CC272D",
"X  c #CB2A31",
"o  c #CC2A31",
"O  c #CB2D34",
"+  c #CA2F36",
"@  c #CA343C",
"#  c #C9363F",
"$  c #C83740",
"%  c #C83A43",
"&  c #C83D47",
"*  c #BF6373",
"=  c #BF6676",
"-  c #BE6879",
";  c #BE6B7C",
":  c #BD6C7E",
">  c #BD6D7F",
",  c #C6414C",
"<  c #C7424D",
"1  c #C6444F",
"2  c #C54651",
"3  c #C54752",
"4  c #C54955",
"5  c #C54A56",
"6  c #C54B57",
"7  c #C44C58",
"8  c #C44C59",
"9  c #C44E5B",
"0  c #C3515E",
"q  c #C3515F",
"w  c #C4505D",
"e  c #C35260",
"r  c #C35361",
"t  c #C25563",
"y  c #C15866",
"u  c #C25B6A",
"i  c #C15D6C",
"p  c #C15E6D",
"a  c #C05E6E",
"s  c #C06070",
"d  c #C06171",
"f  c #C16272",
"g  c #C06475",
"h  c #BD6E81",
"j  c #BD7082",
"k  c #BD7285",
"l  c #BC7386",
"z  c #BD7386",
"x  c #BB778B",
"c  c #BC7588",
"v  c #BA7C91",
"b  c #B98095",
"n  c #B98096",
"m  c #BA8297",
"M  c #B98298",
"N  c #B8869C",
"B  c #B9869C",
"V  c #B8889F",
"C  c #B789A0",
"Z  c #B78AA1",
"A  c #B78CA3",
"S  c #B78DA4",
"D  c #B68FA6",
"F  c #B78FA6",
"G  c #B792AA",
"H  c #B594AC",
"J  c #B594AD",
"K  c #B598B1",
"L  c #B49DB7",
"P  c #B39EB8",
"I  c #B3A0BB",
"U  c #B2A2BD",
"Y  c #B2A3BE",
"T  c #B1A7C3",
"R  c #B1A8C4",
"E  c #B2A9C5",
"W  c #B0ACC8",
"Q  c #B1ACC8",
"!  c #B0AECB",
"~  c #AFB0CD",
"^  c #B0B1CE",
"/  c #AFB3D1",
"(  c #AFB4D2",
")  c #AEB7D6",
"_  c #AEB8D6",
"`  c #AEB9D8",
"'  c #AEBAD9",
"]  c #ACBCDB",
"[  c #ACBEDD",
"{  c #B0B3D1",
"}  c #ACC0E0",
"|  c #ACC1E1",
" . c #ACC2E2",
".. c #ACC3E3",
"X. c #ABC6E6",
"o. c #ABC8E9",
"O. c #AACAEB",
"+. c #ABCBEC",
"@. c #AACCEE",
"#. c #AACCEF",
/* pixels */
"#.#.+.#.#.#.+.#.#.+.#.@.@.@.@.@.@.@.@.@.+.#.@.@.@.@.@.@.@.@.@.@.",
"#.#.#.#.H ; K o.#.+.#.+.@.@.@.@.@.@.@.@.#.#.@.@.@.@.@.@.@.@.@.@.",
"#.#.#.k       2 X.+.#.#.@.@.@.@.@.@.@.@.#.+.#.+.@.@.@.@.@.@.@.@.",
"#.+.U           * #.+.#.@.@.@.@.@.@.@.@.#.+.#.#.@.@.@.@.@.@.@.@.",
"#.+.y     7 +     ( @.#.+.#.@.@.@.@.#.+.#.#.#.#.#.+.+.#.@.#.+.@.",
"+.]   + E #.} d   ( +.: Y #.#.[ h ( +.v X.o.h h M W #.#.@.M X.@.",
"#.D   k +.#.#.X.# ( +.  = #.#.D   P #.% X.} + * q + M #.+.2 ] +.",
"#.* X } #.#.+.#.J ( o.# 7 #.@.= 2 P #.1 X.} 1 @.+.W + ] #.2 ] #.",
"#.2 2 #.#.+.#.#.#.X.+.# y [ #.4 s U +.& X.} < #.#.#.= M +.2 ] #.",
"+.+ - #.#.#.#.+.+.#.+.% b H [ y * P #.& X. .< #.#.+.C : #.2 ] +.",
"]   C #.#.#.#.+.@.@.O.# R h H b * P #.& X.} & #.@.@.K i #.2 ] #.",
"!   U +.#.#.#.+.@.@.O.% o.7 > R g P #.& X.} < #.@.@.J * #.1 ] #.",
"P   W #.#.#.#.#.@.@.O.# @.0 2 X.g P #.& X.} < #.+.#.M l +.2 ] #.",
"H   ^ #.#.+.+.#.@.@.@.# @.x 0 @.d P #.& X.} < +.#.+.q J #.2 ] +.",
"D   ] #.#.#.+.#.@.@.O.# @.| ] @.g I #.& X.} < #. .v @ o.#.2 ] #.",
"C   } +.+.+.] ] ] X.O.% @.@.@.@.d I #.& X. .  +   % W +.#.1 ] #.",
"N   X.#.#.W       Z @.R #.+.+.#.! } #.E +.+.U Y ` +.@.@.@.W X.@.",
"V    .#.#.W       V @.@.#.#.#.#.#.#.#.#.#.#.#.+.#.#.@.+.@.@.#.#.",
"F   ] +.+.W       Z @.@.#.+.#.+.#.+.#.#.#.+.j +.X.#.#.#.+.#.#.#.",
"H   ( #.#.X.{ { + Z @.+.#.#.#.+.#.#.#.+.#.+.b ~ S +.+.#.@.#.#.#.",
"P   W #.#.#.+.+.+ F #.+.@.@.#.#.#.#.+.#.+.#.+.~ Z +.+.#.@.@.@.@.",
"W   U #.+.#.#.#.+ Z K g ' g +.#.v } } F x #.K S 7 R / Z @.K > X.",
"'   F #.+.#.#.#.+ F w % q , G L % y { + # ` > S 5 R , # / d 1 | ",
"+.o > #.#.#.+.#.+ Z 7 X.#  .b m _ g { g L Y k ! Z #.; P K 0 | #.",
"#.< 7 #.#.#.#.+.+ Z g #.p +.c j #.j ^ v W H j ~ S X.v ` N i #.#.",
"#.p + X.#.+.#.#.+ Z j #.l #.x j #.l ! V { V j ~ Z ! S +.z > #.#.",
"+.N   b #.#.+.#.+ Z > +.x #.l l #.l ( V { V j ~ S ( C X.x z +.#.",
"#.{   @ } +.#.H   Z j #.l #.x l #.j ( V ( V j ( Z X.v ! Z > +.#.",
"+.#.4   + > p X   K > #.l #.l N Y i { C { V j  .c #.p N U > @.@.",
"+.+.H           y #.z +.c #.l ^   l ( V { C j #.+ F y @ } > @.#.",
"#.#.#.i       @ } #.{ #.' #.` #.W +.X.] X.] ( #.| ] X.{ +.' @.+.",
"#.+.#.X.c w b } +.#.#.+.#.#.+.#.#.#.#.#.+.#.#.+.#.#.+.#.+.#.@.@."
};
