/* XPM */
static char *bsnes[] = {
/* columns rows colors chars-per-pixel */
"32 32 24 1",
"  c #C63131",
". c #FE3D3D",
"X c #FE3E3E",
"o c #FE3F3F",
"O c #FF3F3F",
"+ c #00AE00",
"@ c #00CB00",
"# c #00CC00",
"$ c #00CD00",
"% c #FEFE00",
"& c #FFFF00",
"* c #128FE2",
"= c #148EE2",
"- c #1199FE",
"; c #13A1FE",
": c #14A1FE",
"> c #15A0FF",
", c #16A0FE",
"< c #17A0FE",
"1 c #16A1FE",
"2 c #16A0FF",
"3 c #16A1FF",
"4 c #17A2FE",
"5 c None",
/* pixels */
"55555555555555555555555555555555",
"55555555555555555555555555555555",
"55555555555555555555555555555555",
"55555555555555555555555555555555",
"55555555555555555555555555555555",
"55555555555;4444=555555555555555",
"55555555554-44-44455555555555555",
"55555555544444444445555555555555",
"55555555444444444444555555555555",
"55555555444-4444444-555555555555",
"555555554444-4444-445555ooo55555",
"5555555555544444444455oOOOooo555",
"555555555555544444445oOOOOOOoO55",
"5555555555555-44444;oOOOOOOOOOo5",
"555555555555554444-5OOOOOOOOOOoO",
"555+#####@55554-4455OOOOOOOOOOOO",
"5#$$$$$$$$$#5544*555OooOOOoooOOo",
"$$$$$$$$$$$$#5555555555OOOoooOoo",
"$$$$$$$$$$####5555555555oooooooo",
"$$$$$$$$$$###555555555555oooooo5",
"55$$$$$$$$$$55555&&&555555oooo55",
"5555$$$#$55555&&&&&&&&&555oooo55",
"555555555555&&&&&&&&&&&&&5o 5555",
"555555555555&&&&&&&&&&&&&5555555",
"555555555555&&&&&&&&&&&&&5555555",
"5555555555555&&&&&&&&&&&55555555",
"555555555555555&&&&&&&5555555555",
"55555555555555555555555555555555",
"55555555555555555555555555555555",
"55555555555555555555555555555555",
"55555555555555555555555555555555",
"55555555555555555555555555555555"
};
