/* XPM */
static char * ocaml_32_xpm[] = {
"32 32 255 2",
"  	c None",
". 	c #FFFFFF",
"+ 	c #6666FF",
"@ 	c #CC6666",
"# 	c #6767FF",
"$ 	c #6969FF",
"% 	c #6A6AFF",
"& 	c #6E6EFF",
"* 	c #7070FF",
"= 	c #7373FF",
"- 	c #7575FF",
"; 	c #7777FF",
"> 	c #7979FF",
", 	c #7A7AFF",
"' 	c #7D7DFF",
") 	c #7F7FFF",
"! 	c #8383FF",
"~ 	c #8585FF",
"{ 	c #8686FF",
"] 	c #8888FF",
"^ 	c #8D8DFF",
"/ 	c #8F8FFF",
"( 	c #9191FF",
"_ 	c #9494FF",
": 	c #9797FF",
"< 	c #9999FF",
"[ 	c #9B9BFF",
"} 	c #9C9CFF",
"| 	c #A3A3FF",
"1 	c #A9A9FF",
"2 	c #ABABFF",
"3 	c #ADADFF",
"4 	c #AFAFFF",
"5 	c #B1B1FF",
"6 	c #B5B5FF",
"7 	c #B8B8FF",
"8 	c #BABAFF",
"9 	c #BEBEFF",
"0 	c #C1C1FF",
"a 	c #C2C2FF",
"b 	c #C4C4FF",
"c 	c #C9C9FF",
"d 	c #CCCCFF",
"e 	c #CFCFFF",
"f 	c #D3D3FF",
"g 	c #D4D4FF",
"h 	c #D6D6FF",
"i 	c #D8D8FF",
"j 	c #DADAFF",
"k 	c #DFDFFF",
"l 	c #E0E0FF",
"m 	c #E5E5FF",
"n 	c #E6E6FF",
"o 	c #E9E9FF",
"p 	c #EBEBFF",
"q 	c #ECECFF",
"r 	c #EFEFFF",
"s 	c #F2F2FF",
"t 	c #F5F5FF",
"u 	c #F7F7FF",
"v 	c #F8F8FF",
"w 	c #FAFAFF",
"x 	c #FDFDFF",
"y 	c #FEFEFF",
"z 	c #C96464",
"A 	c #BD5E5E",
"B 	c #B95C5C",
"C 	c #9D4E4E",
"D 	c #CB6666",
"E 	c #CA6565",
"F 	c #C76464",
"G 	c #C66363",
"H 	c #C46262",
"I 	c #C26161",
"J 	c #BF6060",
"K 	c #BB5E5E",
"L 	c #BA5D5D",
"M 	c #B75C5C",
"N 	c #B65B5B",
"O 	c #B35A5A",
"P 	c #B25959",
"Q 	c #AE5757",
"R 	c #AB5656",
"S 	c #AA5555",
"T 	c #A85454",
"U 	c #A65353",
"V 	c #A35252",
"W 	c #9B4E4E",
"X 	c #964B4B",
"Y 	c #944A4A",
"Z 	c #924949",
"` 	c #904848",
" .	c #8C4646",
"..	c #8B4646",
"+.	c #884444",
"@.	c #874444",
"#.	c #854343",
"$.	c #824141",
"%.	c #341A1A",
"&.	c #CD6868",
"*.	c #CC6767",
"=.	c #C26262",
"-.	c #9E5050",
";.	c #653333",
">.	c #934B4B",
",.	c #793E3E",
"'.	c #673535",
").	c #CE6B6B",
"!.	c #CD6A6A",
"~.	c #592E2E",
"{.	c #B86060",
"].	c #613333",
"^.	c #CE6D6D",
"/.	c #AA5A5A",
"(.	c #A45757",
"_.	c #BE6565",
":.	c #CF6F6F",
"<.	c #CF7070",
"[.	c #9D5555",
"}.	c #D07272",
"|.	c #402323",
"1.	c #D17474",
"2.	c #6F3E3E",
"3.	c #C26D6D",
"4.	c #BA6868",
"5.	c #D17676",
"6.	c #884D4D",
"7.	c #D27777",
"8.	c #D27979",
"9.	c #D47C7C",
"0.	c #8C5252",
"a.	c #D37C7C",
"b.	c #BD7070",
"c.	c #D58080",
"d.	c #D47F7F",
"e.	c #7D4B4B",
"f.	c #D68383",
"g.	c #D58282",
"h.	c #D78585",
"i.	c #D28383",
"j.	c #D78787",
"k.	c #D78888",
"l.	c #D88989",
"m.	c #B47373",
"n.	c #D88B8B",
"o.	c #A66B6B",
"p.	c #D98D8D",
"q.	c #D98E8E",
"r.	c #CE8787",
"s.	c #573A3A",
"t.	c #926262",
"u.	c #875B5B",
"v.	c #DB9494",
"w.	c #D69191",
"x.	c #8C5F5F",
"y.	c #BC8080",
"z.	c #DC9797",
"A.	c #A97474",
"B.	c #DD9999",
"C.	c #4E3636",
"D.	c #DE9B9B",
"E.	c #DD9A9A",
"F.	c #8B6161",
"G.	c #DE9D9D",
"H.	c #CC9191",
"I.	c #DF9F9F",
"J.	c #DFA0A0",
"K.	c #D99C9C",
"L.	c #B18080",
"M.	c #E0A3A3",
"N.	c #8F6868",
"O.	c #E1A5A5",
"P.	c #E3AAAA",
"Q.	c #DAA3A3",
"R.	c #D6A0A0",
"S.	c #9A7474",
"T.	c #E3ACAC",
"U.	c #C49494",
"V.	c #E4AFAF",
"W.	c #967373",
"X.	c #725858",
"Y.	c #E6B2B2",
"Z.	c #836666",
"`.	c #E7B5B5",
" +	c #DAABAB",
".+	c #E7B7B7",
"++	c #C9A0A0",
"@+	c #957878",
"#+	c #E9BDBD",
"$+	c #9D7F7F",
"%+	c #655252",
"&+	c #E9BEBE",
"*+	c #B89999",
"=+	c #C9A8A8",
"-+	c #ECC6C6",
";+	c #EAC5C5",
">+	c #A58B8B",
",+	c #EDC8C8",
"'+	c #786666",
")+	c #EECBCB",
"!+	c #EDCACA",
"~+	c #867373",
"{+	c #EECDCD",
"]+	c #D6B8B8",
"^+	c #C3A8A8",
"/+	c #EFCFCF",
"(+	c #EACBCB",
"_+	c #E2C4C4",
":+	c #BBA4A4",
"<+	c #F0D3D3",
"[+	c #AD9999",
"}+	c #E8CECE",
"|+	c #C3AEAE",
"1+	c #F3DADA",
"2+	c #F2D9D9",
"3+	c #E2CBCB",
"4+	c #EAD3D3",
"5+	c #A89797",
"6+	c #F4DEDE",
"7+	c #F3DDDD",
"8+	c #9A8D8D",
"9+	c #F6E2E2",
"0+	c #E9D7D7",
"a+	c #A79B9B",
"b+	c #A29696",
"c+	c #F7E6E6",
"d+	c #F6E5E5",
"e+	c #F2E2E2",
"f+	c #EBDCDC",
"g+	c #C8BCBC",
"h+	c #F4E6E6",
"i+	c #D8CCCC",
"j+	c #F8EBEB",
"k+	c #F6EAEA",
"l+	c #EEE2E2",
"m+	c #F9EEEE",
"n+	c #FAF1F1",
"o+	c #DED6D6",
"p+	c #FBF3F3",
"q+	c #F6EEEE",
"r+	c #CDC6C6",
"s+	c #FCF5F5",
"t+	c #FBF5F5",
"u+	c #F6F1F1",
"v+	c #ECE7E7",
"w+	c #FCF8F8",
"x+	c #FAF6F6",
"y+	c #E6E2E2",
"z+	c #F0EDED",
"A+	c #FDFBFB",
"B+	c #F9F7F7",
"C+	c #F7F5F5",
"D+	c #F2F0F0",
"E+	c #FEFDFD",
"F+	c #FDFCFC",
"        c.c.                                                    ",
"      c.;+c.z.z.                                                ",
"    c.c.c.v.^.o.                                                ",
"  c.c.c.c.D  .:+                                                ",
"c.c.c.a.@ L #.|+            n.n.n.              n.n.            ",
"c.c.c.P T O W *+          z.z.n.n.z.          n.n.n.            ",
"D.l.U U u.-.O A.          n.n.n.h.n.z.      n.n.d.8.n.          ",
"k.N U U   8.*.=.}.      z.z.n.@ ).!.}.      !.&.^.&.@ n.        ",
"H.U U     }.8.7.7.z.    n.@ @ @ *.@ *.&.&.*.@ @ *.D @ n.        ",
"U           h.a.5.h.z.z.z.@ @ @ @ @ @ @ @ @ @ @ @ *.H n.n.      ",
"            g.1.).7.l.n.@ @ @ &.@ @ @ @ @ @ @ @ @ *.&.z w.n.    ",
"            7.^.D &.).<.<.).*.@ @ @ @ @ @ @ @ @ @ @ &.).!.n.n.n.",
"            q.G F D @ @ @ @ @ @ @ @ @ @ @ @ @ @ @ @ *.&.^.E ^.n.",
"            e.S P I E @ @ @ @ @ @ @ @ @ @ @ @ @ @ @ @ @ ^.^.^.n.",
"              e.+.C B F D @ @ @ @ @ @ @ @ @ @ @ @ @ @ E V S V V ",
"                e.e.+.R I D @ @ D E G H G z D @ @ @ @ G X ].    ",
"                    S.Z B E @ z A S ` +.C B z @ @ @ @ I ` X.    ",
"                      S :.!.@ H -.S S S W./.G @ @ @ @ J @.Z.    ",
"                      S q.<.F J ` ~+S     3.D D E F F K +.@+    ",
"                      @ p.L U N C W.      r.I I M U T P X g.    ",
"                    @ @ =.    V Q 0.      }./.R Y 2.F.X S g.g.  ",
"                    @ @ @     Q P @ }.      }.(.@.Z.  A.U X g.g.",
"                    @ P @       _.Q Q       g.g.R S.    m.g.g.g.",
"                    @ S @       4.@ @         g.1.0.      =.m.g.",
"                    @ @ @       4.4.@         g.f.6.      g.H g.",
"                    @ &.@         @ @ @       g.g.t.      }.1.i.",
"                    @ S {.        @ 4.3.Q     g.a.g.        9.=.",
"                      *.S S         4.9.K.    }.1.g.        }.}.",
"                      S S ).@       Q 4.k.    }.z >+        }.1.",
"                      *.*.*.S @       4.v.q.}.p.$.g.      g.7.@ ",
"                    ;.S V S S [+    4.&.Q ` ,.s.%+g.      @ @ @ ",
"                      ;.;.;.;.    4.4.;.;.  8+,.,.,.            "};
