/* XPM */
static char *leafpad[] = {
/* columns rows colors chars-per-pixel */
"32 32 94 2",
"   c #000000",
".  c #070808",
"X  c #090909",
"o  c #171717",
"O  c #121C11",
"+  c #181818",
"@  c #1E241D",
"#  c #1C2A1A",
"$  c #232322",
"%  c #262E25",
"&  c #2D2D2D",
"*  c #223520",
"=  c #223920",
"-  c #2E352D",
";  c #362E24",
":  c #37342C",
">  c #333332",
",  c #393939",
"<  c #2E412C",
"1  c #31422E",
"2  c #3A5937",
"3  c #3D6536",
"4  c #3E6738",
"5  c #3F6E3A",
"6  c #413B35",
"7  c #403F3D",
"8  c #584936",
"9  c #454443",
"0  c #4B4B4B",
"q  c #504A43",
"w  c #5D5041",
"e  c #505050",
"r  c #545853",
"t  c #5A5A5A",
"y  c #476A43",
"u  c #486C44",
"i  c #4C6F49",
"p  c #477E41",
"a  c #4C7049",
"s  c #487F41",
"d  c #586057",
"f  c #5B615A",
"g  c #5A7450",
"h  c #635B47",
"j  c #616843",
"k  c #61615B",
"l  c #626262",
"z  c #6E6D6B",
"x  c #717171",
"c  c #50874B",
"v  c #51894C",
"b  c #5A844A",
"n  c #856E52",
"m  c #8E9B6A",
"M  c #9C8B64",
"N  c #A58C6D",
"B  c #878685",
"V  c #858985",
"C  c #8C8C8B",
"Z  c #91918F",
"A  c #A4A5A5",
"S  c #A8A7A2",
"D  c #ACAAA5",
"F  c #AFAEA8",
"G  c #AFB0AF",
"H  c #B0AFAA",
"J  c #B4B2AD",
"K  c #B6B6B3",
"L  c #B8B7B7",
"P  c #B8B7B8",
"I  c #BBBAB5",
"U  c #BCBBB9",
"Y  c #C0BFBB",
"T  c #C2C2C2",
"R  c #C8C7C4",
"E  c #C9C8C5",
"W  c #CDCCCB",
"Q  c #D1D0CE",
"!  c #D6D6D5",
"~  c #D7D8D7",
"^  c #D9D8D7",
"/  c #DCDCDC",
"(  c #DFDFE0",
")  c #E0E0DF",
"_  c #E5E5E4",
"`  c #E7E8E7",
"'  c #E8E7E7",
"]  c #E8E8E7",
"[  c #EBEBEB",
"{  c #F3F3F2",
"}  c #F7F8F7",
"|  c #F8F7F7",
" . c #FCFCFC",
".. c None",
/* pixels */
"................................................................",
"........+ > & & & & & & & & & & & & & & & & & & & > , + ........",
"........7 r l l l l l k t l l l l l t l l l l k t 0 r 0 ........",
"........& A  . . . . . . . . . . . . . . .| | { [ 0 0 e ........",
"........& A  . . .|  .| | | | { { { { { { { { { / 0 0 e ........",
"........& A  .T J J J J J J J K [ { { { { { { { ) 0 0 e ........",
"........> A  .{ ] [ [ ] ] ] ] ] { { { { { { [ { ( 0 0 e ........",
"........& A  .[ ] [ ] ] ] ] ] ] ] _ _ _ ) ) ) [ / 0 0 e ........",
"........& A  .Y H J J J J J J J H J H H H J H ^ ( 0 0 e ........",
"........& A  .Q J K K K J K J J J J J J J J S Q ( 0 0 e ........",
"........& A  .E I Y Y I U U I I Y I I I I I K ! / 0 0 e ........",
"........: A  .R K I Y I I I I L I I K I I K K ! / 0 0 e ........",
"........> A  .W J J J K J J J J H J J H J J S W ) 0 0 e ........",
"........> A  .U J J J J J J K G H H F F H H D ! / 0 0 e ........",
"........& A  .W I I I I Y J Z T ) ) ) / / / / _ / 0 0 e ........",
"........& A  .! R R R R R J $ 8 C ^ [ [ [ ' ' ' ~ 0 0 0 ........",
"........> A } { { { { { { [ x ; w 8 Z W [ ` ` ` ~ 0 0 e ........",
"........& A } { [ { [ { [ { Y , n N h f W [ _ ` ~ 0 0 e ........",
"........& A } [ { [ [ [ [ [ [ z 8 M m g d W ` _ ~ 0 0 e ........",
"........& A  .[ [ [ [ [ [ [ [ T : j b v i d W _ ~ 0 0 e ........",
"........& A } [ { [ [ [ [ ` ' ` C 1 4 s v a d W / 0 0 e ........",
"........& A { [ [ [ [ [ [ [ ' ' ) C < 4 s v a d Y 0 0 e ........",
"........& A { [ [ [ [ ' ' ' ` ` ' ) V 1 4 p v a r > 0 e ........",
"........> A { [ [ ' [ ' ` ` _ _ _ _ ( V < 4 s v i @ 0 e ........",
"........> A { ' [ _ [ ` _ ` _ _ _ _ _ ( V < 4 p v y - 9 ........",
"........> A { [ [ ` _ _ _ _ _ _ _ ( ) ) / V - 4 p v y %   ......",
"........> A { ` [ _ [ ` ` _ _ _ ( _ ) _ ) / V < 4 p v 2 .   ....",
"........> B T P P P P P P P P P L L K K L L K f * 3 5 = X   ....",
"........0 , & & & > & & & & > & & & - - & > & & @ # # O .   ....",
"........0 t t t t t t t t t t t t t t t t t t t r > $ & ........",
"........+ , , , , , , , , , , , , , , , , , , , , , > + ........",
"................................................................"
};
