/* XPM */
static char *fatrat[] = {
/* columns rows colors chars-per-pixel */
"32 32 90 1",
"  c #3ECD35FD1313",
". c #42DA3A27144D",
"X c #48BA3EE915B7",
"o c #49F44007154E",
"O c #515146291789",
"+ c #527D47471809",
"@ c #554E496D18D2",
"# c #59474D771B66",
"$ c #5DB551491CED",
"% c #617354AD1E7E",
"& c #4F6C47642278",
"* c #55004B3C212F",
"= c #55554C8527D2",
"- c #5D96528B2496",
"; c #630256732126",
": c #668659762237",
"> c #6A2B5D112599",
", c #6464593C29B8",
"< c #6C885F5F2815",
"1 c #6E5061532ABD",
"2 c #720E64F12DBC",
"3 c #744B67423082",
"4 c #763B695632CD",
"5 c #797B6C9D3628",
"6 c #75036986388E",
"7 c #7B206E7D399C",
"8 c #7E2571883C31",
"9 c #805C73F43F23",
"0 c #8269760041BF",
"q c #860D79E9460F",
"w c #86997ABD4851",
"e c #89BE7DBB4AEB",
"r c #8CD080FD4EBD",
"t c #8DDF82655172",
"y c #91F3868655E2",
"u c #923C87875920",
"i c #955C8A3B5A87",
"p c #98B48DCD5E9E",
"a c #999E8EF261BB",
"s c #9D1A926C64F3",
"d c #9F6E954C699A",
"f c #9DBA950670A9",
"g c #A19397506BC1",
"h c #A35C99196D1C",
"j c #A6BE9CC57297",
"k c #A8CE9EE47582",
"l c #A6FC9DD67895",
"z c #AA70A0BC7730",
"x c #AC42A2F07B09",
"c c #A6DFA02E82BB",
"v c #A970A269819E",
"b c #AF4CA8A88A8A",
"n c #B068A76E819D",
"m c #B339AA6D84EE",
"M c #B64BAE118AC1",
"N c #B829B0778D70",
"B c #BA81B2498F26",
"V c #BBF1B41D930A",
"C c #BFBFB84697B4",
"Z c #B60BB1949F49",
"A c #C031B87F98EE",
"S c #BC11B728A330",
"D c #C3ABBC839DFC",
"F c #C5DEBF09A25E",
"G c #C0C0BBF4A852",
"H c #C839C16BA5C2",
"J c #CA3BC351A6FC",
"K c #CD0EC6C1ABF7",
"L c #CEB2C8E5AF68",
"P c #CF07C9ACB279",
"I c #C6B8C48AB99C",
"U c #C93AC68DBB65",
"Y c #CCCCCA02BE68",
"T c #D1E8CC5DB472",
"R c #D4F1CF79B87F",
"E c #D6B4D1CBBC6C",
"W c #D972D48ABFBF",
"Q c #D4D4D198C4A7",
"! c #DBA2D725C374",
"~ c #DD6BD93BC6AA",
"^ c #DF09DB70CC4B",
"/ c #E2D4DF09CF40",
"( c #E338DF6DD07A",
") c #E5FDE2A4D50D",
"_ c #E985E6B4DA84",
"` c #EE72EC54E2A9",
"' c #F0F9EF31E729",
"] c #F45FF320ED53",
"[ c #F721F668F18D",
"{ c None",
/* pixels */
"{{{{{{{{{{{{{{{{{{{{{{{{{{{{{{{{",
"{{{{{{{{{{{{{{{{{{{{{{{{{{{{{{{{",
"{{{{{{{{{{{{'/!)'{{{{{{{{{{{{{{{",
"{{{{{{{{{{[(NkjzMF~`{{{{{{{{{{{{",
"{{{{{{{{{'Fge00eisjMW]{{{{{{{{{{",
"{{{{{{{{{Dy03247qtpaM~{{{{{{{{{{",
"{{{{{{{{Hi04>%:38qtisB`{{{{{{{{{",
"{{{{{{{{jq52>$;280wisk![{{{{{{{{",
"{{{{{{)Ey9332>>48qewihmR]{{{{{{{",
"{{{{{{TWkw9885470eikgdsk^{{{{{{{",
"{{{{{WKTFV0750weizMWTdtrM^{{{{{{",
"{{{{{EJKVk434578dCF!Rp5wsF{{{{{{",
"{{{{{NBxt-#>324>,tD!Ke>8rlY{{{{{",
"{{{{{szu-.$14452.*kKA8:50uG{{{{{",
"{{{{Tu53$;24440w1#qxd3>229b{{{{{",
"{{{{Py21:188225ee405r5:328vI{{{{",
"{{{{Et>>#17;:::4q48184<8rybI{{{{",
"{{{{{i>>#*.X#%%$=683422rxkVU{{{{",
"{{{{{s2<%X o@#$;&7752<2iKVS{{{{{",
"{{{{{a1>%#$+@+#<74841:3hFxS{{{{{",
"{{{{{d2;%++$$$>1227133qyac{{{{{{",
"{{{{{M2>#X#$:15412755878fZ{{{{{{",
"{{{{{)8>$O$>2wreq0qeqeymQ{{{{{{{",
"{{{{{]a<%$$%7adpsyuyshD_]{{{{{{{",
"{{{{_Mr3$#11wkVzu0eeyjT__`{{{{{{",
"{{{{Wny020w0ujVmippaMCLW//^{{{{{",
"{{{{{{)VhmgpskmFDMDTEMVMT/{{{{{{",
"{{{{{{{]nnkt9rCTF){{{{{{{{{{{{{{",
"{{{{{{{{MidshdDL){{{{{{{{{{{{{{{",
"{{{{{{{{TdssxML^{{{{{{{{{{{{{{{{",
"{{{{{{{{{{{{{{{{{{{{{{{{{{{{{{{{",
"{{{{{{{{{{{{{{{{{{{{{{{{{{{{{{{{"
};
