/* XPM */
static char * rawstudio_xpm[] = {
"32 32 551 2",
"  	c None",
". 	c #393F40",
"+ 	c #2E3436",
"@ 	c #666B6A",
"# 	c #747876",
"$ 	c #373D3E",
"% 	c #3C4143",
"& 	c #6C706F",
"* 	c #303638",
"= 	c #3F4546",
"- 	c #383E40",
"; 	c #3B4142",
"> 	c #3E4344",
", 	c #4B5051",
"' 	c #616665",
") 	c #2D3335",
"! 	c #32383A",
"~ 	c #707472",
"{ 	c #464B4C",
"] 	c #3E4446",
"^ 	c #5F6365",
"/ 	c #828587",
"( 	c #A1A3A4",
"_ 	c #ADAFAF",
": 	c #949798",
"< 	c #6A6E6F",
"[ 	c #54595A",
"} 	c #686D6C",
"| 	c #34393B",
"1 	c #3F4446",
"2 	c #686C6B",
"3 	c #444A4B",
"4 	c #AFB1B2",
"5 	c #DEDFDF",
"6 	c #F7F7F7",
"7 	c #F6F6F6",
"8 	c #DFDFDE",
"9 	c #D2D3D1",
"0 	c #C8C9C7",
"a 	c #ACADAC",
"b 	c #757879",
"c 	c #393E40",
"d 	c #414748",
"e 	c #636867",
"f 	c #33393B",
"g 	c #646869",
"h 	c #D6D7D7",
"i 	c #F8F8F8",
"j 	c #FEFEFD",
"k 	c #F1F2F2",
"l 	c #C3C6C5",
"m 	c #B0B3B2",
"n 	c #AAADAB",
"o 	c #B5B7B4",
"p 	c #AEAFAC",
"q 	c #A7A8A5",
"r 	c #8A8B8A",
"s 	c #3B4042",
"t 	c #2A3032",
"u 	c #3E4345",
"v 	c #CDCFCF",
"w 	c #FEFEFE",
"x 	c #FFFFFF",
"y 	c #CED0D0",
"z 	c #B9BBB9",
"A 	c #D9DAD8",
"B 	c #C7C9C8",
"C 	c #9B9D9A",
"D 	c #A0A19E",
"E 	c #969894",
"F 	c #91928E",
"G 	c #6D706F",
"H 	c #303536",
"I 	c #969999",
"J 	c #ECEDEC",
"K 	c #CBCDCC",
"L 	c #AAACA9",
"M 	c #D1D2D0",
"N 	c #C6C7C6",
"O 	c #898B88",
"P 	c #8F908C",
"Q 	c #868883",
"R 	c #7F817C",
"S 	c #7C7D79",
"T 	c #545858",
"U 	c #535859",
"V 	c #BABCBB",
"W 	c #E9EAEA",
"X 	c #AAACAB",
"Y 	c #8A8D8B",
"Z 	c #848784",
"` 	c #878985",
" .	c #82847F",
"..	c #797C76",
"+.	c #73756F",
"@.	c #6B6D68",
"#.	c #6B6D6B",
"$.	c #282D2F",
"%.	c #5F6465",
"&.	c #CFD0CF",
"*.	c #9B9D99",
"=.	c #81847E",
"-.	c #797B76",
";.	c #72756F",
">.	c #6A6C66",
",.	c #63665F",
"'.	c #5C5F57",
").	c #70716B",
"!.	c #2E3335",
"~.	c #6C6F70",
"{.	c #D5D6D4",
"].	c #91938E",
"^.	c #757872",
"/.	c #6C6F69",
"(.	c #666862",
"_.	c #5E615A",
":.	c #585B54",
"<.	c #51544D",
"[.	c #54554F",
"}.	c #494E50",
"|.	c #2B3133",
"1.	c #3A4041",
"2.	c #707474",
"3.	c #CDCECC",
"4.	c #848681",
"5.	c #656862",
"6.	c #5E605A",
"7.	c #51544C",
"8.	c #4C4F47",
"9.	c #454840",
"0.	c #44453E",
"a.	c #4E5354",
"b.	c #4D5252",
"c.	c #5C6161",
"d.	c #292F31",
"e.	c #272C2E",
"f.	c #24292A",
"g.	c #212526",
"h.	c #595D5E",
"i.	c #BBBBB9",
"j.	c #E4E4E4",
"k.	c #B2B3B2",
"l.	c #C7C8C7",
"m.	c #F9F9F9",
"n.	c #7A7C77",
"o.	c #5A5D56",
"p.	c #61635E",
"q.	c #7C7E7B",
"r.	c #4C4F49",
"s.	c #42453D",
"t.	c #3C4037",
"u.	c #52534D",
"v.	c #373C3E",
"w.	c #2B3031",
"x.	c #2D3133",
"y.	c #2D3234",
"z.	c #2E3435",
"A.	c #878885",
"B.	c #F4F4F4",
"C.	c #6E716D",
"D.	c #676A64",
"E.	c #5D605A",
"F.	c #6F716B",
"G.	c #50534D",
"H.	c #EBECEC",
"I.	c #D3D4D3",
"J.	c #4E504A",
"K.	c #32352D",
"L.	c #535450",
"M.	c #2D3233",
"N.	c #383D3F",
"O.	c #747674",
"P.	c #BCBDBA",
"Q.	c #E6E6E7",
"R.	c #5D5F59",
"S.	c #5C5F58",
"T.	c #555851",
"U.	c #848582",
"V.	c #676963",
"W.	c #5B5E59",
"X.	c #E9E9E9",
"Y.	c #5F615B",
"Z.	c #35372F",
"`.	c #484B49",
" +	c #414648",
".+	c #484D4F",
"++	c #424749",
"@+	c #4F5354",
"#+	c #747571",
"$+	c #C6C7C5",
"%+	c #828481",
"&+	c #51544E",
"*+	c #595B56",
"=+	c #BFC0BF",
"-+	c #5D6059",
";+	c #3B3E37",
">+	c #C4C5C4",
",+	c #E5E5E5",
"'+	c #A1A2A0",
")+	c #353730",
"!+	c #424440",
"~+	c #45494A",
"{+	c #46494A",
"]+	c #484C4D",
"^+	c #484D4E",
"/+	c #414749",
"(+	c #797D7E",
"_+	c #B3B5B6",
":+	c #A2A4A6",
"<+	c #B0B2B2",
"[+	c #606365",
"}+	c #595C5B",
"|+	c #6F706B",
"1+	c #B7B8B6",
"2+	c #C2C3C1",
"3+	c #D3D4D2",
"4+	c #575952",
"5+	c #31352C",
"6+	c #3E4139",
"7+	c #555852",
"8+	c #32352E",
"9+	c #383933",
"0+	c #4D5151",
"a+	c #6F7273",
"b+	c #9C9E9E",
"c+	c #898B8C",
"d+	c #A9ABAB",
"e+	c #9FA1A2",
"f+	c #B5B7B8",
"g+	c #A4A6A7",
"h+	c #A9ACAD",
"i+	c #B4B7B7",
"j+	c #7F8384",
"k+	c #373D3F",
"l+	c #BABDBE",
"m+	c #6B6F70",
"n+	c #2F3537",
"o+	c #4B4F50",
"p+	c #535550",
"q+	c #71726D",
"r+	c #B9BAB7",
"s+	c #CCCDCB",
"t+	c #494C45",
"u+	c #292D24",
"v+	c #282A22",
"w+	c #32342D",
"x+	c #424641",
"y+	c #424A45",
"z+	c #8E9290",
"A+	c #9B9E9C",
"B+	c #BCBBBC",
"C+	c #B1AFB0",
"D+	c #D2CDCE",
"E+	c #B0AAAA",
"F+	c #B2A8A9",
"G+	c #C5B8B8",
"H+	c #8F8788",
"I+	c #63696C",
"J+	c #C0C6CC",
"K+	c #676D71",
"L+	c #5A5F5F",
"M+	c #6F7372",
"N+	c #454C51",
"O+	c #5F6468",
"P+	c #485044",
"Q+	c #4B4F4D",
"R+	c #575855",
"S+	c #62645F",
"T+	c #4C4D48",
"U+	c #4B4D4A",
"V+	c #414544",
"W+	c #526D40",
"X+	c #608E39",
"Y+	c #3F4744",
"Z+	c #797D7B",
"`+	c #49514C",
" @	c #7A827C",
".@	c #B6A6A7",
"+@	c #D6AEAF",
"@@	c #DB9B9C",
"#@	c #D47F7F",
"$@	c #D05C5C",
"%@	c #CA3C3D",
"&@	c #922C2D",
"*@	c #2F3638",
"=@	c #697175",
"-@	c #767D82",
";@	c #727675",
">@	c #535C62",
",@	c #818F9D",
"'@	c #787E83",
")@	c #7EA03B",
"!@	c #7A9E3B",
"~@	c #597438",
"{@	c #3B4837",
"]@	c #303736",
"^@	c #425737",
"/@	c #597E39",
"(@	c #6CA23B",
"_@	c #75C135",
":@	c #75D02E",
"<@	c #66A33F",
"[@	c #435244",
"}@	c #7D817F",
"|@	c #565B5B",
"1@	c #AF9697",
"2@	c #F0A7A7",
"3@	c #F27F7F",
"4@	c #EE5B5B",
"5@	c #E92C2C",
"6@	c #E61515",
"7@	c #A91D1E",
"8@	c #575F64",
"9@	c #696D6C",
"0@	c #8494A4",
"a@	c #899CAE",
"b@	c #868D93",
"c@	c #8ABB3A",
"d@	c #99D63A",
"e@	c #8AC738",
"f@	c #4B6337",
"g@	c #4F5553",
"h@	c #5A803A",
"i@	c #77B83E",
"j@	c #74BC3C",
"k@	c #6ECE2A",
"l@	c #7AD440",
"m@	c #84D557",
"n@	c #6DA654",
"o@	c #4A514E",
"p@	c #6A6F6D",
"q@	c #705D5E",
"r@	c #EB8B8B",
"s@	c #EE5D5D",
"t@	c #EA3434",
"u@	c #E51313",
"v@	c #E30D0D",
"w@	c #A61818",
"x@	c #606A72",
"y@	c #6C7984",
"z@	c #5F6C77",
"A@	c #95AAC0",
"B@	c #9DB6D1",
"C@	c #98B4D1",
"D@	c #909AA3",
"E@	c #85C136",
"F@	c #91DC34",
"G@	c #81CC31",
"H@	c #445D34",
"I@	c #52783B",
"J@	c #73BC40",
"K@	c #6DC833",
"L@	c #7BD549",
"M@	c #8CD965",
"N@	c #91DB70",
"O@	c #95DC79",
"P@	c #7AAB6D",
"Q@	c #515D55",
"R@	c #995C5D",
"S@	c #ED6060",
"T@	c #E72D2D",
"U@	c #E31010",
"V@	c #E20909",
"W@	c #E00606",
"X@	c #A11212",
"Y@	c #5C6771",
"Z@	c #B2CAE4",
"`@	c #A9C4DF",
" #	c #A3C0DE",
".#	c #9EBDDE",
"+#	c #8DACCD",
"@#	c #8C98A2",
"##	c #7BBE32",
"$#	c #85D82F",
"%#	c #77C82D",
"&#	c #415C33",
"*#	c #51793D",
"=#	c #75C447",
"-#	c #81D455",
";#	c #92DB70",
">#	c #96DC79",
",#	c #9BDE84",
"'#	c #A0E08C",
")#	c #A5E196",
"!#	c #A5BAA3",
"~#	c #BA5A5B",
"{#	c #E83939",
"]#	c #E20F0F",
"^#	c #E00707",
"/#	c #DF0303",
"(#	c #DD0101",
"_#	c #9C1010",
":#	c #2C3233",
"<#	c #57646F",
"[#	c #A4C1E0",
"}#	c #9DBCDE",
"|#	c #95B6DB",
"1#	c #8EB2D9",
"2#	c #7FA3C8",
"3#	c #8894A0",
"4#	c #73BC33",
"5#	c #7CD531",
"6#	c #6FC631",
"7#	c #3F5C35",
"8#	c #608155",
"9#	c #9AD87E",
"0#	c #9ADE7F",
"a#	c #A0E089",
"b#	c #A4E192",
"c#	c #AAE39C",
"d#	c #B0E5A5",
"e#	c #B7E7AF",
"f#	c #B5C6B5",
"g#	c #AF3435",
"h#	c #E11010",
"i#	c #DE0303",
"j#	c #DC0000",
"k#	c #D50000",
"l#	c #950F10",
"m#	c #2B3032",
"n#	c #53616E",
"o#	c #97B8DB",
"p#	c #91B4D9",
"q#	c #88AED6",
"r#	c #82AAD4",
"s#	c #749CC5",
"t#	c #85929F",
"u#	c #7FC24E",
"v#	c #8AD953",
"w#	c #83CC58",
"x#	c #455D40",
"y#	c #585D5D",
"z#	c #708C69",
"A#	c #A2DF8C",
"B#	c #A5E292",
"C#	c #ABE39C",
"D#	c #B1E5A5",
"E#	c #B8E7B0",
"F#	c #BEE9B8",
"G#	c #C6ECC2",
"H#	c #BBC8BB",
"I#	c #A61A1B",
"J#	c #DD0202",
"K#	c #DB0000",
"L#	c #D70000",
"M#	c #CB0000",
"N#	c #8F0E0F",
"O#	c #495763",
"P#	c #7B9ABC",
"Q#	c #7597BA",
"R#	c #6F92B8",
"S#	c #698FB6",
"T#	c #5E83A9",
"U#	c #7E8B97",
"V#	c #7AAE5E",
"W#	c #8CC76D",
"X#	c #91C977",
"Y#	c #79A16D",
"Z#	c #5F6E60",
"`#	c #98BC8E",
" $	c #A4D299",
".$	c #A9D4A0",
"+$	c #B0D6AA",
"@$	c #B5D9B1",
"#$	c #BDDBBA",
"$$	c #C2DEC1",
"%$	c #C9E0C9",
"&$	c #B9C2BB",
"*$	c #8F1819",
"=$	c #BF0909",
"-$	c #BB0808",
";$	c #B60707",
">$	c #AC0606",
",$	c #A60606",
"'$	c #781213",
")$	c #72787C",
"!$	c #A9B2B9",
"~$	c #A2ABB3",
"{$	c #A3ACB5",
"]$	c #97A1AA",
"^$	c #B3BCC4",
"/$	c #A7ABAF",
"($	c #B8C3B5",
"_$	c #A7B4A3",
":$	c #B3BFB0",
"<$	c #B4BFB2",
"[$	c #AEB7AE",
"}$	c #C1CAC0",
"|$	c #A7B1A7",
"1$	c #BAC3BA",
"2$	c #AFB7B0",
"3$	c #B6BEB7",
"4$	c #B5BBB6",
"5$	c #B5BBB7",
"6$	c #B3B9B5",
"7$	c #ACAFAE",
"8$	c #A69090",
"9$	c #9D7A7B",
"0$	c #A78585",
"a$	c #957575",
"b$	c #927373",
"c$	c #907272",
"d$	c #715F60",
"e$	c #393F41",
"f$	c #898D8E",
"g$	c #C8C9CA",
"h$	c #C2C4C4",
"i$	c #C0C2C3",
"j$	c #B6B8B9",
"k$	c #D8D9D9",
"l$	c #B7B9BA",
"m$	c #D1D2D3",
"n$	c #C2C3C3",
"o$	c #C0C2C2",
"p$	c #B2B4B4",
"q$	c #C9CACB",
"r$	c #A8AAAB",
"s$	c #B1B2B3",
"t$	c #AFB1B1",
"u$	c #A4A6A6",
"v$	c #A3A5A5",
"w$	c #B0B1B1",
"x$	c #9D9E9F",
"y$	c #A7A8A8",
"z$	c #959797",
"A$	c #939495",
"B$	c #909292",
"C$	c #787B7C",
"D$	c #404547",
"E$	c #515758",
"F$	c #616567",
"G$	c #606566",
"H$	c #606466",
"I$	c #5E6364",
"J$	c #5D6263",
"K$	c #5D6163",
"L$	c #5C6162",
"M$	c #4D5254",
"N$	c #5A5E60",
"O$	c #595D5F",
"P$	c #575C5D",
"Q$	c #565B5C",
"R$	c #55595B",
"S$	c #54585A",
"T$	c #525658",
"U$	c #505556",
"V$	c #4F5355",
"W$	c #4D5153",
"X$	c #4B4F51",
"Y$	c #494D4F",
"Z$	c #313739",
"                            .                                   ",
"                          + @ +                                 ",
"                          + # +                                 ",
"                          + # +                                 ",
"        $ %               + & +             * = +               ",
"        - & ;             + > +             , ' )               ",
"          ! ~ {     ] ^ / ( _ : < [     * , } |                 ",
"            1 2 + 3 4 5 6 7 8 9 0 a b c d e f                   ",
"              + g h i j k l m n o p q r s t                     ",
"              u v 7 w x y z A B C D E F G H                     ",
"              I J w x x K L M N O P Q R S T                     ",
"            U V 6 x x x W X Y Z `  ...+.@.#.$.                  ",
"            %.&.x x x x x x *.=.-.;.>.,.'.).!.                  ",
"+ + + + + + ~.{.x x x x x x ].^./.(._.:.<.[.}.|.+ + + +         ",
"1.@ # # & > 2.3.x x x x x x 4.5.6.:.7.8.9.0.a.b.# # # c.+       ",
"    d.e.f.g.h.i.x x j.k.l.m.n.o.p.q.r.s.t.u.v.w.x.y.z.+         ",
"            , A.B.m.C.D.E.a F.G.H.x I.J.K.L.M.                  ",
"            N.O.P.Q.R.S.T.U.V.W.x x X.Y.Z.`.                    ",
"       +.+.+++@+#+$+%+&+*+=+-+;+>+,+'+)+!+~+{+]+^+.+.+.+.+.+/+  ",
"      (+_+:+<+[+}+|+1+2+3+6 4+5+6+7+8+9+0+a+b+c+d+e+f+g+h+i+j+k+",
"    + (+l+h+m+, n+o+p+q+r+s+t+u+v+w+x+y+N., z+A+B+C+D+E+F+G+H+++",
"    + I+J+K+L+M+N+O+P+Q+R+S+u.T+U+V+W+X+Y+Z+`+ @.@+@@@#@$@%@&@*@",
"    + =@-@L+;@>@,@'@)@!@~@{@]@^@/@(@_@:@<@[@}@|@1@2@3@4@5@6@7@n+",
"    + 8@3 9@>@0@a@b@c@d@e@f@g@h@i@j@k@l@m@n@o@p@q@r@s@t@u@v@w@+ ",
"    + x@y@z@A@B@C@D@E@F@G@H@# I@J@K@L@M@N@O@P@Q@R@S@T@U@V@W@X@y.",
"    + Y@Z@`@ #.#+#@###$#%#&## *#=#-#;#>#,#'#)#!#~#{#]#^#/#(#_#:#",
"    + <#[#}#|#1#2#3#4#5#6#7## 8#9#0#a#b#c#d#e#f#g#h#i#(#j#k#l#m#",
"    + n#o#p#q#r#s#t#u#v#w#x#y#z#A#B#C#D#E#F#G#H#I#J#j#K#L#M#N#t ",
"    + O#P#Q#R#S#T#U#V#W#X#Y#Z#`# $.$+$@$#$$$%$&$*$=$-$;$>$,$'$t ",
"    + )$!$~${$]$^$/$($_$:$<$[$}$|$1$2$3$4$5$6$7$8$9$0$a$b$c$d$e$",
"      f$g$h$i$j$k$l$m$f+n$o$p$q$: r$_+<+s$t$u$v$w$x$y$z$A$B$C$D$",
"      E$F$F$G$G$H$%.%.^ I$J$K$L$}.M$N$O$P$Q$R$S$T$U$V$W$X$Y$D$Z$"};
