/* XPM */
static char *anjuta.new[] = {
/* columns rows colors chars-per-pixel */
"32 31 204 2",
"   c #000800080008",
".  c #018801880188",
"X  c #021202120212",
"o  c #036803680368",
"O  c #05EC05EC05EC",
"+  c #067C067C067C",
"@  c #08B308B308B3",
"#  c #097409740974",
"$  c #0A950A950A95",
"%  c #0BA60BA60BA6",
"&  c #0C7D0C7D0C7D",
"*  c #0DDB0DDB0DDB",
"=  c #0EAC0EAC0EAC",
"-  c #0F180F180F18",
";  c #10FB10FB10FB",
":  c #128E128E128E",
">  c #135A135A135A",
",  c #144A144A144A",
"<  c #157115711571",
"1  c #178217821782",
"2  c #188618861886",
"3  c #197B197B197B",
"4  c #1A651A651A65",
"5  c #1BC81BC81BC8",
"6  c #1D6D1D6D1D6D",
"7  c #1F331F331F33",
"8  c #22F922F922F9",
"9  c #23EB23EB23EB",
"0  c #249924992499",
"q  c #25C425C425C4",
"w  c #27DD27DD27DD",
"e  c #2A822A822A82",
"r  c #2B6D2B6D2B6D",
"t  c #2CFF2CFF2CFF",
"y  c #2D3D2D3D2D3D",
"u  c #2E8E2E8E2E8E",
"i  c #2FAA2FAA2FAA",
"p  c #30F330F330F3",
"a  c #325832583258",
"s  c #33CE33CE33CE",
"d  c #34FB34FB34FB",
"f  c #359535953595",
"g  c #36B236B236B2",
"h  c #37CA37CA37CA",
"j  c #388338833883",
"k  c #39AA39AA39AA",
"l  c #3A9D3A9D3A9D",
"z  c #3BC83BC83BC8",
"x  c #3D273D273D27",
"c  c #3E193E193E19",
"v  c #3F033F033F03",
"b  c #3F9E3F9E3F9E",
"n  c #408B408B408B",
"m  c #419841984198",
"M  c #42A042A042A0",
"N  c #43D143D143D1",
"B  c #44BE44BE44BE",
"V  c #45B045B045B0",
"C  c #46D846D846D8",
"Z  c #48FE48FE48FE",
"A  c #49F449F449F4",
"S  c #4AF74AF74AF7",
"D  c #4BC04BC04BC0",
"F  c #4CE84CE84CE8",
"G  c #4DB14DB14DB1",
"H  c #4F184F184F18",
"J  c #500950095009",
"K  c #510451045104",
"L  c #537B537B537B",
"P  c #551455145514",
"I  c #56D456D456D4",
"U  c #584058405840",
"Y  c #585D585D585D",
"T  c #59C359C359C3",
"R  c #5B085B085B08",
"E  c #5BAD5BAD5BAD",
"W  c #5DEB5DEB5DEB",
"Q  c #5E9B5E9B5E9B",
"!  c #5FAE5FAE5FAE",
"~  c #60B060B060B0",
"^  c #621362136213",
"/  c #631063106310",
"(  c #650465046504",
")  c #67D167D167D1",
"_  c #68B168B168B1",
"`  c #69C869C869C8",
"'  c #6B4E6B4E6B4E",
"]  c #6BF86BF86BF8",
"[  c #6CD66CD66CD6",
"{  c #6E016E016E01",
"}  c #6FEF6FEF6FEF",
"|  c #72AE72AE72AE",
" . c #746474647464",
".. c #74E974E974E9",
"X. c #75C775C775C7",
"o. c #770A770A770A",
"O. c #77B577B577B5",
"+. c #791B791B791B",
"@. c #7B217B217B21",
"#. c #7CEC7CEC7CEC",
"$. c #7E257E257E25",
"%. c #7F2B7F2B7F2B",
"&. c #7FC87FC87FC8",
"*. c #809F809F809F",
"=. c #82F182F182F1",
"-. c #83EF83EF83EF",
";. c #86FE86FE86FE",
":. c #897789778977",
">. c #8B238B238B23",
",. c #8C308C308C30",
"<. c #8E998E998E99",
"1. c #901390139013",
"2. c #913E913E913E",
"3. c #932693269326",
"4. c #946D946D946D",
"5. c #973397339733",
"6. c #983F983F983F",
"7. c #98E898E898E8",
"8. c #99EB99EB99EB",
"9. c #9C789C789C78",
"0. c #9CF79CF79CF7",
"q. c #9DBA9DBA9DBA",
"w. c #9F3B9F3B9F3B",
"e. c #A00CA00CA00C",
"r. c #A0EBA0EBA0EB",
"t. c #A1E3A1E3A1E3",
"y. c #A426A426A426",
"u. c #A593A593A593",
"i. c #A5E3A5E3A5E3",
"p. c #A78CA78CA78C",
"a. c #A7DAA7DAA7DA",
"s. c #AE6CAE6CAE6C",
"d. c #B025B025B025",
"f. c #B112B112B112",
"g. c #B1D2B1D2B1D2",
"h. c #B2EFB2EFB2EF",
"j. c #B40CB40CB40C",
"k. c #B56CB56CB56C",
"l. c #B639B639B639",
"z. c #B6E8B6E8B6E8",
"x. c #B828B828B828",
"c. c #B9CBB9CBB9CB",
"v. c #BC12BC12BC12",
"b. c #BE9FBE9FBE9F",
"n. c #BF45BF45BF45",
"m. c #C0F0C0F0C0F0",
"M. c #C327C327C327",
"N. c #C3CEC3CEC3CE",
"B. c #C56BC56BC56B",
"V. c #C60EC60EC60E",
"C. c #C761C761C761",
"Z. c #C939C939C939",
"A. c #CA3CCA3CCA3C",
"S. c #CC18CC18CC18",
"D. c #CD36CD36CD36",
"F. c #CE5BCE5BCE5B",
"G. c #CFA0CFA0CFA0",
"H. c #D008D008D008",
"J. c #D0F7D0F7D0F7",
"K. c #D243D243D243",
"L. c #D2F1D2F1D2F1",
"P. c #D4BED4BED4BE",
"I. c #D53AD53AD53A",
"U. c #D636D636D636",
"Y. c #D761D761D761",
"T. c #D999D999D999",
"R. c #DA2CDA2CDA2C",
"E. c #DB56DB56DB56",
"W. c #DCA7DCA7DCA7",
"Q. c #DD3BDD3BDD3B",
"!. c #DE51DE51DE51",
"~. c #DF86DF86DF86",
"^. c #E04FE04FE04F",
"/. c #E141E141E141",
"(. c #E249E249E249",
"). c #E399E399E399",
"_. c #E42FE42FE42F",
"`. c #E555E555E555",
"'. c #E6A1E6A1E6A1",
"]. c #E769E769E769",
"[. c #E87AE87AE87A",
"{. c #E945E945E945",
"}. c #EA7FEA7FEA7F",
"|. c #EC9CEC9CEC9C",
" X c #EDA6EDA6EDA6",
".X c #EE88EE88EE88",
"XX c #EF6EEF6EEF6E",
"oX c #F08BF08BF08B",
"OX c #F196F196F196",
"+X c #F254F254F254",
"@X c #F334F334F334",
"#X c #F47AF47AF47A",
"$X c #F598F598F598",
"%X c #F648F648F648",
"&X c #F763F763F763",
"*X c #F8D5F8D5F8D5",
"=X c #F97CF97CF97C",
"-X c #FA68FA68FA68",
";X c #FB66FB66FB66",
":X c #FC8BFC8BFC8B",
">X c #FD84FD84FD84",
",X c #FE7AFE7AFE7A",
"<X c #FF63FF63FF63",
"1X c gray100",
/* pixels */
"      O   O O   O   O   O     O   O O     O O   O O   O   O     ",
"  % > , , , , , , , , , , , > > , , , , , , > > , > , , , , & O ",
"  % 6 S K K K K K K F K K K K K F F K K K K K F K K K K S 6     ",
"  & n K.{.{.{.{.{.{.`.`.{.{.{.{.B.~.`.{.{.{.{.{.{.{.{.{.K.g     ",
"  % B `.1X1X1X1X1X1XC.K.-X1X1X%Xi ] `.1X1X1X1X1X1X1X1X1X`.j     ",
"  % B {.1X1X1X1X1X-X@.! K.I.B.j.& , &.`.1X1X1X1X1X1X1X1X`.c     ",
"  % n `.1X1X1X1X1X`.g > F ^ ! S w c i 4.~.-X1X1X1X1X1X1X`.j     ",
"  % B `.1X1X1X-XK.,.2 6 F @.e.} ( @.j E @.j.OX1X1X1X1X1X`.c     ",
"  % n `.1X1X%XN.] ! r c r.j._.j.c.j.;.9...^ e.`.-X1X1X1X`.j     ",
"  % B {.1X1XN.] | 9...S j.{.-XXXI.;.e.N.b.,.! 9.XX-X1X1X`.j     ",
"  % n {.1X~.] } j.C...E h.OX1X-XOXj.I I ( r.,.^ h.OX1X1X`.j     ",
"  % B `.%X5.^ r.C.] S a.I.OX1X1X-XXXB.r.g S j.&.| D.1X1X`.c     ",
"  % n `.K.( ] B.,.> &.E.-X1X1X1X1X-X%X{.,.w 5.j.! 9.XX-X`.j     ",
"  % B `.r.n F b.n 6 d.XX1X-X1X1X1X1X1X1XK.E B d.@.| _.1X`.c     ",
"  % n ~.&.t g ;.& c D.-X%XOX1X1X1X1X1X1X%XN.t I >.^ N.-X`.j     ",
"  % B E.( r 9 n & ] _.1XC.c.%X1X1X1X1X1X1X{.4.t n F h.%X`.j     ",
"  % B I.^ j > , 2 >.XX1Xa.&.XX1X1X1X1X1X1X-X_.9.r 2 &.`.`.c     ",
"  % B I.^ B O   i d.-X-Xe.B E.-X1X1X1X1X1X1X1X_.9.g w ] D.j     ",
"  % B I.} n   O I D.-X1Xh.w r.OX1X1X1X1X1X1X1X-Xb.! n 2 e.g     ",
"  % n ~.&.g   & ;._.1X-X~.^ t ..4.5.d.C.OX-X1X-Xa.! @.9 &.i     ",
"  % B _.a.S % w j.XX1X1X%XB.^ I S } &.,.C.%X1XXX@.} &.2 &.t     ",
"  % n _.D.] t ^ E.-X1X1X-XOXE.B.^ b.I.E.`.%XN.r.K ( r 2 4.t     ",
"  % n `.{.e.} r.XX1X1X1X1X1X-X~.E K.-X-X1X-X9.t 2 , 2 I h.g     ",
"  & n `.1X_.N.~.1X1X1X1X1X1X-X~.B N.-X1X-X{.&.F F ! ,.b.I.j     ",
"O % B {.1X1XOX1X1X1X1X1X1X1X1XXXj @.{.-XE.5.! >.c.D._.XX_.j     ",
"  % n `.1X1X1X1X1X1X1X1X1X1X1X%X;.t ..r.] ^ 5.B.OX-X1X1X_.j     ",
"  % n `.1X1X1X1X1X1X1X1X1X1X1X1XI.5.I E ..e.I.OX1X1X1X1X`.c     ",
"  % c K.`.`.`.`.`.{.`.`.`.`.`.`._.D.h.9.d.C._.`.`.`.`.{.K.g     ",
"  % 2 j c c c c c c c c c c c c c c g i g j c c c c c c g &     ",
"  O                                                             ",
"                                                                "
};
