/* XPM */
static char *ekiga[] = {
/* columns rows colors chars-per-pixel */
"32 32 178 2",
"   c #A04700",
".  c #A14800",
"X  c #CC4101",
"o  c #CF4802",
"O  c #CE4908",
"+  c #D04601",
"@  c #D14B02",
"#  c #C35901",
"$  c #CE5D00",
"%  c #D45403",
"&  c #D05E01",
"*  c #DA5D04",
"=  c #D3570C",
"-  c #D16202",
";  c #DC6305",
":  c #D56A07",
">  c #DD6A03",
",  c #D66E0A",
"<  c #D7720C",
"1  c #DA750C",
"2  c #D97A0F",
"3  c #DD6F11",
"4  c #E06000",
"5  c #E96700",
"6  c #E36E01",
"7  c #EC6F00",
"8  c #E47402",
"9  c #ED7600",
"0  c #E67A04",
"q  c #EA7D05",
"w  c #E47608",
"e  c #E67C0A",
"r  c #E97D0A",
"t  c #F17700",
"y  c #F47900",
"u  c #D86B24",
"i  c #DB742C",
"p  c #DD7B2F",
"a  c #E58202",
"s  c #EB8207",
"d  c #EA8C02",
"f  c #E6860D",
"g  c #EB8409",
"h  c #ED890A",
"j  c #F28305",
"k  c #F18C0C",
"l  c #EC9601",
"z  c #EA900D",
"x  c #F09E04",
"c  c #F3940E",
"v  c #F29C0B",
"b  c #E78317",
"n  c #EB8C15",
"m  c #E6851E",
"M  c #EA8C1F",
"N  c #EE9014",
"B  c #EE9910",
"V  c #E6951B",
"C  c #EE931E",
"Z  c #EE9E1B",
"A  c #F59714",
"S  c #F69B11",
"D  c #F39619",
"F  c #F1A203",
"G  c #F4A10B",
"H  c #F8AE0C",
"J  c #F5B701",
"K  c #F5BC01",
"L  c #F6B008",
"P  c #F9B30B",
"I  c #FBBF08",
"U  c #F6A215",
"Y  c #F9A214",
"T  c #F7A519",
"R  c #F5AA1B",
"E  c #F9AB1C",
"W  c #F7B114",
"Q  c #EA8E23",
"!  c #EC9422",
"~  c #EF9921",
"^  c #EE9A2C",
"/  c #F29825",
"(  c #F39D2C",
")  c #E08539",
"_  c #E99332",
"`  c #EB9836",
"'  c #EA9B3D",
"]  c #EAA424",
"[  c #EEA925",
"{  c #EEA428",
"}  c #EDAD29",
"|  c #F7A225",
" . c #F0AC26",
".. c #F4A42C",
"X. c #F9AB2C",
"o. c #EFB02B",
"O. c #FAB323",
"+. c #FBB827",
"@. c #F1B42D",
"#. c #FAB129",
"$. c #F5BC2C",
"%. c #FABA2A",
"&. c #EEA13B",
"*. c #F7A432",
"=. c #F7AB33",
"-. c #F9AA37",
";. c #F0A63A",
":. c #F3AF3F",
">. c #FBAD3B",
",. c #F5B433",
"<. c #FAB536",
"1. c #F2BF35",
"2. c #FAB932",
"3. c #F9B63C",
"4. c #FABC3E",
"5. c #F7C400",
"6. c #FACC01",
"7. c #FCD401",
"8. c #FEDD00",
"9. c #FFE000",
"0. c #FAC22D",
"q. c #F4C235",
"w. c #FBC633",
"e. c #FAC834",
"r. c #F6C23B",
"t. c #FAC13C",
"y. c #F6CB3B",
"u. c #FACE3B",
"i. c #F7D13F",
"p. c #F9D03F",
"a. c #EC9F41",
"s. c #EDA242",
"d. c #EDA348",
"f. c #EFAB4C",
"g. c #F1AC44",
"h. c #F2B34E",
"j. c #EBAB57",
"k. c #EEB45F",
"l. c #F1B151",
"z. c #EFB964",
"x. c #F7CD40",
"c. c #FACD43",
"v. c #FAC848",
"b. c #FBD445",
"n. c #F9DB44",
"m. c #FBD848",
"M. c #F7CA55",
"N. c #FBD655",
"B. c #FBE24A",
"V. c #FEE556",
"C. c #FEE85D",
"Z. c #F6C363",
"A. c #F4C86E",
"S. c #F5C671",
"D. c #F8D275",
"F. c #FADD75",
"G. c #FAD77C",
"H. c #FBDC7D",
"J. c #FDEB7A",
"K. c #F6CF81",
"L. c #F7D383",
"P. c #FADC85",
"I. c #F7D389",
"U. c #FADF9A",
"Y. c #FCE585",
"T. c #FEEC87",
"R. c #FCE58C",
"E. c #FDEB8E",
"W. c #FDEE95",
"Q. c #FAE29E",
"!. c #FDEB9C",
"~. c #FDEDA7",
"^. c #FDEEAC",
"/. c #FEF2A2",
"(. c #FEF2AD",
"). c #FDF0B1",
"_. c #FCF4C0",
"`. c None",
/* pixels */
"`.`.`.`.`.`.`.`.`.`.`.`.`.`.`.`.`.`.`.`.`.`.`.`.`.`.`.`.`.`.`.`.",
"`.`.`.`.`.`.`.`.`.`.`.`.$ - $ $ $ $ - & `.`.`.`.`.`.`.`.`.`.`.`.",
"`.`.`.`.`.`.`.`.`.`.$ 1 ] y.n.B.B.n.y.} 2 & `.`.`.`.`.`.`.`.`.`.",
"`.`.`.`.`.`.`.`.& : q.n.$.Z B v v U R q.n.y.< & `.`.`.`.`.`.`.`.",
"`.`.`.`.`.`.`.$ V n. .d J 7.9.8.K 5.8.6.L $.B.[ & `.`.`.`.`.`.`.",
"`.`.`.`.`.`.: 1.i.z J 8.9.9.8.> X 0 9.5.7.7.W n.y.: `.`.`.`.`.`.",
"`.`.`.`.`.$ 1.@.d 7.7.J F x a X @ K K o % 6.8.P e.y.- `.`.`.`.`.",
"`.`.`.`.& V i.a 6.l 0 0 q s > X > h o X X a 9.9.P n.[ - `.`.`.`.",
"`.`.`.`., n.f J 0 8 0 0 q s 0 X s e X X X * 8.9.I E B.1 `.`.`.`.",
"`.`.`.$ q.[ l 0 8 8 0 g ;.s g q h ; X X X X G H S Y 0.u.& `.`.`.",
"`.`.`.< n.8 d 8 8 8 0 h./.^ g g h g.) X X X k S S Y Y n.2 `.`.`.",
"`.`.$ ] @.a ` a.8 8 0 P.R.g.g g h Y.R.X X X c U S Y Y e.o.$ `.`.",
"`.`.$ q.n 0 U.^.e 8 ! !.h.Z.g g h W.D.i X @ S U E Y Y O.p.- `.`.",
"`.`.$ x.e w ).K.s.Q !.g.^ G.g g N E.' k.X 3 S R O.E E %.b.- `.`.",
"`.`.$ b.8 m Q.' L.f.Z.0 f !.g g C Y.= R.O f.N.2.u.e.w.O.m.& `.`.",
"`.`.$ b.8 _ I.8 ~.S.l.0 q R.! Z.:.H.X z.j.F.v.C./.J.u.E b.& `.`.",
"`.`.$ r.e m d.8 S.(.&.0 q D.G.P.W.A.X p T.M.%.V._.W.w.+.c.- `.`.",
"`.`.$ ,.n 6 6 8 ` (.Q 0 q h./.~ ;.u X X k.,.+.T b.b.+.O.t.- `.`.",
"`.`.$ ! ..6 6 8 8 e 0 0 q s n g ; X X X 6 c S S +.%.O.2.{ & `.`.",
"`.`.`., 4.8 9 y t 8 0 ; o 8 0 % X X X X h c S T S E Y t.2 `.`.`.",
"`.`.`.$ ..~ 9 y y t 0 o X s ; X X X X % c c S S S c #.<.& `.`.`.",
"`.`.`.`.: 3.r y y y 9 X % s % X X X X w c c S S c U 4.1 `.`.`.`.",
"`.`.`.`.& b =.9 y y y + @ s % X X X ; c c c S c c <.~ - `.`.`.`.",
"`.`.`.`.`.$ ( / 9 y y 5 + t * X X * k c c c k c X.=.$ `.`.`.`.`.",
"`.`.`.`.`.`.- ( *.r y y y y 7 4 6 j j j j j A -...: `.`.`.`.`.`.",
"`.`.`.`.`.`.`.$ b -.C 9 y y y y y y y j k | >.C $ `.`.`.`.`.`.`.",
"`.`.`.`.`.`.`.`.$ : ( -./ n g s g k D | -..., $ `.`.`.`.`.`.`.`.",
"`.`.`.`.`.`.`.`.`.`.$ , M *.-.>.>.-.*.! < $ `.`.`.`.`.`.`.`.`.`.",
"`.`.`.`.`.`.`.`.`.`.`.`.. # # $ $ # #   `.`.`.`.`.`.`.`.`.`.`.`.",
"`.`.`.`.`.`.`.`.`.`.`.`.`.`.`.`.`.`.`.`.`.`.`.`.`.`.`.`.`.`.`.`.",
"`.`.`.`.`.`.`.`.`.`.`.`.`.`.`.`.`.`.`.`.`.`.`.`.`.`.`.`.`.`.`.`.",
"`.`.`.`.`.`.`.`.`.`.`.`.`.`.`.`.`.`.`.`.`.`.`.`.`.`.`.`.`.`.`.`."
};
