/* XPM */
static char *nethack[] = {
/* columns rows colors chars-per-pixel */
"32 32 18 1",
"  c black",
". c #191919",
"X c gray20",
"o c #007f00",
"O c #007f7f",
"+ c #7f7f00",
"@ c #4c4c4c",
"# c #666667",
"$ c gray50",
"% c blue",
"& c cyan",
"* c yellow",
"= c gray60",
"- c #b2b2b2",
"; c gray80",
": c gray90",
"> c white",
", c None",
/* pixels */
",,,, ,  , ,     .   , , ., ,,,,,",
",,,,, ,  , . , ,, ,  ,,  , ,,,,,",
" ,   ,#X, , =$=$$=$., ,.#,   , ,",
", , .,-: ,$:>>>>:::;=,,=-,. , ,,",
" ,.X ,=>-#>>::::;;*::$+:-, .X, ,",
" ,=>#.=>>>>>>:>:;;;;;;;;=.@;-, ,",
".,=>>$=::>>:>>::;::;;;;;=+::-, ,",
" ,O-$@->=-=-=$-=+=$#+=$;- .## .,",
" ,#-#O;>--===-OOO$####@;- .##  ,",
" ,=>>-->=====O-$$O#OOO#;=@::-  ,",
" ,=>-$;>==-=-===#######;-.@;; .,",
" ,.X  =>-====$==$Oo#O#o--. ..  ,",
", , . =>====$$-O#$O###O;-     , ",
" , ,  =>-==-=OO$O$O##O@;-   ,  ,",
", , .,=>======O$O#####@;-.. , , ",
",, , ,=>--====-O$##OO#@;-   , ,,",
",,,, ,$>-====$$=#$O#O##-=.. , ,,",
",,,,, ,::====$=OO$O##@-:   , ,,,",
",,, , ,@:--==$=$#####$;#   ,  ,,",
",, ,    :;--O=O=O#O#o=:.   , , ,",
", , .,->->-OO==O$$#@$:X--.  ,  ,",
"     =>>O::==--=$OO$:@ -:-. ,   ",
", ,,->;-;$;:$O$$##$:XX$=-:-. , ,",
"  ,->:O$>= ::O=#O=:@ #:=$$:-.,  ",
" ,=>=-$O;+..;>>;;:@  @:$#$o:- , ",
".,=>$OO$:=. .;>:;@ . @:+O=#-;. ,",
" ,=>;;-:;.   X#@+    .-----;@  ,",
" ,.;>>:;X   , , , , .,$:;:;;  , ",
", ,.;;--.  ,          ,=---X , ,",
" ,  , ,,, ,  , ,,,,,,,,,,, ,  , ",
", ,        ,  ,,,,,,  ,   .  , ,",
",,,,,,,,,,,,,,,,,,,,,,,,,,,,,,,,"
};
