/* XPM */
static char *awesome[] = {
/* columns rows colors chars-per-pixel */
"32 32 3 1",
"  c #535D6C",
". c gray100",
"X c None",
/* pixels */
"                                ",
"                                ",
"                                ",
"                                ",
"                                ",
"                                ",
"                                ",
"                                ",
"                                ",
"                                ",
"XXXXXXXXXXXXXXXXXXXXXX          ",
"                                ",
"                                ",
"                                ",
"                                ",
"                                ",
"                                ",
"                                ",
"                                ",
"                                ",
"                                ",
"          XXXXXXXXXXXX          ",
"                     X          ",
"                     X          ",
"                     X          ",
"                     X          ",
"                     X          ",
"                     X          ",
"                     X          ",
"                     X          ",
"                     X          ",
"                     X          "
};
