/* XPM */
static char * blender_32x32_xpm[] = {
"32 32 312 2",
"  	c None",
". 	c #D05D00",
"+ 	c #CF5E02",
"@ 	c #D05E00",
"# 	c #DB7115",
"$ 	c #F89E46",
"% 	c #EE8E35",
"& 	c #D4660C",
"* 	c #CF5D00",
"= 	c #D06106",
"- 	c #EF9642",
"; 	c #F8A552",
"> 	c #F6A250",
", 	c #DC761E",
"' 	c #D05E02",
") 	c #EA8E3B",
"! 	c #F9AA5E",
"~ 	c #F9AA5D",
"{ 	c #E88B38",
"] 	c #E17F2B",
"^ 	c #F7AD65",
"/ 	c #F9AF67",
"( 	c #F19E51",
"_ 	c #D3660C",
": 	c #CF5C00",
"< 	c #CE5C00",
"[ 	c #D97019",
"} 	c #F6AB65",
"| 	c #F9B36F",
"1 	c #F7AC65",
"2 	c #DB7520",
"3 	c #D15E00",
"4 	c #E37E25",
"5 	c #F59F4C",
"6 	c #F8A453",
"7 	c #F8A758",
"8 	c #F8A95C",
"9 	c #F8AB61",
"0 	c #F9AD64",
"a 	c #F9AF69",
"b 	c #F9B16C",
"c 	c #F9B471",
"d 	c #F9B574",
"e 	c #F9B675",
"f 	c #F9B776",
"g 	c #FAB878",
"h 	c #FAB775",
"i 	c #E68B3B",
"j 	c #D05E01",
"k 	c #F59E4A",
"l 	c #F89C42",
"m 	c #F7993E",
"n 	c #F89C43",
"o 	c #F8A049",
"p 	c #F8A34F",
"q 	c #F8A554",
"r 	c #F8A85A",
"s 	c #F9AC62",
"t 	c #F9AF66",
"u 	c #F9B069",
"v 	c #F9B16B",
"w 	c #F9B16A",
"x 	c #F9B068",
"y 	c #F9AE64",
"z 	c #F9AB5F",
"A 	c #F9AB5E",
"B 	c #F9B36E",
"C 	c #F09F55",
"D 	c #D16309",
"E 	c #E38028",
"F 	c #F6A658",
"G 	c #F8AA60",
"H 	c #F8AD65",
"I 	c #F9B46F",
"J 	c #FAB675",
"K 	c #FAB979",
"L 	c #FABB7E",
"M 	c #FABF84",
"N 	c #FAC086",
"O 	c #FAB573",
"P 	c #FBC38D",
"Q 	c #FBCC9E",
"R 	c #FAC189",
"S 	c #F9A95B",
"T 	c #D4670E",
"U 	c #D46811",
"V 	c #F2AB69",
"W 	c #FABD82",
"X 	c #F9B674",
"Y 	c #FABC80",
"Z 	c #FDE3CA",
"` 	c #FFFEFD",
" .	c #FFFFFF",
"..	c #FFFEFE",
"+.	c #FDE3C9",
"@.	c #F9B26D",
"#.	c #F8A656",
"$.	c #F9AD62",
"%.	c #F4A960",
"&.	c #D16206",
"*.	c #DD7E2F",
"=.	c #F8B87C",
"-.	c #FAB777",
";.	c #FBC088",
">.	c #FDF8F3",
",.	c #FEFEFE",
"'.	c #FAFBFC",
").	c #E0E7F0",
"!.	c #F8F9FC",
"~.	c #FFFBF7",
"{.	c #F8A24E",
"].	c #F8AC61",
"^.	c #F29D4E",
"/.	c #D26106",
"(.	c #EB9B53",
"_.	c #FABA7C",
":.	c #F9B571",
"<.	c #FBEEE3",
"[.	c #FCFCFC",
"}.	c #F4F6F8",
"|.	c #BCCCE0",
"1.	c #9AB2D2",
"2.	c #90ABCD",
"3.	c #90AACD",
"4.	c #A6BBD7",
"5.	c #E9EEF3",
"6.	c #FBFBFB",
"7.	c #FBEFE3",
"8.	c #F68516",
"9.	c #F57A01",
"0.	c #F79434",
"a.	c #DB7218",
"b.	c #D7711D",
"c.	c #F4AE6B",
"d.	c #FAB470",
"e.	c #FAB673",
"f.	c #F9AD63",
"g.	c #F9CDA2",
"h.	c #F9F9F9",
"i.	c #B0C3DA",
"j.	c #91ACCE",
"k.	c #84A2C8",
"l.	c #527CB2",
"m.	c #3465A4",
"n.	c #5C83B5",
"o.	c #F7F7F7",
"p.	c #F8F8F8",
"q.	c #F6BB82",
"r.	c #F57900",
"s.	c #F6871A",
"t.	c #EC8930",
"u.	c #E48B3D",
"v.	c #F8B471",
"w.	c #F9B97A",
"x.	c #FABB7C",
"y.	c #F8A859",
"z.	c #F6DBBF",
"A.	c #F6F6F6",
"B.	c #F1F3F4",
"C.	c #8CA7CB",
"D.	c #89A6CA",
"E.	c #658ABA",
"F.	c #3969A6",
"G.	c #DCE2EA",
"H.	c #F3F3F3",
"I.	c #F5D6B9",
"J.	c #F57C05",
"K.	c #F69E47",
"L.	c #D3660E",
"M.	c #EFA057",
"N.	c #F8B575",
"O.	c #E79145",
"P.	c #F3E0CD",
"Q.	c #F0F2F3",
"R.	c #7395C1",
"S.	c #4270AA",
"T.	c #DCE1E7",
"U.	c #EFEFEF",
"V.	c #F1E1D2",
"W.	c #F89B40",
"X.	c #D86C12",
"Y.	c #DC7927",
"Z.	c #F6AC66",
"`.	c #F8A24D",
" +	c #F9A859",
".+	c #F4AC69",
"++	c #D46C16",
"@+	c #DD7924",
"#+	c #F8A452",
"$+	c #F3CEAA",
"%+	c #ECECEC",
"&+	c #7190BA",
"*+	c #6085B5",
"=+	c #EBEBEB",
"-+	c #EFC69E",
";+	c #F8A14C",
">+	c #D9680A",
",+	c #D06004",
"'+	c #E99144",
")+	c #F8AB5F",
"!+	c #F7983A",
"~+	c #F9AC61",
"{+	c #EF9F56",
"]+	c #D26208",
"^+	c #D9711A",
"/+	c #F89F48",
"(+	c #F5B272",
"_+	c #E5E5E5",
":+	c #E3E3E3",
"<+	c #D8DCE0",
"[+	c #6E8FB9",
"}+	c #6387B6",
"|+	c #D4D9E0",
"1+	c #E6E6E6",
"2+	c #E7E7E7",
"3+	c #F0A359",
"4+	c #F57B03",
"5+	c #F8A757",
"6+	c #D25F00",
"7+	c #D15F03",
"8+	c #EE984A",
"9+	c #F79230",
"0+	c #F8AF66",
"a+	c #E68D3F",
"b+	c #F9BA7C",
"c+	c #F89E47",
"d+	c #F79433",
"e+	c #F57C06",
"f+	c #E9B481",
"g+	c #DFDFDF",
"h+	c #E0E0E0",
"i+	c #CBD1D9",
"j+	c #AFBDD0",
"k+	c #C8CFD8",
"l+	c #E1E1E1",
"m+	c #E2E2E2",
"n+	c #E8C39E",
"o+	c #F68618",
"p+	c #F5A04E",
"q+	c #D6701D",
"r+	c #F8983C",
"s+	c #DD7A26",
"t+	c #EA974F",
"u+	c #F8973A",
"v+	c #F47B05",
"w+	c #E5B485",
"x+	c #DBDADA",
"y+	c #DCDCDC",
"z+	c #DDDDDD",
"A+	c #DEDEDE",
"B+	c #E5BD97",
"C+	c #F4800F",
"D+	c #E17C24",
"E+	c #D1650C",
"F+	c #EE9647",
"G+	c #EC923F",
"H+	c #D56911",
"I+	c #D2670F",
"J+	c #F5A85D",
"K+	c #F6800D",
"L+	c #EF8F31",
"M+	c #E3B78B",
"N+	c #DFC8B2",
"O+	c #DCD6D1",
"P+	c #DECAB6",
"Q+	c #E4B990",
"R+	c #EE953E",
"S+	c #F78D27",
"T+	c #F39F50",
"U+	c #B55100",
"V+	c #DF812F",
"W+	c #F68619",
"X+	c #F6871B",
"Y+	c #F8AC62",
"Z+	c #D96E16",
"`+	c #C65900",
" @	c #DB7721",
".@	c #F79535",
"+@	c #F5AB63",
"@@	c #D97420",
"#@	c #C75A00",
"$@	c #A54A00",
"%@	c #D0650C",
"&@	c #F1A157",
"*@	c #F7993D",
"=@	c #F68B22",
"-@	c #F57D08",
";@	c #F68110",
">@	c #F68C24",
",@	c #F79638",
"'@	c #ED9545",
")@	c #CF6006",
"!@	c #A84B00",
"~@	c #6A2F00",
"{@	c #CA5C01",
"]@	c #D7731F",
"^@	c #E68B3A",
"/@	c #F0A057",
"(@	c #F7B372",
"_@	c #FAB674",
":@	c #F6AE69",
"<@	c #EF9E53",
"[@	c #E48C3E",
"}@	c #D6711D",
"|@	c #C95A00",
"1@	c #783500",
"2@	c #9F4700",
"3@	c #BE5600",
"4@	c #CC5C01",
"5@	c #CB5B00",
"6@	c #BD5500",
"7@	c #A04800",
"                                                                ",
"                                                                ",
"                              . + @                             ",
"                              # $ % & *                         ",
"                              = - ; > , @                       ",
"                                ' ) ! ~ { '                     ",
"                                  . ] ^ / ( _                   ",
"          @ * : : : : : : : : : : < < [ } | 1 2 @               ",
"        3 4 5 6 7 8 9 0 a b | c d e e d f g h c i j             ",
"        * k l m n o p q r ~ s t u v v w x y z A B C D           ",
"        @ E F G H w I J K L M N K O g P Q R v z S / } T         ",
"          . * < < < < < U V W X Y Z `  . . ...+.@.#.$.%.&.      ",
"                    @ *.=.-.@.;.>.,. .'.).!. . .~.L {.].^.*     ",
"                  /.(._./ t :.<.[.}.|.1.2.3.4.5.6.7.8.9.0.a.    ",
"              . b.c.d.e.~ f.g.h.h.i.j.3.k.l.m.n.o.p.q.r.s.t.3   ",
"            . u.v.s w.x.y.! z.A.B.C.D.E.F.m.m.m.G.H.I.r.J.K.+   ",
"          L.M.0 y.N.O.w.q y.P.H.Q.R.S.m.m.m.m.m.T.U.V.r.r.W.X.  ",
"      @ Y.Z.`. +.+++@+K {.#+$+U.%+&+m.m.m.m.m.*+=+=+-+r.r.;+>+  ",
"    ,+'+)+!+~+{+]+< ^+g /+;+(+_+:+<+[+m.m.m.}+|+1+2+3+r.4+5+6+  ",
"  7+8+/+9+0+a+.     + b+c+d+e+f+g+h+h+i+j+k+l+m+m+n+9.r.o+p+*   ",
"  q+#.r+1 s+@       @ t+u+9.r.v+w+x+y+y+z+z+z+A+B+C+r.9.p D+.   ",
"  E+F+G+H+.           I+J+K+r.r.r.L+M+N+O+P+Q+R+r.r.r.S+T+*     ",
"    3 3               U+V+~ W+r.r.r.r.r.r.r.r.r.r.r.X+Y+Z+      ",
"                        `+ @^ .@r.r.r.r.r.r.r.r.e+l +@@@#@      ",
"                          $@%@&@~ *@=@-@9.;@>@,@/ '@)@!@        ",
"                            ~@{@]@^@/@(@_@:@<@[@}@|@            ",
"                                1@2@3@4@)@5@6@7@                ",
"                                                                ",
"                                                                ",
"                                                                ",
"                                                                ",
"                                                                "};
