/* XPM */
static char * blender_16x16_xpm[] = {
"16 16 103 2",
"  	c None",
". 	c #D26913",
"+ 	c #D16812",
"@ 	c #ED9F58",
"# 	c #D47220",
"$ 	c #D0650E",
"% 	c #EB903E",
"& 	c #F6AB63",
"* 	c #D57322",
"= 	c #D0640B",
"- 	c #D16915",
"; 	c #D25F00",
"> 	c #F4A861",
", 	c #F5AF6C",
"' 	c #D0660F",
") 	c #D1660F",
"! 	c #F8AF68",
"~ 	c #F8B06B",
"{ 	c #F9B26D",
"] 	c #F9B370",
"^ 	c #F6AF6B",
"/ 	c #F9B573",
"( 	c #F9B572",
"_ 	c #F9B675",
": 	c #F8B068",
"< 	c #F2A862",
"[ 	c #CE5F05",
"} 	c #DB6E11",
"| 	c #D56F19",
"1 	c #D06710",
"2 	c #E48E44",
"3 	c #F7B473",
"4 	c #FBC28B",
"5 	c #FDE7D1",
"6 	c #FFFFFF",
"7 	c #FEFCFB",
"8 	c #FDEBD8",
"9 	c #F8AB5F",
"0 	c #ED9A4E",
"a 	c #CE5E04",
"b 	c #D0640D",
"c 	c #F7B371",
"d 	c #FDE7D2",
"e 	c #B3C5DD",
"f 	c #3465A4",
"g 	c #4B77AE",
"h 	c #FEF4EA",
"i 	c #F6912E",
"j 	c #E37D23",
"k 	c #CE5C00",
"l 	c #F6B16D",
"m 	c #FABC7F",
"n 	c #F9AA5E",
"o 	c #FEFDFB",
"p 	c #FDFDFE",
"q 	c #F5A04D",
"r 	c #F48A23",
"s 	c #D16710",
"t 	c #F8B16C",
"u 	c #EEA058",
"v 	c #EFA15C",
"w 	c #F8A452",
"x 	c #FDFDFD",
"y 	c #F2A55B",
"z 	c #F68A20",
"A 	c #CE5D02",
"B 	c #D26811",
"C 	c #EB964C",
"D 	c #F89B41",
"E 	c #F7DDC5",
"F 	c #F4F0EC",
"G 	c #F48416",
"H 	c #F58F2B",
"I 	c #D0650D",
"J 	c #F7AD66",
"K 	c #CA5C03",
"L 	c #D76F18",
"M 	c #F68E29",
"N 	c #F57A01",
"O 	c #F5D9BD",
"P 	c #FCFBFB",
"Q 	c #F2E4D7",
"R 	c #F18C29",
"S 	c #F57D07",
"T 	c #E4812A",
"U 	c #CE5E03",
"V 	c #CF6814",
"W 	c #DC7F2E",
"X 	c #F68B23",
"Y 	c #F57900",
"Z 	c #F57E0A",
"` 	c #EC8F3A",
" .	c #CE6C1A",
"..	c #EC913C",
"+.	c #F7983B",
"@.	c #F79739",
"#.	c #F2943B",
"$.	c #DB7C29",
"%.	c #CC5D02",
"&.	c #C85A02",
"*.	c #CD5C02",
"=.	c #CA5B02",
"-.	c #BF5703",
"                . +             ",
"                . @ #           ",
"                $ % & *         ",
"      = = = = - = ; > , '       ",
"    ) ! ~ { ] ^ / ( _ : < [     ",
"    } | 1 2 3 4 5 6 7 8 9 0 a   ",
"        b c / d e f g e h i j k ",
"      $ l m n o g f f g p q r k ",
"    s t u v w 7 g f f g x y z A ",
"  B ! + k C D E e f g e F G H A ",
"I J s   K L M N O 6 P Q R S T U ",
"V b       A W X Y Y Y Y Z ` A   ",
"            A  ...+.@.#.$.%.    ",
"              a &.A *.=.-.      ",
"                                ",
"                                "};
