/* XPM */
static char * banshee_xpm[] = {
"32 32 247 2",
"  	c None",
". 	c #3465A4",
"+ 	c #3B6BA8",
"@ 	c #4070AC",
"# 	c #3566A5",
"$ 	c #4676B0",
"% 	c #5E8CC1",
"& 	c #6D9ACC",
"* 	c #729FCF",
"= 	c #3868A6",
"- 	c #396AA7",
"; 	c #608EC3",
"> 	c #3869A7",
", 	c #6593C6",
"' 	c #6694C7",
") 	c #5887BD",
"! 	c #5E8DC1",
"~ 	c #3768A6",
"{ 	c #6391C4",
"] 	c #6997C9",
"^ 	c #4877B2",
"/ 	c #4978B2",
"( 	c #3667A5",
"_ 	c #5382B9",
": 	c #4C7CB5",
"< 	c #4878B2",
"[ 	c #74A0CF",
"} 	c #4A79B3",
"| 	c #74A0D0",
"1 	c #77A2D1",
"2 	c #4C7BB3",
"3 	c #75A1D0",
"4 	c #7AA5D2",
"5 	c #3A6AA7",
"6 	c #4E7CB4",
"7 	c #7EA7D3",
"8 	c #5379AB",
"9 	c #CDCDCD",
"0 	c #DADADA",
"a 	c #DEDEDE",
"b 	c #DBDBDB",
"c 	c #D2D2D2",
"d 	c #BABABA",
"e 	c #A1A1A1",
"f 	c #507DB5",
"g 	c #79A3D1",
"h 	c #80A9D4",
"i 	c #6087B8",
"j 	c #FBFBFB",
"k 	c #F5F5F5",
"l 	c #F3F3F3",
"m 	c #F4F4F4",
"n 	c #F8F8F8",
"o 	c #F9F9F9",
"p 	c #D3D3D3",
"q 	c #A8A8A8",
"r 	c #A3A7AC",
"s 	c #527FB5",
"t 	c #84ABD5",
"u 	c #6187B8",
"v 	c #F2F2F2",
"w 	c #F1F1F1",
"x 	c #F0F0F0",
"y 	c #F6F6F6",
"z 	c #BCBCBC",
"A 	c #B5B5B5",
"B 	c #EAEDF2",
"C 	c #5480B6",
"D 	c #7CA6D2",
"E 	c #87ADD6",
"F 	c #6188B9",
"G 	c #EFEFEF",
"H 	c #C5C5C5",
"I 	c #ABABAB",
"J 	c #E6E9EE",
"K 	c #5681B7",
"L 	c #8AB0D7",
"M 	c #6288B9",
"N 	c #FCFCFC",
"O 	c #F7F7F7",
"P 	c #EDEDED",
"Q 	c #BBBBBB",
"R 	c #9E9E9E",
"S 	c #E1E1E1",
"T 	c #E5E9ED",
"U 	c #5883B8",
"V 	c #7FA8D4",
"W 	c #8DB2D8",
"X 	c #FDFDFD",
"Y 	c #EBEEF3",
"Z 	c #BCCBDF",
"` 	c #9EB5D2",
" .	c #83A0C5",
"..	c #7E9CC3",
"+.	c #85A1C5",
"@.	c #ACBED5",
"#.	c #E3E7EB",
"$.	c #EEEEEE",
"%.	c #A3A3A3",
"&.	c #B4B4B4",
"*.	c #FAFAFA",
"=.	c #5984B8",
"-.	c #81AAD4",
";.	c #90B4D9",
">.	c #4975AE",
",.	c #5681B6",
"'.	c #6F96C4",
").	c #82A5CE",
"!.	c #92B2D6",
"~.	c #95B5D8",
"{.	c #799EC9",
"].	c #557FB3",
"^.	c #C2CEDD",
"/.	c #ECECEC",
"(.	c #CACACA",
"_.	c #D5D5D5",
":.	c #E6EAEE",
"<.	c #5B85B9",
"[.	c #83ABD5",
"}.	c #94B6DA",
"|.	c #8CAED4",
"1.	c #9FBDDD",
"2.	c #8BADD3",
"3.	c #799ECA",
"4.	c #7197C4",
"5.	c #789DC8",
"6.	c #8CB1D8",
"7.	c #81A9D4",
"8.	c #5780B4",
"9.	c #EAECEE",
"0.	c #EBEBEB",
"a.	c #5D87BA",
"b.	c #85ACD6",
"c.	c #97B9DC",
"d.	c #628BBC",
"e.	c #6087B9",
"f.	c #90ABCD",
"g.	c #B0C3DB",
"h.	c #C6D4E5",
"i.	c #B9CADF",
"j.	c #6B8FBD",
"k.	c #89AAD0",
"l.	c #82AAD4",
"m.	c #85ACD5",
"n.	c #799CC7",
"o.	c #C1CFE1",
"p.	c #EAEAEA",
"q.	c #A4A4A4",
"r.	c #5F88BA",
"s.	c #9BBBDD",
"t.	c #6489BA",
"u.	c #FEFEFE",
"v.	c #E4E8EE",
"w.	c #7BA5D2",
"x.	c #88A8CF",
"y.	c #AFC2DB",
"z.	c #B2B2B2",
"A.	c #6189BB",
"B.	c #89AED7",
"C.	c #9DBDDE",
"D.	c #658ABA",
"E.	c #AEC0D7",
"F.	c #7B9DC8",
"G.	c #89AFD7",
"H.	c #7499C5",
"I.	c #C8D5E6",
"J.	c #E5E8EC",
"K.	c #628ABB",
"L.	c #8BB0D7",
"M.	c #A1BFDF",
"N.	c #DCE3EB",
"O.	c #8BA6C8",
"P.	c #638ABB",
"Q.	c #A2BFDF",
"R.	c #A3BFDE",
"S.	c #5D84B7",
"T.	c #F9FAFA",
"U.	c #E9E9E9",
"V.	c #A9A9A9",
"W.	c #E0E0E0",
"X.	c #648BBC",
"Y.	c #A1BFE0",
"Z.	c #507BB1",
"`.	c #8BA7CA",
" +	c #7696C0",
".+	c #5E85B7",
"++	c #638BBC",
"@+	c #94B2D5",
"#+	c #9CBCDD",
"$+	c #93B5DA",
"%+	c #9FBCDC",
"&+	c #5781B5",
"*+	c #D9E2EE",
"=+	c #E8E8E8",
"-+	c #C0C0C0",
";+	c #E2E5E9",
">+	c #A4C1E1",
",+	c #9AB7D8",
"'+	c #9EBBDB",
")+	c #AEC7E2",
"!+	c #B3CBE5",
"~+	c #AFC9E4",
"{+	c #A7C3E1",
"]+	c #9EBADB",
"^+	c #6D93C1",
"/+	c #678CBB",
"(+	c #E0E7F1",
"_+	c #D7D7D7",
":+	c #A2A2A2",
"<+	c #E1E4E8",
"[+	c #4F7AB1",
"}+	c #82A3CB",
"|+	c #87A7CE",
"1+	c #8BAAD0",
"2+	c #87A8CE",
"3+	c #80A2CB",
"4+	c #7599C6",
"5+	c #5E87BA",
"6+	c #5982B6",
"7+	c #7D9CC5",
"8+	c #CCD8E8",
"9+	c #F9F9FA",
"0+	c #E7E7E7",
"a+	c #ADADAD",
"b+	c #E9EAEA",
"c+	c #C7D2DF",
"d+	c #C4D2E3",
"e+	c #BACADF",
"f+	c #B4C6DD",
"g+	c #BFCEE2",
"h+	c #CBD7E7",
"i+	c #E7ECF3",
"j+	c #949494",
"k+	c #CECECE",
"l+	c #E2E2E2",
"m+	c #9A9A9A",
"n+	c #CBCBCB",
"o+	c #DCDCDC",
"p+	c #C2C2C2",
"q+	c #929292",
"r+	c #B7B7B7",
"s+	c #D6D6D6",
"t+	c #BFBFBF",
"u+	c #999999",
"v+	c #939393",
"w+	c #969696",
"x+	c #979797",
"                    . + @ #                                     ",
"              . $ % & * * =                                     ",
"            - ; * * * * * =                                     ",
"          > , * ' ) ! * * =                                     ",
"        ~ { ] ^ .   / * * =                                     ",
"      ( _ : (       < * * =                                     ",
"    . . .           < * [ =                                     ",
"                    } | 1 >                                     ",
"                    2 3 4 5                                     ",
"                    6 1 7 8 9 0 a b c d e                       ",
"                    f g h i j k l m k n o p q                   ",
"                  r s 4 t u j m m l v w x m y z                 ",
"                A B C D E F j y y k m l w x G o H               ",
"              I y J K 7 L M N n n O k m v w G P o Q             ",
"            R S k T U V W M X Y Z `  ...+.@.#.$.P v %.          ",
"            &.*.v J =.-.;.>.u ,.'.).!.~.!.{.].^./.m (.          ",
"            _.k v :.<.[.}.|.1.2.3.4.5.~.6.7.1.8.9./.0.R         ",
"          R G x v :.a.b.c.d.e.f.g.h.i.j.k.l.m.n.o.p.o q.        ",
"          R n x w J r.E s.t.u.j *.n O v.r.;.w.x.y.0.O z.        ",
"          R o G w T A.B.C.D.N n n O k E.F.t G.H.I.0.y A         ",
"          R l $.x J.K.L.M.D.j y y N.O.P.Q.D R.S.T.U.n V.        ",
"            W.x $.#.X.6.Y.Z.`. +.+++@+#+$+%+&+*+x =+m R         ",
"            -+y P ;+++$+>+,+'+)+!+~+{+]+^+/+(+l =+$._+          ",
"            :+w P <+[+}+|+1+2+3+4+5+6+7+8+9+$.U.0+n a+          ",
"              z n b+c+d+e+g.f+g+h+i+n m $.p.U.0+v c             ",
"              j+k+y p.0.0././././.0.0.p.U.=+0+x l+m+            ",
"                j+n+n /.U.p.p.p.p.U.U.=+0+=+m o+R               ",
"                    &.U.y $.=+=+=+0+0+0.v w p+q+                ",
"                      j+r+s+G O n O l o+t+u+                    ",
"                            v+w+m+x+j+                          ",
"                                                                ",
"                                                                "};
