/* XPM */
static char * evolution_xpm[] = {
"24 24 171 2",
"  	c None",
". 	c #888A85",
"+ 	c #ABACA9",
"@ 	c #FFFFFF",
"# 	c #EDEDED",
"$ 	c #EBEBEB",
"% 	c #E9E9E9",
"& 	c #E8E8E8",
"* 	c #E6E6E6",
"= 	c #E4E4E4",
"- 	c #E2E2E2",
"; 	c #E1E1E1",
"> 	c #E0E0E0",
", 	c #DDDDDD",
"' 	c #DBDBDB",
") 	c #DADADA",
"! 	c #E7E7E7",
"~ 	c #DEDEDE",
"{ 	c #DCDCDC",
"] 	c #D9D9D9",
"^ 	c #D7D7D7",
"/ 	c #D5D5D5",
"( 	c #E5E5E5",
"_ 	c #E3E3E3",
": 	c #D8D8D8",
"< 	c #D3D3D3",
"[ 	c #B0B1AF",
"} 	c #A6A7A5",
"| 	c #D2D2D2",
"1 	c #C9CAC9",
"2 	c #B8B9B7",
"3 	c #B2B2B1",
"4 	c #C0C1BF",
"5 	c #D0D0CF",
"6 	c #FAFAFA",
"7 	c #F5F5F5",
"8 	c #B0B0AF",
"9 	c #ACADAA",
"0 	c #CDCECC",
"a 	c #C5C5C4",
"b 	c #C0C0BF",
"c 	c #B4B4B3",
"d 	c #BBBBBA",
"e 	c #CBCBCA",
"f 	c #F7F7F7",
"g 	c #FDFDFD",
"h 	c #FBFBFB",
"i 	c #F8F8F8",
"j 	c #C8C8C8",
"k 	c #C7C7C6",
"l 	c #E2E4E2",
"m 	c #F4F4F4",
"n 	c #FCFCFC",
"o 	c #F6F6F6",
"p 	c #F0F0F1",
"q 	c #917E9B",
"r 	c #7D6086",
"s 	c #76527C",
"t 	c #7B5D84",
"u 	c #9885A1",
"v 	c #878984",
"w 	c #D8DAD8",
"x 	c #D9DAD9",
"y 	c #F3F3F3",
"z 	c #F2F2F2",
"A 	c #C4BDC9",
"B 	c #7D5F86",
"C 	c #B090B1",
"D 	c #D6B9D3",
"E 	c #DCC0D9",
"F 	c #75577E",
"G 	c #F1F1F1",
"H 	c #B7B9B6",
"I 	c #E0E0DF",
"J 	c #F0F0F0",
"K 	c #EFEFEF",
"L 	c #EEEEEE",
"M 	c #E3E3E5",
"N 	c #7C5F86",
"O 	c #C7AAC6",
"P 	c #CFBDD0",
"Q 	c #D2CFD0",
"R 	c #D3D2D1",
"S 	c #E5E5E4",
"T 	c #DBD8DA",
"U 	c #CDBACD",
"V 	c #75557E",
"W 	c #E8E9E8",
"X 	c #ABAEAA",
"Y 	c #D1D2D0",
"Z 	c #C8C9C7",
"` 	c #82708E",
" .	c #D0BDD0",
"..	c #F2F2F0",
"+.	c #9E9E9D",
"@.	c #F1F1EF",
"#.	c #F4F4F2",
"$.	c #EFEFED",
"%.	c #E7E7E5",
"&.	c #CEBBCF",
"*.	c #6F567B",
"=.	c #DDDEDD",
"-.	c #A9AAA7",
";.	c #795B82",
">.	c #EAE7E8",
",.	c #F5F5F3",
"'.	c #EDEDEB",
").	c #A9A9A8",
"!.	c #F6F6F4",
"~.	c #F0F0EE",
"{.	c #EAEAE8",
"].	c #DDDADC",
"^.	c #75567E",
"/.	c #ECECEC",
"(.	c #C4C6C3",
"_.	c #A9ACA8",
":.	c #DCDBDF",
"<.	c #75527C",
"[.	c #D3D2D2",
"}.	c #F3F3F1",
"|.	c #F7F7F5",
"1.	c #868686",
"2.	c #B7B7B6",
"3.	c #E2E2E0",
"4.	c #C1C1C0",
"5.	c #75517B",
"6.	c #C0C2BF",
"7.	c #CCCECB",
"8.	c #D3D2D6",
"9.	c #DAD9D8",
"0.	c #E6E6E4",
"a.	c #787878",
"b.	c #C2C2C1",
"c.	c #EBEBE9",
"d.	c #E4E4E2",
"e.	c #CCCBCA",
"f.	c #EAEAEA",
"g.	c #C5C7C4",
"h.	c #785A81",
"i.	c #E2DFE0",
"j.	c #6D6D6C",
"k.	c #D2D2D0",
"l.	c #E3E3E1",
"m.	c #DDDBDE",
"n.	c #74557D",
"o.	c #E5E6E5",
"p.	c #826F8D",
"q.	c #D1BED0",
"r.	c #DADAD8",
"s.	c #DEDEDC",
"t.	c #CFBCD0",
"u.	c #6E557A",
"v.	c #F4F3F5",
"w.	c #D1BED1",
"x.	c #DCD9DA",
"y.	c #B3B3B1",
"z.	c #D1D0CF",
"A.	c #DCD9DB",
"B.	c #CEBBCE",
"C.	c #73547C",
"D.	c #838580",
"E.	c #858782",
"F.	c #746F77",
"G.	c #74567D",
"H.	c #73547B",
"I.	c #604A6B",
"J.	c #72537B",
"K.	c #74517B",
"L.	c #74507B",
"M.	c #715279",
"N.	c #5E4667",
"                                                ",
"                  . . . . .                     ",
"                + @ @ @ @ @ .                   ",
"              . @ # # $ % & @ .                 ",
"            . @ # $ % * = - ; @ .               ",
"          . @ $ % * = - > , ' ) @ .             ",
"        . @ % ! = - > ~ { ] ^ / / @ .           ",
"      . @ ! ( _ ; ~ { ) : / < [ } | @ .         ",
"    . @ 1 _ ; ~ { ) : 2 3 4 5 6 7 8 9 @ .       ",
"    . @ 0 a { b c d e f g h i i i j k @ .       ",
"    . @ l b a m n h i o o p q r s s t u v       ",
"    . @ 7 w x o 7 m y z A B C D E E D C F       ",
"    . @ y G H I J K L M N O P Q R S T U O V     ",
"    . @ G G W X Y Z Z ` C  ...+.@.#.$.%.&.C *.  ",
"    . @ K K L =.-.. v ;.D >.,.'.).!.~.{.].D ^.  ",
"    . @ # # /.(._.o :.<.E [.}.|.1.2.$.3.4.E 5.  ",
"    . @ $ $ 6.7.y & 8.<.E 9.$.0.a.b.c.d.e.E 5.  ",
"    . @ f.g.m /.! * ( h.D i.{.j.k.{.%.l.m.D n.  ",
"    . @ o.m ! * * ( ( p.C q.l.r.s.d.3.s.t.C u.  ",
"    . @ @ @ @ @ @ @ @ v.h.O w.x.y.z.A.B.O C.    ",
"    D.. . . . . . . . E.F.G.C D E E D C H.      ",
"                            I.J.K.L.M.N.        ",
"                                                ",
"                                                "};
