/* XPM */
static char *digikam[] = {
/* columns rows colors chars-per-pixel */
"32 32 219 2",
"   c black",
".  c #020202",
"X  c gray1",
"o  c gray2",
"O  c #070707",
"+  c gray3",
"@  c #090909",
"#  c gray4",
"$  c #0B0B0B",
"%  c gray6",
"&  c #101010",
"*  c gray7",
"=  c #131313",
"-  c gray8",
";  c #151515",
":  c #161616",
">  c gray9",
",  c #181818",
"<  c gray10",
"1  c #1B1B1B",
"2  c gray11",
"3  c #1E1E1E",
"4  c gray12",
"5  c #202020",
"6  c gray13",
"7  c #222222",
"8  c gray14",
"9  c #252525",
"0  c gray15",
"q  c #282828",
"w  c #2A2A2A",
"e  c gray17",
"r  c #2C2C2C",
"t  c #2D2D2D",
"y  c gray18",
"u  c #2F2F2F",
"i  c gray19",
"p  c #323232",
"a  c #343434",
"s  c #353535",
"d  c gray21",
"f  c #373737",
"g  c gray22",
"h  c #3A3A3A",
"j  c gray23",
"k  c #3C3C3C",
"l  c gray24",
"z  c #3F3F3F",
"x  c #414141",
"c  c #434343",
"v  c #444444",
"b  c gray27",
"n  c #464646",
"m  c #484848",
"M  c #494949",
"N  c gray29",
"B  c #4B4B4B",
"V  c #4C4C4C",
"C  c gray30",
"Z  c gray31",
"A  c #505050",
"S  c #515151",
"D  c gray32",
"F  c #535353",
"G  c gray33",
"H  c #555555",
"J  c #565656",
"K  c gray34",
"L  c #585858",
"P  c gray35",
"I  c #5A5A5A",
"U  c gray36",
"Y  c #5D5D5D",
"T  c gray37",
"R  c #5F5F5F",
"E  c #606060",
"W  c gray38",
"Q  c gray39",
"!  c #656565",
"~  c gray40",
"^  c #676767",
"/  c DimGray",
"(  c #6A6A6A",
")  c gray42",
"_  c #6D6D6D",
"`  c gray43",
"'  c #6F6F6F",
"]  c gray44",
"[  c #727272",
"{  c gray45",
"}  c #747474",
"|  c gray46",
" . c #767676",
".. c #777777",
"X. c gray47",
"o. c #797979",
"O. c gray48",
"+. c #7B7B7B",
"@. c #7C7C7C",
"#. c #7E7E7E",
"$. c #818181",
"%. c gray51",
"&. c #838383",
"*. c #848484",
"=. c gray52",
"-. c #868686",
";. c gray53",
":. c #888888",
">. c gray54",
",. c #8B8B8B",
"<. c gray55",
"1. c #8D8D8D",
"2. c #8E8E8E",
"3. c gray56",
"4. c #909090",
"5. c gray57",
"6. c #929292",
"7. c #939393",
"8. c gray58",
"9. c #959595",
"0. c gray59",
"q. c #979797",
"w. c #989898",
"e. c gray60",
"r. c #9A9A9A",
"t. c #9B9B9B",
"y. c gray61",
"u. c #9D9D9D",
"i. c gray62",
"p. c #9F9F9F",
"a. c #A0A0A0",
"s. c gray63",
"d. c #A2A2A2",
"f. c gray64",
"g. c #A4A4A4",
"h. c #A5A5A5",
"j. c gray65",
"k. c #A7A7A7",
"l. c gray66",
"z. c #A9A9A9",
"x. c #AAAAAA",
"c. c gray67",
"v. c #ACACAC",
"b. c gray68",
"n. c #AEAEAE",
"m. c #AFAFAF",
"M. c gray69",
"N. c #B1B1B1",
"B. c #B2B2B2",
"V. c gray70",
"C. c #B4B4B4",
"Z. c #B7B7B7",
"A. c gray72",
"S. c #B9B9B9",
"D. c gray73",
"F. c #BBBBBB",
"G. c #BCBCBC",
"H. c gray74",
"J. c gray",
"K. c gray75",
"L. c #C0C0C0",
"P. c #C1C1C1",
"I. c gray76",
"U. c #C3C3C3",
"Y. c gray77",
"T. c #C5C5C5",
"R. c #C6C6C6",
"E. c gray78",
"W. c #C8C8C8",
"Q. c gray80",
"!. c #CDCDCD",
"~. c #CECECE",
"^. c gray81",
"/. c #D0D0D0",
"(. c gray82",
"). c #D2D2D2",
"_. c LightGray",
"`. c gray83",
"'. c #D5D5D5",
"]. c gray84",
"[. c #D7D7D7",
"{. c #D8D8D8",
"}. c gray85",
"|. c #DADADA",
" X c gray86",
".X c gainsboro",
"XX c #DDDDDD",
"oX c gray87",
"OX c #DFDFDF",
"+X c gray88",
"@X c #E1E1E1",
"#X c #E2E2E2",
"$X c gray89",
"%X c #E4E4E4",
"&X c gray90",
"*X c #E6E6E6",
"=X c #E7E7E7",
"-X c gray91",
";X c #E9E9E9",
":X c #EAEAEA",
">X c gray92",
",X c #ECECEC",
"<X c gray93",
"1X c gray94",
"2X c #F1F1F1",
"3X c gray95",
"4X c #F3F3F3",
"5X c #F4F4F4",
"6X c gray96",
"7X c #F6F6F6",
"8X c #F8F8F8",
"9X c #F9F9F9",
"0X c gray98",
"qX c #FBFBFB",
"wX c gray99",
"eX c #FDFDFD",
"rX c #FEFEFE",
"tX c gray100",
"yX c None",
/* pixels */
"yXyXyXyXyXyXyXyXyXyX*.T n z j f j M W yXyXyXyXyXyXyXyXyXyXyXyXyX",
"yXyXyXyXyXyXyXyX*.G x W &.g.T.V.2.( V f V yXyXyXyXyXyXyXyXyXyXyX",
"yXyXyXyXyXyXyX*.V ( I.T.T.W.W.W.W.T.T.2.z j yXyXyXyXyXyXyXyXyXyX",
"yXyXyXyXyXyX6.W k.v.V.d.6.k.v.v.k.&.6.k.k.M f V yXyXyXyXyXyXyXyX",
"yXyXyXyXyXd...e.0.e.D.@X,X6.#.*.#.:XT.[ 2.2.y p yXyXyXyXyXyXyXyX",
"yXyXyXyXv.e.0.6.#.T.tXtXtXtXe.G tXtXtX}.~ [ ( 4 y yXyXyXyXyXyXyX",
"yXyXyXyXv.>.6.' e.7XtX:X@XtXtXd.tX,XG.tXX.G G 5 0 yXyXyXyXyXyXyX",
"yXyXyXD.v.&...V W.tXv.4 1 >.tXk._.4 # I V.j z 0 O 0 yXyXyXyXyXyX",
"yXyXv.I.d...A e oXtXG I 0.j tXg.( X...4 :Xe 4 1   1 > yXyXyXyXyX",
"yXyXD.T.6.T p 5 ,XtX[     A tXg.u.    f tXe O     O 4 yXyXyXyXyX",
"yXyXT.G.*.V > 0 7XtX1X~ T @XtXk.tX..V I.tXp         4 yXyXyXyXyX",
"yXyXW.v...z O # :XtXtXtXtXtXtXg.tXtXtXtXtX0         >   yXyXyXyX",
"> A 6.&.T j 1 1 g.I.I.I.I.I.I.>.I.I.T.T.D.5 > = = = f /.T.v.yXyX",
"j g.:X:X:X:X:X:X:X:X:X*X:X*X*X*X*X*X*X*X*X*X*X*X*X1X}.d...( W yX",
"' v.tXtXW.v.v.V.D.G.:XtXtXtXtXtX7XtXtXtXtX7XtXtXtX/.0.~ f # y   ",
"0.k.7X7X*.I.g.}.1XT./.7X1X7X1X7X7X7X7X1X7X7X1X1X@X>.I e     5   ",
"u.d.*X*Xe.:X7XtX7X@XoX@X*X@X@X@X@X@X@X@XoX@X@X@XV.V 4     5 1   ",
"u.0././.v.T.:X*X:XtX@X!.!._.@X*X@X@X_.!.!.!.W.!.v.y O y n X.x   ",
"e.2.G.G.G.G.G.G.G.G.G.G.oX:X*.V n G &._.G.D.D.D.V.*.' *.2.e.T   ",
"e.&.v.v.k.k.k.k.k.k.g.oX@Xf 4 = % # > G d.k.g.g.k.k.u.u.g.k.[   ",
"e.>.V.v.V.v.V.V.V.V.!.@Xj > 4 y f y 1   ~ e.V.V.V.V.V.V.V.V.&.  ",
"e.e.d.u.d.u.e.e.e.e._.D.0 5 n g.>.T M 1 O 0.d.k.g.k.k.v.v.v.g.O ",
"e.V.7X7X7X7X7X7X7X7X:X~ > e G v.g.*...z   2.V.1X1X1X1X1X1X1XI.O ",
"e.G.}.}.}.}.}.}.}.oX@X2.0 p A ..0.d.e.T   d.6.oXoXoX}.oXoX}./.O ",
"0.W.1X1X1X1X1X7X7X1X:XG.M 5 x ~ >.g.V.  M 0.D.7X7X7X7X7X7X7XoX  ",
"0.d.}._._.}._._._._.}.T.2.n 4 j G (   j v.G g._._./._._._._.g.O ",
"0.e._._.}._.}.}.}.}.}.T.k.u...~ I ' 2.k.M 2.I.}.}.}.}.}.}.}.e.O ",
"0.u.@XoXoXoXoX@XoX@XoXoXI.2.>.2.0.[ G W 6.g.@X@X@X@XoX@X@XoXu.O ",
"0.e.}.}.}.}.}.}.}.}.}.oX}./.g.#.' X.2.2.k._.}.}.}.}._.}.}.}.0.O ",
"0.#.*.>.*.>.*.>.>.>.>.*.>.*.>.>.&.&.*.*.>.>.2.>.>.>.2.2.>.>...= ",
"x G G A G A A G A G A A A A G A A A A A A A A A A A A A V n 1   ",
"                                                                "
};
