/* XPM */
static char *digikam-16[] = {
/* columns rows colors chars-per-pixel */
"16 16 134 2",
"   c black",
".  c gray1",
"X  c #090909",
"o  c #151515",
"O  c #161616",
"+  c gray9",
"@  c #191919",
"#  c gray10",
"$  c gray11",
"%  c #202020",
"&  c gray13",
"*  c #252525",
"=  c #282828",
"-  c gray16",
";  c gray17",
":  c #2C2C2C",
">  c gray18",
",  c #2F2F2F",
"<  c #313131",
"1  c #343434",
"2  c #353535",
"3  c gray25",
"4  c #414141",
"5  c gray26",
"6  c #444444",
"7  c gray27",
"8  c gray28",
"9  c gray29",
"0  c gray31",
"q  c gray33",
"w  c gray34",
"e  c gray35",
"r  c gray36",
"t  c gray37",
"y  c #646464",
"u  c #656565",
"i  c #686868",
"p  c DimGray",
"a  c #6A6A6A",
"s  c gray42",
"d  c #6C6C6C",
"f  c #6F6F6F",
"g  c #717171",
"h  c #727272",
"j  c gray45",
"k  c gray46",
"l  c #767676",
"z  c #777777",
"x  c gray47",
"c  c #7B7B7B",
"v  c gray49",
"b  c #7E7E7E",
"n  c gray50",
"m  c #808080",
"M  c gray51",
"N  c #838383",
"B  c gray53",
"V  c #898989",
"C  c gray54",
"Z  c #8B8B8B",
"A  c gray56",
"S  c gray57",
"D  c #939393",
"F  c #979797",
"G  c #989898",
"H  c #9B9B9B",
"J  c gray61",
"K  c gray62",
"L  c #A0A0A0",
"P  c gray63",
"I  c #A2A2A2",
"U  c #A4A4A4",
"Y  c #A5A5A5",
"T  c gray65",
"R  c #A7A7A7",
"E  c gray66",
"W  c #A9A9A9",
"Q  c #AAAAAA",
"!  c gray67",
"~  c #ACACAC",
"^  c gray68",
"/  c #AEAEAE",
"(  c #AFAFAF",
")  c gray69",
"_  c #B2B2B2",
"`  c #B4B4B4",
"'  c #B6B6B6",
"]  c #B7B7B7",
"[  c gray72",
"{  c #B9B9B9",
"}  c #BBBBBB",
"|  c gray",
" . c gray75",
".. c #C3C3C0",
"X. c #C3C3C3",
"o. c gray77",
"O. c #C5C5C5",
"+. c #C6C6C6",
"@. c gray78",
"#. c #C8C8C8",
"$. c gray79",
"%. c #CBCBCB",
"&. c gray80",
"*. c #CDCDCD",
"=. c #CECECE",
"-. c gray81",
";. c gray82",
":. c #D2D2D2",
">. c LightGray",
",. c gray83",
"<. c #D5D5D5",
"1. c gray84",
"2. c #D8D8D8",
"3. c gray85",
"4. c #DADADA",
"5. c gray86",
"6. c gainsboro",
"7. c #DDDDDD",
"8. c gray87",
"9. c #DFDFDF",
"0. c gray88",
"q. c #E2E2E2",
"w. c #E4E4E4",
"e. c #EAEAEA",
"r. c #ECECEC",
"t. c gray94",
"y. c #F3F3F3",
"u. c #F4F4F4",
"i. c gray96",
"p. c #F6F6F6",
"a. c #F9F9F9",
"s. c #FBFBFB",
"d. c gray100",
"f. c None",
/* pixels */
"f.f.f.f.n w s g u 4 t f.f.f.f.f.",
"f.f.f.~ I @...@.} ] i < f.f.f.f.",
"f.f.,.| ] ,.w.N ,./ C 3 - f.f.f.",
"f.@.4.~ @.@.} %.R n f 4 O f.f.f.",
"f.0.%.z 0.e C ,.0 s x @ X @ f.f.",
"f.0.~ 8 e.e.7.,.,.} n     O f.f.",
"z @.Q N } :.:...:.:.S g x _ ~ s ",
"M a.~ K ] 7.p.p.p.p.y.y.d.K 8 O ",
"n :.c y.} @.-.,.,.%.%.%.K 1 8 @ ",
"z Q Q Q R ` G 6 , u ~ R K C G 0 ",
"n Q I Q I -.= % 2 $ f Q ~ ~ _ x ",
"S 2.4.4.5.` % q I x t ..8.7.7.~ ",
"C @.@.@.@.@.9 8 B ~ M I } ] ] Z ",
"n 7.8.8.8.5.~ M j S B 4.0.8.7.z ",
"z K K U K U K A N Z H U R I I s ",
"2 , , , , , < : : : , - : : * . "
};
