/* XPM */
static char *showfoto-16[] = {
/* columns rows colors chars-per-pixel */
"16 16 173 2",
"   c black",
".  c #020202",
"X  c #252525",
"o  c gray20",
"O  c #2D3744",
"+  c #3F4142",
"@  c gray25",
"#  c #404246",
"$  c #44494E",
"%  c #484848",
"&  c #4E4E4E",
"*  c #4F5153",
"=  c #515151",
"-  c gray32",
";  c #535454",
":  c #565656",
">  c gray34",
",  c #585858",
"<  c gray35",
"1  c #5A5A5A",
"2  c #5D6D7F",
"3  c #626262",
"4  c #646464",
"5  c #656565",
"6  c gray40",
"7  c #676767",
"8  c gray42",
"9  c #6F6F6F",
"0  c #717171",
"q  c #737071",
"w  c #757676",
"e  c gray48",
"r  c #7C7C7C",
"t  c #7E7E7E",
"y  c #5E7085",
"u  c #5771A4",
"i  c #658193",
"p  c #6E99B9",
"a  c #5C8CCA",
"s  c #568BDB",
"d  c #6D9FEF",
"f  c #6BACE4",
"g  c #6FB9FE",
"h  c #75ACF8",
"j  c #77BAEF",
"k  c #75B7F6",
"l  c #73B7F9",
"z  c #72B8FE",
"x  c #72BBFC",
"c  c #7DB7F5",
"v  c #77C3FE",
"b  c #808080",
"n  c #838383",
"m  c #868B8E",
"M  c #878C8F",
"N  c #8A8A8B",
"B  c #80909C",
"V  c #88939A",
"C  c #8F969F",
"Z  c #95938F",
"A  c #929291",
"S  c #929292",
"D  c #939196",
"F  c #939496",
"G  c gray59",
"H  c #979797",
"J  c #989596",
"K  c #9A9A9A",
"L  c gray61",
"P  c #8BA4B2",
"I  c #9EA8B3",
"U  c gray63",
"Y  c #A1A2A2",
"T  c gray64",
"R  c #A4A4A4",
"E  c #A5A5A5",
"W  c gray65",
"Q  c #A7A7A7",
"!  c #A4A6A8",
"~  c #A9A9A9",
"^  c #A8A9AA",
"/  c gray68",
"(  c #AFAFAF",
")  c gray69",
"_  c #B2B2B2",
"`  c #B6B6B6",
"'  c #B6B6B7",
"]  c #B7B7B7",
"[  c #B5B7B9",
"{  c gray72",
"}  c gray73",
"|  c #BBBBBB",
" . c #BEBCBB",
".. c gray74",
"X. c gray",
"o. c #8DBDF2",
"O. c #A4BEE5",
"+. c #86C3FC",
"@. c #89CDFC",
"#. c #92C2F3",
"$. c #ADCCEF",
"%. c #A4CCF4",
"&. c #A3CFFA",
"*. c #A9CDF3",
"=. c #BED0E5",
"-. c #BCD7E4",
";. c #B0D2F4",
":. c #C0C0C0",
">. c #C0C1C1",
",. c #C1C1C1",
"<. c gray76",
"1. c #C3C3C3",
"2. c gray77",
"3. c #C6C6C6",
"4. c gray78",
"5. c #C8C8C8",
"6. c gray79",
"7. c #CACACA",
"8. c #CBCBCB",
"9. c #C9CCCE",
"0. c #CBCDCE",
"q. c gray80",
"w. c #CDCDCD",
"e. c #CECECE",
"r. c gray81",
"t. c #D2D2D2",
"y. c LightGray",
"u. c gray83",
"i. c #D5D5D5",
"p. c #D7D7D7",
"a. c #D7D9DC",
"s. c #D6DADE",
"d. c #D8D8D8",
"f. c gray85",
"g. c gainsboro",
"h. c #DDDEDF",
"j. c #DFDFDF",
"k. c #C3DAF4",
"l. c #C7E5F7",
"z. c #CDE0F3",
"x. c #DCE3E8",
"c. c #DCE4EE",
"v. c #D8E5F4",
"b. c #DCE7F1",
"n. c #DBE9F6",
"m. c gray88",
"M. c #E2E2E2",
"N. c #E4E4E4",
"B. c #E4E5E5",
"V. c gray90",
"C. c #E5E6E7",
"Z. c #E6E6E6",
"A. c #E2E6EB",
"S. c #E7E7E8",
"D. c #E9E9E9",
"F. c gray92",
"G. c #EAECEE",
"H. c #EBEDEE",
"J. c #EBEEEF",
"K. c #ECECEC",
"L. c gray93",
"P. c #EEEFEF",
"I. c #E1E9F2",
"U. c #E3EAF2",
"Y. c #E5EEF6",
"T. c #E9EDF1",
"R. c #EDF0F3",
"E. c #EFF0F0",
"W. c #EEF1F3",
"Q. c #ECF1F6",
"!. c #EDF1F6",
"~. c #F2F3F5",
"^. c None",
/* pixels */
"^.^.D.D.H.M.q.^.^.^.^.^.^.^.^.^.",
"^.^.D.~.W.W.T.H.H.V.r.^.^.^.^.^.",
"^.:.C.n.%.;.z.Y.W.W.H.V.K.P.V.d.",
"^.i.H.l.@.v x k #.*.k.v.U.T.H.h.",
"^.j.H.-.P V M B p f l c o.$.U.p.",
"^.j.h.D J ` U ~ N i k x x +.b.4.",
"~ d.X.q ` { X./ t + u d h &.x.' ",
"X.r.Z & { e _ e 7 X O a s O.a.~ ",
"L | S 8 r.q.t.7./ > * I =.c.8.0 ",
"` 3.:.{ p.V.V.V.M.q.N $ y A.[ o ",
"0.( :.i.d.q.:.` X.X.7 + y s.W ^.",
"[ W { { X.W 9 > 8 R ~ U C 0.K ^.",
"W _ 7.7.3.t 7 9 % G 7.3.~ :.b ^.",
"F [ i.p.t.K : : < W d.i.U K @ ^.",
"w Q :.3.:._ n 8 t _ :.:.S - ^.^.",
"; 3 3 7 7 7 < - < 3 7 7 - ^.^.^."
};
