/* XPM */
static char *showfoto[] = {
/* columns rows colors chars-per-pixel */
"32 32 161 2",
"   c #000000",
".  c #0B0B0B",
"X  c #131313",
"o  c #15191D",
"O  c #1A1A1A",
"+  c #1F262E",
"@  c #232323",
"#  c #2D2D2D",
"$  c #323232",
"%  c #353739",
"&  c #3C3C3C",
"*  c #343351",
"=  c #434343",
"-  c #4A4A4A",
";  c #4A4D53",
":  c #555555",
">  c #5B5B5B",
",  c #515962",
"<  c #626262",
"1  c #616669",
"2  c #6C6C6C",
"3  c #717171",
"4  c #777778",
"5  c #72787B",
"6  c #7A7A7A",
"7  c #3774C6",
"8  c #4C6D91",
"9  c #4B6E9C",
"0  c #5A7C98",
"q  c #4975AA",
"w  c #6A7A80",
"e  c #727C81",
"r  c #7B7ADB",
"t  c #5F89B7",
"y  c #6B8089",
"u  c #77818D",
"i  c #708B99",
"p  c #7D8E95",
"a  c #7692B2",
"s  c #71A3BE",
"d  c #7CA0B0",
"f  c #4283D5",
"g  c #4F82D6",
"h  c #568FD7",
"j  c #4D92E5",
"k  c #579DEC",
"l  c #5CA2EF",
"z  c #5AA4F6",
"x  c #5CA6F9",
"c  c #5FABFC",
"v  c #648DC9",
"b  c #638DE0",
"n  c #6B98ED",
"m  c #7C9FE4",
"M  c #749DF2",
"N  c #7C9AF9",
"B  c #7FB8D2",
"V  c #66A0E2",
"C  c #67A3EA",
"Z  c #68A4EA",
"A  c #6FA8E7",
"S  c #6FABEE",
"D  c #62A9F5",
"F  c #62ADFB",
"G  c #69AFF7",
"H  c #6CAFFA",
"J  c #65B2FE",
"K  c #68B5FF",
"L  c #6DBBFF",
"P  c #76A9E4",
"I  c #76AEFF",
"U  c #7CA9FF",
"Y  c #7EB1EA",
"T  c #78BFE6",
"R  c #75B1F2",
"E  c #71B4FF",
"W  c #72BBFE",
"Q  c #79BCFF",
"!  c #73C3FF",
"~  c #77C8FF",
"^  c #7BCBFE",
"/  c #838384",
"(  c #85898C",
")  c #8C8C8C",
"_  c #858D95",
"`  c #838D9B",
"'  c #8E9091",
"]  c #939393",
"[  c #949698",
"{  c #9A9A9A",
"}  c #8EADBB",
"|  c #A3A3A4",
" . c #A4A6A8",
".. c #ACACAC",
"X. c #ADAFB1",
"o. c #B2B2B2",
"O. c #BBBBBB",
"+. c #8795FE",
"@. c #8DA5CF",
"#. c #91B2DE",
"$. c #82ABFE",
"%. c #8CAEFF",
"&. c #85B7EE",
"*. c #84BCFF",
"=. c #8ABDF7",
"-. c #91B7E3",
";. c #9DBFE6",
":. c #9BBFE8",
">. c #9ABDFD",
",. c #B7BEC6",
"<. c #86C6FF",
"1. c #81D2FF",
"2. c #89D5FE",
"3. c #98C3F3",
"4. c #9ACAFF",
"5. c #94DBFD",
"6. c #9DDFFF",
"7. c #AFC1C7",
"8. c #AACEDE",
"9. c #A2C4EA",
"0. c #ADC8E7",
"q. c #A3CDFC",
"w. c #A9D3EE",
"e. c #A2D6F1",
"r. c #A7D1FF",
"t. c #A9DDF5",
"y. c #B2CEED",
"u. c #B8CDE5",
"i. c #BACFEA",
"p. c #BCD4EE",
"a. c #B2D6FF",
"s. c #B8D4F4",
"d. c #B8DBFE",
"f. c #A4E2FF",
"g. c #B5E2FF",
"h. c #C3C3C3",
"j. c #CBCBCB",
"k. c #D4D4D4",
"l. c #DBDBDB",
"z. c #C2D4E9",
"x. c #C6DAEB",
"c. c #CFDCED",
"v. c #C5DAF1",
"b. c #CBE4FD",
"n. c #DBE2EC",
"m. c #DBE9EF",
"M. c #D6E2F1",
"N. c #D0E3F9",
"B. c #DAE4F4",
"V. c #DDEEFF",
"C. c #E3E3E3",
"Z. c #EBEBEB",
"A. c #E3EBF3",
"S. c #EBEDF1",
"D. c #ECF0F5",
"F. c #EBF3FC",
"G. c #F2F2F2",
"H. c #F3F7FB",
"J. c #F5F8FB",
"K. c #FBFBFB",
"L. c None",
/* pixels */
"L.L.L.L.L.L.L.L.L.L.L.L.L.L.L.L.L.L.L.L.L.L.L.L.L.L.L.L.L.L.L.L.",
"L.L.L.L.L.L.h./ L.L.L.L.L.L.L.L.L.L.L.L.L.L.L.L.L.L.L.L.L.L.L.L.",
"L.L.L.L.L.: Z.G.S.Z.C.l.j.{ L.L.L.L.L.L.L.L.L.L.L.L.L.L.L.L.L.L.",
"L.L.L.L.L.O.J.K.K.K.J.G.S.C.j.{ L.L.L.L.L.L.L.L.L.L.L.L.L.L.L.L.",
"L.L.L.L.L.k.K.S.9.p.B.D.K.K.K.G.Z.Z.C.C.j. .L.L.L.L.L.L.L.L.L.L.",
"L.L.L.L.o.C.K.x.G G R &.9.i.G.K.K.K.K.G.Z.Z.k...  L.L.L.L.L.L.L.",
"L.L.L.L.j.Z.K.w.~ W L K K F l A 9.y.M.S.K.K.K.J.Z.Z.C.C.k.O.L.L.",
"L.L.L.L.l.G.F.e.2.2.~ ~ L L G G c D S Y 9.u.S.J.K.K.K.G.G.Z.k.o.",
"L.L.L.L.l.G.A.t.f.f.6.2.1.^ ^ ! ! L K J c x k V -.y.c.A.G.K.C.] ",
"L.L.L.L.C.J.m.8.} p 6 5 e i s ~ ~ ~ ! W K K J c z l C P A.J.k.< ",
"L.L.L.L.C.K.7.w u {  ...| { / e B 2.1.1.^ ~ W W K K J J J.J...  ",
"L.L.L.) Z.O.4 ) { | { ' ' [ ] / 1 d 5.5.2.^ H E ~ W L <.J.G.6   ",
"L.L.L.o.l./ 6 ) j.C.k./ ] k.j.4 < ; @.>.%.$.$.U I Q ^ d.G.C.    ",
"L.L./ O.| 4 > O.Z.k.C.k.j.k.h.| = $ * r +.N n M $.$.*.b.G.j.  L.",
"L.L...O.) : : C.o.2 3 l.o./ & { $ @ X 0 W D j f g b m M.Z.o.  L.",
"L.L.O...6 $ > Z./ # = j.| = X ) &     % v.d.=.Z f 7 v A.C.{ L.L.",
"{ ..O.| < O < G.j.2 | C.h./ 2 j.=     X ,.F.H.F.N.y.i.G.k.6 L.L.",
") 6 o.] > O > C.G.C.Z.l.j.Z.Z.l.= . . o _ p.b.V.F.F.F.Z.h.< L.L.",
"{ ] o.O...] ..k.k.k.k.k.j.l.k.j.| ] ] ) ' u a 3.r.a.D.S.| . L.L.",
"o.o.C.Z.O.O.j.j.l.G.G.Z.G.G.G.G.Z.Z.C.{ : + + t *.4.G.Z.4   L.L.",
"h...l.k...k.Z.l.l.l.C.l.l.l.C.l.l.l...: X   o 8 H q.Z.k.X   L.L.",
"O.{ h.h.h.C.Z.Z.k.j.k.k.k.j.j.h.h.h.) # O $ > q Z s.Z.h.  L.L.L.",
"..] ....o.o.O.o.o.j.j./ > > / ......| / 6 ) ( 9 h z.C. .  L.L.L.",
" .] o.o.o.o.o.o.h.h.> & & # @ : | ..o.....o.| ` #.n.l.{   L.L.L.",
"{ { h.j.j.j.h.j.l./ # 3 ] 2 & X 4 O.h.j.h.j.o.{ Z.Z.j./ L.L.L.L.",
"{ { j.j.j.j.j.k.l.3 $ 2 ] ] > O < o.j.j.j.j.O.] C.C.h.1 L.L.L.L.",
"' | k.k.k.l.k.k.k.) $ - 3 / - # 2 o.k.k.k.k.h.< { o.{ # L.L.L.L.",
") { j.k.k.k.k.k.k...2 # # # $ < 3 O.k.l.k.l.h.< . - >   L.L.L.L.",
"6 { k.l.C.l.l.l.l.j.| / 2 2 3 2 | k.l.k.l.l.h.< L.L.L.L.L.L.L.L.",
"> ] j.k.k.k.k.k.k.j.O.{ 6 4 6 ] h.k.k.k.k.j.O.> L.L.L.L.L.L.L.L.",
"  2 3 3 3 2 2 3 3 3 3 2 3 2 2 3 3 2 3 3 3 3 < $ L.L.L.L.L.L.L.L.",
"L.# @ @ @ @ @ @ @ @ @ @ @ @ @ @ @ @ @ @ @ @ O . L.L.L.L.L.L.L.L."
};
