/* XPM */
static char * invesalius_xpm[] = {
"32 32 566 2",
"  	c None",
". 	c #424242",
"+ 	c #131313",
"@ 	c #131314",
"# 	c #131414",
"$ 	c #141414",
"% 	c #353535",
"& 	c #020202",
"* 	c #020303",
"= 	c #020304",
"- 	c #0B131B",
"; 	c #0B1C2C",
"> 	c #091E32",
", 	c #061D33",
"' 	c #0B2136",
") 	c #13293D",
"! 	c #132534",
"~ 	c #081118",
"{ 	c #040405",
"] 	c #030303",
"^ 	c #363636",
"/ 	c #030304",
"( 	c #050B10",
"_ 	c #0B1D2E",
": 	c #0E3050",
"< 	c #012F5D",
"[ 	c #012F5C",
"} 	c #01305C",
"| 	c #03325E",
"1 	c #063865",
"2 	c #144773",
"3 	c #326086",
"4 	c #395A79",
"5 	c #28333B",
"6 	c #060B10",
"7 	c #030202",
"8 	c #151D22",
"9 	c #133758",
"0 	c #012E5A",
"a 	c #022E5A",
"b 	c #022F5B",
"c 	c #03315C",
"d 	c #073A65",
"e 	c #14436C",
"f 	c #164A76",
"g 	c #1B4D7A",
"h 	c #235480",
"i 	c #316491",
"j 	c #6492BA",
"k 	c #5885AB",
"l 	c #1B2227",
"m 	c #131B21",
"n 	c #1C3D59",
"o 	c #082E4E",
"p 	c #042544",
"q 	c #032544",
"r 	c #032443",
"s 	c #092E4D",
"t 	c #0A3356",
"u 	c #113859",
"v 	c #173D5D",
"w 	c #1E4262",
"x 	c #224665",
"y 	c #274B6B",
"z 	c #2D5475",
"A 	c #3F6384",
"B 	c #6284A4",
"C 	c #67859A",
"D 	c #020507",
"E 	c #06080A",
"F 	c #040607",
"G 	c #020203",
"H 	c #030508",
"I 	c #020508",
"J 	c #030609",
"K 	c #040709",
"L 	c #040609",
"M 	c #010101",
"N 	c #04070A",
"O 	c #0C0D0D",
"P 	c #040404",
"Q 	c #0E1418",
"R 	c #2E4960",
"S 	c #1F3A51",
"T 	c #132E48",
"U 	c #06223C",
"V 	c #021B33",
"W 	c #09253E",
"X 	c #0C263E",
"Y 	c #122E48",
"Z 	c #17324A",
"` 	c #1B374F",
" .	c #1F3A52",
"..	c #274259",
"+.	c #27435A",
"@.	c #2D4962",
"#.	c #2E4A63",
"$.	c #38526A",
"%.	c #556D7E",
"&.	c #6F8488",
"*.	c #21282B",
"=.	c #3E5569",
"-.	c #568BBA",
";.	c #396F9D",
">.	c #215685",
",.	c #073D6B",
"'.	c #02315F",
").	c #144976",
"!.	c #174D7D",
"~.	c #245987",
"{.	c #275E8C",
"].	c #386993",
"^.	c #376D9B",
"/.	c #3C72A0",
"(.	c #4176A4",
"_.	c #477EAB",
":.	c #5085B4",
"<.	c #6297C7",
"[.	c #81B6E3",
"}.	c #CFFCFF",
"|.	c #7B9091",
"1.	c #5A7B95",
"2.	c #48759B",
"3.	c #336087",
"4.	c #123F66",
"5.	c #0B375E",
"6.	c #032B52",
"7.	c #0B385F",
"8.	c #133E63",
"9.	c #17436B",
"0.	c #1E4B72",
"a.	c #26537B",
"b.	c #2B577F",
"c.	c #2E5B82",
"d.	c #3B6588",
"e.	c #3C698F",
"f.	c #48759C",
"g.	c #527EA6",
"h.	c #6793BA",
"i.	c #9BC3D5",
"j.	c #93AAAB",
"k.	c #020406",
"l.	c #20282E",
"m.	c #13202C",
"n.	c #0B1824",
"o.	c #0A141D",
"p.	c #020E1A",
"q.	c #020E19",
"r.	c #030F1A",
"s.	c #06111C",
"t.	c #091725",
"u.	c #0C1926",
"v.	c #0C1925",
"w.	c #0F1B26",
"x.	c #0F1B25",
"y.	c #13212C",
"z.	c #15212B",
"A.	c #192532",
"B.	c #2A343B",
"C.	c #2B3131",
"D.	c #010100",
"E.	c #0B0D0E",
"F.	c #202D39",
"G.	c #192530",
"H.	c #0E1A25",
"I.	c #081520",
"J.	c #04111C",
"K.	c #040E17",
"L.	c #07121C",
"M.	c #0A141E",
"N.	c #0B1722",
"O.	c #0B1822",
"P.	c #0D1924",
"Q.	c #0F1C28",
"R.	c #0F1C27",
"S.	c #131E27",
"T.	c #131D27",
"U.	c #15212D",
"V.	c #1A242D",
"W.	c #25323B",
"X.	c #2C3638",
"Y.	c #242D35",
"Z.	c #0F1214",
"`.	c #232C32",
" +	c #8CBAE1",
".+	c #70A0CA",
"++	c #36658E",
"@+	c #1B4B74",
"#+	c #0A3962",
"$+	c #0B3A63",
"%+	c #164875",
"&+	c #1D4D76",
"*+	c #1E4F7A",
"=+	c #204F79",
"-+	c #25547D",
";+	c #2C5B84",
">+	c #376790",
",+	c #386A94",
"'+	c #4777A2",
")+	c #4A7AA6",
"!+	c #5282AC",
"~+	c #74A4CB",
"{+	c #94C4E8",
"]+	c #BBE8F4",
"^+	c #99C5E4",
"/+	c #4A5D6B",
"(+	c #000000",
"_+	c #222A31",
":+	c #98CBEF",
"<+	c #92C6EC",
"[+	c #3E719D",
"}+	c #0B3E6A",
"|+	c #0D416F",
"1+	c #1D4F7B",
"2+	c #1D517D",
"3+	c #174B78",
"4+	c #225683",
"5+	c #31638F",
"6+	c #3D6F9C",
"7+	c #3F6E99",
"8+	c #3E709C",
"9+	c #4577A3",
"0+	c #4C80AD",
"a+	c #5486B3",
"b+	c #86B9DE",
"c+	c #95C8F3",
"d+	c #BFEFFF",
"e+	c #A2D2F1",
"f+	c #7BA1BE",
"g+	c #1C2327",
"h+	c #111416",
"i+	c #546E80",
"j+	c #57737E",
"k+	c #233D54",
"l+	c #102A41",
"m+	c #07223A",
"n+	c #08253E",
"o+	c #132C42",
"p+	c #102940",
"q+	c #0B263D",
"r+	c #1D3951",
"s+	c #29435A",
"t+	c #365066",
"u+	c #284259",
"v+	c #274158",
"w+	c #29465E",
"x+	c #2D475F",
"y+	c #455D71",
"z+	c #526C83",
"A+	c #667F88",
"B+	c #5A7281",
"C+	c #4B647B",
"D+	c #2A363F",
"E+	c #010000",
"F+	c #050708",
"G+	c #05080C",
"H+	c #03070B",
"I+	c #040608",
"J+	c #03060A",
"K+	c #02060A",
"L+	c #070A0D",
"M+	c #080B0F",
"N+	c #000409",
"O+	c #03080C",
"P+	c #04080B",
"Q+	c #04090D",
"R+	c #04070B",
"S+	c #02070C",
"T+	c #010509",
"U+	c #00040A",
"V+	c #080B0E",
"W+	c #0A0D0D",
"X+	c #080B0D",
"Y+	c #0D0F10",
"Z+	c #0B0C0E",
"`+	c #374754",
" @	c #4B6B89",
".@	c #32526D",
"+@	c #183854",
"@@	c #082946",
"#@	c #092B48",
"$@	c #0E3150",
"%@	c #0A2B48",
"&@	c #244462",
"*@	c #355673",
"=@	c #2C4F6C",
"-@	c #234563",
";@	c #274763",
">@	c #2C4E6B",
",@	c #2D4D68",
"'@	c #2C4D6A",
")@	c #335371",
"!@	c #3C5A75",
"~@	c #3F607D",
"{@	c #506F8C",
"]@	c #648499",
"^@	c #839E9F",
"/@	c #4E697E",
"(@	c #46657E",
"_@	c #4E6374",
":@	c #384652",
"<@	c #85B6E1",
"[@	c #5A8DB9",
"}@	c #2D6390",
"|@	c #10436F",
"1@	c #094171",
"2@	c #154976",
"3@	c #114776",
"4@	c #2A5F8E",
"5@	c #477AA7",
"6@	c #4A7EAA",
"7@	c #4D80AE",
"8@	c #4677A4",
"9@	c #3F739F",
"0@	c #40729C",
"a@	c #4378A7",
"b@	c #5182AE",
"c@	c #5C8EBB",
"d@	c #699CC8",
"e@	c #85B8E3",
"f@	c #A4D6FA",
"g@	c #D9FFFF",
"h@	c #8FC0E4",
"i@	c #87B7DD",
"j@	c #597289",
"k@	c #384C5D",
"l@	c #243A4E",
"m@	c #162B3D",
"n@	c #091C2D",
"o@	c #03192E",
"p@	c #091D2D",
"q@	c #0A1F32",
"r@	c #0C2134",
"s@	c #182C3E",
"t@	c #1F3244",
"u@	c #24384B",
"v@	c #203548",
"w@	c #172B3D",
"x@	c #162C40",
"y@	c #1A3147",
"z@	c #213344",
"A@	c #21384E",
"B@	c #293C4D",
"C@	c #33485B",
"D@	c #3D5365",
"E@	c #4F636A",
"F@	c #405361",
"G@	c #41515D",
"H@	c #12181D",
"I@	c #000001",
"J@	c #10171D",
"K@	c #0B1116",
"L@	c #090F15",
"M@	c #030A10",
"N@	c #03090E",
"O@	c #040A10",
"P@	c #060C12",
"Q@	c #040B12",
"R@	c #050D13",
"S@	c #070C12",
"T@	c #030A11",
"U@	c #050C13",
"V@	c #0A1119",
"W@	c #081017",
"X@	c #0A1015",
"Y@	c #0C131A",
"Z@	c #0D1218",
"`@	c #0C141B",
" #	c #0E1419",
".#	c #0E161F",
"+#	c #13181E",
"@#	c #10151C",
"##	c #000103",
"$#	c #020305",
"%#	c #455F75",
"&#	c #406889",
"*#	c #2F5678",
"=#	c #11395C",
"-#	c #082E50",
";#	c #0B3254",
">#	c #123A5D",
",#	c #1C4060",
"'#	c #21496C",
")#	c #274C6F",
"!#	c #1E4568",
"~#	c #133B5E",
"{#	c #234A6C",
"]#	c #2C5070",
"^#	c #355A7C",
"/#	c #3C6284",
"(#	c #466C8E",
"_#	c #587D9F",
":#	c #648AAA",
"<#	c #6D94B5",
"[#	c #6C93B5",
"}#	c #50636C",
"|#	c #030405",
"1#	c #2B3B49",
"2#	c #6294BE",
"3#	c #487DAA",
"4#	c #2B5E8B",
"5#	c #164874",
"6#	c #0D4270",
"7#	c #154975",
"8#	c #215481",
"9#	c #2A5E8D",
"0#	c #396D9B",
"a#	c #3B6F9E",
"b#	c #2C608E",
"c#	c #396A94",
"d#	c #4175A4",
"e#	c #4D81AF",
"f#	c #5D8FBA",
"g#	c #72A7D5",
"h#	c #8ABEED",
"i#	c #97CAF4",
"j#	c #92C5EF",
"k#	c #6E878F",
"l#	c #060708",
"m#	c #1E2D3A",
"n#	c #152534",
"o#	c #0E1C28",
"p#	c #081622",
"q#	c #041320",
"r#	c #061421",
"s#	c #091825",
"t#	c #0B1A27",
"u#	c #12212F",
"v#	c #142331",
"w#	c #0D1C28",
"x#	c #0D1C29",
"y#	c #152532",
"z#	c #192834",
"A#	c #1D2E3C",
"B#	c #243546",
"C#	c #283847",
"D#	c #293742",
"E#	c #1D2325",
"F#	c #020201",
"G#	c #131719",
"H#	c #0F171F",
"I#	c #0E151C",
"J#	c #0C151D",
"K#	c #071019",
"L#	c #040D16",
"M#	c #060F18",
"N#	c #0A121A",
"O#	c #0F171E",
"P#	c #131921",
"Q#	c #0B1924",
"R#	c #0B141C",
"S#	c #0E161D",
"T#	c #15191B",
"U#	c #161C22",
"V#	c #171F25",
"W#	c #181F24",
"X#	c #24313C",
"Y#	c #5C88AE",
"Z#	c #487599",
"`#	c #2D5A80",
" $	c #19466D",
".$	c #113E66",
"+$	c #1E496F",
"@$	c #325E83",
"#$	c #446F94",
"$$	c #5681A6",
"%$	c #6D97BB",
"&$	c #527DA2",
"*$	c #376082",
"=$	c #2E5A80",
"-$	c #3B668C",
";$	c #4A7599",
">$	c #5D87AD",
",$	c #6E96B9",
"'$	c #76A0C3",
")$	c #44555F",
"!$	c #7DAACE",
"~$	c #6294C1",
"{$	c #4677A2",
"]$	c #235680",
"^$	c #1A4A75",
"/$	c #275986",
"($	c #3D709D",
"_$	c #5383AE",
":$	c #6497C3",
"<$	c #8EC2EC",
"[$	c #81B1DC",
"}$	c #6495BF",
"|$	c #3F719F",
"1$	c #356691",
"2$	c #3C6C96",
"3$	c #4678A6",
"4$	c #5987B0",
"5$	c #527491",
"6$	c #12191F",
"7$	c #16212C",
"8$	c #121E2A",
"9$	c #0E1821",
"0$	c #071119",
"a$	c #08121B",
"b$	c #09141D",
"c$	c #0C1825",
"d$	c #0F1922",
"e$	c #111D2A",
"f$	c #1A2834",
"g$	c #17232F",
"h$	c #15222F",
"i$	c #0D1926",
"j$	c #0B1723",
"k$	c #0B151F",
"l$	c #0C1721",
"m$	c #0B0F12",
"n$	c #000307",
"o$	c #04080C",
"p$	c #070A0F",
"q$	c #02050A",
"r$	c #05090E",
"s$	c #03070C",
"t$	c #080A0C",
"u$	c #020101",
"v$	c #2D3E4D",
"w$	c #5E8BB5",
"x$	c #3E698E",
"y$	c #204D76",
"z$	c #124067",
"A$	c #1F496B",
"B$	c #345E85",
"C$	c #416C92",
"D$	c #547EA3",
"E$	c #6E98BE",
"F$	c #7FABD0",
"G$	c #A3CCDD",
"H$	c #5C7071",
"I$	c #324455",
"J$	c #6B9EC8",
"K$	c #4579A4",
"L$	c #235581",
"M$	c #235580",
"N$	c #396791",
"O$	c #598CB8",
"P$	c #77A9D5",
"Q$	c #8BBEEA",
"R$	c #B5E5FB",
"S$	c #697C7D",
"T$	c #2E4255",
"U$	c #679AC7",
"V$	c #4375A2",
"W$	c #245985",
"X$	c #366995",
"Y$	c #568BB6",
"Z$	c #71A5D2",
"`$	c #87BBE8",
" %	c #B6E6FC",
".%	c #2B3A44",
"+%	c #5583AA",
"@%	c #3B668A",
"#%	c #254F73",
"$%	c #133F65",
"%%	c #1A4569",
"&%	c #305A7F",
"*%	c #437096",
"=%	c #5E89AE",
"-%	c #719ABE",
";%	c #93BACF",
">%	c #546668",
",%	c #030404",
". + + + + + + + + + + @ # # # # $ $ @ + + + + + + + + + + + + + ",
"% & & & & & & & & * = - ; > , ' ) ! ~ { ] & & & & & & & & & & & ",
"^ ] ] ] ] ] & / ( _ : < [ [ } | 1 2 3 4 5 6 ] 7 ] ] ] ] ] ] ] ] ",
"^ ] ] ] ] ] { 8 9 [ 0 a b c d e f g h i j k l ] ] ] ] ] ] ] ] ] ",
"^ ] ] ] & & m n o p q r s t u v w x y z A B C D & ] ] ] ] ] ] ] ",
"^ ] ] ] ] E F G H I J ] ] J ] J ] K L L I M N O P ] ] ] ] ] ] ] ",
"^ ] ] ] Q R S T U V U W X Y Z `  ...+.@.#.$.%.&.*.] ] ] ] ] ] ] ",
"^ ] ] 7 =.-.;.>.,.'.,.).!.~.{.].^./.(._.:.<.[.}.|.] ] ] ] ] ] ] ",
"^ ] ] / 1.2.3.4.5.6.7.8.9.0.a.b.b.c.d.e.f.g.h.i.j.] ] ] ] ] ] ] ",
"^ ] ] k.l.m.n.o.p.q.r.o.s.t.u.v.v.n.w.x.y.z.A.B.C.D.] ] ] ] ] ] ",
"^ ] ] E.F.G.H.I.J.K.L.I.M.N.O.P.Q.R.S.T.U.V.W.X.Y.Z.] ] ] ] ] ] ",
"^ ] ] `. +.+++@+#+$+%+&+*+=+-+;+>+,+'+)+!+~+{+]+^+/+(+] ] ] ] ] ",
"^ ] ] _+:+<+[+g }+|+1+2+3+4+5+6+7+8+9+0+a+b+c+d+e+f+g+] ] ] ] ] ",
"^ ] ] h+i+j+k+l+m+n+o+p+q+r+s+t+u+k+v+w+x+y+z+A+B+C+D+E+D.] ] ] ",
"^ ] ] E+F+G+H+I+J+J+K+J+L+M+H+N+O+P+H+Q+R+S+T+U+V+W+X+Y+Z+] ] ] ",
"^ ] ] ] `+ @.@+@@@#@$@%@&@*@=@-@;@>@,@'@)@!@~@{@]@^@/@(@_@] ] ] ",
"^ ] ] ] :@<@[@}@|@1@2@3@4@5@6@7@8@9@0@a@b@c@d@e@f@g@h@i@j@] ] ] ",
"^ ] ] ] E.k@l@m@n@o@p@q@r@s@t@u@v@w@x@y@z@A@B@C@D@E@F@G@H@] ] ] ",
"^ ] ] ] M I@J@K@L@M@N@O@P@Q@R@S@T@U@V@W@X@Y@Z@`@ #.#+#@###] ] ] ",
"^ ] ] ] ] $#%#&#*#=#-#;#>#,#'#)#!#~#{#]#^#/#(#_#:#<#[#}#|#] ] ] ",
"^ ] ] ] ] 7 1#2#3#4#5#6#7#8#9#0#a#4#b#c#d#e#f#g#h#i#j#k#7 ] ] ] ",
"^ ] ] ] ] ] l#m#n#o#p#q#r#s#t#u#v#w#x#o#u#y#z#A#B#C#D#E#] ] ] ] ",
"^ ] ] ] ] ] F#(+G#H#I#J#K#L#M#N#O#P#Q#Y@R#R#S#T#U#V#W#Z.] ] ] ] ",
"^ ] ] ] ] ] ] & X#Y#Z#`# $.$+$@$#$$$%$&$*$=$-$;$>$,$'$)$] ] ] ] ",
"^ ] ] ] ] ] ] ] Q !$~${$]$^$/$($_$:$<$[$}$|$1$2$3$4$5$6$] ] ] ] ",
"^ ] ] ] ] ] ] ] ] 7$8$9$0$a$b$c$d$e$f$g$h$i$j$k$l$d$m$G ] ] ] ] ",
"^ ] ] ] ] ] ] ] & n$o$p$I J+q$o$K+r$s$K+t$k.* & & & u$& ] ] ] ] ",
"^ ] ] ] ] ] ] ] ] v$w$x$y$z$A$B$C$D$E$F$G$H$& & & & ] ] ] ] ] ] ",
"^ ] ] ] ] ] ] ] ] I$J$K$L$2@M$N$K$O$P$Q$R$S$] ] ] ] ] ] ] ] ] ] ",
"^ ] ] ] ] ] ] ] ] T$U$V$W$2@L$X$V$Y$Z$`$ %S$] ] ] ] ] ] ] ] ] ] ",
"^ ] ] ] ] ] ] ] ] .%+%@%#%$%%%&%@%*%=%-%;%>%] ] ] ] ] ] ] ] ] ] ",
"^ ] ] ] ] ] ] ] ] ] ,%/ ] ] ] ] / / ,%,%P ] ] ] ] ] ] ] ] ] ] ] "};
