/* XPM */
static char * erlang_xpm[] = {
"32 32 6 1",
" 	c None",
".	c #FFFFFF",
"+	c #800000",
"@	c #808080",
"#	c #FF0000",
"$	c #000000",
"................................",
".++++...........+...........+++.",
".+++..........+++++.........+++.",
".+++.........+++++++........@++.",
".++.........++++++++.........++.",
".++.........++++++++.........++.",
".+............................+.",
".+............................+.",
".+............................+.",
".+............................+.",
".+............................+.",
".+..........+++++++++++++++++++.",
".+..........+++++++++++++++++++.",
".+..........+++++++++++++++++++.",
".+..........+++++++++++++++++++.",
".+..........+++++++++++++++++++.",
".+..........+++++++++++++..++++.",
".++..........++++++++++++...@++.",
".++..........@++++++++++......+.",
".+++..........+++++++++.......+.",
".+++...........+++++++.......++.",
".+++#............+++........@++.",
".++++.......................+++.",
"................................",
"................................",
"................................",
".$$..$$$...$....$$...$..$...$$$.",
".$...$..$..$....$$...$$.$..$....",
".$$..$$$...$....$$...$.$$..$.$$.",
".$...$.$...$...$$$$..$..$..$..$.",
".$$..$..$..$$$.$..$..$..$...$$..",
"................................"};
