/* XPM */
static char *linphone2[] = {
/* columns rows colors chars-per-pixel */
"32 32 120 2",
"   c #00590054004E",
".  c #082807A20707",
"X  c #08780811076A",
"o  c #0CC50C430B6F",
"O  c #10890F940E27",
"+  c #119010FD0FD5",
"@  c #157114851300",
"#  c #1831169B1430",
"$  c #1D371C071A17",
"%  c #20701F781DBB",
"&  c #22DA21741EEE",
"*  c #253E24802306",
"=  c #28A82723246D",
"-  c #2B5F29B02699",
";  c #2D632C072998",
":  c #30EB2FC52D96",
">  c #32FE31A12EDC",
",  c #3675352432BE",
"<  c #3946370F333C",
"1  c #3C713A363666",
"2  c #3E303CBD39D4",
"3  c #41AB3F1D3AAB",
"4  c #445642013DC8",
"5  c #490E45B14002",
"6  c #4693448940EC",
"7  c #499647134273",
"8  c #4C3549034345",
"9  c #4FD94D934971",
"0  c #54CD504B4987",
"q  c #549951124B02",
"w  c #58E654C54DC9",
"e  c #57AF55A9524B",
"r  c #5891565651FB",
"t  c #5C9D5A31557A",
"y  c #601D5D75591D",
"u  c #62645E5E5709",
"i  c #61B35ECC595B",
"p  c #669963075C46",
"a  c #6A57661A5E78",
"s  c #69DE673A622A",
"d  c #6E426A82637D",
"f  c #72BA6DEB655A",
"g  c #758A71BB6AC4",
"h  c #7AE576576E37",
"j  c #77CF75997136",
"k  c #7A8E76F470D4",
"l  c #7ECD7B0D7399",
"z  c #82D97DE574A6",
"x  c #81477EB979E0",
"c  c #88988077743E",
"v  c #85F58144778F",
"b  c #875E83B97C4F",
"n  c #8AB6864E7DC4",
"m  c #8D3B88ED8027",
"M  c #93A38BB37F32",
"N  c #8BC687FD8098",
"B  c #8E728AAE8355",
"V  c #8FA78D9488CB",
"C  c #93F28E9C84D5",
"Z  c #928D8F3388BA",
"A  c #970991838743",
"S  c #964E92A98B6A",
"D  c #9B2E92CF85A3",
"F  c #9C5796B68C7F",
"G  c #9FD899538DC8",
"H  c #9F4E9ACF91DD",
"J  c #A02E9DFE9972",
"K  c #A1D8983B89B1",
"L  c #A36E9B158D5A",
"P  c #A3D69E76942A",
"I  c #A3BB9FEB98D7",
"U  c #A997A038913C",
"Y  c #A717A1C39747",
"T  c #A695A3259C32",
"R  c #ABECA399954F",
"E  c #ABFCA6AC9C46",
"W  c #AF0CA94F9DE5",
"Q  c #B29AA82F97D6",
"!  c #B39DAB5B9CEB",
"~  c #BA77AF269DFF",
"^  c #BBB0B0BA9FE9",
"/  c #AE3DAAAFA35A",
"(  c #B441AED6A3F1",
")  c #B316AFE3A927",
"_  c #B73FB184A5CD",
"`  c #B66EB2C1AB4D",
"'  c #BD03B449A4FE",
"]  c #BC12B670AB2C",
"[  c #BF92B93CAC7B",
"{  c #BABFB7B2B158",
"}  c #BF57BB7DB3A7",
"|  c #C26CB712A57C",
" . c #C575B9C9A7D3",
".. c #C2C1BC06AE62",
"X. c #C90ABEE2ADC2",
"o. c #C42CBE91B2D7",
"O. c #C740C15DB4E8",
"+. c #C70BC344BB8E",
"@. c #CCBBC52EB5E5",
"#. c #CCEAC72DBBA6",
"$. c #CF5BC918BC07",
"%. c #D386CC49BD33",
"&. c #CC1BC896C107",
"*. c #CF55CB91C3B8",
"=. c #D386CE7FC3F0",
"-. c #D6D9D137C58E",
";. c #DE07D639C59B",
":. c #DD48D7FDCD15",
">. c #E0C9D8FFC86F",
",. c #DFCCD99ACC58",
"<. c #DF90DBDED411",
"1. c #E161D943C80C",
"2. c #E292DB20CB30",
"3. c #E60EE034D39D",
"4. c #E914E2F0D5BF",
"5. c #EBABE704DD1D",
"6. c #EE59E9B6DFD8",
"7. c #EF7EEB63E2C5",
"8. c #F441F02BE78D",
"9. c None",
/* pixels */
"9.9.9.9.9.9.9.9.9.9.9.9.9.9.9.9.9.  o $ * ; : * X 9.9.9.9.9.9.9.",
"9.9.9.9.9.9.9.9.9.9.9.9.    o , e l F ) ) } o.` y . 9.9.9.9.9.9.",
"9.9.9.9.9.9.9.9.9.9.  + , j / *.*.-.&./ W B g P } 4 9.9.9.9.9.9.",
"9.9.9.9.9.9.9.9.  % y E :.*.{ ] P D m C ( L G =.3.n . 9.9.9.9.9.",
"9.9.9.9.9.9.  @ t { <.*.J A G Q ~ ~ c S o.P =.6.3.' & 9.9.9.9.9.",
"9.9.9.9.9.  1 ) <.+.H m G m Y A C g u W { P { :.4.%.> 9.9.9.9.9.",
"9.9.9.9.9.& Z *.Y p z Q M B +.T =.*.} o./ b d Z / E 4   9.9.9.9.",
"9.9.9.9.  u =.:.$.O.^ f v G / *.8.6.7.5.&.Z N j y S 3   9.9.9.9.",
"9.9.  $ , t %.6.5.2.;.E ! ' J +.} +.} E F l d ! ' l n $ 9.9.9.9.",
"9.  * r - f -.6.8.>.Q _ Y  ._ _ B s n H f T H Y ,.G n k X 9.9.9.",
"9.o 7 @   l 4.3.*.' _ [ h g $.b S @.` J W A ] / =.@.b B 2 9.9.9.",
"9.# , 9.  4 ] R P | @.b m ] 2.[ ' >.] B _ O.J F n -.%.h V = 9.9.",
"9., 7 . 9.o f R R L f v O.%.;.%._ %.;.] J T A ( C _ %.! k g X 9.",
"9.X 4 e   9.+ d D F ]  .;.1.;.1.$.o.>.%.I N P S Y b O.;.v j 3 9.",
"9.9.1 g . 9.  p %.1.1.1.1.;.;.;.,...@.>.@.B F z S A b $.@.h Z = ",
"9.o s $ 9.9.9.o f %.%.@.%.;.;.1.;.=._ %.>.E m H k Y F S ..Z J 9 ",
"9.. 4 2   9.9.9.o a [ Q W %.;.;.;.2...[ >.@.l _ $.O.] / S G L 7 ",
"9., v >   9.9.9.  4 l a L ;.;.>.;.1.;.Y $.@...] Y / Q K Q ' R p ",
"9.@ e ;         $ y + f P %.;.;.;.;.,.=./ ! P R F R ^ | | | R g ",
"9.- s 6 X $ 5 1 1 6 o - 4 W >.2.;.;.;.,.$.G U Q ~ ] | | |  .U u ",
"9.9 < ; l E $...o.! F n a 7 A %.1.;.;.%.@.^ ^ | | | | | | U a $ ",
"9.* l P O.l y 0 a V Y @.$._ d g O.1.>.%.| | | | |  .' K a & . 9.",
". 2 ` E w 3 -     + $ & a $.%.y 5 ^ >.~ D  .| | Q M w @ .     9.",
"@ m Y < 4 s p % - f n h q a %.W + - D m M | K f 3 +       9.9.9.",
"< ..A , r g P ( [ %...$.-.R n v .   @ w h w $ .     9.9.9.9.9.9.",
"s ( Y ] $.-.%.W M f f n Y X.z ;   9.  X .       9.9.9.9.9.9.9.9.",
"* p S ! F a d m 2 & p p 1 z ! ,   9.9.9.9.9.9.9.9.9.9.9.9.9.9.9.",
"  X @ # O . 7 Y n @ . X   & Y a o 9.9.9.9.9.9.9.9.9.9.9.9.9.9.9.",
"9.9.9.9.9.9.o f P h = o 9.1 Y q   9.9.9.9.9.9.9.9.9.9.9.9.9.9.9.",
"9.9.9.9.9.9.  = d D I F m P a 1   9.9.9.9.9.9.9.9.9.9.9.9.9.9.9.",
"9.9.9.9.9.9.9.  $ a m Y P b 7 $   9.9.9.9.9.9.9.9.9.9.9.9.9.9.9.",
"9.9.9.9.9.9.9.9.  + ; 4 3 & o   9.9.9.9.9.9.9.9.9.9.9.9.9.9.9.9."
};
