/* XPM */
static char * smart2_xpm[] = {
"32 32 277 2",
"  	c None",
". 	c #D9DEE2",
"+ 	c #C3CCD2",
"@ 	c #C0C9C6",
"# 	c #E3EAD1",
"$ 	c #D0D8CA",
"% 	c #CBCED1",
"& 	c #B6B2A2",
"* 	c #D5A959",
"= 	c #A49C86",
"- 	c #C7CBCA",
"; 	c #CEC9A8",
"> 	c #FBECB4",
", 	c #FCEFBD",
"' 	c #FAF5C9",
") 	c #ABB5B0",
"! 	c #A9A799",
"~ 	c #DCAE59",
"{ 	c #DCAC55",
"] 	c #D5A654",
"^ 	c #9E9379",
"/ 	c #C8BC95",
"( 	c #F9D68A",
"_ 	c #F8DA96",
": 	c #F9E0A2",
"< 	c #F9E4AA",
"[ 	c #D7B97E",
"} 	c #D7A955",
"| 	c #DEAE56",
"1 	c #D9A954",
"2 	c #D3A251",
"3 	c #9F8D6B",
"4 	c #BABCB9",
"5 	c #E8C073",
"6 	c #F7CD7B",
"7 	c #E0B76F",
"8 	c #B57F3C",
"9 	c #AE7027",
"0 	c #C18430",
"a 	c #DAA952",
"b 	c #D4A452",
"c 	c #CE9D50",
"d 	c #A48E67",
"e 	c #AE9D7B",
"f 	c #B67F3B",
"g 	c #9A6127",
"h 	c #9E6528",
"i 	c #A86D28",
"j 	c #B77829",
"k 	c #B87C2E",
"l 	c #D7A44F",
"m 	c #D8A854",
"n 	c #D0A051",
"o 	c #C9984E",
"p 	c #A48A61",
"q 	c #A7B5C8",
"r 	c #9F8371",
"s 	c #925B25",
"t 	c #965F28",
"u 	c #A16828",
"v 	c #B27429",
"w 	c #AE7129",
"x 	c #B0762E",
"y 	c #D4A24E",
"z 	c #DBAB55",
"A 	c #D3A352",
"B 	c #CB9B4F",
"C 	c #BE914F",
"D 	c #8B8B84",
"E 	c #A5B8D4",
"F 	c #83AEF9",
"G 	c #A08B80",
"H 	c #8E5725",
"I 	c #9A6228",
"J 	c #AC7029",
"K 	c #A86D29",
"L 	c #A56B28",
"M 	c #A66D2B",
"N 	c #CD9B4A",
"O 	c #D7A754",
"P 	c #C99D53",
"Q 	c #7F7C72",
"R 	c #7CAAFD",
"S 	c #82ADFB",
"T 	c #9F9291",
"U 	c #945D28",
"V 	c #A66C28",
"W 	c #A36928",
"X 	c #A06628",
"Y 	c #9C6428",
"Z 	c #9A6229",
"` 	c #C08F46",
" .	c #6F7167",
"..	c #999EA2",
"+.	c #D9D9D9",
"@.	c #C9C9C9",
"#.	c #D0D0D0",
"$.	c #C5C5C5",
"%.	c #A3ABB6",
"&.	c #7A9EE0",
"*.	c #7BA9FF",
"=.	c #82ADFC",
"-.	c #A69DA0",
";.	c #A26929",
">.	c #9E6428",
",.	c #965E27",
"'.	c #AB7736",
").	c #D2A14F",
"!.	c #D9AD59",
"~.	c #CAA65F",
"{.	c #A29368",
"].	c #879299",
"^.	c #EDEDED",
"/.	c #F6F6F6",
"(.	c #F1F1F1",
"_.	c #DEDEDE",
":.	c #DDDDDC",
"<.	c #D1D2D2",
"[.	c #839BC9",
"}.	c #85AFFE",
"|.	c #8EB6FE",
"1.	c #AFA9AD",
"2.	c #996129",
"3.	c #9A632C",
"4.	c #B68543",
"5.	c #CD9D50",
"6.	c #D2A252",
"7.	c #D3A556",
"8.	c #978965",
"9.	c #919394",
"0.	c #DADADA",
"a.	c #F0F0F0",
"b.	c #FCFCFC",
"c.	c #F8F8F8",
"d.	c #F3F3F3",
"e.	c #E1E1E1",
"f.	c #E3E3E3",
"g.	c #F3F4F8",
"h.	c #DDDFE2",
"i.	c #7A98D3",
"j.	c #94B9FF",
"k.	c #9CBFFF",
"l.	c #C2BEC3",
"m.	c #A38D7F",
"n.	c #A78769",
"o.	c #AB8760",
"p.	c #AE8D64",
"q.	c #6F7679",
"r.	c #BABABA",
"s.	c #D6D6D6",
"t.	c #FBFBFB",
"u.	c #E8E8E8",
"v.	c #EFF0F2",
"w.	c #F8FAFF",
"x.	c #F8F9FE",
"y.	c #AAB3C5",
"z.	c #729FF3",
"A.	c #A1C1FF",
"B.	c #BDD3FF",
"C.	c #9FBFFF",
"D.	c #A0BFFF",
"E.	c #A7C0ED",
"F.	c #A5A7A9",
"G.	c #EAEAEA",
"H.	c #F5F5F5",
"I.	c #ECECEC",
"J.	c #F8FAFD",
"K.	c #F5F8FF",
"L.	c #D9DCE3",
"M.	c #7198E3",
"N.	c #7BA8FF",
"O.	c #C3D7FF",
"P.	c #A1BEFF",
"Q.	c #A7C2FF",
"R.	c #ACC6FF",
"S.	c #B1C6EB",
"T.	c #ADB0B2",
"U.	c #DDDDDD",
"V.	c #EBEBEB",
"W.	c #EEEEEE",
"X.	c #B8B8B8",
"Y.	c #B8B8B9",
"Z.	c #EEEFF1",
"`.	c #EBECEE",
" +	c #E0E1E2",
".+	c #D2D2D1",
"++	c #7A97CE",
"@+	c #7AA7FF",
"#+	c #CBDCFF",
"$+	c #AEC8FF",
"%+	c #ABCEFF",
"&+	c #ACD0FF",
"*+	c #B9CDEB",
"=+	c #D5D5D5",
"-+	c #DADBDB",
";+	c #E4E5E7",
">+	c #EDEFF1",
",+	c #F0F1F3",
"'+	c #979797",
")+	c #9D9D9D",
"!+	c #E4E4E4",
"~+	c #D6D6D4",
"{+	c #7D97C7",
"]+	c #7EAAFF",
"^+	c #D4E3FF",
"/+	c #B7D2FF",
"(+	c #AFD3FF",
"_+	c #ADD3FF",
":+	c #C2D3EB",
"<+	c #D3D4D4",
"[+	c #EFF3F8",
"}+	c #F7F9FC",
"|+	c #E4E4E5",
"1+	c #E6E6E6",
"2+	c #F4F4F4",
"3+	c #D6D7D6",
"4+	c #7A9AD8",
"5+	c #82ADFF",
"6+	c #DEE9FF",
"7+	c #C0D9FF",
"8+	c #A3D1FF",
"9+	c #A1D1FF",
"0+	c #CAD9EB",
"a+	c #E5E5E5",
"b+	c #DEE0E1",
"c+	c #F6F9FF",
"d+	c #F8F9FF",
"e+	c #F1F2F4",
"f+	c #F7F7F7",
"g+	c #FAFAFA",
"h+	c #F2F2F2",
"i+	c #BFC0C1",
"j+	c #98B3E5",
"k+	c #86AEFF",
"l+	c #E7EFFF",
"m+	c #C7DEFF",
"n+	c #9DCFFF",
"o+	c #ABD6FF",
"p+	c #D5E0EB",
"q+	c #ADAFB2",
"r+	c #C1C1C2",
"s+	c #F5F8FC",
"t+	c #F3F6FA",
"u+	c #E7E7E7",
"v+	c #8B949F",
"w+	c #D8E2F5",
"x+	c #C4D8FF",
"y+	c #F0F6FF",
"z+	c #D8E9FF",
"A+	c #D6EAFF",
"B+	c #F2F6FF",
"C+	c #B6C2DB",
"D+	c #B2B4B6",
"E+	c #E6E7E8",
"F+	c #979898",
"G+	c #909FB3",
"H+	c #E0E7F4",
"I+	c #FCFDFF",
"J+	c #F9FAFF",
"K+	c #DCE3F4",
"L+	c #8897B4",
"M+	c #8F959D",
"N+	c #CCCCCC",
"O+	c #A3A3A3",
"P+	c #C6C6C6",
"Q+	c #CBCBCB",
"R+	c #878787",
"S+	c #A0A0A0",
"T+	c #95A3B5",
"U+	c #D7E0F2",
"V+	c #A1B0C9",
"W+	c #828B99",
"X+	c #AEAEAE",
"Y+	c #909090",
"Z+	c #9B9B9B",
"`+	c #A4ABB4",
" @	c #B1B3B4",
"                                                                ",
"                                                                ",
"                                                                ",
"                                                                ",
"                                                                ",
"                            . +                                 ",
"                          @ # $ %   & * =                       ",
"                      - ; > , ' ) ! ~ { ] ^                     ",
"                      / ( _ : < [ } | | 1 2 3                   ",
"                      4 5 6 7 8 9 0 a | { b c d                 ",
"                        e f g h i j k l | m n o p               ",
"                        q r s t u v w x y z A B C D             ",
"                        E F G H I J K L M N O P Q               ",
"                        E R S T U V W X Y Z `  ...              ",
"                +.@.#.$.%.&.*.=.-.;.>.I ,.'.).!.~.{.].          ",
"              #.^./.(._.:.<.[.}.|.1.2.3.4.5.6.7.8.9.            ",
"            0.a.b.c.d.e.f.g.h.i.j.k.l.m.n.o.p.q.r.              ",
"            s.d.t.b./.u.v.w.x.y.z.A.B.C.C.D.E.F.                ",
"          e.f.G.d.t.H.I.J.w.K.L.M.N.O.P.Q.R.S.T.                ",
"          s.U.f.V.W.X.Y.Z.`. +.+++@+#+$+%+&+*+T.                ",
"          =+-+;+>+,+'+)+u.I.!+~+{+]+^+/+(+_+:+T.                ",
"          <+[+K.w.}+|+1+c.2+V.3+4+5+6+7+8+9+0+T.                ",
"          a+b+c+d+e+V.f+g+t.h+i+j+k+l+m+n+o+p+q+                ",
"            r+s+t+f.u+2+f+g+2+v+w+x+y+z+A+B+C+D+                ",
"              r+E++.!+(.H.c.)+F+G+H+I+J+K+L+M+                  ",
"              N+O+P+a+V.Q+R+S+    T+U+V+W+                      ",
"                  X+'+Y+Z+          `+ @                        ",
"                                                                ",
"                                                                ",
"                                                                ",
"                                                                ",
"                                                                "};
