STARTFONT 2.1
COMMENT This font was automaticaly reencoded from ISO8859-2 to ISO10646-1.
COMMENT by trbdf utility (ftp://lml.bas.bg/home/anton/linux/trscripts-1.5.tar.gz)
COMMENT The COMMENTs below (if any) are from the original font.
COMMENT ---------------------------------------------------------
COMMENT +
COMMENT  Copyright 1986, 1985 Bigelow & Holmes. 
COMMENT  Copyright 1996 BIZNET Poland, Inc.
COMMENT -
FONT -BIZNET-FotinosTypewriter-Medium-R-Normal-Sans-20-140-100-100-M-120-ISO10646-1
SIZE 14 100 100
FONTBOUNDINGBOX 12 19 0 -4
STARTPROPERTIES 21
FOUNDRY "BIZNET"
FAMILY_NAME "BIZNET FotinosTypewriter"
WEIGHT_NAME "Medium"
SLANT "R"
SETWIDTH_NAME "Normal"
ADD_STYLE_NAME "Sans"
PIXEL_SIZE 20
POINT_SIZE 140
RESOLUTION_X 100
RESOLUTION_Y 100
SPACING "M"
AVERAGE_WIDTH 120
CHARSET_REGISTRY "ISO10646"
CHARSET_ENCODING "1"
FONT_ASCENT 18
FONT_DESCENT 4
FACE_NAME "BIZNET Fotinos Sans Typewriter"
CHARSET_COLLECTIONS "ASCII ISO8859-2"
COPYRIGHT "Copyright Bigelow & Holmes 1986, 1985. Copyright (c) 1996 BIZNET Poland, Inc. All Rights Reserved."
NOTICE "The name "BIZNET" is a registered trademark of BIZNET Poland, Inc."
DEFAULT_CHAR 32
ENDPROPERTIES
CHARS 213
STARTCHAR Lslash
ENCODING 321
SWIDTH 42 0
DWIDTH 12 0
BBX 11 14 0 0
BITMAP
3000
3000
3000
3000
3000
3400
3800
7000
B000
3000
3000
3000
3000
3FE0
ENDCHAR
STARTCHAR lslash
ENCODING 322
SWIDTH 42 0
DWIDTH 12 0
BBX 8 14 2 0
BITMAP
FC
0C
0C
0D
0D
0E
0C
3C
2C
0C
0C
0C
0C
0C
ENDCHAR
STARTCHAR Nacute
ENCODING 323
SWIDTH 602 0
DWIDTH 12 0
BBX 9 18 1 0
BITMAP
0300
0600
0C00
0000
C080
E080
E080
F080
B080
9880
9880
8C80
8E80
8680
8780
8380
8180
8180
ENDCHAR
STARTCHAR nacute
ENCODING 324
SWIDTH 602 0
DWIDTH 12 0
BBX 9 15 2 0
BITMAP
0600
0C00
1800
0000
CF00
DF80
F180
C180
C180
C180
C180
C180
C180
C180
C180
ENDCHAR
STARTCHAR n
ENCODING 110
SWIDTH 602 0
DWIDTH 12 0
BBX 9 11 2 0
BITMAP
CF00
DF80
F180
C180
C180
C180
C180
C180
C180
C180
C180
ENDCHAR
STARTCHAR o
ENCODING 111
SWIDTH 602 0
DWIDTH 12 0
BBX 10 11 1 0
BITMAP
1E00
7380
6180
C0C0
C0C0
C0C0
C0C0
C0C0
6180
7380
1E00
ENDCHAR
STARTCHAR p
ENCODING 112
SWIDTH 602 0
DWIDTH 12 0
BBX 9 15 2 -4
BITMAP
DE00
F300
E180
C180
C180
C180
C180
C180
C300
E300
DE00
C000
C000
C000
C000
ENDCHAR
STARTCHAR Ncaron
ENCODING 327
SWIDTH 602 0
DWIDTH 12 0
BBX 9 18 1 0
BITMAP
3180
1B00
0E00
0000
C080
E080
E080
F080
B080
9880
9880
8C80
8E80
8680
8780
8380
8180
8180
ENDCHAR
STARTCHAR Racute
ENCODING 340
SWIDTH 602 0
DWIDTH 12 0
BBX 10 18 2 0
BITMAP
0C00
1800
3000
0000
FC00
C700
C300
C300
C300
C700
FE00
CC00
CC00
C600
C700
C300
C180
C1C0
ENDCHAR
STARTCHAR q
ENCODING 113
SWIDTH 602 0
DWIDTH 12 0
BBX 9 15 1 -4
BITMAP
3D80
6380
6180
C180
C180
C180
C180
C180
C380
6780
3D80
0180
0180
0180
0180
ENDCHAR
STARTCHAR ncaron
ENCODING 328
SWIDTH 602 0
DWIDTH 12 0
BBX 9 15 2 0
BITMAP
3180
1B00
0E00
0000
CF00
DF80
F180
C180
C180
C180
C180
C180
C180
C180
C180
ENDCHAR
STARTCHAR racute
ENCODING 341
SWIDTH 602 0
DWIDTH 12 0
BBX 8 15 3 0
BITMAP
06
0C
18
00
DF
F1
E1
C0
C0
C0
C0
C0
C0
C0
C0
ENDCHAR
STARTCHAR r
ENCODING 114
SWIDTH 602 0
DWIDTH 12 0
BBX 8 11 3 0
BITMAP
DF
F1
E1
C0
C0
C0
C0
C0
C0
C0
C0
ENDCHAR
STARTCHAR s
ENCODING 115
SWIDTH 602 0
DWIDTH 12 0
BBX 8 11 2 0
BITMAP
3E
62
C0
C0
F8
3E
0F
03
03
86
FC
ENDCHAR
STARTCHAR t
ENCODING 116
SWIDTH 602 0
DWIDTH 12 0
BBX 10 13 1 0
BITMAP
1800
1800
FFC0
1800
1800
1800
1800
1800
1800
1800
1800
1C00
0FC0
ENDCHAR
STARTCHAR Rcaron
ENCODING 344
SWIDTH 602 0
DWIDTH 12 0
BBX 10 18 2 0
BITMAP
6300
3600
1C00
0000
FC00
C700
C300
C300
C300
C700
FE00
CC00
CC00
C600
C700
C300
C180
C1C0
ENDCHAR
STARTCHAR u
ENCODING 117
SWIDTH 602 0
DWIDTH 12 0
BBX 9 11 1 0
BITMAP
C180
C180
C180
C180
C180
C180
C180
C180
C780
7D80
7980
ENDCHAR
STARTCHAR rcaron
ENCODING 345
SWIDTH 602 0
DWIDTH 12 0
BBX 8 15 3 0
BITMAP
63
36
1C
00
DF
F1
E1
C0
C0
C0
C0
C0
C0
C0
C0
ENDCHAR
STARTCHAR v
ENCODING 118
SWIDTH 602 0
DWIDTH 12 0
BBX 11 11 0 0
BITMAP
C060
6040
6040
7080
3080
3100
1900
1B00
1E00
0E00
0C00
ENDCHAR
STARTCHAR Sacute
ENCODING 346
SWIDTH 602 0
DWIDTH 12 0
BBX 9 18 2 0
BITMAP
0300
0600
0C00
0000
3F00
6100
C000
C000
E000
7000
3C00
0F00
0380
0180
0180
0180
8300
7E00
ENDCHAR
STARTCHAR w
ENCODING 119
SWIDTH 602 0
DWIDTH 12 0
BBX 12 11 0 0
BITMAP
C010
C610
C620
6620
6920
6920
6960
6940
71C0
30C0
30C0
ENDCHAR
STARTCHAR sacute
ENCODING 347
SWIDTH 602 0
DWIDTH 12 0
BBX 8 15 2 0
BITMAP
06
0C
18
00
3E
62
C0
C0
F8
3E
0F
03
03
86
FC
ENDCHAR
STARTCHAR Uring
ENCODING 366
SWIDTH 602 0
DWIDTH 12 0
BBX 9 18 2 0
BITMAP
1C00
1400
1C00
0000
C080
C080
C080
C080
C080
C080
C080
C080
C080
C080
C080
C080
6100
3E00
ENDCHAR
STARTCHAR uring
ENCODING 367
SWIDTH 602 0
DWIDTH 12 0
BBX 9 15 1 0
BITMAP
1C00
1400
1C00
0000
C180
C180
C180
C180
C180
C180
C180
C180
C780
7D80
7980
ENDCHAR
STARTCHAR zdotaccent
ENCODING 380
SWIDTH 602 0
DWIDTH 12 0
BBX 9 15 1 0
BITMAP
0C00
0C00
0000
0000
FF80
0100
0200
0600
0400
0800
1000
2000
6000
4000
FF80
ENDCHAR
STARTCHAR Uhungarumlaut
ENCODING 368
SWIDTH 602 0
DWIDTH 12 0
BBX 9 18 2 0
BITMAP
0D80
1B00
3600
0000
C080
C080
C080
C080
C080
C080
C080
C080
C080
C080
C080
C080
6100
3E00
ENDCHAR
STARTCHAR Zcaron
ENCODING 381
SWIDTH 602 0
DWIDTH 12 0
BBX 10 18 1 0
BITMAP
3180
1B00
0E00
0000
FFC0
01C0
0180
0380
0700
0600
0E00
1C00
1800
3000
7000
6000
C000
FFC0
ENDCHAR
STARTCHAR uhungarumlaut
ENCODING 369
SWIDTH 602 0
DWIDTH 12 0
BBX 9 15 1 0
BITMAP
0D80
1B00
3600
0000
C180
C180
C180
C180
C180
C180
C180
C180
C780
7D80
7980
ENDCHAR
STARTCHAR zcaron
ENCODING 382
SWIDTH 602 0
DWIDTH 12 0
BBX 9 15 1 0
BITMAP
6300
3600
1C00
0000
FF80
0100
0200
0600
0400
0800
1000
2000
6000
4000
FF80
ENDCHAR
STARTCHAR hyphen
ENCODING 173
SWIDTH 602 0
DWIDTH 12 0
BBX 8 1 2 6
BITMAP
FF
ENDCHAR
STARTCHAR uni000A
ENCODING 10
SWIDTH 602 0
DWIDTH 12 0
BBX 10 14 2 0
BITMAP
C180
C300
C200
C400
C800
D800
D000
F800
DC00
CE00
C600
C300
C380
C1C0
ENDCHAR
STARTCHAR uni000B
ENCODING 11
SWIDTH 602 0
DWIDTH 12 0
BBX 3 3 4 0
BITMAP
E0
E0
E0
ENDCHAR
STARTCHAR degree
ENCODING 176
SWIDTH 602 0
DWIDTH 12 0
BBX 3 3 4 11
BITMAP
E0
A0
E0
ENDCHAR
STARTCHAR uni000C
ENCODING 12
SWIDTH 602 0
DWIDTH 12 0
BBX 3 3 4 0
BITMAP
E0
E0
E0
ENDCHAR
STARTCHAR uni000D
ENCODING 13
SWIDTH 602 0
DWIDTH 12 0
BBX 3 3 4 0
BITMAP
E0
E0
E0
ENDCHAR
STARTCHAR Oacute
ENCODING 211
SWIDTH 602 0
DWIDTH 12 0
BBX 11 18 0 0
BITMAP
0600
0C00
1800
0000
1F00
3180
60C0
60C0
C060
C060
C060
C060
C060
C060
60C0
60C0
3180
1F00
ENDCHAR
STARTCHAR uni000E
ENCODING 14
SWIDTH 602 0
DWIDTH 12 0
BBX 3 5 4 9
BITMAP
60
C0
80
E0
E0
ENDCHAR
STARTCHAR Ocircumflex
ENCODING 212
SWIDTH 602 0
DWIDTH 12 0
BBX 11 18 0 0
BITMAP
0E00
1B00
3180
0000
1F00
3180
60C0
60C0
C060
C060
C060
C060
C060
C060
60C0
60C0
3180
1F00
ENDCHAR
STARTCHAR uni000F
ENCODING 15
SWIDTH 602 0
DWIDTH 12 0
BBX 9 11 1 0
BITMAP
0800
0800
0800
0800
0800
FF80
0800
0800
0800
0800
0800
ENDCHAR
STARTCHAR Aacute
ENCODING 193
SWIDTH 602 0
DWIDTH 12 0
BBX 12 18 0 0
BITMAP
0300
0600
0C00
0000
0600
0700
0B00
0B00
0980
1180
1180
10C0
20C0
3FC0
2060
4060
4070
C030
ENDCHAR
STARTCHAR Odieresis
ENCODING 214
SWIDTH 602 0
DWIDTH 12 0
BBX 11 16 0 0
BITMAP
3300
0000
1F00
3180
60C0
60C0
C060
C060
C060
C060
C060
C060
60C0
60C0
3180
1F00
ENDCHAR
STARTCHAR Acircumflex
ENCODING 194
SWIDTH 602 0
DWIDTH 12 0
BBX 12 18 0 0
BITMAP
0700
0D80
18C0
0000
0600
0700
0B00
0B00
0980
1180
1180
10C0
20C0
3FC0
2060
4060
4070
C030
ENDCHAR
STARTCHAR uni001E
ENCODING 30
SWIDTH 602 0
DWIDTH 12 0
BBX 9 14 2 0
BITMAP
C000
C000
C000
C000
C000
C000
C000
C000
C000
C000
C000
C000
C000
FF80
ENDCHAR
STARTCHAR multiply
ENCODING 215
SWIDTH 602 0
DWIDTH 12 0
BBX 10 11 1 0
BITMAP
C040
40C0
2100
1200
1E00
0C00
1E00
3200
2100
C080
80C0
ENDCHAR
STARTCHAR uni0012
ENCODING 18
SWIDTH 602 0
DWIDTH 12 0
BBX 10 1 1 4
BITMAP
FFC0
ENDCHAR
STARTCHAR Adieresis
ENCODING 196
SWIDTH 602 0
DWIDTH 12 0
BBX 12 16 0 0
BITMAP
1980
0000
0600
0700
0B00
0B00
0980
1180
1180
10C0
20C0
3FC0
2060
4060
4070
C030
ENDCHAR
STARTCHAR space
ENCODING 32
SWIDTH 602 0
DWIDTH 12 0
BBX 1 1 0 0
BITMAP
00
ENDCHAR
STARTCHAR exclam
ENCODING 33
SWIDTH 602 0
DWIDTH 12 0
BBX 2 14 5 0
BITMAP
C0
C0
C0
C0
C0
C0
80
80
80
80
00
00
80
80
ENDCHAR
STARTCHAR ccedilla
ENCODING 231
SWIDTH 602 0
DWIDTH 12 0
BBX 9 15 2 -4
BITMAP
1F80
7080
6000
C000
C000
C000
C000
C000
6000
7080
1F80
0800
0400
0400
1C00
ENDCHAR
STARTCHAR Uacute
ENCODING 218
SWIDTH 602 0
DWIDTH 12 0
BBX 9 18 2 0
BITMAP
0C00
1800
3000
0000
C080
C080
C080
C080
C080
C080
C080
C080
C080
C080
C080
C080
6100
3E00
ENDCHAR
STARTCHAR quotedbl
ENCODING 34
SWIDTH 602 0
DWIDTH 12 0
BBX 6 4 3 10
BITMAP
CC
CC
84
84
ENDCHAR
STARTCHAR Ccedilla
ENCODING 199
SWIDTH 602 0
DWIDTH 12 0
BBX 10 18 1 -4
BITMAP
0FC0
3840
6000
6000
C000
C000
C000
C000
C000
C000
6000
6000
3840
0FC0
0400
0200
0200
0E00
ENDCHAR
STARTCHAR numbersign
ENCODING 35
SWIDTH 602 0
DWIDTH 12 0
BBX 11 14 1 0
BITMAP
04C0
0C80
0880
0880
7FE0
1100
1100
1100
FFC0
2200
2200
2200
2400
4400
ENDCHAR
STARTCHAR eacute
ENCODING 233
SWIDTH 602 0
DWIDTH 12 0
BBX 9 15 2 0
BITMAP
0C00
1800
3000
0000
1E00
6300
6180
C180
C180
FF80
C000
C000
4000
6080
1F80
ENDCHAR
STARTCHAR dollar
ENCODING 36
SWIDTH 602 0
DWIDTH 12 0
BBX 7 18 3 -2
BITMAP
10
10
7E
D2
D0
D0
D0
70
38
1C
1E
16
16
16
DC
FC
10
10
ENDCHAR
STARTCHAR two
ENCODING 50
SWIDTH 602 0
DWIDTH 12 0
BBX 8 14 2 0
BITMAP
7C
86
03
03
03
03
06
0C
18
30
60
60
C0
FF
ENDCHAR
STARTCHAR percent
ENCODING 37
SWIDTH 602 0
DWIDTH 12 0
BBX 12 14 0 0
BITMAP
7830
CC60
8440
8480
CD80
7B00
0200
05E0
0B30
1A10
1210
2210
4330
C1E0
ENDCHAR
STARTCHAR edieresis
ENCODING 235
SWIDTH 602 0
DWIDTH 12 0
BBX 9 13 2 0
BITMAP
6600
0000
1E00
6300
6180
C180
C180
FF80
C000
C000
4000
6080
1F80
ENDCHAR
STARTCHAR three
ENCODING 51
SWIDTH 602 0
DWIDTH 12 0
BBX 8 14 2 0
BITMAP
FC
87
03
03
03
06
78
0E
03
03
03
03
86
FC
ENDCHAR
STARTCHAR ampersand
ENCODING 38
SWIDTH 602 0
DWIDTH 12 0
BBX 11 14 1 0
BITMAP
1E00
3300
3300
3300
3600
1C00
3800
4C60
CE60
C640
C7C0
C380
6380
3EE0
ENDCHAR
STARTCHAR four
ENCODING 52
SWIDTH 602 0
DWIDTH 12 0
BBX 10 14 1 0
BITMAP
0300
0700
0700
0B00
1300
3300
2300
4300
C300
FFC0
0300
0300
0300
0300
ENDCHAR
STARTCHAR quotesingle
ENCODING 39
SWIDTH 602 0
DWIDTH 12 0
BBX 3 5 4 9
BITMAP
E0
E0
60
C0
80
ENDCHAR
STARTCHAR uacute
ENCODING 250
SWIDTH 602 0
DWIDTH 12 0
BBX 9 15 1 0
BITMAP
0C00
1800
3000
0000
C180
C180
C180
C180
C180
C180
C180
C180
C780
7D80
7980
ENDCHAR
STARTCHAR iacute
ENCODING 237
SWIDTH 602 0
DWIDTH 12 0
BBX 6 15 2 0
BITMAP
0C
18
30
00
FC
0C
0C
0C
0C
0C
0C
0C
0C
0C
0C
ENDCHAR
STARTCHAR caron
ENCODING 711
SWIDTH 602 0
DWIDTH 12 0
BBX 7 3 2 11
BITMAP
C6
6C
38
ENDCHAR
STARTCHAR five
ENCODING 53
SWIDTH 602 0
DWIDTH 12 0
BBX 7 14 3 0
BITMAP
FE
80
80
80
80
F0
1C
0C
06
06
06
06
8C
F8
ENDCHAR
STARTCHAR icircumflex
ENCODING 238
SWIDTH 602 0
DWIDTH 12 0
BBX 8 15 2 0
BITMAP
1C
36
63
00
FC
0C
0C
0C
0C
0C
0C
0C
0C
0C
0C
ENDCHAR
STARTCHAR six
ENCODING 54
SWIDTH 602 0
DWIDTH 12 0
BBX 9 14 2 0
BITMAP
1F00
3100
6000
4000
C000
DE00
E300
C180
C180
C180
C180
4180
6300
1E00
ENDCHAR
STARTCHAR udieresis
ENCODING 252
SWIDTH 602 0
DWIDTH 12 0
BBX 9 13 1 0
BITMAP
3300
0000
C180
C180
C180
C180
C180
C180
C180
C180
C780
7D80
7980
ENDCHAR
STARTCHAR seven
ENCODING 55
SWIDTH 602 0
DWIDTH 12 0
BBX 9 14 2 0
BITMAP
FF80
FF80
0100
0300
0200
0400
0400
0800
1800
1000
3000
3000
6000
6000
ENDCHAR
STARTCHAR yacute
ENCODING 253
SWIDTH 602 0
DWIDTH 12 0
BBX 11 19 1 -4
BITMAP
0600
0C00
1800
0000
C060
6040
6040
7080
3080
3100
1900
1A00
0E00
0E00
0C00
0400
0800
1800
7000
ENDCHAR
STARTCHAR eight
ENCODING 56
SWIDTH 602 0
DWIDTH 12 0
BBX 9 14 2 0
BITMAP
1E00
3300
6100
6100
7300
3E00
1C00
2F00
4380
C180
C180
C180
6300
3E00
ENDCHAR
STARTCHAR F
ENCODING 70
SWIDTH 602 0
DWIDTH 12 0
BBX 9 14 2 0
BITMAP
FF80
C000
C000
C000
C000
C000
FF00
C000
C000
C000
C000
C000
C000
C000
ENDCHAR
STARTCHAR uni0002
ENCODING 2
SWIDTH 602 0
DWIDTH 12 0
BBX 11 14 1 0
BITMAP
04C0
0C80
0880
0880
7FE0
1100
1100
1100
FFC0
2200
2200
2200
2400
4400
ENDCHAR
STARTCHAR nine
ENCODING 57
SWIDTH 602 0
DWIDTH 12 0
BBX 9 14 2 0
BITMAP
3C00
6300
C100
C180
C180
C180
C180
6380
3D80
0180
0100
0300
4600
7C00
ENDCHAR
STARTCHAR uni0003
ENCODING 3
SWIDTH 602 0
DWIDTH 12 0
BBX 8 14 2 0
BITMAP
FF
18
18
18
18
18
18
18
18
18
18
18
18
FF
ENDCHAR
STARTCHAR G
ENCODING 71
SWIDTH 602 0
DWIDTH 12 0
BBX 10 14 1 0
BITMAP
0FC0
3040
6000
6000
C000
C000
C000
C000
C0C0
C0C0
60C0
60C0
38C0
0FC0
ENDCHAR
STARTCHAR colon
ENCODING 58
SWIDTH 602 0
DWIDTH 12 0
BBX 3 11 4 0
BITMAP
E0
E0
E0
00
00
00
00
00
E0
E0
E0
ENDCHAR
STARTCHAR uni0004
ENCODING 4
SWIDTH 602 0
DWIDTH 12 0
BBX 9 14 2 0
BITMAP
C000
C000
C000
C000
C000
C000
C000
C000
C000
C000
C000
C000
C000
FF80
ENDCHAR
STARTCHAR H
ENCODING 72
SWIDTH 602 0
DWIDTH 12 0
BBX 9 14 1 0
BITMAP
C180
C180
C180
C180
C180
C180
FF80
C180
C180
C180
C180
C180
C180
C180
ENDCHAR
STARTCHAR semicolon
ENCODING 59
SWIDTH 602 0
DWIDTH 12 0
BBX 3 14 4 -3
BITMAP
E0
E0
E0
00
00
00
00
00
E0
E0
E0
20
60
C0
ENDCHAR
STARTCHAR Dcaron
ENCODING 270
SWIDTH 602 0
DWIDTH 12 0
BBX 10 18 1 0
BITMAP
6300
3600
1C00
0000
FE00
C300
C180
C0C0
C0C0
C0C0
C0C0
C0C0
C0C0
C0C0
C180
C180
C300
FE00
ENDCHAR
STARTCHAR ogonek
ENCODING 731
SWIDTH 602 0
DWIDTH 12 0
BBX 3 4 4 -4
BITMAP
40
80
80
E0
ENDCHAR
STARTCHAR uni0005
ENCODING 5
SWIDTH 602 0
DWIDTH 12 0
BBX 10 14 1 0
BITMAP
C0C0
C0C0
E1C0
A140
A140
A140
9240
9240
9240
9240
8C40
8C40
8C40
8040
ENDCHAR
STARTCHAR I
ENCODING 73
SWIDTH 602 0
DWIDTH 12 0
BBX 8 14 2 0
BITMAP
FF
18
18
18
18
18
18
18
18
18
18
18
18
FF
ENDCHAR
STARTCHAR dcaron
ENCODING 271
SWIDTH 602 0
DWIDTH 12 0
BBX 12 14 1 0
BITMAP
01B0
01B0
0190
3DB0
63A0
6180
C180
C180
C180
C180
C180
C380
6780
3D80
ENDCHAR
STARTCHAR Abreve
ENCODING 258
SWIDTH 602 0
DWIDTH 12 0
BBX 12 18 0 0
BITMAP
10C0
0D80
0700
0000
0600
0700
0B00
0B00
0980
1180
1180
10C0
20C0
3FC0
2060
4060
4070
C030
ENDCHAR
STARTCHAR uni0006
ENCODING 6
SWIDTH 602 0
DWIDTH 12 0
BBX 7 14 2 0
BITMAP
7E
06
06
06
06
06
06
06
06
06
06
06
8C
F8
ENDCHAR
STARTCHAR J
ENCODING 74
SWIDTH 602 0
DWIDTH 12 0
BBX 7 14 2 0
BITMAP
7E
06
06
06
06
06
06
06
06
06
06
06
8C
F8
ENDCHAR
STARTCHAR abreve
ENCODING 259
SWIDTH 602 0
DWIDTH 12 0
BBX 10 15 1 0
BITMAP
4300
3600
1C00
0000
7E00
4300
0300
0300
0300
3F00
6300
C300
C300
C700
7DC0
ENDCHAR
STARTCHAR Dcroat
ENCODING 272
SWIDTH 602 0
DWIDTH 12 0
BBX 11 14 0 0
BITMAP
7F00
6180
60C0
6060
6060
6060
F860
6060
6060
6060
60C0
60C0
6180
7F00
ENDCHAR
STARTCHAR hungarumlaut
ENCODING 733
SWIDTH 602 0
DWIDTH 12 0
BBX 7 3 2 11
BITMAP
36
6C
D8
ENDCHAR
STARTCHAR uni0007
ENCODING 7
SWIDTH 602 0
DWIDTH 12 0
BBX 3 3 4 11
BITMAP
E0
A0
E0
ENDCHAR
STARTCHAR K
ENCODING 75
SWIDTH 602 0
DWIDTH 12 0
BBX 10 14 2 0
BITMAP
C180
C300
C200
C400
C800
D800
D000
F800
DC00
CE00
C600
C300
C380
C1C0
ENDCHAR
STARTCHAR dcroat
ENCODING 273
SWIDTH 602 0
DWIDTH 12 0
BBX 10 14 1 0
BITMAP
0180
3FC0
0180
3D80
6380
6180
C180
C180
C180
C180
C180
C380
6780
3D80
ENDCHAR
STARTCHAR L
ENCODING 76
SWIDTH 602 0
DWIDTH 12 0
BBX 9 14 2 0
BITMAP
C000
C000
C000
C000
C000
C000
C000
C000
C000
C000
C000
C000
C000
FF80
ENDCHAR
STARTCHAR Z
ENCODING 90
SWIDTH 602 0
DWIDTH 12 0
BBX 10 14 1 0
BITMAP
FFC0
01C0
0180
0380
0700
0600
0E00
1C00
1800
3000
7000
6000
C000
FFC0
ENDCHAR
STARTCHAR M
ENCODING 77
SWIDTH 602 0
DWIDTH 12 0
BBX 10 14 1 0
BITMAP
C0C0
C0C0
E1C0
A140
A140
A140
9240
9240
9240
9240
8C40
8C40
8C40
8040
ENDCHAR
STARTCHAR bracketleft
ENCODING 91
SWIDTH 602 0
DWIDTH 12 0
BBX 5 17 5 -3
BITMAP
F8
80
80
80
80
80
80
80
80
80
80
80
80
80
80
80
F8
ENDCHAR
STARTCHAR N
ENCODING 78
SWIDTH 602 0
DWIDTH 12 0
BBX 9 14 1 0
BITMAP
C080
E080
E080
F080
B080
9880
9880
8C80
8E80
8680
8780
8380
8180
8180
ENDCHAR
STARTCHAR backslash
ENCODING 92
SWIDTH 602 0
DWIDTH 12 0
BBX 11 17 0 -3
BITMAP
C000
4000
2000
2000
1000
1000
0800
0C00
0400
0600
0200
0100
0100
0080
0080
0040
0060
ENDCHAR
STARTCHAR O
ENCODING 79
SWIDTH 602 0
DWIDTH 12 0
BBX 11 14 0 0
BITMAP
1F00
3180
60C0
60C0
C060
C060
C060
C060
C060
C060
60C0
60C0
3180
1F00
ENDCHAR
STARTCHAR bracketright
ENCODING 93
SWIDTH 602 0
DWIDTH 12 0
BBX 5 17 2 -3
BITMAP
F8
08
08
08
08
08
08
08
08
08
08
08
08
08
08
08
F8
ENDCHAR
STARTCHAR asciicircum
ENCODING 94
SWIDTH 602 0
DWIDTH 12 0
BBX 10 10 1 3
BITMAP
0400
0C00
0C00
1200
1200
2100
2100
4080
4080
C0C0
ENDCHAR
STARTCHAR underscore
ENCODING 95
SWIDTH 602 0
DWIDTH 12 0
BBX 12 1 0 -2
BITMAP
FFF0
ENDCHAR
STARTCHAR Lacute
ENCODING 313
SWIDTH 602 0
DWIDTH 12 0
BBX 9 18 2 0
BITMAP
1800
3000
6000
0000
C000
C000
C000
C000
C000
C000
C000
C000
C000
C000
C000
C000
C000
FF80
ENDCHAR
STARTCHAR grave
ENCODING 96
SWIDTH 602 0
DWIDTH 12 0
BBX 3 5 4 9
BITMAP
60
C0
80
E0
E0
ENDCHAR
STARTCHAR lacute
ENCODING 314
SWIDTH 602 0
DWIDTH 12 0
BBX 6 18 2 0
BITMAP
0C
18
30
00
FC
0C
0C
0C
0C
0C
0C
0C
0C
0C
0C
0C
0C
0C
ENDCHAR
STARTCHAR d
ENCODING 100
SWIDTH 602 0
DWIDTH 12 0
BBX 9 14 1 0
BITMAP
0180
0180
0180
3D80
6380
6180
C180
C180
C180
C180
C180
C380
6780
3D80
ENDCHAR
STARTCHAR a
ENCODING 97
SWIDTH 602 0
DWIDTH 12 0
BBX 10 11 1 0
BITMAP
7E00
4300
0300
0300
0300
3F00
6300
C300
C300
C700
7DC0
ENDCHAR
STARTCHAR e
ENCODING 101
SWIDTH 602 0
DWIDTH 12 0
BBX 9 11 2 0
BITMAP
1E00
6300
6180
C180
C180
FF80
C000
C000
4000
6080
1F80
ENDCHAR
STARTCHAR b
ENCODING 98
SWIDTH 602 0
DWIDTH 12 0
BBX 9 14 2 0
BITMAP
C000
C000
C000
DE00
F300
E180
C180
C180
C180
C180
C180
C300
E300
DE00
ENDCHAR
STARTCHAR f
ENCODING 102
SWIDTH 602 0
DWIDTH 12 0
BBX 10 16 2 0
BITMAP
0FC0
1C00
1800
1800
1800
FFC0
1800
1800
1800
1800
1800
1800
1800
1800
1800
1800
ENDCHAR
STARTCHAR c
ENCODING 99
SWIDTH 602 0
DWIDTH 12 0
BBX 9 11 2 0
BITMAP
1F80
7080
6000
C000
C000
C000
C000
C000
6000
7080
1F80
ENDCHAR
STARTCHAR Lcaron
ENCODING 317
SWIDTH 602 0
DWIDTH 12 0
BBX 9 14 2 0
BITMAP
CC00
CC00
C400
CC00
C800
C000
C000
C000
C000
C000
C000
C000
C000
FF80
ENDCHAR
STARTCHAR g
ENCODING 103
SWIDTH 602 0
DWIDTH 12 0
BBX 9 15 1 -4
BITMAP
1E80
6380
6180
C180
C180
C180
C180
C180
C380
6780
3D80
0180
0180
4300
7E00
ENDCHAR
STARTCHAR lcaron
ENCODING 318
SWIDTH 602 0
DWIDTH 12 0
BBX 10 14 2 0
BITMAP
FCC0
0CC0
0C40
0CC0
0C80
0C00
0C00
0C00
0C00
0C00
0C00
0C00
0C00
0C00
ENDCHAR
STARTCHAR h
ENCODING 104
SWIDTH 602 0
DWIDTH 12 0
BBX 9 14 2 0
BITMAP
C000
C000
C000
CF00
DF80
F180
C180
C180
C180
C180
C180
C180
C180
C180
ENDCHAR
STARTCHAR i
ENCODING 105
SWIDTH 602 0
DWIDTH 12 0
BBX 6 14 2 0
BITMAP
0C
0C
00
FC
0C
0C
0C
0C
0C
0C
0C
0C
0C
0C
ENDCHAR
STARTCHAR j
ENCODING 106
SWIDTH 602 0
DWIDTH 12 0
BBX 7 18 2 -4
BITMAP
06
06
00
7E
06
06
06
06
06
06
06
06
06
06
06
06
8C
F8
ENDCHAR
STARTCHAR x
ENCODING 120
SWIDTH 602 0
DWIDTH 12 0
BBX 10 11 1 0
BITMAP
E080
6100
3100
3A00
1C00
0C00
1E00
1700
2300
6180
C1C0
ENDCHAR
STARTCHAR k
ENCODING 107
SWIDTH 602 0
DWIDTH 12 0
BBX 10 14 2 0
BITMAP
C000
C000
C000
C100
C200
C400
C800
D000
F800
DC00
CE00
C700
C380
C1C0
ENDCHAR
STARTCHAR y
ENCODING 121
SWIDTH 602 0
DWIDTH 12 0
BBX 11 15 1 -4
BITMAP
C060
6040
6040
7080
3080
3100
1900
1A00
0E00
0E00
0C00
0400
0800
1800
7000
ENDCHAR
STARTCHAR l
ENCODING 108
SWIDTH 602 0
DWIDTH 12 0
BBX 6 14 2 0
BITMAP
FC
0C
0C
0C
0C
0C
0C
0C
0C
0C
0C
0C
0C
0C
ENDCHAR
STARTCHAR Ohungarumlaut
ENCODING 336
SWIDTH 602 0
DWIDTH 12 0
BBX 11 18 0 0
BITMAP
06C0
0D80
1B00
0000
1F00
3180
60C0
60C0
C060
C060
C060
C060
C060
C060
60C0
60C0
3180
1F00
ENDCHAR
STARTCHAR z
ENCODING 122
SWIDTH 602 0
DWIDTH 12 0
BBX 9 11 1 0
BITMAP
FF80
0100
0200
0600
0400
0800
1000
2000
6000
4000
FF80
ENDCHAR
STARTCHAR m
ENCODING 109
SWIDTH 602 0
DWIDTH 12 0
BBX 11 11 1 0
BITMAP
B9C0
A720
C620
8420
8420
8420
8420
8420
8420
8420
8420
ENDCHAR
STARTCHAR ohungarumlaut
ENCODING 337
SWIDTH 602 0
DWIDTH 12 0
BBX 10 15 1 0
BITMAP
06C0
0D80
1B00
0000
1E00
7380
6180
C0C0
C0C0
C0C0
C0C0
C0C0
6180
7380
1E00
ENDCHAR
STARTCHAR Scommaaccent
ENCODING 350
SWIDTH 602 0
DWIDTH 12 0
BBX 9 18 2 -4
BITMAP
3F00
6100
C000
C000
E000
7000
3C00
0F00
0380
0180
0180
0180
8300
7E00
0800
0400
0400
1C00
ENDCHAR
STARTCHAR braceleft
ENCODING 123
SWIDTH 602 0
DWIDTH 12 0
BBX 8 17 2 -3
BITMAP
0F
18
18
18
08
08
08
18
E0
18
08
08
18
18
18
18
0F
ENDCHAR
STARTCHAR scommaaccent
ENCODING 351
SWIDTH 602 0
DWIDTH 12 0
BBX 8 15 2 -4
BITMAP
3E
62
C0
C0
F8
3E
0F
03
03
86
FC
10
08
08
38
ENDCHAR
STARTCHAR bar
ENCODING 124
SWIDTH 602 0
DWIDTH 12 0
BBX 1 17 5 -3
BITMAP
80
80
80
80
80
80
80
80
80
80
80
80
80
80
80
80
80
ENDCHAR
STARTCHAR Scaron
ENCODING 352
SWIDTH 602 0
DWIDTH 12 0
BBX 9 18 2 0
BITMAP
3180
1B00
0E00
0000
3F00
6100
C000
C000
E000
7000
3C00
0F00
0380
0180
0180
0180
8300
7E00
ENDCHAR
STARTCHAR braceright
ENCODING 125
SWIDTH 602 0
DWIDTH 12 0
BBX 7 17 2 -3
BITMAP
F0
18
18
18
18
10
10
18
0E
18
10
10
18
18
18
18
F0
ENDCHAR
STARTCHAR scaron
ENCODING 353
SWIDTH 602 0
DWIDTH 12 0
BBX 8 15 2 0
BITMAP
63
36
1C
00
3E
62
C0
C0
F8
3E
0F
03
03
86
FC
ENDCHAR
STARTCHAR asciitilde
ENCODING 126
SWIDTH 602 0
DWIDTH 12 0
BBX 10 5 1 3
BITMAP
7040
5840
8C40
8680
8380
ENDCHAR
STARTCHAR Tcommaaccent
ENCODING 354
SWIDTH 602 0
DWIDTH 12 0
BBX 12 18 0 -4
BITMAP
FFF0
0600
0600
0600
0600
0600
0600
0600
0600
0600
0600
0600
0600
0600
0200
0100
0100
0700
ENDCHAR
STARTCHAR tcommaaccent
ENCODING 355
SWIDTH 602 0
DWIDTH 12 0
BBX 10 17 1 -4
BITMAP
1800
1800
FFC0
1800
1800
1800
1800
1800
1800
1800
1800
1C00
0FC0
0100
0080
0080
0380
ENDCHAR
STARTCHAR Tcaron
ENCODING 356
SWIDTH 602 0
DWIDTH 12 0
BBX 12 18 0 0
BITMAP
18C0
0D80
0700
0000
FFF0
0600
0600
0600
0600
0600
0600
0600
0600
0600
0600
0600
0600
0600
ENDCHAR
STARTCHAR tcaron
ENCODING 357
SWIDTH 602 0
DWIDTH 12 0
BBX 10 16 1 0
BITMAP
00C0
00C0
0040
18C0
1880
FFC0
1800
1800
1800
1800
1800
1800
1800
1800
1C00
0FC0
ENDCHAR
STARTCHAR Zacute
ENCODING 377
SWIDTH 602 0
DWIDTH 12 0
BBX 10 18 1 0
BITMAP
0300
0600
0C00
0000
FFC0
01C0
0180
0380
0700
0600
0E00
1C00
1800
3000
7000
6000
C000
FFC0
ENDCHAR
STARTCHAR zacute
ENCODING 378
SWIDTH 602 0
DWIDTH 12 0
BBX 9 15 1 0
BITMAP
0300
0600
0C00
0000
FF80
0100
0200
0600
0400
0800
1000
2000
6000
4000
FF80
ENDCHAR
STARTCHAR currency
ENCODING 164
SWIDTH 602 0
DWIDTH 12 0
BBX 10 10 1 2
BITMAP
8040
7F80
6180
4080
4080
4080
4080
6180
7F80
8040
ENDCHAR
STARTCHAR Zdotaccent
ENCODING 379
SWIDTH 602 0
DWIDTH 12 0
BBX 10 17 1 0
BITMAP
0C00
0C00
0000
FFC0
01C0
0180
0380
0700
0600
0E00
1C00
1800
3000
7000
6000
C000
FFC0
ENDCHAR
STARTCHAR acute
ENCODING 180
SWIDTH 602 0
DWIDTH 12 0
BBX 4 3 4 11
BITMAP
30
60
C0
ENDCHAR
STARTCHAR section
ENCODING 167
SWIDTH 602 0
DWIDTH 12 0
BBX 8 18 2 -4
BITMAP
3E
42
80
80
E0
F8
FC
8E
82
C2
F2
7C
1E
07
03
03
86
FC
ENDCHAR
STARTCHAR Eacute
ENCODING 201
SWIDTH 602 0
DWIDTH 12 0
BBX 9 18 2 0
BITMAP
0C00
1800
3000
0000
FF80
C000
C000
C000
C000
C000
FF00
C000
C000
C000
C000
C000
C000
FF80
ENDCHAR
STARTCHAR dieresis
ENCODING 168
SWIDTH 602 0
DWIDTH 12 0
BBX 6 1 3 13
BITMAP
CC
ENDCHAR
STARTCHAR Edieresis
ENCODING 203
SWIDTH 602 0
DWIDTH 12 0
BBX 9 16 2 0
BITMAP
6600
0000
FF80
C000
C000
C000
C000
C000
FF00
C000
C000
C000
C000
C000
C000
FF80
ENDCHAR
STARTCHAR cedilla
ENCODING 184
SWIDTH 602 0
DWIDTH 12 0
BBX 3 5 4 -4
BITMAP
C0
40
20
20
E0
ENDCHAR
STARTCHAR Iacute
ENCODING 205
SWIDTH 602 0
DWIDTH 12 0
BBX 8 18 2 0
BITMAP
0C
18
30
00
FF
18
18
18
18
18
18
18
18
18
18
18
18
FF
ENDCHAR
STARTCHAR uni0015
ENCODING 21
SWIDTH 602 0
DWIDTH 12 0
BBX 9 11 1 0
BITMAP
0800
0800
0800
0800
0800
FF80
0800
0800
0800
0800
0800
ENDCHAR
STARTCHAR Icircumflex
ENCODING 206
SWIDTH 602 0
DWIDTH 12 0
BBX 8 18 2 0
BITMAP
38
6C
C6
00
FF
18
18
18
18
18
18
18
18
18
18
18
18
FF
ENDCHAR
STARTCHAR uni0016
ENCODING 22
SWIDTH 602 0
DWIDTH 12 0
BBX 9 11 1 0
BITMAP
0800
0800
0800
0800
0800
FF80
0800
0800
0800
0800
0800
ENDCHAR
STARTCHAR Udieresis
ENCODING 220
SWIDTH 602 0
DWIDTH 12 0
BBX 9 16 2 0
BITMAP
6600
0000
C080
C080
C080
C080
C080
C080
C080
C080
C080
C080
C080
C080
6100
3E00
ENDCHAR
STARTCHAR uni0017
ENCODING 23
SWIDTH 602 0
DWIDTH 12 0
BBX 9 11 1 0
BITMAP
0800
0800
0800
0800
0800
FF80
0800
0800
0800
0800
0800
ENDCHAR
STARTCHAR Yacute
ENCODING 221
SWIDTH 602 0
DWIDTH 12 0
BBX 12 18 0 0
BITMAP
0300
0600
0C00
0000
E030
6020
7040
3080
1880
1D00
0F00
0600
0600
0600
0600
0600
0600
0600
ENDCHAR
STARTCHAR uni0018
ENCODING 24
SWIDTH 602 0
DWIDTH 12 0
BBX 9 11 1 0
BITMAP
0800
0800
0800
0800
0800
FF80
0800
0800
0800
0800
0800
ENDCHAR
STARTCHAR uni0019
ENCODING 25
SWIDTH 602 0
DWIDTH 12 0
BBX 1 17 5 -3
BITMAP
80
80
80
80
80
80
80
80
80
80
80
80
80
80
80
80
80
ENDCHAR
STARTCHAR uni2010
ENCODING 8208
SWIDTH 602 0
DWIDTH 12 0
BBX 10 1 1 4
BITMAP
FFC0
ENDCHAR
STARTCHAR germandbls
ENCODING 223
SWIDTH 602 0
DWIDTH 12 0
BBX 10 16 2 0
BITMAP
7E00
C700
C300
C300
C600
C400
C800
C800
CE00
C700
C380
C1C0
C0C0
C0C0
D0C0
DF80
ENDCHAR
STARTCHAR uni001A
ENCODING 26
SWIDTH 602 0
DWIDTH 12 0
BBX 9 11 0 0
BITMAP
0080
0180
0600
1800
6000
C000
6000
1800
0600
0180
0080
ENDCHAR
STARTCHAR uni001B
ENCODING 27
SWIDTH 602 0
DWIDTH 12 0
BBX 9 11 1 0
BITMAP
8000
C000
3000
0C00
0300
0180
0300
0C00
3000
C000
8000
ENDCHAR
STARTCHAR parenleft
ENCODING 40
SWIDTH 602 0
DWIDTH 12 0
BBX 7 17 3 -3
BITMAP
0E
1C
30
60
60
C0
C0
C0
C0
C0
C0
40
60
20
30
1C
06
ENDCHAR
STARTCHAR aacute
ENCODING 225
SWIDTH 602 0
DWIDTH 12 0
BBX 10 15 1 0
BITMAP
0C00
1800
3000
0000
7E00
4300
0300
0300
0300
3F00
6300
C300
C300
C700
7DC0
ENDCHAR
STARTCHAR uni001C
ENCODING 28
SWIDTH 602 0
DWIDTH 12 0
BBX 9 15 2 -4
BITMAP
DE00
F300
E180
C180
C180
C180
C180
C180
C300
E300
DE00
C000
C000
C000
C000
ENDCHAR
STARTCHAR parenright
ENCODING 41
SWIDTH 602 0
DWIDTH 12 0
BBX 7 17 2 -3
BITMAP
C0
70
18
0C
0C
06
06
06
06
06
06
06
0C
0C
18
70
C0
ENDCHAR
STARTCHAR acircumflex
ENCODING 226
SWIDTH 602 0
DWIDTH 12 0
BBX 10 15 1 0
BITMAP
1C00
3600
6300
0000
7E00
4300
0300
0300
0300
3F00
6300
C300
C300
C700
7DC0
ENDCHAR
STARTCHAR asterisk
ENCODING 42
SWIDTH 602 0
DWIDTH 12 0
BBX 9 8 1 6
BITMAP
0800
0800
C980
F780
0000
3600
7600
2300
ENDCHAR
STARTCHAR plus
ENCODING 43
SWIDTH 602 0
DWIDTH 12 0
BBX 9 11 1 0
BITMAP
0800
0800
0800
0800
0800
FF80
0800
0800
0800
0800
0800
ENDCHAR
STARTCHAR adieresis
ENCODING 228
SWIDTH 602 0
DWIDTH 12 0
BBX 10 13 1 0
BITMAP
3300
0000
7E00
4300
0300
0300
0300
3F00
6300
C300
C300
C700
7DC0
ENDCHAR
STARTCHAR comma
ENCODING 44
SWIDTH 602 0
DWIDTH 12 0
BBX 3 6 4 -3
BITMAP
E0
E0
E0
20
60
C0
ENDCHAR
STARTCHAR hyphen
ENCODING 45
SWIDTH 602 0
DWIDTH 12 0
BBX 10 1 1 4
BITMAP
FFC0
ENDCHAR
STARTCHAR oacute
ENCODING 243
SWIDTH 602 0
DWIDTH 12 0
BBX 10 15 1 0
BITMAP
0600
0C00
1800
0000
1E00
7380
6180
C0C0
C0C0
C0C0
C0C0
C0C0
6180
7380
1E00
ENDCHAR
STARTCHAR period
ENCODING 46
SWIDTH 602 0
DWIDTH 12 0
BBX 3 3 4 0
BITMAP
E0
E0
E0
ENDCHAR
STARTCHAR ocircumflex
ENCODING 244
SWIDTH 602 0
DWIDTH 12 0
BBX 10 15 1 0
BITMAP
1C00
3600
6300
0000
1E00
7380
6180
C0C0
C0C0
C0C0
C0C0
C0C0
6180
7380
1E00
ENDCHAR
STARTCHAR less
ENCODING 60
SWIDTH 602 0
DWIDTH 12 0
BBX 9 11 0 0
BITMAP
0080
0180
0600
1800
6000
C000
6000
1800
0600
0180
0080
ENDCHAR
STARTCHAR slash
ENCODING 47
SWIDTH 602 0
DWIDTH 12 0
BBX 11 17 0 -3
BITMAP
0060
0040
0080
0080
0100
0100
0200
0600
0400
0C00
0800
1000
1000
2000
2000
4000
C000
ENDCHAR
STARTCHAR equal
ENCODING 61
SWIDTH 602 0
DWIDTH 12 0
BBX 10 5 1 3
BITMAP
FFC0
0000
0000
0000
FFC0
ENDCHAR
STARTCHAR zero
ENCODING 48
SWIDTH 602 0
DWIDTH 12 0
BBX 10 14 1 0
BITMAP
1E00
2300
6180
4080
C0C0
C0C0
C0C0
C0C0
C0C0
C0C0
4080
6180
2100
1E00
ENDCHAR
STARTCHAR odieresis
ENCODING 246
SWIDTH 602 0
DWIDTH 12 0
BBX 10 13 1 0
BITMAP
3300
0000
1E00
7380
6180
C0C0
C0C0
C0C0
C0C0
C0C0
6180
7380
1E00
ENDCHAR
STARTCHAR greater
ENCODING 62
SWIDTH 602 0
DWIDTH 12 0
BBX 9 11 1 0
BITMAP
8000
C000
3000
0C00
0300
0180
0300
0C00
3000
C000
8000
ENDCHAR
STARTCHAR one
ENCODING 49
SWIDTH 602 0
DWIDTH 12 0
BBX 10 14 2 0
BITMAP
0400
7C00
8C00
0C00
0C00
0C00
0C00
0C00
0C00
0C00
0C00
0C00
0C00
FFC0
ENDCHAR
STARTCHAR divide
ENCODING 247
SWIDTH 602 0
DWIDTH 12 0
BBX 10 11 1 0
BITMAP
0C00
0C00
0000
0000
0000
FFC0
0000
0000
0000
0C00
0C00
ENDCHAR
STARTCHAR Aogonek
ENCODING 260
SWIDTH 602 0
DWIDTH 12 0
BBX 12 18 0 -4
BITMAP
0600
0700
0B00
0B00
0980
1180
1180
10C0
20C0
3FC0
2060
4060
4070
C030
0020
0040
0040
0070
ENDCHAR
STARTCHAR question
ENCODING 63
SWIDTH 602 0
DWIDTH 12 0
BBX 9 14 2 0
BITMAP
FE00
8300
8180
0180
0100
0200
0400
0800
1800
1800
0000
0000
1800
1800
ENDCHAR
STARTCHAR aogonek
ENCODING 261
SWIDTH 602 0
DWIDTH 12 0
BBX 11 15 1 -4
BITMAP
7E00
4300
0300
0300
0300
3F00
6300
C300
C300
C700
7DC0
0040
0080
0080
00E0
ENDCHAR
STARTCHAR at
ENCODING 64
SWIDTH 602 0
DWIDTH 12 0
BBX 11 14 1 0
BITMAP
0F80
30C0
6040
43C0
8440
8840
8840
88C0
88C0
89C0
4760
4000
3080
1F00
ENDCHAR
STARTCHAR Cacute
ENCODING 262
SWIDTH 602 0
DWIDTH 12 0
BBX 10 18 1 0
BITMAP
0180
0300
0600
0000
0FC0
3840
6000
6000
C000
C000
C000
C000
C000
C000
6000
6000
3840
0FC0
ENDCHAR
STARTCHAR A
ENCODING 65
SWIDTH 602 0
DWIDTH 12 0
BBX 12 14 0 0
BITMAP
0600
0700
0B00
0B00
0980
1180
1180
10C0
20C0
3FC0
2060
4060
4070
C030
ENDCHAR
STARTCHAR cacute
ENCODING 263
SWIDTH 602 0
DWIDTH 12 0
BBX 9 15 2 0
BITMAP
0180
0300
0600
0000
1F80
7080
6000
C000
C000
C000
C000
C000
6000
7080
1F80
ENDCHAR
STARTCHAR B
ENCODING 66
SWIDTH 602 0
DWIDTH 12 0
BBX 9 14 2 0
BITMAP
FE00
C700
C300
C300
C300
C600
FC00
C600
C300
C180
C180
C180
C300
FE00
ENDCHAR
STARTCHAR P
ENCODING 80
SWIDTH 602 0
DWIDTH 12 0
BBX 9 14 2 0
BITMAP
FE00
C380
C180
C180
C180
C180
C300
FC00
C000
C000
C000
C000
C000
C000
ENDCHAR
STARTCHAR C
ENCODING 67
SWIDTH 602 0
DWIDTH 12 0
BBX 10 14 1 0
BITMAP
0FC0
3840
6000
6000
C000
C000
C000
C000
C000
C000
6000
6000
3840
0FC0
ENDCHAR
STARTCHAR Q
ENCODING 81
SWIDTH 602 0
DWIDTH 12 0
BBX 12 17 0 -3
BITMAP
1F00
3180
60C0
60C0
C060
C060
C060
C060
C060
C060
60E0
60C0
31C0
1F80
0180
00F0
0020
ENDCHAR
STARTCHAR D
ENCODING 68
SWIDTH 602 0
DWIDTH 12 0
BBX 10 14 1 0
BITMAP
FE00
C300
C180
C0C0
C0C0
C0C0
C0C0
C0C0
C0C0
C0C0
C180
C180
C300
FE00
ENDCHAR
STARTCHAR R
ENCODING 82
SWIDTH 602 0
DWIDTH 12 0
BBX 10 14 2 0
BITMAP
FC00
C700
C300
C300
C300
C700
FE00
CC00
CC00
C600
C700
C300
C180
C1C0
ENDCHAR
STARTCHAR E
ENCODING 69
SWIDTH 602 0
DWIDTH 12 0
BBX 9 14 2 0
BITMAP
FF80
C000
C000
C000
C000
C000
FF00
C000
C000
C000
C000
C000
C000
FF80
ENDCHAR
STARTCHAR Eogonek
ENCODING 280
SWIDTH 602 0
DWIDTH 12 0
BBX 9 18 2 -4
BITMAP
FF80
C000
C000
C000
C000
C000
FF00
C000
C000
C000
C000
C000
C000
FF80
0100
0200
0200
0380
ENDCHAR
STARTCHAR breve
ENCODING 728
SWIDTH 602 0
DWIDTH 12 0
BBX 7 3 2 11
BITMAP
86
6C
38
ENDCHAR
STARTCHAR S
ENCODING 83
SWIDTH 602 0
DWIDTH 12 0
BBX 9 14 2 0
BITMAP
3F00
6100
C000
C000
E000
7000
3C00
0F00
0380
0180
0180
0180
8300
7E00
ENDCHAR
STARTCHAR dotaccent
ENCODING 729
SWIDTH 602 0
DWIDTH 12 0
BBX 2 2 5 12
BITMAP
C0
C0
ENDCHAR
STARTCHAR eogonek
ENCODING 281
SWIDTH 602 0
DWIDTH 12 0
BBX 9 15 2 -4
BITMAP
1E00
6300
6180
C180
C180
FF80
C000
C000
4000
6080
1F80
0400
0800
0800
0E00
ENDCHAR
STARTCHAR Ccaron
ENCODING 268
SWIDTH 602 0
DWIDTH 12 0
BBX 11 18 1 0
BITMAP
0C60
06C0
0380
0000
0FC0
3840
6000
6000
C000
C000
C000
C000
C000
C000
6000
6000
3840
0FC0
ENDCHAR
STARTCHAR T
ENCODING 84
SWIDTH 602 0
DWIDTH 12 0
BBX 12 14 0 0
BITMAP
FFF0
0600
0600
0600
0600
0600
0600
0600
0600
0600
0600
0600
0600
0600
ENDCHAR
STARTCHAR ccaron
ENCODING 269
SWIDTH 602 0
DWIDTH 12 0
BBX 10 15 2 0
BITMAP
18C0
0D80
0700
0000
1F80
7080
6000
C000
C000
C000
C000
C000
6000
7080
1F80
ENDCHAR
STARTCHAR Ecaron
ENCODING 282
SWIDTH 602 0
DWIDTH 12 0
BBX 9 18 2 0
BITMAP
6300
3600
1C00
0000
FF80
C000
C000
C000
C000
C000
FF00
C000
C000
C000
C000
C000
C000
FF80
ENDCHAR
STARTCHAR U
ENCODING 85
SWIDTH 602 0
DWIDTH 12 0
BBX 9 14 2 0
BITMAP
C080
C080
C080
C080
C080
C080
C080
C080
C080
C080
C080
C080
6100
3E00
ENDCHAR
STARTCHAR ecaron
ENCODING 283
SWIDTH 602 0
DWIDTH 12 0
BBX 9 15 2 0
BITMAP
3180
1B00
0E00
0000
1E00
6300
6180
C180
C180
FF80
C000
C000
4000
6080
1F80
ENDCHAR
STARTCHAR V
ENCODING 86
SWIDTH 602 0
DWIDTH 12 0
BBX 12 14 0 0
BITMAP
C030
6020
6020
6040
3040
3040
3080
1880
1880
1900
0D00
0F00
0E00
0600
ENDCHAR
STARTCHAR W
ENCODING 87
SWIDTH 602 0
DWIDTH 12 0
BBX 12 14 0 0
BITMAP
8010
8610
8610
CE30
CB20
CB20
CB20
4B20
5160
51E0
71E0
71C0
60C0
60C0
ENDCHAR
STARTCHAR X
ENCODING 88
SWIDTH 602 0
DWIDTH 12 0
BBX 12 14 0 0
BITMAP
E020
7040
30C0
1880
1D00
0F00
0600
0700
0B00
1980
11C0
20C0
6060
C070
ENDCHAR
STARTCHAR Y
ENCODING 89
SWIDTH 602 0
DWIDTH 12 0
BBX 12 14 0 0
BITMAP
E030
6020
7040
3080
1880
1D00
0F00
0600
0600
0600
0600
0600
0600
0600
ENDCHAR
ENDFONT
