STARTFONT 2.1
FONT -Adobe-Courier-Bold-R-Normal--12-120-75-75-M-70-iso10646-0400
SIZE 12 75 75
FONTBOUNDINGBOX 8 14 0 -3
COMMENT $XConsortium: courB12.bdf,v 1.11 95/01/26 17:59:55 gildea Exp $
COMMENT 
COMMENT +
COMMENT  Copyright 1984-1989, 1994 Adobe Systems Incorporated.
COMMENT  Copyright 1988, 1994 Digital Equipment Corporation.
COMMENT
COMMENT  Adobe is a trademark of Adobe Systems Incorporated which may be
COMMENT  registered in certain jurisdictions.
COMMENT  Permission to use these trademarks is hereby granted only in
COMMENT  association with the images described in this file.
COMMENT
COMMENT  Permission to use, copy, modify, distribute and sell this software
COMMENT  and its documentation for any purpose and without fee is hereby
COMMENT  granted, provided that the above copyright notices appear in all
COMMENT  copies and that both those copyright notices and this permission
COMMENT  notice appear in supporting documentation, and that the names of
COMMENT  Adobe Systems and Digital Equipment Corporation not be used in
COMMENT  advertising or publicity pertaining to distribution of the software
COMMENT  without specific, written prior permission.  Adobe Systems and
COMMENT  Digital Equipment Corporation make no representations about the
COMMENT  suitability of this software for any purpose.  It is provided "as
COMMENT  is" without express or implied warranty.
COMMENT -
STARTPROPERTIES 27
FONTNAME_REGISTRY ""
FAMILY_NAME "Courier"
FOUNDRY "Adobe"
WEIGHT_NAME "Bold"
SLANT "R"
SETWIDTH_NAME "Normal"
ADD_STYLE_NAME ""
PIXEL_SIZE 12
POINT_SIZE 120
RESOLUTION_X 75
RESOLUTION_Y 75
SPACING "M"
AVERAGE_WIDTH 70
CHARSET_REGISTRY "iso10646"
CHARSET_ENCODING "0400"
CHARSET_COLLECTIONS "ASCII ISO8859-1 ADOBE-STANDARD"
FULL_NAME "Courier Bold"
COPYRIGHT "Copyright (c) 1985,1987 Adobe Systems, Inc., Portions Copyright 1988 Digital Equipment Corp."
FONT_ASCENT 10
FONT_DESCENT 3
CAP_HEIGHT 8
X_HEIGHT 6
_DEC_DEVICE_FONTNAMES "PS=Courier-Bold"
COPYRIGHT2 "Cyrillic and line drawing glyphs copyright 2000 Dmitry Yu. Bolkhovityanov, bolkhov@inp.nsk.su"
SOURCEDATE "Tue Apr 18 11:01:38 2000"
PKGVERSION "1.1"
ASSEMBLER "cvtbdf.pl (Linux)"
ENDPROPERTIES
CHARS 294
STARTCHAR ldcornsqlr
ENCODING 11
SWIDTH 600 0
DWIDTH 7 0
BBX 5 8 0 3
BITMAP
18
18
18
18
18
18
18
F8
ENDCHAR
STARTCHAR ldcornsqur
ENCODING 12
SWIDTH 600 0
DWIDTH 7 0
BBX 5 7 0 -3
BITMAP
F8
18
18
18
18
18
18
ENDCHAR
STARTCHAR ldcornsqul
ENCODING 13
SWIDTH 600 0
DWIDTH 7 0
BBX 4 7 3 -3
BITMAP
F0
C0
C0
C0
C0
C0
C0
ENDCHAR
STARTCHAR ldcornsqll
ENCODING 14
SWIDTH 600 0
DWIDTH 7 0
BBX 4 8 3 3
BITMAP
C0
C0
C0
C0
C0
C0
C0
F0
ENDCHAR
STARTCHAR ldcross
ENCODING 15
SWIDTH 600 0
DWIDTH 7 0
BBX 7 14 0 -3
BITMAP
18
18
18
18
18
18
18
FE
18
18
18
18
18
18
ENDCHAR
STARTCHAR ldhorizontal
ENCODING 18
SWIDTH 600 0
DWIDTH 7 0
BBX 7 1 0 3
BITMAP
FE
ENDCHAR
STARTCHAR ldteelft
ENCODING 21
SWIDTH 600 0
DWIDTH 7 0
BBX 4 14 3 -3
BITMAP
C0
C0
C0
C0
C0
C0
C0
F0
C0
C0
C0
C0
C0
C0
ENDCHAR
STARTCHAR ldteert
ENCODING 22
SWIDTH 600 0
DWIDTH 7 0
BBX 5 14 0 -3
BITMAP
18
18
18
18
18
18
18
F8
18
18
18
18
18
18
ENDCHAR
STARTCHAR ldteebt
ENCODING 23
SWIDTH 600 0
DWIDTH 7 0
BBX 7 8 0 3
BITMAP
18
18
18
18
18
18
18
FE
ENDCHAR
STARTCHAR ldteetp
ENCODING 24
SWIDTH 600 0
DWIDTH 7 0
BBX 7 7 0 -3
BITMAP
FE
18
18
18
18
18
18
ENDCHAR
STARTCHAR ldvertical
ENCODING 25
SWIDTH 600 0
DWIDTH 7 0
BBX 2 14 3 -3
BITMAP
C0
C0
C0
C0
C0
C0
C0
C0
C0
C0
C0
C0
C0
C0
ENDCHAR
STARTCHAR space
ENCODING 32
SWIDTH 600 0
DWIDTH 7 0
BBX 0 0 0 0
BITMAP
ENDCHAR
STARTCHAR exclam
ENCODING 33
SWIDTH 600 0
DWIDTH 7 0
BBX 2 9 3 0
BITMAP
C0
C0
C0
C0
C0
C0
00
C0
C0
ENDCHAR
STARTCHAR quotedbl
ENCODING 34
SWIDTH 600 0
DWIDTH 7 0
BBX 3 3 2 5
BITMAP
A0
A0
A0
ENDCHAR
STARTCHAR numbersign
ENCODING 35
SWIDTH 600 0
DWIDTH 7 0
BBX 5 8 1 0
BITMAP
50
50
F8
50
50
F8
50
50
ENDCHAR
STARTCHAR dollar
ENCODING 36
SWIDTH 600 0
DWIDTH 7 0
BBX 6 12 1 -2
BITMAP
30
30
7C
CC
E0
78
1C
8C
CC
F8
30
30
ENDCHAR
STARTCHAR percent
ENCODING 37
SWIDTH 600 0
DWIDTH 7 0
BBX 7 8 0 0
BITMAP
60
D0
64
18
30
4C
1A
0C
ENDCHAR
STARTCHAR ampersand
ENCODING 38
SWIDTH 600 0
DWIDTH 7 0
BBX 7 8 0 0
BITMAP
38
6C
60
32
7E
CC
CE
7A
ENDCHAR
STARTCHAR quotesingle
ENCODING 39
SWIDTH 600 0
DWIDTH 7 0
BBX 1 3 3 5
BITMAP
80
80
80
ENDCHAR
STARTCHAR parenleft
ENCODING 40
SWIDTH 600 0
DWIDTH 7 0
BBX 4 11 2 -2
BITMAP
10
60
60
C0
C0
C0
C0
C0
60
60
10
ENDCHAR
STARTCHAR parenright
ENCODING 41
SWIDTH 600 0
DWIDTH 7 0
BBX 4 11 2 -2
BITMAP
80
60
60
30
30
30
30
30
60
60
80
ENDCHAR
STARTCHAR asterisk
ENCODING 42
SWIDTH 600 0
DWIDTH 7 0
BBX 5 5 2 4
BITMAP
20
20
F8
70
D8
ENDCHAR
STARTCHAR plus
ENCODING 43
SWIDTH 600 0
DWIDTH 7 0
BBX 6 5 1 1
BITMAP
30
30
FC
30
30
ENDCHAR
STARTCHAR comma
ENCODING 44
SWIDTH 600 0
DWIDTH 7 0
BBX 3 3 2 -1
BITMAP
60
60
C0
ENDCHAR
STARTCHAR minus
ENCODING 45
SWIDTH 600 0
DWIDTH 7 0
BBX 6 1 1 3
BITMAP
FC
ENDCHAR
STARTCHAR period
ENCODING 46
SWIDTH 600 0
DWIDTH 7 0
BBX 2 2 3 0
BITMAP
C0
C0
ENDCHAR
STARTCHAR slash
ENCODING 47
SWIDTH 600 0
DWIDTH 7 0
BBX 5 10 1 -2
BITMAP
08
18
18
30
30
60
60
C0
C0
80
ENDCHAR
STARTCHAR zero
ENCODING 48
SWIDTH 600 0
DWIDTH 7 0
BBX 6 9 1 0
BITMAP
78
CC
CC
CC
CC
CC
CC
CC
78
ENDCHAR
STARTCHAR one
ENCODING 49
SWIDTH 600 0
DWIDTH 7 0
BBX 6 9 1 0
BITMAP
30
F0
30
30
30
30
30
30
FC
ENDCHAR
STARTCHAR two
ENCODING 50
SWIDTH 600 0
DWIDTH 7 0
BBX 6 9 1 0
BITMAP
78
CC
CC
CC
18
30
60
CC
FC
ENDCHAR
STARTCHAR three
ENCODING 51
SWIDTH 600 0
DWIDTH 7 0
BBX 6 9 1 0
BITMAP
78
CC
0C
0C
38
0C
0C
CC
78
ENDCHAR
STARTCHAR four
ENCODING 52
SWIDTH 600 0
DWIDTH 7 0
BBX 6 9 1 0
BITMAP
08
18
38
58
58
98
FC
18
3C
ENDCHAR
STARTCHAR five
ENCODING 53
SWIDTH 600 0
DWIDTH 7 0
BBX 6 9 1 0
BITMAP
F8
C0
C0
C0
F8
0C
0C
CC
F8
ENDCHAR
STARTCHAR six
ENCODING 54
SWIDTH 600 0
DWIDTH 7 0
BBX 6 9 1 0
BITMAP
3C
60
C0
C0
F8
CC
CC
CC
78
ENDCHAR
STARTCHAR seven
ENCODING 55
SWIDTH 600 0
DWIDTH 7 0
BBX 6 9 1 0
BITMAP
FC
CC
18
18
18
30
30
60
60
ENDCHAR
STARTCHAR eight
ENCODING 56
SWIDTH 600 0
DWIDTH 7 0
BBX 6 9 1 0
BITMAP
78
CC
CC
CC
78
CC
CC
CC
78
ENDCHAR
STARTCHAR nine
ENCODING 57
SWIDTH 600 0
DWIDTH 7 0
BBX 6 9 1 0
BITMAP
78
CC
CC
CC
7C
0C
0C
18
F0
ENDCHAR
STARTCHAR colon
ENCODING 58
SWIDTH 600 0
DWIDTH 7 0
BBX 2 6 3 0
BITMAP
C0
C0
00
00
C0
C0
ENDCHAR
STARTCHAR semicolon
ENCODING 59
SWIDTH 600 0
DWIDTH 7 0
BBX 3 7 2 -1
BITMAP
60
60
00
00
60
60
C0
ENDCHAR
STARTCHAR less
ENCODING 60
SWIDTH 600 0
DWIDTH 7 0
BBX 5 7 1 0
BITMAP
18
30
60
C0
60
30
18
ENDCHAR
STARTCHAR equal
ENCODING 61
SWIDTH 600 0
DWIDTH 7 0
BBX 6 3 1 2
BITMAP
FC
00
FC
ENDCHAR
STARTCHAR greater
ENCODING 62
SWIDTH 600 0
DWIDTH 7 0
BBX 5 7 2 0
BITMAP
C0
60
30
18
30
60
C0
ENDCHAR
STARTCHAR question
ENCODING 63
SWIDTH 600 0
DWIDTH 7 0
BBX 6 8 1 0
BITMAP
78
CC
CC
18
30
00
30
30
ENDCHAR
STARTCHAR at
ENCODING 64
SWIDTH 600 0
DWIDTH 7 0
BBX 6 8 1 0
BITMAP
70
D8
98
A8
A8
9C
C0
70
ENDCHAR
STARTCHAR A
ENCODING 65
SWIDTH 600 0
DWIDTH 7 0
BBX 8 8 0 0
BITMAP
38
18
34
34
3C
66
66
E7
ENDCHAR
STARTCHAR B
ENCODING 66
SWIDTH 600 0
DWIDTH 7 0
BBX 7 8 0 0
BITMAP
FC
66
66
7C
66
66
66
FC
ENDCHAR
STARTCHAR C
ENCODING 67
SWIDTH 600 0
DWIDTH 7 0
BBX 6 8 1 0
BITMAP
78
CC
CC
C0
C0
CC
CC
78
ENDCHAR
STARTCHAR D
ENCODING 68
SWIDTH 600 0
DWIDTH 7 0
BBX 7 8 0 0
BITMAP
FC
66
66
66
66
66
66
FC
ENDCHAR
STARTCHAR E
ENCODING 69
SWIDTH 600 0
DWIDTH 7 0
BBX 6 8 1 0
BITMAP
FC
64
60
78
68
60
64
FC
ENDCHAR
STARTCHAR F
ENCODING 70
SWIDTH 600 0
DWIDTH 7 0
BBX 6 8 1 0
BITMAP
FC
64
60
78
68
60
60
F0
ENDCHAR
STARTCHAR G
ENCODING 71
SWIDTH 600 0
DWIDTH 7 0
BBX 6 8 1 0
BITMAP
78
CC
CC
C0
DC
CC
CC
78
ENDCHAR
STARTCHAR H
ENCODING 72
SWIDTH 600 0
DWIDTH 7 0
BBX 8 8 0 0
BITMAP
F7
66
66
7E
66
66
66
F7
ENDCHAR
STARTCHAR I
ENCODING 73
SWIDTH 600 0
DWIDTH 7 0
BBX 6 8 1 0
BITMAP
FC
30
30
30
30
30
30
FC
ENDCHAR
STARTCHAR J
ENCODING 74
SWIDTH 600 0
DWIDTH 7 0
BBX 6 8 1 0
BITMAP
7C
18
18
18
18
D8
D8
70
ENDCHAR
STARTCHAR K
ENCODING 75
SWIDTH 600 0
DWIDTH 7 0
BBX 8 8 0 0
BITMAP
F6
6C
68
70
78
6C
66
F7
ENDCHAR
STARTCHAR L
ENCODING 76
SWIDTH 600 0
DWIDTH 7 0
BBX 6 8 0 0
BITMAP
F0
60
60
60
60
60
64
FC
ENDCHAR
STARTCHAR M
ENCODING 77
SWIDTH 600 0
DWIDTH 7 0
BBX 8 8 0 0
BITMAP
E3
76
76
7A
6A
6A
62
E3
ENDCHAR
STARTCHAR N
ENCODING 78
SWIDTH 600 0
DWIDTH 7 0
BBX 8 8 0 0
BITMAP
E7
62
72
7A
5E
4E
46
E6
ENDCHAR
STARTCHAR O
ENCODING 79
SWIDTH 600 0
DWIDTH 7 0
BBX 6 8 1 0
BITMAP
78
CC
CC
CC
CC
CC
CC
78
ENDCHAR
STARTCHAR P
ENCODING 80
SWIDTH 600 0
DWIDTH 7 0
BBX 7 8 0 0
BITMAP
FC
66
66
66
7C
60
60
F8
ENDCHAR
STARTCHAR Q
ENCODING 81
SWIDTH 600 0
DWIDTH 7 0
BBX 6 10 1 -2
BITMAP
78
CC
CC
CC
CC
CC
CC
78
34
6C
ENDCHAR
STARTCHAR R
ENCODING 82
SWIDTH 600 0
DWIDTH 7 0
BBX 8 8 0 0
BITMAP
FC
66
66
7C
6C
66
66
F7
ENDCHAR
STARTCHAR S
ENCODING 83
SWIDTH 600 0
DWIDTH 7 0
BBX 6 8 1 0
BITMAP
7C
CC
C0
F0
3C
0C
CC
F8
ENDCHAR
STARTCHAR T
ENCODING 84
SWIDTH 600 0
DWIDTH 7 0
BBX 6 8 1 0
BITMAP
FC
B4
30
30
30
30
30
78
ENDCHAR
STARTCHAR U
ENCODING 85
SWIDTH 600 0
DWIDTH 7 0
BBX 8 8 0 0
BITMAP
F7
66
66
66
66
66
66
3C
ENDCHAR
STARTCHAR V
ENCODING 86
SWIDTH 600 0
DWIDTH 7 0
BBX 8 8 0 0
BITMAP
F7
66
76
34
38
38
18
10
ENDCHAR
STARTCHAR W
ENCODING 87
SWIDTH 600 0
DWIDTH 7 0
BBX 8 8 0 0
BITMAP
F7
62
6A
6A
6A
7E
3C
34
ENDCHAR
STARTCHAR X
ENCODING 88
SWIDTH 600 0
DWIDTH 7 0
BBX 8 8 0 0
BITMAP
EF
66
34
18
38
34
66
EF
ENDCHAR
STARTCHAR Y
ENCODING 89
SWIDTH 600 0
DWIDTH 7 0
BBX 8 8 0 0
BITMAP
E7
66
34
38
18
18
18
3C
ENDCHAR
STARTCHAR Z
ENCODING 90
SWIDTH 600 0
DWIDTH 7 0
BBX 6 8 1 0
BITMAP
FC
CC
9C
38
70
E4
CC
FC
ENDCHAR
STARTCHAR bracketleft
ENCODING 91
SWIDTH 600 0
DWIDTH 7 0
BBX 3 11 2 -2
BITMAP
E0
C0
C0
C0
C0
C0
C0
C0
C0
C0
E0
ENDCHAR
STARTCHAR backslash
ENCODING 92
SWIDTH 600 0
DWIDTH 7 0
BBX 5 10 2 -2
BITMAP
80
C0
C0
60
60
30
30
18
18
08
ENDCHAR
STARTCHAR bracketright
ENCODING 93
SWIDTH 600 0
DWIDTH 7 0
BBX 3 11 2 -2
BITMAP
E0
60
60
60
60
60
60
60
60
60
E0
ENDCHAR
STARTCHAR asciicircum
ENCODING 94
SWIDTH 600 0
DWIDTH 7 0
BBX 6 3 1 5
BITMAP
30
78
CC
ENDCHAR
STARTCHAR underscore
ENCODING 95
SWIDTH 600 0
DWIDTH 7 0
BBX 7 1 0 -2
BITMAP
FE
ENDCHAR
STARTCHAR grave
ENCODING 96
SWIDTH 600 0
DWIDTH 7 0
BBX 3 2 1 7
BITMAP
C0
60
ENDCHAR
STARTCHAR a
ENCODING 97
SWIDTH 600 0
DWIDTH 7 0
BBX 7 6 1 0
BITMAP
78
0C
7C
CC
CC
7E
ENDCHAR
STARTCHAR b
ENCODING 98
SWIDTH 600 0
DWIDTH 7 0
BBX 7 9 0 0
BITMAP
E0
60
60
7C
66
66
66
66
FC
ENDCHAR
STARTCHAR c
ENCODING 99
SWIDTH 600 0
DWIDTH 7 0
BBX 6 6 1 0
BITMAP
7C
CC
C0
C0
CC
78
ENDCHAR
STARTCHAR d
ENCODING 100
SWIDTH 600 0
DWIDTH 7 0
BBX 7 9 1 0
BITMAP
1C
0C
0C
7C
CC
CC
CC
CC
7E
ENDCHAR
STARTCHAR e
ENCODING 101
SWIDTH 600 0
DWIDTH 7 0
BBX 6 6 1 0
BITMAP
78
CC
FC
C0
CC
78
ENDCHAR
STARTCHAR f
ENCODING 102
SWIDTH 600 0
DWIDTH 7 0
BBX 7 9 1 0
BITMAP
1E
30
30
FC
30
30
30
30
FC
ENDCHAR
STARTCHAR g
ENCODING 103
SWIDTH 600 0
DWIDTH 7 0
BBX 7 9 1 -3
BITMAP
76
CC
CC
CC
CC
7C
0C
0C
78
ENDCHAR
STARTCHAR h
ENCODING 104
SWIDTH 600 0
DWIDTH 7 0
BBX 7 9 0 0
BITMAP
E0
60
60
6C
76
66
66
66
EE
ENDCHAR
STARTCHAR i
ENCODING 105
SWIDTH 600 0
DWIDTH 7 0
BBX 6 9 1 0
BITMAP
30
00
00
F0
30
30
30
30
FC
ENDCHAR
STARTCHAR j
ENCODING 106
SWIDTH 600 0
DWIDTH 7 0
BBX 4 12 1 -3
BITMAP
30
00
00
F0
30
30
30
30
30
30
30
E0
ENDCHAR
STARTCHAR k
ENCODING 107
SWIDTH 600 0
DWIDTH 7 0
BBX 8 9 0 0
BITMAP
E0
60
60
66
6C
78
78
6C
E7
ENDCHAR
STARTCHAR l
ENCODING 108
SWIDTH 600 0
DWIDTH 7 0
BBX 6 9 1 0
BITMAP
F0
30
30
30
30
30
30
30
FC
ENDCHAR
STARTCHAR m
ENCODING 109
SWIDTH 600 0
DWIDTH 7 0
BBX 7 6 0 0
BITMAP
D4
7E
6A
6A
6A
EA
ENDCHAR
STARTCHAR n
ENCODING 110
SWIDTH 600 0
DWIDTH 7 0
BBX 7 6 0 0
BITMAP
DC
76
66
66
66
F6
ENDCHAR
STARTCHAR o
ENCODING 111
SWIDTH 600 0
DWIDTH 7 0
BBX 6 6 1 0
BITMAP
78
CC
CC
CC
CC
78
ENDCHAR
STARTCHAR p
ENCODING 112
SWIDTH 600 0
DWIDTH 7 0
BBX 7 9 0 -3
BITMAP
DC
66
66
66
66
7C
60
60
F0
ENDCHAR
STARTCHAR q
ENCODING 113
SWIDTH 600 0
DWIDTH 7 0
BBX 7 9 1 -3
BITMAP
76
CC
CC
CC
CC
7C
0C
0C
1E
ENDCHAR
STARTCHAR r
ENCODING 114
SWIDTH 600 0
DWIDTH 7 0
BBX 6 6 1 0
BITMAP
DC
74
60
60
60
F8
ENDCHAR
STARTCHAR s
ENCODING 115
SWIDTH 600 0
DWIDTH 7 0
BBX 6 6 1 0
BITMAP
7C
E4
78
1C
CC
78
ENDCHAR
STARTCHAR t
ENCODING 116
SWIDTH 600 0
DWIDTH 7 0
BBX 6 8 1 0
BITMAP
60
60
FC
60
60
60
64
38
ENDCHAR
STARTCHAR u
ENCODING 117
SWIDTH 600 0
DWIDTH 7 0
BBX 8 6 0 0
BITMAP
EE
66
66
66
66
3B
ENDCHAR
STARTCHAR v
ENCODING 118
SWIDTH 600 0
DWIDTH 7 0
BBX 8 6 0 0
BITMAP
F7
66
34
3C
18
18
ENDCHAR
STARTCHAR w
ENCODING 119
SWIDTH 600 0
DWIDTH 7 0
BBX 8 6 0 0
BITMAP
F7
62
6A
7A
3C
34
ENDCHAR
STARTCHAR x
ENCODING 120
SWIDTH 600 0
DWIDTH 7 0
BBX 6 6 1 0
BITMAP
EC
78
30
78
EC
CC
ENDCHAR
STARTCHAR y
ENCODING 121
SWIDTH 600 0
DWIDTH 7 0
BBX 8 9 0 -3
BITMAP
F7
66
64
3C
38
18
30
30
78
ENDCHAR
STARTCHAR z
ENCODING 122
SWIDTH 600 0
DWIDTH 7 0
BBX 6 6 1 0
BITMAP
FC
D8
30
60
EC
FC
ENDCHAR
STARTCHAR braceleft
ENCODING 123
SWIDTH 600 0
DWIDTH 7 0
BBX 4 11 2 -2
BITMAP
30
60
60
60
60
C0
60
60
60
60
30
ENDCHAR
STARTCHAR bar
ENCODING 124
SWIDTH 600 0
DWIDTH 7 0
BBX 2 10 3 -2
BITMAP
C0
C0
C0
C0
C0
C0
C0
C0
C0
C0
ENDCHAR
STARTCHAR braceright
ENCODING 125
SWIDTH 600 0
DWIDTH 7 0
BBX 4 11 2 -2
BITMAP
C0
60
60
60
60
30
60
60
60
60
C0
ENDCHAR
STARTCHAR asciitilde
ENCODING 126
SWIDTH 600 0
DWIDTH 7 0
BBX 6 3 1 2
BITMAP
64
FC
98
ENDCHAR
STARTCHAR space
ENCODING 160
SWIDTH 600 0
DWIDTH 7 0
BBX 0 0 0 0
BITMAP
ENDCHAR
STARTCHAR exclamdown
ENCODING 161
SWIDTH 600 0
DWIDTH 7 0
BBX 2 9 3 -3
BITMAP
C0
C0
00
C0
C0
C0
C0
C0
C0
ENDCHAR
STARTCHAR cent
ENCODING 162
SWIDTH 600 0
DWIDTH 7 0
BBX 6 9 1 -1
BITMAP
30
30
78
CC
C0
CC
78
30
30
ENDCHAR
STARTCHAR sterling
ENCODING 163
SWIDTH 600 0
DWIDTH 7 0
BBX 6 8 1 0
BITMAP
3C
6C
60
F8
60
60
CC
F8
ENDCHAR
STARTCHAR currency
ENCODING 164
SWIDTH 600 0
DWIDTH 7 0
BBX 6 6 1 1
BITMAP
CC
78
48
48
78
CC
ENDCHAR
STARTCHAR yen
ENCODING 165
SWIDTH 600 0
DWIDTH 7 0
BBX 8 8 0 0
BITMAP
FF
66
34
7E
18
7E
18
3C
ENDCHAR
STARTCHAR brokenbar
ENCODING 166
SWIDTH 600 0
DWIDTH 7 0
BBX 2 10 3 -2
BITMAP
C0
C0
C0
C0
00
00
C0
C0
C0
C0
ENDCHAR
STARTCHAR section
ENCODING 167
SWIDTH 600 0
DWIDTH 7 0
BBX 6 10 1 -1
BITMAP
3C
64
60
B8
8C
C4
74
18
98
F0
ENDCHAR
STARTCHAR dieresis
ENCODING 168
SWIDTH 600 0
DWIDTH 7 0
BBX 4 2 2 7
BITMAP
90
90
ENDCHAR
STARTCHAR copyright
ENCODING 169
SWIDTH 600 0
DWIDTH 7 0
BBX 7 8 0 0
BITMAP
38
44
9A
A2
A2
9A
44
38
ENDCHAR
STARTCHAR ordfeminine
ENCODING 170
SWIDTH 600 0
DWIDTH 7 0
BBX 4 6 1 3
BITMAP
E0
20
E0
B0
00
F0
ENDCHAR
STARTCHAR guillemotleft
ENCODING 171
SWIDTH 600 0
DWIDTH 7 0
BBX 7 5 0 0
BITMAP
36
6C
D8
6C
36
ENDCHAR
STARTCHAR logicalnot
ENCODING 172
SWIDTH 600 0
DWIDTH 7 0
BBX 5 3 1 2
BITMAP
F8
08
08
ENDCHAR
STARTCHAR hyphen
ENCODING 173
SWIDTH 600 0
DWIDTH 7 0
BBX 5 1 1 3
BITMAP
F8
ENDCHAR
STARTCHAR registered
ENCODING 174
SWIDTH 600 0
DWIDTH 7 0
BBX 7 8 0 0
BITMAP
38
44
B2
AA
B2
AA
44
38
ENDCHAR
STARTCHAR macron
ENCODING 175
SWIDTH 600 0
DWIDTH 7 0
BBX 5 1 1 7
BITMAP
F8
ENDCHAR
STARTCHAR degree
ENCODING 176
SWIDTH 600 0
DWIDTH 7 0
BBX 4 4 2 4
BITMAP
60
90
90
60
ENDCHAR
STARTCHAR plusminus
ENCODING 177
SWIDTH 600 0
DWIDTH 7 0
BBX 6 5 1 1
BITMAP
30
FC
30
00
FC
ENDCHAR
STARTCHAR twosuperior
ENCODING 178
SWIDTH 600 0
DWIDTH 7 0
BBX 4 5 2 3
BITMAP
E0
30
60
C0
F0
ENDCHAR
STARTCHAR threesuperior
ENCODING 179
SWIDTH 600 0
DWIDTH 7 0
BBX 4 5 2 3
BITMAP
E0
30
E0
30
E0
ENDCHAR
STARTCHAR acute
ENCODING 180
SWIDTH 600 0
DWIDTH 7 0
BBX 3 2 3 7
BITMAP
60
C0
ENDCHAR
STARTCHAR mu
ENCODING 181
SWIDTH 600 0
DWIDTH 7 0
BBX 8 9 0 -3
BITMAP
EE
66
66
66
66
7B
60
60
60
ENDCHAR
STARTCHAR paragraph
ENCODING 182
SWIDTH 600 0
DWIDTH 7 0
BBX 7 10 0 -1
BITMAP
3E
74
94
94
74
34
14
14
14
3E
ENDCHAR
STARTCHAR periodcentered
ENCODING 183
SWIDTH 600 0
DWIDTH 7 0
BBX 2 2 3 3
BITMAP
C0
C0
ENDCHAR
STARTCHAR cedilla
ENCODING 184
SWIDTH 600 0
DWIDTH 7 0
BBX 5 3 1 -3
BITMAP
30
98
70
ENDCHAR
STARTCHAR onesuperior
ENCODING 185
SWIDTH 600 0
DWIDTH 7 0
BBX 4 5 2 3
BITMAP
60
E0
60
60
F0
ENDCHAR
STARTCHAR ordmasculine
ENCODING 186
SWIDTH 600 0
DWIDTH 7 0
BBX 4 6 1 3
BITMAP
60
90
90
60
00
F0
ENDCHAR
STARTCHAR guillemotright
ENCODING 187
SWIDTH 600 0
DWIDTH 7 0
BBX 7 5 0 0
BITMAP
D8
6C
36
6C
D8
ENDCHAR
STARTCHAR onequarter
ENCODING 188
SWIDTH 600 0
DWIDTH 7 0
BBX 8 10 0 -1
BITMAP
60
E1
62
64
F8
12
26
4A
9F
06
ENDCHAR
STARTCHAR onehalf
ENCODING 189
SWIDTH 600 0
DWIDTH 7 0
BBX 8 10 0 -1
BITMAP
60
E1
62
64
F8
16
2B
46
8C
0F
ENDCHAR
STARTCHAR threequarters
ENCODING 190
SWIDTH 600 0
DWIDTH 7 0
BBX 8 10 0 -1
BITMAP
E0
31
E2
34
E8
12
26
4A
9F
06
ENDCHAR
STARTCHAR questiondown
ENCODING 191
SWIDTH 600 0
DWIDTH 7 0
BBX 6 9 1 -3
BITMAP
30
30
00
30
30
60
CC
CC
78
ENDCHAR
STARTCHAR Agrave
ENCODING 192
SWIDTH 600 0
DWIDTH 7 0
BBX 8 11 0 0
BITMAP
30
18
00
38
18
34
34
3C
66
66
E7
ENDCHAR
STARTCHAR Aacute
ENCODING 193
SWIDTH 600 0
DWIDTH 7 0
BBX 8 11 0 0
BITMAP
0C
18
00
38
18
34
34
3C
66
66
E7
ENDCHAR
STARTCHAR Acircumflex
ENCODING 194
SWIDTH 600 0
DWIDTH 7 0
BBX 8 11 0 0
BITMAP
18
34
00
38
18
34
34
3C
66
66
E7
ENDCHAR
STARTCHAR Atilde
ENCODING 195
SWIDTH 600 0
DWIDTH 7 0
BBX 8 11 0 0
BITMAP
1A
34
00
38
18
34
34
3C
24
66
E7
ENDCHAR
STARTCHAR Adieresis
ENCODING 196
SWIDTH 600 0
DWIDTH 7 0
BBX 8 10 0 0
BITMAP
66
00
38
18
34
34
3C
66
66
E7
ENDCHAR
STARTCHAR Aring
ENCODING 197
SWIDTH 600 0
DWIDTH 7 0
BBX 8 11 0 0
BITMAP
18
34
18
18
18
34
34
3C
66
66
E7
ENDCHAR
STARTCHAR AE
ENCODING 198
SWIDTH 600 0
DWIDTH 7 0
BBX 7 8 0 0
BITMAP
1E
38
28
6E
78
D8
D8
DE
ENDCHAR
STARTCHAR Ccedilla
ENCODING 199
SWIDTH 600 0
DWIDTH 7 0
BBX 6 11 1 -3
BITMAP
78
CC
CC
C0
C0
CC
CC
78
30
98
70
ENDCHAR
STARTCHAR Egrave
ENCODING 200
SWIDTH 600 0
DWIDTH 7 0
BBX 6 11 1 0
BITMAP
60
30
00
FC
64
60
78
68
64
64
FC
ENDCHAR
STARTCHAR Eacute
ENCODING 201
SWIDTH 600 0
DWIDTH 7 0
BBX 6 11 1 0
BITMAP
18
30
00
FC
64
60
78
68
64
64
FC
ENDCHAR
STARTCHAR Ecircumflex
ENCODING 202
SWIDTH 600 0
DWIDTH 7 0
BBX 6 11 1 0
BITMAP
30
68
00
FC
64
60
78
68
64
64
FC
ENDCHAR
STARTCHAR Edieresis
ENCODING 203
SWIDTH 600 0
DWIDTH 7 0
BBX 6 10 1 0
BITMAP
CC
00
FC
64
60
78
68
64
64
FC
ENDCHAR
STARTCHAR Igrave
ENCODING 204
SWIDTH 600 0
DWIDTH 7 0
BBX 6 11 1 0
BITMAP
60
30
00
FC
30
30
30
30
30
30
FC
ENDCHAR
STARTCHAR Iacute
ENCODING 205
SWIDTH 600 0
DWIDTH 7 0
BBX 6 11 1 0
BITMAP
18
30
00
FC
30
30
30
30
30
30
FC
ENDCHAR
STARTCHAR Icircumflex
ENCODING 206
SWIDTH 600 0
DWIDTH 7 0
BBX 6 11 1 0
BITMAP
30
68
00
FC
30
30
30
30
30
30
FC
ENDCHAR
STARTCHAR Idieresis
ENCODING 207
SWIDTH 600 0
DWIDTH 7 0
BBX 6 10 1 0
BITMAP
CC
00
FC
30
30
30
30
30
30
FC
ENDCHAR
STARTCHAR Eth
ENCODING 208
SWIDTH 600 0
DWIDTH 7 0
BBX 7 8 0 0
BITMAP
FC
66
66
F6
66
66
66
FC
ENDCHAR
STARTCHAR Ntilde
ENCODING 209
SWIDTH 600 0
DWIDTH 7 0
BBX 8 11 0 0
BITMAP
1A
34
00
E7
62
72
5A
5A
4E
46
E6
ENDCHAR
STARTCHAR Ograve
ENCODING 210
SWIDTH 600 0
DWIDTH 7 0
BBX 6 11 1 0
BITMAP
60
30
00
78
CC
CC
CC
CC
CC
CC
78
ENDCHAR
STARTCHAR Oacute
ENCODING 211
SWIDTH 600 0
DWIDTH 7 0
BBX 6 11 1 0
BITMAP
18
30
00
78
CC
CC
CC
CC
CC
CC
78
ENDCHAR
STARTCHAR Ocircumflex
ENCODING 212
SWIDTH 600 0
DWIDTH 7 0
BBX 6 11 1 0
BITMAP
30
68
00
78
CC
CC
CC
CC
CC
CC
78
ENDCHAR
STARTCHAR Otilde
ENCODING 213
SWIDTH 600 0
DWIDTH 7 0
BBX 6 11 1 0
BITMAP
34
68
00
78
CC
CC
CC
CC
CC
CC
78
ENDCHAR
STARTCHAR Odieresis
ENCODING 214
SWIDTH 600 0
DWIDTH 7 0
BBX 6 10 1 0
BITMAP
CC
00
78
CC
CC
CC
CC
CC
CC
78
ENDCHAR
STARTCHAR multiply
ENCODING 215
SWIDTH 600 0
DWIDTH 7 0
BBX 6 5 1 1
BITMAP
CC
78
30
78
CC
ENDCHAR
STARTCHAR Oslash
ENCODING 216
SWIDTH 600 0
DWIDTH 7 0
BBX 8 8 0 0
BITMAP
3D
66
66
6E
76
66
66
BC
ENDCHAR
STARTCHAR Ugrave
ENCODING 217
SWIDTH 600 0
DWIDTH 7 0
BBX 8 11 0 0
BITMAP
30
18
00
F7
66
66
66
66
66
66
3C
ENDCHAR
STARTCHAR Uacute
ENCODING 218
SWIDTH 600 0
DWIDTH 7 0
BBX 8 11 0 0
BITMAP
0C
18
00
F7
66
66
66
66
66
66
3C
ENDCHAR
STARTCHAR Ucircumflex
ENCODING 219
SWIDTH 600 0
DWIDTH 7 0
BBX 8 11 0 0
BITMAP
18
34
00
F7
66
66
66
66
66
66
3C
ENDCHAR
STARTCHAR Udieresis
ENCODING 220
SWIDTH 600 0
DWIDTH 7 0
BBX 8 10 0 0
BITMAP
66
00
F7
66
66
66
66
66
66
3C
ENDCHAR
STARTCHAR Yacute
ENCODING 221
SWIDTH 600 0
DWIDTH 7 0
BBX 8 11 0 0
BITMAP
0C
18
00
E7
66
34
38
18
18
18
3C
ENDCHAR
STARTCHAR Thorn
ENCODING 222
SWIDTH 600 0
DWIDTH 7 0
BBX 7 8 0 0
BITMAP
F0
60
7C
66
66
7C
60
F0
ENDCHAR
STARTCHAR germandbls
ENCODING 223
SWIDTH 600 0
DWIDTH 7 0
BBX 7 9 0 0
BITMAP
38
6C
6C
6C
78
6C
66
76
EC
ENDCHAR
STARTCHAR agrave
ENCODING 224
SWIDTH 600 0
DWIDTH 7 0
BBX 7 9 1 0
BITMAP
30
18
00
78
0C
7C
CC
CC
7E
ENDCHAR
STARTCHAR aacute
ENCODING 225
SWIDTH 600 0
DWIDTH 7 0
BBX 7 9 1 0
BITMAP
18
30
00
78
0C
7C
CC
CC
7E
ENDCHAR
STARTCHAR acircumflex
ENCODING 226
SWIDTH 600 0
DWIDTH 7 0
BBX 7 9 1 0
BITMAP
30
68
00
78
0C
7C
CC
CC
7E
ENDCHAR
STARTCHAR atilde
ENCODING 227
SWIDTH 600 0
DWIDTH 7 0
BBX 7 9 1 0
BITMAP
34
68
00
78
0C
7C
CC
CC
7E
ENDCHAR
STARTCHAR adieresis
ENCODING 228
SWIDTH 600 0
DWIDTH 7 0
BBX 7 8 1 0
BITMAP
6C
00
78
0C
7C
CC
CC
7E
ENDCHAR
STARTCHAR aring
ENCODING 229
SWIDTH 600 0
DWIDTH 7 0
BBX 7 10 1 0
BITMAP
30
68
30
00
78
0C
7C
CC
CC
7E
ENDCHAR
STARTCHAR ae
ENCODING 230
SWIDTH 600 0
DWIDTH 7 0
BBX 7 6 0 0
BITMAP
6C
1A
7E
D8
DA
6C
ENDCHAR
STARTCHAR ccedilla
ENCODING 231
SWIDTH 600 0
DWIDTH 7 0
BBX 6 9 1 -3
BITMAP
7C
CC
C0
C0
CC
78
30
98
70
ENDCHAR
STARTCHAR egrave
ENCODING 232
SWIDTH 600 0
DWIDTH 7 0
BBX 6 9 1 0
BITMAP
60
30
00
78
CC
FC
C0
CC
78
ENDCHAR
STARTCHAR eacute
ENCODING 233
SWIDTH 600 0
DWIDTH 7 0
BBX 6 9 1 0
BITMAP
18
30
00
78
CC
FC
C0
CC
78
ENDCHAR
STARTCHAR ecircumflex
ENCODING 234
SWIDTH 600 0
DWIDTH 7 0
BBX 6 9 1 0
BITMAP
30
68
00
78
CC
FC
C0
CC
78
ENDCHAR
STARTCHAR edieresis
ENCODING 235
SWIDTH 600 0
DWIDTH 7 0
BBX 6 8 1 0
BITMAP
6C
00
78
CC
FC
C0
CC
78
ENDCHAR
STARTCHAR igrave
ENCODING 236
SWIDTH 600 0
DWIDTH 7 0
BBX 6 9 1 0
BITMAP
60
30
00
F0
30
30
30
30
FC
ENDCHAR
STARTCHAR iacute
ENCODING 237
SWIDTH 600 0
DWIDTH 7 0
BBX 6 9 1 0
BITMAP
18
30
00
F0
30
30
30
30
FC
ENDCHAR
STARTCHAR icircumflex
ENCODING 238
SWIDTH 600 0
DWIDTH 7 0
BBX 6 9 1 0
BITMAP
30
68
00
F0
30
30
30
30
FC
ENDCHAR
STARTCHAR idieresis
ENCODING 239
SWIDTH 600 0
DWIDTH 7 0
BBX 6 8 1 0
BITMAP
CC
00
F0
30
30
30
30
FC
ENDCHAR
STARTCHAR eth
ENCODING 240
SWIDTH 600 0
DWIDTH 7 0
BBX 6 9 1 0
BITMAP
D8
70
98
7C
CC
CC
CC
CC
78
ENDCHAR
STARTCHAR ntilde
ENCODING 241
SWIDTH 600 0
DWIDTH 7 0
BBX 8 9 0 0
BITMAP
1A
34
00
DC
76
66
66
66
F7
ENDCHAR
STARTCHAR ograve
ENCODING 242
SWIDTH 600 0
DWIDTH 7 0
BBX 6 9 1 0
BITMAP
60
30
00
78
CC
CC
CC
CC
78
ENDCHAR
STARTCHAR oacute
ENCODING 243
SWIDTH 600 0
DWIDTH 7 0
BBX 6 9 1 0
BITMAP
30
60
00
78
CC
CC
CC
CC
78
ENDCHAR
STARTCHAR ocircumflex
ENCODING 244
SWIDTH 600 0
DWIDTH 7 0
BBX 6 9 1 0
BITMAP
30
68
00
78
CC
CC
CC
CC
78
ENDCHAR
STARTCHAR otilde
ENCODING 245
SWIDTH 600 0
DWIDTH 7 0
BBX 6 9 1 0
BITMAP
34
68
00
78
CC
CC
CC
CC
78
ENDCHAR
STARTCHAR odieresis
ENCODING 246
SWIDTH 600 0
DWIDTH 7 0
BBX 6 8 1 0
BITMAP
CC
00
78
CC
CC
CC
CC
78
ENDCHAR
STARTCHAR divide
ENCODING 247
SWIDTH 600 0
DWIDTH 7 0
BBX 6 5 1 1
BITMAP
30
00
FC
00
30
ENDCHAR
STARTCHAR oslash
ENCODING 248
SWIDTH 600 0
DWIDTH 7 0
BBX 6 8 1 -1
BITMAP
04
78
CC
DC
EC
CC
78
80
ENDCHAR
STARTCHAR ugrave
ENCODING 249
SWIDTH 600 0
DWIDTH 7 0
BBX 8 9 0 0
BITMAP
30
18
00
EE
66
66
66
66
3B
ENDCHAR
STARTCHAR uacute
ENCODING 250
SWIDTH 600 0
DWIDTH 7 0
BBX 8 9 0 0
BITMAP
18
30
00
EE
66
66
66
66
3B
ENDCHAR
STARTCHAR ucircumflex
ENCODING 251
SWIDTH 600 0
DWIDTH 7 0
BBX 8 9 0 0
BITMAP
18
34
00
EE
66
66
66
66
3B
ENDCHAR
STARTCHAR udieresis
ENCODING 252
SWIDTH 600 0
DWIDTH 7 0
BBX 8 8 0 0
BITMAP
6C
00
EE
66
66
66
66
3B
ENDCHAR
STARTCHAR yacute
ENCODING 253
SWIDTH 600 0
DWIDTH 7 0
BBX 8 12 0 -3
BITMAP
0C
18
00
F7
66
64
3C
38
18
30
30
78
ENDCHAR
STARTCHAR thorn
ENCODING 254
SWIDTH 600 0
DWIDTH 7 0
BBX 7 11 0 -3
BITMAP
E0
60
7C
66
66
66
66
7C
60
60
F0
ENDCHAR
STARTCHAR ydieresis
ENCODING 255
SWIDTH 600 0
DWIDTH 7 0
BBX 8 11 0 -3
BITMAP
66
00
F7
66
64
3C
38
18
30
30
78
ENDCHAR
STARTCHAR uni0400
ENCODING 1024
SWIDTH 600 0
DWIDTH 7 0
BBX 6 11 1 0
BITMAP
60
30
00
FC
64
60
78
68
64
64
FC
ENDCHAR
STARTCHAR afii10023
ENCODING 1025
SWIDTH 600 0
DWIDTH 7 0
BBX 6 10 1 0
BITMAP
CC
00
FC
64
60
78
68
64
64
FC
ENDCHAR
STARTCHAR afii10053
ENCODING 1028
SWIDTH 600 0
DWIDTH 7 0
BBX 6 8 1 0
BITMAP
78
CC
C0
F0
C0
C0
CC
78
ENDCHAR
STARTCHAR afii10054
ENCODING 1029
SWIDTH 600 0
DWIDTH 7 0
BBX 6 8 1 0
BITMAP
7C
CC
C0
F0
3C
0C
CC
F8
ENDCHAR
STARTCHAR afii10055
ENCODING 1030
SWIDTH 600 0
DWIDTH 7 0
BBX 6 8 1 0
BITMAP
FC
30
30
30
30
30
30
FC
ENDCHAR
STARTCHAR afii10056
ENCODING 1031
SWIDTH 600 0
DWIDTH 7 0
BBX 6 10 1 0
BITMAP
CC
00
FC
30
30
30
30
30
30
FC
ENDCHAR
STARTCHAR afii10057
ENCODING 1032
SWIDTH 600 0
DWIDTH 7 0
BBX 6 8 1 0
BITMAP
7C
18
18
18
18
D8
D8
70
ENDCHAR
STARTCHAR afii10062
ENCODING 1038
SWIDTH 600 0
DWIDTH 7 0
BBX 8 11 0 0
BITMAP
24
3C
00
F7
62
36
34
1C
08
58
70
ENDCHAR
STARTCHAR afii10017
ENCODING 1040
SWIDTH 600 0
DWIDTH 7 0
BBX 8 8 0 0
BITMAP
38
18
34
34
3C
66
66
E7
ENDCHAR
STARTCHAR afii10018
ENCODING 1041
SWIDTH 600 0
DWIDTH 7 0
BBX 7 8 0 0
BITMAP
FE
62
60
7C
66
66
66
FC
ENDCHAR
STARTCHAR afii10019
ENCODING 1042
SWIDTH 600 0
DWIDTH 7 0
BBX 7 8 0 0
BITMAP
FC
66
66
7C
66
66
66
FC
ENDCHAR
STARTCHAR afii10020
ENCODING 1043
SWIDTH 600 0
DWIDTH 7 0
BBX 6 8 0 0
BITMAP
FC
64
60
60
60
60
60
F0
ENDCHAR
STARTCHAR afii10021
ENCODING 1044
SWIDTH 600 0
DWIDTH 7 0
BBX 8 9 0 -1
BITMAP
7F
26
26
26
26
26
46
FF
83
ENDCHAR
STARTCHAR afii10022
ENCODING 1045
SWIDTH 600 0
DWIDTH 7 0
BBX 6 8 1 0
BITMAP
FC
64
60
78
68
60
64
FC
ENDCHAR
STARTCHAR afii10024
ENCODING 1046
SWIDTH 600 0
DWIDTH 7 0
BBX 8 8 0 0
BITMAP
DB
5A
3C
18
3C
5A
5A
DB
ENDCHAR
STARTCHAR afii10025
ENCODING 1047
SWIDTH 600 0
DWIDTH 7 0
BBX 6 8 1 0
BITMAP
78
CC
0C
38
0C
0C
CC
78
ENDCHAR
STARTCHAR afii10026
ENCODING 1048
SWIDTH 600 0
DWIDTH 7 0
BBX 8 8 0 0
BITMAP
EF
66
6E
6E
7E
76
66
F7
ENDCHAR
STARTCHAR afii10027
ENCODING 1049
SWIDTH 600 0
DWIDTH 7 0
BBX 8 11 0 0
BITMAP
24
3C
00
EF
66
6E
6E
7E
76
66
F7
ENDCHAR
STARTCHAR afii10028
ENCODING 1050
SWIDTH 600 0
DWIDTH 7 0
BBX 8 8 0 0
BITMAP
F6
6C
68
70
78
6C
66
F7
ENDCHAR
STARTCHAR afii10029
ENCODING 1051
SWIDTH 600 0
DWIDTH 7 0
BBX 8 8 0 0
BITMAP
7F
26
26
26
26
26
A6
CF
ENDCHAR
STARTCHAR afii10030
ENCODING 1052
SWIDTH 600 0
DWIDTH 7 0
BBX 8 8 0 0
BITMAP
E3
76
76
7A
6A
6A
62
E3
ENDCHAR
STARTCHAR afii10031
ENCODING 1053
SWIDTH 600 0
DWIDTH 7 0
BBX 8 8 0 0
BITMAP
F7
66
66
7E
66
66
66
F7
ENDCHAR
STARTCHAR afii10032
ENCODING 1054
SWIDTH 600 0
DWIDTH 7 0
BBX 6 8 1 0
BITMAP
78
CC
CC
CC
CC
CC
CC
78
ENDCHAR
STARTCHAR afii10033
ENCODING 1055
SWIDTH 600 0
DWIDTH 7 0
BBX 8 8 0 0
BITMAP
FF
66
66
66
66
66
66
F7
ENDCHAR
STARTCHAR afii10034
ENCODING 1056
SWIDTH 600 0
DWIDTH 7 0
BBX 7 8 0 0
BITMAP
FC
66
66
66
7C
60
60
F8
ENDCHAR
STARTCHAR afii10035
ENCODING 1057
SWIDTH 600 0
DWIDTH 7 0
BBX 6 8 1 0
BITMAP
78
CC
CC
C0
C0
CC
CC
78
ENDCHAR
STARTCHAR afii10036
ENCODING 1058
SWIDTH 600 0
DWIDTH 7 0
BBX 6 8 1 0
BITMAP
FC
B4
30
30
30
30
30
78
ENDCHAR
STARTCHAR afii10037
ENCODING 1059
SWIDTH 600 0
DWIDTH 7 0
BBX 8 8 0 0
BITMAP
F7
62
36
34
1C
08
58
70
ENDCHAR
STARTCHAR afii10038
ENCODING 1060
SWIDTH 600 0
DWIDTH 7 0
BBX 7 8 0 0
BITMAP
38
10
7C
D6
D6
7C
10
38
ENDCHAR
STARTCHAR afii10039
ENCODING 1061
SWIDTH 600 0
DWIDTH 7 0
BBX 8 8 0 0
BITMAP
EF
66
34
18
38
34
66
EF
ENDCHAR
STARTCHAR afii10040
ENCODING 1062
SWIDTH 600 0
DWIDTH 7 0
BBX 8 9 0 -1
BITMAP
F7
66
66
66
66
66
66
FF
03
ENDCHAR
STARTCHAR afii10041
ENCODING 1063
SWIDTH 600 0
DWIDTH 7 0
BBX 8 8 0 0
BITMAP
F7
66
66
66
3E
06
06
0F
ENDCHAR
STARTCHAR afii10042
ENCODING 1064
SWIDTH 600 0
DWIDTH 7 0
BBX 8 8 0 0
BITMAP
EB
6A
6A
6A
6A
6A
6A
FF
ENDCHAR
STARTCHAR afii10043
ENCODING 1065
SWIDTH 600 0
DWIDTH 7 0
BBX 8 9 0 -1
BITMAP
EB
6A
6A
6A
6A
6A
6A
FF
03
ENDCHAR
STARTCHAR afii10044
ENCODING 1066
SWIDTH 600 0
DWIDTH 7 0
BBX 7 8 0 0
BITMAP
F8
B0
30
3C
36
36
36
7C
ENDCHAR
STARTCHAR afii10045
ENCODING 1067
SWIDTH 600 0
DWIDTH 7 0
BBX 8 8 0 0
BITMAP
F7
66
66
72
6A
6A
6A
F7
ENDCHAR
STARTCHAR afii10046
ENCODING 1068
SWIDTH 600 0
DWIDTH 7 0
BBX 7 8 0 0
BITMAP
F0
60
60
7C
66
66
66
FC
ENDCHAR
STARTCHAR afii10047
ENCODING 1069
SWIDTH 600 0
DWIDTH 7 0
BBX 6 8 1 0
BITMAP
78
CC
0C
3C
0C
0C
CC
78
ENDCHAR
STARTCHAR afii10048
ENCODING 1070
SWIDTH 600 0
DWIDTH 7 0
BBX 7 8 0 0
BITMAP
DC
B6
B6
F6
B6
B6
B6
DC
ENDCHAR
STARTCHAR afii10049
ENCODING 1071
SWIDTH 600 0
DWIDTH 7 0
BBX 8 8 -1 0
BITMAP
3F
66
66
3E
36
66
66
EF
ENDCHAR
STARTCHAR afii10065
ENCODING 1072
SWIDTH 600 0
DWIDTH 7 0
BBX 7 6 1 0
BITMAP
78
0C
7C
CC
CC
7E
ENDCHAR
STARTCHAR afii10066
ENCODING 1073
SWIDTH 600 0
DWIDTH 7 0
BBX 6 9 1 0
BITMAP
0C
78
C0
F8
CC
CC
CC
CC
78
ENDCHAR
STARTCHAR afii10067
ENCODING 1074
SWIDTH 600 0
DWIDTH 7 0
BBX 7 6 0 0
BITMAP
FC
66
7C
66
66
FC
ENDCHAR
STARTCHAR afii10068
ENCODING 1075
SWIDTH 600 0
DWIDTH 7 0
BBX 6 6 1 0
BITMAP
FC
64
60
60
60
F0
ENDCHAR
STARTCHAR afii10069
ENCODING 1076
SWIDTH 600 0
DWIDTH 7 0
BBX 8 7 0 -1
BITMAP
7F
26
26
26
46
FF
83
ENDCHAR
STARTCHAR afii10070
ENCODING 1077
SWIDTH 600 0
DWIDTH 7 0
BBX 6 6 1 0
BITMAP
78
CC
FC
C0
CC
78
ENDCHAR
STARTCHAR afii10072
ENCODING 1078
SWIDTH 600 0
DWIDTH 7 0
BBX 8 6 0 0
BITMAP
DB
5A
3C
3C
5A
DB
ENDCHAR
STARTCHAR afii10073
ENCODING 1079
SWIDTH 600 0
DWIDTH 7 0
BBX 6 6 1 0
BITMAP
F8
8C
38
0C
CC
78
ENDCHAR
STARTCHAR afii10074
ENCODING 1080
SWIDTH 600 0
DWIDTH 7 0
BBX 8 6 0 0
BITMAP
EF
66
6E
76
66
EF
ENDCHAR
STARTCHAR afii10075
ENCODING 1081
SWIDTH 600 0
DWIDTH 7 0
BBX 8 9 0 0
BITMAP
24
18
00
EF
66
6E
76
66
EF
ENDCHAR
STARTCHAR afii10076
ENCODING 1082
SWIDTH 600 0
DWIDTH 7 0
BBX 8 6 0 0
BITMAP
E6
6C
78
78
6C
E7
ENDCHAR
STARTCHAR afii10077
ENCODING 1083
SWIDTH 600 0
DWIDTH 7 0
BBX 8 6 0 0
BITMAP
7F
26
26
26
A6
C7
ENDCHAR
STARTCHAR afii10078
ENCODING 1084
SWIDTH 600 0
DWIDTH 7 0
BBX 8 6 0 0
BITMAP
C7
6E
6E
76
56
D7
ENDCHAR
STARTCHAR afii10079
ENCODING 1085
SWIDTH 600 0
DWIDTH 7 0
BBX 7 6 0 0
BITMAP
EE
66
7E
66
66
EE
ENDCHAR
STARTCHAR afii10080
ENCODING 1086
SWIDTH 600 0
DWIDTH 7 0
BBX 6 6 1 0
BITMAP
78
CC
CC
CC
CC
78
ENDCHAR
STARTCHAR afii10081
ENCODING 1087
SWIDTH 600 0
DWIDTH 7 0
BBX 7 6 0 0
BITMAP
FE
66
66
66
66
EE
ENDCHAR
STARTCHAR afii10082
ENCODING 1088
SWIDTH 600 0
DWIDTH 7 0
BBX 7 9 0 -3
BITMAP
DC
66
66
66
66
7C
60
60
F0
ENDCHAR
STARTCHAR afii10083
ENCODING 1089
SWIDTH 600 0
DWIDTH 7 0
BBX 6 6 1 0
BITMAP
7C
CC
C0
C0
CC
78
ENDCHAR
STARTCHAR afii10084
ENCODING 1090
SWIDTH 600 0
DWIDTH 7 0
BBX 6 6 1 0
BITMAP
FC
B4
30
30
30
78
ENDCHAR
STARTCHAR afii10085
ENCODING 1091
SWIDTH 600 0
DWIDTH 7 0
BBX 8 9 0 -3
BITMAP
F7
66
64
3C
38
18
30
30
78
ENDCHAR
STARTCHAR afii10086
ENCODING 1092
SWIDTH 600 0
DWIDTH 7 0
BBX 7 12 0 -3
BITMAP
30
10
10
7C
D6
D6
D6
D6
7C
10
10
38
ENDCHAR
STARTCHAR afii10087
ENCODING 1093
SWIDTH 600 0
DWIDTH 7 0
BBX 6 6 1 0
BITMAP
EC
78
30
78
EC
CC
ENDCHAR
STARTCHAR afii10088
ENCODING 1094
SWIDTH 600 0
DWIDTH 7 0
BBX 8 7 0 -1
BITMAP
EE
66
66
66
66
FF
03
ENDCHAR
STARTCHAR afii10089
ENCODING 1095
SWIDTH 600 0
DWIDTH 7 0
BBX 8 6 0 0
BITMAP
EE
66
66
3E
06
07
ENDCHAR
STARTCHAR afii10090
ENCODING 1096
SWIDTH 600 0
DWIDTH 7 0
BBX 7 6 0 0
BITMAP
EA
6A
6A
6A
6A
FE
ENDCHAR
STARTCHAR afii10091
ENCODING 1097
SWIDTH 600 0
DWIDTH 7 0
BBX 7 7 0 -1
BITMAP
EA
6A
6A
6A
6A
FE
02
ENDCHAR
STARTCHAR afii10092
ENCODING 1098
SWIDTH 600 0
DWIDTH 7 0
BBX 7 6 0 0
BITMAP
F8
B0
3C
36
36
7C
ENDCHAR
STARTCHAR afii10093
ENCODING 1099
SWIDTH 600 0
DWIDTH 7 0
BBX 8 6 0 0
BITMAP
E3
62
72
6A
6A
F7
ENDCHAR
STARTCHAR afii10094
ENCODING 1100
SWIDTH 600 0
DWIDTH 7 0
BBX 7 6 0 0
BITMAP
F0
60
7C
66
66
FC
ENDCHAR
STARTCHAR afii10095
ENCODING 1101
SWIDTH 600 0
DWIDTH 7 0
BBX 6 6 1 0
BITMAP
F8
8C
3C
0C
CC
78
ENDCHAR
STARTCHAR afii10096
ENCODING 1102
SWIDTH 600 0
DWIDTH 7 0
BBX 7 6 0 0
BITMAP
DC
B6
F6
B6
B6
DC
ENDCHAR
STARTCHAR afii10097
ENCODING 1103
SWIDTH 600 0
DWIDTH 7 0
BBX 7 6 0 0
BITMAP
3E
6C
6C
3C
6C
CE
ENDCHAR
STARTCHAR uni0450
ENCODING 1104
SWIDTH 600 0
DWIDTH 7 0
BBX 6 9 1 0
BITMAP
60
30
00
78
CC
FC
C0
CC
78
ENDCHAR
STARTCHAR afii10071
ENCODING 1105
SWIDTH 600 0
DWIDTH 7 0
BBX 6 8 1 0
BITMAP
6C
00
78
CC
FC
C0
CC
78
ENDCHAR
STARTCHAR afii10101
ENCODING 1108
SWIDTH 600 0
DWIDTH 7 0
BBX 6 6 1 0
BITMAP
7C
C4
F0
C0
CC
78
ENDCHAR
STARTCHAR afii10102
ENCODING 1109
SWIDTH 600 0
DWIDTH 7 0
BBX 6 6 1 0
BITMAP
7C
E4
78
1C
CC
78
ENDCHAR
STARTCHAR afii10103
ENCODING 1110
SWIDTH 600 0
DWIDTH 7 0
BBX 6 9 1 0
BITMAP
30
00
00
F0
30
30
30
30
FC
ENDCHAR
STARTCHAR afii10104
ENCODING 1111
SWIDTH 600 0
DWIDTH 7 0
BBX 6 8 1 0
BITMAP
CC
00
F0
30
30
30
30
FC
ENDCHAR
STARTCHAR afii10105
ENCODING 1112
SWIDTH 600 0
DWIDTH 7 0
BBX 4 12 1 -3
BITMAP
30
00
00
F0
30
30
30
30
30
30
30
E0
ENDCHAR
STARTCHAR afii10110
ENCODING 1118
SWIDTH 600 0
DWIDTH 7 0
BBX 8 12 0 -3
BITMAP
24
18
00
F7
66
64
3C
38
18
30
30
78
ENDCHAR
STARTCHAR afii10050
ENCODING 1168
SWIDTH 600 0
DWIDTH 7 0
BBX 6 9 0 0
BITMAP
04
FC
60
60
60
60
60
60
F0
ENDCHAR
STARTCHAR afii10098
ENCODING 1169
SWIDTH 600 0
DWIDTH 7 0
BBX 6 7 1 0
BITMAP
04
FC
60
60
60
60
F0
ENDCHAR
STARTCHAR uni04AA
ENCODING 1194
SWIDTH 600 0
DWIDTH 7 0
BBX 6 11 1 -3
BITMAP
78
CC
CC
C0
C0
CC
CC
78
30
98
70
ENDCHAR
STARTCHAR uni04AB
ENCODING 1195
SWIDTH 600 0
DWIDTH 7 0
BBX 6 9 1 -3
BITMAP
7C
CC
C0
C0
CC
78
30
98
70
ENDCHAR
STARTCHAR uni04AE
ENCODING 1198
SWIDTH 600 0
DWIDTH 7 0
BBX 8 8 0 0
BITMAP
E7
66
34
38
18
18
18
3C
ENDCHAR
STARTCHAR uni04C0
ENCODING 1216
SWIDTH 600 0
DWIDTH 7 0
BBX 6 8 1 0
BITMAP
FC
30
30
30
30
30
30
FC
ENDCHAR
STARTCHAR uni04D2
ENCODING 1234
SWIDTH 600 0
DWIDTH 7 0
BBX 8 10 0 0
BITMAP
66
00
38
18
34
34
3C
66
66
E7
ENDCHAR
STARTCHAR uni04D3
ENCODING 1235
SWIDTH 600 0
DWIDTH 7 0
BBX 7 8 1 0
BITMAP
6C
00
78
0C
7C
CC
CC
7E
ENDCHAR
STARTCHAR uni04D4
ENCODING 1236
SWIDTH 600 0
DWIDTH 7 0
BBX 7 8 0 0
BITMAP
1E
38
28
6E
78
D8
D8
DE
ENDCHAR
STARTCHAR uni04D5
ENCODING 1237
SWIDTH 600 0
DWIDTH 7 0
BBX 7 6 0 0
BITMAP
6C
1A
7E
D8
DA
6C
ENDCHAR
STARTCHAR uni04E6
ENCODING 1254
SWIDTH 600 0
DWIDTH 7 0
BBX 6 10 1 0
BITMAP
CC
00
78
CC
CC
CC
CC
CC
CC
78
ENDCHAR
STARTCHAR uni04E7
ENCODING 1255
SWIDTH 600 0
DWIDTH 7 0
BBX 6 8 1 0
BITMAP
CC
00
78
CC
CC
CC
CC
78
ENDCHAR
ENDFONT
