STARTFONT 2.1
COMMENT $XConsortium: lutRS14.bdf,v 1.9 94/04/02 16:11:27 gildea Exp $
COMMENT  (c) Copyright Bigelow & Holmes 1986, 1985. Lucida is a registered
COMMENT  trademark of Bigelow & Holmes. See LEGAL NOTICE file for terms 
COMMENT  of the license. 
COMMENT GRID 0014 0014 0200 0200
FONT -RFX-SereneTypewriter-Medium-R-Normal-Sans-14-140-75-75-M-90-iso10646-0400
SIZE 14 72 72
FONTBOUNDINGBOX 9 15 0 -2
STARTPROPERTIES 24
FONTNAME_REGISTRY ""
FOUNDRY "RFX"
FAMILY_NAME "SereneTypewriter"
WEIGHT_NAME "Medium"
SLANT "R"
SETWIDTH_NAME "Normal"
ADD_STYLE_NAME "Sans"
PIXEL_SIZE 14
POINT_SIZE 140
RESOLUTION_X 75
RESOLUTION_Y 75
SPACING "M"
AVERAGE_WIDTH 90
CHARSET_REGISTRY "iso10646"
CHARSET_ENCODING "0400"
FONT_ASCENT 13
FONT_DESCENT 2
DEFAULT_CHAR 0
COPYRIGHT "Copyright Bigelow & Holmes 1986, 1985."
FACE_NAME "Lucida Sans Typewriter"
COPYRIGHT2 "Cyrillic and line drawing glyphs copyright 2000 Dmitry Yu. Bolkhovityanov, bolkhov@inp.nsk.su"
SOURCEDATE "Fri Jun  9 17:43:51 2000"
PKGVERSION "1.1"
ASSEMBLER "cvtbdf.pl (Linux)"
ENDPROPERTIES
CHARS 338
STARTCHAR null
ENCODING 0
SWIDTH 602 0
DWIDTH 9 0
BBX 5 10 2 0
BITMAP
F8
F8
F8
F8
F8
F8
F8
F8
F8
F8
ENDCHAR
STARTCHAR ctrlA
ENCODING 1
SWIDTH 602 0
DWIDTH 9 0
BBX 7 9 1 1
BITMAP
40
A0
00
08
14
14
22
3E
22
ENDCHAR
STARTCHAR ctrlB
ENCODING 2
SWIDTH 602 0
DWIDTH 9 0
BBX 7 9 1 1
BITMAP
40
A0
00
3C
22
3C
24
22
3C
ENDCHAR
STARTCHAR ctrlC
ENCODING 3
SWIDTH 602 0
DWIDTH 9 0
BBX 7 9 1 1
BITMAP
40
A0
00
0C
12
20
20
12
0C
ENDCHAR
STARTCHAR ctrlD
ENCODING 4
SWIDTH 602 0
DWIDTH 9 0
BBX 7 9 1 1
BITMAP
40
A0
00
38
24
22
22
24
38
ENDCHAR
STARTCHAR ctrlE
ENCODING 5
SWIDTH 602 0
DWIDTH 9 0
BBX 7 9 1 1
BITMAP
40
A0
00
3E
20
3C
20
20
3E
ENDCHAR
STARTCHAR ctrlF
ENCODING 6
SWIDTH 602 0
DWIDTH 9 0
BBX 7 9 1 1
BITMAP
40
A0
00
3E
20
20
3E
20
20
ENDCHAR
STARTCHAR ctrlG
ENCODING 7
SWIDTH 602 0
DWIDTH 9 0
BBX 7 9 1 1
BITMAP
40
A0
00
0C
12
20
22
12
0E
ENDCHAR
STARTCHAR ctrlH
ENCODING 8
SWIDTH 602 0
DWIDTH 9 0
BBX 7 9 1 1
BITMAP
40
A0
00
22
22
3E
22
22
22
ENDCHAR
STARTCHAR ctrlI
ENCODING 9
SWIDTH 602 0
DWIDTH 9 0
BBX 6 9 1 1
BITMAP
40
A0
00
1C
08
08
08
08
1C
ENDCHAR
STARTCHAR ctrlJ
ENCODING 10
SWIDTH 602 0
DWIDTH 9 0
BBX 6 9 1 1
BITMAP
40
A0
00
1C
04
04
04
04
38
ENDCHAR
STARTCHAR ldcornsqlr
ENCODING 11
SWIDTH 602 0
DWIDTH 9 0
BBX 5 8 0 5
BITMAP
08
08
08
08
08
08
08
F8
ENDCHAR
STARTCHAR ldcornsqur
ENCODING 12
SWIDTH 602 0
DWIDTH 9 0
BBX 5 8 0 -2
BITMAP
F8
08
08
08
08
08
08
08
ENDCHAR
STARTCHAR ldcornsqul
ENCODING 13
SWIDTH 602 0
DWIDTH 9 0
BBX 5 8 4 -2
BITMAP
F8
80
80
80
80
80
80
80
ENDCHAR
STARTCHAR ldcornsqll
ENCODING 14
SWIDTH 602 0
DWIDTH 9 0
BBX 5 8 4 5
BITMAP
80
80
80
80
80
80
80
F8
ENDCHAR
STARTCHAR ldcross
ENCODING 15
SWIDTH 602 0
DWIDTH 9 0
BBX 9 15 0 -2
BITMAP
0800
0800
0800
0800
0800
0800
0800
FF80
0800
0800
0800
0800
0800
0800
0800
ENDCHAR
STARTCHAR ctrlP
ENCODING 16
SWIDTH 602 0
DWIDTH 9 0
BBX 7 9 1 1
BITMAP
40
A0
00
3C
22
24
38
20
20
ENDCHAR
STARTCHAR ctrlQ
ENCODING 17
SWIDTH 602 0
DWIDTH 9 0
BBX 7 11 1 -1
BITMAP
40
A0
00
08
14
22
22
14
08
04
02
ENDCHAR
STARTCHAR ldhorizontal
ENCODING 18
SWIDTH 602 0
DWIDTH 9 0
BBX 9 1 0 5
BITMAP
FF80
ENDCHAR
STARTCHAR ctrlS
ENCODING 19
SWIDTH 602 0
DWIDTH 9 0
BBX 7 9 1 1
BITMAP
40
A0
00
3C
22
24
38
24
22
ENDCHAR
STARTCHAR ctrlT
ENCODING 20
SWIDTH 602 0
DWIDTH 9 0
BBX 7 9 1 1
BITMAP
40
A0
00
1C
22
18
04
22
1C
ENDCHAR
STARTCHAR ldteelft
ENCODING 21
SWIDTH 602 0
DWIDTH 9 0
BBX 5 15 4 -2
BITMAP
80
80
80
80
80
80
80
F8
80
80
80
80
80
80
80
ENDCHAR
STARTCHAR ldteert
ENCODING 22
SWIDTH 602 0
DWIDTH 9 0
BBX 5 15 0 -2
BITMAP
08
08
08
08
08
08
08
F8
08
08
08
08
08
08
08
ENDCHAR
STARTCHAR ldteebt
ENCODING 23
SWIDTH 602 0
DWIDTH 9 0
BBX 9 8 0 5
BITMAP
0800
0800
0800
0800
0800
0800
0800
FF80
ENDCHAR
STARTCHAR ldteetp
ENCODING 24
SWIDTH 602 0
DWIDTH 9 0
BBX 9 8 0 -2
BITMAP
FF80
0800
0800
0800
0800
0800
0800
0800
ENDCHAR
STARTCHAR ldvertical
ENCODING 25
SWIDTH 602 0
DWIDTH 9 0
BBX 1 15 4 -2
BITMAP
80
80
80
80
80
80
80
80
80
80
80
80
80
80
80
ENDCHAR
STARTCHAR ctrlZ
ENCODING 26
SWIDTH 602 0
DWIDTH 9 0
BBX 7 9 1 1
BITMAP
40
A0
00
3E
02
0C
18
20
3E
ENDCHAR
STARTCHAR ctrlBRL
ENCODING 27
SWIDTH 602 0
DWIDTH 9 0
BBX 6 9 1 1
BITMAP
40
A0
00
1C
10
10
10
10
1C
ENDCHAR
STARTCHAR ctrlBSLASH
ENCODING 28
SWIDTH 602 0
DWIDTH 9 0
BBX 7 9 1 1
BITMAP
40
A0
00
20
10
08
08
04
02
ENDCHAR
STARTCHAR ctrlBRR
ENCODING 29
SWIDTH 602 0
DWIDTH 9 0
BBX 6 9 1 1
BITMAP
40
A0
00
1C
04
04
04
04
1C
ENDCHAR
STARTCHAR ctrlCARET
ENCODING 30
SWIDTH 602 0
DWIDTH 9 0
BBX 7 7 1 3
BITMAP
40
A0
00
08
14
22
22
ENDCHAR
STARTCHAR ctrlUND
ENCODING 31
SWIDTH 602 0
DWIDTH 9 0
BBX 7 9 1 1
BITMAP
40
A0
00
00
00
00
00
00
3E
ENDCHAR
STARTCHAR space
ENCODING 32
SWIDTH 602 0
DWIDTH 9 0
BBX 0 0 0 0
BITMAP
ENDCHAR
STARTCHAR exclam
ENCODING 33
SWIDTH 602 0
DWIDTH 9 0
BBX 1 10 4 0
BITMAP
80
80
80
80
80
80
80
00
80
80
ENDCHAR
STARTCHAR quotedbl
ENCODING 34
SWIDTH 602 0
DWIDTH 9 0
BBX 4 3 3 8
BITMAP
90
90
90
ENDCHAR
STARTCHAR numbersign
ENCODING 35
SWIDTH 602 0
DWIDTH 9 0
BBX 8 10 0 0
BITMAP
12
12
12
7F
24
24
FE
48
48
48
ENDCHAR
STARTCHAR dollar
ENCODING 36
SWIDTH 602 0
DWIDTH 9 0
BBX 7 12 1 -1
BITMAP
10
7C
92
90
90
70
1C
12
12
92
7C
10
ENDCHAR
STARTCHAR percent
ENCODING 37
SWIDTH 602 0
DWIDTH 9 0
BBX 7 10 1 0
BITMAP
60
92
94
68
10
10
2C
52
92
0C
ENDCHAR
STARTCHAR ampersand
ENCODING 38
SWIDTH 602 0
DWIDTH 9 0
BBX 8 10 1 0
BITMAP
38
44
44
48
33
4A
84
84
8C
73
ENDCHAR
STARTCHAR quotesingle
ENCODING 39
SWIDTH 602 0
DWIDTH 9 0
BBX 1 3 4 8
BITMAP
80
80
80
ENDCHAR
STARTCHAR parenleft
ENCODING 40
SWIDTH 602 0
DWIDTH 9 0
BBX 5 12 2 -1
BITMAP
18
20
40
40
80
80
80
80
40
40
20
18
ENDCHAR
STARTCHAR parenright
ENCODING 41
SWIDTH 602 0
DWIDTH 9 0
BBX 5 12 2 -1
BITMAP
C0
20
10
10
08
08
08
08
10
10
20
C0
ENDCHAR
STARTCHAR asterisk
ENCODING 42
SWIDTH 602 0
DWIDTH 9 0
BBX 5 5 2 5
BITMAP
20
A8
50
A8
20
ENDCHAR
STARTCHAR plus
ENCODING 43
SWIDTH 602 0
DWIDTH 9 0
BBX 7 7 1 1
BITMAP
10
10
10
FE
10
10
10
ENDCHAR
STARTCHAR comma
ENCODING 44
SWIDTH 602 0
DWIDTH 9 0
BBX 3 4 3 -2
BITMAP
20
20
20
C0
ENDCHAR
STARTCHAR minus
ENCODING 45
SWIDTH 602 0
DWIDTH 9 0
BBX 7 1 1 4
BITMAP
FE
ENDCHAR
STARTCHAR period
ENCODING 46
SWIDTH 602 0
DWIDTH 9 0
BBX 1 2 4 0
BITMAP
80
80
ENDCHAR
STARTCHAR slash
ENCODING 47
SWIDTH 602 0
DWIDTH 9 0
BBX 6 12 2 -1
BITMAP
04
04
08
08
10
10
20
20
40
40
80
80
ENDCHAR
STARTCHAR zero
ENCODING 48
SWIDTH 602 0
DWIDTH 9 0
BBX 7 10 1 0
BITMAP
38
44
44
82
82
82
82
44
44
38
ENDCHAR
STARTCHAR one
ENCODING 49
SWIDTH 602 0
DWIDTH 9 0
BBX 3 10 2 0
BITMAP
20
60
A0
20
20
20
20
20
20
20
ENDCHAR
STARTCHAR two
ENCODING 50
SWIDTH 602 0
DWIDTH 9 0
BBX 5 10 2 0
BITMAP
70
88
08
08
10
20
40
80
80
F8
ENDCHAR
STARTCHAR three
ENCODING 51
SWIDTH 602 0
DWIDTH 9 0
BBX 5 10 2 0
BITMAP
70
88
08
10
60
10
08
08
88
70
ENDCHAR
STARTCHAR four
ENCODING 52
SWIDTH 602 0
DWIDTH 9 0
BBX 7 10 2 0
BITMAP
08
18
28
48
88
88
FE
08
08
08
ENDCHAR
STARTCHAR five
ENCODING 53
SWIDTH 602 0
DWIDTH 9 0
BBX 6 10 1 0
BITMAP
7C
40
40
40
78
04
04
04
88
70
ENDCHAR
STARTCHAR six
ENCODING 54
SWIDTH 602 0
DWIDTH 9 0
BBX 6 10 2 0
BITMAP
38
44
80
B0
C8
84
84
84
48
30
ENDCHAR
STARTCHAR seven
ENCODING 55
SWIDTH 602 0
DWIDTH 9 0
BBX 6 10 1 0
BITMAP
FC
04
04
08
10
20
20
40
40
40
ENDCHAR
STARTCHAR eight
ENCODING 56
SWIDTH 602 0
DWIDTH 9 0
BBX 6 10 2 0
BITMAP
78
84
84
48
30
48
84
84
84
78
ENDCHAR
STARTCHAR nine
ENCODING 57
SWIDTH 602 0
DWIDTH 9 0
BBX 6 10 1 0
BITMAP
30
48
84
84
84
4C
34
04
88
70
ENDCHAR
STARTCHAR colon
ENCODING 58
SWIDTH 602 0
DWIDTH 9 0
BBX 1 7 4 0
BITMAP
80
80
00
00
00
80
80
ENDCHAR
STARTCHAR semicolon
ENCODING 59
SWIDTH 602 0
DWIDTH 9 0
BBX 3 9 2 -2
BITMAP
20
20
00
00
00
20
20
20
C0
ENDCHAR
STARTCHAR less
ENCODING 60
SWIDTH 602 0
DWIDTH 9 0
BBX 4 7 2 1
BITMAP
10
20
40
80
40
20
10
ENDCHAR
STARTCHAR equal
ENCODING 61
SWIDTH 602 0
DWIDTH 9 0
BBX 7 3 1 3
BITMAP
FE
00
FE
ENDCHAR
STARTCHAR greater
ENCODING 62
SWIDTH 602 0
DWIDTH 9 0
BBX 4 7 3 1
BITMAP
80
40
20
10
20
40
80
ENDCHAR
STARTCHAR question
ENCODING 63
SWIDTH 602 0
DWIDTH 9 0
BBX 6 10 1 0
BITMAP
78
84
04
04
08
10
20
00
20
20
ENDCHAR
STARTCHAR at
ENCODING 64
SWIDTH 602 0
DWIDTH 9 0
BBX 8 10 1 0
BITMAP
1C
62
42
8E
92
92
92
4D
60
1E
ENDCHAR
STARTCHAR A
ENCODING 65
SWIDTH 602 0
DWIDTH 9 0
BBX 7 10 1 0
BITMAP
10
10
28
28
44
44
FE
82
82
82
ENDCHAR
STARTCHAR B
ENCODING 66
SWIDTH 602 0
DWIDTH 9 0
BBX 6 10 2 0
BITMAP
F8
84
84
88
F0
88
84
84
84
F8
ENDCHAR
STARTCHAR C
ENCODING 67
SWIDTH 602 0
DWIDTH 9 0
BBX 7 10 1 0
BITMAP
3C
42
80
80
80
80
80
80
42
3C
ENDCHAR
STARTCHAR D
ENCODING 68
SWIDTH 602 0
DWIDTH 9 0
BBX 6 10 2 0
BITMAP
F0
88
84
84
84
84
84
84
88
F0
ENDCHAR
STARTCHAR E
ENCODING 69
SWIDTH 602 0
DWIDTH 9 0
BBX 6 10 2 0
BITMAP
FC
80
80
80
F8
80
80
80
80
FC
ENDCHAR
STARTCHAR F
ENCODING 70
SWIDTH 602 0
DWIDTH 9 0
BBX 6 10 2 0
BITMAP
FC
80
80
80
80
FC
80
80
80
80
ENDCHAR
STARTCHAR G
ENCODING 71
SWIDTH 602 0
DWIDTH 9 0
BBX 7 10 1 0
BITMAP
3C
42
80
80
80
82
82
82
42
3E
ENDCHAR
STARTCHAR H
ENCODING 72
SWIDTH 602 0
DWIDTH 9 0
BBX 7 10 1 0
BITMAP
82
82
82
82
FE
82
82
82
82
82
ENDCHAR
STARTCHAR I
ENCODING 73
SWIDTH 602 0
DWIDTH 9 0
BBX 5 10 2 0
BITMAP
F8
20
20
20
20
20
20
20
20
F8
ENDCHAR
STARTCHAR J
ENCODING 74
SWIDTH 602 0
DWIDTH 9 0
BBX 5 10 1 0
BITMAP
78
08
08
08
08
08
08
08
10
E0
ENDCHAR
STARTCHAR K
ENCODING 75
SWIDTH 602 0
DWIDTH 9 0
BBX 6 10 2 0
BITMAP
84
88
90
A0
C0
A0
90
88
84
84
ENDCHAR
STARTCHAR L
ENCODING 76
SWIDTH 602 0
DWIDTH 9 0
BBX 6 10 2 0
BITMAP
80
80
80
80
80
80
80
80
80
FC
ENDCHAR
STARTCHAR M
ENCODING 77
SWIDTH 602 0
DWIDTH 9 0
BBX 7 10 1 0
BITMAP
C6
C6
AA
AA
AA
AA
92
92
82
82
ENDCHAR
STARTCHAR N
ENCODING 78
SWIDTH 602 0
DWIDTH 9 0
BBX 7 10 1 0
BITMAP
C2
C2
A2
A2
92
92
8A
8A
86
86
ENDCHAR
STARTCHAR O
ENCODING 79
SWIDTH 602 0
DWIDTH 9 0
BBX 7 10 1 0
BITMAP
38
44
82
82
82
82
82
82
44
38
ENDCHAR
STARTCHAR P
ENCODING 80
SWIDTH 602 0
DWIDTH 9 0
BBX 6 10 2 0
BITMAP
F8
84
84
84
88
F0
80
80
80
80
ENDCHAR
STARTCHAR Q
ENCODING 81
SWIDTH 602 0
DWIDTH 9 0
BBX 8 12 1 -2
BITMAP
38
44
82
82
82
82
82
82
44
38
04
03
ENDCHAR
STARTCHAR R
ENCODING 82
SWIDTH 602 0
DWIDTH 9 0
BBX 6 10 2 0
BITMAP
F8
84
84
84
88
F0
88
88
84
84
ENDCHAR
STARTCHAR S
ENCODING 83
SWIDTH 602 0
DWIDTH 9 0
BBX 7 10 1 0
BITMAP
7C
82
80
80
60
1C
02
02
82
7C
ENDCHAR
STARTCHAR T
ENCODING 84
SWIDTH 602 0
DWIDTH 9 0
BBX 7 10 1 0
BITMAP
FE
10
10
10
10
10
10
10
10
10
ENDCHAR
STARTCHAR U
ENCODING 85
SWIDTH 602 0
DWIDTH 9 0
BBX 7 10 1 0
BITMAP
82
82
82
82
82
82
82
82
44
38
ENDCHAR
STARTCHAR V
ENCODING 86
SWIDTH 602 0
DWIDTH 9 0
BBX 7 10 1 0
BITMAP
82
82
82
44
44
44
28
28
10
10
ENDCHAR
STARTCHAR W
ENCODING 87
SWIDTH 602 0
DWIDTH 9 0
BBX 7 10 1 0
BITMAP
82
92
92
AA
AA
AA
44
44
44
44
ENDCHAR
STARTCHAR X
ENCODING 88
SWIDTH 602 0
DWIDTH 9 0
BBX 7 10 1 0
BITMAP
82
82
44
28
10
28
44
44
82
82
ENDCHAR
STARTCHAR Y
ENCODING 89
SWIDTH 602 0
DWIDTH 9 0
BBX 7 10 1 0
BITMAP
82
82
44
44
38
10
10
10
10
10
ENDCHAR
STARTCHAR Z
ENCODING 90
SWIDTH 602 0
DWIDTH 9 0
BBX 7 10 1 0
BITMAP
FE
02
04
08
10
20
40
80
80
FE
ENDCHAR
STARTCHAR bracketleft
ENCODING 91
SWIDTH 602 0
DWIDTH 9 0
BBX 4 12 3 -1
BITMAP
F0
80
80
80
80
80
80
80
80
80
80
F0
ENDCHAR
STARTCHAR backslash
ENCODING 92
SWIDTH 602 0
DWIDTH 9 0
BBX 7 12 1 -1
BITMAP
80
40
40
20
20
10
10
08
08
04
04
02
ENDCHAR
STARTCHAR bracketright
ENCODING 93
SWIDTH 602 0
DWIDTH 9 0
BBX 4 12 2 -1
BITMAP
F0
10
10
10
10
10
10
10
10
10
10
F0
ENDCHAR
STARTCHAR asciicircum
ENCODING 94
SWIDTH 602 0
DWIDTH 9 0
BBX 5 7 2 3
BITMAP
20
20
50
50
88
88
88
ENDCHAR
STARTCHAR underscore
ENCODING 95
SWIDTH 602 0
DWIDTH 9 0
BBX 9 1 0 -1
BITMAP
FF80
ENDCHAR
STARTCHAR grave
ENCODING 96
SWIDTH 602 0
DWIDTH 9 0
BBX 4 2 2 9
BITMAP
C0
30
ENDCHAR
STARTCHAR a
ENCODING 97
SWIDTH 602 0
DWIDTH 9 0
BBX 8 8 1 0
BITMAP
78
04
04
7C
84
84
8C
73
ENDCHAR
STARTCHAR b
ENCODING 98
SWIDTH 602 0
DWIDTH 9 0
BBX 7 11 1 0
BITMAP
80
80
80
B8
C4
82
82
82
82
84
F8
ENDCHAR
STARTCHAR c
ENCODING 99
SWIDTH 602 0
DWIDTH 9 0
BBX 7 8 1 0
BITMAP
3C
42
80
80
80
80
42
3C
ENDCHAR
STARTCHAR d
ENCODING 100
SWIDTH 602 0
DWIDTH 9 0
BBX 7 11 1 0
BITMAP
02
02
02
3E
42
82
82
82
82
46
3A
ENDCHAR
STARTCHAR e
ENCODING 101
SWIDTH 602 0
DWIDTH 9 0
BBX 7 8 1 0
BITMAP
3C
42
82
FE
80
80
42
3C
ENDCHAR
STARTCHAR f
ENCODING 102
SWIDTH 602 0
DWIDTH 9 0
BBX 7 11 1 0
BITMAP
1E
20
20
20
FE
20
20
20
20
20
20
ENDCHAR
STARTCHAR g
ENCODING 103
SWIDTH 602 0
DWIDTH 9 0
BBX 7 10 1 -2
BITMAP
3E
42
82
82
82
46
3A
02
84
78
ENDCHAR
STARTCHAR h
ENCODING 104
SWIDTH 602 0
DWIDTH 9 0
BBX 7 11 1 0
BITMAP
80
80
80
9C
A6
C2
82
82
82
82
82
ENDCHAR
STARTCHAR i
ENCODING 105
SWIDTH 602 0
DWIDTH 9 0
BBX 4 11 2 0
BITMAP
10
10
00
F0
10
10
10
10
10
10
10
ENDCHAR
STARTCHAR j
ENCODING 106
SWIDTH 602 0
DWIDTH 9 0
BBX 5 13 1 -2
BITMAP
08
08
00
78
08
08
08
08
08
08
08
10
E0
ENDCHAR
STARTCHAR k
ENCODING 107
SWIDTH 602 0
DWIDTH 9 0
BBX 7 11 1 0
BITMAP
80
80
80
84
88
90
E0
90
88
84
82
ENDCHAR
STARTCHAR l
ENCODING 108
SWIDTH 602 0
DWIDTH 9 0
BBX 4 11 1 0
BITMAP
F0
10
10
10
10
10
10
10
10
10
10
ENDCHAR
STARTCHAR m
ENCODING 109
SWIDTH 602 0
DWIDTH 9 0
BBX 7 8 1 0
BITMAP
A4
DA
92
92
92
92
92
92
ENDCHAR
STARTCHAR n
ENCODING 110
SWIDTH 602 0
DWIDTH 9 0
BBX 7 8 1 0
BITMAP
9C
A6
C2
82
82
82
82
82
ENDCHAR
STARTCHAR o
ENCODING 111
SWIDTH 602 0
DWIDTH 9 0
BBX 7 8 1 0
BITMAP
38
44
82
82
82
82
44
38
ENDCHAR
STARTCHAR p
ENCODING 112
SWIDTH 602 0
DWIDTH 9 0
BBX 7 10 1 -2
BITMAP
98
A4
C2
82
82
82
84
F8
80
80
ENDCHAR
STARTCHAR q
ENCODING 113
SWIDTH 602 0
DWIDTH 9 0
BBX 7 10 1 -2
BITMAP
3E
42
82
82
82
86
4A
32
02
02
ENDCHAR
STARTCHAR r
ENCODING 114
SWIDTH 602 0
DWIDTH 9 0
BBX 6 8 2 0
BITMAP
8C
B4
C0
80
80
80
80
80
ENDCHAR
STARTCHAR s
ENCODING 115
SWIDTH 602 0
DWIDTH 9 0
BBX 7 8 1 0
BITMAP
7C
82
80
70
0C
02
82
7C
ENDCHAR
STARTCHAR t
ENCODING 116
SWIDTH 602 0
DWIDTH 9 0
BBX 7 10 1 0
BITMAP
10
10
FE
10
10
10
10
10
10
0E
ENDCHAR
STARTCHAR u
ENCODING 117
SWIDTH 602 0
DWIDTH 9 0
BBX 7 8 1 0
BITMAP
82
82
82
82
82
86
CA
72
ENDCHAR
STARTCHAR v
ENCODING 118
SWIDTH 602 0
DWIDTH 9 0
BBX 7 8 1 0
BITMAP
82
82
44
44
28
28
10
10
ENDCHAR
STARTCHAR w
ENCODING 119
SWIDTH 602 0
DWIDTH 9 0
BBX 7 8 1 0
BITMAP
82
92
92
AA
AA
44
44
44
ENDCHAR
STARTCHAR x
ENCODING 120
SWIDTH 602 0
DWIDTH 9 0
BBX 7 8 1 0
BITMAP
82
44
28
10
28
44
82
82
ENDCHAR
STARTCHAR y
ENCODING 121
SWIDTH 602 0
DWIDTH 9 0
BBX 7 10 1 -2
BITMAP
82
82
44
44
28
28
10
10
20
60
ENDCHAR
STARTCHAR z
ENCODING 122
SWIDTH 602 0
DWIDTH 9 0
BBX 7 8 1 0
BITMAP
FE
04
08
10
20
40
80
FE
ENDCHAR
STARTCHAR braceleft
ENCODING 123
SWIDTH 602 0
DWIDTH 9 0
BBX 6 12 2 -1
BITMAP
3C
40
40
20
10
E0
10
20
40
40
40
3C
ENDCHAR
STARTCHAR bar
ENCODING 124
SWIDTH 602 0
DWIDTH 9 0
BBX 1 12 4 -1
BITMAP
80
80
80
80
80
80
80
80
80
80
80
80
ENDCHAR
STARTCHAR braceright
ENCODING 125
SWIDTH 602 0
DWIDTH 9 0
BBX 6 12 1 -1
BITMAP
F0
08
08
10
20
1C
20
10
08
08
08
F0
ENDCHAR
STARTCHAR asciitilde
ENCODING 126
SWIDTH 602 0
DWIDTH 9 0
BBX 7 3 1 3
BITMAP
62
92
8C
ENDCHAR
STARTCHAR delete
ENCODING 127
SWIDTH 602 0
DWIDTH 9 0
BBX 5 6 2 4
BITMAP
20
20
50
50
88
F8
ENDCHAR
STARTCHAR space
ENCODING 160
SWIDTH 602 0
DWIDTH 9 0
BBX 0 0 0 0
BITMAP
ENDCHAR
STARTCHAR exclamdown
ENCODING 161
SWIDTH 602 0
DWIDTH 9 0
BBX 1 10 4 -2
BITMAP
80
80
00
80
80
80
80
80
80
80
ENDCHAR
STARTCHAR cent
ENCODING 162
SWIDTH 602 0
DWIDTH 9 0
BBX 7 12 1 -1
BITMAP
10
10
3C
52
90
90
90
90
52
3C
10
10
ENDCHAR
STARTCHAR sterling
ENCODING 163
SWIDTH 602 0
DWIDTH 9 0
BBX 7 10 1 0
BITMAP
1C
22
20
20
FC
20
20
20
40
FE
ENDCHAR
STARTCHAR currency
ENCODING 164
SWIDTH 602 0
DWIDTH 9 0
BBX 9 9 0 0
BITMAP
8080
4100
3E00
2200
2200
2200
3E00
4100
8080
ENDCHAR
STARTCHAR yen
ENCODING 165
SWIDTH 602 0
DWIDTH 9 0
BBX 7 10 1 0
BITMAP
82
82
44
44
38
7C
10
7C
10
10
ENDCHAR
STARTCHAR brokenbar
ENCODING 166
SWIDTH 602 0
DWIDTH 9 0
BBX 1 12 4 -1
BITMAP
80
80
80
80
80
00
00
80
80
80
80
80
ENDCHAR
STARTCHAR section
ENCODING 167
SWIDTH 602 0
DWIDTH 9 0
BBX 5 11 2 -1
BITMAP
70
88
80
60
90
88
48
30
08
88
70
ENDCHAR
STARTCHAR dieresis
ENCODING 168
SWIDTH 602 0
DWIDTH 9 0
BBX 3 2 3 9
BITMAP
A0
A0
ENDCHAR
STARTCHAR copyright
ENCODING 169
SWIDTH 602 0
DWIDTH 9 0
BBX 8 10 1 0
BITMAP
3C
42
9D
A1
A1
A1
A1
9D
42
3C
ENDCHAR
STARTCHAR ordfeminine
ENCODING 170
SWIDTH 602 0
DWIDTH 9 0
BBX 6 7 1 3
BITMAP
70
08
08
78
88
98
64
ENDCHAR
STARTCHAR guillemotleft
ENCODING 171
SWIDTH 602 0
DWIDTH 9 0
BBX 7 5 1 2
BITMAP
22
44
88
44
22
ENDCHAR
STARTCHAR logicalnot
ENCODING 172
SWIDTH 602 0
DWIDTH 9 0
BBX 7 3 1 3
BITMAP
FE
02
02
ENDCHAR
STARTCHAR hyphen
ENCODING 173
SWIDTH 602 0
DWIDTH 9 0
BBX 3 1 3 4
BITMAP
E0
ENDCHAR
STARTCHAR registered
ENCODING 174
SWIDTH 602 0
DWIDTH 9 0
BBX 8 8 1 2
BITMAP
3C
42
B9
A5
B9
A5
42
3C
ENDCHAR
STARTCHAR macron
ENCODING 175
SWIDTH 602 0
DWIDTH 9 0
BBX 3 1 3 10
BITMAP
E0
ENDCHAR
STARTCHAR degree
ENCODING 176
SWIDTH 602 0
DWIDTH 9 0
BBX 4 4 2 6
BITMAP
60
90
90
60
ENDCHAR
STARTCHAR plusminus
ENCODING 177
SWIDTH 602 0
DWIDTH 9 0
BBX 7 7 1 1
BITMAP
10
10
FE
10
10
00
FE
ENDCHAR
STARTCHAR twosuperior
ENCODING 178
SWIDTH 602 0
DWIDTH 9 0
BBX 5 7 2 3
BITMAP
F0
08
08
30
40
80
F8
ENDCHAR
STARTCHAR threesuperior
ENCODING 179
SWIDTH 602 0
DWIDTH 9 0
BBX 5 7 2 3
BITMAP
F0
08
08
70
08
08
F0
ENDCHAR
STARTCHAR acute
ENCODING 180
SWIDTH 602 0
DWIDTH 9 0
BBX 4 2 3 9
BITMAP
30
C0
ENDCHAR
STARTCHAR mu
ENCODING 181
SWIDTH 602 0
DWIDTH 9 0
BBX 7 10 1 -2
BITMAP
82
82
82
82
82
86
CA
B2
80
80
ENDCHAR
STARTCHAR paragraph
ENCODING 182
SWIDTH 602 0
DWIDTH 9 0
BBX 6 11 1 -1
BITMAP
7C
94
94
94
74
14
14
14
14
14
14
ENDCHAR
STARTCHAR periodcentered
ENCODING 183
SWIDTH 602 0
DWIDTH 9 0
BBX 1 2 4 3
BITMAP
80
80
ENDCHAR
STARTCHAR cedilla
ENCODING 184
SWIDTH 602 0
DWIDTH 9 0
BBX 3 2 2 -2
BITMAP
20
C0
ENDCHAR
STARTCHAR onesuperior
ENCODING 185
SWIDTH 602 0
DWIDTH 9 0
BBX 5 7 2 3
BITMAP
60
A0
20
20
20
20
F8
ENDCHAR
STARTCHAR ordmasculine
ENCODING 186
SWIDTH 602 0
DWIDTH 9 0
BBX 6 7 1 3
BITMAP
30
48
84
84
84
48
30
ENDCHAR
STARTCHAR guillemotright
ENCODING 187
SWIDTH 602 0
DWIDTH 9 0
BBX 7 5 1 2
BITMAP
88
44
22
44
88
ENDCHAR
STARTCHAR onequarter
ENCODING 188
SWIDTH 602 0
DWIDTH 9 0
BBX 9 10 0 0
BITMAP
4400
C400
4800
4800
5300
5500
2900
2F80
4100
4100
ENDCHAR
STARTCHAR onehalf
ENCODING 189
SWIDTH 602 0
DWIDTH 9 0
BBX 9 10 0 0
BITMAP
4400
C400
4800
4800
5000
5700
1080
1300
2400
2780
ENDCHAR
STARTCHAR threequarters
ENCODING 190
SWIDTH 602 0
DWIDTH 9 0
BBX 9 10 0 0
BITMAP
E400
2400
C800
2800
D300
1500
2900
2F80
4100
4100
ENDCHAR
STARTCHAR questiondown
ENCODING 191
SWIDTH 602 0
DWIDTH 9 0
BBX 6 10 2 -2
BITMAP
10
10
00
10
20
40
80
80
84
78
ENDCHAR
STARTCHAR Agrave
ENCODING 192
SWIDTH 602 0
DWIDTH 9 0
BBX 7 13 1 0
BITMAP
60
18
00
10
10
28
28
44
44
FE
82
82
82
ENDCHAR
STARTCHAR Aacute
ENCODING 193
SWIDTH 602 0
DWIDTH 9 0
BBX 7 13 1 0
BITMAP
0C
30
00
10
10
28
28
44
44
FE
82
82
82
ENDCHAR
STARTCHAR Acircumflex
ENCODING 194
SWIDTH 602 0
DWIDTH 9 0
BBX 7 13 1 0
BITMAP
18
24
00
10
10
28
28
44
44
FE
82
82
82
ENDCHAR
STARTCHAR Atilde
ENCODING 195
SWIDTH 602 0
DWIDTH 9 0
BBX 7 13 1 0
BITMAP
1A
2C
00
10
10
28
28
44
44
FE
82
82
82
ENDCHAR
STARTCHAR Adieresis
ENCODING 196
SWIDTH 602 0
DWIDTH 9 0
BBX 7 13 1 0
BITMAP
44
44
00
10
10
28
28
44
44
FE
82
82
82
ENDCHAR
STARTCHAR Aring
ENCODING 197
SWIDTH 602 0
DWIDTH 9 0
BBX 7 12 1 0
BITMAP
10
28
10
10
28
28
44
44
FE
82
82
82
ENDCHAR
STARTCHAR AE
ENCODING 198
SWIDTH 602 0
DWIDTH 9 0
BBX 8 10 1 0
BITMAP
1F
18
28
28
4E
48
78
88
88
8F
ENDCHAR
STARTCHAR Ccedilla
ENCODING 199
SWIDTH 602 0
DWIDTH 9 0
BBX 7 12 1 -2
BITMAP
3C
42
80
80
80
80
80
80
42
3C
08
30
ENDCHAR
STARTCHAR Egrave
ENCODING 200
SWIDTH 602 0
DWIDTH 9 0
BBX 6 13 2 0
BITMAP
60
18
00
FC
80
80
80
F8
80
80
80
80
FC
ENDCHAR
STARTCHAR Eacute
ENCODING 201
SWIDTH 602 0
DWIDTH 9 0
BBX 6 13 2 0
BITMAP
18
60
00
FC
80
80
80
F8
80
80
80
80
FC
ENDCHAR
STARTCHAR Ecircumflex
ENCODING 202
SWIDTH 602 0
DWIDTH 9 0
BBX 6 13 2 0
BITMAP
30
48
00
FC
80
80
80
F8
80
80
80
80
FC
ENDCHAR
STARTCHAR Edieresis
ENCODING 203
SWIDTH 602 0
DWIDTH 9 0
BBX 6 13 2 0
BITMAP
48
48
00
FC
80
80
80
F8
80
80
80
80
FC
ENDCHAR
STARTCHAR Igrave
ENCODING 204
SWIDTH 602 0
DWIDTH 9 0
BBX 5 13 2 0
BITMAP
C0
30
00
F8
20
20
20
20
20
20
20
20
F8
ENDCHAR
STARTCHAR Iacute
ENCODING 205
SWIDTH 602 0
DWIDTH 9 0
BBX 5 13 2 0
BITMAP
18
60
00
F8
20
20
20
20
20
20
20
20
F8
ENDCHAR
STARTCHAR Icircumflex
ENCODING 206
SWIDTH 602 0
DWIDTH 9 0
BBX 5 13 2 0
BITMAP
30
48
00
F8
20
20
20
20
20
20
20
20
F8
ENDCHAR
STARTCHAR Idieresis
ENCODING 207
SWIDTH 602 0
DWIDTH 9 0
BBX 5 13 2 0
BITMAP
88
88
00
F8
20
20
20
20
20
20
20
20
F8
ENDCHAR
STARTCHAR Eth
ENCODING 208
SWIDTH 602 0
DWIDTH 9 0
BBX 8 10 0 0
BITMAP
3C
22
21
21
F9
21
21
21
22
3C
ENDCHAR
STARTCHAR Ntilde
ENCODING 209
SWIDTH 602 0
DWIDTH 9 0
BBX 7 13 1 0
BITMAP
34
58
00
C2
C2
A2
A2
92
92
8A
8A
86
86
ENDCHAR
STARTCHAR Ograve
ENCODING 210
SWIDTH 602 0
DWIDTH 9 0
BBX 7 13 1 0
BITMAP
60
18
00
38
44
82
82
82
82
82
82
44
38
ENDCHAR
STARTCHAR Oacute
ENCODING 211
SWIDTH 602 0
DWIDTH 9 0
BBX 7 13 1 0
BITMAP
0C
30
00
38
44
82
82
82
82
82
82
44
38
ENDCHAR
STARTCHAR Ocircumflex
ENCODING 212
SWIDTH 602 0
DWIDTH 9 0
BBX 7 13 1 0
BITMAP
18
24
00
38
44
82
82
82
82
82
82
44
38
ENDCHAR
STARTCHAR Otilde
ENCODING 213
SWIDTH 602 0
DWIDTH 9 0
BBX 7 13 1 0
BITMAP
34
58
00
38
44
82
82
82
82
82
82
44
38
ENDCHAR
STARTCHAR Odieresis
ENCODING 214
SWIDTH 602 0
DWIDTH 9 0
BBX 7 13 1 0
BITMAP
44
44
00
38
44
82
82
82
82
82
82
44
38
ENDCHAR
STARTCHAR multiply
ENCODING 215
SWIDTH 602 0
DWIDTH 9 0
BBX 6 6 2 2
BITMAP
84
48
30
30
48
84
ENDCHAR
STARTCHAR Oslash
ENCODING 216
SWIDTH 602 0
DWIDTH 9 0
BBX 7 10 1 0
BITMAP
3A
44
8A
8A
92
92
A2
A2
44
B8
ENDCHAR
STARTCHAR Ugrave
ENCODING 217
SWIDTH 602 0
DWIDTH 9 0
BBX 7 13 1 0
BITMAP
60
18
00
82
82
82
82
82
82
82
82
44
38
ENDCHAR
STARTCHAR Uacute
ENCODING 218
SWIDTH 602 0
DWIDTH 9 0
BBX 7 13 1 0
BITMAP
0C
30
00
82
82
82
82
82
82
82
82
44
38
ENDCHAR
STARTCHAR Ucircumflex
ENCODING 219
SWIDTH 602 0
DWIDTH 9 0
BBX 7 13 1 0
BITMAP
18
24
00
82
82
82
82
82
82
82
82
44
38
ENDCHAR
STARTCHAR Udieresis
ENCODING 220
SWIDTH 602 0
DWIDTH 9 0
BBX 7 13 1 0
BITMAP
44
44
00
82
82
82
82
82
82
82
82
44
38
ENDCHAR
STARTCHAR Yacute
ENCODING 221
SWIDTH 602 0
DWIDTH 9 0
BBX 7 13 1 0
BITMAP
0C
30
00
82
82
44
44
28
10
10
10
10
10
ENDCHAR
STARTCHAR Thorn
ENCODING 222
SWIDTH 602 0
DWIDTH 9 0
BBX 6 10 2 0
BITMAP
80
80
F8
84
84
84
88
F0
80
80
ENDCHAR
STARTCHAR germandbls
ENCODING 223
SWIDTH 602 0
DWIDTH 9 0
BBX 6 11 2 0
BITMAP
70
88
88
90
A0
98
84
84
84
84
B8
ENDCHAR
STARTCHAR agrave
ENCODING 224
SWIDTH 602 0
DWIDTH 9 0
BBX 8 11 1 0
BITMAP
60
18
00
78
04
04
7C
84
84
8C
73
ENDCHAR
STARTCHAR aacute
ENCODING 225
SWIDTH 602 0
DWIDTH 9 0
BBX 8 11 1 0
BITMAP
0C
30
00
78
04
04
7C
84
84
8C
73
ENDCHAR
STARTCHAR acircumflex
ENCODING 226
SWIDTH 602 0
DWIDTH 9 0
BBX 8 11 1 0
BITMAP
18
24
00
78
04
04
7C
84
84
8C
73
ENDCHAR
STARTCHAR atilde
ENCODING 227
SWIDTH 602 0
DWIDTH 9 0
BBX 8 11 1 0
BITMAP
34
58
00
78
04
04
7C
84
84
8C
73
ENDCHAR
STARTCHAR adieresis
ENCODING 228
SWIDTH 602 0
DWIDTH 9 0
BBX 8 11 1 0
BITMAP
28
28
00
78
04
04
7C
84
84
8C
73
ENDCHAR
STARTCHAR aring
ENCODING 229
SWIDTH 602 0
DWIDTH 9 0
BBX 8 11 1 0
BITMAP
10
28
10
78
04
04
7C
84
84
8C
73
ENDCHAR
STARTCHAR ae
ENCODING 230
SWIDTH 602 0
DWIDTH 9 0
BBX 7 8 1 0
BITMAP
EC
12
12
7E
90
90
92
6C
ENDCHAR
STARTCHAR ccedilla
ENCODING 231
SWIDTH 602 0
DWIDTH 9 0
BBX 7 10 1 -2
BITMAP
3C
42
80
80
80
80
42
3C
08
30
ENDCHAR
STARTCHAR egrave
ENCODING 232
SWIDTH 602 0
DWIDTH 9 0
BBX 7 11 1 0
BITMAP
30
0C
00
3C
42
82
FE
80
80
42
3C
ENDCHAR
STARTCHAR eacute
ENCODING 233
SWIDTH 602 0
DWIDTH 9 0
BBX 7 11 1 0
BITMAP
0C
30
00
3C
42
82
FE
80
80
42
3C
ENDCHAR
STARTCHAR ecircumflex
ENCODING 234
SWIDTH 602 0
DWIDTH 9 0
BBX 7 11 1 0
BITMAP
18
24
00
3C
42
82
FE
80
80
42
3C
ENDCHAR
STARTCHAR edieresis
ENCODING 235
SWIDTH 602 0
DWIDTH 9 0
BBX 7 11 1 0
BITMAP
24
24
00
3C
42
82
FE
80
80
42
3C
ENDCHAR
STARTCHAR igrave
ENCODING 236
SWIDTH 602 0
DWIDTH 9 0
BBX 5 11 1 0
BITMAP
60
18
00
F0
10
10
10
10
10
10
10
ENDCHAR
STARTCHAR iacute
ENCODING 237
SWIDTH 602 0
DWIDTH 9 0
BBX 5 11 1 0
BITMAP
18
60
00
F0
10
10
10
10
10
10
10
ENDCHAR
STARTCHAR icircumflex
ENCODING 238
SWIDTH 602 0
DWIDTH 9 0
BBX 5 11 1 0
BITMAP
30
48
00
F0
10
10
10
10
10
10
10
ENDCHAR
STARTCHAR idieresis
ENCODING 239
SWIDTH 602 0
DWIDTH 9 0
BBX 5 11 1 0
BITMAP
48
48
00
F0
10
10
10
10
10
10
10
ENDCHAR
STARTCHAR eth
ENCODING 240
SWIDTH 602 0
DWIDTH 9 0
BBX 7 11 1 0
BITMAP
CC
30
D0
3C
44
82
82
82
82
44
38
ENDCHAR
STARTCHAR ntilde
ENCODING 241
SWIDTH 602 0
DWIDTH 9 0
BBX 7 11 1 0
BITMAP
34
58
00
9C
A6
C2
82
82
82
82
82
ENDCHAR
STARTCHAR ograve
ENCODING 242
SWIDTH 602 0
DWIDTH 9 0
BBX 7 11 1 0
BITMAP
60
18
00
38
44
82
82
82
82
44
38
ENDCHAR
STARTCHAR oacute
ENCODING 243
SWIDTH 602 0
DWIDTH 9 0
BBX 7 11 1 0
BITMAP
0C
30
00
38
44
82
82
82
82
44
38
ENDCHAR
STARTCHAR ocircumflex
ENCODING 244
SWIDTH 602 0
DWIDTH 9 0
BBX 7 11 1 0
BITMAP
18
24
00
38
44
82
82
82
82
44
38
ENDCHAR
STARTCHAR otilde
ENCODING 245
SWIDTH 602 0
DWIDTH 9 0
BBX 7 11 1 0
BITMAP
34
58
00
38
44
82
82
82
82
44
38
ENDCHAR
STARTCHAR odieresis
ENCODING 246
SWIDTH 602 0
DWIDTH 9 0
BBX 7 11 1 0
BITMAP
28
28
00
38
44
82
82
82
82
44
38
ENDCHAR
STARTCHAR divide
ENCODING 247
SWIDTH 602 0
DWIDTH 9 0
BBX 7 7 1 1
BITMAP
10
10
00
FE
00
10
10
ENDCHAR
STARTCHAR oslash
ENCODING 248
SWIDTH 602 0
DWIDTH 9 0
BBX 7 8 1 0
BITMAP
3A
44
8A
92
92
A2
44
B8
ENDCHAR
STARTCHAR ugrave
ENCODING 249
SWIDTH 602 0
DWIDTH 9 0
BBX 7 11 1 0
BITMAP
60
18
00
82
82
82
82
82
86
CA
72
ENDCHAR
STARTCHAR uacute
ENCODING 250
SWIDTH 602 0
DWIDTH 9 0
BBX 7 11 1 0
BITMAP
0C
30
00
82
82
82
82
82
86
CA
72
ENDCHAR
STARTCHAR ucircumflex
ENCODING 251
SWIDTH 602 0
DWIDTH 9 0
BBX 7 11 1 0
BITMAP
18
24
00
82
82
82
82
82
86
CA
72
ENDCHAR
STARTCHAR udieresis
ENCODING 252
SWIDTH 602 0
DWIDTH 9 0
BBX 7 11 1 0
BITMAP
28
28
00
82
82
82
82
82
86
CA
72
ENDCHAR
STARTCHAR yacute
ENCODING 253
SWIDTH 602 0
DWIDTH 9 0
BBX 7 13 1 -2
BITMAP
0C
30
00
82
82
44
44
28
28
10
10
20
60
ENDCHAR
STARTCHAR thorn
ENCODING 254
SWIDTH 602 0
DWIDTH 9 0
BBX 7 13 1 -2
BITMAP
80
80
80
B8
C4
82
82
82
82
84
F8
80
80
ENDCHAR
STARTCHAR ydieresis
ENCODING 255
SWIDTH 602 0
DWIDTH 9 0
BBX 7 13 1 -2
BITMAP
28
28
00
82
82
44
44
28
28
10
10
20
60
ENDCHAR
STARTCHAR uni0400
ENCODING 1024
SWIDTH 602 0
DWIDTH 9 0
BBX 6 13 2 0
BITMAP
60
18
00
FC
80
80
80
F8
80
80
80
80
FC
ENDCHAR
STARTCHAR afii10023
ENCODING 1025
SWIDTH 602 0
DWIDTH 9 0
BBX 6 13 2 0
BITMAP
48
48
00
FC
80
80
80
F8
80
80
80
80
FC
ENDCHAR
STARTCHAR afii10051
ENCODING 1026
SWIDTH 602 0
DWIDTH 9 0
BBX 8 10 0 0
BITMAP
FC
40
40
5E
63
41
41
41
43
4E
ENDCHAR
STARTCHAR afii10052
ENCODING 1027
SWIDTH 602 0
DWIDTH 9 0
BBX 6 13 2 0
BITMAP
18
60
00
FC
80
80
80
80
80
80
80
80
80
ENDCHAR
STARTCHAR afii10053
ENCODING 1028
SWIDTH 602 0
DWIDTH 9 0
BBX 7 10 1 0
BITMAP
3C
42
80
80
F8
80
80
80
42
3C
ENDCHAR
STARTCHAR afii10054
ENCODING 1029
SWIDTH 602 0
DWIDTH 9 0
BBX 7 10 1 0
BITMAP
7C
82
80
80
60
1C
02
02
82
7C
ENDCHAR
STARTCHAR afii10055
ENCODING 1030
SWIDTH 602 0
DWIDTH 9 0
BBX 5 10 2 0
BITMAP
F8
20
20
20
20
20
20
20
20
F8
ENDCHAR
STARTCHAR afii10056
ENCODING 1031
SWIDTH 602 0
DWIDTH 9 0
BBX 5 13 2 0
BITMAP
88
88
00
F8
20
20
20
20
20
20
20
20
F8
ENDCHAR
STARTCHAR afii10057
ENCODING 1032
SWIDTH 602 0
DWIDTH 9 0
BBX 5 10 1 0
BITMAP
78
08
08
08
08
08
08
08
10
E0
ENDCHAR
STARTCHAR afii10058
ENCODING 1033
SWIDTH 602 0
DWIDTH 9 0
BBX 8 10 0 0
BITMAP
78
48
48
48
4C
4A
49
49
49
8E
ENDCHAR
STARTCHAR afii10059
ENCODING 1034
SWIDTH 602 0
DWIDTH 9 0
BBX 7 10 1 0
BITMAP
90
90
90
90
F8
94
92
92
92
9C
ENDCHAR
STARTCHAR afii10060
ENCODING 1035
SWIDTH 602 0
DWIDTH 9 0
BBX 8 10 0 0
BITMAP
FC
40
40
5E
63
41
41
41
41
41
ENDCHAR
STARTCHAR afii10061
ENCODING 1036
SWIDTH 602 0
DWIDTH 9 0
BBX 6 13 2 0
BITMAP
18
60
00
84
88
90
A0
C0
A0
90
88
84
84
ENDCHAR
STARTCHAR afii10062
ENCODING 1038
SWIDTH 602 0
DWIDTH 9 0
BBX 7 12 1 0
BITMAP
38
00
82
82
82
44
44
28
28
10
20
40
ENDCHAR
STARTCHAR afii10145
ENCODING 1039
SWIDTH 602 0
DWIDTH 9 0
BBX 7 12 1 -2
BITMAP
82
82
82
82
82
82
82
82
82
FE
10
10
ENDCHAR
STARTCHAR afii10017
ENCODING 1040
SWIDTH 602 0
DWIDTH 9 0
BBX 7 10 1 0
BITMAP
10
10
28
28
44
44
FE
82
82
82
ENDCHAR
STARTCHAR afii10018
ENCODING 1041
SWIDTH 602 0
DWIDTH 9 0
BBX 6 10 2 0
BITMAP
FC
80
80
80
F0
88
84
84
84
F8
ENDCHAR
STARTCHAR afii10019
ENCODING 1042
SWIDTH 602 0
DWIDTH 9 0
BBX 6 10 2 0
BITMAP
F8
84
84
88
F0
88
84
84
84
F8
ENDCHAR
STARTCHAR afii10020
ENCODING 1043
SWIDTH 602 0
DWIDTH 9 0
BBX 6 10 2 0
BITMAP
FC
80
80
80
80
80
80
80
80
80
ENDCHAR
STARTCHAR afii10021
ENCODING 1044
SWIDTH 602 0
DWIDTH 9 0
BBX 8 12 1 -2
BITMAP
3E
22
22
22
22
22
22
42
42
FF
81
81
ENDCHAR
STARTCHAR afii10022
ENCODING 1045
SWIDTH 602 0
DWIDTH 9 0
BBX 6 10 2 0
BITMAP
FC
80
80
80
F8
80
80
80
80
FC
ENDCHAR
STARTCHAR afii10024
ENCODING 1046
SWIDTH 602 0
DWIDTH 9 0
BBX 7 10 1 0
BITMAP
92
92
54
38
10
38
54
54
92
92
ENDCHAR
STARTCHAR afii10025
ENCODING 1047
SWIDTH 602 0
DWIDTH 9 0
BBX 6 10 2 0
BITMAP
78
84
04
08
70
08
04
04
84
78
ENDCHAR
STARTCHAR afii10026
ENCODING 1048
SWIDTH 602 0
DWIDTH 9 0
BBX 7 10 1 0
BITMAP
86
86
8A
8A
92
92
A2
A2
C2
C2
ENDCHAR
STARTCHAR afii10027
ENCODING 1049
SWIDTH 602 0
DWIDTH 9 0
BBX 7 12 1 0
BITMAP
38
00
86
86
8A
8A
92
92
A2
A2
C2
C2
ENDCHAR
STARTCHAR afii10028
ENCODING 1050
SWIDTH 602 0
DWIDTH 9 0
BBX 6 10 2 0
BITMAP
84
88
90
A0
C0
A0
90
88
84
84
ENDCHAR
STARTCHAR afii10029
ENCODING 1051
SWIDTH 602 0
DWIDTH 9 0
BBX 7 10 1 0
BITMAP
3E
22
22
22
22
22
22
42
42
82
ENDCHAR
STARTCHAR afii10030
ENCODING 1052
SWIDTH 602 0
DWIDTH 9 0
BBX 7 10 1 0
BITMAP
C6
C6
AA
AA
AA
AA
92
92
82
82
ENDCHAR
STARTCHAR afii10031
ENCODING 1053
SWIDTH 602 0
DWIDTH 9 0
BBX 7 10 1 0
BITMAP
82
82
82
82
FE
82
82
82
82
82
ENDCHAR
STARTCHAR afii10032
ENCODING 1054
SWIDTH 602 0
DWIDTH 9 0
BBX 7 10 1 0
BITMAP
38
44
82
82
82
82
82
82
44
38
ENDCHAR
STARTCHAR afii10033
ENCODING 1055
SWIDTH 602 0
DWIDTH 9 0
BBX 7 10 1 0
BITMAP
FE
82
82
82
82
82
82
82
82
82
ENDCHAR
STARTCHAR afii10034
ENCODING 1056
SWIDTH 602 0
DWIDTH 9 0
BBX 6 10 2 0
BITMAP
F8
84
84
84
88
F0
80
80
80
80
ENDCHAR
STARTCHAR afii10035
ENCODING 1057
SWIDTH 602 0
DWIDTH 9 0
BBX 7 10 1 0
BITMAP
3C
42
80
80
80
80
80
80
42
3C
ENDCHAR
STARTCHAR afii10036
ENCODING 1058
SWIDTH 602 0
DWIDTH 9 0
BBX 7 10 1 0
BITMAP
FE
10
10
10
10
10
10
10
10
10
ENDCHAR
STARTCHAR afii10037
ENCODING 1059
SWIDTH 602 0
DWIDTH 9 0
BBX 7 10 1 0
BITMAP
82
82
82
44
44
28
28
10
20
40
ENDCHAR
STARTCHAR afii10038
ENCODING 1060
SWIDTH 602 0
DWIDTH 9 0
BBX 7 10 1 0
BITMAP
10
38
54
92
92
92
92
54
38
10
ENDCHAR
STARTCHAR afii10039
ENCODING 1061
SWIDTH 602 0
DWIDTH 9 0
BBX 7 10 1 0
BITMAP
82
82
44
28
10
28
44
44
82
82
ENDCHAR
STARTCHAR afii10040
ENCODING 1062
SWIDTH 602 0
DWIDTH 9 0
BBX 7 12 1 -2
BITMAP
84
84
84
84
84
84
84
84
84
FE
02
02
ENDCHAR
STARTCHAR afii10041
ENCODING 1063
SWIDTH 602 0
DWIDTH 9 0
BBX 7 10 1 0
BITMAP
82
82
82
82
82
C6
7A
02
02
02
ENDCHAR
STARTCHAR afii10042
ENCODING 1064
SWIDTH 602 0
DWIDTH 9 0
BBX 7 10 1 0
BITMAP
92
92
92
92
92
92
92
92
92
FE
ENDCHAR
STARTCHAR afii10043
ENCODING 1065
SWIDTH 602 0
DWIDTH 9 0
BBX 8 12 1 -2
BITMAP
92
92
92
92
92
92
92
92
92
FF
01
01
ENDCHAR
STARTCHAR afii10044
ENCODING 1066
SWIDTH 602 0
DWIDTH 9 0
BBX 8 10 0 0
BITMAP
E0
20
20
20
3C
22
21
21
21
3E
ENDCHAR
STARTCHAR afii10045
ENCODING 1067
SWIDTH 602 0
DWIDTH 9 0
BBX 7 10 1 0
BITMAP
82
82
82
82
E2
92
8A
8A
8A
F2
ENDCHAR
STARTCHAR afii10046
ENCODING 1068
SWIDTH 602 0
DWIDTH 9 0
BBX 6 10 2 0
BITMAP
80
80
80
80
F0
88
84
84
84
F8
ENDCHAR
STARTCHAR afii10047
ENCODING 1069
SWIDTH 602 0
DWIDTH 9 0
BBX 7 10 1 0
BITMAP
78
84
02
02
3E
02
02
02
84
78
ENDCHAR
STARTCHAR afii10048
ENCODING 1070
SWIDTH 602 0
DWIDTH 9 0
BBX 8 10 1 0
BITMAP
8C
92
A1
A1
E1
A1
A1
A1
92
8C
ENDCHAR
STARTCHAR afii10049
ENCODING 1071
SWIDTH 602 0
DWIDTH 9 0
BBX 6 10 2 0
BITMAP
7C
84
84
84
44
3C
44
44
84
84
ENDCHAR
STARTCHAR afii10065
ENCODING 1072
SWIDTH 602 0
DWIDTH 9 0
BBX 8 8 1 0
BITMAP
78
04
04
7C
84
84
8C
73
ENDCHAR
STARTCHAR afii10066
ENCODING 1073
SWIDTH 602 0
DWIDTH 9 0
BBX 7 11 1 0
BITMAP
1E
20
40
B8
C4
82
82
82
82
44
38
ENDCHAR
STARTCHAR afii10067
ENCODING 1074
SWIDTH 602 0
DWIDTH 9 0
BBX 7 8 1 0
BITMAP
FC
82
82
FC
84
82
82
FC
ENDCHAR
STARTCHAR afii10068
ENCODING 1075
SWIDTH 602 0
DWIDTH 9 0
BBX 6 8 2 0
BITMAP
FC
80
80
80
80
80
80
80
ENDCHAR
STARTCHAR afii10069
ENCODING 1076
SWIDTH 602 0
DWIDTH 9 0
BBX 7 9 1 -1
BITMAP
3C
24
24
24
24
44
44
FE
82
ENDCHAR
STARTCHAR afii10070
ENCODING 1077
SWIDTH 602 0
DWIDTH 9 0
BBX 7 8 1 0
BITMAP
3C
42
82
FE
80
80
42
3C
ENDCHAR
STARTCHAR afii10072
ENCODING 1078
SWIDTH 602 0
DWIDTH 9 0
BBX 7 8 1 0
BITMAP
92
54
38
10
38
54
92
92
ENDCHAR
STARTCHAR afii10073
ENCODING 1079
SWIDTH 602 0
DWIDTH 9 0
BBX 7 8 1 0
BITMAP
7C
82
02
3C
04
02
82
7C
ENDCHAR
STARTCHAR afii10074
ENCODING 1080
SWIDTH 602 0
DWIDTH 9 0
BBX 7 8 1 0
BITMAP
86
8A
8A
92
92
A2
A2
C2
ENDCHAR
STARTCHAR afii10075
ENCODING 1081
SWIDTH 602 0
DWIDTH 9 0
BBX 7 10 1 0
BITMAP
38
00
86
8A
8A
92
92
A2
A2
C2
ENDCHAR
STARTCHAR afii10076
ENCODING 1082
SWIDTH 602 0
DWIDTH 9 0
BBX 6 8 1 0
BITMAP
84
88
90
A0
D0
88
84
84
ENDCHAR
STARTCHAR afii10077
ENCODING 1083
SWIDTH 602 0
DWIDTH 9 0
BBX 7 8 1 0
BITMAP
3E
22
22
22
22
42
42
82
ENDCHAR
STARTCHAR afii10078
ENCODING 1084
SWIDTH 602 0
DWIDTH 9 0
BBX 7 8 1 0
BITMAP
C6
C6
AA
AA
92
92
82
82
ENDCHAR
STARTCHAR afii10079
ENCODING 1085
SWIDTH 602 0
DWIDTH 9 0
BBX 7 8 1 0
BITMAP
82
82
82
FE
82
82
82
82
ENDCHAR
STARTCHAR afii10080
ENCODING 1086
SWIDTH 602 0
DWIDTH 9 0
BBX 7 8 1 0
BITMAP
38
44
82
82
82
82
44
38
ENDCHAR
STARTCHAR afii10081
ENCODING 1087
SWIDTH 602 0
DWIDTH 9 0
BBX 7 8 1 0
BITMAP
FE
82
82
82
82
82
82
82
ENDCHAR
STARTCHAR afii10082
ENCODING 1088
SWIDTH 602 0
DWIDTH 9 0
BBX 7 10 1 -2
BITMAP
98
A4
C2
82
82
82
84
F8
80
80
ENDCHAR
STARTCHAR afii10083
ENCODING 1089
SWIDTH 602 0
DWIDTH 9 0
BBX 7 8 1 0
BITMAP
3C
42
80
80
80
80
42
3C
ENDCHAR
STARTCHAR afii10084
ENCODING 1090
SWIDTH 602 0
DWIDTH 9 0
BBX 7 8 1 0
BITMAP
FE
10
10
10
10
10
10
10
ENDCHAR
STARTCHAR afii10085
ENCODING 1091
SWIDTH 602 0
DWIDTH 9 0
BBX 7 10 1 -2
BITMAP
82
82
44
44
28
28
10
10
20
60
ENDCHAR
STARTCHAR afii10086
ENCODING 1092
SWIDTH 602 0
DWIDTH 9 0
BBX 7 13 1 -2
BITMAP
10
10
10
7C
92
92
92
92
92
92
7C
10
10
ENDCHAR
STARTCHAR afii10087
ENCODING 1093
SWIDTH 602 0
DWIDTH 9 0
BBX 7 8 1 0
BITMAP
82
44
28
10
28
44
82
82
ENDCHAR
STARTCHAR afii10088
ENCODING 1094
SWIDTH 602 0
DWIDTH 9 0
BBX 7 9 1 -1
BITMAP
84
84
84
84
84
84
84
FE
02
ENDCHAR
STARTCHAR afii10089
ENCODING 1095
SWIDTH 602 0
DWIDTH 9 0
BBX 7 8 1 0
BITMAP
82
82
82
82
C6
7A
02
02
ENDCHAR
STARTCHAR afii10090
ENCODING 1096
SWIDTH 602 0
DWIDTH 9 0
BBX 7 8 1 0
BITMAP
92
92
92
92
92
92
92
FE
ENDCHAR
STARTCHAR afii10091
ENCODING 1097
SWIDTH 602 0
DWIDTH 9 0
BBX 8 9 1 -1
BITMAP
92
92
92
92
92
92
92
FF
01
ENDCHAR
STARTCHAR afii10092
ENCODING 1098
SWIDTH 602 0
DWIDTH 9 0
BBX 8 8 0 0
BITMAP
C0
40
40
7C
42
41
41
7E
ENDCHAR
STARTCHAR afii10093
ENCODING 1099
SWIDTH 602 0
DWIDTH 9 0
BBX 7 8 1 0
BITMAP
82
82
82
E2
92
8A
8A
F2
ENDCHAR
STARTCHAR afii10094
ENCODING 1100
SWIDTH 602 0
DWIDTH 9 0
BBX 7 8 1 0
BITMAP
80
80
80
F8
84
82
82
FC
ENDCHAR
STARTCHAR afii10095
ENCODING 1101
SWIDTH 602 0
DWIDTH 9 0
BBX 7 8 1 0
BITMAP
78
84
02
3E
02
02
84
78
ENDCHAR
STARTCHAR afii10096
ENCODING 1102
SWIDTH 602 0
DWIDTH 9 0
BBX 8 8 1 0
BITMAP
8C
92
A1
E1
A1
A1
92
8C
ENDCHAR
STARTCHAR afii10097
ENCODING 1103
SWIDTH 602 0
DWIDTH 9 0
BBX 7 8 1 0
BITMAP
7E
82
82
42
3E
42
82
82
ENDCHAR
STARTCHAR uni0450
ENCODING 1104
SWIDTH 602 0
DWIDTH 9 0
BBX 7 11 1 0
BITMAP
30
0C
00
3C
42
82
FE
80
80
42
3C
ENDCHAR
STARTCHAR afii10071
ENCODING 1105
SWIDTH 602 0
DWIDTH 9 0
BBX 7 11 1 0
BITMAP
24
24
00
3C
42
82
FE
80
80
42
3C
ENDCHAR
STARTCHAR afii10099
ENCODING 1106
SWIDTH 602 0
DWIDTH 9 0
BBX 8 13 0 -2
BITMAP
40
F8
40
4E
53
61
41
41
41
41
41
02
1C
ENDCHAR
STARTCHAR afii10100
ENCODING 1107
SWIDTH 602 0
DWIDTH 9 0
BBX 6 11 2 0
BITMAP
18
60
00
FC
80
80
80
80
80
80
80
ENDCHAR
STARTCHAR afii10101
ENCODING 1108
SWIDTH 602 0
DWIDTH 9 0
BBX 7 8 1 0
BITMAP
3C
42
80
F8
80
80
42
3C
ENDCHAR
STARTCHAR afii10102
ENCODING 1109
SWIDTH 602 0
DWIDTH 9 0
BBX 7 8 1 0
BITMAP
7C
82
80
70
0C
02
82
7C
ENDCHAR
STARTCHAR afii10103
ENCODING 1110
SWIDTH 602 0
DWIDTH 9 0
BBX 4 11 2 0
BITMAP
10
10
00
F0
10
10
10
10
10
10
10
ENDCHAR
STARTCHAR afii10104
ENCODING 1111
SWIDTH 602 0
DWIDTH 9 0
BBX 5 11 1 0
BITMAP
48
48
00
F0
10
10
10
10
10
10
10
ENDCHAR
STARTCHAR afii10105
ENCODING 1112
SWIDTH 602 0
DWIDTH 9 0
BBX 5 13 1 -2
BITMAP
08
08
00
78
08
08
08
08
08
08
08
10
E0
ENDCHAR
STARTCHAR afii10106
ENCODING 1113
SWIDTH 602 0
DWIDTH 9 0
BBX 8 8 0 0
BITMAP
78
48
48
4C
4A
49
49
8E
ENDCHAR
STARTCHAR afii10107
ENCODING 1114
SWIDTH 602 0
DWIDTH 9 0
BBX 7 8 1 0
BITMAP
90
90
90
F8
94
92
92
9C
ENDCHAR
STARTCHAR afii10108
ENCODING 1115
SWIDTH 602 0
DWIDTH 9 0
BBX 8 11 0 0
BITMAP
40
F8
40
4E
53
61
41
41
41
41
41
ENDCHAR
STARTCHAR afii10109
ENCODING 1116
SWIDTH 602 0
DWIDTH 9 0
BBX 6 11 1 0
BITMAP
0C
30
00
84
88
90
A0
D0
88
84
84
ENDCHAR
STARTCHAR afii10110
ENCODING 1118
SWIDTH 602 0
DWIDTH 9 0
BBX 7 12 1 -2
BITMAP
38
00
82
82
44
44
28
28
10
10
20
60
ENDCHAR
STARTCHAR afii10193
ENCODING 1119
SWIDTH 602 0
DWIDTH 9 0
BBX 7 10 1 -2
BITMAP
82
82
82
82
82
82
82
FE
10
10
ENDCHAR
STARTCHAR afii10146
ENCODING 1122
SWIDTH 602 0
DWIDTH 9 0
BBX 8 10 0 0
BITMAP
20
F8
20
20
3C
22
21
21
21
3E
ENDCHAR
STARTCHAR afii10194
ENCODING 1123
SWIDTH 602 0
DWIDTH 9 0
BBX 8 11 0 0
BITMAP
40
40
40
E0
40
40
7C
42
41
41
7E
ENDCHAR
STARTCHAR afii10147
ENCODING 1138
SWIDTH 602 0
DWIDTH 9 0
BBX 7 10 1 0
BITMAP
38
44
82
82
FE
82
82
82
44
38
ENDCHAR
STARTCHAR afii10195
ENCODING 1139
SWIDTH 602 0
DWIDTH 9 0
BBX 7 8 1 0
BITMAP
38
44
82
FE
82
82
44
38
ENDCHAR
STARTCHAR afii10148
ENCODING 1140
SWIDTH 602 0
DWIDTH 9 0
BBX 8 10 1 0
BITMAP
81
82
82
44
44
44
28
28
10
10
ENDCHAR
STARTCHAR afii10196
ENCODING 1141
SWIDTH 602 0
DWIDTH 9 0
BBX 8 8 1 0
BITMAP
81
82
44
44
28
28
10
10
ENDCHAR
STARTCHAR afii10050
ENCODING 1168
SWIDTH 602 0
DWIDTH 9 0
BBX 6 12 2 0
BITMAP
04
04
FC
80
80
80
80
80
80
80
80
80
ENDCHAR
STARTCHAR afii10098
ENCODING 1169
SWIDTH 602 0
DWIDTH 9 0
BBX 6 9 2 0
BITMAP
04
FC
80
80
80
80
80
80
80
ENDCHAR
STARTCHAR uni04AA
ENCODING 1194
SWIDTH 602 0
DWIDTH 9 0
BBX 7 12 1 -2
BITMAP
3C
42
80
80
80
80
80
80
42
3C
08
30
ENDCHAR
STARTCHAR uni04AB
ENCODING 1195
SWIDTH 602 0
DWIDTH 9 0
BBX 7 10 1 -2
BITMAP
3C
42
80
80
80
80
42
3C
08
30
ENDCHAR
STARTCHAR uni04AE
ENCODING 1198
SWIDTH 602 0
DWIDTH 9 0
BBX 7 10 1 0
BITMAP
82
82
44
44
38
10
10
10
10
10
ENDCHAR
STARTCHAR uni04C0
ENCODING 1216
SWIDTH 602 0
DWIDTH 9 0
BBX 5 10 2 0
BITMAP
F8
20
20
20
20
20
20
20
20
F8
ENDCHAR
STARTCHAR uni04D2
ENCODING 1234
SWIDTH 602 0
DWIDTH 9 0
BBX 7 13 1 0
BITMAP
44
44
00
10
10
28
28
44
44
FE
82
82
82
ENDCHAR
STARTCHAR uni04D3
ENCODING 1235
SWIDTH 602 0
DWIDTH 9 0
BBX 8 11 1 0
BITMAP
28
28
00
78
04
04
7C
84
84
8C
73
ENDCHAR
STARTCHAR uni04D4
ENCODING 1236
SWIDTH 602 0
DWIDTH 9 0
BBX 8 10 1 0
BITMAP
1F
18
28
28
4E
48
78
88
88
8F
ENDCHAR
STARTCHAR uni04D5
ENCODING 1237
SWIDTH 602 0
DWIDTH 9 0
BBX 7 8 1 0
BITMAP
EC
12
12
7E
90
90
92
6C
ENDCHAR
STARTCHAR uni04E6
ENCODING 1254
SWIDTH 602 0
DWIDTH 9 0
BBX 7 13 1 0
BITMAP
44
44
00
38
44
82
82
82
82
82
82
44
38
ENDCHAR
STARTCHAR uni04E7
ENCODING 1255
SWIDTH 602 0
DWIDTH 9 0
BBX 7 11 1 0
BITMAP
28
28
00
38
44
82
82
82
82
44
38
ENDCHAR
STARTCHAR uni04E8
ENCODING 1256
SWIDTH 602 0
DWIDTH 9 0
BBX 7 10 1 0
BITMAP
38
44
82
82
FE
82
82
82
44
38
ENDCHAR
STARTCHAR uni04E9
ENCODING 1257
SWIDTH 602 0
DWIDTH 9 0
BBX 7 8 1 0
BITMAP
38
44
82
FE
82
82
44
38
ENDCHAR
ENDFONT
