STARTFONT 2.1
COMMENT "$Id: 8x13.bdf,v 1.56 2002-11-15 18:23:23+00 mgk25 Exp mgk25 $"
COMMENT "Send bug reports to Markus Kuhn <http://www.cl.cam.ac.uk/~mgk25/>"
FONT -Misc-Fixed-Medium-R-Normal--13-120-75-75-C-80-ISO10646-1
SIZE 13 78 78
FONTBOUNDINGBOX 8 13 0 -2
STARTPROPERTIES 23
FONTNAME_REGISTRY ""
FOUNDRY "Misc"
FAMILY_NAME "Fixed"
WEIGHT_NAME "Medium"
SLANT "R"
SETWIDTH_NAME "Normal"
ADD_STYLE_NAME ""
PIXEL_SIZE 13
POINT_SIZE 120
RESOLUTION_X 75
RESOLUTION_Y 75
SPACING "C"
AVERAGE_WIDTH 80
CHARSET_REGISTRY "ISO10646"
CHARSET_ENCODING "1"
DEFAULT_CHAR 0
FONT_DESCENT 2
FONT_ASCENT 11
COPYRIGHT "Public domain font.  Share and enjoy."
_XMBDFED_INFO "Edited with xmbdfed 4.5."
CAP_HEIGHT 9
X_HEIGHT 6
_GBDFED_INFO "Edited with gbdfed 1.1."
ENDPROPERTIES
CHARS 80
STARTCHAR uni10A0
ENCODING 4256
SWIDTH 568 0
DWIDTH 8 0
BBX 8 13 0 -2
BITMAP
00
00
7E
10
20
40
40
40
40
42
3C
00
00
ENDCHAR
STARTCHAR uni10A1
ENCODING 4257
SWIDTH 568 0
DWIDTH 8 0
BBX 8 13 0 -2
BITMAP
00
00
88
88
88
98
68
08
08
08
0E
00
00
ENDCHAR
STARTCHAR uni10A2
ENCODING 4258
SWIDTH 568 0
DWIDTH 8 0
BBX 8 13 0 -2
BITMAP
00
F8
88
88
88
08
08
08
08
08
0E
02
02
ENDCHAR
STARTCHAR uni10A3
ENCODING 4259
SWIDTH 568 0
DWIDTH 8 0
BBX 8 13 0 -2
BITMAP
00
00
FE
10
6C
82
82
82
82
82
7C
00
00
ENDCHAR
STARTCHAR uni10A4
ENCODING 4260
SWIDTH 568 0
DWIDTH 8 0
BBX 8 13 0 -2
BITMAP
00
00
7E
42
42
02
02
02
02
02
02
00
00
ENDCHAR
STARTCHAR uni10A5
ENCODING 4261
SWIDTH 568 0
DWIDTH 8 0
BBX 8 13 0 -2
BITMAP
00
00
F8
88
88
0E
0A
0A
08
08
08
00
00
ENDCHAR
STARTCHAR uni10A6
ENCODING 4262
SWIDTH 568 0
DWIDTH 8 0
BBX 8 13 0 -2
BITMAP
00
00
E0
20
20
2C
32
22
22
22
1C
00
00
ENDCHAR
STARTCHAR uni10A7
ENCODING 4263
SWIDTH 568 0
DWIDTH 8 0
BBX 8 13 0 -2
BITMAP
00
00
38
48
88
8E
8A
8A
88
48
38
00
00
ENDCHAR
STARTCHAR uni10A8
ENCODING 4264
SWIDTH 568 0
DWIDTH 8 0
BBX 8 13 0 -2
BITMAP
00
00
7E
02
02
02
02
02
02
02
02
00
00
ENDCHAR
STARTCHAR uni10A9
ENCODING 4265
SWIDTH 568 0
DWIDTH 8 0
BBX 8 13 0 -2
BITMAP
00
00
40
40
58
64
42
26
1A
02
02
00
00
ENDCHAR
STARTCHAR uni10AA
ENCODING 4266
SWIDTH 568 0
DWIDTH 8 0
BBX 8 13 0 -2
BITMAP
00
00
E0
A0
A0
2C
32
22
22
22
1C
00
00
ENDCHAR
STARTCHAR uni10AB
ENCODING 4267
SWIDTH 568 0
DWIDTH 8 0
BBX 8 13 0 -2
BITMAP
00
00
F8
08
08
7E
88
88
88
88
70
00
00
ENDCHAR
STARTCHAR uni10AC
ENCODING 4268
SWIDTH 568 0
DWIDTH 8 0
BBX 8 13 0 -2
BITMAP
00
00
7E
40
40
40
7E
42
42
42
42
00
00
ENDCHAR
STARTCHAR uni10AD
ENCODING 4269
SWIDTH 568 0
DWIDTH 8 0
BBX 8 13 0 -2
BITMAP
00
00
60
90
90
90
90
90
90
92
6E
00
00
ENDCHAR
STARTCHAR uni10AE
ENCODING 4270
SWIDTH 568 0
DWIDTH 8 0
BBX 8 13 0 -2
BITMAP
00
00
E2
22
22
22
22
22
22
22
1C
00
00
ENDCHAR
STARTCHAR uni10AF
ENCODING 4271
SWIDTH 568 0
DWIDTH 8 0
BBX 8 13 0 -2
BITMAP
00
00
E2
22
22
22
26
1A
02
02
02
00
00
ENDCHAR
STARTCHAR uni10B0
ENCODING 4272
SWIDTH 568 0
DWIDTH 8 0
BBX 8 13 0 -2
BITMAP
00
00
08
08
08
0E
0A
8A
88
88
70
00
00
ENDCHAR
STARTCHAR uni10B1
ENCODING 4273
SWIDTH 568 0
DWIDTH 8 0
BBX 8 13 0 -2
BITMAP
00
00
40
40
40
40
40
42
42
42
3C
00
00
ENDCHAR
STARTCHAR uni10B2
ENCODING 4274
SWIDTH 568 0
DWIDTH 8 0
BBX 8 13 0 -2
BITMAP
00
00
7C
42
42
42
7C
40
40
40
7E
00
00
ENDCHAR
STARTCHAR uni10B3
ENCODING 4275
SWIDTH 568 0
DWIDTH 8 0
BBX 8 13 0 -2
BITMAP
00
60
90
90
90
90
90
90
94
9A
62
00
00
ENDCHAR
STARTCHAR uni10B4
ENCODING 4276
SWIDTH 568 0
DWIDTH 8 0
BBX 8 13 0 -2
BITMAP
00
00
7C
92
92
92
7C
10
10
10
10
00
00
ENDCHAR
STARTCHAR uni10B5
ENCODING 4277
SWIDTH 568 0
DWIDTH 8 0
BBX 8 13 0 -2
BITMAP
00
00
10
90
90
FE
12
10
10
10
10
00
00
ENDCHAR
STARTCHAR uni10B6
ENCODING 4278
SWIDTH 568 0
DWIDTH 8 0
BBX 8 13 0 -2
BITMAP
00
00
3C
42
42
42
42
42
42
42
42
00
00
ENDCHAR
STARTCHAR uni10B7
ENCODING 4279
SWIDTH 568 0
DWIDTH 8 0
BBX 8 13 0 -2
BITMAP
00
00
22
42
42
46
3A
02
02
02
02
00
00
ENDCHAR
STARTCHAR uni10B8
ENCODING 4280
SWIDTH 568 0
DWIDTH 8 0
BBX 8 13 0 -2
BITMAP
00
00
22
42
42
46
3A
02
42
42
3C
00
00
ENDCHAR
STARTCHAR uni10B9
ENCODING 4281
SWIDTH 568 0
DWIDTH 8 0
BBX 8 13 0 -2
BITMAP
00
00
40
40
40
7E
42
42
42
42
42
00
00
ENDCHAR
STARTCHAR uni10BA
ENCODING 4282
SWIDTH 568 0
DWIDTH 8 0
BBX 8 13 0 -2
BITMAP
00
00
3C
42
40
40
40
40
40
42
3C
04
04
ENDCHAR
STARTCHAR uni10BB
ENCODING 4283
SWIDTH 568 0
DWIDTH 8 0
BBX 8 13 0 -2
BITMAP
00
00
08
08
08
3E
4A
4A
48
48
30
00
00
ENDCHAR
STARTCHAR uni10BC
ENCODING 4284
SWIDTH 568 0
DWIDTH 8 0
BBX 8 13 0 -2
BITMAP
00
00
7C
42
42
7C
40
78
48
48
40
00
00
ENDCHAR
STARTCHAR uni10BD
ENCODING 4285
SWIDTH 568 0
DWIDTH 8 0
BBX 8 13 0 -2
BITMAP
00
00
3C
42
40
40
3C
02
02
42
3C
00
00
ENDCHAR
STARTCHAR uni10BE
ENCODING 4286
SWIDTH 568 0
DWIDTH 8 0
BBX 8 13 0 -2
BITMAP
00
00
42
42
42
42
7E
40
40
40
7E
00
00
ENDCHAR
STARTCHAR uni10BF
ENCODING 4287
SWIDTH 568 0
DWIDTH 8 0
BBX 8 13 0 -2
BITMAP
00
00
7E
42
22
14
08
14
22
40
40
00
00
ENDCHAR
STARTCHAR uni10C0
ENCODING 4288
SWIDTH 568 0
DWIDTH 8 0
BBX 8 13 0 -2
BITMAP
00
00
E0
A0
A0
20
20
22
22
22
1C
00
00
ENDCHAR
STARTCHAR uni10C1
ENCODING 4289
SWIDTH 568 0
DWIDTH 8 0
BBX 8 13 0 -2
BITMAP
00
00
40
40
40
78
46
40
40
40
40
00
00
ENDCHAR
STARTCHAR uni10C2
ENCODING 4290
SWIDTH 568 0
DWIDTH 8 0
BBX 8 13 0 -2
BITMAP
00
00
00
40
40
3C
02
02
42
44
38
00
00
ENDCHAR
STARTCHAR uni10C3
ENCODING 4291
SWIDTH 568 0
DWIDTH 8 0
BBX 8 13 0 -2
BITMAP
00
00
02
22
42
46
3A
02
02
02
02
00
00
ENDCHAR
STARTCHAR uni10C4
ENCODING 4292
SWIDTH 568 0
DWIDTH 8 0
BBX 8 13 0 -2
BITMAP
00
00
82
82
82
82
7C
10
10
10
10
00
00
ENDCHAR
STARTCHAR uni10C5
ENCODING 4293
SWIDTH 568 0
DWIDTH 8 0
BBX 8 13 0 -2
BITMAP
00
00
1C
12
1C
10
7C
92
90
90
60
00
00
ENDCHAR
STARTCHAR uni10D0
ENCODING 4304
SWIDTH 568 0
DWIDTH 8 0
BBX 8 13 0 -2
BITMAP
00
00
00
00
00
10
10
0C
02
42
3C
00
00
ENDCHAR
STARTCHAR uni10D1
ENCODING 4305
SWIDTH 568 0
DWIDTH 8 0
BBX 8 13 0 -2
BITMAP
00
00
20
30
10
10
38
44
44
44
38
00
00
ENDCHAR
STARTCHAR uni10D2
ENCODING 4306
SWIDTH 568 0
DWIDTH 8 0
BBX 8 13 0 -2
BITMAP
00
00
00
00
30
48
48
08
3C
42
42
42
3C
ENDCHAR
STARTCHAR uni10D3
ENCODING 4307
SWIDTH 568 0
DWIDTH 8 0
BBX 8 13 0 -2
BITMAP
00
00
00
00
00
00
3C
52
52
4C
40
38
04
ENDCHAR
STARTCHAR uni10D4
ENCODING 4308
SWIDTH 568 0
DWIDTH 8 0
BBX 8 13 0 -2
BITMAP
00
00
00
00
3C
42
42
02
02
02
42
42
3C
ENDCHAR
STARTCHAR uni10D5
ENCODING 4309
SWIDTH 568 0
DWIDTH 8 0
BBX 8 13 0 -2
BITMAP
00
00
00
00
3C
42
42
1C
02
02
42
42
3C
ENDCHAR
STARTCHAR uni10D6
ENCODING 4310
SWIDTH 568 0
DWIDTH 8 0
BBX 8 13 0 -2
BITMAP
00
00
20
50
54
38
1C
12
12
12
0C
00
00
ENDCHAR
STARTCHAR uni10D7
ENCODING 4311
SWIDTH 568 0
DWIDTH 8 0
BBX 8 13 0 -2
BITMAP
00
00
00
00
00
00
34
4A
4A
4A
32
00
00
ENDCHAR
STARTCHAR uni10D8
ENCODING 4312
SWIDTH 568 0
DWIDTH 8 0
BBX 8 13 0 -2
BITMAP
00
00
00
00
00
00
3C
42
42
42
24
00
00
ENDCHAR
STARTCHAR uni10D9
ENCODING 4313
SWIDTH 568 0
DWIDTH 8 0
BBX 8 13 0 -2
BITMAP
00
00
00
00
0C
02
02
1C
02
02
42
42
3C
ENDCHAR
STARTCHAR uni10DA
ENCODING 4314
SWIDTH 568 0
DWIDTH 8 0
BBX 8 13 0 -2
BITMAP
00
00
00
00
00
00
54
AA
AA
82
84
70
08
ENDCHAR
STARTCHAR uni10DB
ENCODING 4315
SWIDTH 568 0
DWIDTH 8 0
BBX 8 13 0 -2
BITMAP
00
00
3C
42
42
02
3E
42
42
42
3C
00
00
ENDCHAR
STARTCHAR uni10DC
ENCODING 4316
SWIDTH 568 0
DWIDTH 8 0
BBX 8 13 0 -2
BITMAP
00
00
3E
40
40
40
7C
42
42
42
3C
00
00
ENDCHAR
STARTCHAR uni10DD
ENCODING 4317
SWIDTH 568 0
DWIDTH 8 0
BBX 8 13 0 -2
BITMAP
00
00
00
00
00
00
28
54
54
54
44
00
00
ENDCHAR
STARTCHAR uni10DE
ENCODING 4318
SWIDTH 568 0
DWIDTH 8 0
BBX 8 13 0 -2
BITMAP
00
00
10
0C
02
02
1C
02
42
42
3C
00
00
ENDCHAR
STARTCHAR uni10DF
ENCODING 4319
SWIDTH 568 0
DWIDTH 8 0
BBX 8 13 0 -2
BITMAP
00
00
00
00
00
06
0A
52
52
22
02
22
1C
ENDCHAR
STARTCHAR uni10E0
ENCODING 4320
SWIDTH 568 0
DWIDTH 8 0
BBX 8 13 0 -2
BITMAP
00
00
00
04
38
40
68
54
54
54
44
00
00
ENDCHAR
STARTCHAR uni10E1
ENCODING 4321
SWIDTH 568 0
DWIDTH 8 0
BBX 8 13 0 -2
BITMAP
00
00
40
40
40
48
50
48
44
44
38
00
00
ENDCHAR
STARTCHAR uni10E2
ENCODING 4322
SWIDTH 568 0
DWIDTH 8 0
BBX 8 13 0 -2
BITMAP
00
00
18
24
24
3C
66
66
5A
42
42
42
3C
ENDCHAR
STARTCHAR uni10E3
ENCODING 4323
SWIDTH 568 0
DWIDTH 8 0
BBX 8 13 0 -2
BITMAP
00
00
00
00
6C
12
12
02
02
02
22
22
1C
ENDCHAR
STARTCHAR uni10E4
ENCODING 4324
SWIDTH 568 0
DWIDTH 8 0
BBX 8 13 0 -2
BITMAP
00
00
00
00
00
00
34
4A
4A
34
02
12
0C
ENDCHAR
STARTCHAR uni10E5
ENCODING 4325
SWIDTH 568 0
DWIDTH 8 0
BBX 8 13 0 -2
BITMAP
00
00
04
0C
04
04
1C
24
04
04
04
44
38
ENDCHAR
STARTCHAR uni10E6
ENCODING 4326
SWIDTH 568 0
DWIDTH 8 0
BBX 8 13 0 -2
BITMAP
00
00
00
00
00
00
28
54
54
44
40
38
04
ENDCHAR
STARTCHAR uni10E7
ENCODING 4327
SWIDTH 568 0
DWIDTH 8 0
BBX 8 13 0 -2
BITMAP
00
00
00
00
00
00
22
42
46
3A
02
42
3C
ENDCHAR
STARTCHAR uni10E8
ENCODING 4328
SWIDTH 568 0
DWIDTH 8 0
BBX 8 13 0 -2
BITMAP
00
00
28
54
54
54
44
1C
24
24
18
00
00
ENDCHAR
STARTCHAR uni10E9
ENCODING 4329
SWIDTH 568 0
DWIDTH 8 0
BBX 8 13 0 -2
BITMAP
00
00
30
48
48
70
40
5C
62
42
42
00
00
ENDCHAR
STARTCHAR uni10EA
ENCODING 4330
SWIDTH 568 0
DWIDTH 8 0
BBX 8 13 0 -2
BITMAP
00
00
00
00
4C
42
42
5C
42
42
42
42
3C
ENDCHAR
STARTCHAR uni10EB
ENCODING 4331
SWIDTH 568 0
DWIDTH 8 0
BBX 8 13 0 -2
BITMAP
00
00
0C
02
02
02
3E
42
42
42
3C
00
00
ENDCHAR
STARTCHAR uni10EC
ENCODING 4332
SWIDTH 568 0
DWIDTH 8 0
BBX 8 13 0 -2
BITMAP
00
00
28
54
54
40
40
7C
44
28
28
10
10
ENDCHAR
STARTCHAR uni10ED
ENCODING 4333
SWIDTH 568 0
DWIDTH 8 0
BBX 8 13 0 -2
BITMAP
00
00
08
18
28
08
2A
5C
2A
08
08
48
30
ENDCHAR
STARTCHAR uni10EE
ENCODING 4334
SWIDTH 568 0
DWIDTH 8 0
BBX 8 13 0 -2
BITMAP
00
00
40
40
48
50
78
44
44
44
38
00
00
ENDCHAR
STARTCHAR uni10EF
ENCODING 4335
SWIDTH 568 0
DWIDTH 8 0
BBX 8 13 0 -2
BITMAP
00
00
00
00
00
00
44
28
10
28
44
20
40
ENDCHAR
STARTCHAR uni10F0
ENCODING 4336
SWIDTH 568 0
DWIDTH 8 0
BBX 8 13 0 -2
BITMAP
00
20
1C
02
1C
02
02
1C
42
42
3C
00
00
ENDCHAR
STARTCHAR uni10F1
ENCODING 4337
SWIDTH 568 0
DWIDTH 8 0
BBX 8 13 0 -2
BITMAP
00
58
44
42
5C
42
42
5C
42
42
3C
00
00
ENDCHAR
STARTCHAR uni10F2
ENCODING 4338
SWIDTH 568 0
DWIDTH 8 0
BBX 8 13 0 -2
BITMAP
00
00
00
00
00
3C
42
42
42
24
7E
00
00
ENDCHAR
STARTCHAR uni10F3
ENCODING 4339
SWIDTH 568 0
DWIDTH 8 0
BBX 8 13 0 -2
BITMAP
00
00
00
00
00
7E
04
08
1C
02
02
42
3C
ENDCHAR
STARTCHAR uni10F4
ENCODING 4340
SWIDTH 568 0
DWIDTH 8 0
BBX 8 13 0 -2
BITMAP
00
00
10
20
1C
02
02
1C
02
02
42
42
3C
ENDCHAR
STARTCHAR uni10F5
ENCODING 4341
SWIDTH 568 0
DWIDTH 8 0
BBX 8 13 0 -2
BITMAP
00
00
38
44
44
3E
04
3E
44
44
38
00
00
ENDCHAR
STARTCHAR uni10F6
ENCODING 4342
SWIDTH 568 0
DWIDTH 8 0
BBX 8 13 0 -2
BITMAP
00
00
00
20
10
10
38
54
54
38
10
10
08
ENDCHAR
STARTCHAR uni10F7
ENCODING 4343
SWIDTH 568 0
DWIDTH 8 0
BBX 8 13 0 -2
BITMAP
00
00
1C
22
02
0C
30
40
40
42
3C
00
00
ENDCHAR
STARTCHAR uni10F8
ENCODING 4344
SWIDTH 568 0
DWIDTH 8 0
BBX 8 13 0 -2
BITMAP
00
00
42
42
42
7C
40
42
42
42
3C
00
00
ENDCHAR
STARTCHAR uni10FB
ENCODING 4347
SWIDTH 568 0
DWIDTH 8 0
BBX 8 13 0 -2
BITMAP
00
00
00
00
60
60
0C
0C
60
60
00
00
00
ENDCHAR
ENDFONT
