COMMENT vga
STARTFONT 2.1
FONT vga
SIZE 14 75 75
FONTBOUNDINGBOX 8 14 0 -4
STARTPROPERTIES 4
FONT_DESCENT 4
FONT_ASCENT 10
AVERAGE_WIDTH 80
DEFAULT_CHAR 0
ENDPROPERTIES
CHARS 189
STARTCHAR u0020
ENCODING 32
SWIDTH 666 0
DWIDTH 8 0
BBX 8 14 0 -4
BITMAP
00
00
00
00
00
00
00
00
00
00
00
00
00
00
ENDCHAR
STARTCHAR u005A
ENCODING 90
SWIDTH 666 0
DWIDTH 8 0
BBX 8 14 0 -4
BITMAP
00
00
7F
63
46
0C
18
30
61
63
7F
00
00
00
ENDCHAR
STARTCHAR u0076
ENCODING 118
SWIDTH 666 0
DWIDTH 8 0
BBX 8 14 0 -4
BITMAP
00
00
00
00
00
63
63
63
63
36
1C
00
00
00
ENDCHAR
STARTCHAR u0047
ENCODING 71
SWIDTH 666 0
DWIDTH 8 0
BBX 8 14 0 -4
BITMAP
00
00
1E
33
61
60
60
6F
63
33
1D
00
00
00
ENDCHAR
STARTCHAR u0066
ENCODING 102
SWIDTH 666 0
DWIDTH 8 0
BBX 8 14 0 -4
BITMAP
00
00
1C
36
32
30
7C
30
30
30
78
00
00
00
ENDCHAR
STARTCHAR u05D0
ENCODING 1488
SWIDTH 666 0
DWIDTH 8 0
BBX 8 14 0 -4
BITMAP
00
00
00
63
63
33
3B
6E
66
63
63
00
00
00
ENDCHAR
STARTCHAR u25CB
ENCODING 9675
SWIDTH 666 0
DWIDTH 8 0
BBX 8 14 0 -4
BITMAP
00
00
00
00
3C
66
42
42
66
3C
00
00
00
00
ENDCHAR
STARTCHAR u007D
ENCODING 125
SWIDTH 666 0
DWIDTH 8 0
BBX 8 14 0 -4
BITMAP
00
00
70
18
18
18
0E
18
18
18
70
00
00
00
ENDCHAR
STARTCHAR u002C
ENCODING 44
SWIDTH 666 0
DWIDTH 8 0
BBX 8 14 0 -4
BITMAP
00
00
00
00
00
00
00
00
18
18
18
30
00
00
ENDCHAR
STARTCHAR u0037
ENCODING 55
SWIDTH 666 0
DWIDTH 8 0
BBX 8 14 0 -4
BITMAP
00
00
7F
63
03
06
0C
18
18
18
18
00
00
00
ENDCHAR
STARTCHAR u0054
ENCODING 84
SWIDTH 666 0
DWIDTH 8 0
BBX 8 14 0 -4
BITMAP
00
00
7E
7E
5A
18
18
18
18
18
3C
00
00
00
ENDCHAR
STARTCHAR u00BE
ENCODING 190
SWIDTH 666 0
DWIDTH 8 0
BBX 8 14 0 -4
BITMAP
00
E0
30
63
36
EC
18
36
6E
DA
3F
06
06
00
ENDCHAR
STARTCHAR u05DB
ENCODING 1499
SWIDTH 666 0
DWIDTH 8 0
BBX 8 14 0 -4
BITMAP
00
00
00
7E
03
03
03
03
03
06
7C
00
00
00
ENDCHAR
STARTCHAR u05D2
ENCODING 1490
SWIDTH 666 0
DWIDTH 8 0
BBX 8 14 0 -4
BITMAP
00
00
00
1C
06
06
06
06
1E
36
63
00
00
00
ENDCHAR
STARTCHAR u005F
ENCODING 95
SWIDTH 666 0
DWIDTH 8 0
BBX 8 14 0 -4
BITMAP
00
00
00
00
00
00
00
00
00
00
00
00
FF
00
ENDCHAR
STARTCHAR u0039
ENCODING 57
SWIDTH 666 0
DWIDTH 8 0
BBX 8 14 0 -4
BITMAP
00
00
3E
63
63
63
3F
03
03
06
3C
00
00
00
ENDCHAR
STARTCHAR u266C
ENCODING 9836
SWIDTH 666 0
DWIDTH 8 0
BBX 8 14 0 -4
BITMAP
00
00
7F
63
7F
63
63
63
67
E7
E6
C0
00
00
ENDCHAR
STARTCHAR u00A3
ENCODING 163
SWIDTH 666 0
DWIDTH 8 0
BBX 8 14 0 -4
BITMAP
00
1C
36
32
30
78
30
30
30
73
7E
00
00
00
ENDCHAR
STARTCHAR u006D
ENCODING 109
SWIDTH 666 0
DWIDTH 8 0
BBX 8 14 0 -4
BITMAP
00
00
00
00
00
76
7F
6B
6B
6B
6B
00
00
00
ENDCHAR
STARTCHAR u2190
ENCODING 8592
SWIDTH 666 0
DWIDTH 8 0
BBX 8 14 0 -4
BITMAP
00
00
00
00
18
30
7F
30
18
00
00
00
00
00
ENDCHAR
STARTCHAR u0059
ENCODING 89
SWIDTH 666 0
DWIDTH 8 0
BBX 8 14 0 -4
BITMAP
00
00
66
66
66
66
3C
18
18
18
3C
00
00
00
ENDCHAR
STARTCHAR u263C
ENCODING 9788
SWIDTH 666 0
DWIDTH 8 0
BBX 8 14 0 -4
BITMAP
00
00
18
18
DB
3C
E7
3C
DB
18
18
00
00
00
ENDCHAR
STARTCHAR u2666
ENCODING 9830
SWIDTH 666 0
DWIDTH 8 0
BBX 8 14 0 -4
BITMAP
00
00
00
08
1C
3E
7F
3E
1C
08
00
00
00
00
ENDCHAR
STARTCHAR u0023
ENCODING 35
SWIDTH 666 0
DWIDTH 8 0
BBX 8 14 0 -4
BITMAP
00
00
36
36
7F
36
36
36
7F
36
36
00
00
00
ENDCHAR
STARTCHAR u05E3
ENCODING 1507
SWIDTH 666 0
DWIDTH 8 0
BBX 8 14 0 -4
BITMAP
00
00
00
7C
26
66
76
06
06
06
06
06
07
00
ENDCHAR
STARTCHAR u004E
ENCODING 78
SWIDTH 666 0
DWIDTH 8 0
BBX 8 14 0 -4
BITMAP
00
00
63
73
7B
7F
6F
67
63
63
63
00
00
00
ENDCHAR
STARTCHAR u2665
ENCODING 9829
SWIDTH 666 0
DWIDTH 8 0
BBX 8 14 0 -4
BITMAP
00
00
00
36
7F
7F
7F
7F
3E
1C
08
00
00
00
ENDCHAR
STARTCHAR u005D
ENCODING 93
SWIDTH 666 0
DWIDTH 8 0
BBX 8 14 0 -4
BITMAP
00
00
3C
0C
0C
0C
0C
0C
0C
0C
3C
00
00
00
ENDCHAR
STARTCHAR u006A
ENCODING 106
SWIDTH 666 0
DWIDTH 8 0
BBX 8 14 0 -4
BITMAP
00
00
06
06
00
0E
06
06
06
06
66
66
3C
00
ENDCHAR
STARTCHAR u0041
ENCODING 65
SWIDTH 666 0
DWIDTH 8 0
BBX 8 14 0 -4
BITMAP
00
00
08
1C
36
63
63
7F
63
63
63
00
00
00
ENDCHAR
STARTCHAR u266A
ENCODING 9834
SWIDTH 666 0
DWIDTH 8 0
BBX 8 14 0 -4
BITMAP
00
00
3F
33
3F
30
30
30
70
F0
E0
00
00
00
ENDCHAR
STARTCHAR u2193
ENCODING 8595
SWIDTH 666 0
DWIDTH 8 0
BBX 8 14 0 -4
BITMAP
00
00
18
18
18
18
18
18
7E
3C
18
00
00
00
ENDCHAR
STARTCHAR u0072
ENCODING 114
SWIDTH 666 0
DWIDTH 8 0
BBX 8 14 0 -4
BITMAP
00
00
00
00
00
6E
3B
33
30
30
78
00
00
00
ENDCHAR
STARTCHAR u003A
ENCODING 58
SWIDTH 666 0
DWIDTH 8 0
BBX 8 14 0 -4
BITMAP
00
00
00
18
18
00
00
00
18
18
00
00
00
00
ENDCHAR
STARTCHAR u0051
ENCODING 81
SWIDTH 666 0
DWIDTH 8 0
BBX 8 14 0 -4
BITMAP
00
00
3E
63
63
63
63
63
6B
6F
3E
07
00
00
ENDCHAR
STARTCHAR u2195
ENCODING 8597
SWIDTH 666 0
DWIDTH 8 0
BBX 8 14 0 -4
BITMAP
00
00
18
3C
7E
18
18
18
7E
3C
18
00
00
00
ENDCHAR
STARTCHAR u05DC
ENCODING 1500
SWIDTH 666 0
DWIDTH 8 0
BBX 8 14 0 -4
BITMAP
00
60
60
7E
03
03
03
06
0C
18
18
00
00
00
ENDCHAR
STARTCHAR u003C
ENCODING 60
SWIDTH 666 0
DWIDTH 8 0
BBX 8 14 0 -4
BITMAP
00
00
06
0C
18
30
60
30
18
0C
06
00
00
00
ENDCHAR
STARTCHAR u0065
ENCODING 101
SWIDTH 666 0
DWIDTH 8 0
BBX 8 14 0 -4
BITMAP
00
00
00
00
00
3E
63
7F
60
63
3E
00
00
00
ENDCHAR
STARTCHAR u0049
ENCODING 73
SWIDTH 666 0
DWIDTH 8 0
BBX 8 14 0 -4
BITMAP
00
00
3C
18
18
18
18
18
18
18
3C
00
00
00
ENDCHAR
STARTCHAR u0056
ENCODING 86
SWIDTH 666 0
DWIDTH 8 0
BBX 8 14 0 -4
BITMAP
00
00
63
63
63
63
63
63
36
1C
08
00
00
00
ENDCHAR
STARTCHAR u004C
ENCODING 76
SWIDTH 666 0
DWIDTH 8 0
BBX 8 14 0 -4
BITMAP
00
00
78
30
30
30
30
30
31
33
7F
00
00
00
ENDCHAR
STARTCHAR u05E2
ENCODING 1506
SWIDTH 666 0
DWIDTH 8 0
BBX 8 14 0 -4
BITMAP
00
00
00
33
33
33
33
33
1B
0E
7C
00
00
00
ENDCHAR
STARTCHAR u003E
ENCODING 62
SWIDTH 666 0
DWIDTH 8 0
BBX 8 14 0 -4
BITMAP
00
00
60
30
18
0C
06
0C
18
30
60
00
00
00
ENDCHAR
STARTCHAR u00F7
ENCODING 247
SWIDTH 666 0
DWIDTH 8 0
BBX 8 14 0 -4
BITMAP
00
00
00
00
18
00
7E
00
18
00
00
00
00
00
ENDCHAR
STARTCHAR u0043
ENCODING 67
SWIDTH 666 0
DWIDTH 8 0
BBX 8 14 0 -4
BITMAP
00
00
1E
33
61
60
60
60
61
33
1E
00
00
00
ENDCHAR
STARTCHAR u00A5
ENCODING 165
SWIDTH 666 0
DWIDTH 8 0
BBX 8 14 0 -4
BITMAP
00
00
66
66
3C
18
7E
18
7E
18
18
00
00
00
ENDCHAR
STARTCHAR u05D7
ENCODING 1495
SWIDTH 666 0
DWIDTH 8 0
BBX 8 14 0 -4
BITMAP
00
00
00
7E
33
63
63
63
63
63
63
00
00
00
ENDCHAR
STARTCHAR u006E
ENCODING 110
SWIDTH 666 0
DWIDTH 8 0
BBX 8 14 0 -4
BITMAP
00
00
00
00
00
6E
33
33
33
33
33
00
00
00
ENDCHAR
STARTCHAR u0052
ENCODING 82
SWIDTH 666 0
DWIDTH 8 0
BBX 8 14 0 -4
BITMAP
00
00
7E
33
33
33
3E
36
33
33
73
00
00
00
ENDCHAR
STARTCHAR u2663
ENCODING 9827
SWIDTH 666 0
DWIDTH 8 0
BBX 8 14 0 -4
BITMAP
00
00
18
3C
3C
E7
E7
E7
18
18
3C
00
00
00
ENDCHAR
STARTCHAR u25C4
ENCODING 9668
SWIDTH 666 0
DWIDTH 8 0
BBX 8 14 0 -4
BITMAP
00
00
01
03
07
1F
7F
1F
07
03
01
00
00
00
ENDCHAR
STARTCHAR u00A8
ENCODING 168
SWIDTH 666 0
DWIDTH 8 0
BBX 8 14 0 -4
BITMAP
00
C6
00
00
00
00
00
00
00
00
00
00
00
00
ENDCHAR
STARTCHAR u05DF
ENCODING 1503
SWIDTH 666 0
DWIDTH 8 0
BBX 8 14 0 -4
BITMAP
00
00
00
1C
06
06
0C
0C
0C
0C
0C
0C
0E
00
ENDCHAR
STARTCHAR u2017
ENCODING 8215
SWIDTH 666 0
DWIDTH 8 0
BBX 8 14 0 -4
BITMAP
00
00
00
00
00
00
00
00
00
00
FF
00
FF
00
ENDCHAR
STARTCHAR u00B8
ENCODING 184
SWIDTH 666 0
DWIDTH 8 0
BBX 8 14 0 -4
BITMAP
00
00
00
00
00
00
00
00
00
00
00
18
0C
78
ENDCHAR
STARTCHAR u0070
ENCODING 112
SWIDTH 666 0
DWIDTH 8 0
BBX 8 14 0 -4
BITMAP
00
00
00
00
00
6E
33
33
33
3E
30
30
78
00
ENDCHAR
STARTCHAR u0045
ENCODING 69
SWIDTH 666 0
DWIDTH 8 0
BBX 8 14 0 -4
BITMAP
00
00
7F
33
31
34
3C
34
31
33
7F
00
00
00
ENDCHAR
STARTCHAR u00AC
ENCODING 172
SWIDTH 666 0
DWIDTH 8 0
BBX 8 14 0 -4
BITMAP
00
00
00
00
00
00
7F
03
03
03
00
00
00
00
ENDCHAR
STARTCHAR u05E5
ENCODING 1509
SWIDTH 666 0
DWIDTH 8 0
BBX 8 14 0 -4
BITMAP
00
00
00
66
66
66
66
6C
78
60
60
60
70
00
ENDCHAR
STARTCHAR u2642
ENCODING 9794
SWIDTH 666 0
DWIDTH 8 0
BBX 8 14 0 -4
BITMAP
00
00
0F
07
0D
19
3C
66
66
66
3C
00
00
00
ENDCHAR
STARTCHAR u0031
ENCODING 49
SWIDTH 666 0
DWIDTH 8 0
BBX 8 14 0 -4
BITMAP
00
00
0C
1C
3C
0C
0C
0C
0C
0C
3F
00
00
00
ENDCHAR
STARTCHAR u00B2
ENCODING 178
SWIDTH 666 0
DWIDTH 8 0
BBX 8 14 0 -4
BITMAP
00
3C
66
0C
18
32
7E
00
00
00
00
00
00
00
ENDCHAR
STARTCHAR u00BB
ENCODING 187
SWIDTH 666 0
DWIDTH 8 0
BBX 8 14 0 -4
BITMAP
00
00
00
00
6C
36
1B
36
6C
00
00
00
00
00
ENDCHAR
STARTCHAR u007C
ENCODING 124
SWIDTH 666 0
DWIDTH 8 0
BBX 8 14 0 -4
BITMAP
00
00
18
18
18
18
18
18
18
18
18
00
00
00
ENDCHAR
STARTCHAR u0068
ENCODING 104
SWIDTH 666 0
DWIDTH 8 0
BBX 8 14 0 -4
BITMAP
00
00
70
30
30
36
3B
33
33
33
73
00
00
00
ENDCHAR
STARTCHAR u2192
ENCODING 8594
SWIDTH 666 0
DWIDTH 8 0
BBX 8 14 0 -4
BITMAP
00
00
00
00
0C
06
7F
06
0C
00
00
00
00
00
ENDCHAR
STARTCHAR u05D5
ENCODING 1493
SWIDTH 666 0
DWIDTH 8 0
BBX 8 14 0 -4
BITMAP
00
00
00
38
0C
0C
0C
0C
0C
0C
0C
00
00
00
ENDCHAR
STARTCHAR u00B5
ENCODING 181
SWIDTH 666 0
DWIDTH 8 0
BBX 8 14 0 -4
BITMAP
00
00
00
00
00
33
33
33
33
33
3E
30
60
00
ENDCHAR
STARTCHAR u0079
ENCODING 121
SWIDTH 666 0
DWIDTH 8 0
BBX 8 14 0 -4
BITMAP
00
00
00
00
00
63
63
63
63
3F
03
06
3C
00
ENDCHAR
STARTCHAR u004F
ENCODING 79
SWIDTH 666 0
DWIDTH 8 0
BBX 8 14 0 -4
BITMAP
00
00
3E
63
63
63
63
63
63
63
3E
00
00
00
ENDCHAR
STARTCHAR u263A
ENCODING 9786
SWIDTH 666 0
DWIDTH 8 0
BBX 8 14 0 -4
BITMAP
00
00
7E
81
A5
81
81
BD
99
81
7E
00
00
00
ENDCHAR
STARTCHAR u05E9
ENCODING 1513
SWIDTH 666 0
DWIDTH 8 0
BBX 8 14 0 -4
BITMAP
00
00
00
6B
6B
6B
6B
6B
7B
63
3E
00
00
00
ENDCHAR
STARTCHAR u05E1
ENCODING 1505
SWIDTH 666 0
DWIDTH 8 0
BBX 8 14 0 -4
BITMAP
00
00
00
7E
33
63
63
63
63
66
3C
00
00
00
ENDCHAR
STARTCHAR u05DE
ENCODING 1502
SWIDTH 666 0
DWIDTH 8 0
BBX 8 14 0 -4
BITMAP
00
00
00
6E
7B
33
63
63
63
63
6F
00
00
00
ENDCHAR
STARTCHAR u0060
ENCODING 96
SWIDTH 666 0
DWIDTH 8 0
BBX 8 14 0 -4
BITMAP
30
18
0C
00
00
00
00
00
00
00
00
00
00
00
ENDCHAR
STARTCHAR u25B2
ENCODING 9650
SWIDTH 666 0
DWIDTH 8 0
BBX 8 14 0 -4
BITMAP
00
00
00
08
1C
1C
3E
3E
7F
7F
00
00
00
00
ENDCHAR
STARTCHAR u007E
ENCODING 126
SWIDTH 666 0
DWIDTH 8 0
BBX 8 14 0 -4
BITMAP
00
3B
6E
00
00
00
00
00
00
00
00
00
00
00
ENDCHAR
STARTCHAR u2640
ENCODING 9792
SWIDTH 666 0
DWIDTH 8 0
BBX 8 14 0 -4
BITMAP
00
00
3C
66
66
66
3C
18
7E
18
18
00
00
00
ENDCHAR
STARTCHAR u00A0
ENCODING 160
SWIDTH 666 0
DWIDTH 8 0
BBX 8 14 0 -4
BITMAP
00
00
00
00
00
00
00
00
00
00
00
00
00
00
ENDCHAR
STARTCHAR u00B0
ENCODING 176
SWIDTH 666 0
DWIDTH 8 0
BBX 8 14 0 -4
BITMAP
00
38
6C
6C
38
00
00
00
00
00
00
00
00
00
ENDCHAR
STARTCHAR u203E
ENCODING 8254
SWIDTH 666 0
DWIDTH 8 0
BBX 8 14 0 -4
BITMAP
00
FF
00
00
00
00
00
00
00
00
00
00
00
00
ENDCHAR
STARTCHAR u25D8
ENCODING 9688
SWIDTH 666 0
DWIDTH 8 0
BBX 8 14 0 -4
BITMAP
FF
FF
FF
FF
FF
E7
C3
C3
E7
FF
FF
FF
FF
FF
ENDCHAR
STARTCHAR u002F
ENCODING 47
SWIDTH 666 0
DWIDTH 8 0
BBX 8 14 0 -4
BITMAP
00
00
01
03
06
0C
18
30
60
40
00
00
00
00
ENDCHAR
STARTCHAR u0062
ENCODING 98
SWIDTH 666 0
DWIDTH 8 0
BBX 8 14 0 -4
BITMAP
00
00
70
30
30
3C
36
33
33
33
3E
00
00
00
ENDCHAR
STARTCHAR u25AC
ENCODING 9644
SWIDTH 666 0
DWIDTH 8 0
BBX 8 14 0 -4
BITMAP
00
00
00
00
00
00
00
00
7F
7F
7F
00
00
00
ENDCHAR
STARTCHAR u0025
ENCODING 37
SWIDTH 666 0
DWIDTH 8 0
BBX 8 14 0 -4
BITMAP
00
00
00
00
61
63
06
0C
18
33
63
00
00
00
ENDCHAR
STARTCHAR u0075
ENCODING 117
SWIDTH 666 0
DWIDTH 8 0
BBX 8 14 0 -4
BITMAP
00
00
00
00
00
66
66
66
66
66
3B
00
00
00
ENDCHAR
STARTCHAR u002B
ENCODING 43
SWIDTH 666 0
DWIDTH 8 0
BBX 8 14 0 -4
BITMAP
00
00
00
00
18
18
7E
18
18
00
00
00
00
00
ENDCHAR
STARTCHAR u2660
ENCODING 9824
SWIDTH 666 0
DWIDTH 8 0
BBX 8 14 0 -4
BITMAP
00
00
18
3C
7E
FF
FF
7E
18
18
3C
00
00
00
ENDCHAR
STARTCHAR u0021
ENCODING 33
SWIDTH 666 0
DWIDTH 8 0
BBX 8 14 0 -4
BITMAP
00
00
18
3C
3C
3C
18
18
00
18
18
00
00
00
ENDCHAR
STARTCHAR u25BA
ENCODING 9658
SWIDTH 666 0
DWIDTH 8 0
BBX 8 14 0 -4
BITMAP
00
00
40
60
70
7C
7F
7C
70
60
40
00
00
00
ENDCHAR
STARTCHAR u003F
ENCODING 63
SWIDTH 666 0
DWIDTH 8 0
BBX 8 14 0 -4
BITMAP
00
00
3E
63
63
06
0C
0C
00
0C
0C
00
00
00
ENDCHAR
STARTCHAR u263B
ENCODING 9787
SWIDTH 666 0
DWIDTH 8 0
BBX 8 14 0 -4
BITMAP
00
00
7E
FF
DB
FF
FF
C3
E7
FF
7E
00
00
00
ENDCHAR
STARTCHAR u221F
ENCODING 8735
SWIDTH 666 0
DWIDTH 8 0
BBX 8 14 0 -4
BITMAP
00
00
00
00
00
60
60
60
7F
00
00
00
00
00
ENDCHAR
STARTCHAR u25D9
ENCODING 9689
SWIDTH 666 0
DWIDTH 8 0
BBX 8 14 0 -4
BITMAP
FF
FF
FF
FF
C3
99
BD
BD
99
C3
FF
FF
FF
FF
ENDCHAR
STARTCHAR u0050
ENCODING 80
SWIDTH 666 0
DWIDTH 8 0
BBX 8 14 0 -4
BITMAP
00
00
7E
33
33
33
3E
30
30
30
78
00
00
00
ENDCHAR
STARTCHAR u0077
ENCODING 119
SWIDTH 666 0
DWIDTH 8 0
BBX 8 14 0 -4
BITMAP
00
00
00
00
00
63
63
6B
6B
7F
36
00
00
00
ENDCHAR
STARTCHAR u00B4
ENCODING 180
SWIDTH 666 0
DWIDTH 8 0
BBX 8 14 0 -4
BITMAP
00
0C
18
30
00
00
00
00
00
00
00
00
00
00
ENDCHAR
STARTCHAR u0063
ENCODING 99
SWIDTH 666 0
DWIDTH 8 0
BBX 8 14 0 -4
BITMAP
00
00
00
00
00
3E
63
60
60
63
3E
00
00
00
ENDCHAR
STARTCHAR u00B3
ENCODING 179
SWIDTH 666 0
DWIDTH 8 0
BBX 8 14 0 -4
BITMAP
00
78
0C
38
0C
0C
78
00
00
00
00
00
00
00
ENDCHAR
STARTCHAR u00A2
ENCODING 162
SWIDTH 666 0
DWIDTH 8 0
BBX 8 14 0 -4
BITMAP
00
18
18
7E
C3
C0
C0
C3
7E
18
18
00
00
00
ENDCHAR
STARTCHAR u0048
ENCODING 72
SWIDTH 666 0
DWIDTH 8 0
BBX 8 14 0 -4
BITMAP
00
00
63
63
63
63
7F
63
63
63
63
00
00
00
ENDCHAR
STARTCHAR u2022
ENCODING 8226
SWIDTH 666 0
DWIDTH 8 0
BBX 8 14 0 -4
BITMAP
00
00
00
00
00
18
3C
3C
18
00
00
00
00
00
ENDCHAR
STARTCHAR u25C0
ENCODING 9664
SWIDTH 666 0
DWIDTH 8 0
BBX 8 14 0 -4
BITMAP
00
00
01
03
07
1F
7F
1F
07
03
01
00
00
00
ENDCHAR
STARTCHAR u05D8
ENCODING 1496
SWIDTH 666 0
DWIDTH 8 0
BBX 8 14 0 -4
BITMAP
00
00
00
66
6B
6B
63
63
63
66
3C
00
00
00
ENDCHAR
STARTCHAR u004A
ENCODING 74
SWIDTH 666 0
DWIDTH 8 0
BBX 8 14 0 -4
BITMAP
00
00
0F
06
06
06
06
06
66
66
3C
00
00
00
ENDCHAR
STARTCHAR u00B6
ENCODING 182
SWIDTH 666 0
DWIDTH 8 0
BBX 8 14 0 -4
BITMAP
00
00
00
00
00
00
00
00
00
00
00
00
00
00
ENDCHAR
STARTCHAR u003D
ENCODING 61
SWIDTH 666 0
DWIDTH 8 0
BBX 8 14 0 -4
BITMAP
00
00
00
00
00
7E
00
00
7E
00
00
00
00
00
ENDCHAR
STARTCHAR u006C
ENCODING 108
SWIDTH 666 0
DWIDTH 8 0
BBX 8 14 0 -4
BITMAP
00
00
38
18
18
18
18
18
18
18
3C
00
00
00
ENDCHAR
STARTCHAR u0073
ENCODING 115
SWIDTH 666 0
DWIDTH 8 0
BBX 8 14 0 -4
BITMAP
00
00
00
00
00
3E
63
38
0E
63
3E
00
00
00
ENDCHAR
STARTCHAR u05DA
ENCODING 1498
SWIDTH 666 0
DWIDTH 8 0
BBX 8 14 0 -4
BITMAP
00
00
00
7E
03
03
06
06
06
06
06
06
07
00
ENDCHAR
STARTCHAR u005C
ENCODING 92
SWIDTH 666 0
DWIDTH 8 0
BBX 8 14 0 -4
BITMAP
00
00
40
60
70
38
1C
0E
07
03
01
00
00
00
ENDCHAR
STARTCHAR u05D1
ENCODING 1489
SWIDTH 666 0
DWIDTH 8 0
BBX 8 14 0 -4
BITMAP
00
00
00
7C
06
06
06
06
06
06
7F
00
00
00
ENDCHAR
STARTCHAR u0067
ENCODING 103
SWIDTH 666 0
DWIDTH 8 0
BBX 8 14 0 -4
BITMAP
00
00
00
00
00
3B
66
66
66
3E
06
66
3C
00
ENDCHAR
STARTCHAR u051F
ENCODING 1311
SWIDTH 666 0
DWIDTH 8 0
BBX 8 14 0 -4
BITMAP
00
00
00
00
00
00
00
00
00
00
00
00
00
00
ENDCHAR
STARTCHAR u05D3
ENCODING 1491
SWIDTH 666 0
DWIDTH 8 0
BBX 8 14 0 -4
BITMAP
00
00
00
7F
06
06
06
06
06
06
06
00
00
00
ENDCHAR
STARTCHAR u0071
ENCODING 113
SWIDTH 666 0
DWIDTH 8 0
BBX 8 14 0 -4
BITMAP
00
00
00
00
00
3B
66
66
66
3E
06
06
0F
00
ENDCHAR
STARTCHAR u05E7
ENCODING 1511
SWIDTH 666 0
DWIDTH 8 0
BBX 8 14 0 -4
BITMAP
00
00
00
7E
03
03
33
36
36
37
30
30
30
00
ENDCHAR
STARTCHAR u00BD
ENCODING 189
SWIDTH 666 0
DWIDTH 8 0
BBX 8 14 0 -4
BITMAP
00
60
E0
63
66
6C
18
30
6E
C3
06
0C
1F
00
ENDCHAR
STARTCHAR u005B
ENCODING 91
SWIDTH 666 0
DWIDTH 8 0
BBX 8 14 0 -4
BITMAP
00
00
3C
30
30
30
30
30
30
30
3C
00
00
00
ENDCHAR
STARTCHAR u05E6
ENCODING 1510
SWIDTH 666 0
DWIDTH 8 0
BBX 8 14 0 -4
BITMAP
00
00
00
63
63
33
1E
0C
06
03
7F
00
00
00
ENDCHAR
STARTCHAR u00A7
ENCODING 167
SWIDTH 666 0
DWIDTH 8 0
BBX 8 14 0 -4
BITMAP
00
00
00
00
00
00
00
00
00
00
00
00
00
00
ENDCHAR
STARTCHAR u0030
ENCODING 48
SWIDTH 666 0
DWIDTH 8 0
BBX 8 14 0 -4
BITMAP
00
00
1C
36
63
63
6B
63
63
36
1C
00
00
00
ENDCHAR
STARTCHAR u006B
ENCODING 107
SWIDTH 666 0
DWIDTH 8 0
BBX 8 14 0 -4
BITMAP
00
00
70
30
30
33
36
3C
36
33
73
00
00
00
ENDCHAR
STARTCHAR u0057
ENCODING 87
SWIDTH 666 0
DWIDTH 8 0
BBX 8 14 0 -4
BITMAP
00
00
63
63
63
63
6B
6B
7F
36
36
00
00
00
ENDCHAR
STARTCHAR u00AE
ENCODING 174
SWIDTH 666 0
DWIDTH 8 0
BBX 8 14 0 -4
BITMAP
00
00
00
38
44
BA
AA
B2
AA
AA
44
38
00
00
ENDCHAR
STARTCHAR u004D
ENCODING 77
SWIDTH 666 0
DWIDTH 8 0
BBX 8 14 0 -4
BITMAP
00
00
63
77
7F
6B
63
63
63
63
63
00
00
00
ENDCHAR
STARTCHAR uFFFD
ENCODING 65533
SWIDTH 666 0
DWIDTH 8 0
BBX 8 14 0 -4
BITMAP
00
00
00
00
00
00
00
00
00
00
00
00
00
00
ENDCHAR
STARTCHAR u007B
ENCODING 123
SWIDTH 666 0
DWIDTH 8 0
BBX 8 14 0 -4
BITMAP
00
00
0E
18
18
18
70
18
18
18
0E
00
00
00
ENDCHAR
STARTCHAR u0032
ENCODING 50
SWIDTH 666 0
DWIDTH 8 0
BBX 8 14 0 -4
BITMAP
00
00
3E
63
03
06
0C
18
30
63
7F
00
00
00
ENDCHAR
STARTCHAR u0027
ENCODING 39
SWIDTH 666 0
DWIDTH 8 0
BBX 8 14 0 -4
BITMAP
30
30
60
00
00
00
00
00
00
00
00
00
00
00
ENDCHAR
STARTCHAR u0040
ENCODING 64
SWIDTH 666 0
DWIDTH 8 0
BBX 8 14 0 -4
BITMAP
00
00
3E
63
63
6F
6F
6F
6C
60
3E
00
00
00
ENDCHAR
STARTCHAR u0061
ENCODING 97
SWIDTH 666 0
DWIDTH 8 0
BBX 8 14 0 -4
BITMAP
00
00
00
00
00
3C
06
3E
66
66
3B
00
00
00
ENDCHAR
STARTCHAR u2302
ENCODING 8962
SWIDTH 666 0
DWIDTH 8 0
BBX 8 14 0 -4
BITMAP
00
00
00
00
08
1C
36
63
63
7F
00
00
00
00
ENDCHAR
STARTCHAR u0029
ENCODING 41
SWIDTH 666 0
DWIDTH 8 0
BBX 8 14 0 -4
BITMAP
00
00
18
0C
06
06
06
06
06
0C
18
00
00
00
ENDCHAR
STARTCHAR u0034
ENCODING 52
SWIDTH 666 0
DWIDTH 8 0
BBX 8 14 0 -4
BITMAP
00
00
06
0E
1E
36
66
7F
06
06
0F
00
00
00
ENDCHAR
STARTCHAR u00AD
ENCODING 173
SWIDTH 666 0
DWIDTH 8 0
BBX 8 14 0 -4
BITMAP
00
00
00
00
00
00
00
FE
00
00
00
00
00
00
ENDCHAR
STARTCHAR u0038
ENCODING 56
SWIDTH 666 0
DWIDTH 8 0
BBX 8 14 0 -4
BITMAP
00
00
3E
63
63
63
3E
63
63
63
3E
00
00
00
ENDCHAR
STARTCHAR u002D
ENCODING 45
SWIDTH 666 0
DWIDTH 8 0
BBX 8 14 0 -4
BITMAP
00
00
00
00
00
00
FE
00
00
00
00
00
00
00
ENDCHAR
STARTCHAR u0042
ENCODING 66
SWIDTH 666 0
DWIDTH 8 0
BBX 8 14 0 -4
BITMAP
00
00
7E
33
33
33
3E
33
33
33
7E
00
00
00
ENDCHAR
STARTCHAR u05DD
ENCODING 1501
SWIDTH 666 0
DWIDTH 8 0
BBX 8 14 0 -4
BITMAP
00
00
00
7E
63
63
63
63
63
63
7F
00
00
00
ENDCHAR
STARTCHAR u0036
ENCODING 54
SWIDTH 666 0
DWIDTH 8 0
BBX 8 14 0 -4
BITMAP
00
00
1C
30
60
60
7E
63
63
63
3E
00
00
00
ENDCHAR
STARTCHAR u2191
ENCODING 8593
SWIDTH 666 0
DWIDTH 8 0
BBX 8 14 0 -4
BITMAP
00
00
18
3C
7E
18
18
18
18
18
18
00
00
00
ENDCHAR
STARTCHAR u0046
ENCODING 70
SWIDTH 666 0
DWIDTH 8 0
BBX 8 14 0 -4
BITMAP
00
00
7F
33
31
34
3C
34
30
30
78
00
00
00
ENDCHAR
STARTCHAR u05E4
ENCODING 1508
SWIDTH 666 0
DWIDTH 8 0
BBX 8 14 0 -4
BITMAP
00
00
00
7E
23
63
73
03
03
03
7F
00
00
00
ENDCHAR
STARTCHAR u00BC
ENCODING 188
SWIDTH 666 0
DWIDTH 8 0
BBX 8 14 0 -4
BITMAP
00
60
E0
63
66
6C
18
36
6E
DA
3F
06
06
00
ENDCHAR
STARTCHAR u0044
ENCODING 68
SWIDTH 666 0
DWIDTH 8 0
BBX 8 14 0 -4
BITMAP
00
00
7C
36
33
33
33
33
33
36
7C
00
00
00
ENDCHAR
STARTCHAR u00A6
ENCODING 166
SWIDTH 666 0
DWIDTH 8 0
BBX 8 14 0 -4
BITMAP
00
18
18
18
18
00
00
00
18
18
18
18
00
00
ENDCHAR
STARTCHAR u266B
ENCODING 9835
SWIDTH 666 0
DWIDTH 8 0
BBX 8 14 0 -4
BITMAP
00
00
7F
63
7F
63
63
63
67
E7
E6
C0
00
00
ENDCHAR
STARTCHAR u0058
ENCODING 88
SWIDTH 666 0
DWIDTH 8 0
BBX 8 14 0 -4
BITMAP
00
00
66
66
66
3C
18
3C
66
66
66
00
00
00
ENDCHAR
STARTCHAR u0074
ENCODING 116
SWIDTH 666 0
DWIDTH 8 0
BBX 8 14 0 -4
BITMAP
00
00
08
18
18
7E
18
18
18
1B
0E
00
00
00
ENDCHAR
STARTCHAR u21A8
ENCODING 8616
SWIDTH 666 0
DWIDTH 8 0
BBX 8 14 0 -4
BITMAP
00
00
18
3C
7E
18
18
18
7E
3C
18
7E
00
00
ENDCHAR
STARTCHAR u0064
ENCODING 100
SWIDTH 666 0
DWIDTH 8 0
BBX 8 14 0 -4
BITMAP
00
00
0E
06
06
1E
36
66
66
66
3B
00
00
00
ENDCHAR
STARTCHAR u05E0
ENCODING 1504
SWIDTH 666 0
DWIDTH 8 0
BBX 8 14 0 -4
BITMAP
00
00
00
1C
06
06
06
06
06
06
3E
00
00
00
ENDCHAR
STARTCHAR u0078
ENCODING 120
SWIDTH 666 0
DWIDTH 8 0
BBX 8 14 0 -4
BITMAP
00
00
00
00
00
63
36
1C
1C
36
63
00
00
00
ENDCHAR
STARTCHAR u0028
ENCODING 40
SWIDTH 666 0
DWIDTH 8 0
BBX 8 14 0 -4
BITMAP
00
00
0C
18
30
30
30
30
30
18
0C
00
00
00
ENDCHAR
STARTCHAR u004B
ENCODING 75
SWIDTH 666 0
DWIDTH 8 0
BBX 8 14 0 -4
BITMAP
00
00
73
33
36
36
3C
36
36
33
73
00
00
00
ENDCHAR
STARTCHAR u0053
ENCODING 83
SWIDTH 666 0
DWIDTH 8 0
BBX 8 14 0 -4
BITMAP
00
00
3E
63
63
30
1C
06
63
63
3E
00
00
00
ENDCHAR
STARTCHAR u2194
ENCODING 8596
SWIDTH 666 0
DWIDTH 8 0
BBX 8 14 0 -4
BITMAP
00
00
00
00
24
66
FF
66
24
00
00
00
00
00
ENDCHAR
STARTCHAR u003B
ENCODING 59
SWIDTH 666 0
DWIDTH 8 0
BBX 8 14 0 -4
BITMAP
00
00
00
18
18
00
00
00
18
18
30
00
00
00
ENDCHAR
STARTCHAR u00D7
ENCODING 215
SWIDTH 666 0
DWIDTH 8 0
BBX 8 14 0 -4
BITMAP
00
00
00
00
00
C6
6C
38
38
6C
C6
00
00
00
ENDCHAR
STARTCHAR u00B1
ENCODING 177
SWIDTH 666 0
DWIDTH 8 0
BBX 8 14 0 -4
BITMAP
00
00
00
18
18
7E
18
18
00
00
7E
00
00
00
ENDCHAR
STARTCHAR u05E8
ENCODING 1512
SWIDTH 666 0
DWIDTH 8 0
BBX 8 14 0 -4
BITMAP
00
00
00
7E
03
03
03
03
03
03
03
00
00
00
ENDCHAR
STARTCHAR u05D6
ENCODING 1494
SWIDTH 666 0
DWIDTH 8 0
BBX 8 14 0 -4
BITMAP
00
00
00
7E
18
18
18
0C
0C
18
30
00
00
00
ENDCHAR
STARTCHAR u0035
ENCODING 53
SWIDTH 666 0
DWIDTH 8 0
BBX 8 14 0 -4
BITMAP
00
00
7F
60
60
60
7E
03
03
63
3E
00
00
00
ENDCHAR
STARTCHAR u25BC
ENCODING 9660
SWIDTH 666 0
DWIDTH 8 0
BBX 8 14 0 -4
BITMAP
00
00
00
7F
7F
3E
3E
1C
1C
08
00
00
00
00
ENDCHAR
STARTCHAR u05D4
ENCODING 1492
SWIDTH 666 0
DWIDTH 8 0
BBX 8 14 0 -4
BITMAP
00
00
00
7E
03
03
03
63
63
63
63
00
00
00
ENDCHAR
STARTCHAR u007A
ENCODING 122
SWIDTH 666 0
DWIDTH 8 0
BBX 8 14 0 -4
BITMAP
00
00
00
00
00
7F
66
0C
18
33
7F
00
00
00
ENDCHAR
STARTCHAR u203C
ENCODING 8252
SWIDTH 666 0
DWIDTH 8 0
BBX 8 14 0 -4
BITMAP
00
00
33
33
33
33
33
33
00
33
33
00
00
00
ENDCHAR
STARTCHAR u002A
ENCODING 42
SWIDTH 666 0
DWIDTH 8 0
BBX 8 14 0 -4
BITMAP
00
00
00
00
66
3C
FF
3C
66
00
00
00
00
00
ENDCHAR
STARTCHAR u002E
ENCODING 46
SWIDTH 666 0
DWIDTH 8 0
BBX 8 14 0 -4
BITMAP
00
00
00
00
00
00
00
00
00
18
18
00
00
00
ENDCHAR
STARTCHAR u0069
ENCODING 105
SWIDTH 666 0
DWIDTH 8 0
BBX 8 14 0 -4
BITMAP
00
00
0C
0C
00
1C
0C
0C
0C
0C
1E
00
00
00
ENDCHAR
STARTCHAR u05EA
ENCODING 1514
SWIDTH 666 0
DWIDTH 8 0
BBX 8 14 0 -4
BITMAP
00
00
00
7E
33
33
33
33
33
33
73
00
00
00
ENDCHAR
STARTCHAR u0055
ENCODING 85
SWIDTH 666 0
DWIDTH 8 0
BBX 8 14 0 -4
BITMAP
00
00
63
63
63
63
63
63
63
63
3E
00
00
00
ENDCHAR
STARTCHAR u05D9
ENCODING 1497
SWIDTH 666 0
DWIDTH 8 0
BBX 8 14 0 -4
BITMAP
00
00
00
3C
06
06
06
0C
00
00
00
00
00
00
ENDCHAR
STARTCHAR u00B9
ENCODING 185
SWIDTH 666 0
DWIDTH 8 0
BBX 8 14 0 -4
BITMAP
00
18
38
18
18
18
3C
00
00
00
00
00
00
00
ENDCHAR
STARTCHAR u0024
ENCODING 36
SWIDTH 666 0
DWIDTH 8 0
BBX 8 14 0 -4
BITMAP
0C
0C
3E
63
61
60
3E
03
43
63
3E
0C
0C
00
ENDCHAR
STARTCHAR u00B7
ENCODING 183
SWIDTH 666 0
DWIDTH 8 0
BBX 8 14 0 -4
BITMAP
00
00
00
00
00
00
18
00
00
00
00
00
00
00
ENDCHAR
STARTCHAR u25B6
ENCODING 9654
SWIDTH 666 0
DWIDTH 8 0
BBX 8 14 0 -4
BITMAP
00
00
40
60
70
7C
7F
7C
70
60
40
00
00
00
ENDCHAR
STARTCHAR u005E
ENCODING 94
SWIDTH 666 0
DWIDTH 8 0
BBX 8 14 0 -4
BITMAP
08
1C
36
63
00
00
00
00
00
00
00
00
00
00
ENDCHAR
STARTCHAR u0033
ENCODING 51
SWIDTH 666 0
DWIDTH 8 0
BBX 8 14 0 -4
BITMAP
00
00
3E
63
03
03
1E
03
03
63
3E
00
00
00
ENDCHAR
STARTCHAR u006F
ENCODING 111
SWIDTH 666 0
DWIDTH 8 0
BBX 8 14 0 -4
BITMAP
00
00
00
00
00
3E
63
63
63
63
3E
00
00
00
ENDCHAR
STARTCHAR u0026
ENCODING 38
SWIDTH 666 0
DWIDTH 8 0
BBX 8 14 0 -4
BITMAP
00
00
1C
36
36
1C
3B
6E
66
66
3B
00
00
00
ENDCHAR
STARTCHAR u0022
ENCODING 34
SWIDTH 666 0
DWIDTH 8 0
BBX 8 14 0 -4
BITMAP
00
63
63
63
22
00
00
00
00
00
00
00
00
00
ENDCHAR
STARTCHAR u2319
ENCODING 8985
SWIDTH 666 0
DWIDTH 8 0
BBX 8 14 0 -4
BITMAP
00
00
00
00
00
60
60
60
7F
00
00
00
00
00
ENDCHAR
STARTCHAR u00A9
ENCODING 169
SWIDTH 666 0
DWIDTH 8 0
BBX 8 14 0 -4
BITMAP
00
00
00
38
44
9A
A2
A2
A2
9A
44
38
00
00
ENDCHAR
STARTCHAR u00A4
ENCODING 164
SWIDTH 666 0
DWIDTH 8 0
BBX 8 14 0 -4
BITMAP
00
00
00
C6
7C
C6
C6
C6
7C
C6
00
00
00
00
ENDCHAR
STARTCHAR u00AB
ENCODING 171
SWIDTH 666 0
DWIDTH 8 0
BBX 8 14 0 -4
BITMAP
00
00
00
00
1B
36
6C
36
1B
00
00
00
00
00
ENDCHAR
ENDFONT
