COMMENT vga
STARTFONT 2.1
FONT vga
SIZE 8 75 75
FONTBOUNDINGBOX 8 8 0 -4
STARTPROPERTIES 4
FONT_DESCENT 4
FONT_ASCENT 4
AVERAGE_WIDTH 80
DEFAULT_CHAR 0
ENDPROPERTIES
CHARS 183
STARTCHAR u0637
ENCODING 1591
SWIDTH 666 0
DWIDTH 8 0
BBX 8 8 0 -4
BITMAP
20
20
20
2E
31
FE
00
00
ENDCHAR
STARTCHAR u0634
ENCODING 1588
SWIDTH 666 0
DWIDTH 8 0
BBX 8 8 0 -4
BITMAP
08
14
00
49
49
76
80
00
ENDCHAR
STARTCHAR u0020
ENCODING 32
SWIDTH 666 0
DWIDTH 8 0
BBX 8 8 0 -4
BITMAP
00
00
00
00
00
00
00
00
ENDCHAR
STARTCHAR u005A
ENCODING 90
SWIDTH 666 0
DWIDTH 8 0
BBX 8 8 0 -4
BITMAP
7F
42
04
08
10
21
7F
00
ENDCHAR
STARTCHAR u0076
ENCODING 118
SWIDTH 666 0
DWIDTH 8 0
BBX 8 8 0 -4
BITMAP
00
00
41
41
22
14
08
00
ENDCHAR
STARTCHAR u0047
ENCODING 71
SWIDTH 666 0
DWIDTH 8 0
BBX 8 8 0 -4
BITMAP
1C
22
40
40
4E
22
1E
00
ENDCHAR
STARTCHAR u0066
ENCODING 102
SWIDTH 666 0
DWIDTH 8 0
BBX 8 8 0 -4
BITMAP
0C
12
10
38
10
10
38
00
ENDCHAR
STARTCHAR u25CB
ENCODING 9675
SWIDTH 666 0
DWIDTH 8 0
BBX 8 8 0 -4
BITMAP
00
00
FF
00
F7
36
36
36
ENDCHAR
STARTCHAR u007D
ENCODING 125
SWIDTH 666 0
DWIDTH 8 0
BBX 8 8 0 -4
BITMAP
30
08
08
06
08
08
30
00
ENDCHAR
STARTCHAR u002C
ENCODING 44
SWIDTH 666 0
DWIDTH 8 0
BBX 8 8 0 -4
BITMAP
00
00
00
00
00
10
10
20
ENDCHAR
STARTCHAR u0037
ENCODING 55
SWIDTH 666 0
DWIDTH 8 0
BBX 8 8 0 -4
BITMAP
7E
42
04
08
10
10
10
00
ENDCHAR
STARTCHAR u0054
ENCODING 84
SWIDTH 666 0
DWIDTH 8 0
BBX 8 8 0 -4
BITMAP
7F
49
08
08
08
08
1C
00
ENDCHAR
STARTCHAR u005F
ENCODING 95
SWIDTH 666 0
DWIDTH 8 0
BBX 8 8 0 -4
BITMAP
00
00
00
00
00
00
00
FF
ENDCHAR
STARTCHAR u0039
ENCODING 57
SWIDTH 666 0
DWIDTH 8 0
BBX 8 8 0 -4
BITMAP
3C
42
42
3E
02
04
38
00
ENDCHAR
STARTCHAR u266C
ENCODING 9836
SWIDTH 666 0
DWIDTH 8 0
BBX 8 8 0 -4
BITMAP
36
36
37
30
3F
00
00
00
ENDCHAR
STARTCHAR u006D
ENCODING 109
SWIDTH 666 0
DWIDTH 8 0
BBX 8 8 0 -4
BITMAP
00
00
76
49
49
49
49
00
ENDCHAR
STARTCHAR u064A
ENCODING 1610
SWIDTH 666 0
DWIDTH 8 0
BBX 8 8 0 -4
BITMAP
00
00
06
08
86
81
7E
24
ENDCHAR
STARTCHAR u2190
ENCODING 8592
SWIDTH 666 0
DWIDTH 8 0
BBX 8 8 0 -4
BITMAP
00
18
30
7F
30
18
00
00
ENDCHAR
STARTCHAR u0059
ENCODING 89
SWIDTH 666 0
DWIDTH 8 0
BBX 8 8 0 -4
BITMAP
41
22
14
08
08
08
1C
00
ENDCHAR
STARTCHAR u263C
ENCODING 9788
SWIDTH 666 0
DWIDTH 8 0
BBX 8 8 0 -4
BITMAP
36
36
F6
06
FE
00
00
00
ENDCHAR
STARTCHAR u2666
ENCODING 9830
SWIDTH 666 0
DWIDTH 8 0
BBX 8 8 0 -4
BITMAP
08
5D
22
63
22
5D
08
00
ENDCHAR
STARTCHAR u0023
ENCODING 35
SWIDTH 666 0
DWIDTH 8 0
BBX 8 8 0 -4
BITMAP
24
24
7E
24
7E
24
24
00
ENDCHAR
STARTCHAR u062D
ENCODING 1581
SWIDTH 666 0
DWIDTH 8 0
BBX 8 8 0 -4
BITMAP
00
00
00
FC
43
80
80
7C
ENDCHAR
STARTCHAR u0644
ENCODING 1604
SWIDTH 666 0
DWIDTH 8 0
BBX 8 8 0 -4
BITMAP
01
01
01
01
21
41
41
3E
ENDCHAR
STARTCHAR u004E
ENCODING 78
SWIDTH 666 0
DWIDTH 8 0
BBX 8 8 0 -4
BITMAP
62
52
4A
46
42
42
42
00
ENDCHAR
STARTCHAR u2665
ENCODING 9829
SWIDTH 666 0
DWIDTH 8 0
BBX 8 8 0 -4
BITMAP
3F
21
3F
21
23
67
E6
C0
ENDCHAR
STARTCHAR u064E
ENCODING 1614
SWIDTH 666 0
DWIDTH 8 0
BBX 8 8 0 -4
BITMAP
06
1C
30
00
00
00
00
00
ENDCHAR
STARTCHAR u005D
ENCODING 93
SWIDTH 666 0
DWIDTH 8 0
BBX 8 8 0 -4
BITMAP
3C
04
04
04
04
04
3C
00
ENDCHAR
STARTCHAR u006A
ENCODING 106
SWIDTH 666 0
DWIDTH 8 0
BBX 8 8 0 -4
BITMAP
02
00
06
02
02
42
42
3C
ENDCHAR
STARTCHAR u0041
ENCODING 65
SWIDTH 666 0
DWIDTH 8 0
BBX 8 8 0 -4
BITMAP
18
24
42
42
7E
42
42
00
ENDCHAR
STARTCHAR u266A
ENCODING 9834
SWIDTH 666 0
DWIDTH 8 0
BBX 8 8 0 -4
BITMAP
00
00
3F
30
37
36
36
36
ENDCHAR
STARTCHAR u0630
ENCODING 1584
SWIDTH 666 0
DWIDTH 8 0
BBX 8 8 0 -4
BITMAP
00
20
04
02
21
3F
00
00
ENDCHAR
STARTCHAR u2193
ENCODING 8595
SWIDTH 666 0
DWIDTH 8 0
BBX 8 8 0 -4
BITMAP
08
08
08
2A
3E
1C
08
00
ENDCHAR
STARTCHAR u0072
ENCODING 114
SWIDTH 666 0
DWIDTH 8 0
BBX 8 8 0 -4
BITMAP
00
00
6C
32
20
20
70
00
ENDCHAR
STARTCHAR u064F
ENCODING 1615
SWIDTH 666 0
DWIDTH 8 0
BBX 8 8 0 -4
BITMAP
18
18
08
10
00
00
00
00
ENDCHAR
STARTCHAR u003A
ENCODING 58
SWIDTH 666 0
DWIDTH 8 0
BBX 8 8 0 -4
BITMAP
00
00
08
00
00
08
00
00
ENDCHAR
STARTCHAR u0629
ENCODING 1577
SWIDTH 666 0
DWIDTH 8 0
BBX 8 8 0 -4
BITMAP
14
00
0C
12
11
0E
00
00
ENDCHAR
STARTCHAR u0624
ENCODING 1572
SWIDTH 666 0
DWIDTH 8 0
BBX 8 8 0 -4
BITMAP
30
40
26
49
0F
01
42
3C
ENDCHAR
STARTCHAR u0051
ENCODING 81
SWIDTH 666 0
DWIDTH 8 0
BBX 8 8 0 -4
BITMAP
3C
42
42
42
42
4A
3C
03
ENDCHAR
STARTCHAR u2195
ENCODING 8597
SWIDTH 666 0
DWIDTH 8 0
BBX 8 8 0 -4
BITMAP
08
1C
3E
08
08
3E
1C
08
ENDCHAR
STARTCHAR u003C
ENCODING 60
SWIDTH 666 0
DWIDTH 8 0
BBX 8 8 0 -4
BITMAP
04
08
10
20
10
08
04
00
ENDCHAR
STARTCHAR u0065
ENCODING 101
SWIDTH 666 0
DWIDTH 8 0
BBX 8 8 0 -4
BITMAP
00
00
3C
42
7E
40
3C
00
ENDCHAR
STARTCHAR u0049
ENCODING 73
SWIDTH 666 0
DWIDTH 8 0
BBX 8 8 0 -4
BITMAP
1C
08
08
08
08
08
1C
00
ENDCHAR
STARTCHAR u0056
ENCODING 86
SWIDTH 666 0
DWIDTH 8 0
BBX 8 8 0 -4
BITMAP
41
41
41
41
22
14
08
00
ENDCHAR
STARTCHAR u004C
ENCODING 76
SWIDTH 666 0
DWIDTH 8 0
BBX 8 8 0 -4
BITMAP
70
20
20
20
20
22
7E
00
ENDCHAR
STARTCHAR u003E
ENCODING 62
SWIDTH 666 0
DWIDTH 8 0
BBX 8 8 0 -4
BITMAP
20
10
08
04
08
10
20
00
ENDCHAR
STARTCHAR u0043
ENCODING 67
SWIDTH 666 0
DWIDTH 8 0
BBX 8 8 0 -4
BITMAP
1C
22
40
40
40
22
1C
00
ENDCHAR
STARTCHAR u0635
ENCODING 1589
SWIDTH 666 0
DWIDTH 8 0
BBX 8 8 0 -4
BITMAP
00
00
00
0E
91
7E
80
00
ENDCHAR
STARTCHAR u0625
ENCODING 1573
SWIDTH 666 0
DWIDTH 8 0
BBX 8 8 0 -4
BITMAP
00
02
02
1A
22
12
20
00
ENDCHAR
STARTCHAR u0649
ENCODING 1609
SWIDTH 666 0
DWIDTH 8 0
BBX 8 8 0 -4
BITMAP
00
00
00
06
08
86
81
7E
ENDCHAR
STARTCHAR u061F
ENCODING 1567
SWIDTH 666 0
DWIDTH 8 0
BBX 8 8 0 -4
BITMAP
00
1C
22
10
08
00
08
00
ENDCHAR
STARTCHAR u0636
ENCODING 1590
SWIDTH 666 0
DWIDTH 8 0
BBX 8 8 0 -4
BITMAP
00
08
00
0E
91
7E
80
00
ENDCHAR
STARTCHAR u006E
ENCODING 110
SWIDTH 666 0
DWIDTH 8 0
BBX 8 8 0 -4
BITMAP
00
00
5C
62
42
42
42
00
ENDCHAR
STARTCHAR u0052
ENCODING 82
SWIDTH 666 0
DWIDTH 8 0
BBX 8 8 0 -4
BITMAP
7C
22
22
3C
28
24
72
00
ENDCHAR
STARTCHAR u2663
ENCODING 9827
SWIDTH 666 0
DWIDTH 8 0
BBX 8 8 0 -4
BITMAP
00
00
FF
00
FF
00
00
00
ENDCHAR
STARTCHAR u25C4
ENCODING 9668
SWIDTH 666 0
DWIDTH 8 0
BBX 8 8 0 -4
BITMAP
01
07
1F
7F
1F
07
01
00
ENDCHAR
STARTCHAR u0641
ENCODING 1601
SWIDTH 666 0
DWIDTH 8 0
BBX 8 8 0 -4
BITMAP
04
00
06
09
85
FE
00
00
ENDCHAR
STARTCHAR u0643
ENCODING 1603
SWIDTH 666 0
DWIDTH 8 0
BBX 8 8 0 -4
BITMAP
01
31
21
11
81
FE
00
00
ENDCHAR
STARTCHAR u064C
ENCODING 1612
SWIDTH 666 0
DWIDTH 8 0
BBX 8 8 0 -4
BITMAP
36
36
12
24
00
00
00
00
ENDCHAR
STARTCHAR u0070
ENCODING 112
SWIDTH 666 0
DWIDTH 8 0
BBX 8 8 0 -4
BITMAP
00
00
6E
31
31
2E
20
70
ENDCHAR
STARTCHAR u0045
ENCODING 69
SWIDTH 666 0
DWIDTH 8 0
BBX 8 8 0 -4
BITMAP
7E
22
28
38
28
22
7E
00
ENDCHAR
STARTCHAR u2642
ENCODING 9794
SWIDTH 666 0
DWIDTH 8 0
BBX 8 8 0 -4
BITMAP
36
36
F7
00
FF
00
00
00
ENDCHAR
STARTCHAR u0031
ENCODING 49
SWIDTH 666 0
DWIDTH 8 0
BBX 8 8 0 -4
BITMAP
08
18
28
08
08
08
3E
00
ENDCHAR
STARTCHAR u0648
ENCODING 1608
SWIDTH 666 0
DWIDTH 8 0
BBX 8 8 0 -4
BITMAP
00
00
06
09
0F
01
42
3C
ENDCHAR
STARTCHAR u0632
ENCODING 1586
SWIDTH 666 0
DWIDTH 8 0
BBX 8 8 0 -4
BITMAP
00
00
02
00
01
01
22
1C
ENDCHAR
STARTCHAR u0622
ENCODING 1570
SWIDTH 666 0
DWIDTH 8 0
BBX 8 8 0 -4
BITMAP
1E
20
04
04
04
04
00
00
ENDCHAR
STARTCHAR u007C
ENCODING 124
SWIDTH 666 0
DWIDTH 8 0
BBX 8 8 0 -4
BITMAP
08
08
08
08
08
08
08
00
ENDCHAR
STARTCHAR u0068
ENCODING 104
SWIDTH 666 0
DWIDTH 8 0
BBX 8 8 0 -4
BITMAP
60
20
2C
32
22
22
62
00
ENDCHAR
STARTCHAR u2192
ENCODING 8594
SWIDTH 666 0
DWIDTH 8 0
BBX 8 8 0 -4
BITMAP
00
0C
06
7F
06
0C
00
00
ENDCHAR
STARTCHAR u0079
ENCODING 121
SWIDTH 666 0
DWIDTH 8 0
BBX 8 8 0 -4
BITMAP
00
00
42
42
42
3E
02
7C
ENDCHAR
STARTCHAR u004F
ENCODING 79
SWIDTH 666 0
DWIDTH 8 0
BBX 8 8 0 -4
BITMAP
3C
42
42
42
42
42
3C
00
ENDCHAR
STARTCHAR u263A
ENCODING 9786
SWIDTH 666 0
DWIDTH 8 0
BBX 8 8 0 -4
BITMAP
7E
81
A5
81
BD
99
81
7E
ENDCHAR
STARTCHAR u062E
ENCODING 1582
SWIDTH 666 0
DWIDTH 8 0
BBX 8 8 0 -4
BITMAP
00
10
00
FC
43
80
80
7C
ENDCHAR
STARTCHAR u064D
ENCODING 1613
SWIDTH 666 0
DWIDTH 8 0
BBX 8 8 0 -4
BITMAP
00
00
06
1C
30
06
1C
30
ENDCHAR
STARTCHAR u0060
ENCODING 96
SWIDTH 666 0
DWIDTH 8 0
BBX 8 8 0 -4
BITMAP
20
10
08
00
00
00
00
00
ENDCHAR
STARTCHAR u25B2
ENCODING 9650
SWIDTH 666 0
DWIDTH 8 0
BBX 8 8 0 -4
BITMAP
00
08
1C
3E
7F
7F
00
00
ENDCHAR
STARTCHAR u007E
ENCODING 126
SWIDTH 666 0
DWIDTH 8 0
BBX 8 8 0 -4
BITMAP
32
4C
00
00
00
00
00
00
ENDCHAR
STARTCHAR u063A
ENCODING 1594
SWIDTH 666 0
DWIDTH 8 0
BBX 8 8 0 -4
BITMAP
20
0E
10
0F
30
40
40
3E
ENDCHAR
STARTCHAR u2640
ENCODING 9792
SWIDTH 666 0
DWIDTH 8 0
BBX 8 8 0 -4
BITMAP
00
00
FE
06
F6
36
36
36
ENDCHAR
STARTCHAR u061B
ENCODING 1563
SWIDTH 666 0
DWIDTH 8 0
BBX 8 8 0 -4
BITMAP
00
08
10
18
00
18
00
00
ENDCHAR
STARTCHAR u060C
ENCODING 1548
SWIDTH 666 0
DWIDTH 8 0
BBX 8 8 0 -4
BITMAP
00
00
00
08
10
18
00
00
ENDCHAR
STARTCHAR u00A0
ENCODING 160
SWIDTH 666 0
DWIDTH 8 0
BBX 8 8 0 -4
BITMAP
00
00
00
00
00
00
00
00
ENDCHAR
STARTCHAR u25D8
ENCODING 9688
SWIDTH 666 0
DWIDTH 8 0
BBX 8 8 0 -4
BITMAP
36
36
F6
06
F6
36
36
36
ENDCHAR
STARTCHAR u002F
ENCODING 47
SWIDTH 666 0
DWIDTH 8 0
BBX 8 8 0 -4
BITMAP
01
02
04
08
10
20
40
00
ENDCHAR
STARTCHAR u0062
ENCODING 98
SWIDTH 666 0
DWIDTH 8 0
BBX 8 8 0 -4
BITMAP
60
20
20
3E
21
21
3E
00
ENDCHAR
STARTCHAR u0627
ENCODING 1575
SWIDTH 666 0
DWIDTH 8 0
BBX 8 8 0 -4
BITMAP
10
18
10
10
10
10
00
00
ENDCHAR
STARTCHAR u25AC
ENCODING 9644
SWIDTH 666 0
DWIDTH 8 0
BBX 8 8 0 -4
BITMAP
00
00
00
00
7E
7E
7E
00
ENDCHAR
STARTCHAR u0025
ENCODING 37
SWIDTH 666 0
DWIDTH 8 0
BBX 8 8 0 -4
BITMAP
00
00
00
00
00
00
00
00
ENDCHAR
STARTCHAR u0075
ENCODING 117
SWIDTH 666 0
DWIDTH 8 0
BBX 8 8 0 -4
BITMAP
00
00
42
42
42
42
3D
00
ENDCHAR
STARTCHAR u002B
ENCODING 43
SWIDTH 666 0
DWIDTH 8 0
BBX 8 8 0 -4
BITMAP
00
08
08
3E
08
08
00
00
ENDCHAR
STARTCHAR u2660
ENCODING 9824
SWIDTH 666 0
DWIDTH 8 0
BBX 8 8 0 -4
BITMAP
36
36
36
36
36
36
36
36
ENDCHAR
STARTCHAR u0633
ENCODING 1587
SWIDTH 666 0
DWIDTH 8 0
BBX 8 8 0 -4
BITMAP
00
00
00
49
49
76
80
00
ENDCHAR
STARTCHAR u0021
ENCODING 33
SWIDTH 666 0
DWIDTH 8 0
BBX 8 8 0 -4
BITMAP
08
1C
1C
08
08
00
08
00
ENDCHAR
STARTCHAR u25BA
ENCODING 9658
SWIDTH 666 0
DWIDTH 8 0
BBX 8 8 0 -4
BITMAP
40
70
7C
7F
7C
70
40
00
ENDCHAR
STARTCHAR u003F
ENCODING 63
SWIDTH 666 0
DWIDTH 8 0
BBX 8 8 0 -4
BITMAP
3C
42
02
04
08
00
08
00
ENDCHAR
STARTCHAR u263B
ENCODING 9787
SWIDTH 666 0
DWIDTH 8 0
BBX 8 8 0 -4
BITMAP
3F
21
3F
20
20
60
E0
C0
ENDCHAR
STARTCHAR u221F
ENCODING 8735
SWIDTH 666 0
DWIDTH 8 0
BBX 8 8 0 -4
BITMAP
00
00
40
40
40
7E
00
00
ENDCHAR
STARTCHAR u25D9
ENCODING 9689
SWIDTH 666 0
DWIDTH 8 0
BBX 8 8 0 -4
BITMAP
36
36
37
30
37
36
36
36
ENDCHAR
STARTCHAR u0050
ENCODING 80
SWIDTH 666 0
DWIDTH 8 0
BBX 8 8 0 -4
BITMAP
7C
22
22
3C
20
20
70
00
ENDCHAR
STARTCHAR u0642
ENCODING 1602
SWIDTH 666 0
DWIDTH 8 0
BBX 8 8 0 -4
BITMAP
0A
00
06
09
0F
81
81
7E
ENDCHAR
STARTCHAR u0646
ENCODING 1606
SWIDTH 666 0
DWIDTH 8 0
BBX 8 8 0 -4
BITMAP
00
00
08
00
41
81
81
7E
ENDCHAR
STARTCHAR u0077
ENCODING 119
SWIDTH 666 0
DWIDTH 8 0
BBX 8 8 0 -4
BITMAP
00
00
41
49
49
49
36
00
ENDCHAR
STARTCHAR u0063
ENCODING 99
SWIDTH 666 0
DWIDTH 8 0
BBX 8 8 0 -4
BITMAP
00
00
3C
42
40
42
3C
00
ENDCHAR
STARTCHAR u0048
ENCODING 72
SWIDTH 666 0
DWIDTH 8 0
BBX 8 8 0 -4
BITMAP
42
42
42
7E
42
42
42
00
ENDCHAR
STARTCHAR u2022
ENCODING 8226
SWIDTH 666 0
DWIDTH 8 0
BBX 8 8 0 -4
BITMAP
36
36
F7
00
F7
36
36
36
ENDCHAR
STARTCHAR u25C0
ENCODING 9664
SWIDTH 666 0
DWIDTH 8 0
BBX 8 8 0 -4
BITMAP
01
07
1F
7F
1F
07
01
00
ENDCHAR
STARTCHAR u0638
ENCODING 1592
SWIDTH 666 0
DWIDTH 8 0
BBX 8 8 0 -4
BITMAP
20
24
20
2E
31
FE
00
00
ENDCHAR
STARTCHAR u0631
ENCODING 1585
SWIDTH 666 0
DWIDTH 8 0
BBX 8 8 0 -4
BITMAP
00
00
00
00
01
01
22
1C
ENDCHAR
STARTCHAR u004A
ENCODING 74
SWIDTH 666 0
DWIDTH 8 0
BBX 8 8 0 -4
BITMAP
0E
04
04
04
44
44
38
00
ENDCHAR
STARTCHAR u00B6
ENCODING 182
SWIDTH 666 0
DWIDTH 8 0
BBX 8 8 0 -4
BITMAP
00
00
00
00
00
00
00
00
ENDCHAR
STARTCHAR u003D
ENCODING 61
SWIDTH 666 0
DWIDTH 8 0
BBX 8 8 0 -4
BITMAP
00
00
7E
00
00
7E
00
00
ENDCHAR
STARTCHAR u006C
ENCODING 108
SWIDTH 666 0
DWIDTH 8 0
BBX 8 8 0 -4
BITMAP
18
08
08
08
08
08
1C
00
ENDCHAR
STARTCHAR u0073
ENCODING 115
SWIDTH 666 0
DWIDTH 8 0
BBX 8 8 0 -4
BITMAP
00
00
3E
40
3C
02
7C
00
ENDCHAR
STARTCHAR u005C
ENCODING 92
SWIDTH 666 0
DWIDTH 8 0
BBX 8 8 0 -4
BITMAP
40
20
10
08
04
02
01
00
ENDCHAR
STARTCHAR u0067
ENCODING 103
SWIDTH 666 0
DWIDTH 8 0
BBX 8 8 0 -4
BITMAP
00
00
3D
42
42
3E
02
7C
ENDCHAR
STARTCHAR u0647
ENCODING 1607
SWIDTH 666 0
DWIDTH 8 0
BBX 8 8 0 -4
BITMAP
00
00
0C
12
11
0E
00
00
ENDCHAR
STARTCHAR u0071
ENCODING 113
SWIDTH 666 0
DWIDTH 8 0
BBX 8 8 0 -4
BITMAP
00
00
3B
46
46
3A
02
07
ENDCHAR
STARTCHAR u005B
ENCODING 91
SWIDTH 666 0
DWIDTH 8 0
BBX 8 8 0 -4
BITMAP
3C
20
20
20
20
20
3C
00
ENDCHAR
STARTCHAR u00A7
ENCODING 167
SWIDTH 666 0
DWIDTH 8 0
BBX 8 8 0 -4
BITMAP
00
00
00
00
00
00
00
00
ENDCHAR
STARTCHAR u0030
ENCODING 48
SWIDTH 666 0
DWIDTH 8 0
BBX 8 8 0 -4
BITMAP
18
24
42
5A
42
24
18
00
ENDCHAR
STARTCHAR u006B
ENCODING 107
SWIDTH 666 0
DWIDTH 8 0
BBX 8 8 0 -4
BITMAP
60
20
24
28
30
28
24
00
ENDCHAR
STARTCHAR u0652
ENCODING 1618
SWIDTH 666 0
DWIDTH 8 0
BBX 8 8 0 -4
BITMAP
00
00
07
09
11
0E
00
00
ENDCHAR
STARTCHAR u0057
ENCODING 87
SWIDTH 666 0
DWIDTH 8 0
BBX 8 8 0 -4
BITMAP
41
41
41
49
49
49
36
00
ENDCHAR
STARTCHAR u004D
ENCODING 77
SWIDTH 666 0
DWIDTH 8 0
BBX 8 8 0 -4
BITMAP
63
55
49
41
41
41
41
00
ENDCHAR
STARTCHAR u0621
ENCODING 1569
SWIDTH 666 0
DWIDTH 8 0
BBX 8 8 0 -4
BITMAP
00
00
0E
10
0C
10
00
00
ENDCHAR
STARTCHAR u0645
ENCODING 1605
SWIDTH 666 0
DWIDTH 8 0
BBX 8 8 0 -4
BITMAP
00
00
0C
12
E9
86
40
20
ENDCHAR
STARTCHAR u0623
ENCODING 1571
SWIDTH 666 0
DWIDTH 8 0
BBX 8 8 0 -4
BITMAP
18
22
12
22
02
02
00
00
ENDCHAR
STARTCHAR uFFFD
ENCODING 65533
SWIDTH 666 0
DWIDTH 8 0
BBX 8 8 0 -4
BITMAP
00
00
00
00
00
00
00
00
ENDCHAR
STARTCHAR u007B
ENCODING 123
SWIDTH 666 0
DWIDTH 8 0
BBX 8 8 0 -4
BITMAP
06
08
08
30
08
08
06
00
ENDCHAR
STARTCHAR u0032
ENCODING 50
SWIDTH 666 0
DWIDTH 8 0
BBX 8 8 0 -4
BITMAP
3C
42
02
0C
30
42
7E
00
ENDCHAR
STARTCHAR u0027
ENCODING 39
SWIDTH 666 0
DWIDTH 8 0
BBX 8 8 0 -4
BITMAP
10
10
20
00
00
00
00
00
ENDCHAR
STARTCHAR u0040
ENCODING 64
SWIDTH 666 0
DWIDTH 8 0
BBX 8 8 0 -4
BITMAP
3C
42
5E
52
5E
40
3C
00
ENDCHAR
STARTCHAR u0650
ENCODING 1616
SWIDTH 666 0
DWIDTH 8 0
BBX 8 8 0 -4
BITMAP
00
00
00
00
00
06
1C
30
ENDCHAR
STARTCHAR u062F
ENCODING 1583
SWIDTH 666 0
DWIDTH 8 0
BBX 8 8 0 -4
BITMAP
00
00
04
02
21
3F
00
00
ENDCHAR
STARTCHAR u0061
ENCODING 97
SWIDTH 666 0
DWIDTH 8 0
BBX 8 8 0 -4
BITMAP
00
00
3C
02
3E
42
3F
00
ENDCHAR
STARTCHAR u2302
ENCODING 8962
SWIDTH 666 0
DWIDTH 8 0
BBX 8 8 0 -4
BITMAP
00
08
14
22
41
41
7F
00
ENDCHAR
STARTCHAR u0029
ENCODING 41
SWIDTH 666 0
DWIDTH 8 0
BBX 8 8 0 -4
BITMAP
10
08
04
04
04
08
10
00
ENDCHAR
STARTCHAR u0034
ENCODING 52
SWIDTH 666 0
DWIDTH 8 0
BBX 8 8 0 -4
BITMAP
04
0C
14
24
7F
04
0E
00
ENDCHAR
STARTCHAR u00AD
ENCODING 173
SWIDTH 666 0
DWIDTH 8 0
BBX 8 8 0 -4
BITMAP
00
00
00
7E
00
00
00
00
ENDCHAR
STARTCHAR u0038
ENCODING 56
SWIDTH 666 0
DWIDTH 8 0
BBX 8 8 0 -4
BITMAP
3C
42
42
3C
42
42
3C
00
ENDCHAR
STARTCHAR u002D
ENCODING 45
SWIDTH 666 0
DWIDTH 8 0
BBX 8 8 0 -4
BITMAP
00
00
00
7E
00
00
00
00
ENDCHAR
STARTCHAR u0042
ENCODING 66
SWIDTH 666 0
DWIDTH 8 0
BBX 8 8 0 -4
BITMAP
7C
22
22
3C
22
22
7C
00
ENDCHAR
STARTCHAR u0036
ENCODING 54
SWIDTH 666 0
DWIDTH 8 0
BBX 8 8 0 -4
BITMAP
1C
20
40
7C
42
42
3C
00
ENDCHAR
STARTCHAR u0626
ENCODING 1574
SWIDTH 666 0
DWIDTH 8 0
BBX 8 8 0 -4
BITMAP
06
04
02
04
30
B8
84
78
ENDCHAR
STARTCHAR u062B
ENCODING 1579
SWIDTH 666 0
DWIDTH 8 0
BBX 8 8 0 -4
BITMAP
10
28
00
01
81
FE
00
00
ENDCHAR
STARTCHAR u2191
ENCODING 8593
SWIDTH 666 0
DWIDTH 8 0
BBX 8 8 0 -4
BITMAP
08
1C
3E
2A
08
08
08
00
ENDCHAR
STARTCHAR u0046
ENCODING 70
SWIDTH 666 0
DWIDTH 8 0
BBX 8 8 0 -4
BITMAP
7E
22
28
38
28
20
70
00
ENDCHAR
STARTCHAR u064B
ENCODING 1611
SWIDTH 666 0
DWIDTH 8 0
BBX 8 8 0 -4
BITMAP
06
1C
30
06
1C
30
00
00
ENDCHAR
STARTCHAR u0044
ENCODING 68
SWIDTH 666 0
DWIDTH 8 0
BBX 8 8 0 -4
BITMAP
78
24
22
22
22
24
78
00
ENDCHAR
STARTCHAR u266B
ENCODING 9835
SWIDTH 666 0
DWIDTH 8 0
BBX 8 8 0 -4
BITMAP
36
36
37
30
3F
00
00
00
ENDCHAR
STARTCHAR u062A
ENCODING 1578
SWIDTH 666 0
DWIDTH 8 0
BBX 8 8 0 -4
BITMAP
00
28
00
01
81
FE
00
00
ENDCHAR
STARTCHAR u0058
ENCODING 88
SWIDTH 666 0
DWIDTH 8 0
BBX 8 8 0 -4
BITMAP
41
22
14
08
14
22
41
00
ENDCHAR
STARTCHAR u0074
ENCODING 116
SWIDTH 666 0
DWIDTH 8 0
BBX 8 8 0 -4
BITMAP
20
20
3C
20
20
22
1C
00
ENDCHAR
STARTCHAR u062C
ENCODING 1580
SWIDTH 666 0
DWIDTH 8 0
BBX 8 8 0 -4
BITMAP
00
00
00
FC
43
88
80
7C
ENDCHAR
STARTCHAR u21A8
ENCODING 8616
SWIDTH 666 0
DWIDTH 8 0
BBX 8 8 0 -4
BITMAP
08
1C
3E
08
3E
1C
08
FF
ENDCHAR
STARTCHAR u0064
ENCODING 100
SWIDTH 666 0
DWIDTH 8 0
BBX 8 8 0 -4
BITMAP
06
02
02
3E
42
42
3F
00
ENDCHAR
STARTCHAR u0078
ENCODING 120
SWIDTH 666 0
DWIDTH 8 0
BBX 8 8 0 -4
BITMAP
00
00
22
14
08
14
22
00
ENDCHAR
STARTCHAR u0028
ENCODING 40
SWIDTH 666 0
DWIDTH 8 0
BBX 8 8 0 -4
BITMAP
08
10
20
20
20
10
08
00
ENDCHAR
STARTCHAR u004B
ENCODING 75
SWIDTH 666 0
DWIDTH 8 0
BBX 8 8 0 -4
BITMAP
62
24
28
30
28
24
62
00
ENDCHAR
STARTCHAR u0053
ENCODING 83
SWIDTH 666 0
DWIDTH 8 0
BBX 8 8 0 -4
BITMAP
3C
42
40
3C
02
42
3C
00
ENDCHAR
STARTCHAR u2194
ENCODING 8596
SWIDTH 666 0
DWIDTH 8 0
BBX 8 8 0 -4
BITMAP
00
24
66
FF
66
24
00
00
ENDCHAR
STARTCHAR u003B
ENCODING 59
SWIDTH 666 0
DWIDTH 8 0
BBX 8 8 0 -4
BITMAP
00
00
08
00
00
08
08
10
ENDCHAR
STARTCHAR u0651
ENCODING 1617
SWIDTH 666 0
DWIDTH 8 0
BBX 8 8 0 -4
BITMAP
49
36
00
00
00
00
00
00
ENDCHAR
STARTCHAR u0035
ENCODING 53
SWIDTH 666 0
DWIDTH 8 0
BBX 8 8 0 -4
BITMAP
7E
40
7C
02
02
42
3C
00
ENDCHAR
STARTCHAR u25BC
ENCODING 9660
SWIDTH 666 0
DWIDTH 8 0
BBX 8 8 0 -4
BITMAP
00
7F
7F
3E
1C
08
00
00
ENDCHAR
STARTCHAR u007A
ENCODING 122
SWIDTH 666 0
DWIDTH 8 0
BBX 8 8 0 -4
BITMAP
00
00
3E
04
08
10
3E
00
ENDCHAR
STARTCHAR u203C
ENCODING 8252
SWIDTH 666 0
DWIDTH 8 0
BBX 8 8 0 -4
BITMAP
24
24
24
24
24
00
24
00
ENDCHAR
STARTCHAR u002A
ENCODING 42
SWIDTH 666 0
DWIDTH 8 0
BBX 8 8 0 -4
BITMAP
00
66
3C
FF
3C
66
00
00
ENDCHAR
STARTCHAR u002E
ENCODING 46
SWIDTH 666 0
DWIDTH 8 0
BBX 8 8 0 -4
BITMAP
00
00
00
00
00
10
10
00
ENDCHAR
STARTCHAR u0628
ENCODING 1576
SWIDTH 666 0
DWIDTH 8 0
BBX 8 8 0 -4
BITMAP
00
00
00
01
81
FE
00
10
ENDCHAR
STARTCHAR u0069
ENCODING 105
SWIDTH 666 0
DWIDTH 8 0
BBX 8 8 0 -4
BITMAP
08
00
18
08
08
08
1C
00
ENDCHAR
STARTCHAR u0055
ENCODING 85
SWIDTH 666 0
DWIDTH 8 0
BBX 8 8 0 -4
BITMAP
42
42
42
42
42
42
3C
00
ENDCHAR
STARTCHAR u0024
ENCODING 36
SWIDTH 666 0
DWIDTH 8 0
BBX 8 8 0 -4
BITMAP
18
3E
40
3C
02
7C
18
00
ENDCHAR
STARTCHAR u25B6
ENCODING 9654
SWIDTH 666 0
DWIDTH 8 0
BBX 8 8 0 -4
BITMAP
40
70
7C
7F
7C
70
40
00
ENDCHAR
STARTCHAR u005E
ENCODING 94
SWIDTH 666 0
DWIDTH 8 0
BBX 8 8 0 -4
BITMAP
08
14
22
41
00
00
00
00
ENDCHAR
STARTCHAR u0033
ENCODING 51
SWIDTH 666 0
DWIDTH 8 0
BBX 8 8 0 -4
BITMAP
3C
42
02
1C
02
42
3C
00
ENDCHAR
STARTCHAR u006F
ENCODING 111
SWIDTH 666 0
DWIDTH 8 0
BBX 8 8 0 -4
BITMAP
00
00
3C
42
42
42
3C
00
ENDCHAR
STARTCHAR u0026
ENCODING 38
SWIDTH 666 0
DWIDTH 8 0
BBX 8 8 0 -4
BITMAP
18
24
18
2B
44
44
3B
00
ENDCHAR
STARTCHAR u0640
ENCODING 1600
SWIDTH 666 0
DWIDTH 8 0
BBX 8 8 0 -4
BITMAP
00
00
00
00
00
FF
00
00
ENDCHAR
STARTCHAR u0022
ENCODING 34
SWIDTH 666 0
DWIDTH 8 0
BBX 8 8 0 -4
BITMAP
24
24
24
00
00
00
00
00
ENDCHAR
STARTCHAR u2319
ENCODING 8985
SWIDTH 666 0
DWIDTH 8 0
BBX 8 8 0 -4
BITMAP
00
00
40
40
40
7E
00
00
ENDCHAR
STARTCHAR u00A4
ENCODING 164
SWIDTH 666 0
DWIDTH 8 0
BBX 8 8 0 -4
BITMAP
00
00
BD
42
42
BD
00
00
ENDCHAR
STARTCHAR u0639
ENCODING 1593
SWIDTH 666 0
DWIDTH 8 0
BBX 8 8 0 -4
BITMAP
00
0E
10
0F
30
40
40
3E
ENDCHAR
ENDFONT
