COMMENT vga
STARTFONT 2.1
FONT vga
SIZE 8 75 75
FONTBOUNDINGBOX 8 8 0 -4
STARTPROPERTIES 4
FONT_DESCENT 4
FONT_ASCENT 4
AVERAGE_WIDTH 80
DEFAULT_CHAR 0
ENDPROPERTIES
CHARS 324
STARTCHAR u0020
ENCODING 32
SWIDTH 666 0
DWIDTH 8 0
BBX 8 8 0 -4
BITMAP
00
00
00
00
00
00
00
00
ENDCHAR
STARTCHAR u005A
ENCODING 90
SWIDTH 666 0
DWIDTH 8 0
BBX 8 8 0 -4
BITMAP
FE
C6
8C
18
32
66
FE
00
ENDCHAR
STARTCHAR u00CE
ENCODING 206
SWIDTH 666 0
DWIDTH 8 0
BBX 8 8 0 -4
BITMAP
78
84
78
30
30
30
78
00
ENDCHAR
STARTCHAR u0076
ENCODING 118
SWIDTH 666 0
DWIDTH 8 0
BBX 8 8 0 -4
BITMAP
00
00
CC
CC
CC
78
30
00
ENDCHAR
STARTCHAR u0047
ENCODING 71
SWIDTH 666 0
DWIDTH 8 0
BBX 8 8 0 -4
BITMAP
3C
66
C0
C0
CE
66
3E
00
ENDCHAR
STARTCHAR u0066
ENCODING 102
SWIDTH 666 0
DWIDTH 8 0
BBX 8 8 0 -4
BITMAP
38
6C
60
F0
60
60
F0
00
ENDCHAR
STARTCHAR u014B
ENCODING 331
SWIDTH 666 0
DWIDTH 8 0
BBX 8 8 0 -4
BITMAP
00
DC
FE
F6
C6
06
1C
00
ENDCHAR
STARTCHAR u0166
ENCODING 358
SWIDTH 666 0
DWIDTH 8 0
BBX 8 8 0 -4
BITMAP
FC
30
3C
78
F0
30
30
00
ENDCHAR
STARTCHAR u0037
ENCODING 55
SWIDTH 666 0
DWIDTH 8 0
BBX 8 8 0 -4
BITMAP
FC
CC
0C
18
30
30
30
00
ENDCHAR
STARTCHAR u0054
ENCODING 84
SWIDTH 666 0
DWIDTH 8 0
BBX 8 8 0 -4
BITMAP
FC
B4
30
30
30
30
78
00
ENDCHAR
STARTCHAR u00E9
ENCODING 233
SWIDTH 666 0
DWIDTH 8 0
BBX 8 8 0 -4
BITMAP
18
30
78
CC
FC
C0
78
00
ENDCHAR
STARTCHAR u0103
ENCODING 259
SWIDTH 666 0
DWIDTH 8 0
BBX 8 8 0 -4
BITMAP
CC
78
78
0C
7C
CC
76
00
ENDCHAR
STARTCHAR u00C2
ENCODING 194
SWIDTH 666 0
DWIDTH 8 0
BBX 8 8 0 -4
BITMAP
7C
82
7C
C6
FE
C6
C6
00
ENDCHAR
STARTCHAR u0039
ENCODING 57
SWIDTH 666 0
DWIDTH 8 0
BBX 8 8 0 -4
BITMAP
78
CC
CC
7C
0C
18
70
00
ENDCHAR
STARTCHAR u0170
ENCODING 368
SWIDTH 666 0
DWIDTH 8 0
BBX 8 8 0 -4
BITMAP
66
CC
C6
C6
C6
C6
7C
00
ENDCHAR
STARTCHAR u00DC
ENCODING 220
SWIDTH 666 0
DWIDTH 8 0
BBX 8 8 0 -4
BITMAP
C6
00
C6
C6
C6
C6
7C
00
ENDCHAR
STARTCHAR u013C
ENCODING 316
SWIDTH 666 0
DWIDTH 8 0
BBX 8 8 0 -4
BITMAP
70
30
30
30
30
78
30
E0
ENDCHAR
STARTCHAR u00A3
ENCODING 163
SWIDTH 666 0
DWIDTH 8 0
BBX 8 8 0 -4
BITMAP
38
6C
64
F0
60
E0
FC
00
ENDCHAR
STARTCHAR u2190
ENCODING 8592
SWIDTH 666 0
DWIDTH 8 0
BBX 8 8 0 -4
BITMAP
00
30
60
FE
60
30
00
00
ENDCHAR
STARTCHAR u0059
ENCODING 89
SWIDTH 666 0
DWIDTH 8 0
BBX 8 8 0 -4
BITMAP
CC
CC
CC
78
30
30
78
00
ENDCHAR
STARTCHAR u00AF
ENCODING 175
SWIDTH 666 0
DWIDTH 8 0
BBX 8 8 0 -4
BITMAP
7C
00
00
00
00
00
00
00
ENDCHAR
STARTCHAR u0023
ENCODING 35
SWIDTH 666 0
DWIDTH 8 0
BBX 8 8 0 -4
BITMAP
6C
6C
FE
6C
FE
6C
6C
00
ENDCHAR
STARTCHAR u00D0
ENCODING 208
SWIDTH 666 0
DWIDTH 8 0
BBX 8 8 0 -4
BITMAP
7C
66
66
F6
66
66
7C
00
ENDCHAR
STARTCHAR u015B
ENCODING 347
SWIDTH 666 0
DWIDTH 8 0
BBX 8 8 0 -4
BITMAP
0C
18
3E
60
3C
06
7C
00
ENDCHAR
STARTCHAR u2665
ENCODING 9829
SWIDTH 666 0
DWIDTH 8 0
BBX 8 8 0 -4
BITMAP
6C
FE
FE
FE
7C
38
10
00
ENDCHAR
STARTCHAR u02D8
ENCODING 728
SWIDTH 666 0
DWIDTH 8 0
BBX 8 8 0 -4
BITMAP
C6
7C
00
00
00
00
00
00
ENDCHAR
STARTCHAR u005D
ENCODING 93
SWIDTH 666 0
DWIDTH 8 0
BBX 8 8 0 -4
BITMAP
78
18
18
18
18
18
78
00
ENDCHAR
STARTCHAR u0124
ENCODING 292
SWIDTH 666 0
DWIDTH 8 0
BBX 8 8 0 -4
BITMAP
30
48
00
CC
FC
CC
CC
00
ENDCHAR
STARTCHAR u0145
ENCODING 325
SWIDTH 666 0
DWIDTH 8 0
BBX 8 8 0 -4
BITMAP
00
00
E6
F6
DE
CE
18
70
ENDCHAR
STARTCHAR u017A
ENCODING 378
SWIDTH 666 0
DWIDTH 8 0
BBX 8 8 0 -4
BITMAP
0C
18
00
7E
0C
30
7E
00
ENDCHAR
STARTCHAR u015E
ENCODING 350
SWIDTH 666 0
DWIDTH 8 0
BBX 8 8 0 -4
BITMAP
78
CC
60
30
18
CC
78
30
ENDCHAR
STARTCHAR u266A
ENCODING 9834
SWIDTH 666 0
DWIDTH 8 0
BBX 8 8 0 -4
BITMAP
3F
33
3F
30
30
70
F0
E0
ENDCHAR
STARTCHAR u0123
ENCODING 291
SWIDTH 666 0
DWIDTH 8 0
BBX 8 8 0 -4
BITMAP
38
60
30
7E
CC
7C
0C
F8
ENDCHAR
STARTCHAR u00C7
ENCODING 199
SWIDTH 666 0
DWIDTH 8 0
BBX 8 8 0 -4
BITMAP
3C
66
C0
C0
66
3C
0C
38
ENDCHAR
STARTCHAR u0072
ENCODING 114
SWIDTH 666 0
DWIDTH 8 0
BBX 8 8 0 -4
BITMAP
00
00
DC
76
66
60
F0
00
ENDCHAR
STARTCHAR u00E2
ENCODING 226
SWIDTH 666 0
DWIDTH 8 0
BBX 8 8 0 -4
BITMAP
78
84
78
0C
7C
CC
76
00
ENDCHAR
STARTCHAR u003A
ENCODING 58
SWIDTH 666 0
DWIDTH 8 0
BBX 8 8 0 -4
BITMAP
00
30
30
00
00
30
30
00
ENDCHAR
STARTCHAR u00D3
ENCODING 211
SWIDTH 666 0
DWIDTH 8 0
BBX 8 8 0 -4
BITMAP
0C
18
7C
C6
C6
C6
7C
00
ENDCHAR
STARTCHAR u2195
ENCODING 8597
SWIDTH 666 0
DWIDTH 8 0
BBX 8 8 0 -4
BITMAP
18
3C
7E
18
18
7E
3C
18
ENDCHAR
STARTCHAR u0151
ENCODING 337
SWIDTH 666 0
DWIDTH 8 0
BBX 8 8 0 -4
BITMAP
00
66
CC
78
CC
CC
78
00
ENDCHAR
STARTCHAR u017E
ENCODING 382
SWIDTH 666 0
DWIDTH 8 0
BBX 8 8 0 -4
BITMAP
66
3C
00
7E
0C
30
7E
00
ENDCHAR
STARTCHAR u0065
ENCODING 101
SWIDTH 666 0
DWIDTH 8 0
BBX 8 8 0 -4
BITMAP
00
00
78
CC
FC
C0
78
00
ENDCHAR
STARTCHAR u0049
ENCODING 73
SWIDTH 666 0
DWIDTH 8 0
BBX 8 8 0 -4
BITMAP
78
30
30
30
30
30
78
00
ENDCHAR
STARTCHAR u0154
ENCODING 340
SWIDTH 666 0
DWIDTH 8 0
BBX 8 8 0 -4
BITMAP
0C
18
FC
C6
FC
D8
CC
00
ENDCHAR
STARTCHAR u004C
ENCODING 76
SWIDTH 666 0
DWIDTH 8 0
BBX 8 8 0 -4
BITMAP
F0
60
60
60
62
66
FE
00
ENDCHAR
STARTCHAR u0137
ENCODING 311
SWIDTH 666 0
DWIDTH 8 0
BBX 8 8 0 -4
BITMAP
00
0C
18
78
CC
CC
78
00
ENDCHAR
STARTCHAR u003E
ENCODING 62
SWIDTH 666 0
DWIDTH 8 0
BBX 8 8 0 -4
BITMAP
60
30
18
0C
18
30
60
00
ENDCHAR
STARTCHAR u0043
ENCODING 67
SWIDTH 666 0
DWIDTH 8 0
BBX 8 8 0 -4
BITMAP
3C
66
C0
C0
C0
66
3C
00
ENDCHAR
STARTCHAR u00F1
ENCODING 241
SWIDTH 666 0
DWIDTH 8 0
BBX 8 8 0 -4
BITMAP
76
DC
00
DC
E6
C6
C6
00
ENDCHAR
STARTCHAR u00C6
ENCODING 198
SWIDTH 666 0
DWIDTH 8 0
BBX 8 8 0 -4
BITMAP
3E
6C
CC
FE
CC
CC
CC
CE
ENDCHAR
STARTCHAR u0147
ENCODING 327
SWIDTH 666 0
DWIDTH 8 0
BBX 8 8 0 -4
BITMAP
24
18
E6
F6
DE
CE
C6
00
ENDCHAR
STARTCHAR u0118
ENCODING 280
SWIDTH 666 0
DWIDTH 8 0
BBX 8 8 0 -4
BITMAP
FE
C0
C0
F8
C0
C0
FE
1C
ENDCHAR
STARTCHAR u0111
ENCODING 273
SWIDTH 666 0
DWIDTH 8 0
BBX 8 8 0 -4
BITMAP
0C
3E
0C
7C
CC
CC
76
00
ENDCHAR
STARTCHAR u00EC
ENCODING 236
SWIDTH 666 0
DWIDTH 8 0
BBX 8 8 0 -4
BITMAP
30
18
38
18
18
18
3C
00
ENDCHAR
STARTCHAR u0169
ENCODING 361
SWIDTH 666 0
DWIDTH 8 0
BBX 8 8 0 -4
BITMAP
76
DC
00
CC
CC
CC
76
00
ENDCHAR
STARTCHAR u00F9
ENCODING 249
SWIDTH 666 0
DWIDTH 8 0
BBX 8 8 0 -4
BITMAP
00
60
30
CC
CC
CC
7E
00
ENDCHAR
STARTCHAR u00CA
ENCODING 202
SWIDTH 666 0
DWIDTH 8 0
BBX 8 8 0 -4
BITMAP
7C
82
FC
60
78
60
FC
00
ENDCHAR
STARTCHAR u00DA
ENCODING 218
SWIDTH 666 0
DWIDTH 8 0
BBX 8 8 0 -4
BITMAP
0C
18
C6
C6
C6
C6
7C
00
ENDCHAR
STARTCHAR u00A8
ENCODING 168
SWIDTH 666 0
DWIDTH 8 0
BBX 8 8 0 -4
BITMAP
66
00
00
00
00
00
00
00
ENDCHAR
STARTCHAR u00B8
ENCODING 184
SWIDTH 666 0
DWIDTH 8 0
BBX 8 8 0 -4
BITMAP
00
00
00
00
00
00
04
1C
ENDCHAR
STARTCHAR u015C
ENCODING 348
SWIDTH 666 0
DWIDTH 8 0
BBX 8 8 0 -4
BITMAP
7C
38
6C
60
38
CC
78
00
ENDCHAR
STARTCHAR u0031
ENCODING 49
SWIDTH 666 0
DWIDTH 8 0
BBX 8 8 0 -4
BITMAP
30
70
30
30
30
30
FC
00
ENDCHAR
STARTCHAR u00B2
ENCODING 178
SWIDTH 666 0
DWIDTH 8 0
BBX 8 8 0 -4
BITMAP
30
48
10
20
78
00
00
00
ENDCHAR
STARTCHAR u011D
ENCODING 285
SWIDTH 666 0
DWIDTH 8 0
BBX 8 8 0 -4
BITMAP
38
6C
00
7E
CC
7C
0C
F8
ENDCHAR
STARTCHAR u007C
ENCODING 124
SWIDTH 666 0
DWIDTH 8 0
BBX 8 8 0 -4
BITMAP
18
18
18
18
18
18
18
00
ENDCHAR
STARTCHAR u0068
ENCODING 104
SWIDTH 666 0
DWIDTH 8 0
BBX 8 8 0 -4
BITMAP
E0
60
6C
76
66
66
E6
00
ENDCHAR
STARTCHAR u2192
ENCODING 8594
SWIDTH 666 0
DWIDTH 8 0
BBX 8 8 0 -4
BITMAP
00
18
0C
FE
0C
18
00
00
ENDCHAR
STARTCHAR u00B5
ENCODING 181
SWIDTH 666 0
DWIDTH 8 0
BBX 8 8 0 -4
BITMAP
00
00
6C
6C
6C
78
60
C0
ENDCHAR
STARTCHAR u00EA
ENCODING 234
SWIDTH 666 0
DWIDTH 8 0
BBX 8 8 0 -4
BITMAP
78
84
78
CC
FC
C0
78
00
ENDCHAR
STARTCHAR u013A
ENCODING 314
SWIDTH 666 0
DWIDTH 8 0
BBX 8 8 0 -4
BITMAP
CC
D8
C0
C0
C0
C0
78
00
ENDCHAR
STARTCHAR u263A
ENCODING 9786
SWIDTH 666 0
DWIDTH 8 0
BBX 8 8 0 -4
BITMAP
7E
81
A5
81
BD
99
81
7E
ENDCHAR
STARTCHAR u016C
ENCODING 364
SWIDTH 666 0
DWIDTH 8 0
BBX 8 8 0 -4
BITMAP
C6
7C
00
C6
C6
C6
7C
00
ENDCHAR
STARTCHAR u0060
ENCODING 96
SWIDTH 666 0
DWIDTH 8 0
BBX 8 8 0 -4
BITMAP
30
30
18
00
00
00
00
00
ENDCHAR
STARTCHAR u0163
ENCODING 355
SWIDTH 666 0
DWIDTH 8 0
BBX 8 8 0 -4
BITMAP
30
78
30
30
30
38
18
1E
ENDCHAR
STARTCHAR u2640
ENCODING 9792
SWIDTH 666 0
DWIDTH 8 0
BBX 8 8 0 -4
BITMAP
3C
66
66
66
3C
18
7E
18
ENDCHAR
STARTCHAR u0146
ENCODING 326
SWIDTH 666 0
DWIDTH 8 0
BBX 8 8 0 -4
BITMAP
00
00
DC
E6
C6
C6
18
70
ENDCHAR
STARTCHAR u00A0
ENCODING 160
SWIDTH 666 0
DWIDTH 8 0
BBX 8 8 0 -4
BITMAP
00
00
00
00
00
00
00
00
ENDCHAR
STARTCHAR u25D8
ENCODING 9688
SWIDTH 666 0
DWIDTH 8 0
BBX 8 8 0 -4
BITMAP
FF
FF
E7
C3
C3
E7
FF
FF
ENDCHAR
STARTCHAR u002F
ENCODING 47
SWIDTH 666 0
DWIDTH 8 0
BBX 8 8 0 -4
BITMAP
06
0C
18
30
60
C0
80
00
ENDCHAR
STARTCHAR u016F
ENCODING 367
SWIDTH 666 0
DWIDTH 8 0
BBX 8 8 0 -4
BITMAP
30
CC
30
CC
CC
CC
76
00
ENDCHAR
STARTCHAR u0062
ENCODING 98
SWIDTH 666 0
DWIDTH 8 0
BBX 8 8 0 -4
BITMAP
E0
60
60
7C
66
66
DC
00
ENDCHAR
STARTCHAR u0025
ENCODING 37
SWIDTH 666 0
DWIDTH 8 0
BBX 8 8 0 -4
BITMAP
00
C6
CC
18
30
66
C6
00
ENDCHAR
STARTCHAR u002B
ENCODING 43
SWIDTH 666 0
DWIDTH 8 0
BBX 8 8 0 -4
BITMAP
00
30
30
FC
30
30
00
00
ENDCHAR
STARTCHAR u010E
ENCODING 270
SWIDTH 666 0
DWIDTH 8 0
BBX 8 8 0 -4
BITMAP
CC
78
FC
66
66
66
FC
00
ENDCHAR
STARTCHAR u00C3
ENCODING 195
SWIDTH 666 0
DWIDTH 8 0
BBX 8 8 0 -4
BITMAP
C6
7C
7C
C6
FE
C6
C6
00
ENDCHAR
STARTCHAR u2660
ENCODING 9824
SWIDTH 666 0
DWIDTH 8 0
BBX 8 8 0 -4
BITMAP
10
10
38
7C
FE
7C
10
38
ENDCHAR
STARTCHAR u25BA
ENCODING 9658
SWIDTH 666 0
DWIDTH 8 0
BBX 8 8 0 -4
BITMAP
80
E0
F8
FE
F8
E0
80
00
ENDCHAR
STARTCHAR u263B
ENCODING 9787
SWIDTH 666 0
DWIDTH 8 0
BBX 8 8 0 -4
BITMAP
7E
FF
DB
FF
C3
E7
FF
7E
ENDCHAR
STARTCHAR u221F
ENCODING 8735
SWIDTH 666 0
DWIDTH 8 0
BBX 8 8 0 -4
BITMAP
00
00
C0
C0
C0
FE
00
00
ENDCHAR
STARTCHAR u25D9
ENCODING 9689
SWIDTH 666 0
DWIDTH 8 0
BBX 8 8 0 -4
BITMAP
FF
C3
99
BD
BD
99
C3
FF
ENDCHAR
STARTCHAR u0120
ENCODING 288
SWIDTH 666 0
DWIDTH 8 0
BBX 8 8 0 -4
BITMAP
18
00
3C
66
C0
CE
66
3E
ENDCHAR
STARTCHAR u00C1
ENCODING 193
SWIDTH 666 0
DWIDTH 8 0
BBX 8 8 0 -4
BITMAP
0C
18
7C
C6
FE
C6
C6
00
ENDCHAR
STARTCHAR u0077
ENCODING 119
SWIDTH 666 0
DWIDTH 8 0
BBX 8 8 0 -4
BITMAP
00
00
C6
D6
FE
FE
6C
00
ENDCHAR
STARTCHAR u0144
ENCODING 324
SWIDTH 666 0
DWIDTH 8 0
BBX 8 8 0 -4
BITMAP
0C
18
DC
E6
C6
C6
C6
00
ENDCHAR
STARTCHAR u00B4
ENCODING 180
SWIDTH 666 0
DWIDTH 8 0
BBX 8 8 0 -4
BITMAP
0C
18
00
00
00
00
00
00
ENDCHAR
STARTCHAR u00F4
ENCODING 244
SWIDTH 666 0
DWIDTH 8 0
BBX 8 8 0 -4
BITMAP
78
CC
00
78
CC
CC
78
00
ENDCHAR
STARTCHAR u015F
ENCODING 351
SWIDTH 666 0
DWIDTH 8 0
BBX 8 8 0 -4
BITMAP
00
00
7C
C0
78
0C
F8
38
ENDCHAR
STARTCHAR u00F0
ENCODING 240
SWIDTH 666 0
DWIDTH 8 0
BBX 8 8 0 -4
BITMAP
30
7E
18
7C
CC
CC
78
00
ENDCHAR
STARTCHAR u00F6
ENCODING 246
SWIDTH 666 0
DWIDTH 8 0
BBX 8 8 0 -4
BITMAP
CC
00
78
CC
CC
CC
78
00
ENDCHAR
STARTCHAR u004A
ENCODING 74
SWIDTH 666 0
DWIDTH 8 0
BBX 8 8 0 -4
BITMAP
1E
0C
0C
0C
CC
CC
78
00
ENDCHAR
STARTCHAR u003D
ENCODING 61
SWIDTH 666 0
DWIDTH 8 0
BBX 8 8 0 -4
BITMAP
00
00
FC
00
00
FC
00
00
ENDCHAR
STARTCHAR u00E6
ENCODING 230
SWIDTH 666 0
DWIDTH 8 0
BBX 8 8 0 -4
BITMAP
00
EC
36
36
7E
D8
D8
6E
ENDCHAR
STARTCHAR u012B
ENCODING 299
SWIDTH 666 0
DWIDTH 8 0
BBX 8 8 0 -4
BITMAP
00
78
00
70
30
30
78
00
ENDCHAR
STARTCHAR u0073
ENCODING 115
SWIDTH 666 0
DWIDTH 8 0
BBX 8 8 0 -4
BITMAP
00
00
7C
C0
78
0C
F8
00
ENDCHAR
STARTCHAR u0179
ENCODING 377
SWIDTH 666 0
DWIDTH 8 0
BBX 8 8 0 -4
BITMAP
0C
18
FE
0C
30
60
FE
00
ENDCHAR
STARTCHAR u0067
ENCODING 103
SWIDTH 666 0
DWIDTH 8 0
BBX 8 8 0 -4
BITMAP
00
00
76
CC
CC
7C
0C
F8
ENDCHAR
STARTCHAR u00C9
ENCODING 201
SWIDTH 666 0
DWIDTH 8 0
BBX 8 8 0 -4
BITMAP
0C
18
FC
60
78
60
FC
00
ENDCHAR
STARTCHAR u017B
ENCODING 379
SWIDTH 666 0
DWIDTH 8 0
BBX 8 8 0 -4
BITMAP
18
FE
C6
0C
30
C6
FE
00
ENDCHAR
STARTCHAR u0071
ENCODING 113
SWIDTH 666 0
DWIDTH 8 0
BBX 8 8 0 -4
BITMAP
00
00
76
CC
CC
7C
0C
1E
ENDCHAR
STARTCHAR u00BD
ENCODING 189
SWIDTH 666 0
DWIDTH 8 0
BBX 8 8 0 -4
BITMAP
42
C4
48
50
2C
42
8C
1E
ENDCHAR
STARTCHAR u0156
ENCODING 342
SWIDTH 666 0
DWIDTH 8 0
BBX 8 8 0 -4
BITMAP
FC
66
7E
6C
66
E6
18
70
ENDCHAR
STARTCHAR u010A
ENCODING 266
SWIDTH 666 0
DWIDTH 8 0
BBX 8 8 0 -4
BITMAP
18
00
7C
C6
C0
C6
7C
00
ENDCHAR
STARTCHAR u0127
ENCODING 295
SWIDTH 666 0
DWIDTH 8 0
BBX 8 8 0 -4
BITMAP
E0
60
F0
6C
76
66
E6
00
ENDCHAR
STARTCHAR u005B
ENCODING 91
SWIDTH 666 0
DWIDTH 8 0
BBX 8 8 0 -4
BITMAP
78
60
60
60
60
60
78
00
ENDCHAR
STARTCHAR u0155
ENCODING 341
SWIDTH 666 0
DWIDTH 8 0
BBX 8 8 0 -4
BITMAP
18
30
CE
F0
E0
C0
C0
00
ENDCHAR
STARTCHAR u006B
ENCODING 107
SWIDTH 666 0
DWIDTH 8 0
BBX 8 8 0 -4
BITMAP
E0
60
66
6C
78
6C
E6
00
ENDCHAR
STARTCHAR u0057
ENCODING 87
SWIDTH 666 0
DWIDTH 8 0
BBX 8 8 0 -4
BITMAP
C6
C6
C6
D6
FE
EE
C6
00
ENDCHAR
STARTCHAR u004D
ENCODING 77
SWIDTH 666 0
DWIDTH 8 0
BBX 8 8 0 -4
BITMAP
C6
EE
FE
FE
D6
C6
C6
00
ENDCHAR
STARTCHAR u00D6
ENCODING 214
SWIDTH 666 0
DWIDTH 8 0
BBX 8 8 0 -4
BITMAP
C6
7C
C6
C6
C6
C6
7C
00
ENDCHAR
STARTCHAR u00DD
ENCODING 221
SWIDTH 666 0
DWIDTH 8 0
BBX 8 8 0 -4
BITMAP
0C
DE
C6
66
3C
18
30
00
ENDCHAR
STARTCHAR u0027
ENCODING 39
SWIDTH 666 0
DWIDTH 8 0
BBX 8 8 0 -4
BITMAP
60
60
C0
00
00
00
00
00
ENDCHAR
STARTCHAR u0040
ENCODING 64
SWIDTH 666 0
DWIDTH 8 0
BBX 8 8 0 -4
BITMAP
7C
C6
DE
DE
DE
C0
78
00
ENDCHAR
STARTCHAR u0061
ENCODING 97
SWIDTH 666 0
DWIDTH 8 0
BBX 8 8 0 -4
BITMAP
00
00
78
0C
7C
CC
76
00
ENDCHAR
STARTCHAR u02DB
ENCODING 731
SWIDTH 666 0
DWIDTH 8 0
BBX 8 8 0 -4
BITMAP
00
00
00
00
00
00
10
1C
ENDCHAR
STARTCHAR u0029
ENCODING 41
SWIDTH 666 0
DWIDTH 8 0
BBX 8 8 0 -4
BITMAP
60
30
18
18
18
30
60
00
ENDCHAR
STARTCHAR u0034
ENCODING 52
SWIDTH 666 0
DWIDTH 8 0
BBX 8 8 0 -4
BITMAP
1C
3C
6C
CC
FE
0C
1E
00
ENDCHAR
STARTCHAR u012E
ENCODING 302
SWIDTH 666 0
DWIDTH 8 0
BBX 8 8 0 -4
BITMAP
78
30
30
30
30
78
30
1C
ENDCHAR
STARTCHAR u0138
ENCODING 312
SWIDTH 666 0
DWIDTH 8 0
BBX 8 8 0 -4
BITMAP
00
00
E6
6C
78
6C
E6
00
ENDCHAR
STARTCHAR u00E5
ENCODING 229
SWIDTH 666 0
DWIDTH 8 0
BBX 8 8 0 -4
BITMAP
38
6C
78
0C
7C
CC
76
00
ENDCHAR
STARTCHAR u002D
ENCODING 45
SWIDTH 666 0
DWIDTH 8 0
BBX 8 8 0 -4
BITMAP
00
00
00
FC
00
00
00
00
ENDCHAR
STARTCHAR u0104
ENCODING 260
SWIDTH 666 0
DWIDTH 8 0
BBX 8 8 0 -4
BITMAP
38
6C
C6
FE
C6
D6
18
0E
ENDCHAR
STARTCHAR u00ED
ENCODING 237
SWIDTH 666 0
DWIDTH 8 0
BBX 8 8 0 -4
BITMAP
0C
18
38
18
18
18
3C
00
ENDCHAR
STARTCHAR u0172
ENCODING 370
SWIDTH 666 0
DWIDTH 8 0
BBX 8 8 0 -4
BITMAP
CC
CC
CC
CC
CC
78
30
1C
ENDCHAR
STARTCHAR u2191
ENCODING 8593
SWIDTH 666 0
DWIDTH 8 0
BBX 8 8 0 -4
BITMAP
18
3C
7E
18
18
18
18
00
ENDCHAR
STARTCHAR u0135
ENCODING 309
SWIDTH 666 0
DWIDTH 8 0
BBX 8 8 0 -4
BITMAP
1C
36
00
0C
0C
CC
CC
78
ENDCHAR
STARTCHAR u0044
ENCODING 68
SWIDTH 666 0
DWIDTH 8 0
BBX 8 8 0 -4
BITMAP
F8
6C
66
66
66
6C
F8
00
ENDCHAR
STARTCHAR u013B
ENCODING 315
SWIDTH 666 0
DWIDTH 8 0
BBX 8 8 0 -4
BITMAP
F0
60
60
62
66
FE
18
70
ENDCHAR
STARTCHAR u266B
ENCODING 9835
SWIDTH 666 0
DWIDTH 8 0
BBX 8 8 0 -4
BITMAP
7F
63
7F
63
63
67
E6
C0
ENDCHAR
STARTCHAR u0074
ENCODING 116
SWIDTH 666 0
DWIDTH 8 0
BBX 8 8 0 -4
BITMAP
10
30
7C
30
30
34
18
00
ENDCHAR
STARTCHAR u21A8
ENCODING 8616
SWIDTH 666 0
DWIDTH 8 0
BBX 8 8 0 -4
BITMAP
18
3C
7E
18
7E
3C
18
FF
ENDCHAR
STARTCHAR u017C
ENCODING 380
SWIDTH 666 0
DWIDTH 8 0
BBX 8 8 0 -4
BITMAP
00
18
00
7C
18
30
7C
00
ENDCHAR
STARTCHAR u0064
ENCODING 100
SWIDTH 666 0
DWIDTH 8 0
BBX 8 8 0 -4
BITMAP
1C
0C
0C
7C
CC
CC
76
00
ENDCHAR
STARTCHAR u00DE
ENCODING 222
SWIDTH 666 0
DWIDTH 8 0
BBX 8 8 0 -4
BITMAP
00
F0
60
7C
66
7C
60
F0
ENDCHAR
STARTCHAR u011E
ENCODING 286
SWIDTH 666 0
DWIDTH 8 0
BBX 8 8 0 -4
BITMAP
66
3C
3C
66
C0
CE
66
3E
ENDCHAR
STARTCHAR u0078
ENCODING 120
SWIDTH 666 0
DWIDTH 8 0
BBX 8 8 0 -4
BITMAP
00
00
C6
6C
38
6C
C6
00
ENDCHAR
STARTCHAR u0053
ENCODING 83
SWIDTH 666 0
DWIDTH 8 0
BBX 8 8 0 -4
BITMAP
78
CC
60
30
18
CC
78
00
ENDCHAR
STARTCHAR u2194
ENCODING 8596
SWIDTH 666 0
DWIDTH 8 0
BBX 8 8 0 -4
BITMAP
00
24
66
FF
66
24
00
00
ENDCHAR
STARTCHAR u0131
ENCODING 305
SWIDTH 666 0
DWIDTH 8 0
BBX 8 8 0 -4
BITMAP
00
00
70
30
30
30
78
00
ENDCHAR
STARTCHAR u017D
ENCODING 381
SWIDTH 666 0
DWIDTH 8 0
BBX 8 8 0 -4
BITMAP
66
3C
FE
0C
18
60
FE
00
ENDCHAR
STARTCHAR u0134
ENCODING 308
SWIDTH 666 0
DWIDTH 8 0
BBX 8 8 0 -4
BITMAP
1E
21
1E
0C
0C
CC
78
00
ENDCHAR
STARTCHAR u00FE
ENCODING 254
SWIDTH 666 0
DWIDTH 8 0
BBX 8 8 0 -4
BITMAP
00
E0
7C
66
66
7C
60
F0
ENDCHAR
STARTCHAR u00D9
ENCODING 217
SWIDTH 666 0
DWIDTH 8 0
BBX 8 8 0 -4
BITMAP
30
18
C6
C6
C6
C6
7C
00
ENDCHAR
STARTCHAR u0148
ENCODING 328
SWIDTH 666 0
DWIDTH 8 0
BBX 8 8 0 -4
BITMAP
66
3C
DC
E6
C6
C6
C6
00
ENDCHAR
STARTCHAR u00EF
ENCODING 239
SWIDTH 666 0
DWIDTH 8 0
BBX 8 8 0 -4
BITMAP
48
00
70
30
30
30
78
00
ENDCHAR
STARTCHAR u007A
ENCODING 122
SWIDTH 666 0
DWIDTH 8 0
BBX 8 8 0 -4
BITMAP
00
00
FC
98
30
64
FC
00
ENDCHAR
STARTCHAR u203C
ENCODING 8252
SWIDTH 666 0
DWIDTH 8 0
BBX 8 8 0 -4
BITMAP
66
66
66
66
66
00
66
00
ENDCHAR
STARTCHAR u0119
ENCODING 281
SWIDTH 666 0
DWIDTH 8 0
BBX 8 8 0 -4
BITMAP
00
00
78
CC
FC
C0
78
1C
ENDCHAR
STARTCHAR u010D
ENCODING 269
SWIDTH 666 0
DWIDTH 8 0
BBX 8 8 0 -4
BITMAP
66
3C
3C
66
60
66
3C
00
ENDCHAR
STARTCHAR u00CD
ENCODING 205
SWIDTH 666 0
DWIDTH 8 0
BBX 8 8 0 -4
BITMAP
18
30
78
30
30
30
78
00
ENDCHAR
STARTCHAR u002A
ENCODING 42
SWIDTH 666 0
DWIDTH 8 0
BBX 8 8 0 -4
BITMAP
00
66
3C
FF
3C
66
00
00
ENDCHAR
STARTCHAR u016B
ENCODING 363
SWIDTH 666 0
DWIDTH 8 0
BBX 8 8 0 -4
BITMAP
78
00
CC
CC
CC
CC
76
00
ENDCHAR
STARTCHAR u002E
ENCODING 46
SWIDTH 666 0
DWIDTH 8 0
BBX 8 8 0 -4
BITMAP
00
00
00
00
00
30
30
00
ENDCHAR
STARTCHAR u00EB
ENCODING 235
SWIDTH 666 0
DWIDTH 8 0
BBX 8 8 0 -4
BITMAP
CC
00
78
CC
FC
C0
78
00
ENDCHAR
STARTCHAR u02DD
ENCODING 733
SWIDTH 666 0
DWIDTH 8 0
BBX 8 8 0 -4
BITMAP
66
CC
00
00
00
00
00
00
ENDCHAR
STARTCHAR u0024
ENCODING 36
SWIDTH 666 0
DWIDTH 8 0
BBX 8 8 0 -4
BITMAP
30
7C
C0
78
0C
F8
30
00
ENDCHAR
STARTCHAR u00D5
ENCODING 213
SWIDTH 666 0
DWIDTH 8 0
BBX 8 8 0 -4
BITMAP
66
CC
7C
C6
C6
C6
7C
00
ENDCHAR
STARTCHAR u00B7
ENCODING 183
SWIDTH 666 0
DWIDTH 8 0
BBX 8 8 0 -4
BITMAP
00
00
00
18
18
00
00
00
ENDCHAR
STARTCHAR u25B6
ENCODING 9654
SWIDTH 666 0
DWIDTH 8 0
BBX 8 8 0 -4
BITMAP
80
E0
F8
FE
F8
E0
80
00
ENDCHAR
STARTCHAR u005E
ENCODING 94
SWIDTH 666 0
DWIDTH 8 0
BBX 8 8 0 -4
BITMAP
10
38
6C
C6
00
00
00
00
ENDCHAR
STARTCHAR u0033
ENCODING 51
SWIDTH 666 0
DWIDTH 8 0
BBX 8 8 0 -4
BITMAP
78
CC
0C
38
0C
CC
78
00
ENDCHAR
STARTCHAR u016A
ENCODING 362
SWIDTH 666 0
DWIDTH 8 0
BBX 8 8 0 -4
BITMAP
78
00
CC
CC
CC
CC
FC
00
ENDCHAR
STARTCHAR u0128
ENCODING 296
SWIDTH 666 0
DWIDTH 8 0
BBX 8 8 0 -4
BITMAP
76
DC
78
30
30
30
78
00
ENDCHAR
STARTCHAR u0109
ENCODING 265
SWIDTH 666 0
DWIDTH 8 0
BBX 8 8 0 -4
BITMAP
78
84
78
CC
C0
CC
78
00
ENDCHAR
STARTCHAR u013D
ENCODING 317
SWIDTH 666 0
DWIDTH 8 0
BBX 8 8 0 -4
BITMAP
F6
DC
C0
C0
C0
C0
FE
00
ENDCHAR
STARTCHAR u02C7
ENCODING 711
SWIDTH 666 0
DWIDTH 8 0
BBX 8 8 0 -4
BITMAP
D8
70
00
00
00
00
00
00
ENDCHAR
STARTCHAR u00C8
ENCODING 200
SWIDTH 666 0
DWIDTH 8 0
BBX 8 8 0 -4
BITMAP
30
18
FC
60
78
60
FC
00
ENDCHAR
STARTCHAR u25CB
ENCODING 9675
SWIDTH 666 0
DWIDTH 8 0
BBX 8 8 0 -4
BITMAP
00
3C
66
42
42
66
3C
00
ENDCHAR
STARTCHAR u016E
ENCODING 366
SWIDTH 666 0
DWIDTH 8 0
BBX 8 8 0 -4
BITMAP
10
28
D6
C6
C6
C6
7C
00
ENDCHAR
STARTCHAR u007D
ENCODING 125
SWIDTH 666 0
DWIDTH 8 0
BBX 8 8 0 -4
BITMAP
E0
30
30
1C
30
30
E0
00
ENDCHAR
STARTCHAR u002C
ENCODING 44
SWIDTH 666 0
DWIDTH 8 0
BBX 8 8 0 -4
BITMAP
00
00
00
00
00
30
30
60
ENDCHAR
STARTCHAR u0110
ENCODING 272
SWIDTH 666 0
DWIDTH 8 0
BBX 8 8 0 -4
BITMAP
7C
66
66
F6
66
66
7C
00
ENDCHAR
STARTCHAR u012A
ENCODING 298
SWIDTH 666 0
DWIDTH 8 0
BBX 8 8 0 -4
BITMAP
78
00
78
30
30
30
78
00
ENDCHAR
STARTCHAR u005F
ENCODING 95
SWIDTH 666 0
DWIDTH 8 0
BBX 8 8 0 -4
BITMAP
00
00
00
00
00
00
00
FF
ENDCHAR
STARTCHAR u266C
ENCODING 9836
SWIDTH 666 0
DWIDTH 8 0
BBX 8 8 0 -4
BITMAP
7F
63
7F
63
63
67
E6
C0
ENDCHAR
STARTCHAR u0139
ENCODING 313
SWIDTH 666 0
DWIDTH 8 0
BBX 8 8 0 -4
BITMAP
CC
D8
C0
C0
C0
C0
FE
00
ENDCHAR
STARTCHAR u006D
ENCODING 109
SWIDTH 666 0
DWIDTH 8 0
BBX 8 8 0 -4
BITMAP
00
00
CC
FE
FE
D6
C6
00
ENDCHAR
STARTCHAR u00E7
ENCODING 231
SWIDTH 666 0
DWIDTH 8 0
BBX 8 8 0 -4
BITMAP
00
00
78
CC
C0
CC
78
18
ENDCHAR
STARTCHAR u00F3
ENCODING 243
SWIDTH 666 0
DWIDTH 8 0
BBX 8 8 0 -4
BITMAP
00
0C
18
78
CC
CC
78
00
ENDCHAR
STARTCHAR u2666
ENCODING 9830
SWIDTH 666 0
DWIDTH 8 0
BBX 8 8 0 -4
BITMAP
10
38
7C
FE
7C
38
10
00
ENDCHAR
STARTCHAR u263C
ENCODING 9788
SWIDTH 666 0
DWIDTH 8 0
BBX 8 8 0 -4
BITMAP
18
DB
3C
E7
E7
3C
DB
18
ENDCHAR
STARTCHAR u0157
ENCODING 343
SWIDTH 666 0
DWIDTH 8 0
BBX 8 8 0 -4
BITMAP
00
00
DC
76
66
F0
30
E0
ENDCHAR
STARTCHAR u011F
ENCODING 287
SWIDTH 666 0
DWIDTH 8 0
BBX 8 8 0 -4
BITMAP
66
3C
00
7E
CC
7C
0C
F8
ENDCHAR
STARTCHAR u004E
ENCODING 78
SWIDTH 666 0
DWIDTH 8 0
BBX 8 8 0 -4
BITMAP
C6
E6
F6
DE
CE
C6
C6
00
ENDCHAR
STARTCHAR u0126
ENCODING 294
SWIDTH 666 0
DWIDTH 8 0
BBX 8 8 0 -4
BITMAP
6C
FE
6C
7C
6C
6C
6C
00
ENDCHAR
STARTCHAR u015D
ENCODING 349
SWIDTH 666 0
DWIDTH 8 0
BBX 8 8 0 -4
BITMAP
78
84
7C
C0
78
0C
F8
00
ENDCHAR
STARTCHAR u006A
ENCODING 106
SWIDTH 666 0
DWIDTH 8 0
BBX 8 8 0 -4
BITMAP
0C
00
0C
0C
0C
CC
CC
78
ENDCHAR
STARTCHAR u0113
ENCODING 275
SWIDTH 666 0
DWIDTH 8 0
BBX 8 8 0 -4
BITMAP
78
00
78
CC
FC
C0
78
00
ENDCHAR
STARTCHAR u0041
ENCODING 65
SWIDTH 666 0
DWIDTH 8 0
BBX 8 8 0 -4
BITMAP
30
78
CC
CC
FC
CC
CC
00
ENDCHAR
STARTCHAR u00C5
ENCODING 197
SWIDTH 666 0
DWIDTH 8 0
BBX 8 8 0 -4
BITMAP
38
6C
7C
C6
FE
C6
C6
00
ENDCHAR
STARTCHAR u00CB
ENCODING 203
SWIDTH 666 0
DWIDTH 8 0
BBX 8 8 0 -4
BITMAP
CC
00
FC
60
78
60
FC
00
ENDCHAR
STARTCHAR u0105
ENCODING 261
SWIDTH 666 0
DWIDTH 8 0
BBX 8 8 0 -4
BITMAP
00
00
78
0C
7C
CC
76
0F
ENDCHAR
STARTCHAR u2193
ENCODING 8595
SWIDTH 666 0
DWIDTH 8 0
BBX 8 8 0 -4
BITMAP
18
18
18
18
7E
3C
18
00
ENDCHAR
STARTCHAR u0051
ENCODING 81
SWIDTH 666 0
DWIDTH 8 0
BBX 8 8 0 -4
BITMAP
78
CC
CC
CC
DC
78
1C
00
ENDCHAR
STARTCHAR u003C
ENCODING 60
SWIDTH 666 0
DWIDTH 8 0
BBX 8 8 0 -4
BITMAP
18
30
60
C0
60
30
18
00
ENDCHAR
STARTCHAR u0141
ENCODING 321
SWIDTH 666 0
DWIDTH 8 0
BBX 8 8 0 -4
BITMAP
60
6C
78
70
60
E0
7E
00
ENDCHAR
STARTCHAR u0056
ENCODING 86
SWIDTH 666 0
DWIDTH 8 0
BBX 8 8 0 -4
BITMAP
CC
CC
CC
CC
CC
78
30
00
ENDCHAR
STARTCHAR u011C
ENCODING 284
SWIDTH 666 0
DWIDTH 8 0
BBX 8 8 0 -4
BITMAP
3C
42
3C
66
C0
CE
66
3E
ENDCHAR
STARTCHAR u00F7
ENCODING 247
SWIDTH 666 0
DWIDTH 8 0
BBX 8 8 0 -4
BITMAP
18
18
00
7E
00
18
18
00
ENDCHAR
STARTCHAR u0173
ENCODING 371
SWIDTH 666 0
DWIDTH 8 0
BBX 8 8 0 -4
BITMAP
00
00
CC
CC
CC
7E
30
1C
ENDCHAR
STARTCHAR u00CC
ENCODING 204
SWIDTH 666 0
DWIDTH 8 0
BBX 8 8 0 -4
BITMAP
60
30
78
30
30
30
78
00
ENDCHAR
STARTCHAR u2015
ENCODING 8213
SWIDTH 666 0
DWIDTH 8 0
BBX 8 8 0 -4
BITMAP
00
CC
66
33
66
CC
00
00
ENDCHAR
STARTCHAR u0121
ENCODING 289
SWIDTH 666 0
DWIDTH 8 0
BBX 8 8 0 -4
BITMAP
00
18
00
7E
CC
7C
0C
F8
ENDCHAR
STARTCHAR u015A
ENCODING 346
SWIDTH 666 0
DWIDTH 8 0
BBX 8 8 0 -4
BITMAP
0C
18
7E
C0
7C
06
FC
00
ENDCHAR
STARTCHAR u02D9
ENCODING 729
SWIDTH 666 0
DWIDTH 8 0
BBX 8 8 0 -4
BITMAP
18
00
00
00
00
00
00
00
ENDCHAR
STARTCHAR u0052
ENCODING 82
SWIDTH 666 0
DWIDTH 8 0
BBX 8 8 0 -4
BITMAP
FC
66
66
7C
6C
66
E6
00
ENDCHAR
STARTCHAR u006E
ENCODING 110
SWIDTH 666 0
DWIDTH 8 0
BBX 8 8 0 -4
BITMAP
00
00
F8
CC
CC
CC
CC
00
ENDCHAR
STARTCHAR u014D
ENCODING 333
SWIDTH 666 0
DWIDTH 8 0
BBX 8 8 0 -4
BITMAP
00
78
00
78
CC
CC
78
00
ENDCHAR
STARTCHAR u25C4
ENCODING 9668
SWIDTH 666 0
DWIDTH 8 0
BBX 8 8 0 -4
BITMAP
02
0E
3E
FE
3E
0E
02
00
ENDCHAR
STARTCHAR u2663
ENCODING 9827
SWIDTH 666 0
DWIDTH 8 0
BBX 8 8 0 -4
BITMAP
38
7C
38
FE
FE
D6
10
38
ENDCHAR
STARTCHAR u00E4
ENCODING 228
SWIDTH 666 0
DWIDTH 8 0
BBX 8 8 0 -4
BITMAP
CC
00
78
0C
7C
CC
7E
00
ENDCHAR
STARTCHAR u0143
ENCODING 323
SWIDTH 666 0
DWIDTH 8 0
BBX 8 8 0 -4
BITMAP
F0
60
60
62
66
FE
18
70
ENDCHAR
STARTCHAR u010C
ENCODING 268
SWIDTH 666 0
DWIDTH 8 0
BBX 8 8 0 -4
BITMAP
66
3C
7C
C6
C0
C6
7C
00
ENDCHAR
STARTCHAR u0045
ENCODING 69
SWIDTH 666 0
DWIDTH 8 0
BBX 8 8 0 -4
BITMAP
FE
62
68
78
68
62
FE
00
ENDCHAR
STARTCHAR u0070
ENCODING 112
SWIDTH 666 0
DWIDTH 8 0
BBX 8 8 0 -4
BITMAP
00
00
DC
66
66
7C
60
F0
ENDCHAR
STARTCHAR u0159
ENCODING 345
SWIDTH 666 0
DWIDTH 8 0
BBX 8 8 0 -4
BITMAP
D8
70
CE
D8
E0
C0
C0
00
ENDCHAR
STARTCHAR u2642
ENCODING 9794
SWIDTH 666 0
DWIDTH 8 0
BBX 8 8 0 -4
BITMAP
0F
07
0F
7D
CC
CC
CC
78
ENDCHAR
STARTCHAR u00E0
ENCODING 224
SWIDTH 666 0
DWIDTH 8 0
BBX 8 8 0 -4
BITMAP
30
18
78
0C
7C
CC
76
00
ENDCHAR
STARTCHAR u00DF
ENCODING 223
SWIDTH 666 0
DWIDTH 8 0
BBX 8 8 0 -4
BITMAP
00
78
CC
F8
CC
F8
C0
C0
ENDCHAR
STARTCHAR u011A
ENCODING 282
SWIDTH 666 0
DWIDTH 8 0
BBX 8 8 0 -4
BITMAP
CC
78
FE
C0
F8
C0
FE
00
ENDCHAR
STARTCHAR u0106
ENCODING 262
SWIDTH 666 0
DWIDTH 8 0
BBX 8 8 0 -4
BITMAP
0C
18
7C
C6
C0
C6
7C
00
ENDCHAR
STARTCHAR u004F
ENCODING 79
SWIDTH 666 0
DWIDTH 8 0
BBX 8 8 0 -4
BITMAP
38
6C
C6
C6
C6
6C
38
00
ENDCHAR
STARTCHAR u0079
ENCODING 121
SWIDTH 666 0
DWIDTH 8 0
BBX 8 8 0 -4
BITMAP
00
00
CC
CC
CC
7C
0C
F8
ENDCHAR
STARTCHAR u00D4
ENCODING 212
SWIDTH 666 0
DWIDTH 8 0
BBX 8 8 0 -4
BITMAP
7C
82
7C
C6
C6
C6
7C
00
ENDCHAR
STARTCHAR u0160
ENCODING 352
SWIDTH 666 0
DWIDTH 8 0
BBX 8 8 0 -4
BITMAP
6C
38
7E
E0
38
0E
FC
00
ENDCHAR
STARTCHAR u0158
ENCODING 344
SWIDTH 666 0
DWIDTH 8 0
BBX 8 8 0 -4
BITMAP
D8
70
FC
C6
FC
D8
CC
00
ENDCHAR
STARTCHAR u25B2
ENCODING 9650
SWIDTH 666 0
DWIDTH 8 0
BBX 8 8 0 -4
BITMAP
00
18
3C
7E
FF
FF
00
00
ENDCHAR
STARTCHAR u007E
ENCODING 126
SWIDTH 666 0
DWIDTH 8 0
BBX 8 8 0 -4
BITMAP
76
DC
00
00
00
00
00
00
ENDCHAR
STARTCHAR u00EE
ENCODING 238
SWIDTH 666 0
DWIDTH 8 0
BBX 8 8 0 -4
BITMAP
70
88
70
30
30
30
78
00
ENDCHAR
STARTCHAR u00FB
ENCODING 251
SWIDTH 666 0
DWIDTH 8 0
BBX 8 8 0 -4
BITMAP
38
6C
00
CC
CC
CC
76
00
ENDCHAR
STARTCHAR u0171
ENCODING 369
SWIDTH 666 0
DWIDTH 8 0
BBX 8 8 0 -4
BITMAP
66
CC
00
CC
CC
CC
76
00
ENDCHAR
STARTCHAR u00FD
ENCODING 253
SWIDTH 666 0
DWIDTH 8 0
BBX 8 8 0 -4
BITMAP
0C
18
C6
C6
66
3E
0C
78
ENDCHAR
STARTCHAR u0117
ENCODING 279
SWIDTH 666 0
DWIDTH 8 0
BBX 8 8 0 -4
BITMAP
30
00
78
CC
FC
C0
78
00
ENDCHAR
STARTCHAR u00B0
ENCODING 176
SWIDTH 666 0
DWIDTH 8 0
BBX 8 8 0 -4
BITMAP
38
6C
6C
38
00
00
00
00
ENDCHAR
STARTCHAR u00D1
ENCODING 209
SWIDTH 666 0
DWIDTH 8 0
BBX 8 8 0 -4
BITMAP
76
DC
E6
F6
DE
CE
C6
00
ENDCHAR
STARTCHAR u00D8
ENCODING 216
SWIDTH 666 0
DWIDTH 8 0
BBX 8 8 0 -4
BITMAP
3A
6C
CE
D6
E6
6C
B8
00
ENDCHAR
STARTCHAR u0100
ENCODING 256
SWIDTH 666 0
DWIDTH 8 0
BBX 8 8 0 -4
BITMAP
7C
00
7C
C6
FE
C6
C6
00
ENDCHAR
STARTCHAR u25AC
ENCODING 9644
SWIDTH 666 0
DWIDTH 8 0
BBX 8 8 0 -4
BITMAP
00
00
00
00
7E
7E
7E
00
ENDCHAR
STARTCHAR u0165
ENCODING 357
SWIDTH 666 0
DWIDTH 8 0
BBX 8 8 0 -4
BITMAP
CC
78
30
FC
30
30
1E
00
ENDCHAR
STARTCHAR u0075
ENCODING 117
SWIDTH 666 0
DWIDTH 8 0
BBX 8 8 0 -4
BITMAP
00
00
CC
CC
CC
CC
76
00
ENDCHAR
STARTCHAR u0021
ENCODING 33
SWIDTH 666 0
DWIDTH 8 0
BBX 8 8 0 -4
BITMAP
30
78
78
30
30
00
30
00
ENDCHAR
STARTCHAR u003F
ENCODING 63
SWIDTH 666 0
DWIDTH 8 0
BBX 8 8 0 -4
BITMAP
78
CC
0C
18
30
00
30
00
ENDCHAR
STARTCHAR u00E3
ENCODING 227
SWIDTH 666 0
DWIDTH 8 0
BBX 8 8 0 -4
BITMAP
CC
78
78
0C
7C
CC
76
00
ENDCHAR
STARTCHAR u0050
ENCODING 80
SWIDTH 666 0
DWIDTH 8 0
BBX 8 8 0 -4
BITMAP
FC
66
66
7C
60
60
F0
00
ENDCHAR
STARTCHAR u0150
ENCODING 336
SWIDTH 666 0
DWIDTH 8 0
BBX 8 8 0 -4
BITMAP
66
CC
7C
C6
C6
C6
7C
00
ENDCHAR
STARTCHAR u0063
ENCODING 99
SWIDTH 666 0
DWIDTH 8 0
BBX 8 8 0 -4
BITMAP
00
00
78
CC
C0
CC
78
00
ENDCHAR
STARTCHAR u0048
ENCODING 72
SWIDTH 666 0
DWIDTH 8 0
BBX 8 8 0 -4
BITMAP
CC
CC
CC
FC
CC
CC
CC
00
ENDCHAR
STARTCHAR u00B3
ENCODING 179
SWIDTH 666 0
DWIDTH 8 0
BBX 8 8 0 -4
BITMAP
70
08
30
08
70
00
00
00
ENDCHAR
STARTCHAR u25C0
ENCODING 9664
SWIDTH 666 0
DWIDTH 8 0
BBX 8 8 0 -4
BITMAP
02
0E
3E
FE
3E
0E
02
00
ENDCHAR
STARTCHAR u2022
ENCODING 8226
SWIDTH 666 0
DWIDTH 8 0
BBX 8 8 0 -4
BITMAP
00
00
18
3C
3C
18
00
00
ENDCHAR
STARTCHAR u0108
ENCODING 264
SWIDTH 666 0
DWIDTH 8 0
BBX 8 8 0 -4
BITMAP
7C
82
7C
C6
C0
C6
7C
00
ENDCHAR
STARTCHAR u0129
ENCODING 297
SWIDTH 666 0
DWIDTH 8 0
BBX 8 8 0 -4
BITMAP
76
DC
00
70
30
30
78
00
ENDCHAR
STARTCHAR u0167
ENCODING 359
SWIDTH 666 0
DWIDTH 8 0
BBX 8 8 0 -4
BITMAP
10
30
7C
30
38
70
3C
00
ENDCHAR
STARTCHAR u00B6
ENCODING 182
SWIDTH 666 0
DWIDTH 8 0
BBX 8 8 0 -4
BITMAP
00
00
00
00
00
00
00
00
ENDCHAR
STARTCHAR u006C
ENCODING 108
SWIDTH 666 0
DWIDTH 8 0
BBX 8 8 0 -4
BITMAP
70
30
30
30
30
30
78
00
ENDCHAR
STARTCHAR u005C
ENCODING 92
SWIDTH 666 0
DWIDTH 8 0
BBX 8 8 0 -4
BITMAP
C0
60
30
18
0C
06
02
00
ENDCHAR
STARTCHAR u00E8
ENCODING 232
SWIDTH 666 0
DWIDTH 8 0
BBX 8 8 0 -4
BITMAP
60
30
78
CC
FC
C0
78
00
ENDCHAR
STARTCHAR u00E1
ENCODING 225
SWIDTH 666 0
DWIDTH 8 0
BBX 8 8 0 -4
BITMAP
0C
18
78
0C
7C
CC
7E
00
ENDCHAR
STARTCHAR u014A
ENCODING 330
SWIDTH 666 0
DWIDTH 8 0
BBX 8 8 0 -4
BITMAP
DC
FE
F6
C6
C6
C6
DC
00
ENDCHAR
STARTCHAR u00CF
ENCODING 207
SWIDTH 666 0
DWIDTH 8 0
BBX 8 8 0 -4
BITMAP
CC
00
78
30
30
30
78
00
ENDCHAR
STARTCHAR u0107
ENCODING 263
SWIDTH 666 0
DWIDTH 8 0
BBX 8 8 0 -4
BITMAP
18
30
78
CC
C0
CC
78
00
ENDCHAR
STARTCHAR u00A7
ENCODING 167
SWIDTH 666 0
DWIDTH 8 0
BBX 8 8 0 -4
BITMAP
3E
63
38
6C
6C
38
CC
78
ENDCHAR
STARTCHAR u0030
ENCODING 48
SWIDTH 666 0
DWIDTH 8 0
BBX 8 8 0 -4
BITMAP
7C
C6
C6
D6
C6
C6
7C
00
ENDCHAR
STARTCHAR u0168
ENCODING 360
SWIDTH 666 0
DWIDTH 8 0
BBX 8 8 0 -4
BITMAP
76
DC
00
C6
C6
C6
7C
00
ENDCHAR
STARTCHAR uFFFD
ENCODING 65533
SWIDTH 666 0
DWIDTH 8 0
BBX 8 8 0 -4
BITMAP
00
00
00
00
00
00
00
00
ENDCHAR
STARTCHAR u0122
ENCODING 290
SWIDTH 666 0
DWIDTH 8 0
BBX 8 8 0 -4
BITMAP
3C
66
C0
CE
66
3E
18
70
ENDCHAR
STARTCHAR u007B
ENCODING 123
SWIDTH 666 0
DWIDTH 8 0
BBX 8 8 0 -4
BITMAP
1C
30
30
E0
30
30
1C
00
ENDCHAR
STARTCHAR u0032
ENCODING 50
SWIDTH 666 0
DWIDTH 8 0
BBX 8 8 0 -4
BITMAP
78
CC
0C
38
60
CC
FC
00
ENDCHAR
STARTCHAR u0130
ENCODING 304
SWIDTH 666 0
DWIDTH 8 0
BBX 8 8 0 -4
BITMAP
30
00
78
30
30
30
78
00
ENDCHAR
STARTCHAR u00D2
ENCODING 210
SWIDTH 666 0
DWIDTH 8 0
BBX 8 8 0 -4
BITMAP
30
18
7C
C6
C6
C6
7C
00
ENDCHAR
STARTCHAR u2302
ENCODING 8962
SWIDTH 666 0
DWIDTH 8 0
BBX 8 8 0 -4
BITMAP
10
28
44
82
82
82
FE
00
ENDCHAR
STARTCHAR u0102
ENCODING 258
SWIDTH 666 0
DWIDTH 8 0
BBX 8 8 0 -4
BITMAP
C6
7C
7C
C6
FE
C6
C6
00
ENDCHAR
STARTCHAR u00AD
ENCODING 173
SWIDTH 666 0
DWIDTH 8 0
BBX 8 8 0 -4
BITMAP
00
00
00
3C
00
00
00
00
ENDCHAR
STARTCHAR u0038
ENCODING 56
SWIDTH 666 0
DWIDTH 8 0
BBX 8 8 0 -4
BITMAP
78
CC
CC
78
CC
CC
78
00
ENDCHAR
STARTCHAR u0042
ENCODING 66
SWIDTH 666 0
DWIDTH 8 0
BBX 8 8 0 -4
BITMAP
FC
66
66
7C
66
66
FC
00
ENDCHAR
STARTCHAR u0125
ENCODING 293
SWIDTH 666 0
DWIDTH 8 0
BBX 8 8 0 -4
BITMAP
E6
69
60
6C
76
66
E6
00
ENDCHAR
STARTCHAR u0036
ENCODING 54
SWIDTH 666 0
DWIDTH 8 0
BBX 8 8 0 -4
BITMAP
38
60
C0
F8
CC
CC
78
00
ENDCHAR
STARTCHAR u0112
ENCODING 274
SWIDTH 666 0
DWIDTH 8 0
BBX 8 8 0 -4
BITMAP
78
00
FC
60
78
60
FC
00
ENDCHAR
STARTCHAR u016D
ENCODING 365
SWIDTH 666 0
DWIDTH 8 0
BBX 8 8 0 -4
BITMAP
CC
78
00
CC
CC
CC
76
00
ENDCHAR
STARTCHAR u0046
ENCODING 70
SWIDTH 666 0
DWIDTH 8 0
BBX 8 8 0 -4
BITMAP
FE
62
68
78
68
60
F0
00
ENDCHAR
STARTCHAR u0142
ENCODING 322
SWIDTH 666 0
DWIDTH 8 0
BBX 8 8 0 -4
BITMAP
30
36
3C
38
30
70
DC
00
ENDCHAR
STARTCHAR u0161
ENCODING 353
SWIDTH 666 0
DWIDTH 8 0
BBX 8 8 0 -4
BITMAP
6C
38
7C
40
38
04
7C
00
ENDCHAR
STARTCHAR u0058
ENCODING 88
SWIDTH 666 0
DWIDTH 8 0
BBX 8 8 0 -4
BITMAP
C6
C6
6C
38
38
6C
C6
00
ENDCHAR
STARTCHAR u00FC
ENCODING 252
SWIDTH 666 0
DWIDTH 8 0
BBX 8 8 0 -4
BITMAP
CC
00
CC
CC
CC
CC
76
00
ENDCHAR
STARTCHAR u0136
ENCODING 310
SWIDTH 666 0
DWIDTH 8 0
BBX 8 8 0 -4
BITMAP
0C
18
7C
C6
C6
C6
7C
00
ENDCHAR
STARTCHAR u004B
ENCODING 75
SWIDTH 666 0
DWIDTH 8 0
BBX 8 8 0 -4
BITMAP
E6
66
6C
78
6C
66
E6
00
ENDCHAR
STARTCHAR u0028
ENCODING 40
SWIDTH 666 0
DWIDTH 8 0
BBX 8 8 0 -4
BITMAP
18
30
60
60
60
30
18
00
ENDCHAR
STARTCHAR u011B
ENCODING 283
SWIDTH 666 0
DWIDTH 8 0
BBX 8 8 0 -4
BITMAP
CC
78
78
CC
FC
C0
78
00
ENDCHAR
STARTCHAR u012F
ENCODING 303
SWIDTH 666 0
DWIDTH 8 0
BBX 8 8 0 -4
BITMAP
30
00
70
30
30
78
30
1C
ENDCHAR
STARTCHAR u00FA
ENCODING 250
SWIDTH 666 0
DWIDTH 8 0
BBX 8 8 0 -4
BITMAP
00
18
30
CC
CC
CC
7E
00
ENDCHAR
STARTCHAR u00C0
ENCODING 192
SWIDTH 666 0
DWIDTH 8 0
BBX 8 8 0 -4
BITMAP
30
18
7C
C6
FE
C6
C6
00
ENDCHAR
STARTCHAR u003B
ENCODING 59
SWIDTH 666 0
DWIDTH 8 0
BBX 8 8 0 -4
BITMAP
00
30
30
00
00
30
30
60
ENDCHAR
STARTCHAR u00D7
ENCODING 215
SWIDTH 666 0
DWIDTH 8 0
BBX 8 8 0 -4
BITMAP
00
C6
6C
38
6C
C6
00
00
ENDCHAR
STARTCHAR u0116
ENCODING 278
SWIDTH 666 0
DWIDTH 8 0
BBX 8 8 0 -4
BITMAP
18
00
FE
C0
F8
C0
FE
00
ENDCHAR
STARTCHAR u010F
ENCODING 271
SWIDTH 666 0
DWIDTH 8 0
BBX 8 8 0 -4
BITMAP
96
66
06
7E
C6
C6
7E
00
ENDCHAR
STARTCHAR u25BC
ENCODING 9660
SWIDTH 666 0
DWIDTH 8 0
BBX 8 8 0 -4
BITMAP
00
FF
FF
7E
3C
18
00
00
ENDCHAR
STARTCHAR u0035
ENCODING 53
SWIDTH 666 0
DWIDTH 8 0
BBX 8 8 0 -4
BITMAP
FC
C0
F8
0C
0C
CC
78
00
ENDCHAR
STARTCHAR u00F5
ENCODING 245
SWIDTH 666 0
DWIDTH 8 0
BBX 8 8 0 -4
BITMAP
00
66
CC
78
CC
CC
78
00
ENDCHAR
STARTCHAR u010B
ENCODING 267
SWIDTH 666 0
DWIDTH 8 0
BBX 8 8 0 -4
BITMAP
30
00
78
CC
C0
CC
78
00
ENDCHAR
STARTCHAR u0162
ENCODING 354
SWIDTH 666 0
DWIDTH 8 0
BBX 8 8 0 -4
BITMAP
7E
18
18
18
18
18
20
38
ENDCHAR
STARTCHAR u00DB
ENCODING 219
SWIDTH 666 0
DWIDTH 8 0
BBX 8 8 0 -4
BITMAP
38
6C
00
C6
C6
C6
7C
00
ENDCHAR
STARTCHAR u013E
ENCODING 318
SWIDTH 666 0
DWIDTH 8 0
BBX 8 8 0 -4
BITMAP
F6
DC
C0
C0
C0
C0
78
00
ENDCHAR
STARTCHAR u0101
ENCODING 257
SWIDTH 666 0
DWIDTH 8 0
BBX 8 8 0 -4
BITMAP
7C
00
78
0C
7C
CC
7E
00
ENDCHAR
STARTCHAR u0069
ENCODING 105
SWIDTH 666 0
DWIDTH 8 0
BBX 8 8 0 -4
BITMAP
30
00
70
30
30
30
78
00
ENDCHAR
STARTCHAR u0055
ENCODING 85
SWIDTH 666 0
DWIDTH 8 0
BBX 8 8 0 -4
BITMAP
CC
CC
CC
CC
CC
CC
FC
00
ENDCHAR
STARTCHAR u00F8
ENCODING 248
SWIDTH 666 0
DWIDTH 8 0
BBX 8 8 0 -4
BITMAP
00
00
7C
CC
DC
EC
78
80
ENDCHAR
STARTCHAR u014C
ENCODING 332
SWIDTH 666 0
DWIDTH 8 0
BBX 8 8 0 -4
BITMAP
7C
00
7C
C6
C6
C6
7C
00
ENDCHAR
STARTCHAR u006F
ENCODING 111
SWIDTH 666 0
DWIDTH 8 0
BBX 8 8 0 -4
BITMAP
00
00
78
CC
CC
CC
78
00
ENDCHAR
STARTCHAR u0026
ENCODING 38
SWIDTH 666 0
DWIDTH 8 0
BBX 8 8 0 -4
BITMAP
38
6C
38
76
DC
CC
76
00
ENDCHAR
STARTCHAR u0164
ENCODING 356
SWIDTH 666 0
DWIDTH 8 0
BBX 8 8 0 -4
BITMAP
CC
78
FC
30
30
30
30
00
ENDCHAR
STARTCHAR u0022
ENCODING 34
SWIDTH 666 0
DWIDTH 8 0
BBX 8 8 0 -4
BITMAP
6C
6C
6C
00
00
00
00
00
ENDCHAR
STARTCHAR u2319
ENCODING 8985
SWIDTH 666 0
DWIDTH 8 0
BBX 8 8 0 -4
BITMAP
00
00
C0
C0
C0
FE
00
00
ENDCHAR
STARTCHAR u00A4
ENCODING 164
SWIDTH 666 0
DWIDTH 8 0
BBX 8 8 0 -4
BITMAP
00
42
3C
66
66
3C
42
00
ENDCHAR
STARTCHAR u00C4
ENCODING 196
SWIDTH 666 0
DWIDTH 8 0
BBX 8 8 0 -4
BITMAP
C6
38
6C
C6
FE
C6
C6
00
ENDCHAR
STARTCHAR u00F2
ENCODING 242
SWIDTH 666 0
DWIDTH 8 0
BBX 8 8 0 -4
BITMAP
00
30
18
78
CC
CC
78
00
ENDCHAR
ENDFONT
