/* XPM */
static char * usb_creator_kde_16x16_xpm[] = {
"16 16 136 2",
"  	c None",
". 	c #0D9C0D",
"+ 	c #2AAA2A",
"@ 	c #008C00",
"# 	c #D7D7DA",
"$ 	c #C3C6CC",
"% 	c #008B00",
"& 	c #5BC95B",
"* 	c #B0E8B0",
"= 	c #B9EAB9",
"- 	c #9BE59B",
"; 	c #1BA81B",
"> 	c #E6E6E6",
", 	c #EFEFF1",
"' 	c #8E8A80",
") 	c #CBCED4",
"! 	c #25BF25",
"~ 	c #63DA63",
"{ 	c #81CF81",
"] 	c #E8F7E8",
"^ 	c #5BD75B",
"/ 	c #5FD95F",
"( 	c #009700",
"_ 	c #CFD1D2",
": 	c #989488",
"< 	c #EBEBED",
"[ 	c #DADBDF",
"} 	c #D8D9DC",
"| 	c #E0DEE6",
"1 	c #40A942",
"2 	c #149F14",
"3 	c #49AB49",
"4 	c #6EB26E",
"5 	c #E1EFE1",
"6 	c #43A743",
"7 	c #3CA83C",
"8 	c #00B300",
"9 	c #DBDCDE",
"0 	c #EBECEC",
"a 	c #DFE0E0",
"b 	c #E2E2E8",
"c 	c #EEE9F3",
"d 	c #2FB030",
"e 	c #329F32",
"f 	c #EAF7EA",
"g 	c #E8F3E8",
"h 	c #FAFCFA",
"i 	c #E2F2E2",
"j 	c #BBE2BB",
"k 	c #00BA00",
"l 	c #E4E4E9",
"m 	c #BEBEC2",
"n 	c #B1AFB4",
"o 	c #60C762",
"p 	c #00B700",
"q 	c #00B400",
"r 	c #2BA42B",
"s 	c #D4EED4",
"t 	c #00B100",
"u 	c #DEE0E0",
"v 	c #DDDEE3",
"w 	c #E5E5EA",
"x 	c #E2E2E6",
"y 	c #AFAFB2",
"z 	c #D0E2D3",
"A 	c #00B200",
"B 	c #00A600",
"C 	c #2DAA2D",
"D 	c #BBE4BB",
"E 	c #00A300",
"F 	c #00A800",
"G 	c #D6DAE3",
"H 	c #EAE9EC",
"I 	c #E3E3E7",
"J 	c #CCCCCF",
"K 	c #A7A7AA",
"L 	c #AAD7AD",
"M 	c #06BD06",
"N 	c #00A100",
"O 	c #00B600",
"P 	c #00C600",
"Q 	c #506F9A",
"R 	c #B1C7EB",
"S 	c #DCE0EA",
"T 	c #EDEDF1",
"U 	c #D6D6D9",
"V 	c #F3EDF8",
"W 	c #ABDFAD",
"X 	c #388772",
"Y 	c #2C508F",
"Z 	c #57759B",
"` 	c #A2BEED",
" .	c #BFCBE2",
"..	c #EDECEF",
"+.	c #ECECF0",
"@.	c #EBEBEF",
"#.	c #E8C9D8",
"$.	c #DB9DB5",
"%.	c #9FAAC5",
"&.	c #707CA1",
"*.	c #59779C",
"=.	c #A7C3F0",
"-.	c #B0C1E0",
";.	c #EBEAEC",
">.	c #EAE1E8",
",.	c #E08EAD",
"'.	c #E2D7E0",
").	c #D9B1C3",
"!.	c #CDCED4",
"~.	c #A7A9AE",
"{.	c #5B799D",
"].	c #ABC8F3",
"^.	c #B1C1DB",
"/.	c #E4B5C8",
"(.	c #E1B9CB",
"_.	c #DBB9CA",
":.	c #D2B4C4",
"<.	c #C2C4CA",
"[.	c #A9AAB1",
"}.	c #5C7B9D",
"|.	c #AECBF6",
"1.	c #D0D8DC",
"2.	c #D98BAA",
"3.	c #D4B9C8",
"4.	c #CAA5B8",
"5.	c #B6A2B1",
"6.	c #A1A3A9",
"7.	c #486789",
"8.	c #B1BAC7",
"9.	c #CED4D8",
"0.	c #C5B5C1",
"a.	c #B5ADB8",
"b.	c #A4A8AF",
"c.	c #B2B4B9",
"d.	c #B3B4BD",
"e.	c #A2A4AB",
"                    . + @       ",
"    # $         % & * = - ;     ",
"  > , ' )       ! ~ { ] ^ / (   ",
"  _ : < [ } | 1 2 3 4 5 6 7 8   ",
"    9 0 a b c d e f g h i j k   ",
"      a l m n o p q r s t q t   ",
"    u v w x y z A B C D E F k   ",
"      G H I J K L M B N O P     ",
"      Q R S T U x V W X Y       ",
"        Z `  ...+.@.#.$.%.&.    ",
"          *.=.-.;.>.,.'.).!.~.  ",
"            {.].^./.(._.:.<.[.  ",
"              }.|.1.2.3.4.5.6.  ",
"                7.8.9.0.a.b.    ",
"                    c.d.e.      ",
"                                "};
