/* XPM */
static char * usb_creator_kde_32x32_xpm[] = {
"32 32 431 2",
"  	c None",
". 	c #B5B7BA",
"+ 	c #CFD1D3",
"@ 	c #008C00",
"# 	c #019701",
"$ 	c #38B238",
"% 	c #4DBC4D",
"& 	c #3BB33B",
"* 	c #059905",
"= 	c #C3C4C5",
"- 	c #D3D5DA",
"; 	c #C7C9D0",
"> 	c #008600",
", 	c #009800",
"' 	c #62CC62",
") 	c #B7ECB7",
"! 	c #B4EAB4",
"~ 	c #B2E9B2",
"{ 	c #B4EBB4",
"] 	c #B9EDB9",
"^ 	c #6BD06B",
"/ 	c #009B00",
"( 	c #008700",
"_ 	c #CCCCCC",
": 	c #E3E4E6",
"< 	c #DBDCE0",
"[ 	c #D7D8DD",
"} 	c #92979E",
"| 	c #D3D4D6",
"1 	c #008200",
"2 	c #00A000",
"3 	c #77DA77",
"4 	c #91E391",
"5 	c #90DE90",
"6 	c #A7DEA7",
"7 	c #C2E9C2",
"8 	c #ABE3AB",
"9 	c #90E390",
"0 	c #80DD80",
"a 	c #00A500",
"b 	c #008300",
"c 	c #CFCFCE",
"d 	c #ECECED",
"e 	c #E7E8E9",
"f 	c #E4E5E7",
"g 	c #6E7579",
"h 	c #685022",
"i 	c #B9BCC2",
"j 	c #CFD0D3",
"k 	c #009900",
"l 	c #41CD41",
"m 	c #71DB71",
"n 	c #70DB70",
"o 	c #70D170",
"p 	c #B3DEB3",
"q 	c #FFFFFF",
"r 	c #BFE9BF",
"s 	c #70DA70",
"t 	c #71DA71",
"u 	c #4BD14B",
"v 	c #009C00",
"w 	c #007E00",
"x 	c #C9C9C9",
"y 	c #EAEAEA",
"z 	c #ECECEC",
"A 	c #EDEDEE",
"B 	c #E7E7E9",
"C 	c #DADCDE",
"D 	c #B4B5B9",
"E 	c #D3D4D9",
"F 	c #CFD0D2",
"G 	c #DEE0E0",
"H 	c #E1E2E3",
"I 	c #008100",
"J 	c #00BA00",
"K 	c #55D555",
"L 	c #52D452",
"M 	c #52C452",
"N 	c #A2D0A2",
"O 	c #B0E3B0",
"P 	c #51D451",
"Q 	c #56D556",
"R 	c #05BD05",
"S 	c #008400",
"T 	c #BEBEBE",
"U 	c #E4E4E4",
"V 	c #EEEEED",
"W 	c #808587",
"X 	c #E6E5E6",
"Y 	c #E2E3E5",
"Z 	c #D2D4D9",
"` 	c #C6C8CF",
" .	c #E0E2E1",
"..	c #D9D9DE",
"+.	c #D9DADF",
"@.	c #A2C5A8",
"#.	c #009200",
"$.	c #04BC04",
"%.	c #2EB62E",
"&.	c #32B832",
"*.	c #32A732",
"=.	c #92C192",
"-.	c #A2D5A2",
";.	c #31B831",
">.	c #2FC12F",
",.	c #07C107",
"'.	c #009A00",
").	c #BBBBBB",
"!.	c #999EA2",
"~.	c #624A1E",
"{.	c #C7C8C8",
"].	c #EBEBEB",
"^.	c #E1E2E4",
"/.	c #DADBDE",
"(.	c #DBDDDC",
"_.	c #DCDCE1",
":.	c #DCDEE3",
"<.	c #DEDFE4",
"[.	c #75B079",
"}.	c #00A700",
"|.	c #2F782F",
"1.	c #6BA66B",
"2.	c #70A870",
"3.	c #71A871",
"4.	c #B3D5B3",
"5.	c #BED8BE",
"6.	c #6CA46C",
"7.	c #389838",
"8.	c #00C000",
"9.	c #00AD00",
"0.	c #007600",
"a.	c #C0C0C0",
"b.	c #CDCFD0",
"c.	c #E9E9E9",
"d.	c #EBEAEB",
"e.	c #E6E6E7",
"f.	c #DCDDDC",
"g.	c #DEDEE4",
"h.	c #E0E0E5",
"i.	c #E2E2E7",
"j.	c #E5E4EA",
"k.	c #69AC6B",
"l.	c #00B100",
"m.	c #009500",
"n.	c #81AA81",
"o.	c #FEFEFE",
"p.	c #96CF96",
"q.	c #00BF00",
"r.	c #00B600",
"s.	c #007F00",
"t.	c #BABABA",
"u.	c #DDDFDD",
"v.	c #DFE0E5",
"w.	c #E4E4E9",
"x.	c #E5E5EA",
"y.	c #E6E6EB",
"z.	c #75BA77",
"A.	c #00A900",
"B.	c #52A652",
"C.	c #A5D8A5",
"D.	c #A5D3A5",
"E.	c #CFE3CF",
"F.	c #D6EAD6",
"G.	c #A5D7A5",
"H.	c #60C560",
"I.	c #E2E2E1",
"J.	c #DDDEDD",
"K.	c #DFDFE5",
"L.	c #CDCDD1",
"M.	c #DEDEE2",
"N.	c #D6D6DA",
"O.	c #A1D2A4",
"P.	c #00AA00",
"Q.	c #00B900",
"R.	c #00B800",
"S.	c #009F00",
"T.	c #74B474",
"U.	c #8AD18A",
"V.	c #00AE00",
"W.	c #DADBDA",
"X.	c #E1E1E6",
"Y.	c #E5E5E9",
"Z.	c #CBCBCF",
"`.	c #909093",
" +	c #99999C",
".+	c #858587",
"++	c #F0EFF4",
"@+	c #00AC00",
"#+	c #00B200",
"$+	c #00A100",
"%+	c #77BC77",
"&+	c #8CD28C",
"*+	c #DEE0DE",
"=+	c #DBDCE1",
"-+	c #DFDFE4",
";+	c #E9E9ED",
">+	c #EAEAEE",
",+	c #9B9B9E",
"'+	c #CFCFD2",
")+	c #DEDCE1",
"!+	c #66CE68",
"~+	c #00B300",
"{+	c #77C077",
"]+	c #D4D7D0",
"^+	c #E7E7EC",
"/+	c #BEBEC1",
"(+	c #CDCDD0",
"_+	c #818182",
":+	c #DDDDE0",
"<+	c #EEECF2",
"[+	c #12C612",
"}+	c #00B000",
"|+	c #00A400",
"1+	c #00A300",
"2+	c #51B751",
"3+	c #AFDFAF",
"4+	c #60C260",
"5+	c #00A200",
"6+	c #00C200",
"7+	c #C5C6C2",
"8+	c #E2E2E6",
"9+	c #E6E6EA",
"0+	c #E8E8EC",
"a+	c #EBEBEF",
"b+	c #C6C6C9",
"c+	c #9D9DA0",
"d+	c #B4B4B8",
"e+	c #7D7D7F",
"f+	c #F7F8FC",
"g+	c #DDEBE1",
"h+	c #0ECC0E",
"i+	c #009E00",
"j+	c #00B400",
"k+	c #00C900",
"l+	c #A6B6CC",
"m+	c #DEE2E8",
"n+	c #E9E8EA",
"o+	c #F0F0F4",
"p+	c #F2F2F6",
"q+	c #F3F3F7",
"r+	c #4B4B4C",
"s+	c #A8A9AB",
"t+	c #ECECF0",
"u+	c #55DA56",
"v+	c #00C600",
"w+	c #00B700",
"x+	c #00CF00",
"y+	c #476790",
"z+	c #90ACDB",
"A+	c #B0C6EA",
"B+	c #D7DEEA",
"C+	c #EBEAEC",
"D+	c #EDEDF1",
"E+	c #F1F1F5",
"F+	c #878789",
"G+	c #BDBDC0",
"H+	c #F0EDF4",
"I+	c #DEE9E2",
"J+	c #85DE87",
"K+	c #3AC23E",
"L+	c #0FA92D",
"M+	c #14A336",
"N+	c #1F8659",
"O+	c #1C3E81",
"P+	c #4D6C95",
"Q+	c #95B0DC",
"R+	c #9FBBEB",
"S+	c #B0C3E6",
"T+	c #DEE0E5",
"U+	c #EBEAEF",
"V+	c #EFEFF3",
"W+	c #E6E3EA",
"X+	c #9093B8",
"Y+	c #4553AF",
"Z+	c #4051A8",
"`+	c #3545A2",
" @	c #19317E",
".@	c #4E6D95",
"+@	c #97B2DD",
"@@	c #A4BFED",
"#@	c #9CB7E7",
"$@	c #C7D0DE",
"%@	c #E8E8EB",
"&@	c #EAEDF0",
"*@	c #E5EBEE",
"=@	c #B5B8C1",
"-@	c #707AA9",
";@	c #5361A2",
">@	c #34429E",
",@	c #042860",
"'@	c #4E6E96",
")@	c #98B4DE",
"!@	c #A6C1EE",
"~@	c #9CB8E9",
"{@	c #B3C2DD",
"]@	c #E2E2E4",
"^@	c #EBE8ED",
"/@	c #DD5789",
"(@	c #DA316E",
"_@	c #E19BB7",
":@	c #DEE4E8",
"<@	c #D5D6D9",
"[@	c #C9C9CA",
"}@	c #999FA4",
"|@	c #506F96",
"1@	c #99B6DF",
"2@	c #A8C3EF",
"3@	c #A0BBEA",
"4@	c #A8BBDE",
"5@	c #DDDDDF",
"6@	c #EBEBF0",
"7@	c #ECF4F5",
"8@	c #DC437A",
"9@	c #E3B1C6",
"0@	c #E6F0F1",
"a@	c #DFB0C5",
"b@	c #DA80A3",
"c@	c #D8DBDF",
"d@	c #D0D1D7",
"e@	c #C9CAD1",
"f@	c #A3A6A8",
"g@	c #517096",
"h@	c #9BB7E0",
"i@	c #AAC6F0",
"j@	c #A2BDEB",
"k@	c #A5BADE",
"l@	c #D9D9DC",
"m@	c #E4A8C0",
"n@	c #DF81A5",
"o@	c #E5E0E7",
"p@	c #E2CCD8",
"q@	c #DFDAE1",
"r@	c #D99AB4",
"s@	c #D5DBDE",
"t@	c #CCCDD3",
"u@	c #C4C5CC",
"v@	c #BCBDC6",
"w@	c #939594",
"x@	c #517196",
"y@	c #9DB9E1",
"z@	c #ABC7F2",
"A@	c #A4BFEC",
"B@	c #A6BADC",
"C@	c #DADADD",
"D@	c #DE719A",
"E@	c #E2ADC3",
"F@	c #E2C6D4",
"G@	c #DFD3DD",
"H@	c #D796B1",
"I@	c #D1D6DA",
"J@	c #C9CAD0",
"K@	c #BFC0C8",
"L@	c #B2B3BB",
"M@	c #A3A5A8",
"N@	c #527297",
"O@	c #9FBBE2",
"P@	c #ADC9F3",
"Q@	c #A6C2EE",
"R@	c #ABBAD1",
"S@	c #E09CB7",
"T@	c #DD81A5",
"U@	c #E0E3E7",
"V@	c #DAAABF",
"W@	c #D795B0",
"X@	c #D3A1B7",
"Y@	c #CBCED3",
"Z@	c #C3C4CB",
"`@	c #B9BBC2",
" #	c #ACADB6",
".#	c #A1A3A8",
"+#	c #537397",
"@#	c #A0BDE3",
"##	c #AFCCF4",
"$#	c #A7C3F1",
"%#	c #C6C7CB",
"&#	c #E2E9EC",
"*#	c #D9437A",
"=#	c #DBE1E4",
"-#	c #D8D9DE",
";#	c #D3D7DC",
">#	c #CDCED4",
",#	c #C5C7CE",
"'#	c #BFB3BF",
")#	c #B3AAB5",
"!#	c #A5A6AF",
"~#	c #9FA2A5",
"{#	c #527295",
"]#	c #9DBADF",
"^#	c #B3D0F8",
"/#	c #B6C0CD",
"(#	c #DDDEE3",
"_#	c #D9D1D9",
":#	c #D65B89",
"<#	c #D583A3",
"[#	c #CF9EB5",
"}#	c #CC8EA8",
"|#	c #CA6D92",
"1#	c #BD87A0",
"2#	c #A9ADB5",
"3#	c #A9ABB4",
"4#	c #416284",
"5#	c #8BA8CD",
"6#	c #ADBCCE",
"7#	c #D8D8DE",
"8#	c #D0D5D9",
"9#	c #CBC4CD",
"0#	c #C992AB",
"a#	c #C297AD",
"b#	c #B4BCC2",
"c#	c #ABACB5",
"d#	c #A8AAB4",
"e#	c #1E3D5B",
"f#	c #697F96",
"g#	c #C8C9CF",
"h#	c #C3C4CA",
"i#	c #BCBDC4",
"j#	c #B4B5BD",
"k#	c #ABACB4",
"l#	c #A8ABB4",
"m#	c #949697",
"n#	c #C5C6CD",
"o#	c #BDBEC5",
"p#	c #B8B9C0",
"q#	c #B1B2BA",
"r#	c #A8A9B2",
"s#	c #868886",
"t#	c #AFB0B5",
"u#	c #B4B6BE",
"v#	c #AFB0B9",
"w#	c #A4A6AC",
"x#	c #8C8F8D",
"                                                                ",
"          . +                         @ # $ % & * @             ",
"        = - ; +                   > , ' ) ! ~ { ] ^ / (         ",
"      _ : < [ } |               1 2 3 4 5 6 7 8 9 9 0 a b       ",
"    c d e f g h i j             k l m n o p q r n s t u v w     ",
"  x y z A B C D E ; F   G H   I J K L L M N q O P L L Q R S     ",
"  T U V W X e Y < Z `  ...+.@.#.$.%.&.&.*.=.q -.;.&.&.>.,.'.    ",
"    ).!.~.{.].e ^./.(._.:.<.[.}.k |.1.2.3.4.q 5.2.2.6.7.8.9.0.  ",
"      a.b.c.z d.e.f.g.h.i.j.k.l.m.n.q q q q o.q q q q p.q.r.s.  ",
"        t.U c.y u.v.i.w.x.y.z.l.A.B.C.C.D.E.q F.G.C.G.H.q.r.@   ",
"          t.I.J.K.i.L.M.N.M.O.P.Q.Q.R.R.S.T.q U.R.R.R.R.Q.V.    ",
"            W.g.X.Y.Z.`. +.+++@+#+#+#+#+$+%+q &+#+#+#+#+#+V.    ",
"          *+=+-+w.y.;+>+,+'+)+!+~+P.P.P.S.{+q &+P.P.P.P.#+R.    ",
"        ]+<.=+i.Y.^+>+/+(+_+:+<+[+}+|+1+S.2+3+4+5+5+|+V.6+      ",
"          7+8+i.9+0+a+b+c+d+e+f+g+h+r.|+i+/ './ i+1+j+k+        ",
"            l+m+n+;+a+a+o+p+q+r+s+t+u+v+R.9.P.@+w+x+x+          ",
"            y+z+A+B+C+t+a+D+E+F+G+D+H+I+J+K+L+M+N+O+            ",
"              P+Q+R+S+T+U+t+t+V+D+t+t+t+t+W+X+Y+Z+`+ @          ",
"                .@+@@@#@$@%@D+t+D+t+a+t+t+&@*@=@-@;@>@,@        ",
"                  '@)@!@~@{@]@D+t+a+t+a+^@/@(@_@:@<@[@}@        ",
"                    |@1@2@3@4@5@t+6@t+7@8@9@0@a@b@c@d@e@f@      ",
"                      g@h@i@j@k@l@t+a+m@n@o@p@q@r@s@t@u@v@w@    ",
"                        x@y@z@A@B@C@;+D@E@F@G@_.H@I@J@K@L@M@    ",
"                          N@O@P@Q@R@i.S@T@U@V@W@X@Y@Z@`@ #.#    ",
"                            +#@###$#%#&#*#=#-#;#>#,#'#)#!#~#    ",
"                              {#]#^#/#(#_#:#<#[#}#|#1#2#3#      ",
"                                4#5#6#7#E 8#9#0#a#b#c#d#w@      ",
"                                  e#f#d@t@g#h#i#j#k#l#w@        ",
"                                      m#n#o#p#q#r#3#w@          ",
"                                        s#t#u#v#w#x#            ",
"                                                                ",
"                                                                "};
