<?xml version="1.0" encoding="UTF-8" standalone="no"?>
<!-- Created with Inkscape (http://www.inkscape.org/) -->

<svg
   xmlns:i="http://ns.adobe.com/AdobeIllustrator/10.0/"
   xmlns:dc="http://purl.org/dc/elements/1.1/"
   xmlns:cc="http://creativecommons.org/ns#"
   xmlns:rdf="http://www.w3.org/1999/02/22-rdf-syntax-ns#"
   xmlns:svg="http://www.w3.org/2000/svg"
   xmlns="http://www.w3.org/2000/svg"
   xmlns:xlink="http://www.w3.org/1999/xlink"
   xmlns:sodipodi="http://sodipodi.sourceforge.net/DTD/sodipodi-0.dtd"
   xmlns:inkscape="http://www.inkscape.org/namespaces/inkscape"
   version="1.0"
   width="48"
   height="48"
   id="svg3786"
   inkscape:version="0.47 r22583"
   sodipodi:docname="usb-creator-gtk.svg">
  <metadata
     id="metadata3044">
    <rdf:RDF>
      <cc:Work
         rdf:about="">
        <dc:format>image/svg+xml</dc:format>
        <dc:type
           rdf:resource="http://purl.org/dc/dcmitype/StillImage" />
        <dc:title />
      </cc:Work>
    </rdf:RDF>
  </metadata>
  <sodipodi:namedview
     pagecolor="#ffffff"
     bordercolor="#666666"
     borderopacity="1"
     objecttolerance="10"
     gridtolerance="10"
     guidetolerance="10"
     inkscape:pageopacity="0"
     inkscape:pageshadow="2"
     inkscape:window-width="1280"
     inkscape:window-height="752"
     id="namedview3042"
     showgrid="false"
     inkscape:zoom="9.84"
     inkscape:cx="10.484135"
     inkscape:cy="29.489481"
     inkscape:window-x="0"
     inkscape:window-y="0"
     inkscape:window-maximized="1"
     inkscape:current-layer="svg3786" />
  <defs
     id="defs3788">
    <linearGradient
       id="linearGradient6310">
      <stop
         id="stop6312"
         style="stop-color:white;stop-opacity:1"
         offset="0" />
      <stop
         id="stop6314"
         style="stop-color:white;stop-opacity:0"
         offset="1" />
    </linearGradient>
    <linearGradient
       id="linearGradient5060">
      <stop
         id="stop5062"
         style="stop-color:black;stop-opacity:1"
         offset="0" />
      <stop
         id="stop5064"
         style="stop-color:black;stop-opacity:0"
         offset="1" />
    </linearGradient>
    <linearGradient
       id="linearGradient5048">
      <stop
         id="stop5050"
         style="stop-color:black;stop-opacity:0"
         offset="0" />
      <stop
         id="stop5056"
         style="stop-color:black;stop-opacity:1"
         offset="0.5" />
      <stop
         id="stop5052"
         style="stop-color:black;stop-opacity:0"
         offset="1" />
    </linearGradient>
    <linearGradient
       id="linearGradient2215">
      <stop
         id="stop2223"
         style="stop-color:#aaa;stop-opacity:1"
         offset="0" />
      <stop
         id="stop2219"
         style="stop-color:#646464;stop-opacity:1"
         offset="1" />
    </linearGradient>
    <linearGradient
       id="linearGradient3484">
      <stop
         id="stop3486"
         style="stop-color:#aaa;stop-opacity:1"
         offset="0" />
      <stop
         id="stop3488"
         style="stop-color:#c8c8c8;stop-opacity:1"
         offset="1" />
    </linearGradient>
    <linearGradient
       id="linearGradient7056">
      <stop
         id="stop7064"
         style="stop-color:#f0f0f1;stop-opacity:1"
         offset="0" />
      <stop
         id="stop7060"
         style="stop-color:#ddddde;stop-opacity:1"
         offset="1" />
    </linearGradient>
    <radialGradient
       cx="24"
       cy="42"
       r="21"
       fx="24"
       fy="42"
       id="radialGradient2920"
       xlink:href="#linearGradient6310"
       gradientUnits="userSpaceOnUse"
       gradientTransform="matrix(0.64406803,7.2542377e-8,-1.9090096e-8,0.16949156,8.1355821,34.322029)" />
    <linearGradient
       x1="21.205969"
       y1="24.050003"
       x2="13.663833"
       y2="10.013892"
       id="linearGradient2927"
       xlink:href="#linearGradient3484"
       gradientUnits="userSpaceOnUse"
       gradientTransform="matrix(0.71028732,0,0,0.73539322,6.5463191,12.0087)" />
    <linearGradient
       x1="28.437729"
       y1="50.295818"
       x2="28.375248"
       y2="40.704182"
       id="linearGradient2931"
       xlink:href="#linearGradient2215"
       gradientUnits="userSpaceOnUse"
       gradientTransform="matrix(0.71197373,0,0,0.44530331,2.9459811,21.179376)" />
    <radialGradient
       cx="605.71429"
       cy="486.64789"
       r="117.14286"
       fx="605.71429"
       fy="486.64789"
       id="radialGradient2934"
       xlink:href="#linearGradient5060"
       gradientUnits="userSpaceOnUse"
       gradientTransform="matrix(-0.03192533,0,0,0.01465604,29.723173,36.067075)" />
    <radialGradient
       cx="605.71429"
       cy="486.64789"
       r="117.14286"
       fx="605.71429"
       fy="486.64789"
       id="radialGradient2937"
       xlink:href="#linearGradient5060"
       gradientUnits="userSpaceOnUse"
       gradientTransform="matrix(0.03192533,0,0,0.01465604,17.463262,36.067075)" />
    <linearGradient
       x1="302.85715"
       y1="366.64789"
       x2="302.85715"
       y2="609.50507"
       id="linearGradient2940"
       xlink:href="#linearGradient5048"
       gradientUnits="userSpaceOnUse"
       gradientTransform="matrix(0.05435552,0,0,0.01465604,3.9475801,36.067075)" />
    <radialGradient
       cx="15.050847"
       cy="10.272658"
       r="23.000034"
       fx="15.050847"
       fy="10.272658"
       id="radialGradient3725"
       xlink:href="#linearGradient7056"
       gradientUnits="userSpaceOnUse"
       gradientTransform="matrix(0.879575,0.60751466,-0.47240208,0.68395565,8.8371041,7.5890291)" />
    <linearGradient
       id="linearGradient2264-5">
      <stop
         id="stop2266-4"
         style="stop-color:#d7e866;stop-opacity:1"
         offset="0" />
      <stop
         id="stop2268-0"
         style="stop-color:#8cab2a;stop-opacity:1"
         offset="1" />
    </linearGradient>
    <linearGradient
       id="linearGradient5113-5">
      <stop
         id="stop5115-5"
         style="stop-color:#ffffff;stop-opacity:1"
         offset="0" />
      <stop
         id="stop5117-2"
         style="stop-color:#ffffff;stop-opacity:0"
         offset="1" />
    </linearGradient>
    <linearGradient
       id="linearGradient6036">
      <stop
         id="stop6038"
         style="stop-color:#ffffff;stop-opacity:1"
         offset="0" />
      <stop
         id="stop6040"
         style="stop-color:#ffffff;stop-opacity:0"
         offset="1" />
    </linearGradient>
    <linearGradient
       inkscape:collect="always"
       xlink:href="#linearGradient2264-5"
       id="linearGradient3625"
       gradientUnits="userSpaceOnUse"
       gradientTransform="matrix(0.36898725,0,0,0.36665642,16.651785,8.6195624)"
       x1="25"
       y1="11.923377"
       x2="25"
       y2="40.32198" />
    <linearGradient
       inkscape:collect="always"
       xlink:href="#linearGradient5113-5"
       id="linearGradient3627"
       gradientUnits="userSpaceOnUse"
       gradientTransform="matrix(0.370699,0,0,0.36665642,-3.6503854,7.5020703)"
       x1="58.748795"
       y1="2.047786"
       x2="105.32369"
       y2="58.047787" />
    <linearGradient
       inkscape:collect="always"
       xlink:href="#linearGradient6036"
       id="linearGradient3645"
       gradientUnits="userSpaceOnUse"
       gradientTransform="matrix(0.20263297,0,0,0.20263288,10.736761,5.4618855)"
       x1="18.775953"
       y1="4.0378027"
       x2="18.203465"
       y2="45.962208" />
  </defs>
  <g
     inkscape:groupmode="layer"
     id="layer3"
     inkscape:label="Drive"
     style="display:none" />
  <g
     id="g3554"
     transform="matrix(1.277423,0,0,1.277423,-6.1897292,-9.803384)">
    <rect
       style="opacity:0.3;fill:url(#linearGradient2940);fill-opacity:1;fill-rule:nonzero;stroke:none;stroke-width:0.5;marker:none;visibility:visible;display:inline;overflow:visible"
       id="rect2723"
       y="41.440678"
       x="10.470225"
       height="3.5593233"
       width="26.245953" />
    <path
       style="opacity:0.3;fill:url(#radialGradient2937);fill-opacity:1;fill-rule:nonzero;stroke:none;stroke-width:0.5;marker:none;visibility:visible;display:inline;overflow:visible"
       id="path2725"
       d="m 36.703391,41.440801 c 0,0 0,3.559126 0,3.559126 1.644072,0.0067 3.974575,-0.79742 3.974575,-1.779792 0,-0.982371 -1.83466,-1.779334 -3.974575,-1.779334 z" />
    <path
       style="opacity:0.3;fill:url(#radialGradient2934);fill-opacity:1;fill-rule:nonzero;stroke:none;stroke-width:1;marker:none;visibility:visible;display:inline;overflow:visible"
       id="path2727"
       d="m 10.483037,41.440801 c 0,0 0,3.559126 0,3.559126 -1.6440799,0.0067 -3.9745749,-0.79742 -3.9745749,-1.779792 0,-0.982371 1.834667,-1.779334 3.9745749,-1.779334 z" />
    <path
       style="fill:url(#linearGradient2931);fill-opacity:1;fill-rule:evenodd;stroke:#59595b;stroke-width:0.71176362;stroke-linecap:round;stroke-linejoin:round;stroke-miterlimit:4;stroke-opacity:1;stroke-dasharray:none;stroke-dashoffset:0;display:inline;enable-background:new"
       id="rect6431"
       d="m 7.5762081,39.660964 32.0340119,0 -0.640512,3.559425 -30.6817889,0 -0.711711,-3.559425 z" />
    <rect
       style="fill:#d2d2d3;fill-opacity:1;fill-rule:evenodd;stroke:none;display:inline;enable-background:new"
       id="rect6381"
       y="39.305084"
       x="7.5762587"
       height="0.71186465"
       width="32.033909" />
    <path
       style="fill:url(#radialGradient3725);fill-opacity:1;fill-rule:nonzero;stroke:url(#linearGradient2927);stroke-width:0.71186465;stroke-linecap:round;stroke-linejoin:round;stroke-miterlimit:4;stroke-opacity:1;stroke-dasharray:none;stroke-dashoffset:0;marker:none;visibility:visible;display:inline;overflow:visible;enable-background:accumulate"
       id="path6345"
       d="M 39.610193,39.661039 34.773397,20.440669 C 34.658909,19.98572 34.028452,19.728781 33.559319,19.728781 l -19.93221,0 c -0.576456,0 -1.445215,0.150476 -1.576047,0.711888 L 7.5762351,39.642584" />
    <path
       style="opacity:0.4;fill:none;stroke:#ffffff;stroke-width:0.6955291;stroke-linecap:round;stroke-linejoin:miter;stroke-miterlimit:4;stroke-opacity:1;stroke-dasharray:none;stroke-dashoffset:0;marker:none;visibility:visible;display:inline;overflow:visible;enable-background:accumulate"
       id="path7046"
       d="M 38.906474,39.669183 8.2799561,39.652847" />
    <rect
       style="opacity:0.5;fill:#ffffff;fill-opacity:1;stroke:none"
       id="rect6298"
       y="40.728817"
       x="9.3559198"
       rx="0.71186465"
       height="1.7796617"
       width="28.474586" />
    <rect
       style="opacity:0.4;fill:url(#radialGradient2920);fill-opacity:1;stroke:none"
       id="rect6300"
       y="40.016949"
       x="8.6440563"
       height="2.8474586"
       width="29.898315" />
    <rect
       style="fill:#282828;fill-opacity:1;stroke:none"
       id="rect6287"
       y="40.728817"
       x="9.3559198"
       rx="0.71186465"
       height="1.4237293"
       width="28.474586" />
    <path
       style="fill:none;stroke:#adadad;stroke-width:0.35593233;stroke-linecap:round;stroke-linejoin:miter;stroke-miterlimit:4;stroke-opacity:1;stroke-dasharray:none;stroke-dashoffset:0;marker:none;visibility:visible;display:inline;overflow:visible;enable-background:accumulate"
       id="path6292"
       d="M 38.898306,36.991522 8.2881241,36.974401" />
    <path
       style="opacity:0.5;fill:none;stroke:#ffffff;stroke-width:0.33987993;stroke-linecap:round;stroke-linejoin:miter;stroke-miterlimit:4;stroke-opacity:1;stroke-dasharray:none;stroke-dashoffset:0;marker:none;visibility:visible;display:inline;overflow:visible;enable-background:accumulate"
       id="path6294"
       d="M 38.443619,37.355481 8.6716231,37.339429" />
    <path
       style="fill:#464646;fill-opacity:1;stroke:none;display:inline"
       id="path6672"
       d="m 23.573274,22.22033 c -0.835633,0.346892 -1.894945,0.754178 -2.634559,1.277939 0.594149,0.09931 1.368422,0.05304 1.97592,0.07486 0.0017,1.902086 0.139301,3.503514 0,5.401585 -0.326292,0 -1.425677,-0.01426 -1.880391,0 -1.412809,0 -2.349231,-0.337853 -2.920645,-1.455035 -0.244312,-0.360249 -0.05306,-0.506979 0.292383,-0.556444 0.71946,-0.01417 1.003574,-0.830591 0.149267,-0.933182 -1.05763,-0.261028 -2.216484,-0.293992 -3.24702,0.104129 -0.842355,0.587424 0.615375,0.924177 1.051323,0.989371 0.347153,0.539068 0.71126,1.081769 1.595734,1.735981 1.439045,0.773849 1.666149,0.820881 4.959349,0.820881 0.02335,0.935732 -0.02349,1.887081 0,2.822808 -0.622191,0.169195 -1.458018,0.381381 -1.97592,0.822843 -0.151665,0.790227 0.95839,0.820103 1.507676,0.943258 1.115074,0.09928 2.740501,0.11009 3.761442,-0.441485 0.559131,-0.729133 -1.47613,-1.271471 -1.975919,-1.324616 l 0,-4.234211 c 1.924621,-0.102399 3.865861,-0.212677 5.591041,-1.227438 0.575219,-0.360292 1.020722,-0.96315 1.204513,-1.638346 l 1.108122,-0.147563 0,-0.868013 -3.57082,0 c 0,0.340428 0,0.497281 0,0.837708 l 0.965882,0.0909 c -0.115523,0.923909 -0.912444,1.552413 -1.687266,1.851488 -1.635553,0.395563 -2.364687,0.411105 -3.611472,0.395563 0,-1.39379 0,-2.59639 0,-3.990181 0.511836,-0.02176 1.492954,0.02289 1.975919,-0.07486 l -2.634559,-1.27794 z" />
    <path
       style="fill:#ffffff;fill-opacity:1;stroke:none;display:inline"
       id="path6670"
       d="m 23.573274,21.508466 c -0.835633,0.346892 -1.894945,0.754178 -2.634559,1.277939 0.594149,0.09931 1.368422,0.05304 1.97592,0.07486 0.0017,1.902086 0.139301,3.503514 0,5.401585 -0.326292,0 -1.425677,-0.01426 -1.880391,0 -1.412809,0 -2.349231,-0.337853 -2.920645,-1.455035 -0.244312,-0.360249 -0.05306,-0.506979 0.292383,-0.556444 0.71946,-0.01417 1.003574,-0.830591 0.149267,-0.933182 -1.05763,-0.261028 -2.216484,-0.293992 -3.24702,0.104129 -0.842355,0.587424 0.615375,0.924178 1.051323,0.989371 0.347153,0.539068 0.71126,1.081769 1.595734,1.735981 1.439045,0.773849 1.666149,0.820881 4.959349,0.820881 0.02335,0.935732 -0.02349,1.887081 0,2.822808 -0.622191,0.169195 -1.458018,0.381382 -1.97592,0.822843 -0.151665,0.790227 0.95839,0.820103 1.507676,0.943258 1.115074,0.09928 2.740501,0.11009 3.761442,-0.441485 0.559131,-0.729133 -1.47613,-1.271471 -1.975919,-1.324616 l 0,-4.234211 c 1.924621,-0.102399 3.865861,-0.212677 5.591041,-1.227438 0.575219,-0.360292 1.020722,-0.96315 1.204513,-1.638346 l 1.108122,-0.147563 0,-0.868013 -3.57082,0 c 0,0.340428 0,0.497281 0,0.837708 l 0.965882,0.0909 c -0.115523,0.923909 -0.912444,1.552413 -1.687266,1.851488 -1.635553,0.395563 -2.364687,0.411105 -3.611472,0.395563 0,-1.39379 0,-2.59639 0,-3.990181 0.511836,-0.02176 1.492954,0.02289 1.975919,-0.07486 l -2.634559,-1.277939 z" />
    <path
       style="fill:#aaaaaa;fill-opacity:1;stroke:none;display:inline"
       id="path2483"
       d="m 23.573274,21.864398 c -0.835633,0.346893 -1.894945,0.754179 -2.634559,1.277939 0.594149,0.09931 1.368422,0.05304 1.97592,0.07486 0.0017,1.902087 0.139301,3.503514 0,5.401585 -0.326292,0 -1.425677,-0.01426 -1.880391,0 -1.412809,0 -2.349231,-0.337853 -2.920645,-1.455035 -0.244312,-0.360249 -0.05306,-0.506979 0.292383,-0.556444 0.71946,-0.01417 1.003574,-0.830591 0.149267,-0.933181 -1.05763,-0.261028 -2.216484,-0.293993 -3.24702,0.104128 -0.842355,0.587425 0.615375,0.924178 1.051323,0.989371 0.347153,0.539068 0.71126,1.08177 1.595734,1.735981 1.439045,0.77385 1.666149,0.820882 4.959349,0.820882 0.02335,0.935731 -0.02349,1.88708 0,2.822807 -0.622191,0.169195 -1.458018,0.381382 -1.97592,0.822843 -0.151665,0.790227 0.95839,0.820103 1.507676,0.943259 1.115074,0.09928 2.740501,0.110089 3.761442,-0.441486 0.559131,-0.729132 -1.47613,-1.271471 -1.975919,-1.324616 l 0,-4.234211 c 1.924621,-0.102398 3.865861,-0.212676 5.591041,-1.227437 0.575219,-0.360293 1.020722,-0.96315 1.204513,-1.638347 l 1.108122,-0.147563 0,-0.868013 -3.57082,0 c 0,0.340428 0,0.497281 0,0.837708 l 0.965882,0.0909 c -0.115523,0.923908 -0.912444,1.552413 -1.687266,1.851488 -1.635553,0.395562 -2.364687,0.411105 -3.611472,0.395562 0,-1.39379 0,-2.596389 0,-3.990181 0.511836,-0.02176 1.492954,0.02289 1.975919,-0.07486 l -2.634559,-1.277939 z" />
  </g>
  <path
     style="opacity:0.5;fill:#ffffff;fill-opacity:1;fill-rule:nonzero;stroke:none;stroke-width:1;marker:none;visibility:visible;display:inline;overflow:visible;enable-background:accumulate"
     id="path2474"
     d="m 15.670265,6.7520365 c -2.084171,0 -3.775672,1.6915012 -3.775672,3.7756725 0,2.084171 1.691501,3.775672 3.775672,3.775672 2.084172,0 3.775673,-1.691501 3.775673,-3.775672 0,-2.0841713 -1.691501,-3.7756725 -3.775673,-3.7756725 z m 0,1.8878361 c 1.042086,0 1.887837,0.8457506 1.887837,1.8878364 0,1.042085 -0.845751,1.887836 -1.887837,1.887836 -1.042085,0 -1.887836,-0.845751 -1.887836,-1.887836 0,-1.0420858 0.845751,-1.8878364 1.887836,-1.8878364 z" />
  <path
     style="opacity:0.8;fill:none;stroke:url(#linearGradient3645);stroke-width:0.47195897;stroke-miterlimit:4;stroke-opacity:1"
     id="path3281"
     d="m 15.670265,6.5160565 c -2.223601,0 -4.011651,1.7880503 -4.011651,4.0116515 0,2.223602 1.78805,4.011653 4.011651,4.011653 2.223603,0 4.011652,-1.788051 4.011652,-4.011653 0,-2.2236012 -1.788049,-4.0116515 -4.011652,-4.0116515 l 0,0 0,0 z" />
  <g
     inkscape:groupmode="layer"
     id="layer2"
     inkscape:label="CD"
     style="display:none" />
  <g
     id="g3544"
     transform="translate(-4.6166244,-1.1841581)">
    <g
       id="g3621"
       transform="translate(6.8089431,-3.9634146)">
      <path
         d="m 32.333743,17.978643 -4.440854,5.123847 -4.418596,-5.123847 2.247793,0 c 0.755427,-2.011466 -0.795795,-3.291767 -2.594375,-3.291767 -1.278083,0 -3.012128,0.698464 -3.597878,2.435111 -0.304657,0.903265 -0.841268,0.50757 -0.820531,-0.277464 0.08027,-3.029245 2.340442,-5.451817 5.714513,-5.451817 3.374071,0 5.880498,2.602743 5.691174,6.585937 l 2.218754,0 z"
         id="path4972"
         style="fill:url(#linearGradient3625);fill-opacity:1;fill-rule:nonzero;stroke:#699536;stroke-width:0.60152;stroke-linecap:butt;stroke-linejoin:miter;stroke-miterlimit:4;stroke-opacity:1;stroke-dasharray:none;stroke-dashoffset:0;marker:none;visibility:visible;display:inline;overflow:visible" />
      <path
         d="m 30.999085,18.574444 -3.106196,3.564991 -3.086758,-3.564991 1.318311,0 c 1.156062,-2.558656 -0.540247,-4.41564 -2.830887,-4.452316 -1.649775,-0.128458 -3.129555,1.072196 -4.029769,2.158949 0.573678,-2.573025 2.357559,-4.289909 5.179081,-4.295214 2.850614,-0.0054 5.650213,2.310972 5.020025,6.588581 l 1.536193,0 z"
         id="path4980"
         style="opacity:0.35400002;fill:none;stroke:url(#linearGradient3627);stroke-width:0.60151994;stroke-linecap:butt;stroke-linejoin:miter;stroke-miterlimit:4;stroke-opacity:1;stroke-dasharray:none;stroke-dashoffset:0;marker:none;visibility:visible;display:inline;overflow:visible;enable-background:accumulate" />
    </g>
  </g>
  <g
     transform="matrix(0.20189465,0,0,0.20189465,2.275088,0.88932151)"
     id="Layer_1"
     i:layer="yes"
     i:dimmedPercent="50"
     i:rgbTrio="#4F008000FFFF">
    <g
       id="g7">
      <path
         style="fill:#d70751"
         i:knockout="Off"
         d="m 51.986,57.297 c -1.797,0.025 0.34,0.926 2.686,1.287 0.648,-0.506 1.236,-1.018 1.76,-1.516 -1.461,0.358 -2.948,0.366 -4.446,0.229"
         id="path9" />
      <path
         style="fill:#d70751"
         i:knockout="Off"
         d="m 61.631,54.893 c 1.07,-1.477 1.85,-3.094 2.125,-4.766 -0.24,1.192 -0.887,2.221 -1.496,3.307 -3.359,2.115 -0.316,-1.256 -0.002,-2.537 -3.612,4.546 -0.496,2.726 -0.627,3.996"
         id="path11" />
      <path
         style="fill:#d70751"
         i:knockout="Off"
         d="m 65.191,45.629 c 0.217,-3.236 -0.637,-2.213 -0.924,-0.978 0.335,0.174 0.6,2.281 0.924,0.978"
         id="path13" />
      <path
         style="fill:#d70751"
         i:knockout="Off"
         d="m 45.172,1.399 c 0.959,0.172 2.072,0.304 1.916,0.533 1.049,-0.23 1.287,-0.442 -1.916,-0.533"
         id="path15" />
      <path
         style="fill:#d70751"
         i:knockout="Off"
         d="M 47.088,1.932 46.41,2.072 47.041,2.016 47.088,1.932"
         id="path17" />
      <path
         style="fill:#d70751"
         i:knockout="Off"
         d="m 76.992,46.856 c 0.107,2.906 -0.85,4.316 -1.713,6.812 l -1.553,0.776 c -1.271,2.468 0.123,1.567 -0.787,3.53 -1.984,1.764 -6.021,5.52 -7.313,5.863 -0.943,-0.021 0.639,-1.113 0.846,-1.541 -2.656,1.824 -2.131,2.738 -6.193,3.846 L 60.16,65.878 C 50.142,70.591 36.226,61.251 36.409,48.507 c -0.107,0.809 -0.304,0.607 -0.526,0.934 -0.517,-6.557 3.028,-13.143 9.007,-15.832 5.848,-2.895 12.704,-1.707 16.893,2.197 -2.301,-3.014 -6.881,-6.209 -12.309,-5.91 -5.317,0.084 -10.291,3.463 -11.951,7.131 -2.724,1.715 -3.04,6.611 -4.227,7.507 -1.597,11.737 3.004,16.808 10.787,22.773 1.225,0.826 0.345,0.951 0.511,1.58 -2.586,-1.211 -4.954,-3.039 -6.901,-5.277 1.033,1.512 2.148,2.982 3.589,4.137 -2.438,-0.826 -5.695,-5.908 -6.646,-6.115 4.203,7.525 17.052,13.197 23.78,10.383 -3.113,0.115 -7.068,0.064 -10.566,-1.229 -1.469,-0.756 -3.467,-2.322 -3.11,-2.615 9.182,3.43 18.667,2.598 26.612,-3.771 2.021,-1.574 4.229,-4.252 4.867,-4.289 -0.961,1.445 0.164,0.695 -0.574,1.971 2.014,-3.248 -0.875,-1.322 2.082,-5.609 l 1.092,1.504 c -0.406,-2.696 3.348,-5.97 2.967,-10.234 0.861,-1.304 0.961,1.403 0.047,4.403 1.268,-3.328 0.334,-3.863 0.66,-6.609 0.352,0.923 0.814,1.904 1.051,2.878 -0.826,-3.216 0.848,-5.416 1.262,-7.285 -0.408,-0.181 -1.275,1.422 -1.473,-2.377 0.029,-1.65 0.459,-0.865 0.625,-1.271 -0.324,-0.186 -1.174,-1.451 -1.691,-3.877 0.375,-0.57 1.002,1.478 1.512,1.562 -0.328,-1.929 -0.893,-3.4 -0.916,-4.88 -1.49,-3.114 -0.527,0.415 -1.736,-1.337 -1.586,-4.947 1.316,-1.148 1.512,-3.396 2.404,3.483 3.775,8.881 4.404,11.117 -0.48,-2.726 -1.256,-5.367 -2.203,-7.922 0.73,0.307 -1.176,-5.609 0.949,-1.691 C 83.519,18.706 76.074,10.902 69.225,7.24 70.063,8.007 71.121,8.97 70.741,9.121 67.335,7.093 67.934,6.935 67.446,6.078 64.671,4.949 64.489,6.169 62.651,6.08 57.421,3.306 56.413,3.601 51.6,1.863 l 0.219,1.023 c -3.465,-1.154 -4.037,0.438 -7.782,0.004 -0.228,-0.178 1.2,-0.644 2.375,-0.815 -3.35,0.442 -3.193,-0.66 -6.471,0.122 0.808,-0.567 1.662,-0.942 2.524,-1.424 -2.732,0.166 -6.522,1.59 -5.352,0.295 -4.456,1.988 -12.37,4.779 -16.811,8.943 l -0.14,-0.933 c -2.035,2.443 -8.874,7.296 -9.419,10.46 l -0.544,0.127 c -1.059,1.793 -1.744,3.825 -2.584,5.67 -1.385,2.36 -2.03,0.908 -1.833,1.278 -2.724,5.523 -4.077,10.164 -5.246,13.97 0.833,1.245 0.02,7.495 0.335,12.497 -1.368,24.704 17.338,48.69 37.785,54.228 2.997,1.072 7.454,1.031 11.245,1.141 -4.473,-1.279 -5.051,-0.678 -9.408,-2.197 -3.143,-1.48 -3.832,-3.17 -6.058,-5.102 l 0.881,1.557 c -4.366,-1.545 -2.539,-1.912 -6.091,-3.037 l 0.941,-1.229 C 28.751,98.334 26.418,96.056 25.78,94.795 l -1.548,0.061 c -1.86,-2.295 -2.851,-3.949 -2.779,-5.23 l -0.5,0.891 c -0.567,-0.973 -6.843,-8.607 -3.587,-6.83 -0.605,-0.553 -1.409,-0.9 -2.281,-2.484 l 0.663,-0.758 c -1.567,-2.016 -2.884,-4.6 -2.784,-5.461 0.836,1.129 1.416,1.34 1.99,1.533 -3.957,-9.818 -4.179,-0.541 -7.176,-9.994 L 8.412,66.472 C 7.926,65.74 7.631,64.945 7.24,64.165 l 0.276,-2.75 C 4.667,58.121 6.719,47.409 7.13,41.534 7.415,39.145 9.508,36.602 11.1,32.614 l -0.97,-0.167 c 1.854,-3.234 10.586,-12.988 14.63,-12.486 1.959,-2.461 -0.389,-0.009 -0.772,-0.629 4.303,-4.453 5.656,-3.146 8.56,-3.947 3.132,-1.859 -2.688,0.725 -1.203,-0.709 5.414,-1.383 3.837,-3.144 10.9,-3.846 0.745,0.424 -1.729,0.655 -2.35,1.205 4.511,-2.207 14.275,-1.705 20.617,1.225 7.359,3.439 15.627,13.605 15.953,23.17 l 0.371,0.1 c -0.188,3.802 0.582,8.199 -0.752,12.238 l 0.908,-1.912"
         id="path19" />
      <path
         style="fill:#d70751"
         i:knockout="Off"
         d="m 32.372,59.764 -0.252,1.26 c 1.181,1.604 2.118,3.342 3.626,4.596 -1.085,-2.118 -1.891,-2.993 -3.374,-5.856"
         id="path21" />
      <path
         style="fill:#d70751"
         i:knockout="Off"
         d="m 35.164,59.654 c -0.625,-0.691 -0.995,-1.523 -1.409,-2.352 0.396,1.457 1.207,2.709 1.962,3.982 l -0.553,-1.63"
         id="path23" />
      <path
         style="fill:#d70751"
         i:knockout="Off"
         d="m 84.568,48.916 -0.264,0.662 c -0.484,3.438 -1.529,6.84 -3.131,9.994 1.77,-3.328 2.915,-6.968 3.395,-10.656"
         id="path25" />
      <path
         style="fill:#d70751"
         i:knockout="Off"
         d="M 45.527,0.537 C 46.742,0.092 48.514,0.293 49.803,0 48.123,0.141 46.451,0.225 44.8,0.438 l 0.727,0.099"
         id="path27" />
      <path
         style="fill:#d70751"
         i:knockout="Off"
         d="m 2.872,23.219 c 0.28,2.592 -1.95,3.598 0.494,1.889 1.31,-2.951 -0.512,-0.815 -0.494,-1.889"
         id="path29" />
      <path
         style="fill:#d70751"
         i:knockout="Off"
         d="M 0,35.215 C 0.563,33.487 0.665,32.449 0.88,31.449 -0.676,33.438 0.164,33.862 0,35.215"
         id="path31" />
    </g>
  </g>
</svg>
