/* XPM */
static char * usb_creator_gtk_xpm[] = {
"32 32 219 2",
"  	c None",
". 	c #D60650",
"+ 	c #D60750",
"@ 	c #D60651",
"# 	c #D70650",
"$ 	c #D60751",
"% 	c #D70750",
"& 	c #D70751",
"* 	c #D6044F",
"= 	c #E03F78",
"- 	c #9BBB56",
"; 	c #AAC562",
"> 	c #A2BF5A",
", 	c #94B64F",
"' 	c #FDF4F7",
") 	c #F2B3CA",
"! 	c #D70852",
"~ 	c #CADD69",
"{ 	c #DCEA71",
"] 	c #DAE96B",
"^ 	c #D5E664",
"/ 	c #D1E467",
"( 	c #B0CA61",
"_ 	c #D70651",
": 	c #D6044E",
"< 	c #FEFEFE",
"[ 	c #D9145A",
"} 	c #A5C05F",
"| 	c #BBD26C",
"1 	c #8AAC51",
"2 	c #92B354",
"3 	c #C3D866",
"4 	c #C9DC5A",
"5 	c #C2D75F",
"6 	c #D60551",
"7 	c #FFFFFF",
"8 	c #E44D83",
"9 	c #99B755",
"0 	c #BBD155",
"a 	c #BED355",
"b 	c #8BAD46",
"c 	c #D50650",
"d 	c #FFFEFF",
"e 	c #DE3571",
"f 	c #759E3A",
"g 	c #8BAD49",
"h 	c #B2C94D",
"i 	c #B6CC4D",
"j 	c #89AB45",
"k 	c #7AA23C",
"l 	c #D80046",
"m 	c #DE1F63",
"n 	c #DF2E6D",
"o 	c #9FBB50",
"p 	c #AAC342",
"q 	c #A9C241",
"r 	c #A7C24F",
"s 	c #CDCECE",
"t 	c #D2CCCE",
"u 	c #D2C1C8",
"v 	c #D0D6D4",
"w 	c #D0D7D5",
"x 	c #CFCFCF",
"y 	c #CECECE",
"z 	c #CCCCCC",
"A 	c #CBCBCB",
"B 	c #CACACB",
"C 	c #C9C9C9",
"D 	c #CBC9CE",
"E 	c #A2B683",
"F 	c #9DB943",
"G 	c #9EB940",
"H 	c #96AF6E",
"I 	c #C5C2C9",
"J 	c #BEBEBE",
"K 	c #BCBCBD",
"L 	c #B3B3B3",
"M 	c #DFDFE0",
"N 	c #ECEDEE",
"O 	c #EDEEEF",
"P 	c #EDEDEE",
"Q 	c #ECECED",
"R 	c #EBEBEC",
"S 	c #EEEEEF",
"T 	c #E8E8E9",
"U 	c #E6E6E7",
"V 	c #98B46C",
"W 	c #8CAB5A",
"X 	c #E2E2E2",
"Y 	c #E3E3E4",
"Z 	c #E2E2E3",
"` 	c #B7B7B7",
" .	c #C6C9C8",
"..	c #E9E9EA",
"+.	c #E1E1E2",
"@.	c #C0C0C0",
"#.	c #C8C8C9",
"$.	c #E7E7E8",
"%.	c #E8E7EA",
"&.	c #E2E3E2",
"*.	c #E4E4E5",
"=.	c #C3C3C4",
"-.	c #D6024D",
";.	c #CAA2B0",
">.	c #EDF2F1",
",.	c #EFEFF0",
"'.	c #B6B6B7",
").	c #AFAFAF",
"!.	c #B1B1B1",
"~.	c #B5B5B6",
"{.	c #E5E5E6",
"].	c #EDEDED",
"^.	c #D7D7D8",
"/.	c #AAAAAA",
"(.	c #D75C87",
"_.	c #E6A9BE",
":.	c #EBE3E7",
"<.	c #EFEFEF",
"[.	c #F0F0F1",
"}.	c #BDBDBE",
"|.	c #C1C1C1",
"1.	c #A8A8A8",
"2.	c #A7A7A7",
"3.	c #9D9D9D",
"4.	c #D6D6D7",
"5.	c #A9A9A9",
"6.	c #DEE2E1",
"7.	c #E9D9DF",
"8.	c #EAE2E6",
"9.	c #BABABB",
"0.	c #B5B5B5",
"a.	c #B8B8B8",
"b.	c #EAEAEA",
"c.	c #D3D3D3",
"d.	c #9E9E9E",
"e.	c #CCCCCD",
"f.	c #E0E0E1",
"g.	c #EAEAEB",
"h.	c #989898",
"i.	c #A2A2A3",
"j.	c #EEEEF0",
"k.	c #BDBDBD",
"l.	c #BFBFBF",
"m.	c #E2E2E1",
"n.	c #D2D2D3",
"o.	c #A0A0A0",
"p.	c #CFCFD0",
"q.	c #C5C5C5",
"r.	c #BBBBBB",
"s.	c #D9D9D9",
"t.	c #BCBCBC",
"u.	c #B4B4B4",
"v.	c #C1C1C2",
"w.	c #D1D1D2",
"x.	c #DDDDDE",
"y.	c #C4C4C4",
"z.	c #8D8D8D",
"A.	c #A4A4A4",
"B.	c #DCDCDD",
"C.	c #B8B8B9",
"D.	c #DADADB",
"E.	c #C4C4C5",
"F.	c #AFAFAE",
"G.	c #B6B6B6",
"H.	c #AEAEAE",
"I.	c #D9D9DA",
"J.	c #929292",
"K.	c #919191",
"L.	c #8F8F8F",
"M.	c #D8D8D9",
"N.	c #DEDEDF",
"O.	c #ABABAB",
"P.	c #CDCDCE",
"Q.	c #D3D3D4",
"R.	c #DBDBDC",
"S.	c #CBCBCC",
"T.	c #B2B2B2",
"U.	c #E0E0E0",
"V.	c #D4D4D4",
"W.	c #B4B4B5",
"X.	c #878789",
"Y.	c #ACACAC",
"Z.	c #ADADAD",
"`.	c #B9B9B9",
" +	c #BABABA",
".+	c #B7B7B8",
"++	c #B1B1B0",
"@+	c #888889",
"#+	c #5E5E60",
"$+	c #7F7F7F",
"%+	c #3B3B3B",
"&+	c #353535",
"*+	c #363636",
"=+	c #373737",
"-+	c #383838",
";+	c #343434",
">+	c #414141",
",+	c #808080",
"'+	c #5E5E5F",
")+	c #8C8C8C",
"!+	c #919190",
"~+	c #939393",
"{+	c #969696",
"]+	c #9A9A9A",
"^+	c #9B9B9B",
"/+	c #9C9C9C",
"(+	c #9F9F9E",
"_+	c #9F9F9F",
":+	c #9B9B9A",
"<+	c #999998",
"[+	c #979797",
"}+	c #949494",
"|+	c #8E8E8E",
"1+	c #545456",
"2+	c #505053",
"3+	c #4F4F52",
"4+	c #4E4E52",
"5+	c #4E4E51",
"6+	c #4F4F53",
"                                                                ",
"          . + @ # $ #                                           ",
"        . %         % &                                         ",
"      &               * &                                       ",
"    .                 = *       - ; > ,                         ",
"    @             '   ) !     ~ { ] ^ / (                       ",
"    _       :   <       [   } | 1 2 3 4 5                       ",
"            6   7       8   9         0 a b                     ",
"            c     d   e           f g h i j k                   ",
"    #         l   m n               o p q r                     ",
"    $       s t u v w x y z A B C D E F G H I J K L             ",
"      &     M N O P P P Q R R S Q T U V W X Y Z X `             ",
"      +    ...Q P S S P Q Q +.@.#.Z $.%.&.*.Y Z +.=.            ",
"        -.;.>.Q P S ,.S P ..'.).!.~.T {.].Q Q Y Z ^./.          ",
"          (._.:.P ,.<.[.P P [.}.|.P $.R 1.2.3.4.+.*.5.          ",
"          6.7.8.Y 9.0.a.b.Q P J @...$.R c.d.e.f.+.Z @.          ",
"          Z g.g.+.h.2.i.j.Q Q k.l.m.n.'.o.K U Y +.+.p.          ",
"        q.{.....g.,.r.1.s.b.g.t.u.v.w.p.x.U Y Y +.+.^.          ",
"        y.T T T ....Q |.z.o.A.5.|.R $.U {.*.Y Y +.+.B.u.        ",
"        A $.$.T T ....g.R ....C.@.T U U *.*.Y Z +.+.f.`         ",
"      u.D.{.U U $.$.$.$.T ....a.l.T U {.*.Y Z Z +.f.f.E.        ",
"      F.U *.{.{.U U $.$.$.4.G.H.).` I.{.Y Y Z Z f.f.M 4.1.      ",
"      k.{.Y *.*.{.{.{.{.U I.z.J.K.L.M.*.Y Z +.+.f.M N.+.O.      ",
"      P.Y Z Y Y *.*.{.{.{.{.$.$.U U *.Y Z Z +.+.M M N.M l.      ",
"      Q.x.N.N.M M M f.f.f.f.f.f.f.M M M N.x.x.B.B.R.D.D.S.      ",
"    T.^.N.M M U.f.f.f.+.+.+.+.+.f.f.f.M M M N.x.x.B.B.R.V.      ",
"    ` M +.Z Z Y Z Y Y Y Y Y Y Y Y Y Z Z Z +.+.+.f.f.M M B.W.    ",
"    X.5.Y.Z.).L G.` `. +t.k.J l.l.J J t.r.`..+0.u.T.++).O.@+    ",
"    #+$+%+&+*+&+*+*+*+*+=+=+-+=+=+=+=+=+*+*+*+*+&+&+;+>+,+'+    ",
"      )+!+L.!+~+{+h.]+^+/+(+_+o.o._+d.3./+:+<+[+}+J.!+~+|+      ",
"      1+2+2+2+3+3+3+3+3+4+5+5+5+5+5+5+5+4+3+3+3+3+6+2+2+1+      ",
"                                                                "};
