/* XPM */
static char * usb_creator_gtk_16x16_xpm[] = {
"16 16 96 2",
"  	c None",
". 	c #D50650",
"+ 	c #D60650",
"@ 	c #D6064F",
"# 	c #D50049",
"$ 	c #D50550",
"% 	c #F4C0D3",
"& 	c #C2D766",
"* 	c #BAD25E",
"= 	c #D23269",
"- 	c #A6C15E",
"; 	c #BBD159",
"> 	c #ADC754",
", 	c #E6457E",
"' 	c #A3BE49",
") 	c #A5C048",
"! 	c #D60750",
"~ 	c #D9DDDD",
"{ 	c #DEE2E1",
"] 	c #DDE2E1",
"^ 	c #DBDBDB",
"/ 	c #DCDCDD",
"( 	c #DCDBDF",
"_ 	c #ABBF82",
": 	c #A2B973",
"< 	c #D4D1D7",
"[ 	c #C2C2C2",
"} 	c #C96D8D",
"| 	c #EDF2F1",
"1 	c #EDEDEE",
"2 	c #EEEEEF",
"3 	c #BABABB",
"4 	c #BEBEBF",
"5 	c #EAE9ED",
"6 	c #EFEEF1",
"7 	c #E7E7E9",
"8 	c #D7D7D8",
"9 	c #D6A4B6",
"0 	c #E9CFD9",
"a 	c #DFE0E0",
"b 	c #D2D2D2",
"c 	c #EDEDED",
"d 	c #D8D8D9",
"e 	c #A8A8A7",
"f 	c #C4C4C5",
"g 	c #E5E5E6",
"h 	c #D6D6D7",
"i 	c #EAEBEB",
"j 	c #D4D4D5",
"k 	c #A1A1A2",
"l 	c #F0F0F1",
"m 	c #C3C3C3",
"n 	c #C6C6C7",
"o 	c #C5C5C6",
"p 	c #E1E1E2",
"q 	c #C9C9CA",
"r 	c #D6D6D6",
"s 	c #E7E7E8",
"t 	c #E8E8E9",
"u 	c #E4E4E5",
"v 	c #B9B9BA",
"w 	c #B7B7B8",
"x 	c #D8D8D8",
"y 	c #E2E2E3",
"z 	c #C9C9C9",
"A 	c #E6E6E7",
"B 	c #E3E3E4",
"C 	c #E0E0E1",
"D 	c #D6D6D8",
"E 	c #B7B7B7",
"F 	c #B6B6B7",
"G 	c #DFDFE0",
"H 	c #DEDEDF",
"I 	c #DDDDDE",
"J 	c #DBDBDC",
"K 	c #DADADB",
"L 	c #C6C6C6",
"M 	c #B2B2B3",
"N 	c #CECECF",
"O 	c #D1D1D2",
"P 	c #D9D9D9",
"Q 	c #D3D3D4",
"R 	c #CFCFCF",
"S 	c #B1B1B2",
"T 	c #757576",
"U 	c #5E5E5D",
"V 	c #5F5F5F",
"W 	c #626262",
"X 	c #646464",
"Y 	c #666666",
"Z 	c #676767",
"` 	c #656564",
" .	c #636362",
"..	c #60605F",
"+.	c #606060",
"@.	c #777778",
"      . +                       ",
"    @     #                     ",
"  $       %     & *             ",
"            = -   ; >           ",
"          ,       ' )           ",
"  !   ~ { ] ^ / ( _ : < [       ",
"    } | 1 2 1 3 4 5 6 7 8       ",
"    9 0 a b c d d 2 e f g       ",
"    h i j k l h m n o g p q     ",
"    r s t u v w x s u y p z     ",
"    u g A A u [ f B B y C D     ",
"    g B u g g E F B y p G p     ",
"  z H H G G C G G H I / J K L   ",
"  M N O j h x P P x r Q O R S   ",
"  T U V W X Y Z Z Y `  ...+.@.  ",
"                                "};
