/* XPM */
static char * liguidsoap_32_xpm[] = {
"14 32 320 2",
"  	c None",
". 	c #3A4947",
"+ 	c #546663",
"@ 	c #5F6D6B",
"# 	c #5D6B68",
"$ 	c #738885",
"% 	c #636F69",
"& 	c #B2BFBD",
"* 	c #687777",
"= 	c #39413F",
"- 	c #A1B7B5",
"; 	c #3D4E50",
"> 	c #1F2525",
", 	c #AFC6C6",
"' 	c #7D9996",
") 	c #324446",
"! 	c #0B1012",
"~ 	c #0E1211",
"{ 	c #AAC8CB",
"] 	c #819897",
"^ 	c #324245",
"/ 	c #0B1111",
"( 	c #030605",
"_ 	c #A2BCBF",
": 	c #687B7C",
"< 	c #253332",
"[ 	c #0A0F0E",
"} 	c #040706",
"| 	c #353E3A",
"1 	c #56655D",
"2 	c #1A2019",
"3 	c #0F150F",
"4 	c #36423A",
"5 	c #3F4D4B",
"6 	c #52635B",
"7 	c #1E231C",
"8 	c #232924",
"9 	c #4D5B58",
"0 	c #2E2B1B",
"a 	c #29230B",
"b 	c #332506",
"c 	c #2A1702",
"d 	c #322206",
"e 	c #29230C",
"f 	c #2F2C1E",
"g 	c #352D13",
"h 	c #624707",
"i 	c #8B660A",
"j 	c #996A0B",
"k 	c #854B04",
"l 	c #92640A",
"m 	c #815D09",
"n 	c #573F06",
"o 	c #332C11",
"p 	c #483F1C",
"q 	c #83630B",
"r 	c #AC7F10",
"s 	c #BA8810",
"t 	c #C1840F",
"u 	c #A66205",
"v 	c #B57D0C",
"w 	c #B0800E",
"x 	c #9F760D",
"y 	c #725308",
"z 	c #42391B",
"A 	c #785C0C",
"B 	c #B5911D",
"C 	c #D5C53C",
"D 	c #DAC033",
"E 	c #E09F12",
"F 	c #BA7005",
"G 	c #CD900D",
"H 	c #CC9311",
"I 	c #B88810",
"J 	c #96710C",
"K 	c #5B4608",
"L 	c #4D4314",
"M 	c #9C7B15",
"N 	c #D6C141",
"O 	c #E2E261",
"P 	c #E4CF3E",
"Q 	c #E3AF14",
"R 	c #D07D06",
"S 	c #D49B0F",
"T 	c #E0A612",
"U 	c #D69D14",
"V 	c #B18610",
"W 	c #7D5F0B",
"X 	c #49391B",
"Y 	c #67571A",
"Z 	c #B58E19",
"` 	c #E0D14F",
" .	c #E1E365",
"..	c #E1CD3B",
"+.	c #E3BD17",
"@.	c #D88808",
"#.	c #D69E0F",
"$.	c #E2AB13",
"%.	c #DFA214",
"&.	c #D49B14",
"*.	c #AA7B0F",
"=.	c #875510",
"-.	c #725D1B",
";.	c #C0941A",
">.	c #DED357",
",.	c #DFDD6B",
"'.	c #DCC838",
").	c #D7B617",
"!.	c #C88709",
"~.	c #D1990D",
"{.	c #DBAF14",
"].	c #E0A814",
"^.	c #E4AA16",
"/.	c #C98E11",
"(.	c #A36A0B",
"_.	c #735D16",
":.	c #C7971B",
"<.	c #935919",
"[.	c #824016",
"}.	c #6A310C",
"|.	c #431704",
"1.	c #341102",
"2.	c #1F0801",
"3.	c #100401",
"4.	c #190D02",
"5.	c #65530C",
"6.	c #D49313",
"7.	c #C88416",
"8.	c #785F16",
"9.	c #C8981B",
"0.	c #8E5118",
"a.	c #7D3E17",
"b.	c #4F250A",
"c.	c #331204",
"d.	c #230B02",
"e.	c #160601",
"f.	c #0B0301",
"g.	c #524308",
"h.	c #D59414",
"i.	c #C3811D",
"j.	c #755D12",
"k.	c #C7991A",
"l.	c #844B16",
"m.	c #904717",
"n.	c #6A2F0C",
"o.	c #351303",
"p.	c #2A0D02",
"q.	c #110401",
"r.	c #0E0401",
"s.	c #554609",
"t.	c #D29113",
"u.	c #AC5F05",
"v.	c #655511",
"w.	c #C5961B",
"x.	c #884B17",
"y.	c #904416",
"z.	c #692E0B",
"A.	c #371404",
"B.	c #220B02",
"C.	c #150601",
"D.	c #110501",
"E.	c #594A09",
"F.	c #D29012",
"G.	c #AB6206",
"H.	c #68560F",
"I.	c #C29319",
"J.	c #8C4C16",
"K.	c #934615",
"L.	c #6B2F0A",
"M.	c #3E1604",
"N.	c #1D0802",
"O.	c #1C0801",
"P.	c #1C0701",
"Q.	c #120501",
"R.	c #5C4C0A",
"S.	c #AF6408",
"T.	c #65530E",
"U.	c #C09219",
"V.	c #844714",
"W.	c #884414",
"X.	c #54260B",
"Y.	c #331304",
"Z.	c #190601",
"`.	c #5C4A09",
" +	c #CF8C12",
".+	c #AD701C",
"++	c #624F0D",
"@+	c #BB8D17",
"#+	c #824515",
"$+	c #854416",
"%+	c #4B2209",
"&+	c #321003",
"*+	c #240A01",
"=+	c #180701",
"-+	c #594809",
";+	c #C88711",
">+	c #A25905",
",+	c #62500D",
"'+	c #BB8C16",
")+	c #C6B743",
"!+	c #CEC649",
"~+	c #CDA823",
"{+	c #CD980E",
"]+	c #CD980D",
"^+	c #CB970D",
"/+	c #AF6804",
"(+	c #AC710A",
"_+	c #C48D11",
":+	c #C68710",
"<+	c #A86414",
"[+	c #6F540C",
"}+	c #B98A15",
"|+	c #DFD64E",
"1+	c #E4E355",
"2+	c #E2B325",
"3+	c #E2A30F",
"4+	c #E09F0C",
"5+	c #DE9E0C",
"6+	c #C37A07",
"7+	c #C47A09",
"8+	c #D99510",
"9+	c #B16B08",
"0+	c #72540B",
"a+	c #B78714",
"b+	c #DDD54C",
"c+	c #E2E254",
"d+	c #DFB224",
"e+	c #E3A00F",
"f+	c #E19A0C",
"g+	c #DF990C",
"h+	c #CB8409",
"i+	c #B87006",
"j+	c #D4920F",
"k+	c #BD810E",
"l+	c #AD6907",
"m+	c #70530A",
"n+	c #B18413",
"o+	c #DDD149",
"p+	c #E2DF53",
"q+	c #E0AE21",
"r+	c #D9990C",
"s+	c #E1970C",
"t+	c #DE950B",
"u+	c #D28E0B",
"v+	c #B26A05",
"w+	c #CE8C0E",
"x+	c #B67C0D",
"y+	c #A66506",
"z+	c #6A4F09",
"A+	c #AB8011",
"B+	c #DAC845",
"C+	c #E1D24B",
"D+	c #DDA81D",
"E+	c #CA8D0B",
"F+	c #DF960C",
"G+	c #D8910B",
"H+	c #C98B0B",
"I+	c #B46D06",
"J+	c #C7810B",
"K+	c #B1770B",
"L+	c #9C5D06",
"M+	c #654B08",
"N+	c #A77F10",
"O+	c #D9C343",
"P+	c #DFCE45",
"Q+	c #D8A41C",
"R+	c #C78B0A",
"S+	c #D18B0A",
"T+	c #D28C0A",
"U+	c #C9890A",
"V+	c #AF7008",
"W+	c #BA7508",
"X+	c #AC750B",
"Y+	c #995E08",
"Z+	c #6F530B",
"`+	c #A98214",
" @	c #DAAF34",
".@	c #E1BA36",
"+@	c #DDA219",
"@@	c #D8940E",
"#@	c #DC950D",
"$@	c #D8920C",
"%@	c #CD8D0D",
"&@	c #C17D0B",
"*@	c #B16C07",
"=@	c #C0820C",
"-@	c #A46B16",
";@	c #795911",
">@	c #BB8D1A",
",@	c #DEA822",
"'@	c #E0B222",
")@	c #E1AF19",
"!@	c #E3A913",
"~@	c #E3AA13",
"{@	c #E3A512",
"]@	c #DF9E12",
"^@	c #D39311",
"/@	c #AA6306",
"(@	c #C5830C",
"_@	c #7C6032",
":@	c #634F1B",
"<@	c #A67E16",
"[@	c #D7A620",
"}@	c #D1AA1F",
"|@	c #BA9315",
"1@	c #B28A11",
"2@	c #B88C0F",
"3@	c #B58910",
"4@	c #AC810F",
"5@	c #BC8A11",
"6@	c #894F05",
"7@	c #5B3E0A",
"8@	c #AF9754",
"9@	c #B9A965",
"0@	c #918562",
"a@	c #7A6F5A",
"b@	c #807057",
"c@	c #7D755F",
"d@	c #938963",
"e@	c #968A52",
"              . + @ # $ %   ",
"            & * =           ",
"            - ; >           ",
"          , ' ) ! ~         ",
"          { ] ^ / (         ",
"          _ : < [ }         ",
"          | 1 2 3 4         ",
"          5 6 7 8 9         ",
"        0 a b c d e f       ",
"      g h i j k l m n o     ",
"    p q r s t u v w x y z   ",
"    A B C D E F G H I J K   ",
"  L M N O P Q R S T U V W X ",
"  Y Z `  ...+.@.#.$.%.&.*.=.",
"  -.;.>.,.'.).!.~.{.].^./.(.",
"  _.:.<.[.}.|.1.2.3.4.5.6.7.",
"  8.9.0.a.b.c.d.e.f.f.g.h.i.",
"  j.k.l.m.n.o.p.e.q.r.s.t.u.",
"  v.w.x.y.z.A.B.C.C.D.E.F.G.",
"  H.I.J.K.L.M.N.O.P.Q.R.F.S.",
"  T.U.V.W.X.Y.d.e.Z.q.`. +.+",
"  ++@+#+$+%+&+*+=+Q.r.-+;+>+",
"  ,+'+)+!+~+{+]+^+/+(+_+:+<+",
"  [+}+|+1+2+3+4+5+6+7+8+t 9+",
"  0+a+b+c+d+e+f+g+h+i+j+k+l+",
"  m+n+o+p+q+r+s+t+u+v+w+x+y+",
"  z+A+B+C+D+E+F+G+H+I+J+K+L+",
"  M+N+O+P+Q+R+S+T+U+V+W+X+Y+",
"  Z+`+ @.@+@@@#@$@%@&@*@=@-@",
"  ;@>@,@'@)@!@~@{@]@^@/@(@_@",
"  :@<@[@}@|@1@2@3@4@5@6@7@  ",
"      8@9@0@a@b@c@d@e@      "};
