/* XPM */
static char *network[] = {
/* columns rows colors chars-per-pixel */
"32 32 252 2",
"   c black",
".  c #010101",
"X  c #020202",
"o  c #030303",
"O  c #040404",
"+  c #050505",
"@  c #060606",
"#  c #070707",
"$  c #080808",
"%  c #0A0A0A",
"&  c #0B0B0B",
"*  c #0C0C0C",
"=  c #0D0D0D",
"-  c #0E0E0E",
";  c #0F0F0F",
":  c #101010",
">  c #111111",
",  c #151515",
"<  c #161616",
"1  c #171717",
"2  c #1C1C1C",
"3  c #1E1E1E",
"4  c #1F1F1F",
"5  c #242424",
"6  c #252525",
"7  c #272727",
"8  c #282828",
"9  c #2C2C2C",
"0  c #2E2E2E",
"q  c #303030",
"w  c #323232",
"e  c #333333",
"r  c #373737",
"t  c #383838",
"y  c #3B3F3C",
"u  c #3C3C3C",
"i  c #3D3D3D",
"p  c #3E3E3E",
"a  c #3F3F3F",
"s  c #414442",
"d  c #454C46",
"f  c #494949",
"g  c #4B4B4B",
"h  c #4C4C4C",
"j  c #4D4D4D",
"k  c #4E4E4E",
"l  c #4F5450",
"z  c #505050",
"x  c #515151",
"c  c #525252",
"v  c #535353",
"b  c #555555",
"n  c #565756",
"m  c #575757",
"M  c #555B56",
"N  c #565B57",
"B  c #575D59",
"V  c #585958",
"C  c #595A59",
"Z  c #5A5A5A",
"A  c #5B5B5B",
"S  c #595D5A",
"D  c #585E5A",
"F  c #5C5C5C",
"G  c #5D5E5D",
"H  c #5E5E5E",
"J  c #5F5F5F",
"K  c #5B605C",
"L  c #606060",
"P  c #626262",
"I  c #636563",
"U  c #676767",
"Y  c #696969",
"T  c #6B6B6B",
"R  c #6E6E6E",
"E  c #707070",
"W  c #737373",
"Q  c #777777",
"!  c #797979",
"~  c #7A7A7A",
"^  c #7C7C7C",
"/  c #7D7D7D",
"(  c #7E7E7E",
")  c #758077",
"_  c #78817A",
"`  c #78827A",
"'  c #79827B",
"]  c #7C817D",
"[  c #7C847E",
"{  c #7D857E",
"}  c #7E8780",
"|  c #808080",
" . c #828282",
".. c #838283",
"X. c #838383",
"o. c #848484",
"O. c #858484",
"+. c #858585",
"@. c #868686",
"#. c #878787",
"$. c #818983",
"%. c #848887",
"&. c #858987",
"*. c #878B89",
"=. c #868D88",
"-. c #888888",
";. c #888B89",
":. c #8A8A8A",
">. c #8B8B8B",
",. c #888C8A",
"<. c #888D8A",
"1. c #8C8C8C",
"2. c #8D8D8D",
"3. c #8E8E8E",
"4. c #8A8C90",
"5. c #89908A",
"6. c #8C928E",
"7. c #8D938E",
"8. c #8E938F",
"9. c #909090",
"0. c #919191",
"q. c #929292",
"w. c #939393",
"e. c #909194",
"r. c #909691",
"t. c #929793",
"y. c #929596",
"u. c #949494",
"i. c #969696",
"p. c #979797",
"a. c #949895",
"s. c #999999",
"d. c #98999A",
"f. c #9A9A9A",
"g. c #9B9B9B",
"h. c #9A9C9B",
"j. c #9C9B9C",
"k. c #9C9C9C",
"l. c #9D9D9D",
"z. c #9E9E9E",
"x. c #9F9F9F",
"c. c #9CA09C",
"v. c #A0A0A0",
"b. c #A1A1A1",
"n. c #A2A2A2",
"m. c #A4A4A4",
"M. c #A6A6A6",
"N. c #A7A7A7",
"B. c #A8A8A8",
"V. c #A9A9A9",
"C. c #AAAAAA",
"Z. c #ABABAB",
"A. c #ACACAC",
"S. c #AEAEAE",
"D. c #AFAFAF",
"F. c #AFAEBE",
"G. c #B0B0B0",
"H. c #B2B2B2",
"J. c #B3B3B3",
"K. c #B4B4B4",
"L. c #B5B5B5",
"P. c #B6B6B6",
"I. c #BBBBBB",
"U. c #BCBCBC",
"Y. c #BFBFBF",
"T. c #B4B2C1",
"R. c #B6B5C3",
"E. c #BCB9C8",
"W. c #C0C0C0",
"Q. c #C2C2C2",
"!. c #C3C3C3",
"~. c #C4C4C4",
"^. c #C5C5C5",
"/. c #C6C6C6",
"(. c #C7C7C7",
"). c #C1C0CC",
"_. c #C1C4CB",
"`. c #C3CBC5",
"'. c #C4CBC7",
"]. c #C5CCC7",
"[. c #C6CEC7",
"{. c #C9C9C9",
"}. c #CACACA",
"|. c #CBCBCB",
" X c #C8CFC9",
".X c #CCCCCC",
"XX c #CDCDCD",
"oX c #CECECE",
"OX c #CFCFCF",
"+X c #C7C5D2",
"@X c #C9C9D2",
"#X c #CACDD4",
"$X c #C3D0C6",
"%X c #C7D3CA",
"&X c #CCD9CF",
"*X c #CFDAD2",
"=X c #D0D0D0",
"-X c #D1D1D1",
";X c #D2D2D2",
":X c #D3D3D3",
">X c #D4D4D4",
",X c #D6D6D6",
"<X c #D7D7D7",
"1X c #D0D0D8",
"2X c #D7D6DE",
"3X c #D7D6DF",
"4X c #D0DBD2",
"5X c #D1DAD4",
"6X c #D2DDD5",
"7X c #D5DAD6",
"8X c #D3D9DA",
"9X c #D6DBDD",
"0X c #D8D8D8",
"qX c #D9D9D9",
"wX c #DADADA",
"eX c #DBDBDB",
"rX c #D9DBDF",
"tX c #DCDCDC",
"yX c #DDDDDD",
"uX c #DEDEDE",
"iX c #D5D7E0",
"pX c #DBDAE2",
"aX c #DBDCE3",
"sX c #DDDEE3",
"dX c #D9E2DC",
"fX c #DAE1DE",
"gX c #D9E4DC",
"hX c #DCE3DF",
"jX c #DCE0E0",
"kX c #DCE3E0",
"lX c #DDE5E0",
"zX c #DEE5E2",
"xX c #DFE6E2",
"cX c #E0E0E0",
"vX c #E3E3E3",
"bX c #E4E4E4",
"nX c #E3E3EB",
"mX c #E3E7EB",
"MX c #E0E8E3",
"NX c #E2E8E4",
"BX c #E4E8E9",
"VX c #E9E9E9",
"CX c #E8EBEB",
"ZX c #EBEBEB",
"AX c #EAEBEE",
"SX c #ECECEC",
"DX c #EBF0ED",
"FX c #EBF1EC",
"GX c #F0F0F0",
"HX c #F1F2F5",
"JX c #F3F8F5",
"KX c None",
/* pixels */
"KXKXKXKXKXKXKXKXKXKXKXKXKXKXKXKXKXKXKXKXKXKXKXKXKXKXKXKXKXKXKXKX",
"KXKXKXKXKXKXKXKXKXKXKXKXKXKXKX  o > < < < < < < < < , , =   KXKX",
"KXKXKXKXKXKXKXKXKXKXKXKXKXKXKX  0 P.=X|.|.{.(.~.Q.E.U.^.~       ",
"KXKXKXKXKXKXKXKXKXKXKX          a cXn.n G A C V m n g J.t.      ",
"KXKXKXKXKXKXKXKXKXKXKX$ h s +   a eX#.-.8X X`.'.'. X{ x.t.      ",
"KXKXKXKXKXKXKXKXKXKXKX1 :X-.+   u wX#.1.iX#XdXsX@X_.<.x.w.      ",
"KX                  KX& W u     u wX+.d.HXAXNX2XT.F.%.z.q.      ",
"KX  t x.n.x.x.x.m       z z     t wX+.t.FXNXdXpX+X1X<.z.q.      ",
"KX  C GXY.|.OXyXU       z z     u <XX.$.&X$X%XhX5X5X[ z.3.      ",
"KX  n VXH.3.H.:XC       z U < > a =X3.s K S S S M M a M.>.      ",
"KX  n ZX{.I.cXyXn       z n./ T 0 z.bX<X:X=X=X=XoXoXOX=X{       ",
"KX  n VX~.Q.|.{.z       z z       r n.B.D.B.B.B.n.M.C.f.q       ",
"KX  n SXbXvXJ.P.z       z z         = = = = ; = = = ; =         ",
"KX  z D.T Q R J 8       z z                                     ",
"KX  z T 3 5 3 1 3       z z                                   KX",
"KX  n J.#.-.>.-.r       v z     3 / z.z.z.f.d.p.p.t.q.q.m   KXKX",
"KX  v ,Xw.t.d.z.k 7 g k -.z     a yXE.3.-.-.#.+. . .{ /.w.      ",
"KX  m <XN.B.C.M.g 5 g z +.z     t yX;.I c.t.7.8.8.8.A x.w.      ",
"KX  b eXJ.J.P.D.a       z z     u wX#.a.mX9XNXBXpX8X7.x.w.      ",
"KX  h p.A F G G 5       z z     u eX@.q.nXsXhX2XR.F.%.c.q.      ",
"KX  $ &   + o O         z z     u <XX.h.JXDXhX2XE.).<.x.q.      ",
"KX                      z z     u <XX.5.gX4X6XZXjXhX=.z.3.      ",
"KX                      z n     u <X .l } ' ' [ ' ) d x.3.      ",
"KXKX                KX  z n./ E a D.{.z.z.z.h.z.g.z.z.~.+.      ",
"KXKXKXKXKXKXKXKXKXKXKX  z U < 1 + L =X,X,X=X=X=X|.|.|.I.z       ",
"KXKXKXKXKXKXKXKXKXKXKX  z z       + e t t t t t t t a e +       ",
"KXKXKXKXKXKXKXKXKXKXKX  z k                                     ",
"KXKXKXKXKXKXKXKXKXKXKX= D.q.+                                 KX",
"KXKXKXKXKXKXKXKXKXKXKX1 ~.! $                                 KX",
"KXKXKXKXKXKXKXKXKXKX  + e ;       KXKXKXKXKX        KXKXKXKXKXKX",
"KXKXKXKXKXKXKXKXKXKX              KXKXKXKXKXKXKXKXKXKXKXKXKXKXKX",
"KXKXKXKXKXKXKXKXKXKX              KXKXKXKXKXKXKXKXKXKXKXKXKXKXKX"
};
