/* XPM */
static char *services[] = {
/* columns rows colors chars-per-pixel */
"32 32 223 2",
"   c #000000",
".  c #010101",
"X  c #020202",
"o  c #030303",
"O  c #050505",
"+  c #060606",
"@  c #070707",
"#  c #080807",
"$  c #080808",
"%  c #090908",
"&  c #0B0B0A",
"*  c #0B0B0B",
"=  c #0E0D0D",
"-  c #0E0E0E",
";  c #0F0F0E",
":  c #131312",
">  c #151513",
",  c #141414",
"<  c #151515",
"1  c #171717",
"2  c #191917",
"3  c #1B1A18",
"4  c #1A1A1A",
"5  c #1C1B19",
"6  c #1C1C1B",
"7  c #1D1C1B",
"8  c #1C1C1C",
"9  c #1D1D1D",
"0  c #1E1E1E",
"q  c #212121",
"w  c #232222",
"e  c #242421",
"r  c #252422",
"t  c #262625",
"y  c #262626",
"u  c #292827",
"i  c #282828",
"p  c #2A2A2A",
"a  c #2B2B2B",
"s  c #2D2D29",
"d  c #2C2C2C",
"f  c #31302E",
"g  c #33322F",
"h  c #333333",
"j  c #353431",
"k  c #353432",
"l  c #343434",
"z  c #393834",
"x  c #3D3C37",
"c  c #383838",
"v  c #393939",
"b  c #3A3938",
"n  c #3B3B39",
"m  c #3B3B3B",
"M  c #3F3D39",
"N  c #3C3C3C",
"B  c #3D3D3D",
"V  c #3E3E3E",
"C  c #3F3F3E",
"Z  c #3F3F3F",
"A  c #404040",
"S  c #414141",
"D  c #464540",
"F  c #454545",
"G  c #474747",
"H  c #484742",
"J  c #4E4D49",
"K  c #4D4D4D",
"L  c #4E4E4E",
"P  c #4F4F4F",
"I  c #504F4B",
"U  c #50504F",
"Y  c #53524D",
"T  c #505050",
"R  c #525252",
"E  c #535352",
"W  c #535353",
"Q  c #565550",
"!  c #575652",
"~  c #545454",
"^  c #555555",
"/  c #565656",
"(  c #575757",
")  c #595752",
"_  c #585755",
"`  c #585857",
"'  c #5A5954",
"]  c #5B5A55",
"[  c #585858",
"{  c #595959",
"}  c #5A5A5A",
"|  c #5D5C58",
" . c #5C5C5A",
".. c #5C5C5B",
"X. c #5D5D5D",
"o. c #5E5E5E",
"O. c #62605C",
"+. c #62615E",
"@. c #64625D",
"#. c #64625F",
"$. c #64635E",
"%. c #68655E",
"&. c #606060",
"*. c #656563",
"=. c #676561",
"-. c #646464",
";. c #656565",
":. c #666665",
">. c #666666",
",. c #676767",
"<. c #6C6A64",
"1. c #6D6B66",
"2. c #686868",
"3. c #6B6B6B",
"4. c #6C6C6C",
"5. c #6E6E6E",
"6. c #71706B",
"7. c #72706A",
"8. c #73726D",
"9. c #73726E",
"0. c #77756D",
"q. c #707070",
"w. c #727272",
"e. c #777670",
"r. c #797874",
"t. c #7B7A76",
"y. c #7F7D78",
"u. c #7E7E7E",
"i. c #817F7A",
"p. c #82817C",
"a. c #83827D",
"s. c #85837C",
"d. c #86847E",
"f. c #89877F",
"g. c #828282",
"h. c #848484",
"j. c #858585",
"k. c #868686",
"l. c #878787",
"z. c #898882",
"x. c #8A8882",
"c. c #898884",
"v. c #8B8A85",
"b. c #8C8B86",
"n. c #8E8C86",
"m. c #898989",
"M. c #8A8A8A",
"N. c #8D8C8A",
"B. c #8D8D8D",
"V. c #93918C",
"C. c #96948C",
"Z. c #909090",
"A. c #939393",
"S. c #949494",
"D. c #969696",
"F. c #9F9F9D",
"G. c #A6A59F",
"H. c #A3A3A3",
"J. c #A6A6A6",
"K. c #A7A7A7",
"L. c #A8A7A1",
"P. c #ACACAC",
"I. c #AFAFAF",
"U. c #B1B1B1",
"Y. c #B2B2B2",
"T. c #B3B3B3",
"R. c #B4B4B4",
"E. c #B5B5B5",
"W. c #B6B6B6",
"Q. c #B7B7B7",
"!. c #B8B8B8",
"~. c #B9B9B9",
"^. c #BABABA",
"/. c #BBBBBB",
"(. c #BCBCBC",
"). c #BDBDBD",
"_. c #BEBEBE",
"`. c #BFBFBF",
"'. c #C0C0C0",
"]. c #C1C1C1",
"[. c #C2C2C2",
"{. c #C3C3C3",
"}. c #C4C4C4",
"|. c #C5C5C5",
" X c #C6C6C6",
".X c #C7C7C7",
"XX c #C8C8C8",
"oX c #C9C9C9",
"OX c #CACACA",
"+X c #CBCBCB",
"@X c #CCCCCC",
"#X c #CDCDCD",
"$X c #CECECE",
"%X c #CFCFCF",
"&X c #D0D0D0",
"*X c #D1D1D1",
"=X c #D2D2D2",
"-X c #D3D3D3",
";X c #D4D4D4",
":X c #D5D5D5",
">X c #D6D6D6",
",X c #D7D7D7",
"<X c #D8D8D8",
"1X c #D9D9D9",
"2X c #DADADA",
"3X c #DBDBDB",
"4X c #DCDCDC",
"5X c #DDDDDD",
"6X c #DEDEDE",
"7X c #DFDFDF",
"8X c #E0E0E0",
"9X c #E1E1E1",
"0X c #E4E4E4",
"qX c #E5E5E5",
"wX c #E6E6E6",
"eX c #E8E8E8",
"rX c #F9F9F9",
"tX c #FAFAFA",
"yX c #FBFBFB",
"uX c #FCFCFC",
"iX c #FEFEFE",
"pX c gray100",
"aX c None",
/* pixels */
"aXaXaXaXaXaXaXaXaXaXaXaXaXaXaXaX    8 8     aXaXaXaXaXaXaXaXaXaX",
"aXaXaXaXaXaXaXaXaXaX              E t.6.k     aXaXaXaXaXaXaXaXaX",
"aXaXaXaXaXaXaXaXaXo l } } ( ( K w r.] O.$.%   aXaXaXaXaXaXaXaXaX",
"aXaXaXaXaXaXaXaX  F ;XuXuXuXuX0XA 8.8.c.$.-   aXaXaXaXaXaXaXaXaX",
"aXaXaXaXaXaXaX  h ;XuXuXuXuXrXuXS.k ) Y e ~ a     aXaXaXaXaXaXaX",
"aXaXaXaXaXaXaX  ( eX0XwX0X0X0X0X{.u.i t A E K Y : @     aXaXaXaX",
"aXaXaXaXaXaXaX  ~ 0XeX9X7X7X5X5X9X9XoXT.*.F.~ z.~ ) 3   aXaXaXaX",
"aXaXaXaXaXaXaX  ~ 0X7X&X%X#X#X#X$X#X#XR.} a.n.7.s.0.5   aXaXaXaX",
"aXaXaXaXaXaXaX  ~ 9X9X#X$X#X.XR.l.l.R.~ ] d.] e | f.M *   aXaXaX",
"aXaXaXaXaXaXaX  ~ 9X.X{.{.{.D.v v v l y } z.=.f N.V.x %   aXaXaX",
"aXaXaXaXaXaXaX  ~ 5X5X5X5X>X&.*.p.0.H x X.c.C.L.G.<.2   aXaXaXaX",
"aXaXaXaXaXaXaX  E 9X9X;X;X(.V a.Y $.1.; d &.J %.D z >   aXaXaXaX",
"aXaXaXaXaXaXaX  E 9X2X.X.X~.A  .y.v.I i w.} Y 3 % o     aXaXaXaX",
"aXaXaXaXaXaXaX  E 5X>X{.{.{.g.i h s 8 4.R.=Xq.    aXaXaXaXaXaXaX",
"aXaXaXaXaXaXaX  E 2X>XoXXX}.`.K.} } K.(.(.<X5.  aXaXaXaXaXaXaXaX",
"aXaXaXaXaXaXaX  E 0X4X;X2X2X;X<X>X>X;X=X&X5X4.  aXaXaXaXaXaXaXaX",
"aXaXaXaXaXaXaX  E 5XK.Z.H.&X<XoX.X.X.X.X~.oX4.    aXaXaXaXaXaXaX",
"0 0 8 0 8 0 q 3 ~ ;XB.S.M.;X#XR.R.R.R.R.P.#X4.< * 1 8 8 0 0 1   ",
"l.h.h.h.l.l.h.o.} 5XH.m.].>X5X<X<X;X;X;X-X<X2.v i 2.h.h.h.l.X.@ ",
"- - - - - - - % E 7X>X<X;X$X$X#X+X+X.X.X.X-X2.* % - - - - * - @ ",
"                P 5X-X$X+XoXoX.X{.{.{.{.{.;X2.                  ",
"                P 2X%X#X.X{..X{.{.{.].`.{.&X2.                  ",
"                P 2X$XoX].].{.].(.(.`./.{.%X*.                  ",
"                P <X#X.X(.(.`.`.(.~./.R.].#X*.                  ",
"aXaXaX          P >XoX{.~.~.(.~.Q.Q.Q.U.`.+X*.              aXaX",
"aXaXaX          P ;X.X{.R.~.(.~.T.R.Q.I.`.$X*.            aXaXaX",
"aXaX            E ;X{.{.(.].{.].(.(.`.Q.{.{.(             aXaXaX",
"aXaX            8 G A A A A A V A A V m m h <               aXaX",
"aXaX                                                        aXaX",
"aXaX                                                        aXaX",
"aXaX                                                      aXaXaX",
"aXaXaX                                                  aXaXaXaX"
};
