/* XPM */
static char *shares[] = {
/* columns rows colors chars-per-pixel */
"32 32 71 1",
"  c #5EB25EB25EB2",
". c #6133626A5E56",
"X c #659B659B659B",
"o c #676268996485",
"O c #69F06B286714",
"+ c #6B696B816B32",
"@ c #6F46707863A0",
"# c #72FA748B660A",
"$ c #735075056A77",
"% c #76BF789A6E7F",
"& c #789A7A876F15",
"* c #72E072DF72E1",
"= c #7B2A7CB57280",
"- c #7B947BC77B21",
"; c #821A83237338",
": c #87D9893077E9",
"> c #83AE84D47B36",
", c #869589077FCB",
"< c #8B178C5F7AA3",
"1 c #847F847F847F",
"2 c #8C4D8DF481EB",
"3 c #8B7D8B7D8B7D",
"4 c #92E594448297",
"5 c #931094568E4F",
"6 c #9CA49E548CAD",
"7 c #94B995189359",
"8 c #975098AF9377",
"9 c #9A3E9BB892D3",
"0 c #9D1F9E189ADC",
"q c #A0D2A20A9303",
"w c #A2A0A35C9BA3",
"e c #AACCABCF9D73",
"r c #A458A4C8A348",
"t c #A788A875A53B",
"y c #ABACAC79A42A",
"u c #ABCDABECAB6B",
"i c #AF45B032A334",
"p c #B50EB638A5F4",
"a c #B765B88FA68E",
"s c #BB61BC63A72A",
"d c #B250B30AADDF",
"f c #B796B8BBA869",
"g c #BD27BE28AA0E",
"h c #B39BB3C6B32C",
"j c #BE52BF4CB2D2",
"k c #BE8CBEA2BE63",
"l c #BFBDC0BFAC3C",
"z c #BF76C045B1C0",
"x c #C029C0F5BF93",
"c c #C1A1C2A0AE72",
"v c #C3CFC4CBB1DB",
"b c #C7FEC8F4B5F8",
"n c #C977CA70B761",
"m c #C14CC201BF38",
"M c #C7DCC8A5B93D",
"N c #CBDFCCB9BD4D",
"B c #CFE2D0BABEE3",
"V c #D069D160BFCF",
"C c #C30BC36EC28F",
"Z c #CEC7CF46C14E",
"A c #CBDBCBDBCBDB",
"S c #D3B5D468C38A",
"D c #D7CAD883C782",
"F c #DBBDDC52CCB1",
"G c #D31BD382D2B9",
"H c #DB51DB51DB51",
"J c #E169E1EFD1C5",
"K c #E37CE381E36D",
"L c #EDE9EDE9EDF9",
"P c #F3A8F3A6F3A6",
"I c #FFB4FFB4FFB4",
/* pixels */
"IIILCmmmmmmmmxGIIIIIIIIIIIIIIIII",
"IIIk>222222222,CIIIIIIIIIIIIIIII",
"IIIdjNgggggggzp2GIIIIIIIIIIIIIII",
"IIIhfe66666666ey5tuuuuytttttrtGI",
"IIIhy6444444444qiyyyyyewq6542;8I",
"IIIdy4<<<<<<:&$$%========&%%%#5P",
"IIIde<;;;;;;$6ZSZNNNNMMMbvvvvp5P",
"IIIdw=#####@>DFDDDSSSSSSVBNNNl5L",
"IIIu>;>>>>>2MFvvvvvvvvvvvvvvvf5L",
"IIIw9FJJJJJJJnvvvvvvvvvvvvvvvf5L",
"IIIrNDBBBBBNbvvvvvvvvvvvvvvvva5L",
"IIItZncvvvvvvvvvvvvvvvvvvvvvva5L",
"IIItZnccccccccccccccccccccccca5L",
"IIItZbccccccccccccccccccccccca5L",
"IIItNbccccccccccccccccccccccca5L",
"IIIrMvllllllllllllllllllllllca5L",
"IIIrvvglllllllllllllllllllllla7L",
"IIIrjvggggggggggggggggggggggga7L",
"IIIrgcgggggggggggggggggggggggf7L",
"IIIrfcgggggggggggggggggggggggf8L",
"IIIrfcssssssssssssssssssssssgs8L",
"IIIrpgssssssssssssssssssssssss8L",
"IIIrpgsssssssssssssssssssssssg8L",
"IIIt9appppppppffffffpppppppppe8P",
"IIIKw000000000-.o+O>0000000000CI",
"IIIIIIIIIIIIII0*--+uIIIIIIIIIIII",
"IIIIIIIIIIILht*11-+-uAIIIIIIIIII",
"IIIIIKkutrr1177rrr087*8rrtuCLIII",
"IIIIIKAkhur*7thkkkkkh*7ruhCGKIII",
"IIIIIKACh07oO******** 170ukGLIII",
"IIIIIHu7331+X++++++++ -1137hKIII",
"IIIIIIPLLLLHurrrrrrrrkLLLLLPIIII"
};
