/* XPM */
static char *time[] = {
/* columns rows colors chars-per-pixel */
"32 32 97 2",
"   c #000000",
".  c #0C0C0C",
"X  c #131313",
"o  c #1B1A15",
"O  c #1C1B1B",
"+  c #2C281D",
"@  c #252525",
"#  c #2C2A24",
"$  c #322E20",
"%  c #353121",
"&  c #333333",
"*  c #373738",
"=  c #3C3C3B",
"-  c #43423D",
";  c #54503E",
":  c #665A31",
">  c #655B39",
",  c #434343",
"<  c #474748",
"1  c #4B4B4B",
"2  c #4F4F50",
"3  c #57554D",
"4  c #5A574E",
"5  c #535353",
"6  c #5C5A52",
"7  c #5B5B5B",
"8  c #6C654F",
"9  c #65635C",
"0  c #636363",
"q  c #6D6C67",
"w  c #6C6C6C",
"e  c #737373",
"r  c #7C7C7C",
"t  c #7D8B9A",
"y  c #867744",
"u  c #877843",
"i  c #887A47",
"p  c #8A7C48",
"a  c #948550",
"s  c #8C8365",
"d  c #8E866A",
"f  c #83827E",
"g  c #88867F",
"h  c #938B70",
"j  c #969078",
"k  c #BAA762",
"l  c #C9B46D",
"z  c #CAB671",
"x  c #CCB875",
"c  c #CEBB7B",
"v  c #838383",
"b  c #8E8D8C",
"n  c #868F98",
"m  c #93928E",
"M  c #949493",
"N  c #9C9C9C",
"B  c #8795A4",
"V  c #8894A1",
"C  c #8F9DAB",
"Z  c #9E9FA1",
"A  c #99A4AF",
"S  c #9EAAB6",
"D  c #A2A19D",
"F  c #A3A3A3",
"G  c #A7A9AC",
"H  c #A8A7A7",
"J  c #ACABA6",
"K  c #ADADAD",
"L  c #A5ADB5",
"P  c #ACAFB2",
"I  c #A7B1BC",
"U  c #ABB3BC",
"Y  c #B4B4B4",
"T  c #B3B8BD",
"R  c #BBBBBB",
"E  c #ACB5C0",
"W  c #BEBFC0",
"Q  c #BBC2CA",
"!  c #BEC7D0",
"~  c #D7C689",
"^  c #C3C3C3",
"/  c #C2C7CB",
"(  c #C4C9CE",
")  c #C8C7C7",
"_  c #CBCBCC",
"`  c #C5CBD2",
"'  c #CFCFD0",
"]  c #CFD0D1",
"[  c #D3D3D3",
"{  c #D1D6DC",
"}  c #DCDCDC",
"|  c #DDDEE0",
" . c #E4E4E4",
".. c #ECECEC",
"X. c #F3F3F3",
"o. c #FBFBFB",
"O. c None",
/* pixels */
"O.O.O.O.O.O.O.O.O.O.O.O.O.O.O.O.O.O.O.O.O.O.O.O.O.O.O.O.O.O.O.O.",
"O.O.O.O.O.O.O.O.O.O.O.O.O.O.O.O.O.O.O.            O.O.O.O.O.O.O.",
"O.O.O.O.O.                            O < < < , O     O.O.O.O.O.",
"O.O.O.    O.                      X w Y  .......R w X   O.O.O.O.",
"O.O.O.O.                        X M ..o.o.} } o.o...M X   O.O.O.",
"O.O.O.O.  9 j d d d d s s s s ; v ..o.o.o._ ) o.o.o...v .   O.O.",
"O.O.O.O.  h ~ c c x x z l l k 8 ' o.o.o.o.R Y o.o.X.X.} &   O.O.",
"O.O.O.O.  > a p p i i u u u : g ..o.o.o.o.K H o.o.X.X...v   O.O.",
"O.O.O.    O J H D M m f b m 6 M o.o.o.o.o.N M ..X.X.....D     O.",
"O.O.O.    =  . . .' ^ Y _ [ v M ....o.o.o.K 0 v ^ ..}  .D     O.",
"O.O.O.    1 .... .W M _ }  .N M o.X.o.o.o...Y w 5 ^ ..X.N     O.",
"O.O.O.    0 [ _ Q K H Y Q ) F f  .o.X.o.X.X.X. .Q } X.X.w     O.",
"O.O.O.    v ..Q V V U K } } } w Y ..X.X.X.X.X.......X._ O     O.",
"O.O.O.O.  F { E } _ U t }  . .K e _ ..X...........X...7       O.",
"O.O.O.O.@ _ ! Q  .H A n } ..} M 0 e ^  ...[ [ ..o.} 0 .     O.O.",
"O.O.O.  & [ / A T G n n / ' ) P S p 7 b ^ [ } } F *         O.O.",
"O.O.O.  < ....{ U C K } .. . . .{ _ ^ b w 5 5 < # .         O.O.",
"O.O.O.  v o.o.X.] ] [ X..... .^ { { ..| [ ^ Y w = o         O.O.",
"O.O.O.. H .. . ._ K [ } ....^ Y _  ... .} Y T 5 = o         O.O.",
"O.O.O.O ] X... . .R }  .[ [ ^ R T ] _ _ ) ^ M 2 - o         O.O.",
"O.O.  0 o.o.X.^ ^ } X.o..... .' _ W E (  . .e 2 4 +         O.O.",
"O.O.. F X.} } Y K } X..... .K Q ( L L ` ( T 7 5 6 %         O.O.",
"O.O.* } o.o.o...^ } } } } } _ R ' ' { | _ v - 0 4 $         O.O.",
"O.. b o.X.........o.o.o.o.o. . .o.X.X. .Y 2 7 e 6 +         O.O.",
"O.& r r r e v M H Y Q Q R ) ] } ..} ] T 0 2 r b 9 +         O.O.",
"        . O r v r e 0 3 6 9 0 w 0 7 5 7 7 v N F w $         O.O.",
"O.O.O.    . 0 5 1 < < < , , , , - = = = < < < 1 - X         O.O.",
"O.O.O.                                                      O.O.",
"O.O.O.                                                    O.O.O.",
"O.O.O.O.                                                  O.O.O.",
"O.O.O.O.                                                O.O.O.O.",
"O.O.O.O.O.O.O.O.O.O.O.O.O.O.O.O.O.O.O.O.O.O.O.O.O.O.O.O.O.O.O.O."
};
