/* XPM */
static char *users[] = {
/* columns rows colors chars-per-pixel */
"32 32 257 2",
"   c #000000",
".  c #040608",
"X  c #030A04",
"o  c #06090C",
"O  c #0A0501",
"+  c #0E0902",
"@  c #0C0C0B",
"#  c #0B1A0E",
"$  c #0E141A",
"%  c #100F0D",
"&  c #1A0F02",
"*  c #1E1003",
"=  c #191711",
"-  c #1D1D1B",
";  c #181715",
":  c #151C23",
">  c #0E290E",
",  c #0C2210",
"<  c #172F1F",
"1  c #162614",
"2  c #1C300E",
"3  c #153B1A",
"4  c #173916",
"5  c #162B20",
"6  c #1E2A36",
"7  c #1D2B38",
"8  c #2C1905",
"9  c #2D1E08",
"0  c #22180D",
"q  c #251E18",
"w  c #261C13",
"e  c #351C04",
"r  c #3A1D03",
"t  c #29271D",
"y  c #29350E",
"u  c #382209",
"i  c #3D2814",
"p  c #343618",
"a  c #2E2B24",
"s  c #20302F",
"d  c #20303F",
"f  c #302C24",
"g  c #302E28",
"h  c #3B372C",
"j  c #3D3E3F",
"k  c #303438",
"l  c #233343",
"z  c #283847",
"x  c #2B3D4F",
"c  c #2E3F50",
"v  c #353F49",
"b  c #174B19",
"n  c #184719",
"m  c #1A4718",
"M  c #1E5B1E",
"N  c #1A521E",
"B  c #214515",
"V  c #2E4922",
"C  c #205624",
"Z  c #205B22",
"A  c #285825",
"S  c #215C29",
"D  c #37492B",
"F  c #236522",
"G  c #236C23",
"H  c #276729",
"J  c #267626",
"K  c #257128",
"L  c #267927",
"P  c #297D29",
"I  c #2F4154",
"U  c #35475A",
"Y  c #37495D",
"T  c #394A57",
"R  c #3E4B58",
"E  c #324354",
"W  c #344B63",
"Q  c #384D62",
"!  c #3B556F",
"~  c #3F5C7A",
"^  c #442507",
"/  c #4A2706",
"(  c #4E2A07",
")  c #4D2D0B",
"_  c #46330C",
"`  c #572E07",
"'  c #532E08",
"]  c #563208",
"[  c #463C33",
"{  c #653709",
"}  c #633B0E",
"|  c #6C3A09",
" . c #643D10",
".. c #703D0B",
"X. c #4D4512",
"o. c #5F4318",
"O. c #4A473D",
"+. c #7B440D",
"@. c #77420D",
"#. c #764C14",
"$. c #7D5111",
"%. c #4A535C",
"&. c #50504E",
"*. c #555145",
"=. c #525250",
"-. c #445463",
";. c #455668",
":. c #425D77",
">. c #505A64",
",. c #44617E",
"<. c #4C647C",
"1. c #53677D",
"2. c #5A6672",
"3. c #676251",
"4. c #736E5B",
"5. c #7C755E",
"6. c #716E65",
"7. c #7B7A78",
"8. c #476381",
"9. c #4A6683",
"0. c #4D6985",
"q. c #4E6B88",
"w. c #526B84",
"e. c #516E8B",
"r. c #55718E",
"t. c #5B748D",
"y. c #577390",
"u. c #5A7693",
"i. c #5D7995",
"p. c #5F7C98",
"a. c #63788D",
"s. c #627C96",
"d. c #627E99",
"f. c #2B832B",
"g. c #2E8C2E",
"h. c #318F31",
"j. c #319431",
"k. c #349A34",
"l. c #66829E",
"z. c #6B839C",
"x. c #758798",
"c. c #768A9E",
"v. c #6A85A1",
"b. c #6D89A4",
"n. c #728CA7",
"m. c #718DA9",
"M. c #7792AE",
"N. c #7C92A7",
"B. c #7B93AA",
"V. c #8C4C0D",
"C. c #814D13",
"Z. c #8B5716",
"A. c #99540F",
"S. c #96510D",
"D. c #955B14",
"F. c #995712",
"G. c #945613",
"H. c #99671D",
"J. c #966926",
"K. c #A0560E",
"L. c #AB5E11",
"P. c #A55A10",
"I. c #A56717",
"U. c #AC6113",
"Y. c #AF731C",
"T. c #BE6913",
"R. c #BD7C1E",
"E. c #B87D25",
"W. c #A87527",
"Q. c #C66D14",
"!. c #C97117",
"~. c #CC7519",
"^. c #CE781B",
"/. c #D37C1E",
"(. c #D57F20",
"). c #BA832D",
"_. c #81835F",
"`. c #88826F",
"'. c #95907E",
"]. c #AD884A",
"[. c #A59C7E",
"{. c #BBA97F",
"}. c #C88727",
"|. c #C08A34",
" X c #CE9232",
".X c #D18A23",
"XX c #D98222",
"oX c #D08F2B",
"OX c #D79027",
"+X c #D89027",
"@X c #DB952C",
"#X c #DE982E",
"$X c #D5932F",
"%X c #D39432",
"&X c #D99631",
"*X c #DE9A33",
"=X c #E29E36",
"-X c #E3A13A",
";X c #C89541",
":X c #C89D57",
">X c #CEA55E",
",X c #C4A267",
"<X c #C3A36C",
"1X c #CBA96C",
"2X c #D7B677",
"3X c #D0B279",
"4X c #C6AA75",
"5X c #9F9D98",
"6X c #8395A7",
"7X c #8097AE",
"8X c #8599AD",
"9X c #87A0B8",
"0X c #9DADBE",
"qX c #9BA8B4",
"wX c #A29B84",
"eX c #A19E96",
"rX c #ACAF83",
"tX c #A9A69C",
"yX c #BEB491",
"uX c #BFB89C",
"iX c #AEACA5",
"pX c #A9B4BF",
"aX c #B4B5B6",
"sX c #9EAFC0",
"dX c #A1B1C1",
"fX c #B2BCC6",
"gX c #BFC2C4",
"hX c #BAC7D3",
"jX c #C2BC9A",
"kX c #C2BFB2",
"lX c #DEC48D",
"zX c #D8C291",
"xX c #CAC1A1",
"cX c #D1C7A5",
"vX c #E0D6B2",
"bX c #E8D6A7",
"nX c #F0E3BF",
"mX c #CED4DA",
"MX c #DFD9C3",
"NX c #D6DBDF",
"BX c #DDDCD8",
"VX c #D8DFE5",
"CX c #E5DDC2",
"ZX c #EFE5C7",
"AX c #F5EFDC",
"SX c #F8F2DC",
"DX c #EAEDEF",
"FX c #E3E5E6",
"GX c #EEEFF0",
"HX c #FAF4E1",
"JX c #FAF7EA",
"KX c #FCF9ED",
"LX c #F6F2E4",
"PX c #FDFBF4",
"IX c #FEFEFD",
"UX c #F4F4F4",
"YX c None",
/* pixels */
"YXYXYXYXYXYXYXYXYXYXYXYXYXYXYXYX    ; @ @ - ;   YXYXYXYXYXYXYXYX",
"YXYXYXYXYXYXYXYXYXYXYXYXYXYXYX  @ &.5XiXiXtX6.O.% YXYXYXYXYXYXYX",
"YXYXYXYXYXYXYXYXYXYXYXYXYXYX  @ 7.BXPXPXKXHXMX'.*.@ YXYXYXYXYXYX",
"YXYXYXYXYXYXYXYXYXYXYXYXYXYX  =.FXIXPXKXJXHXSXCX`.a YXYXYXYXYXYX",
"YXYXYXYXYXYXYXYXYXYXYXYXYXYX. eXAXLXJXJXJXLXZXnXjX3.@ YXYXYXYXYX",
"YXYXYXYXYXYXYXYX            - kXzX>X<X<X<X,X>X2XvX4.O YXYXYXYXYX",
"YXYXYXYXYXYXYX              - tX1X@X%X X X XoX;XbXwX@ YXYXYXYXYX",
"YXYXYXYXYXYX                  g ].=X-X-X-X=X$X).zXuXa YXYXYXYXYX",
"YXYXYXYXYXYX                    o.@X*X*X*X#XoX).3XcXh YXYXYXYXYX",
"YXYXYXYXYX      O O       O O O 9 ).#X#X#X@X}.W.4XcXh YXYXYXYXYX",
"YXYXYXYXYX    8 Z.C. .) } $.G.) O H.@X@X@X+X).J.{.xXf YXYXYXYXYX",
"YXYXYXYXYX  + } ^.XXXXXX(././.+.& Z.+XOXOXOXY.#.yXyXt YXYXYXYXYX",
"YXYXYXYXYX  8 F.^./.(.(./.^.~.F.^ _ R..X.XR.$.p jX[.=   YXYXYXYX",
"YXYXYXYXYX  e U.~.^.^.^.^.~.~.U.] > X.H.I.@.y A {.5.1 X     YXYX",
"YXYXYXYXYX  e U.!.~.~.~.!.!.!.L.` b F 4 2 m M H _.D M C #     YX",
"YXYXYXYXYX  * F.Q.L.@.+.@.V.T.K.i F f.L J K F F V M K J H #   YX",
"YXYXYXYXYXYX  { Q...{ P.V./ K.V.B g.h.g.f.f.P L J L J L f.Z X   ",
"YXYXYXYX      0 S.| ( { ' / V.u m L k.k.k.j.j.h.g.f.f.f.L J >   ",
"YXYXYX    : -.1.[ ^ e r e e i E T s b f.k.j.j.j.g.f.f.f.L P b   ",
"YXYX  @ %.c.9Xn.a.%.a 0 w j -.1.t.w.E 4 G h.g.g.f.f.P L L K 3   ",
"YX  @ 2.7XM.M.M.d.8XfXaXaXdXz.t.s.s.i.;.5 F f.f.f.P L L K N X   ",
"YX. >.N.b.b.n.n.b.c.VXUXGXdXz.l.s.u.u.y.Y < K K H S 3 > , X     ",
"  k z.l.v.b.b.b.b.s.qXIXFXM.l.z.7Xd.t.e.9.7 X X X X             ",
"  R i.d.d.d.d.d.v.s.x.DXhXl.p.0XVX0Xt.q.9.W X                   ",
"  Y u.u.p.p.p.d.d.i.a.mX0Xu.l.dX0XN.u.9.9.! o                   ",
"  c e.y.y.u.u.u.i.u.t.fX8Xr.r.e.q.q.9.8.8.W .                 YX",
"  : 0.e.e.y.y.y.r.u.w.6Xs.e.e.q.0.9.8.~ ~ d                   YX",
"    6 Q :.<.0.e.e.r.9.z.u.q.0.9.:.~ ! W d o         YXYXYXYXYXYX",
"      . o $ 6 z c E I ;.U I c z 7 : o .             YXYXYXYXYXYX",
"                      @                           YXYXYXYXYXYXYX",
"                                                YXYXYXYXYXYXYXYX",
"YX                                            YXYXYXYXYXYXYXYXYX"
};
