<?xml version="1.0" encoding="UTF-8" standalone="no"?>
<!-- Created with Inkscape (http://www.inkscape.org/) -->

<svg
   xmlns:svg="http://www.w3.org/2000/svg"
   xmlns="http://www.w3.org/2000/svg"
   xmlns:xlink="http://www.w3.org/1999/xlink"
   version="1.0"
   width="128"
   height="128"
   id="svg2553">
  <defs
     id="defs2555">
    <linearGradient
       id="linearGradient9111">
      <stop
         id="stop9113"
         style="stop-color:#729fcf;stop-opacity:1"
         offset="0" />
      <stop
         id="stop9115"
         style="stop-color:#ffffff;stop-opacity:1"
         offset="1" />
    </linearGradient>
    <linearGradient
       id="linearGradient22783">
      <stop
         id="stop22785"
         style="stop-color:#000000;stop-opacity:1"
         offset="0" />
      <stop
         id="stop22787"
         style="stop-color:#ffffff;stop-opacity:1"
         offset="1" />
    </linearGradient>
    <linearGradient
       id="linearGradient12684">
      <stop
         id="stop12686"
         style="stop-color:#ffffff;stop-opacity:1"
         offset="0" />
      <stop
         id="stop12692"
         style="stop-color:#ffffff;stop-opacity:0.84536082"
         offset="0.34999999" />
      <stop
         id="stop12688"
         style="stop-color:#ffffff;stop-opacity:0"
         offset="1" />
    </linearGradient>
    <linearGradient
       id="linearGradient3657">
      <stop
         id="stop3659"
         style="stop-color:#ffffff;stop-opacity:1"
         offset="0" />
      <stop
         id="stop3661"
         style="stop-color:#ffffff;stop-opacity:0"
         offset="1" />
    </linearGradient>
    <linearGradient
       id="linearGradient6348">
      <stop
         id="stop6350"
         style="stop-color:#ffffff;stop-opacity:0.70103091"
         offset="0" />
      <stop
         id="stop6356"
         style="stop-color:#4e9a06;stop-opacity:0"
         offset="0.80000001" />
      <stop
         id="stop6352"
         style="stop-color:#8ae234;stop-opacity:1"
         offset="1" />
    </linearGradient>
    <linearGradient
       id="linearGradient3645">
      <stop
         id="stop3647"
         style="stop-color:#8ae234;stop-opacity:1"
         offset="0" />
      <stop
         id="stop3649"
         style="stop-color:#4e9a06;stop-opacity:1"
         offset="1" />
    </linearGradient>
    <linearGradient
       id="linearGradient2762">
      <stop
         id="stop2764"
         style="stop-color:#000000;stop-opacity:0.70588237"
         offset="0" />
      <stop
         id="stop4540"
         style="stop-color:#000000;stop-opacity:0.35294119"
         offset="0.40000001" />
      <stop
         id="stop2766"
         style="stop-color:#000000;stop-opacity:0"
         offset="1" />
    </linearGradient>
    <linearGradient
       x1="60.812256"
       y1="222.16092"
       x2="428.62836"
       y2="222.16092"
       id="linearGradient3333"
       xlink:href="#linearGradient3645"
       gradientUnits="userSpaceOnUse" />
    <radialGradient
       cx="244.72031"
       cy="222.16092"
       r="183.90805"
       fx="244.72031"
       fy="222.16092"
       id="radialGradient3335"
       xlink:href="#linearGradient6348"
       gradientUnits="userSpaceOnUse" />
    <radialGradient
       cx="49.709621"
       cy="222.16092"
       r="183.90805"
       fx="49.709621"
       fy="222.16092"
       id="radialGradient3337"
       xlink:href="#linearGradient3657"
       gradientUnits="userSpaceOnUse"
       gradientTransform="matrix(1.353938,0,0,1.353938,-33.88875,-78.63119)" />
    <radialGradient
       cx="69.944862"
       cy="222.16092"
       r="183.90805"
       fx="69.944862"
       fy="222.16092"
       id="radialGradient3339"
       xlink:href="#linearGradient3657"
       gradientUnits="userSpaceOnUse"
       gradientTransform="matrix(1.353938,0,0,1.353938,-33.88875,-78.63119)" />
    <linearGradient
       x1="98"
       y1="240.92043"
       x2="420"
       y2="240.92043"
       id="linearGradient3341"
       xlink:href="#linearGradient3657"
       gradientUnits="userSpaceOnUse"
       gradientTransform="matrix(0.543478,-0.941332,0.941332,0.543478,-156.6701,314.8289)" />
    <linearGradient
       x1="98"
       y1="240.92043"
       x2="420"
       y2="240.92043"
       id="linearGradient3343"
       xlink:href="#linearGradient3657"
       gradientUnits="userSpaceOnUse"
       gradientTransform="matrix(-0.941332,0.543478,0.543478,0.941332,334.2253,-173.0667)" />
    <linearGradient
       x1="98"
       y1="240.92043"
       x2="420"
       y2="240.92043"
       id="linearGradient3345"
       xlink:href="#linearGradient3657"
       gradientUnits="userSpaceOnUse"
       gradientTransform="matrix(0.941332,-0.543478,-0.543478,-0.941332,150.7744,625.2735)" />
    <linearGradient
       x1="98"
       y1="240.92043"
       x2="420"
       y2="240.92043"
       id="linearGradient3347"
       xlink:href="#linearGradient3657"
       gradientUnits="userSpaceOnUse"
       gradientTransform="matrix(-0.543478,0.941332,-0.941332,-0.543478,641.6699,131.3779)" />
    <radialGradient
       cx="246.35255"
       cy="226.88303"
       r="154.3577"
       fx="246.35255"
       fy="226.88303"
       id="radialGradient3349"
       xlink:href="#linearGradient3657"
       gradientUnits="userSpaceOnUse"
       gradientTransform="matrix(1,-0.57734,0.12401,0.214795,-28.13556,320.3787)" />
    <radialGradient
       cx="246.35255"
       cy="226.88303"
       r="154.3577"
       fx="246.35255"
       fy="226.88303"
       id="radialGradient3351"
       xlink:href="#linearGradient3657"
       gradientUnits="userSpaceOnUse"
       gradientTransform="matrix(-0.57734,-1,0.214795,-0.12401,339.8483,501.3712)" />
    <radialGradient
       cx="156.5"
       cy="148.5"
       r="19.5"
       fx="156.5"
       fy="148.5"
       id="radialGradient3353"
       xlink:href="#linearGradient12684"
       gradientUnits="userSpaceOnUse" />
    <radialGradient
       cx="156.5"
       cy="148.5"
       r="19.5"
       fx="156.5"
       fy="148.5"
       id="radialGradient3355"
       xlink:href="#linearGradient12684"
       gradientUnits="userSpaceOnUse" />
    <radialGradient
       cx="156.5"
       cy="148.5"
       r="19.5"
       fx="156.5"
       fy="148.5"
       id="radialGradient3357"
       xlink:href="#linearGradient12684"
       gradientUnits="userSpaceOnUse" />
    <radialGradient
       cx="156.5"
       cy="148.5"
       r="19.5"
       fx="156.5"
       fy="148.5"
       id="radialGradient3359"
       xlink:href="#linearGradient12684"
       gradientUnits="userSpaceOnUse" />
    <radialGradient
       cx="156.5"
       cy="148.5"
       r="19.5"
       fx="156.5"
       fy="148.5"
       id="radialGradient3361"
       xlink:href="#linearGradient12684"
       gradientUnits="userSpaceOnUse" />
    <radialGradient
       cx="156.5"
       cy="148.5"
       r="19.5"
       fx="156.5"
       fy="148.5"
       id="radialGradient3363"
       xlink:href="#linearGradient12684"
       gradientUnits="userSpaceOnUse" />
    <radialGradient
       cx="156.5"
       cy="148.5"
       r="19.5"
       fx="156.5"
       fy="148.5"
       id="radialGradient3365"
       xlink:href="#linearGradient12684"
       gradientUnits="userSpaceOnUse" />
    <radialGradient
       cx="156.5"
       cy="148.5"
       r="19.5"
       fx="156.5"
       fy="148.5"
       id="radialGradient3367"
       xlink:href="#linearGradient12684"
       gradientUnits="userSpaceOnUse" />
    <radialGradient
       cx="156.5"
       cy="148.5"
       r="19.5"
       fx="156.5"
       fy="148.5"
       id="radialGradient3369"
       xlink:href="#linearGradient12684"
       gradientUnits="userSpaceOnUse" />
    <radialGradient
       cx="156.5"
       cy="148.5"
       r="19.5"
       fx="156.5"
       fy="148.5"
       id="radialGradient3371"
       xlink:href="#linearGradient12684"
       gradientUnits="userSpaceOnUse" />
    <radialGradient
       cx="156.5"
       cy="148.5"
       r="19.5"
       fx="156.5"
       fy="148.5"
       id="radialGradient3373"
       xlink:href="#linearGradient12684"
       gradientUnits="userSpaceOnUse" />
    <radialGradient
       cx="156.5"
       cy="148.5"
       r="19.5"
       fx="156.5"
       fy="148.5"
       id="radialGradient3375"
       xlink:href="#linearGradient12684"
       gradientUnits="userSpaceOnUse" />
    <radialGradient
       cx="156.5"
       cy="148.5"
       r="19.5"
       fx="156.5"
       fy="148.5"
       id="radialGradient3377"
       xlink:href="#linearGradient12684"
       gradientUnits="userSpaceOnUse" />
    <mask
       id="mask27344">
      <rect
         width="89.20401"
         height="89.20401"
         x="19.397995"
         y="20.334448"
         id="rect27338"
         style="fill:#ffffff;fill-opacity:1;stroke:none" />
    </mask>
    <radialGradient
       cx="65.329872"
       cy="63.501297"
       r="57.350651"
       fx="65.329872"
       fy="31.0061"
       id="radialGradient5696"
       xlink:href="#linearGradient2762"
       gradientUnits="userSpaceOnUse" />
    <linearGradient
       x1="62.618664"
       y1="119.48166"
       x2="62.618664"
       y2="-1.8272629"
       id="linearGradient6151"
       xlink:href="#linearGradient9111"
       gradientUnits="userSpaceOnUse" />
    <linearGradient
       x1="60.812256"
       y1="222.16092"
       x2="428.62836"
       y2="222.16092"
       id="linearGradient6153"
       xlink:href="#linearGradient3645"
       gradientUnits="userSpaceOnUse" />
    <radialGradient
       cx="244.72031"
       cy="222.16092"
       r="183.90805"
       fx="244.72031"
       fy="222.16092"
       id="radialGradient6155"
       xlink:href="#linearGradient6348"
       gradientUnits="userSpaceOnUse" />
    <radialGradient
       cx="49.709621"
       cy="222.16092"
       r="183.90805"
       fx="49.709621"
       fy="222.16092"
       id="radialGradient6157"
       xlink:href="#linearGradient3657"
       gradientUnits="userSpaceOnUse"
       gradientTransform="matrix(1.353938,0,0,1.353938,-33.88875,-78.63119)" />
    <radialGradient
       cx="69.944862"
       cy="222.16092"
       r="183.90805"
       fx="69.944862"
       fy="222.16092"
       id="radialGradient6159"
       xlink:href="#linearGradient3657"
       gradientUnits="userSpaceOnUse"
       gradientTransform="matrix(1.353938,0,0,1.353938,-33.88875,-78.63119)" />
    <linearGradient
       x1="98"
       y1="240.92043"
       x2="420"
       y2="240.92043"
       id="linearGradient6161"
       xlink:href="#linearGradient3657"
       gradientUnits="userSpaceOnUse"
       gradientTransform="matrix(0.543478,-0.941332,0.941332,0.543478,-156.6701,314.8289)" />
    <linearGradient
       x1="98"
       y1="240.92043"
       x2="420"
       y2="240.92043"
       id="linearGradient6163"
       xlink:href="#linearGradient3657"
       gradientUnits="userSpaceOnUse"
       gradientTransform="matrix(-0.941332,0.543478,0.543478,0.941332,334.2253,-173.0667)" />
    <linearGradient
       x1="98"
       y1="240.92043"
       x2="420"
       y2="240.92043"
       id="linearGradient6165"
       xlink:href="#linearGradient3657"
       gradientUnits="userSpaceOnUse"
       gradientTransform="matrix(0.941332,-0.543478,-0.543478,-0.941332,150.7744,625.2735)" />
    <linearGradient
       x1="98"
       y1="240.92043"
       x2="420"
       y2="240.92043"
       id="linearGradient6167"
       xlink:href="#linearGradient3657"
       gradientUnits="userSpaceOnUse"
       gradientTransform="matrix(-0.543478,0.941332,-0.941332,-0.543478,641.6699,131.3779)" />
    <radialGradient
       cx="246.35255"
       cy="226.88303"
       r="154.3577"
       fx="246.35255"
       fy="226.88303"
       id="radialGradient6169"
       xlink:href="#linearGradient3657"
       gradientUnits="userSpaceOnUse"
       gradientTransform="matrix(1,-0.57734,0.12401,0.214795,-28.13556,320.3787)" />
    <radialGradient
       cx="246.35255"
       cy="226.88303"
       r="154.3577"
       fx="246.35255"
       fy="226.88303"
       id="radialGradient6171"
       xlink:href="#linearGradient3657"
       gradientUnits="userSpaceOnUse"
       gradientTransform="matrix(-0.57734,-1,0.214795,-0.12401,339.8483,501.3712)" />
    <radialGradient
       cx="156.5"
       cy="148.5"
       r="19.5"
       fx="156.5"
       fy="148.5"
       id="radialGradient6173"
       xlink:href="#linearGradient12684"
       gradientUnits="userSpaceOnUse" />
    <radialGradient
       cx="156.5"
       cy="148.5"
       r="19.5"
       fx="156.5"
       fy="148.5"
       id="radialGradient6175"
       xlink:href="#linearGradient12684"
       gradientUnits="userSpaceOnUse" />
    <radialGradient
       cx="156.5"
       cy="148.5"
       r="19.5"
       fx="156.5"
       fy="148.5"
       id="radialGradient6177"
       xlink:href="#linearGradient12684"
       gradientUnits="userSpaceOnUse" />
    <radialGradient
       cx="156.5"
       cy="148.5"
       r="19.5"
       fx="156.5"
       fy="148.5"
       id="radialGradient6179"
       xlink:href="#linearGradient12684"
       gradientUnits="userSpaceOnUse" />
    <radialGradient
       cx="156.5"
       cy="148.5"
       r="19.5"
       fx="156.5"
       fy="148.5"
       id="radialGradient6181"
       xlink:href="#linearGradient12684"
       gradientUnits="userSpaceOnUse" />
    <radialGradient
       cx="156.5"
       cy="148.5"
       r="19.5"
       fx="156.5"
       fy="148.5"
       id="radialGradient6183"
       xlink:href="#linearGradient12684"
       gradientUnits="userSpaceOnUse" />
    <radialGradient
       cx="156.5"
       cy="148.5"
       r="19.5"
       fx="156.5"
       fy="148.5"
       id="radialGradient6185"
       xlink:href="#linearGradient12684"
       gradientUnits="userSpaceOnUse" />
    <radialGradient
       cx="156.5"
       cy="148.5"
       r="19.5"
       fx="156.5"
       fy="148.5"
       id="radialGradient6187"
       xlink:href="#linearGradient12684"
       gradientUnits="userSpaceOnUse" />
    <radialGradient
       cx="156.5"
       cy="148.5"
       r="19.5"
       fx="156.5"
       fy="148.5"
       id="radialGradient6189"
       xlink:href="#linearGradient12684"
       gradientUnits="userSpaceOnUse" />
    <radialGradient
       cx="156.5"
       cy="148.5"
       r="19.5"
       fx="156.5"
       fy="148.5"
       id="radialGradient6191"
       xlink:href="#linearGradient12684"
       gradientUnits="userSpaceOnUse" />
    <radialGradient
       cx="156.5"
       cy="148.5"
       r="19.5"
       fx="156.5"
       fy="148.5"
       id="radialGradient6193"
       xlink:href="#linearGradient12684"
       gradientUnits="userSpaceOnUse" />
    <radialGradient
       cx="156.5"
       cy="148.5"
       r="19.5"
       fx="156.5"
       fy="148.5"
       id="radialGradient6195"
       xlink:href="#linearGradient12684"
       gradientUnits="userSpaceOnUse" />
    <radialGradient
       cx="156.5"
       cy="148.5"
       r="19.5"
       fx="156.5"
       fy="148.5"
       id="radialGradient6197"
       xlink:href="#linearGradient12684"
       gradientUnits="userSpaceOnUse" />
    <linearGradient
       x1="70.079597"
       y1="104.14981"
       x2="30.154556"
       y2="72.577919"
       id="linearGradient6199"
       xlink:href="#linearGradient9111"
       gradientUnits="userSpaceOnUse" />
    <radialGradient
       cx="78.836967"
       cy="65.425926"
       r="36.617115"
       fx="78.836967"
       fy="65.425926"
       id="radialGradient6201"
       xlink:href="#linearGradient9111"
       gradientUnits="userSpaceOnUse"
       gradientTransform="matrix(0.784681,-0.354989,0.14614,0.323033,8.299292,73.27385)"
       spreadMethod="pad" />
    <linearGradient
       x1="185.18442"
       y1="178.86754"
       x2="185.18442"
       y2="162.24416"
       id="linearGradient6203"
       xlink:href="#linearGradient9111"
       gradientUnits="userSpaceOnUse" />
    <radialGradient
       cx="185.18442"
       cy="162.24416"
       r="8.3116884"
       fx="185.18442"
       fy="162.24416"
       id="radialGradient6205"
       xlink:href="#linearGradient9111"
       gradientUnits="userSpaceOnUse"
       gradientTransform="matrix(1.765929,0,0,3.004776,-141.8381,-325.2632)" />
    <linearGradient
       x1="185.18442"
       y1="178.86754"
       x2="185.18442"
       y2="162.24416"
       id="linearGradient6207"
       xlink:href="#linearGradient9111"
       gradientUnits="userSpaceOnUse" />
    <radialGradient
       cx="185.18442"
       cy="162.24416"
       r="8.3116884"
       fx="185.18442"
       fy="162.24416"
       id="radialGradient6209"
       xlink:href="#linearGradient9111"
       gradientUnits="userSpaceOnUse"
       gradientTransform="matrix(1.765929,0,0,3.004776,-141.8381,-325.2632)" />
    <radialGradient
       cx="46.132965"
       cy="72.531746"
       r="0.28773159"
       fx="46.132965"
       fy="72.531746"
       id="radialGradient6211"
       xlink:href="#linearGradient2762"
       gradientUnits="userSpaceOnUse"
       gradientTransform="matrix(1,0,0,1.222222,0,-16.11816)" />
    <radialGradient
       cx="46.132965"
       cy="72.531746"
       r="0.28773159"
       fx="46.132965"
       fy="72.531746"
       id="radialGradient6213"
       xlink:href="#linearGradient2762"
       gradientUnits="userSpaceOnUse"
       gradientTransform="matrix(1,0,0,1.222222,0,-16.11816)" />
    <radialGradient
       cx="47.304798"
       cy="72.108414"
       r="0.50028783"
       fx="47.304798"
       fy="72.108414"
       id="radialGradient6215"
       xlink:href="#linearGradient12684"
       gradientUnits="userSpaceOnUse"
       gradientTransform="matrix(1.49862,-0.01593619,0.135643,2.335053,-33.43558,-95.6548)" />
    <radialGradient
       cx="67.904976"
       cy="141.29233"
       r="21.288834"
       fx="67.904976"
       fy="141.29233"
       id="radialGradient6217"
       xlink:href="#linearGradient9111"
       gradientUnits="userSpaceOnUse"
       gradientTransform="matrix(3.29654,-0.335649,0.168235,1.652295,-177.1074,-80.32206)" />
    <linearGradient
       x1="32.877586"
       y1="104.45485"
       x2="82.408028"
       y2="62.983276"
       id="linearGradient6219"
       xlink:href="#linearGradient9111"
       gradientUnits="userSpaceOnUse" />
    <linearGradient
       x1="60.812256"
       y1="222.16092"
       x2="428.62836"
       y2="222.16092"
       id="linearGradient12131"
       xlink:href="#linearGradient3645"
       gradientUnits="userSpaceOnUse" />
    <radialGradient
       cx="244.72031"
       cy="222.16092"
       r="183.90805"
       fx="244.72031"
       fy="222.16092"
       id="radialGradient12133"
       xlink:href="#linearGradient6348"
       gradientUnits="userSpaceOnUse" />
    <radialGradient
       cx="49.709621"
       cy="222.16092"
       r="183.90805"
       fx="49.709621"
       fy="222.16092"
       id="radialGradient12135"
       xlink:href="#linearGradient3657"
       gradientUnits="userSpaceOnUse"
       gradientTransform="matrix(1.353938,0,0,1.353938,-33.88875,-78.63119)" />
    <radialGradient
       cx="69.944862"
       cy="222.16092"
       r="183.90805"
       fx="69.944862"
       fy="222.16092"
       id="radialGradient12137"
       xlink:href="#linearGradient3657"
       gradientUnits="userSpaceOnUse"
       gradientTransform="matrix(1.353938,0,0,1.353938,-33.88875,-78.63119)" />
    <linearGradient
       x1="98"
       y1="240.92043"
       x2="420"
       y2="240.92043"
       id="linearGradient12139"
       xlink:href="#linearGradient3657"
       gradientUnits="userSpaceOnUse"
       gradientTransform="matrix(0.543478,-0.941332,0.941332,0.543478,-156.6701,314.8289)" />
    <linearGradient
       x1="98"
       y1="240.92043"
       x2="420"
       y2="240.92043"
       id="linearGradient12141"
       xlink:href="#linearGradient3657"
       gradientUnits="userSpaceOnUse"
       gradientTransform="matrix(-0.941332,0.543478,0.543478,0.941332,334.2253,-173.0667)" />
    <linearGradient
       x1="98"
       y1="240.92043"
       x2="420"
       y2="240.92043"
       id="linearGradient12143"
       xlink:href="#linearGradient3657"
       gradientUnits="userSpaceOnUse"
       gradientTransform="matrix(0.941332,-0.543478,-0.543478,-0.941332,150.7744,625.2735)" />
    <linearGradient
       x1="98"
       y1="240.92043"
       x2="420"
       y2="240.92043"
       id="linearGradient12145"
       xlink:href="#linearGradient3657"
       gradientUnits="userSpaceOnUse"
       gradientTransform="matrix(-0.543478,0.941332,-0.941332,-0.543478,641.6699,131.3779)" />
    <radialGradient
       cx="246.35255"
       cy="226.88303"
       r="154.3577"
       fx="246.35255"
       fy="226.88303"
       id="radialGradient12147"
       xlink:href="#linearGradient3657"
       gradientUnits="userSpaceOnUse"
       gradientTransform="matrix(1,-0.57734,0.12401,0.214795,-28.13556,320.3787)" />
    <radialGradient
       cx="246.35255"
       cy="226.88303"
       r="154.3577"
       fx="246.35255"
       fy="226.88303"
       id="radialGradient12149"
       xlink:href="#linearGradient3657"
       gradientUnits="userSpaceOnUse"
       gradientTransform="matrix(-0.57734,-1,0.214795,-0.12401,339.8483,501.3712)" />
    <radialGradient
       cx="156.5"
       cy="148.5"
       r="19.5"
       fx="156.5"
       fy="148.5"
       id="radialGradient12151"
       xlink:href="#linearGradient12684"
       gradientUnits="userSpaceOnUse" />
    <radialGradient
       cx="156.5"
       cy="148.5"
       r="19.5"
       fx="156.5"
       fy="148.5"
       id="radialGradient12153"
       xlink:href="#linearGradient12684"
       gradientUnits="userSpaceOnUse" />
    <radialGradient
       cx="156.5"
       cy="148.5"
       r="19.5"
       fx="156.5"
       fy="148.5"
       id="radialGradient12155"
       xlink:href="#linearGradient12684"
       gradientUnits="userSpaceOnUse" />
    <radialGradient
       cx="156.5"
       cy="148.5"
       r="19.5"
       fx="156.5"
       fy="148.5"
       id="radialGradient12157"
       xlink:href="#linearGradient12684"
       gradientUnits="userSpaceOnUse" />
    <radialGradient
       cx="156.5"
       cy="148.5"
       r="19.5"
       fx="156.5"
       fy="148.5"
       id="radialGradient12159"
       xlink:href="#linearGradient12684"
       gradientUnits="userSpaceOnUse" />
    <radialGradient
       cx="156.5"
       cy="148.5"
       r="19.5"
       fx="156.5"
       fy="148.5"
       id="radialGradient12161"
       xlink:href="#linearGradient12684"
       gradientUnits="userSpaceOnUse" />
    <radialGradient
       cx="156.5"
       cy="148.5"
       r="19.5"
       fx="156.5"
       fy="148.5"
       id="radialGradient12163"
       xlink:href="#linearGradient12684"
       gradientUnits="userSpaceOnUse" />
    <radialGradient
       cx="156.5"
       cy="148.5"
       r="19.5"
       fx="156.5"
       fy="148.5"
       id="radialGradient12165"
       xlink:href="#linearGradient12684"
       gradientUnits="userSpaceOnUse" />
    <radialGradient
       cx="156.5"
       cy="148.5"
       r="19.5"
       fx="156.5"
       fy="148.5"
       id="radialGradient12167"
       xlink:href="#linearGradient12684"
       gradientUnits="userSpaceOnUse" />
    <radialGradient
       cx="156.5"
       cy="148.5"
       r="19.5"
       fx="156.5"
       fy="148.5"
       id="radialGradient12169"
       xlink:href="#linearGradient12684"
       gradientUnits="userSpaceOnUse" />
    <radialGradient
       cx="156.5"
       cy="148.5"
       r="19.5"
       fx="156.5"
       fy="148.5"
       id="radialGradient12171"
       xlink:href="#linearGradient12684"
       gradientUnits="userSpaceOnUse" />
    <radialGradient
       cx="156.5"
       cy="148.5"
       r="19.5"
       fx="156.5"
       fy="148.5"
       id="radialGradient12173"
       xlink:href="#linearGradient12684"
       gradientUnits="userSpaceOnUse" />
    <radialGradient
       cx="156.5"
       cy="148.5"
       r="19.5"
       fx="156.5"
       fy="148.5"
       id="radialGradient12175"
       xlink:href="#linearGradient12684"
       gradientUnits="userSpaceOnUse" />
    <linearGradient
       x1="70.079597"
       y1="104.14981"
       x2="30.154556"
       y2="72.577919"
       id="linearGradient12177"
       xlink:href="#linearGradient9111"
       gradientUnits="userSpaceOnUse" />
    <radialGradient
       cx="78.836967"
       cy="65.425926"
       r="36.617115"
       fx="78.836967"
       fy="65.425926"
       id="radialGradient12179"
       xlink:href="#linearGradient9111"
       gradientUnits="userSpaceOnUse"
       gradientTransform="matrix(0.784681,-0.354989,0.14614,0.323033,8.299292,73.27385)"
       spreadMethod="pad" />
    <linearGradient
       x1="185.18442"
       y1="178.86754"
       x2="185.18442"
       y2="162.24416"
       id="linearGradient12181"
       xlink:href="#linearGradient9111"
       gradientUnits="userSpaceOnUse" />
    <radialGradient
       cx="185.18442"
       cy="162.24416"
       r="8.3116884"
       fx="185.18442"
       fy="162.24416"
       id="radialGradient12183"
       xlink:href="#linearGradient9111"
       gradientUnits="userSpaceOnUse"
       gradientTransform="matrix(1.765929,0,0,3.004776,-141.8381,-325.2632)" />
    <linearGradient
       x1="185.18442"
       y1="178.86754"
       x2="185.18442"
       y2="162.24416"
       id="linearGradient12185"
       xlink:href="#linearGradient9111"
       gradientUnits="userSpaceOnUse" />
    <radialGradient
       cx="185.18442"
       cy="162.24416"
       r="8.3116884"
       fx="185.18442"
       fy="162.24416"
       id="radialGradient12187"
       xlink:href="#linearGradient9111"
       gradientUnits="userSpaceOnUse"
       gradientTransform="matrix(1.765929,0,0,3.004776,-141.8381,-325.2632)" />
    <radialGradient
       cx="46.132965"
       cy="72.531746"
       r="0.28773159"
       fx="46.132965"
       fy="72.531746"
       id="radialGradient12189"
       xlink:href="#linearGradient2762"
       gradientUnits="userSpaceOnUse"
       gradientTransform="matrix(1,0,0,1.222222,0,-16.11816)" />
    <radialGradient
       cx="46.132965"
       cy="72.531746"
       r="0.28773159"
       fx="46.132965"
       fy="72.531746"
       id="radialGradient12191"
       xlink:href="#linearGradient2762"
       gradientUnits="userSpaceOnUse"
       gradientTransform="matrix(1,0,0,1.222222,0,-16.11816)" />
    <radialGradient
       cx="47.304798"
       cy="72.108414"
       r="0.50028783"
       fx="47.304798"
       fy="72.108414"
       id="radialGradient12193"
       xlink:href="#linearGradient12684"
       gradientUnits="userSpaceOnUse"
       gradientTransform="matrix(1.49862,-0.01593619,0.135643,2.335053,-33.43558,-95.6548)" />
    <radialGradient
       cx="67.904976"
       cy="141.29233"
       r="21.288834"
       fx="67.904976"
       fy="141.29233"
       id="radialGradient12195"
       xlink:href="#linearGradient9111"
       gradientUnits="userSpaceOnUse"
       gradientTransform="matrix(3.29654,-0.335649,0.168235,1.652295,-177.1074,-80.32206)" />
    <linearGradient
       x1="32.877586"
       y1="104.45485"
       x2="82.408028"
       y2="62.983276"
       id="linearGradient12197"
       xlink:href="#linearGradient9111"
       gradientUnits="userSpaceOnUse" />
    <linearGradient
       x1="229.09253"
       y1="86.978439"
       x2="229.09253"
       y2="56.824593"
       id="linearGradient13153"
       xlink:href="#linearGradient22783"
       gradientUnits="userSpaceOnUse"
       gradientTransform="matrix(0.954268,0,0,0.959649,9.076597,-0.01727395)" />
    <linearGradient
       x1="229.09253"
       y1="86.978439"
       x2="229.09253"
       y2="56.824593"
       id="linearGradient14041"
       xlink:href="#linearGradient22783"
       gradientUnits="userSpaceOnUse"
       gradientTransform="matrix(0.954268,0,0,0.959649,29.0766,-0.01727395)" />
    <linearGradient
       x1="229.09253"
       y1="86.978439"
       x2="229.09253"
       y2="56.824593"
       id="linearGradient14046"
       xlink:href="#linearGradient22783"
       gradientUnits="userSpaceOnUse"
       gradientTransform="matrix(0.954268,0,0,0.959649,9.0766,-0.01727395)" />
    <mask
       id="mask14043">
      <path
         d="m 148.21875,-0.4375 0,146.375 167.5,0 0,-146.375 -167.5,0 z M 230.625,49.75 c 1.98848,-0.02184 4.7236,0.663877 6.0625,0.1875 0,9.635417 0,19.270833 0,28.90625 1.11657,7.23115 0.023,12.252206 -8.34375,10 0.19159,-2.392331 -3.36318,1.1924 -5.1875,0.53125 -8.50182,1.015102 -13.36726,-8.401246 -12.09375,-15.8125 -0.0165,-7.696054 7.10964,-15.418471 15.1875,-12.875 4.46211,2.390819 1.01672,-6.284791 2.09375,-8.75 -0.35922,-1.719355 0.73465,-2.17051 2.28125,-2.1875 z m -75.46875,1.9375 c 3.09693,-0.173975 6.68685,1.655853 4.625,5.8125 0.13967,2.162005 -1.49352,3.247592 -3.40625,3.40625 0.95833,0.08883 1.83896,0.147287 2.40625,-0.0625 2.31509,4.01824 0.34697,12.319697 1,18 1.11657,7.23115 0.023,12.252206 -8.34375,10 0,-8.666667 0,-17.333333 0,-26 -0.61322,-2.103565 1.06477,-2.247317 3.03125,-2.09375 -2.72502,-0.609775 -5.07666,-2.93685 -3.03125,-6.65625 0.18487,-1.474559 1.86059,-2.301865 3.71875,-2.40625 z m 43.875,8.5625 c 6.98985,0.196329 10.86287,7.325991 10.375,13.90625 0.6697,6.711362 -10.14128,1.942055 -14.75,3.375 0.59033,4.189945 5.72389,5.519142 9.28125,4.03125 5.61086,-3.191786 6.071,0.49678 5.375,6.03125 -5.27294,1.631663 -11.4292,2.974185 -16.5,0.09375 -11.22384,-5.741456 -8.60822,-26.771052 4.78125,-27.375 0.49334,-0.05069 0.97151,-0.07559 1.4375,-0.0625 z m 104.875,0 c 6.9649,0.177471 10.95148,7.370425 10.375,13.90625 0.6697,6.711362 -10.14128,1.942055 -14.75,3.375 0.6795,4.267846 5.75208,5.468895 9.3125,4.03125 5.63266,-3.150837 6.0036,0.453882 5.34375,6 -5.01782,1.609979 -10.73884,2.859265 -15.71875,0.53125 -12.01787,-5.155343 -9.72816,-27.149655 4,-27.78125 0.49028,-0.05278 0.97317,-0.07433 1.4375,-0.0625 z m -50.96875,0.03125 c 0.25546,-4.33e-4 0.49531,0.0093 0.75,0.03125 10.41417,-0.19187 15.1914,12.213535 11.6875,20.8125 -3.52793,11.257989 -22.23949,10.905066 -25.0625,-0.65625 -3.21326,-8.422972 1.74493,-20.383051 11.84375,-20.15625 0.25472,-0.02017 0.52579,-0.03082 0.78125,-0.03125 z M 175,60.3125 c 0.27433,-0.0046 0.56339,-0.01434 0.84375,0 2.51836,0.307518 10.25424,-0.501947 9.0625,3.40625 1.60282,6.314471 -1.89506,5.335862 -6.3125,4.09375 -5.77182,-1.744673 -8.49633,5.805968 -6.5625,10.21875 1.64835,6.113164 9.60793,3.494617 13.15625,1.3125 0.11864,4.374539 1.25434,9.710269 -4.53125,9.46875 -7.93457,2.789713 -17.04896,-2.855892 -17.8125,-11.28125 C 160.97452,69.546203 166.49588,60.456537 175,60.3125 z m 93.28125,0.09375 c 3.16583,-0.01303 7.25547,1.69276 6.4375,5.1875 2.18424,6.969216 4.38574,13.841246 6.75,3 0.97108,-6.769895 4.79582,-9.325412 11.4375,-7.75 -2.49861,6.453124 -5.09002,12.873606 -7.625,19.3125 -1.51636,5.796246 -3.60595,10.845651 -10.53125,8.6875 -3.16564,-8.430038 -6.28831,-16.876265 -9.4375,-25.3125 -1.39418,-2.06044 0.50644,-3.114866 2.96875,-3.125 z m -69.75,7.125 c -0.16494,-0.01326 -0.32177,0.0058 -0.5,0.03125 -2.61501,-0.25401 -5.42748,4.184057 -0.125,2.6875 3.98536,1.720476 3.09913,-2.519924 0.625,-2.71875 z m 104.90625,0 c -0.16579,-0.01149 -0.35186,0.0031 -0.53125,0.03125 -2.56462,-0.293267 -5.24508,4.132377 -0.15625,2.6875 4.01137,1.75013 3.17439,-2.546444 0.6875,-2.71875 z m -79.96875,0.03125 c -4.83305,0.98391 -4.1215,8.686307 -3.09375,12.21875 2.51087,4.636242 10.59428,-0.704694 7.96875,-5.3125 1.46854,-3.894639 -1.01816,-7.154893 -4.875,-6.90625 z m 29.1875,0 c -4.83917,-0.0469 -4.69129,6.28134 -4.375,9.59375 -0.55884,5.172074 7.34838,6.945086 8.8125,2.15625 1.31107,-3.839954 1.51358,-12.078854 -4.4375,-11.75 z"
         id="rect12260"
         style="fill:url(#linearGradient14046);fill-opacity:1;stroke:none" />
    </mask>
    <linearGradient
       x1="232"
       y1="199.5"
       x2="232"
       y2="133"
       id="linearGradient2393"
       xlink:href="#linearGradient22783"
       gradientUnits="userSpaceOnUse"
       gradientTransform="matrix(0.606013,0,0,1,4.061872,-75.24342)" />
    <mask
       id="mask2390">
      <rect
         width="165.44148"
         height="55"
         x="144.65685"
         y="84.756577"
         id="rect21896"
         style="fill:url(#linearGradient2393);fill-opacity:1;stroke:none" />
    </mask>
  </defs>
  <g
     id="layer1">
    <g
       transform="matrix(1.0463482,0.1439561,-0.1439561,1.0463482,5.960954,-12.485588)"
       id="g2492">
      <path
         d="m 122.68052,63.501297 a 57.350651,57.350651 0 1 1 -114.7012987,0 57.350651,57.350651 0 1 1 114.7012987,0 z"
         transform="matrix(1.090411,0,0,0.908327,-7.236399,18.22689)"
         id="path1874"
         style="fill:url(#radialGradient5696);fill-opacity:1;stroke:none;display:inline" />
      <path
         d="m 7.6305227,14.765052 c 0.083499,0.202712 0.1509085,0.409571 0.1822106,0.637379 0.2010492,1.463174 -0.8334664,2.827274 -2.2966407,3.028323 -0.2278074,0.0313 -0.445181,0.02218 -0.6629019,-0.0035 l 0.3871112,2.817278 c 0.2028865,-0.08223 0.4095706,-0.150909 0.6373781,-0.182211 1.4631743,-0.201049 2.8230203,0.802508 3.0240694,2.265682 0.2010491,1.463174 -0.8334665,2.827274 -2.2966408,3.028323 -0.2278074,0.0313 -0.4451809,0.02219 -0.6629019,-0.0035 l 0.3871112,2.817278 c 0.2028867,-0.08223 0.4095706,-0.150909 0.6373781,-0.182211 1.4631743,-0.201049 2.8230203,0.802508 3.0240694,2.265682 0.2010486,1.463174 -0.8334665,2.827274 -2.2966408,3.028323 -0.2278074,0.0313 -0.4451809,0.02219 -0.6629019,-0.0035 l 0.3871112,2.817278 c 0.2028867,-0.08223 0.4095706,-0.150909 0.6373781,-0.182211 1.4631742,-0.20105 2.82302,0.802508 3.024069,2.265682 0.201049,1.463174 -0.833466,2.827274 -2.2966404,3.028323 -0.2278074,0.0313 -0.4451809,0.02219 -0.6629019,-0.0035 l 0.3871112,2.817278 c 0.2028867,-0.08223 0.4095706,-0.150909 0.6373781,-0.182211 1.463174,-0.20105 2.82302,0.802508 3.024069,2.265682 0.20105,1.463175 -0.833466,2.827274 -2.2966404,3.028323 -0.2278074,0.0313 -0.4451809,0.02219 -0.6629019,-0.0035 L 9.5963659,52.9466 c 0.2028867,-0.08223 0.4095711,-0.150909 0.6373781,-0.182211 1.463174,-0.20105 2.82302,0.802508 3.024069,2.265682 0.20105,1.463175 -0.833466,2.827274 -2.29664,3.028323 -0.227808,0.0313 -0.445181,0.02219 -0.662902,-0.0035 l 0.387111,2.817278 c 0.202887,-0.08223 0.409571,-0.150909 0.637378,-0.182211 1.463174,-0.20105 2.82302,0.802508 3.024069,2.265682 0.20105,1.463175 -0.833466,2.827274 -2.29664,3.028323 -0.227808,0.0313 -0.445181,0.02218 -0.662902,-0.0035 l 0.387111,2.817278 c 0.202887,-0.08223 0.409571,-0.150909 0.637378,-0.182211 1.463174,-0.20105 2.82302,0.802508 3.024069,2.265682 0.20105,1.463175 -0.833466,2.827274 -2.29664,3.028323 -0.227808,0.0313 -0.445181,0.02218 -0.662902,-0.0035 l 0.387111,2.817278 c 0.202887,-0.08223 0.409571,-0.150909 0.637378,-0.182211 1.463174,-0.20105 2.82302,0.802508 3.024069,2.265682 0.201049,1.463172 -0.833466,2.827274 -2.29664,3.028323 -0.227808,0.0313 -0.445181,0.02218 -0.662902,-0.0035 l 0.387111,2.817278 c 0.202887,-0.08223 0.409571,-0.150909 0.637378,-0.182211 1.463175,-0.201046 2.82302,0.802508 3.024069,2.265682 0.201049,1.463172 -0.833466,2.827274 -2.29664,3.028323 -0.227808,0.0313 -0.445181,0.02218 -0.662902,-0.0035 l 0.387111,2.817278 c 0.202887,-0.08223 0.409571,-0.150909 0.637378,-0.182211 1.463175,-0.201046 2.82302,0.802508 3.024069,2.265682 0.201049,1.463172 -0.833466,2.827274 -2.29664,3.028323 -0.227808,0.0313 -0.445181,0.02218 -0.662902,-0.0035 l 0.387111,2.817276 c 0.202887,-0.0822 0.409571,-0.15091 0.637378,-0.18221 1.463175,-0.20105 2.82302,0.8025 3.024069,2.26568 0.201049,1.46317 -0.833466,2.82727 -2.29664,3.02832 -0.227808,0.0313 -0.445181,0.0222 -0.662902,-0.004 l 0.387112,2.81728 c 0.202886,-0.0822 0.40957,-0.15091 0.637378,-0.18221 1.463174,-0.20105 2.823019,0.8025 3.024069,2.26568 0.201049,1.46317 -0.833466,2.82728 -2.296641,3.02833 -0.227807,0.0313 -0.44518,0.0222 -0.662901,-0.004 l 0.387111,2.81728 c 0.202886,-0.0822 0.40957,-0.15091 0.637378,-0.18221 1.463174,-0.20105 2.82302,0.80251 3.024069,2.26568 0.201049,1.46317 -0.833466,2.82728 -2.296641,3.02832 -0.227807,0.0313 -0.44518,0.0222 -0.662901,-0.004 l 0.387111,2.81728 c 0.202886,-0.0822 0.40957,-0.15091 0.637378,-0.18221 1.463174,-0.20105 2.82302,0.80251 3.024069,2.26568 0.01184,0.0861 -3.62e-4,0.16669 0.0031,0.25193 l 2.693441,-0.3701 c -0.01948,-0.083 -0.05316,-0.15728 -0.06499,-0.24342 -0.20105,-1.46318 0.806761,-2.79206 2.269936,-2.99311 1.463174,-0.20105 2.82302,0.80251 3.024069,2.26568 0.01184,0.0861 -3.63e-4,0.16669 0.0031,0.25193 l 2.693441,-0.3701 c -0.01948,-0.083 -0.05315,-0.15727 -0.06499,-0.24341 -0.20105,-1.46319 0.806761,-2.79207 2.269936,-2.99311 1.463174,-0.20105 2.82302,0.80251 3.024069,2.26568 0.01184,0.0861 -3.63e-4,0.16669 0.0031,0.25192 l 2.693441,-0.37009 c -0.01948,-0.083 -0.05315,-0.15728 -0.06499,-0.24342 -0.20105,-1.46318 0.806761,-2.79206 2.269936,-2.99311 1.463174,-0.20105 2.82302,0.80251 3.024069,2.26568 0.01184,0.0861 -3.63e-4,0.16669 0.0031,0.25193 l 2.693441,-0.3701 c -0.01948,-0.083 -0.05315,-0.15728 -0.06499,-0.24342 -0.201049,-1.46318 0.806761,-2.79206 2.269936,-2.99311 1.463174,-0.20105 2.82302,0.80251 3.024069,2.26568 0.01184,0.0862 -3.63e-4,0.1667 0.0031,0.25193 l 2.693441,-0.37009 c -0.01948,-0.083 -0.05315,-0.15728 -0.06499,-0.24342 -0.201049,-1.46318 0.806761,-2.79206 2.269936,-2.99311 1.463174,-0.20105 2.82302,0.80251 3.024069,2.26568 0.01184,0.0861 -3.63e-4,0.16669 0.0031,0.25193 l 2.693441,-0.3701 c -0.01948,-0.083 -0.05316,-0.15728 -0.06499,-0.24342 -0.201049,-1.46318 0.806761,-2.79206 2.269936,-2.99311 1.463174,-0.20105 2.82302,0.80251 3.024069,2.26568 0.01184,0.0861 -3.63e-4,0.16669 0.0031,0.25193 l 2.693441,-0.3701 c -0.01948,-0.083 -0.05316,-0.15727 -0.06499,-0.24341 -0.201049,-1.46319 0.806761,-2.79207 2.269936,-2.99311 1.463174,-0.20105 2.82302,0.80251 3.024069,2.26568 0.01184,0.0861 -3.63e-4,0.16669 0.0031,0.25192 l 2.693441,-0.37009 c -0.01948,-0.083 -0.05316,-0.15728 -0.06499,-0.24342 -0.201049,-1.46318 0.806761,-2.79206 2.269936,-2.99311 1.46317,-0.20105 2.82302,0.80251 3.024069,2.26568 0.01184,0.0861 -3.63e-4,0.16669 0.0031,0.25193 l 2.693441,-0.3701 c -0.01948,-0.083 -0.05315,-0.15728 -0.06499,-0.24342 -0.201049,-1.46318 0.806761,-2.79206 2.269936,-2.99311 1.46317,-0.20105 2.82302,0.80251 3.024069,2.26568 0.01184,0.0862 -3.63e-4,0.1667 0.0031,0.25193 l 2.693441,-0.37009 c -0.01948,-0.083 -0.05315,-0.15728 -0.06499,-0.24342 -0.201049,-1.46318 0.806761,-2.79206 2.269936,-2.99311 1.463171,-0.20105 2.823021,0.80251 3.024071,2.26568 0.0118,0.0861 -3.7e-4,0.16669 0.003,0.25193 l 2.69344,-0.3701 c -0.0195,-0.083 -0.0532,-0.15728 -0.065,-0.24342 -0.20105,-1.46318 0.80676,-2.79206 2.26994,-2.99311 1.46317,-0.20105 2.82302,0.80251 3.02407,2.26568 0.0118,0.0861 -3.7e-4,0.16669 0.003,0.25193 l 2.69344,-0.3701 c -0.0195,-0.083 -0.0532,-0.15727 -0.065,-0.24341 -0.20105,-1.46319 0.80676,-2.79207 2.26993,-2.99311 1.46318,-0.20105 2.82302,0.80251 3.02407,2.26568 0.0118,0.0861 -3.6e-4,0.16669 0.003,0.25192 l 2.69344,-0.37009 c -0.0195,-0.083 -0.0532,-0.15728 -0.065,-0.24342 -0.20105,-1.46318 0.80676,-2.79206 2.26993,-2.99311 0.0755,-0.0104 0.14614,0.005 0.22097,0.001 l -0.3701,-2.69344 c -0.0731,0.0164 -0.13693,0.0504 -0.21246,0.0607 -1.46318,0.20105 -2.79631,-0.83773 -2.99736,-2.3009 -0.20105,-1.46318 0.80676,-2.79206 2.26994,-2.99311 0.0755,-0.0104 0.14613,0.005 0.22096,0.001 l -0.37009,-2.693435 c -0.0731,0.01643 -0.13693,0.05036 -0.21246,0.06074 -1.46318,0.20105 -2.79632,-0.837723 -2.99737,-2.300894 -0.20105,-1.463182 0.80677,-2.792062 2.26994,-2.993111 0.0755,-0.01038 0.14613,0.0052 0.22097,0.0012 l -0.3701,-2.693447 c -0.0731,0.01643 -0.13693,0.05036 -0.21246,0.06074 -1.46318,0.20105 -2.79631,-0.83772 -2.99736,-2.300894 -0.20105,-1.463177 0.80676,-2.792062 2.26993,-2.993111 0.0755,-0.01038 0.14614,0.0052 0.22097,0.0012 l -0.37009,-2.693441 c -0.0731,0.01643 -0.13693,0.05036 -0.21246,0.06074 -1.46319,0.20105 -2.79632,-0.83772 -2.99737,-2.300894 -0.20105,-1.463177 0.80677,-2.792062 2.26994,-2.993111 0.0755,-0.01038 0.14613,0.0052 0.22096,0.0012 l -0.37009,-2.693441 c -0.0731,0.01643 -0.13693,0.05036 -0.21246,0.06074 -1.46318,0.20105 -2.79632,-0.83772 -2.99736,-2.300894 -0.20105,-1.463177 0.80676,-2.792062 2.26993,-2.993111 0.0755,-0.01038 0.14613,0.0052 0.22097,0.0012 l -0.3701,-2.693441 c -0.0731,0.01643 -0.13693,0.05036 -0.21246,0.06074 -1.46318,0.20105 -2.79631,-0.83772 -2.99736,-2.300894 -0.20105,-1.463177 0.80676,-2.792062 2.26993,-2.993111 0.0755,-0.01038 0.14614,0.0052 0.22097,0.0012 l -0.37009,-2.693441 c -0.0731,0.01643 -0.13693,0.05036 -0.21246,0.06074 -1.46318,0.20105 -2.79632,-0.83772 -2.99737,-2.300894 -0.20105,-1.463174 0.80677,-2.792062 2.26994,-2.993111 0.0755,-0.01038 0.14613,0.0052 0.22097,0.0012 l -0.3701,-2.693441 c -0.0731,0.01643 -0.13693,0.05036 -0.21246,0.06074 -1.46318,0.20105 -2.79631,-0.83772 -2.99736,-2.300894 -0.20105,-1.463174 0.80676,-2.792062 2.26993,-2.993111 0.0755,-0.01038 0.14614,0.0052 0.22097,0.0012 L 114.2055,43.84045 c -0.0731,0.01643 -0.13693,0.05036 -0.21246,0.06074 -1.46319,0.20105 -2.79632,-0.83772 -2.99737,-2.300894 -0.20105,-1.463174 0.80677,-2.792062 2.26994,-2.993111 0.0755,-0.01038 0.14613,0.0052 0.22096,0.0012 l -0.37009,-2.693441 c -0.0731,0.01643 -0.13693,0.05036 -0.21246,0.06074 -1.46318,0.20105 -2.79632,-0.83772 -2.99736,-2.300894 -0.20105,-1.463174 0.80676,-2.792062 2.26993,-2.993111 0.0755,-0.01038 0.14613,0.0052 0.22097,0.0012 l -0.3701,-2.693441 c -0.0731,0.01643 -0.13693,0.05036 -0.21246,0.06074 -1.46318,0.20105 -2.79631,-0.83772 -2.99736,-2.300894 -0.20105,-1.463176 0.80676,-2.792062 2.26993,-2.993111 0.0755,-0.01038 0.14614,0.0052 0.22097,0.0012 l -0.37009,-2.693441 c -0.0731,0.01643 -0.13693,0.05036 -0.21246,0.06074 -1.46318,0.20105 -2.79632,-0.83772 -2.99737,-2.300894 -0.20105,-1.463176 0.80677,-2.792062 2.26994,-2.993111 0.0755,-0.01038 0.14613,0.0052 0.22097,0.0012 l -0.3701,-2.693441 c -0.0731,0.01643 -0.13693,0.05036 -0.21246,0.06074 -1.46318,0.20105 -2.79631,-0.83772 -2.99736,-2.3008943 -0.20105,-1.4631753 0.80676,-2.7920616 2.26993,-2.9931103 0.0755,-0.010378 0.14614,0.00524 0.22097,0.00118 l -0.37009,-2.6934412 c -0.0731,0.016431 -0.13693,0.050359 -0.21246,0.060737 -1.46319,0.2010501 -2.79632,-0.8377205 -2.99737,-2.3008949 -0.0313,-0.2278074 -0.0209,-0.4453554 0.004,-0.6629029 l -2.81728,0.3871112 c 0.0835,0.2027124 0.15091,0.4095716 0.18221,0.637379 0.20105,1.4631744 -0.83347,2.8272749 -2.29664,3.0283236 -1.463174,0.2010487 -2.796318,-0.8377205 -2.997367,-2.3008949 -0.0313,-0.2278074 -0.02091,-0.4453567 0.0035,-0.6629029 L 94.81133,2.7858758 c 0.0835,0.2027124 0.150908,0.4095716 0.18221,0.637379 0.201049,1.4631744 -0.833459,2.8272735 -2.29664,3.0283236 -1.463178,0.2010495 -2.796315,-0.8377206 -2.997364,-2.3008951 -0.0313,-0.2278074 -0.02092,-0.4453556 0.0035,-0.6629028 l -2.817277,0.3871111 c 0.0835,0.2027129 0.150908,0.4095717 0.18221,0.6373791 0.201048,1.4631745 -0.833466,2.8272745 -2.29664,3.0283236 -1.463179,0.2010496 -2.796316,-0.8377205 -2.997365,-2.300895 -0.0313,-0.2278074 -0.02092,-0.4453556 0.0035,-0.6629028 l -2.817277,0.3871111 c 0.0835,0.2027129 0.150908,0.4095717 0.18221,0.6373791 0.201048,1.4631745 -0.833466,2.8272745 -2.29664,3.0283236 -1.463179,0.2010496 -2.796316,-0.8377205 -2.997365,-2.300895 -0.0313,-0.2278074 -0.02092,-0.4453556 0.0035,-0.6629028 l -2.817277,0.3871111 c 0.0835,0.2027129 0.150908,0.4095717 0.18221,0.6373791 0.201048,1.4631745 -0.833466,2.8272745 -2.29664,3.0283236 C 67.457006,9.9196759 66.123869,8.8809058 65.92282,7.4177313 65.89152,7.1899239 65.9019,6.9723757 65.92632,6.7548285 l -2.817277,0.3871111 c 0.0835,0.2027129 0.150908,0.4095717 0.18221,0.6373791 0.201048,1.4631745 -0.833466,2.8272743 -2.29664,3.0283233 -1.463175,0.201049 -2.796316,-0.8377202 -2.997365,-2.3008947 -0.0313,-0.2278074 -0.02092,-0.4453556 0.0035,-0.6629028 l -2.817277,0.3871111 c 0.0835,0.2027129 0.150908,0.4095717 0.18221,0.6373791 0.201048,1.4631743 -0.833466,2.8272743 -2.29664,3.0283233 -1.463175,0.201049 -2.796316,-0.83772 -2.997365,-2.3008947 -0.0313,-0.2278074 -0.02092,-0.4453556 0.0035,-0.6629028 l -2.817277,0.3871111 c 0.0835,0.2027129 0.150908,0.4095717 0.18221,0.6373791 0.201048,1.4631743 -0.833466,2.8272743 -2.29664,3.0283233 -1.463175,0.201049 -2.796316,-0.83772 -2.997365,-2.300895 -0.0313,-0.227807 -0.02092,-0.445355 0.0035,-0.662903 l -2.817277,0.387112 c 0.0835,0.202712 0.150908,0.409571 0.18221,0.637379 0.201048,1.463174 -0.833466,2.827274 -2.29664,3.028323 -1.463175,0.201049 -2.796316,-0.83772 -2.997365,-2.300895 -0.0313,-0.227807 -0.02092,-0.445355 0.0035,-0.662903 l -2.817277,0.387112 c 0.0835,0.202712 0.150908,0.409571 0.18221,0.637379 0.201049,1.463174 -0.833466,2.827274 -2.29664,3.028323 -1.463175,0.201049 -2.796316,-0.83772 -2.997365,-2.300895 -0.0313,-0.227807 -0.02092,-0.445355 0.0035,-0.662903 l -2.817277,0.387112 c 0.0835,0.202712 0.150908,0.409571 0.18221,0.637379 0.201049,1.463174 -0.833466,2.827274 -2.29664,3.028323 -1.463175,0.201049 -2.796316,-0.83772 -2.997365,-2.300895 -0.0313,-0.227807 -0.02092,-0.445355 0.0035,-0.662903 l -2.817277,0.387112 c 0.0835,0.202712 0.150908,0.409571 0.18221,0.637379 0.201049,1.463174 -0.833466,2.827274 -2.29664,3.028323 -1.463175,0.201049 -2.796316,-0.83772 -2.997365,-2.300895 -0.0313,-0.227807 -0.02092,-0.445355 0.0035,-0.662903 l -2.8172773,0.387112 z"
         id="path30002"
         style="fill:#babdb6;fill-opacity:1;stroke:#babdb6;stroke-width:1.99999917;stroke-linecap:round;stroke-linejoin:round;stroke-miterlimit:4;stroke-opacity:1;stroke-dasharray:none;stroke-dashoffset:0" />
      <path
         d="m 7.6305227,14.765052 c 0.083499,0.202712 0.1509085,0.409571 0.1822106,0.637379 0.2010492,1.463174 -0.8334664,2.827274 -2.2966407,3.028323 -0.2278074,0.0313 -0.445181,0.02218 -0.6629019,-0.0035 l 0.3871112,2.817278 c 0.2028865,-0.08223 0.4095706,-0.150909 0.6373781,-0.182211 1.4631743,-0.201049 2.8230203,0.802508 3.0240694,2.265682 0.2010491,1.463174 -0.8334665,2.827274 -2.2966408,3.028323 -0.2278074,0.0313 -0.4451809,0.02219 -0.6629019,-0.0035 l 0.3871112,2.817278 c 0.2028867,-0.08223 0.4095706,-0.150909 0.6373781,-0.182211 1.4631743,-0.201049 2.8230203,0.802508 3.0240694,2.265682 0.2010486,1.463174 -0.8334665,2.827274 -2.2966408,3.028323 -0.2278074,0.0313 -0.4451809,0.02219 -0.6629019,-0.0035 l 0.3871112,2.817278 c 0.2028867,-0.08223 0.4095706,-0.150909 0.6373781,-0.182211 1.4631742,-0.20105 2.82302,0.802508 3.024069,2.265682 0.201049,1.463174 -0.833466,2.827274 -2.2966404,3.028323 -0.2278074,0.0313 -0.4451809,0.02219 -0.6629019,-0.0035 l 0.3871112,2.817278 c 0.2028867,-0.08223 0.4095706,-0.150909 0.6373781,-0.182211 1.463174,-0.20105 2.82302,0.802508 3.024069,2.265682 0.20105,1.463175 -0.833466,2.827274 -2.2966404,3.028323 -0.2278074,0.0313 -0.4451809,0.02219 -0.6629019,-0.0035 L 9.5963659,52.9466 c 0.2028867,-0.08223 0.4095711,-0.150909 0.6373781,-0.182211 1.463174,-0.20105 2.82302,0.802508 3.024069,2.265682 0.20105,1.463175 -0.833466,2.827274 -2.29664,3.028323 -0.227808,0.0313 -0.445181,0.02219 -0.662902,-0.0035 l 0.387111,2.817278 c 0.202887,-0.08223 0.409571,-0.150909 0.637378,-0.182211 1.463174,-0.20105 2.82302,0.802508 3.024069,2.265682 0.20105,1.463175 -0.833466,2.827274 -2.29664,3.028323 -0.227808,0.0313 -0.445181,0.02218 -0.662902,-0.0035 l 0.387111,2.817278 c 0.202887,-0.08223 0.409571,-0.150909 0.637378,-0.182211 1.463174,-0.20105 2.82302,0.802508 3.024069,2.265682 0.20105,1.463175 -0.833466,2.827274 -2.29664,3.028323 -0.227808,0.0313 -0.445181,0.02218 -0.662902,-0.0035 l 0.387111,2.817278 c 0.202887,-0.08223 0.409571,-0.150909 0.637378,-0.182211 1.463174,-0.20105 2.82302,0.802508 3.024069,2.265682 0.201049,1.463172 -0.833466,2.827274 -2.29664,3.028323 -0.227808,0.0313 -0.445181,0.02218 -0.662902,-0.0035 l 0.387111,2.817278 c 0.202887,-0.08223 0.409571,-0.150909 0.637378,-0.182211 1.463175,-0.201046 2.82302,0.802508 3.024069,2.265682 0.201049,1.463172 -0.833466,2.827274 -2.29664,3.028323 -0.227808,0.0313 -0.445181,0.02218 -0.662902,-0.0035 l 0.387111,2.817278 c 0.202887,-0.08223 0.409571,-0.150909 0.637378,-0.182211 1.463175,-0.201046 2.82302,0.802508 3.024069,2.265682 0.201049,1.463172 -0.833466,2.827274 -2.29664,3.028323 -0.227808,0.0313 -0.445181,0.02218 -0.662902,-0.0035 l 0.387111,2.817276 c 0.202887,-0.0822 0.409571,-0.15091 0.637378,-0.18221 1.463175,-0.20105 2.82302,0.8025 3.024069,2.26568 0.201049,1.46317 -0.833466,2.82727 -2.29664,3.02832 -0.227808,0.0313 -0.445181,0.0222 -0.662902,-0.004 l 0.387112,2.81728 c 0.202886,-0.0822 0.40957,-0.15091 0.637378,-0.18221 1.463174,-0.20105 2.823019,0.8025 3.024069,2.26568 0.201049,1.46317 -0.833466,2.82728 -2.296641,3.02833 -0.227807,0.0313 -0.44518,0.0222 -0.662901,-0.004 l 0.387111,2.81728 c 0.202886,-0.0822 0.40957,-0.15091 0.637378,-0.18221 1.463174,-0.20105 2.82302,0.80251 3.024069,2.26568 0.201049,1.46317 -0.833466,2.82728 -2.296641,3.02832 -0.227807,0.0313 -0.44518,0.0222 -0.662901,-0.004 l 0.387111,2.81728 c 0.202886,-0.0822 0.40957,-0.15091 0.637378,-0.18221 1.463174,-0.20105 2.82302,0.80251 3.024069,2.26568 0.01184,0.0861 -3.62e-4,0.16669 0.0031,0.25193 l 2.693441,-0.3701 c -0.01948,-0.083 -0.05316,-0.15728 -0.06499,-0.24342 -0.20105,-1.46318 0.806761,-2.79206 2.269936,-2.99311 1.463174,-0.20105 2.82302,0.80251 3.024069,2.26568 0.01184,0.0861 -3.63e-4,0.16669 0.0031,0.25193 l 2.693441,-0.3701 c -0.01948,-0.083 -0.05315,-0.15727 -0.06499,-0.24341 -0.20105,-1.46319 0.806761,-2.79207 2.269936,-2.99311 1.463174,-0.20105 2.82302,0.80251 3.024069,2.26568 0.01184,0.0861 -3.63e-4,0.16669 0.0031,0.25192 l 2.693441,-0.37009 c -0.01948,-0.083 -0.05315,-0.15728 -0.06499,-0.24342 -0.20105,-1.46318 0.806761,-2.79206 2.269936,-2.99311 1.463174,-0.20105 2.82302,0.80251 3.024069,2.26568 0.01184,0.0861 -3.63e-4,0.16669 0.0031,0.25193 l 2.693441,-0.3701 c -0.01948,-0.083 -0.05315,-0.15728 -0.06499,-0.24342 -0.201049,-1.46318 0.806761,-2.79206 2.269936,-2.99311 1.463174,-0.20105 2.82302,0.80251 3.024069,2.26568 0.01184,0.0862 -3.63e-4,0.1667 0.0031,0.25193 l 2.693441,-0.37009 c -0.01948,-0.083 -0.05315,-0.15728 -0.06499,-0.24342 -0.201049,-1.46318 0.806761,-2.79206 2.269936,-2.99311 1.463174,-0.20105 2.82302,0.80251 3.024069,2.26568 0.01184,0.0861 -3.63e-4,0.16669 0.0031,0.25193 l 2.693441,-0.3701 c -0.01948,-0.083 -0.05316,-0.15728 -0.06499,-0.24342 -0.201049,-1.46318 0.806761,-2.79206 2.269936,-2.99311 1.463174,-0.20105 2.82302,0.80251 3.024069,2.26568 0.01184,0.0861 -3.63e-4,0.16669 0.0031,0.25193 l 2.693441,-0.3701 c -0.01948,-0.083 -0.05316,-0.15727 -0.06499,-0.24341 -0.201049,-1.46319 0.806761,-2.79207 2.269936,-2.99311 1.463174,-0.20105 2.82302,0.80251 3.024069,2.26568 0.01184,0.0861 -3.63e-4,0.16669 0.0031,0.25192 l 2.693441,-0.37009 c -0.01948,-0.083 -0.05316,-0.15728 -0.06499,-0.24342 -0.201049,-1.46318 0.806761,-2.79206 2.269936,-2.99311 1.46317,-0.20105 2.82302,0.80251 3.024069,2.26568 0.01184,0.0861 -3.63e-4,0.16669 0.0031,0.25193 l 2.693441,-0.3701 c -0.01948,-0.083 -0.05315,-0.15728 -0.06499,-0.24342 -0.201049,-1.46318 0.806761,-2.79206 2.269936,-2.99311 1.46317,-0.20105 2.82302,0.80251 3.024069,2.26568 0.01184,0.0862 -3.63e-4,0.1667 0.0031,0.25193 l 2.693441,-0.37009 c -0.01948,-0.083 -0.05315,-0.15728 -0.06499,-0.24342 -0.201049,-1.46318 0.806761,-2.79206 2.269936,-2.99311 1.463171,-0.20105 2.823021,0.80251 3.024071,2.26568 0.0118,0.0861 -3.7e-4,0.16669 0.003,0.25193 l 2.69344,-0.3701 c -0.0195,-0.083 -0.0532,-0.15728 -0.065,-0.24342 -0.20105,-1.46318 0.80676,-2.79206 2.26994,-2.99311 1.46317,-0.20105 2.82302,0.80251 3.02407,2.26568 0.0118,0.0861 -3.7e-4,0.16669 0.003,0.25193 l 2.69344,-0.3701 c -0.0195,-0.083 -0.0532,-0.15727 -0.065,-0.24341 -0.20105,-1.46319 0.80676,-2.79207 2.26993,-2.99311 1.46318,-0.20105 2.82302,0.80251 3.02407,2.26568 0.0118,0.0861 -3.6e-4,0.16669 0.003,0.25192 l 2.69344,-0.37009 c -0.0195,-0.083 -0.0532,-0.15728 -0.065,-0.24342 -0.20105,-1.46318 0.80676,-2.79206 2.26993,-2.99311 0.0755,-0.0104 0.14614,0.005 0.22097,0.001 l -0.3701,-2.69344 c -0.0731,0.0164 -0.13693,0.0504 -0.21246,0.0607 -1.46318,0.20105 -2.79631,-0.83773 -2.99736,-2.3009 -0.20105,-1.46318 0.80676,-2.79206 2.26994,-2.99311 0.0755,-0.0104 0.14613,0.005 0.22096,0.001 l -0.37009,-2.693435 c -0.0731,0.01643 -0.13693,0.05036 -0.21246,0.06074 -1.46318,0.20105 -2.79632,-0.837723 -2.99737,-2.300894 -0.20105,-1.463182 0.80677,-2.792062 2.26994,-2.993111 0.0755,-0.01038 0.14613,0.0052 0.22097,0.0012 l -0.3701,-2.693447 c -0.0731,0.01643 -0.13693,0.05036 -0.21246,0.06074 -1.46318,0.20105 -2.79631,-0.83772 -2.99736,-2.300894 -0.20105,-1.463177 0.80676,-2.792062 2.26993,-2.993111 0.0755,-0.01038 0.14614,0.0052 0.22097,0.0012 l -0.37009,-2.693441 c -0.0731,0.01643 -0.13693,0.05036 -0.21246,0.06074 -1.46319,0.20105 -2.79632,-0.83772 -2.99737,-2.300894 -0.20105,-1.463177 0.80677,-2.792062 2.26994,-2.993111 0.0755,-0.01038 0.14613,0.0052 0.22096,0.0012 l -0.37009,-2.693441 c -0.0731,0.01643 -0.13693,0.05036 -0.21246,0.06074 -1.46318,0.20105 -2.79632,-0.83772 -2.99736,-2.300894 -0.20105,-1.463177 0.80676,-2.792062 2.26993,-2.993111 0.0755,-0.01038 0.14613,0.0052 0.22097,0.0012 l -0.3701,-2.693441 c -0.0731,0.01643 -0.13693,0.05036 -0.21246,0.06074 -1.46318,0.20105 -2.79631,-0.83772 -2.99736,-2.300894 -0.20105,-1.463177 0.80676,-2.792062 2.26993,-2.993111 0.0755,-0.01038 0.14614,0.0052 0.22097,0.0012 l -0.37009,-2.693441 c -0.0731,0.01643 -0.13693,0.05036 -0.21246,0.06074 -1.46318,0.20105 -2.79632,-0.83772 -2.99737,-2.300894 -0.20105,-1.463174 0.80677,-2.792062 2.26994,-2.993111 0.0755,-0.01038 0.14613,0.0052 0.22097,0.0012 l -0.3701,-2.693441 c -0.0731,0.01643 -0.13693,0.05036 -0.21246,0.06074 -1.46318,0.20105 -2.79631,-0.83772 -2.99736,-2.300894 -0.20105,-1.463174 0.80676,-2.792062 2.26993,-2.993111 0.0755,-0.01038 0.14614,0.0052 0.22097,0.0012 L 114.2055,43.84045 c -0.0731,0.01643 -0.13693,0.05036 -0.21246,0.06074 -1.46319,0.20105 -2.79632,-0.83772 -2.99737,-2.300894 -0.20105,-1.463174 0.80677,-2.792062 2.26994,-2.993111 0.0755,-0.01038 0.14613,0.0052 0.22096,0.0012 l -0.37009,-2.693441 c -0.0731,0.01643 -0.13693,0.05036 -0.21246,0.06074 -1.46318,0.20105 -2.79632,-0.83772 -2.99736,-2.300894 -0.20105,-1.463174 0.80676,-2.792062 2.26993,-2.993111 0.0755,-0.01038 0.14613,0.0052 0.22097,0.0012 l -0.3701,-2.693441 c -0.0731,0.01643 -0.13693,0.05036 -0.21246,0.06074 -1.46318,0.20105 -2.79631,-0.83772 -2.99736,-2.300894 -0.20105,-1.463176 0.80676,-2.792062 2.26993,-2.993111 0.0755,-0.01038 0.14614,0.0052 0.22097,0.0012 l -0.37009,-2.693441 c -0.0731,0.01643 -0.13693,0.05036 -0.21246,0.06074 -1.46318,0.20105 -2.79632,-0.83772 -2.99737,-2.300894 -0.20105,-1.463176 0.80677,-2.792062 2.26994,-2.993111 0.0755,-0.01038 0.14613,0.0052 0.22097,0.0012 l -0.3701,-2.693441 c -0.0731,0.01643 -0.13693,0.05036 -0.21246,0.06074 -1.46318,0.20105 -2.79631,-0.83772 -2.99736,-2.3008943 -0.20105,-1.4631753 0.80676,-2.7920616 2.26993,-2.9931103 0.0755,-0.010378 0.14614,0.00524 0.22097,0.00118 l -0.37009,-2.6934412 c -0.0731,0.016431 -0.13693,0.050359 -0.21246,0.060737 -1.46319,0.2010501 -2.79632,-0.8377205 -2.99737,-2.3008949 -0.0313,-0.2278074 -0.0209,-0.4453554 0.004,-0.6629029 l -2.81728,0.3871112 c 0.0835,0.2027124 0.15091,0.4095716 0.18221,0.637379 0.20105,1.4631744 -0.83347,2.8272749 -2.29664,3.0283236 -1.463174,0.2010487 -2.796318,-0.8377205 -2.997367,-2.3008949 -0.0313,-0.2278074 -0.02091,-0.4453567 0.0035,-0.6629029 L 94.81133,2.7858758 c 0.0835,0.2027124 0.150908,0.4095716 0.18221,0.637379 0.201049,1.4631744 -0.833459,2.8272735 -2.29664,3.0283236 -1.463178,0.2010495 -2.796315,-0.8377206 -2.997364,-2.3008951 -0.0313,-0.2278074 -0.02092,-0.4453556 0.0035,-0.6629028 l -2.817277,0.3871111 c 0.0835,0.2027129 0.150908,0.4095717 0.18221,0.6373791 0.201048,1.4631745 -0.833466,2.8272745 -2.29664,3.0283236 -1.463179,0.2010496 -2.796316,-0.8377205 -2.997365,-2.300895 -0.0313,-0.2278074 -0.02092,-0.4453556 0.0035,-0.6629028 l -2.817277,0.3871111 c 0.0835,0.2027129 0.150908,0.4095717 0.18221,0.6373791 0.201048,1.4631745 -0.833466,2.8272745 -2.29664,3.0283236 -1.463179,0.2010496 -2.796316,-0.8377205 -2.997365,-2.300895 -0.0313,-0.2278074 -0.02092,-0.4453556 0.0035,-0.6629028 l -2.817277,0.3871111 c 0.0835,0.2027129 0.150908,0.4095717 0.18221,0.6373791 0.201048,1.4631745 -0.833466,2.8272745 -2.29664,3.0283236 C 67.457006,9.9196759 66.123869,8.8809058 65.92282,7.4177313 65.89152,7.1899239 65.9019,6.9723757 65.92632,6.7548285 l -2.817277,0.3871111 c 0.0835,0.2027129 0.150908,0.4095717 0.18221,0.6373791 0.201048,1.4631745 -0.833466,2.8272743 -2.29664,3.0283233 -1.463175,0.201049 -2.796316,-0.8377202 -2.997365,-2.3008947 -0.0313,-0.2278074 -0.02092,-0.4453556 0.0035,-0.6629028 l -2.817277,0.3871111 c 0.0835,0.2027129 0.150908,0.4095717 0.18221,0.6373791 0.201048,1.4631743 -0.833466,2.8272743 -2.29664,3.0283233 -1.463175,0.201049 -2.796316,-0.83772 -2.997365,-2.3008947 -0.0313,-0.2278074 -0.02092,-0.4453556 0.0035,-0.6629028 l -2.817277,0.3871111 c 0.0835,0.2027129 0.150908,0.4095717 0.18221,0.6373791 0.201048,1.4631743 -0.833466,2.8272743 -2.29664,3.0283233 -1.463175,0.201049 -2.796316,-0.83772 -2.997365,-2.300895 -0.0313,-0.227807 -0.02092,-0.445355 0.0035,-0.662903 l -2.817277,0.387112 c 0.0835,0.202712 0.150908,0.409571 0.18221,0.637379 0.201048,1.463174 -0.833466,2.827274 -2.29664,3.028323 -1.463175,0.201049 -2.796316,-0.83772 -2.997365,-2.300895 -0.0313,-0.227807 -0.02092,-0.445355 0.0035,-0.662903 l -2.817277,0.387112 c 0.0835,0.202712 0.150908,0.409571 0.18221,0.637379 0.201049,1.463174 -0.833466,2.827274 -2.29664,3.028323 -1.463175,0.201049 -2.796316,-0.83772 -2.997365,-2.300895 -0.0313,-0.227807 -0.02092,-0.445355 0.0035,-0.662903 l -2.817277,0.387112 c 0.0835,0.202712 0.150908,0.409571 0.18221,0.637379 0.201049,1.463174 -0.833466,2.827274 -2.29664,3.028323 -1.463175,0.201049 -2.796316,-0.83772 -2.997365,-2.300895 -0.0313,-0.227807 -0.02092,-0.445355 0.0035,-0.662903 l -2.817277,0.387112 c 0.0835,0.202712 0.150908,0.409571 0.18221,0.637379 0.201049,1.463174 -0.833466,2.827274 -2.29664,3.028323 -1.463175,0.201049 -2.796316,-0.83772 -2.997365,-2.300895 -0.0313,-0.227807 -0.02092,-0.445355 0.0035,-0.662903 l -2.8172773,0.387112 z"
         id="rect25754"
         style="fill:#ffffff;fill-opacity:1;stroke:none" />
      <g
         transform="matrix(0.990691,-0.136127,0.136127,0.990691,-8.617751,5.328796)"
         mask="url(#mask27344)"
         id="g27032">
        <rect
           width="108.20067"
           height="108.20067"
           x="9.8996658"
           y="9.8996658"
           id="rect26137"
           style="fill:url(#linearGradient6151);fill-opacity:1;stroke:none" />
        <g
           id="g26086">
          <g
             transform="matrix(0.945724,0,0,0.945724,17.38005,3.769244)"
             id="g3116">
            <path
               d="m 428.62836,222.16092 a 183.90805,183.90805 0 1 1 -367.816104,0 183.90805,183.90805 0 1 1 367.816104,0 z"
               transform="matrix(0,-0.262607,0.262607,0,-9.045471,133.7106)"
               id="path9557"
               style="fill:#4e9a06;fill-opacity:1;stroke:#4e9a06;stroke-width:7.61594343;stroke-linecap:butt;stroke-linejoin:round;stroke-miterlimit:4;stroke-opacity:1;stroke-dasharray:none;stroke-dashoffset:0" />
            <path
               d="m 428.62836,222.16092 a 183.90805,183.90805 0 1 1 -367.816104,0 183.90805,183.90805 0 1 1 367.816104,0 z"
               transform="matrix(0,-0.262607,0.262607,0,-9.045471,133.7106)"
               id="path1872"
               style="fill:url(#linearGradient6153);fill-opacity:1;stroke:none" />
            <path
               d="m 428.62836,222.16092 a 183.90805,183.90805 0 1 1 -367.816104,0 183.90805,183.90805 0 1 1 367.816104,0 z"
               transform="matrix(0,-0.262607,0.262607,0,-9.045471,133.7106)"
               id="path5461"
               style="fill:url(#radialGradient6155);fill-opacity:1;stroke:none" />
            <path
               d="m 428.62836,222.16092 a 183.90805,183.90805 0 1 1 -367.816104,0 183.90805,183.90805 0 1 1 367.816104,0 z"
               transform="matrix(0,0.191202,0.191202,0,6.817809,10.5024)"
               id="path6358"
               style="fill:url(#radialGradient6157);fill-opacity:1;stroke:none" />
            <path
               d="m 428.62836,222.16092 a 183.90805,183.90805 0 1 1 -367.816104,0 183.90805,183.90805 0 1 1 367.816104,0 z"
               transform="matrix(0,-0.153363,0.206196,0,3.486899,125.6807)"
               id="path8142"
               style="fill:url(#radialGradient6159);fill-opacity:1;stroke:none" />
            <g
               transform="matrix(0.262607,0,0,0.262607,-14.96973,11.1044)"
               id="g11789"
               style="opacity:0.5">
              <path
                 d="m 201.58219,398.66524 c 0,0 -175.98576,-177.96619 32.57947,-358.777143 C -1.634599,220.03851 202.12567,397.72391 201.58219,398.66524 z"
                 id="path8152"
                 style="fill:url(#linearGradient6161);fill-opacity:1;fill-rule:evenodd;stroke:none" />
              <path
                 d="m 418.06183,185.18557 c 0,0 -177.96626,-175.9856903 -358.777135,32.57961 C 239.43502,-18.031148 417.12049,185.72905 418.06183,185.18557 z"
                 id="path9971"
                 style="fill:url(#linearGradient6163);fill-opacity:1;fill-rule:evenodd;stroke:none" />
              <path
                 d="m 66.93794,267.02123 c 0,0 177.96626,175.98569 358.77713,-32.57961 C 245.56475,470.23795 67.879272,266.47776 66.93794,267.02123 z"
                 id="path9981"
                 style="fill:url(#linearGradient6165);fill-opacity:1;fill-rule:evenodd;stroke:none" />
              <path
                 d="m 283.41758,47.541558 c 0,0 175.98575,177.966182 -32.57947,358.777142 C 486.63436,226.16829 282.8741,48.482895 283.41758,47.541558 z"
                 id="path9983"
                 style="fill:url(#linearGradient6167);fill-opacity:1;fill-rule:evenodd;stroke:none" />
              <path
                 d="M 92,316 C 92,316 262.42047,243.53212 400.71024,137.76606 239,206 91,316 92,316 z"
                 id="path9993"
                 style="fill:url(#radialGradient6169);fill-opacity:1;fill-rule:evenodd;stroke:none" />
              <path
                 d="m 335.46957,381.23563 c 0,0 -72.46788,-170.42047 -178.23394,-308.710239 68.23394,161.710239 178.23394,309.710239 178.23394,308.710239 z"
                 id="path10888"
                 style="fill:url(#radialGradient6171);fill-opacity:1;fill-rule:evenodd;stroke:none" />
            </g>
            <path
               d="m 176,148.5 a 19.5,19.5 0 1 1 -39,0 19.5,19.5 0 1 1 39,0 z"
               transform="matrix(0.491547,0,0,0.491547,-27.16413,-2.147156)"
               id="path12694"
               style="fill:url(#radialGradient6173);fill-opacity:1;stroke:none" />
            <path
               d="m 176,148.5 a 19.5,19.5 0 1 1 -39,0 19.5,19.5 0 1 1 39,0 z"
               transform="matrix(0.208739,0,0,0.208739,41.51777,14.9021)"
               id="path12698"
               style="fill:url(#radialGradient6175);fill-opacity:1;stroke:none" />
            <path
               d="m 176,148.5 a 19.5,19.5 0 1 1 -39,0 19.5,19.5 0 1 1 39,0 z"
               transform="matrix(0.127937,0,0,0.127937,63.87972,31.89077)"
               id="path12714"
               style="fill:url(#radialGradient6177);fill-opacity:1;stroke:none" />
            <path
               d="m 176,148.5 a 19.5,19.5 0 1 1 -39,0 19.5,19.5 0 1 1 39,0 z"
               transform="matrix(0.262607,0,0,0.262607,-6.828906,4.801832)"
               id="path12726"
               style="fill:url(#radialGradient6179);fill-opacity:1;stroke:none" />
            <path
               d="m 176,148.5 a 19.5,19.5 0 1 1 -39,0 19.5,19.5 0 1 1 39,0 z"
               transform="matrix(0.262607,0,0,0.262607,35.71347,15.30611)"
               id="path12730"
               style="fill:url(#radialGradient6181);fill-opacity:1;stroke:none" />
            <path
               d="m 176,148.5 a 19.5,19.5 0 1 1 -39,0 19.5,19.5 0 1 1 39,0 z"
               transform="matrix(0.262607,0,0,0.262607,23.37092,57.84845)"
               id="path12734"
               style="fill:url(#radialGradient6183);fill-opacity:1;stroke:none" />
            <path
               d="m 176,148.5 a 19.5,19.5 0 1 1 -39,0 19.5,19.5 0 1 1 39,0 z"
               transform="matrix(0.262607,0,0,0.262607,-20.22187,48.132)"
               id="path12738"
               style="fill:url(#radialGradient6185);fill-opacity:1;stroke:none" />
            <path
               d="m 176,148.5 a 19.5,19.5 0 1 1 -39,0 19.5,19.5 0 1 1 39,0 z"
               transform="matrix(0.208739,0,0,0.208739,40.20472,63.747)"
               id="path12742"
               style="fill:url(#radialGradient6187);fill-opacity:1;stroke:none" />
            <path
               d="m 176,148.5 a 19.5,19.5 0 1 1 -39,0 19.5,19.5 0 1 1 39,0 z"
               transform="matrix(0.127937,0,0,0.127937,46.81027,83.88695)"
               id="path12746"
               style="fill:url(#radialGradient6189);fill-opacity:1;stroke:none" />
            <path
               d="m 176,148.5 a 19.5,19.5 0 1 1 -39,0 19.5,19.5 0 1 1 39,0 z"
               transform="matrix(0.208739,0,0,0.208739,-8.114996,64.79745)"
               id="path12750"
               style="fill:url(#radialGradient6191);fill-opacity:1;stroke:none" />
            <path
               d="m 176,148.5 a 19.5,19.5 0 1 1 -39,0 19.5,19.5 0 1 1 39,0 z"
               transform="matrix(0.208739,0,0,0.208739,-8.114996,15.95252)"
               id="path12754"
               style="fill:url(#radialGradient6193);fill-opacity:1;stroke:none" />
            <path
               d="m 176,148.5 a 19.5,19.5 0 1 1 -39,0 19.5,19.5 0 1 1 39,0 z"
               transform="matrix(0.127937,0,0,0.127937,-4.923321,71.807)"
               id="path12758"
               style="fill:url(#radialGradient6195);fill-opacity:1;stroke:none" />
            <path
               d="m 176,148.5 a 19.5,19.5 0 1 1 -39,0 19.5,19.5 0 1 1 39,0 z"
               transform="matrix(0.127937,0,0,0.127937,10.5705,18.49779)"
               id="path12762"
               style="fill:url(#radialGradient6197);fill-opacity:1;stroke:none" />
          </g>
          <g
             transform="matrix(0.945724,0,0,0.945724,3.473691,3.769244)"
             id="g25870">
            <g
               id="g25732">
              <g
                 id="g25688">
                <path
                   d="m 24.945445,51.12438 c -0.180927,0.143234 -0.381857,0.343667 -0.621334,0.611318 -3.831619,4.2824 -2.279204,12.177301 -2.279204,12.177301 -10e-7,-3e-6 -1.325979,-8.099656 -2.903706,-3.591866 -1.577727,4.507792 2.481471,11.485535 2.481471,11.485535 -2e-6,-4e-6 -4.507785,-7.666852 -3.60623,-2.933673 0.901561,4.733179 5.411559,9.685594 5.411559,9.685594 0,0 -3.837659,-4.284979 -3.386878,-0.678745 0.450781,3.606232 7.420892,6.540863 7.420892,6.540863 2e-6,0 -5.855159,1.152178 -2.023536,4.307631 3.83162,3.155452 11.731127,0.443909 11.731127,0.443909 0,0 -6.088109,4.93317 0.222797,6.510896 1.819622,0.454905 3.611746,0.48302 5.253425,0.286698 0.561044,1.114769 1.136911,2.219189 1.766746,3.310096 12.167094,21.074023 46.080386,12.069883 48.360706,-16.049302 5.828987,0.747388 16.10402,-4.179333 17.0516,-7.715765 0.89205,-3.329182 -4.48754,-1.321557 -6.01038,-0.535276 1.41028,-0.785853 7.28379,-3.795501 5.16647,-7.926421 -1.45105,-2.831018 -4.36367,-0.449269 -6.49161,1.94371 -1.23757,1.852217 -2.547533,3.27504 -2.547533,3.27504 -3e-6,10e-7 1.091573,-1.637743 2.547533,-3.27504 1.84073,-2.754945 3.49265,-6.485343 0.25149,-7.939421 -2.06699,-0.927314 -3.618394,0.391367 -4.745578,2.342928 -0.461377,3.43484 -2.380889,6.751181 -2.380889,6.751181 2e-6,-10e-7 0.552253,-3.585156 2.380889,-6.751181 0.298532,-2.222543 -0.119102,-4.130467 -2.17494,-3.579606 -0.800922,0.214607 -1.726468,0.402492 -2.679567,0.608854 0.932364,-1.293045 4.886805,-7.083605 3.39471,-10.62019 -1.677041,-3.97496 -3.057851,2.703648 -3.057852,2.703645 -3e-6,2e-6 1.680484,-7.761336 -0.202025,-13.162417 -1.882518,-5.401077 -1.973296,5.144651 -1.973296,5.144651 -3e-6,10e-7 0.02902,-9.570553 -4.26855,-13.268346 -4.297574,-3.697795 -0.863405,5.442046 -0.863401,5.442046 -3e-6,10e-7 -3.080904,-9.058263 -9.561818,-11.186555 -1.012646,-0.332544 -1.570118,-0.379928 -1.814663,-0.143089 -1.320548,1.278935 6.865693,10.554568 6.283515,24.445868 C 80.414877,65.593189 57.449104,66.303484 59.954817,82.51239 57.558953,81.69397 56.256343,78.955671 56.830558,72.913514 57.791587,62.801122 47.870898,60.36894 43.935467,62.641062 39.195752,65.377537 37.218745,70.332572 37.220646,76.260651 34.926189,75.309907 32.88081,73.810967 31.310891,71.337155 24.337905,60.349417 27.659364,48.975861 24.945445,51.12438 z"
                   id="path14069"
                   style="fill:#3465a4;fill-opacity:1;fill-rule:evenodd;stroke:#3465a4;stroke-width:2;stroke-linecap:round;stroke-linejoin:round;stroke-miterlimit:4;stroke-opacity:1;stroke-dasharray:none" />
                <path
                   d="M 61.056745,88.034147 C 56.931179,72.637329 38.743181,83.075578 31.305326,71.355322 23.867471,59.635066 28.149872,47.464032 24.318251,51.746433 c -3.831622,4.282401 -2.253896,12.171034 -2.253896,12.171034 0,0 -1.352334,-8.114023 -2.930061,-3.606232 -1.577727,4.50779 2.479281,11.494866 2.479281,11.494866 0,0 -4.50779,-7.663244 -3.606235,-2.930064 0.901563,4.73318 5.409352,9.691751 5.409352,9.691751 0,0 -3.831625,-4.282402 -3.380844,-0.676168 0.450782,3.606232 7.437855,6.536295 7.437855,6.536295 0,0 -5.860128,1.126948 -2.028505,4.282401 3.831622,3.155454 11.720256,0.450779 11.720256,0.450779 0,0 -6.085518,4.95857 0.225388,6.536297 6.310908,1.577726 12.396425,-2.028506 12.396425,-2.028506 0,0 -2.479284,5.860129 3.831622,5.409349 6.310911,-0.450777 8.959935,-5.363609 7.437856,-11.044088 z"
                   id="path10520"
                   style="fill:url(#linearGradient6199);fill-opacity:1;fill-rule:evenodd;stroke:#729fcf;stroke-width:0.5;stroke-linecap:round;stroke-linejoin:round;stroke-miterlimit:4;stroke-opacity:1;stroke-dasharray:none" />
                <path
                   d="m 74.801332,25.332661 c -1.320545,1.278933 6.865694,10.554568 6.283516,24.445868 C 80.422342,65.586466 57.456567,66.296762 59.96228,82.505668 57.566415,81.687249 56.263806,78.948949 56.83802,72.906792 57.799049,62.7944 47.87836,60.362218 43.94293,62.63434 33.595569,68.60839 36.288537,85.189043 44.420037,99.273215 56.587131,120.34724 90.500423,111.3431 92.780743,83.223913 c 5.828989,0.747386 16.108417,-4.179456 17.055997,-7.715889 0.89205,-3.329184 -4.49722,-1.322852 -6.02006,-0.536567 1.41028,-0.785858 7.28907,-3.794081 5.17175,-7.925004 -1.45105,-2.831016 -4.36366,-0.449268 -6.4916,1.943708 -1.23757,1.852219 -2.54754,3.27504 -2.54754,3.27504 0,10e-7 1.09158,-1.637741 2.54754,-3.27504 1.84073,-2.754945 3.49264,-6.485338 0.25147,-7.939419 -2.06699,-0.927317 -3.618381,0.391365 -4.745566,2.342926 -0.461372,3.434842 -2.380888,6.751181 -2.380888,6.751181 7e-6,1e-6 0.552252,-3.585157 2.380888,-6.751181 0.298535,-2.222545 -0.119101,-4.130467 -2.17494,-3.579606 -0.800919,0.214605 -1.726467,0.402492 -2.679566,0.608854 0.932367,-1.293047 4.886802,-7.083603 3.394706,-10.620188 -1.677041,-3.97496 -3.057848,2.703646 -3.057848,2.703643 0,0 1.680481,-7.761334 -0.202028,-13.162415 -1.882519,-5.401077 -1.973293,5.144649 -1.973293,5.144649 0,0 0.02902,-9.570551 -4.268554,-13.268344 -4.297573,-3.697795 -0.863401,5.442044 -0.863397,5.442044 0,0 -3.080908,-9.058261 -9.561819,-11.186555 -1.012643,-0.332545 -1.570117,-0.379928 -1.814663,-0.143089 z"
                   id="path10522"
                   style="fill:url(#radialGradient6201);fill-opacity:1;fill-rule:evenodd;stroke:#729fcf;stroke-width:0.5;stroke-linecap:round;stroke-linejoin:round;stroke-miterlimit:4;stroke-opacity:1;stroke-dasharray:none" />
                <path
                   d="M 60.400431,84.588774 C 55.502998,66.311305 80.396822,66.246952 81.086813,49.783187 81.776803,33.319422 70.150186,23.348755 76.631104,25.477044 c 6.480913,2.128293 9.541205,11.174681 9.541205,11.174681 0,0 -3.425785,-9.144321 0.871788,-5.446526 4.297572,3.697794 4.273912,13.288905 4.273912,13.288905 0,0 0.08575,-10.553808 1.968268,-5.152731 1.88251,5.401082 0.191409,13.17434 0.191409,13.17434 0,0 1.397306,-6.676785 3.074347,-2.701826 1.677041,3.974961 -3.766911,11.134376 -3.766911,11.134376 0,0 6.693422,-2.319698 4.627219,3.198524 -2.066202,5.518223 -11.781491,7.419947 -11.781491,7.419947 0,0 9.199381,1.485635 3.647887,6.853441 -5.551495,5.367807 -13.9482,5.272447 -13.9482,5.272447"
                   id="path10524"
                   style="fill:#ffffff;fill-opacity:1;fill-rule:evenodd;stroke:#729fcf;stroke-width:0.5;stroke-linecap:round;stroke-linejoin:round;stroke-miterlimit:4;stroke-opacity:1;stroke-dasharray:none" />
                <path
                   d="m 46.322278,72.009213 c -0.648374,0.05705 -1.355933,0.175486 -2.200681,0.418367 1.230234,0.396327 2.156324,1.466447 2.636211,2.430069 1.148223,-1.096589 1.039806,-1.782352 2.777448,-2.157329 -0.633705,-0.394512 -1.299037,-0.655602 -2.081957,-0.728091 -0.522156,-0.68171 -0.560353,-0.11324 -1.131021,0.03698 z"
                   id="path15842"
                   style="fill:#555753;fill-opacity:1;fill-rule:evenodd;stroke:#729fcf;stroke-width:0.25;stroke-linecap:butt;stroke-linejoin:miter;stroke-miterlimit:4;stroke-opacity:1;stroke-dasharray:none" />
                <path
                   d="m 41.722024,65.586999 c 0,0 4.326779,1.068185 2.593903,5.233683 -3.950258,-1.643336 1.430014,-3.559705 -2.593903,-5.233683 z"
                   id="path6450"
                   style="fill:#729fcf;fill-opacity:1;fill-rule:evenodd;stroke:none;display:inline" />
                <g
                   transform="matrix(0.133747,0.05563981,-0.05563981,0.133747,27.2196,35.07171)"
                   id="g9129"
                   style="display:inline">
                  <path
                     d="m 193.49611,170.55585 a 8.3116884,8.3116884 0 1 1 -16.62338,0 8.3116884,8.3116884 0 1 1 16.62338,0 z"
                     transform="matrix(1.396026,0,0,1.396026,-71.55557,-66.82562)"
                     id="path7337"
                     style="fill:#000000;fill-opacity:1;stroke:none" />
                  <path
                     d="m 193.49611,170.55585 a 8.3116884,8.3116884 0 1 1 -16.62338,0 8.3116884,8.3116884 0 1 1 16.62338,0 z"
                     transform="matrix(0.550417,0,0,0.256292,85.03803,134.2209)"
                     id="path8224"
                     style="fill:url(#linearGradient6203);fill-opacity:1;stroke:none" />
                  <path
                     d="m 193.49611,170.55585 a 8.3116884,8.3116884 0 1 1 -16.62338,0 8.3116884,8.3116884 0 1 1 16.62338,0 z"
                     transform="matrix(0.869052,0,0,0.489141,26.03174,83.32977)"
                     id="path9119"
                     style="fill:url(#radialGradient6205);fill-opacity:1;stroke:none" />
                </g>
                <path
                   d="m 54.198937,67.249037 c 0,0 -4.455524,-0.101697 -3.873488,4.372167 4.242691,-0.55196 -0.448314,-3.809915 3.873488,-4.372167 z"
                   id="path18554"
                   style="fill:#729fcf;fill-opacity:1;fill-rule:evenodd;stroke:none;display:inline" />
                <g
                   transform="matrix(-0.143648,0.0186882,0.0186882,0.143648,76.18374,41.59418)"
                   id="g18556"
                   style="display:inline">
                  <path
                     d="m 193.49611,170.55585 a 8.3116884,8.3116884 0 1 1 -16.62338,0 8.3116884,8.3116884 0 1 1 16.62338,0 z"
                     transform="matrix(1.396026,0,0,1.396026,-71.55557,-66.82562)"
                     id="path18558"
                     style="fill:#000000;fill-opacity:1;stroke:none" />
                  <path
                     d="m 193.49611,170.55585 a 8.3116884,8.3116884 0 1 1 -16.62338,0 8.3116884,8.3116884 0 1 1 16.62338,0 z"
                     transform="matrix(0.550417,0,0,0.256292,85.03803,134.2209)"
                     id="path18560"
                     style="fill:url(#linearGradient6207);fill-opacity:1;stroke:none" />
                  <path
                     d="m 193.49611,170.55585 a 8.3116884,8.3116884 0 1 1 -16.62338,0 8.3116884,8.3116884 0 1 1 16.62338,0 z"
                     transform="matrix(0.869052,0,0,0.489141,26.03174,83.32977)"
                     id="path18562"
                     style="fill:url(#radialGradient6209);fill-opacity:1;stroke:none" />
                </g>
                <path
                   d="m 46.420697,72.531746 a 0.28773159,0.35167193 0 1 1 -0.575463,0 0.28773159,0.35167193 0 1 1 0.575463,0 z"
                   transform="matrix(0.996107,-0.08815314,0.08815314,0.996107,-5.970501,4.288031)"
                   id="path20338"
                   style="fill:url(#radialGradient6211);fill-opacity:1;stroke:none" />
                <path
                   d="m 46.420697,72.531746 a 0.28773159,0.35167193 0 1 1 -0.575463,0 0.28773159,0.35167193 0 1 1 0.575463,0 z"
                   transform="matrix(0.98674,0.162307,-0.162307,0.98674,13.86084,-6.525857)"
                   id="path21225"
                   style="fill:url(#radialGradient6213);fill-opacity:1;stroke:none" />
                <path
                   d="m 47.795793,72.858513 a 0.50028783,0.50028783 0 1 1 -1.000575,0 0.50028783,0.50028783 0 1 1 1.000575,0 z"
                   transform="matrix(0.632402,0.04700127,-0.109853,1.478076,25.07223,-37.29287)"
                   id="path23007"
                   style="fill:url(#radialGradient6215);fill-opacity:1;stroke:none" />
              </g>
              <path
                 d="m 70.367893,108.73579 c 9.826066,-2.78781 14.983278,-8.02676 18.19398,-14.983282 3.210702,-6.956521 -8.294314,8.829432 -8.294314,8.829432 0,0 4.816053,-12.307693 1.872909,-10.702341 -2.943144,1.605351 -6.153846,12.575251 -6.153846,12.575251 0,0 0.535117,-13.377927 -1.337793,-10.434783 -1.872909,2.943144 -3.745819,12.307693 -3.745819,12.307693 0,0 -1.872909,-13.377927 -3.745819,-9.899666 -1.87291,3.478261 -0.535118,10.969906 -0.535118,10.969906 0,0 -6.688963,-14.180608 -6.688963,-10.434789 0,3.745819 1.87291,10.434789 1.87291,10.434789 0,0 -7.759198,-12.842816 -8.294315,-10.702348 -0.535117,2.140468 2.675586,9.096998 2.675586,9.096998 0,0 -9.899666,-12.040142 -9.632107,-8.561881 0.267558,3.478261 9.59544,15.538691 23.812709,11.505021 z"
                 id="path25720"
                 style="fill:url(#radialGradient6217);fill-opacity:1;fill-rule:evenodd;stroke:none" />
            </g>
            <path
               d="m 67.692308,81.712375 c 0,0 -1.87291,-4.013378 3.745819,-8.829432 5.618729,-4.816053 9.899666,-7.22408 10.9699,-9.899665 -5.351171,8.561873 -13.110368,11.772575 -12.040134,14.715719 1.070234,2.943143 -2.408027,4.013378 -2.675585,4.013378 z"
               id="path25708"
               style="fill:url(#linearGradient6219);fill-opacity:1;fill-rule:evenodd;stroke:none" />
          </g>
        </g>
      </g>
      <rect
         width="89.203972"
         height="89.203972"
         x="10.135062"
         y="24.440523"
         transform="matrix(0.990691,-0.136127,0.136127,0.990691,0,0)"
         id="rect25916"
         style="fill:none;stroke:#3465a4;stroke-width:0.99999958;stroke-linecap:round;stroke-linejoin:round;stroke-miterlimit:4;stroke-opacity:1;stroke-dasharray:none;stroke-dashoffset:0" />
      <rect
         width="2.1404672"
         height="4.390182"
         x="9.6350622"
         y="116.05253"
         transform="matrix(0.990691,-0.136127,0.136127,0.990691,0,0)"
         id="rect31774"
         style="fill:#babdb6;fill-opacity:1;stroke:none" />
      <rect
         width="2.1404672"
         height="4.390182"
         x="13.635061"
         y="116.05253"
         transform="matrix(0.990691,-0.136127,0.136127,0.990691,0,0)"
         id="rect32661"
         style="fill:#babdb6;fill-opacity:1;stroke:none" />
      <rect
         width="2.1404672"
         height="4.390182"
         x="21.635057"
         y="116.05253"
         transform="matrix(0.990691,-0.136127,0.136127,0.990691,0,0)"
         id="rect32663"
         style="fill:#babdb6;fill-opacity:1;stroke:none" />
      <rect
         width="2.1404672"
         height="4.390182"
         x="25.635056"
         y="116.05253"
         transform="matrix(0.990691,-0.136127,0.136127,0.990691,0,0)"
         id="rect32665"
         style="fill:#babdb6;fill-opacity:1;stroke:none" />
      <rect
         width="2.1404672"
         height="4.390182"
         x="29.635056"
         y="116.05253"
         transform="matrix(0.990691,-0.136127,0.136127,0.990691,0,0)"
         id="rect32667"
         style="fill:#babdb6;fill-opacity:1;stroke:none" />
      <rect
         width="2.1404672"
         height="4.390182"
         x="37.635052"
         y="116.05253"
         transform="matrix(0.990691,-0.136127,0.136127,0.990691,0,0)"
         id="rect32669"
         style="fill:#babdb6;fill-opacity:1;stroke:none" />
      <rect
         width="2.1404672"
         height="4.390182"
         x="41.635052"
         y="116.05253"
         transform="matrix(0.990691,-0.136127,0.136127,0.990691,0,0)"
         id="rect32671"
         style="fill:#babdb6;fill-opacity:1;stroke:none" />
      <rect
         width="2.1404672"
         height="4.390182"
         x="45.635048"
         y="116.05253"
         transform="matrix(0.990691,-0.136127,0.136127,0.990691,0,0)"
         id="rect32673"
         style="fill:#babdb6;fill-opacity:1;stroke:none" />
      <rect
         width="2.1404672"
         height="4.390182"
         x="53.635044"
         y="116.05253"
         transform="matrix(0.990691,-0.136127,0.136127,0.990691,0,0)"
         id="rect32675"
         style="fill:#babdb6;fill-opacity:1;stroke:none" />
      <rect
         width="2.1404672"
         height="4.390182"
         x="57.635044"
         y="116.05253"
         transform="matrix(0.990691,-0.136127,0.136127,0.990691,0,0)"
         id="rect32677"
         style="fill:#babdb6;fill-opacity:1;stroke:none" />
      <rect
         width="2.1404672"
         height="4.390182"
         x="65.63504"
         y="116.05253"
         transform="matrix(0.990691,-0.136127,0.136127,0.990691,0,0)"
         id="rect32679"
         style="fill:#babdb6;fill-opacity:1;stroke:none" />
      <rect
         width="2.1404672"
         height="4.390182"
         x="73.63504"
         y="116.05253"
         transform="matrix(0.990691,-0.136127,0.136127,0.990691,0,0)"
         id="rect32681"
         style="fill:#babdb6;fill-opacity:1;stroke:none" />
      <rect
         width="2.1404672"
         height="4.390182"
         x="77.635033"
         y="116.05253"
         transform="matrix(0.990691,-0.136127,0.136127,0.990691,0,0)"
         id="rect32683"
         style="fill:#babdb6;fill-opacity:1;stroke:none" />
      <rect
         width="2.1404672"
         height="4.390182"
         x="81.635033"
         y="116.05253"
         transform="matrix(0.990691,-0.136127,0.136127,0.990691,0,0)"
         id="rect32685"
         style="fill:#babdb6;fill-opacity:1;stroke:none" />
      <rect
         width="2.1404672"
         height="4.390182"
         x="85.635033"
         y="116.05253"
         transform="matrix(0.990691,-0.136127,0.136127,0.990691,0,0)"
         id="rect32687"
         style="fill:#babdb6;fill-opacity:1;stroke:none" />
      <rect
         width="2.1404672"
         height="4.390182"
         x="93.635025"
         y="116.05253"
         transform="matrix(0.990691,-0.136127,0.136127,0.990691,0,0)"
         id="rect32689"
         style="fill:#babdb6;fill-opacity:1;stroke:none" />
      <rect
         width="2.1404672"
         height="4.390182"
         x="97.635017"
         y="116.05253"
         transform="matrix(0.990691,-0.136127,0.136127,0.990691,0,0)"
         id="rect32691"
         style="fill:#babdb6;fill-opacity:1;stroke:none" />
      <g
         transform="translate(0,20)"
         id="g2404">
        <path
           d="m 105.27579,77.361824 -0.57286,-1.0948 c -1.03133,0.689206 -2.12275,1.112921 -3.27427,1.271145 -1.765243,0.242554 -3.301768,-0.07019 -4.60958,-0.93822 -1.342986,-0.894703 -2.135753,-2.224668 -2.378304,-3.989913 -0.333318,-2.425788 0.286774,-4.685211 1.860276,-6.778283 1.569716,-2.124024 3.55951,-3.351607 5.969388,-3.682753 1.78069,-0.244659 3.33798,0.104606 4.67189,1.047797 1.38232,0.951841 2.19583,2.318102 2.44052,4.098784 0.16452,1.197452 -0.009,2.37864 -0.52193,3.543555 -0.58573,1.316287 -1.44663,2.05248 -2.58268,2.20857 -0.58328,0.08015 -0.90864,-0.125258 -0.97609,-0.616237 -0.0338,-0.245947 -0.0435,-0.487085 -0.0292,-0.723425 l 0.4471,-7.334465 -1.54248,0.211944 c -0.0923,0.0127 -0.21194,0.0252 -0.35892,0.0375 -0.14701,0.01234 -0.32135,0.02448 -0.52304,0.03643 -0.20171,0.01198 -0.37916,0.02848 -0.53234,0.04952 -0.13821,0.019 -0.26119,0.0359 -0.36893,0.05069 -1.15107,0.158176 -2.12454,0.698618 -2.920417,1.621327 -0.71881,0.802837 -1.256888,1.838824 -1.614238,3.107963 -0.372818,1.271285 -0.486455,2.436531 -0.340904,3.495768 0.09488,0.690543 0.351638,1.249535 0.770281,1.676976 0.466665,0.436589 1.045272,0.607446 1.735818,0.512561 1.53521,-0.210945 2.80868,-1.699767 3.82041,-4.466475 l 0.13844,-0.01902 -0.24487,1.464204 c -0.0948,0.560527 -0.12534,0.963764 -0.0915,1.209711 0.11811,0.859665 0.79885,1.204075 2.04221,1.033231 1.73477,-0.238366 3.05983,-1.124247 3.97516,-2.657661 0.86654,-1.433141 1.17748,-3.040067 0.93282,-4.820779 -0.28054,-2.041627 -1.23403,-3.631135 -2.86046,-4.768529 -1.59389,-1.126081 -3.41914,-1.547835 -5.47577,-1.265263 -1.45839,0.200408 -2.833238,0.725596 -4.124553,1.575565 -1.307974,0.836539 -2.354277,1.871713 -3.138917,3.105527 -1.550982,2.371595 -2.152443,4.82392 -1.804384,7.357001 0.27847,2.026649 1.214407,3.603058 2.807811,4.729218 1.552393,1.053526 3.357139,1.438951 5.414253,1.156294 1.28972,-0.177214 2.57649,-0.659033 3.86033,-1.445457 l 0,0 z m -1.45185,-8.857075 c -0.42645,1.106814 -0.89298,2.093828 -1.39958,2.961043 -0.78974,1.422607 -1.49169,2.176095 -2.10587,2.260476 -0.614182,0.0844 -0.993015,-0.395527 -1.136493,-1.439777 -0.130745,-0.951479 -0.07823,-1.936255 0.157543,-2.954347 0.406976,-1.932752 1.33193,-2.99827 2.77486,-3.196548 0.52188,-0.0717 1.13746,-0.03122 1.84675,0.121425 l -0.13721,2.247728 z"
           id="text2952"
           style="font-size:23.24316406px;font-style:normal;font-weight:normal;text-align:justify;text-anchor:start;opacity:0.5;fill:#000000;fill-opacity:1;stroke:#000000;stroke-width:1.31714809;stroke-linecap:round;stroke-linejoin:round;stroke-miterlimit:4;stroke-opacity:1;font-family:LucidaGrande" />
        <path
           d="m 105.27582,77.36185 -0.57286,-1.094789 c -1.03133,0.689205 -2.12275,1.11292 -3.27427,1.271145 -1.765246,0.242554 -3.301773,-0.07019 -4.609585,-0.93822 -1.342988,-0.894703 -2.135756,-2.224678 -2.378308,-3.989923 -0.333317,-2.425788 0.286774,-4.685221 1.860278,-6.778287 1.569718,-2.124026 3.559513,-3.35161 5.969395,-3.682755 1.78069,-0.24466 3.33799,0.104605 4.6719,1.047796 1.38232,0.951842 2.19582,2.318104 2.44052,4.09879 0.16452,1.197451 -0.009,2.37864 -0.52193,3.543554 -0.58574,1.316288 -1.44664,2.052481 -2.58269,2.20858 -0.58327,0.08015 -0.90863,-0.125267 -0.97608,-0.616246 -0.0338,-0.245947 -0.0436,-0.487085 -0.0292,-0.723424 l 0.4471,-7.33447 -1.54248,0.211944 c -0.0923,0.0127 -0.21194,0.0252 -0.35892,0.0375 -0.14701,0.01234 -0.32136,0.02448 -0.52304,0.03643 -0.20171,0.01198 -0.37916,0.02848 -0.53234,0.04952 -0.13821,0.019 -0.26119,0.0359 -0.36893,0.05069 -1.15107,0.158177 -2.12454,0.698618 -2.92042,1.62133 -0.718812,0.802837 -1.256891,1.838826 -1.61424,3.107965 -0.372819,1.271285 -0.486455,2.436541 -0.340905,3.495768 0.09488,0.690553 0.351639,1.249545 0.770281,1.676976 0.466667,0.436598 1.045275,0.607455 1.735824,0.512561 1.53521,-0.210936 2.80868,-1.699757 3.82042,-4.466466 l 0.13843,-0.01902 -0.24487,1.464194 c -0.0948,0.560527 -0.12534,0.963764 -0.0915,1.209712 0.11811,0.859674 0.79885,1.204084 2.04221,1.03323 1.73478,-0.238357 3.05983,-1.124247 3.97516,-2.657662 0.86655,-1.43314 1.17749,-3.040066 0.93283,-4.820778 -0.28055,-2.041631 -1.23404,-3.631141 -2.86047,-4.768534 -1.59389,-1.126083 -3.41914,-1.547838 -5.47577,-1.265265 -1.45839,0.200408 -2.833243,0.725596 -4.124558,1.575567 -1.307974,0.83654 -2.354279,1.871714 -3.138919,3.105528 -1.550985,2.371598 -2.152446,4.823926 -1.804387,7.357006 0.278472,2.026659 1.214409,3.603068 2.807816,4.729228 1.552392,1.053526 3.35714,1.438951 5.414248,1.156294 1.28973,-0.177214 2.5765,-0.659033 3.86034,-1.445468 l 0,0 z m -1.45185,-8.857075 c -0.42645,1.106814 -0.89298,2.093829 -1.39958,2.961053 -0.78974,1.422597 -1.4917,2.176086 -2.10587,2.260476 -0.614186,0.08439 -0.993017,-0.395526 -1.136497,-1.439786 -0.130745,-0.951479 -0.07823,-1.936255 0.157543,-2.954347 0.406976,-1.932752 1.331924,-2.998274 2.774864,-3.196552 0.52188,-0.0717 1.13746,-0.03122 1.84675,0.121426 l -0.13721,2.24773 z"
           id="text32693"
           style="font-size:23.24318504px;font-style:normal;font-weight:normal;text-align:justify;text-anchor:start;fill:#3465a4;fill-opacity:1;stroke:#5487c9;stroke-width:0.67589277px;stroke-linecap:round;stroke-linejoin:round;stroke-opacity:1;font-family:LucidaGrande" />
        <path
           d="m 105.27579,77.361824 -0.57286,-1.0948 c -1.03133,0.689206 -2.12275,1.112921 -3.27427,1.271145 -1.765243,0.242554 -3.301768,-0.07019 -4.60958,-0.93822 -1.342986,-0.894703 -2.135753,-2.224668 -2.378304,-3.989913 -0.333318,-2.425788 0.286774,-4.685211 1.860276,-6.778283 1.569716,-2.124024 3.55951,-3.351607 5.969388,-3.682753 1.78069,-0.244659 3.33798,0.104606 4.67189,1.047797 1.38232,0.951841 2.19583,2.318102 2.44052,4.098784 0.16452,1.197452 -0.009,2.37864 -0.52193,3.543555 -0.58573,1.316287 -1.44663,2.05248 -2.58268,2.20857 -0.58328,0.08015 -0.90864,-0.125258 -0.97609,-0.616237 -0.0338,-0.245947 -0.0435,-0.487085 -0.0292,-0.723425 l 0.4471,-7.334465 -1.54248,0.211944 c -0.0923,0.0127 -0.21194,0.0252 -0.35892,0.0375 -0.14701,0.01234 -0.32135,0.02448 -0.52304,0.03643 -0.20171,0.01198 -0.37916,0.02848 -0.53234,0.04952 -0.13821,0.019 -0.26119,0.0359 -0.36893,0.05069 -1.15107,0.158176 -2.12454,0.698618 -2.920417,1.621327 -0.71881,0.802837 -1.256888,1.838824 -1.614238,3.107963 -0.372818,1.271285 -0.486455,2.436531 -0.340904,3.495768 0.09488,0.690543 0.351638,1.249535 0.770281,1.676976 0.466665,0.436589 1.045272,0.607446 1.735818,0.512561 1.53521,-0.210945 2.80868,-1.699767 3.82041,-4.466475 l 0.13844,-0.01902 -0.24487,1.464204 c -0.0948,0.560527 -0.12534,0.963764 -0.0915,1.209711 0.11811,0.859665 0.79885,1.204075 2.04221,1.033231 1.73477,-0.238366 3.05983,-1.124247 3.97516,-2.657661 0.86654,-1.433141 1.17748,-3.040067 0.93282,-4.820779 -0.28054,-2.041627 -1.23403,-3.631135 -2.86046,-4.768529 -1.59389,-1.126081 -3.41914,-1.547835 -5.47577,-1.265263 -1.45839,0.200408 -2.833238,0.725596 -4.124553,1.575565 -1.307974,0.836539 -2.354277,1.871713 -3.138917,3.105527 -1.550982,2.371595 -2.152443,4.82392 -1.804384,7.357001 0.27847,2.026649 1.214407,3.603058 2.807811,4.729218 1.552393,1.053526 3.357139,1.438951 5.414253,1.156294 1.28972,-0.177214 2.57649,-0.659033 3.86033,-1.445457 l 0,0 z m -1.45185,-8.857075 c -0.42645,1.106814 -0.89298,2.093828 -1.39958,2.961043 -0.78974,1.422607 -1.49169,2.176095 -2.10587,2.260476 -0.614182,0.0844 -0.993015,-0.395527 -1.136493,-1.439777 -0.130745,-0.951479 -0.07823,-1.936255 0.157543,-2.954347 0.406976,-1.932752 1.33193,-2.99827 2.77486,-3.196548 0.52188,-0.0717 1.13746,-0.03122 1.84675,0.121425 l -0.13721,2.247728 z"
           id="text8974"
           style="font-size:23.24316406px;font-style:normal;font-weight:normal;text-align:justify;text-anchor:start;fill:#ffffff;fill-opacity:1;stroke:none;font-family:LucidaGrande" />
      </g>
    </g>
  </g>
</svg>
