<?xml version="1.0" encoding="UTF-8" standalone="no"?>
<!-- Created with Inkscape (http://www.inkscape.org/) -->

<svg
   xmlns:svg="http://www.w3.org/2000/svg"
   xmlns="http://www.w3.org/2000/svg"
   xmlns:xlink="http://www.w3.org/1999/xlink"
   version="1.0"
   width="128"
   height="128"
   id="svg2553">
  <defs
     id="defs2555">
    <linearGradient
       id="linearGradient9111">
      <stop
         id="stop9113"
         style="stop-color:#729fcf;stop-opacity:1"
         offset="0" />
      <stop
         id="stop9115"
         style="stop-color:#ffffff;stop-opacity:1"
         offset="1" />
    </linearGradient>
    <linearGradient
       id="linearGradient22783">
      <stop
         id="stop22785"
         style="stop-color:#000000;stop-opacity:1"
         offset="0" />
      <stop
         id="stop22787"
         style="stop-color:#ffffff;stop-opacity:1"
         offset="1" />
    </linearGradient>
    <linearGradient
       id="linearGradient12684">
      <stop
         id="stop12686"
         style="stop-color:#ffffff;stop-opacity:1"
         offset="0" />
      <stop
         id="stop12692"
         style="stop-color:#ffffff;stop-opacity:0.84536082"
         offset="0.34999999" />
      <stop
         id="stop12688"
         style="stop-color:#ffffff;stop-opacity:0"
         offset="1" />
    </linearGradient>
    <linearGradient
       id="linearGradient3657">
      <stop
         id="stop3659"
         style="stop-color:#ffffff;stop-opacity:1"
         offset="0" />
      <stop
         id="stop3661"
         style="stop-color:#ffffff;stop-opacity:0"
         offset="1" />
    </linearGradient>
    <linearGradient
       id="linearGradient6348">
      <stop
         id="stop6350"
         style="stop-color:#ffffff;stop-opacity:0.70103091"
         offset="0" />
      <stop
         id="stop6356"
         style="stop-color:#4e9a06;stop-opacity:0"
         offset="0.80000001" />
      <stop
         id="stop6352"
         style="stop-color:#8ae234;stop-opacity:1"
         offset="1" />
    </linearGradient>
    <linearGradient
       id="linearGradient3645">
      <stop
         id="stop3647"
         style="stop-color:#8ae234;stop-opacity:1"
         offset="0" />
      <stop
         id="stop3649"
         style="stop-color:#4e9a06;stop-opacity:1"
         offset="1" />
    </linearGradient>
    <linearGradient
       id="linearGradient2762">
      <stop
         id="stop2764"
         style="stop-color:#000000;stop-opacity:0.70588237"
         offset="0" />
      <stop
         id="stop4540"
         style="stop-color:#000000;stop-opacity:0.35294119"
         offset="0.40000001" />
      <stop
         id="stop2766"
         style="stop-color:#000000;stop-opacity:0"
         offset="1" />
    </linearGradient>
    <linearGradient
       x1="60.812256"
       y1="222.16092"
       x2="428.62836"
       y2="222.16092"
       id="linearGradient3333"
       xlink:href="#linearGradient3645"
       gradientUnits="userSpaceOnUse" />
    <radialGradient
       cx="244.72031"
       cy="222.16092"
       r="183.90805"
       fx="244.72031"
       fy="222.16092"
       id="radialGradient3335"
       xlink:href="#linearGradient6348"
       gradientUnits="userSpaceOnUse" />
    <radialGradient
       cx="49.709621"
       cy="222.16092"
       r="183.90805"
       fx="49.709621"
       fy="222.16092"
       id="radialGradient3337"
       xlink:href="#linearGradient3657"
       gradientUnits="userSpaceOnUse"
       gradientTransform="matrix(1.353938,0,0,1.353938,-33.88875,-78.63119)" />
    <radialGradient
       cx="69.944862"
       cy="222.16092"
       r="183.90805"
       fx="69.944862"
       fy="222.16092"
       id="radialGradient3339"
       xlink:href="#linearGradient3657"
       gradientUnits="userSpaceOnUse"
       gradientTransform="matrix(1.353938,0,0,1.353938,-33.88875,-78.63119)" />
    <linearGradient
       x1="98"
       y1="240.92043"
       x2="420"
       y2="240.92043"
       id="linearGradient3341"
       xlink:href="#linearGradient3657"
       gradientUnits="userSpaceOnUse"
       gradientTransform="matrix(0.543478,-0.941332,0.941332,0.543478,-156.6701,314.8289)" />
    <linearGradient
       x1="98"
       y1="240.92043"
       x2="420"
       y2="240.92043"
       id="linearGradient3343"
       xlink:href="#linearGradient3657"
       gradientUnits="userSpaceOnUse"
       gradientTransform="matrix(-0.941332,0.543478,0.543478,0.941332,334.2253,-173.0667)" />
    <linearGradient
       x1="98"
       y1="240.92043"
       x2="420"
       y2="240.92043"
       id="linearGradient3345"
       xlink:href="#linearGradient3657"
       gradientUnits="userSpaceOnUse"
       gradientTransform="matrix(0.941332,-0.543478,-0.543478,-0.941332,150.7744,625.2735)" />
    <linearGradient
       x1="98"
       y1="240.92043"
       x2="420"
       y2="240.92043"
       id="linearGradient3347"
       xlink:href="#linearGradient3657"
       gradientUnits="userSpaceOnUse"
       gradientTransform="matrix(-0.543478,0.941332,-0.941332,-0.543478,641.6699,131.3779)" />
    <radialGradient
       cx="246.35255"
       cy="226.88303"
       r="154.3577"
       fx="246.35255"
       fy="226.88303"
       id="radialGradient3349"
       xlink:href="#linearGradient3657"
       gradientUnits="userSpaceOnUse"
       gradientTransform="matrix(1,-0.57734,0.12401,0.214795,-28.13556,320.3787)" />
    <radialGradient
       cx="246.35255"
       cy="226.88303"
       r="154.3577"
       fx="246.35255"
       fy="226.88303"
       id="radialGradient3351"
       xlink:href="#linearGradient3657"
       gradientUnits="userSpaceOnUse"
       gradientTransform="matrix(-0.57734,-1,0.214795,-0.12401,339.8483,501.3712)" />
    <radialGradient
       cx="156.5"
       cy="148.5"
       r="19.5"
       fx="156.5"
       fy="148.5"
       id="radialGradient3353"
       xlink:href="#linearGradient12684"
       gradientUnits="userSpaceOnUse" />
    <radialGradient
       cx="156.5"
       cy="148.5"
       r="19.5"
       fx="156.5"
       fy="148.5"
       id="radialGradient3355"
       xlink:href="#linearGradient12684"
       gradientUnits="userSpaceOnUse" />
    <radialGradient
       cx="156.5"
       cy="148.5"
       r="19.5"
       fx="156.5"
       fy="148.5"
       id="radialGradient3357"
       xlink:href="#linearGradient12684"
       gradientUnits="userSpaceOnUse" />
    <radialGradient
       cx="156.5"
       cy="148.5"
       r="19.5"
       fx="156.5"
       fy="148.5"
       id="radialGradient3359"
       xlink:href="#linearGradient12684"
       gradientUnits="userSpaceOnUse" />
    <radialGradient
       cx="156.5"
       cy="148.5"
       r="19.5"
       fx="156.5"
       fy="148.5"
       id="radialGradient3361"
       xlink:href="#linearGradient12684"
       gradientUnits="userSpaceOnUse" />
    <radialGradient
       cx="156.5"
       cy="148.5"
       r="19.5"
       fx="156.5"
       fy="148.5"
       id="radialGradient3363"
       xlink:href="#linearGradient12684"
       gradientUnits="userSpaceOnUse" />
    <radialGradient
       cx="156.5"
       cy="148.5"
       r="19.5"
       fx="156.5"
       fy="148.5"
       id="radialGradient3365"
       xlink:href="#linearGradient12684"
       gradientUnits="userSpaceOnUse" />
    <radialGradient
       cx="156.5"
       cy="148.5"
       r="19.5"
       fx="156.5"
       fy="148.5"
       id="radialGradient3367"
       xlink:href="#linearGradient12684"
       gradientUnits="userSpaceOnUse" />
    <radialGradient
       cx="156.5"
       cy="148.5"
       r="19.5"
       fx="156.5"
       fy="148.5"
       id="radialGradient3369"
       xlink:href="#linearGradient12684"
       gradientUnits="userSpaceOnUse" />
    <radialGradient
       cx="156.5"
       cy="148.5"
       r="19.5"
       fx="156.5"
       fy="148.5"
       id="radialGradient3371"
       xlink:href="#linearGradient12684"
       gradientUnits="userSpaceOnUse" />
    <radialGradient
       cx="156.5"
       cy="148.5"
       r="19.5"
       fx="156.5"
       fy="148.5"
       id="radialGradient3373"
       xlink:href="#linearGradient12684"
       gradientUnits="userSpaceOnUse" />
    <radialGradient
       cx="156.5"
       cy="148.5"
       r="19.5"
       fx="156.5"
       fy="148.5"
       id="radialGradient3375"
       xlink:href="#linearGradient12684"
       gradientUnits="userSpaceOnUse" />
    <radialGradient
       cx="156.5"
       cy="148.5"
       r="19.5"
       fx="156.5"
       fy="148.5"
       id="radialGradient3377"
       xlink:href="#linearGradient12684"
       gradientUnits="userSpaceOnUse" />
    <mask
       id="mask27344">
      <rect
         width="89.20401"
         height="89.20401"
         x="19.397995"
         y="20.334448"
         id="rect27338"
         style="fill:#ffffff;fill-opacity:1;stroke:none" />
    </mask>
    <radialGradient
       cx="65.329872"
       cy="63.501297"
       r="57.350651"
       fx="65.329872"
       fy="31.0061"
       id="radialGradient5696"
       xlink:href="#linearGradient2762"
       gradientUnits="userSpaceOnUse" />
    <linearGradient
       x1="62.618664"
       y1="119.48166"
       x2="62.618664"
       y2="-1.8272629"
       id="linearGradient6151"
       xlink:href="#linearGradient9111"
       gradientUnits="userSpaceOnUse" />
    <linearGradient
       x1="60.812256"
       y1="222.16092"
       x2="428.62836"
       y2="222.16092"
       id="linearGradient6153"
       xlink:href="#linearGradient3645"
       gradientUnits="userSpaceOnUse" />
    <radialGradient
       cx="244.72031"
       cy="222.16092"
       r="183.90805"
       fx="244.72031"
       fy="222.16092"
       id="radialGradient6155"
       xlink:href="#linearGradient6348"
       gradientUnits="userSpaceOnUse" />
    <radialGradient
       cx="69.944862"
       cy="222.16092"
       r="183.90805"
       fx="69.944862"
       fy="222.16092"
       id="radialGradient6159"
       xlink:href="#linearGradient3657"
       gradientUnits="userSpaceOnUse"
       gradientTransform="matrix(1.353938,0,0,1.353938,-33.88875,-78.63119)" />
    <linearGradient
       x1="98"
       y1="240.92043"
       x2="420"
       y2="240.92043"
       id="linearGradient6161"
       xlink:href="#linearGradient3657"
       gradientUnits="userSpaceOnUse"
       gradientTransform="matrix(0.543478,-0.941332,0.941332,0.543478,-156.6701,314.8289)" />
    <linearGradient
       x1="98"
       y1="240.92043"
       x2="420"
       y2="240.92043"
       id="linearGradient6163"
       xlink:href="#linearGradient3657"
       gradientUnits="userSpaceOnUse"
       gradientTransform="matrix(-0.941332,0.543478,0.543478,0.941332,334.2253,-173.0667)" />
    <linearGradient
       x1="98"
       y1="240.92043"
       x2="420"
       y2="240.92043"
       id="linearGradient6165"
       xlink:href="#linearGradient3657"
       gradientUnits="userSpaceOnUse"
       gradientTransform="matrix(0.941332,-0.543478,-0.543478,-0.941332,150.7744,625.2735)" />
    <linearGradient
       x1="98"
       y1="240.92043"
       x2="420"
       y2="240.92043"
       id="linearGradient6167"
       xlink:href="#linearGradient3657"
       gradientUnits="userSpaceOnUse"
       gradientTransform="matrix(-0.543478,0.941332,-0.941332,-0.543478,641.6699,131.3779)" />
    <radialGradient
       cx="246.35255"
       cy="226.88303"
       r="154.3577"
       fx="246.35255"
       fy="226.88303"
       id="radialGradient6169"
       xlink:href="#linearGradient3657"
       gradientUnits="userSpaceOnUse"
       gradientTransform="matrix(1,-0.57734,0.12401,0.214795,-28.13556,320.3787)" />
    <radialGradient
       cx="246.35255"
       cy="226.88303"
       r="154.3577"
       fx="246.35255"
       fy="226.88303"
       id="radialGradient6171"
       xlink:href="#linearGradient3657"
       gradientUnits="userSpaceOnUse"
       gradientTransform="matrix(-0.57734,-1,0.214795,-0.12401,339.8483,501.3712)" />
    <radialGradient
       cx="156.5"
       cy="148.5"
       r="19.5"
       fx="156.5"
       fy="148.5"
       id="radialGradient6173"
       xlink:href="#linearGradient12684"
       gradientUnits="userSpaceOnUse" />
    <radialGradient
       cx="156.5"
       cy="148.5"
       r="19.5"
       fx="156.5"
       fy="148.5"
       id="radialGradient6175"
       xlink:href="#linearGradient12684"
       gradientUnits="userSpaceOnUse" />
    <radialGradient
       cx="156.5"
       cy="148.5"
       r="19.5"
       fx="156.5"
       fy="148.5"
       id="radialGradient6177"
       xlink:href="#linearGradient12684"
       gradientUnits="userSpaceOnUse" />
    <radialGradient
       cx="156.5"
       cy="148.5"
       r="19.5"
       fx="156.5"
       fy="148.5"
       id="radialGradient6179"
       xlink:href="#linearGradient12684"
       gradientUnits="userSpaceOnUse" />
    <radialGradient
       cx="156.5"
       cy="148.5"
       r="19.5"
       fx="156.5"
       fy="148.5"
       id="radialGradient6181"
       xlink:href="#linearGradient12684"
       gradientUnits="userSpaceOnUse" />
    <radialGradient
       cx="156.5"
       cy="148.5"
       r="19.5"
       fx="156.5"
       fy="148.5"
       id="radialGradient6183"
       xlink:href="#linearGradient12684"
       gradientUnits="userSpaceOnUse" />
    <radialGradient
       cx="156.5"
       cy="148.5"
       r="19.5"
       fx="156.5"
       fy="148.5"
       id="radialGradient6185"
       xlink:href="#linearGradient12684"
       gradientUnits="userSpaceOnUse" />
    <radialGradient
       cx="156.5"
       cy="148.5"
       r="19.5"
       fx="156.5"
       fy="148.5"
       id="radialGradient6187"
       xlink:href="#linearGradient12684"
       gradientUnits="userSpaceOnUse" />
    <radialGradient
       cx="156.5"
       cy="148.5"
       r="19.5"
       fx="156.5"
       fy="148.5"
       id="radialGradient6189"
       xlink:href="#linearGradient12684"
       gradientUnits="userSpaceOnUse" />
    <radialGradient
       cx="156.5"
       cy="148.5"
       r="19.5"
       fx="156.5"
       fy="148.5"
       id="radialGradient6191"
       xlink:href="#linearGradient12684"
       gradientUnits="userSpaceOnUse" />
    <radialGradient
       cx="156.5"
       cy="148.5"
       r="19.5"
       fx="156.5"
       fy="148.5"
       id="radialGradient6193"
       xlink:href="#linearGradient12684"
       gradientUnits="userSpaceOnUse" />
    <radialGradient
       cx="156.5"
       cy="148.5"
       r="19.5"
       fx="156.5"
       fy="148.5"
       id="radialGradient6195"
       xlink:href="#linearGradient12684"
       gradientUnits="userSpaceOnUse" />
    <radialGradient
       cx="156.5"
       cy="148.5"
       r="19.5"
       fx="156.5"
       fy="148.5"
       id="radialGradient6197"
       xlink:href="#linearGradient12684"
       gradientUnits="userSpaceOnUse" />
    <linearGradient
       x1="70.079597"
       y1="104.14981"
       x2="30.154556"
       y2="72.577919"
       id="linearGradient6199"
       xlink:href="#linearGradient9111"
       gradientUnits="userSpaceOnUse" />
    <radialGradient
       cx="78.836967"
       cy="65.425926"
       r="36.617115"
       fx="78.836967"
       fy="65.425926"
       id="radialGradient6201"
       xlink:href="#linearGradient9111"
       gradientUnits="userSpaceOnUse"
       gradientTransform="matrix(0.784681,-0.354989,0.14614,0.323033,8.299292,73.27385)"
       spreadMethod="pad" />
    <linearGradient
       x1="185.18442"
       y1="178.86754"
       x2="185.18442"
       y2="162.24416"
       id="linearGradient6203"
       xlink:href="#linearGradient9111"
       gradientUnits="userSpaceOnUse" />
    <radialGradient
       cx="185.18442"
       cy="162.24416"
       r="8.3116884"
       fx="185.18442"
       fy="162.24416"
       id="radialGradient6205"
       xlink:href="#linearGradient9111"
       gradientUnits="userSpaceOnUse"
       gradientTransform="matrix(1.765929,0,0,3.004776,-141.8381,-325.2632)" />
    <linearGradient
       x1="185.18442"
       y1="178.86754"
       x2="185.18442"
       y2="162.24416"
       id="linearGradient6207"
       xlink:href="#linearGradient9111"
       gradientUnits="userSpaceOnUse" />
    <radialGradient
       cx="185.18442"
       cy="162.24416"
       r="8.3116884"
       fx="185.18442"
       fy="162.24416"
       id="radialGradient6209"
       xlink:href="#linearGradient9111"
       gradientUnits="userSpaceOnUse"
       gradientTransform="matrix(1.765929,0,0,3.004776,-141.8381,-325.2632)" />
    <radialGradient
       cx="46.132965"
       cy="72.531746"
       r="0.28773159"
       fx="46.132965"
       fy="72.531746"
       id="radialGradient6211"
       xlink:href="#linearGradient2762"
       gradientUnits="userSpaceOnUse"
       gradientTransform="matrix(1,0,0,1.222222,0,-16.11816)" />
    <radialGradient
       cx="46.132965"
       cy="72.531746"
       r="0.28773159"
       fx="46.132965"
       fy="72.531746"
       id="radialGradient6213"
       xlink:href="#linearGradient2762"
       gradientUnits="userSpaceOnUse"
       gradientTransform="matrix(1,0,0,1.222222,0,-16.11816)" />
    <radialGradient
       cx="47.304798"
       cy="72.108414"
       r="0.50028783"
       fx="47.304798"
       fy="72.108414"
       id="radialGradient6215"
       xlink:href="#linearGradient12684"
       gradientUnits="userSpaceOnUse"
       gradientTransform="matrix(1.49862,-0.01593619,0.135643,2.335053,-33.43558,-95.6548)" />
    <radialGradient
       cx="67.904976"
       cy="141.29233"
       r="21.288834"
       fx="67.904976"
       fy="141.29233"
       id="radialGradient6217"
       xlink:href="#linearGradient9111"
       gradientUnits="userSpaceOnUse"
       gradientTransform="matrix(3.29654,-0.335649,0.168235,1.652295,-177.1074,-80.32206)" />
    <linearGradient
       x1="32.877586"
       y1="104.45485"
       x2="82.408028"
       y2="62.983276"
       id="linearGradient6219"
       xlink:href="#linearGradient9111"
       gradientUnits="userSpaceOnUse" />
    <linearGradient
       x1="60.812256"
       y1="222.16092"
       x2="428.62836"
       y2="222.16092"
       id="linearGradient12131"
       xlink:href="#linearGradient3645"
       gradientUnits="userSpaceOnUse" />
    <radialGradient
       cx="244.72031"
       cy="222.16092"
       r="183.90805"
       fx="244.72031"
       fy="222.16092"
       id="radialGradient12133"
       xlink:href="#linearGradient6348"
       gradientUnits="userSpaceOnUse" />
    <radialGradient
       cx="49.709621"
       cy="222.16092"
       r="183.90805"
       fx="49.709621"
       fy="222.16092"
       id="radialGradient12135"
       xlink:href="#linearGradient3657"
       gradientUnits="userSpaceOnUse"
       gradientTransform="matrix(1.353938,0,0,1.353938,-33.88875,-78.63119)" />
    <radialGradient
       cx="69.944862"
       cy="222.16092"
       r="183.90805"
       fx="69.944862"
       fy="222.16092"
       id="radialGradient12137"
       xlink:href="#linearGradient3657"
       gradientUnits="userSpaceOnUse"
       gradientTransform="matrix(1.353938,0,0,1.353938,-33.88875,-78.63119)" />
    <linearGradient
       x1="98"
       y1="240.92043"
       x2="420"
       y2="240.92043"
       id="linearGradient12139"
       xlink:href="#linearGradient3657"
       gradientUnits="userSpaceOnUse"
       gradientTransform="matrix(0.543478,-0.941332,0.941332,0.543478,-156.6701,314.8289)" />
    <linearGradient
       x1="98"
       y1="240.92043"
       x2="420"
       y2="240.92043"
       id="linearGradient12141"
       xlink:href="#linearGradient3657"
       gradientUnits="userSpaceOnUse"
       gradientTransform="matrix(-0.941332,0.543478,0.543478,0.941332,334.2253,-173.0667)" />
    <linearGradient
       x1="98"
       y1="240.92043"
       x2="420"
       y2="240.92043"
       id="linearGradient12143"
       xlink:href="#linearGradient3657"
       gradientUnits="userSpaceOnUse"
       gradientTransform="matrix(0.941332,-0.543478,-0.543478,-0.941332,150.7744,625.2735)" />
    <linearGradient
       x1="98"
       y1="240.92043"
       x2="420"
       y2="240.92043"
       id="linearGradient12145"
       xlink:href="#linearGradient3657"
       gradientUnits="userSpaceOnUse"
       gradientTransform="matrix(-0.543478,0.941332,-0.941332,-0.543478,641.6699,131.3779)" />
    <radialGradient
       cx="246.35255"
       cy="226.88303"
       r="154.3577"
       fx="246.35255"
       fy="226.88303"
       id="radialGradient12147"
       xlink:href="#linearGradient3657"
       gradientUnits="userSpaceOnUse"
       gradientTransform="matrix(1,-0.57734,0.12401,0.214795,-28.13556,320.3787)" />
    <radialGradient
       cx="246.35255"
       cy="226.88303"
       r="154.3577"
       fx="246.35255"
       fy="226.88303"
       id="radialGradient12149"
       xlink:href="#linearGradient3657"
       gradientUnits="userSpaceOnUse"
       gradientTransform="matrix(-0.57734,-1,0.214795,-0.12401,339.8483,501.3712)" />
    <radialGradient
       cx="156.5"
       cy="148.5"
       r="19.5"
       fx="156.5"
       fy="148.5"
       id="radialGradient12151"
       xlink:href="#linearGradient12684"
       gradientUnits="userSpaceOnUse" />
    <radialGradient
       cx="156.5"
       cy="148.5"
       r="19.5"
       fx="156.5"
       fy="148.5"
       id="radialGradient12153"
       xlink:href="#linearGradient12684"
       gradientUnits="userSpaceOnUse" />
    <radialGradient
       cx="156.5"
       cy="148.5"
       r="19.5"
       fx="156.5"
       fy="148.5"
       id="radialGradient12155"
       xlink:href="#linearGradient12684"
       gradientUnits="userSpaceOnUse" />
    <radialGradient
       cx="156.5"
       cy="148.5"
       r="19.5"
       fx="156.5"
       fy="148.5"
       id="radialGradient12157"
       xlink:href="#linearGradient12684"
       gradientUnits="userSpaceOnUse" />
    <radialGradient
       cx="156.5"
       cy="148.5"
       r="19.5"
       fx="156.5"
       fy="148.5"
       id="radialGradient12159"
       xlink:href="#linearGradient12684"
       gradientUnits="userSpaceOnUse" />
    <radialGradient
       cx="156.5"
       cy="148.5"
       r="19.5"
       fx="156.5"
       fy="148.5"
       id="radialGradient12161"
       xlink:href="#linearGradient12684"
       gradientUnits="userSpaceOnUse" />
    <radialGradient
       cx="156.5"
       cy="148.5"
       r="19.5"
       fx="156.5"
       fy="148.5"
       id="radialGradient12163"
       xlink:href="#linearGradient12684"
       gradientUnits="userSpaceOnUse" />
    <radialGradient
       cx="156.5"
       cy="148.5"
       r="19.5"
       fx="156.5"
       fy="148.5"
       id="radialGradient12165"
       xlink:href="#linearGradient12684"
       gradientUnits="userSpaceOnUse" />
    <radialGradient
       cx="156.5"
       cy="148.5"
       r="19.5"
       fx="156.5"
       fy="148.5"
       id="radialGradient12167"
       xlink:href="#linearGradient12684"
       gradientUnits="userSpaceOnUse" />
    <radialGradient
       cx="156.5"
       cy="148.5"
       r="19.5"
       fx="156.5"
       fy="148.5"
       id="radialGradient12169"
       xlink:href="#linearGradient12684"
       gradientUnits="userSpaceOnUse" />
    <radialGradient
       cx="156.5"
       cy="148.5"
       r="19.5"
       fx="156.5"
       fy="148.5"
       id="radialGradient12171"
       xlink:href="#linearGradient12684"
       gradientUnits="userSpaceOnUse" />
    <radialGradient
       cx="156.5"
       cy="148.5"
       r="19.5"
       fx="156.5"
       fy="148.5"
       id="radialGradient12173"
       xlink:href="#linearGradient12684"
       gradientUnits="userSpaceOnUse" />
    <radialGradient
       cx="156.5"
       cy="148.5"
       r="19.5"
       fx="156.5"
       fy="148.5"
       id="radialGradient12175"
       xlink:href="#linearGradient12684"
       gradientUnits="userSpaceOnUse" />
    <linearGradient
       x1="70.079597"
       y1="104.14981"
       x2="30.154556"
       y2="72.577919"
       id="linearGradient12177"
       xlink:href="#linearGradient9111"
       gradientUnits="userSpaceOnUse" />
    <radialGradient
       cx="78.836967"
       cy="65.425926"
       r="36.617115"
       fx="78.836967"
       fy="65.425926"
       id="radialGradient12179"
       xlink:href="#linearGradient9111"
       gradientUnits="userSpaceOnUse"
       gradientTransform="matrix(0.784681,-0.354989,0.14614,0.323033,8.299292,73.27385)"
       spreadMethod="pad" />
    <linearGradient
       x1="185.18442"
       y1="178.86754"
       x2="185.18442"
       y2="162.24416"
       id="linearGradient12181"
       xlink:href="#linearGradient9111"
       gradientUnits="userSpaceOnUse" />
    <radialGradient
       cx="185.18442"
       cy="162.24416"
       r="8.3116884"
       fx="185.18442"
       fy="162.24416"
       id="radialGradient12183"
       xlink:href="#linearGradient9111"
       gradientUnits="userSpaceOnUse"
       gradientTransform="matrix(1.765929,0,0,3.004776,-141.8381,-325.2632)" />
    <linearGradient
       x1="185.18442"
       y1="178.86754"
       x2="185.18442"
       y2="162.24416"
       id="linearGradient12185"
       xlink:href="#linearGradient9111"
       gradientUnits="userSpaceOnUse" />
    <radialGradient
       cx="185.18442"
       cy="162.24416"
       r="8.3116884"
       fx="185.18442"
       fy="162.24416"
       id="radialGradient12187"
       xlink:href="#linearGradient9111"
       gradientUnits="userSpaceOnUse"
       gradientTransform="matrix(1.765929,0,0,3.004776,-141.8381,-325.2632)" />
    <radialGradient
       cx="46.132965"
       cy="72.531746"
       r="0.28773159"
       fx="46.132965"
       fy="72.531746"
       id="radialGradient12189"
       xlink:href="#linearGradient2762"
       gradientUnits="userSpaceOnUse"
       gradientTransform="matrix(1,0,0,1.222222,0,-16.11816)" />
    <radialGradient
       cx="46.132965"
       cy="72.531746"
       r="0.28773159"
       fx="46.132965"
       fy="72.531746"
       id="radialGradient12191"
       xlink:href="#linearGradient2762"
       gradientUnits="userSpaceOnUse"
       gradientTransform="matrix(1,0,0,1.222222,0,-16.11816)" />
    <radialGradient
       cx="47.304798"
       cy="72.108414"
       r="0.50028783"
       fx="47.304798"
       fy="72.108414"
       id="radialGradient12193"
       xlink:href="#linearGradient12684"
       gradientUnits="userSpaceOnUse"
       gradientTransform="matrix(1.49862,-0.01593619,0.135643,2.335053,-33.43558,-95.6548)" />
    <radialGradient
       cx="67.904976"
       cy="141.29233"
       r="21.288834"
       fx="67.904976"
       fy="141.29233"
       id="radialGradient12195"
       xlink:href="#linearGradient9111"
       gradientUnits="userSpaceOnUse"
       gradientTransform="matrix(3.29654,-0.335649,0.168235,1.652295,-177.1074,-80.32206)" />
    <linearGradient
       x1="32.877586"
       y1="104.45485"
       x2="82.408028"
       y2="62.983276"
       id="linearGradient12197"
       xlink:href="#linearGradient9111"
       gradientUnits="userSpaceOnUse" />
    <linearGradient
       x1="229.09253"
       y1="86.978439"
       x2="229.09253"
       y2="56.824593"
       id="linearGradient13153"
       xlink:href="#linearGradient22783"
       gradientUnits="userSpaceOnUse"
       gradientTransform="matrix(0.954268,0,0,0.959649,9.076597,-0.01727395)" />
    <linearGradient
       x1="229.09253"
       y1="86.978439"
       x2="229.09253"
       y2="56.824593"
       id="linearGradient14041"
       xlink:href="#linearGradient22783"
       gradientUnits="userSpaceOnUse"
       gradientTransform="matrix(0.954268,0,0,0.959649,29.0766,-0.01727395)" />
    <linearGradient
       x1="229.09253"
       y1="86.978439"
       x2="229.09253"
       y2="56.824593"
       id="linearGradient14046"
       xlink:href="#linearGradient22783"
       gradientUnits="userSpaceOnUse"
       gradientTransform="matrix(0.954268,0,0,0.959649,9.0766,-0.01727395)" />
    <mask
       id="mask14043">
      <path
         d="m 148.21875,-0.4375 0,146.375 167.5,0 0,-146.375 -167.5,0 z M 230.625,49.75 c 1.98848,-0.02184 4.7236,0.663877 6.0625,0.1875 0,9.635417 0,19.270833 0,28.90625 1.11657,7.23115 0.023,12.252206 -8.34375,10 0.19159,-2.392331 -3.36318,1.1924 -5.1875,0.53125 -8.50182,1.015102 -13.36726,-8.401246 -12.09375,-15.8125 -0.0165,-7.696054 7.10964,-15.418471 15.1875,-12.875 4.46211,2.390819 1.01672,-6.284791 2.09375,-8.75 -0.35922,-1.719355 0.73465,-2.17051 2.28125,-2.1875 z m -75.46875,1.9375 c 3.09693,-0.173975 6.68685,1.655853 4.625,5.8125 0.13967,2.162005 -1.49352,3.247592 -3.40625,3.40625 0.95833,0.08883 1.83896,0.147287 2.40625,-0.0625 2.31509,4.01824 0.34697,12.319697 1,18 1.11657,7.23115 0.023,12.252206 -8.34375,10 0,-8.666667 0,-17.333333 0,-26 -0.61322,-2.103565 1.06477,-2.247317 3.03125,-2.09375 -2.72502,-0.609775 -5.07666,-2.93685 -3.03125,-6.65625 0.18487,-1.474559 1.86059,-2.301865 3.71875,-2.40625 z m 43.875,8.5625 c 6.98985,0.196329 10.86287,7.325991 10.375,13.90625 0.6697,6.711362 -10.14128,1.942055 -14.75,3.375 0.59033,4.189945 5.72389,5.519142 9.28125,4.03125 5.61086,-3.191786 6.071,0.49678 5.375,6.03125 -5.27294,1.631663 -11.4292,2.974185 -16.5,0.09375 -11.22384,-5.741456 -8.60822,-26.771052 4.78125,-27.375 0.49334,-0.05069 0.97151,-0.07559 1.4375,-0.0625 z m 104.875,0 c 6.9649,0.177471 10.95148,7.370425 10.375,13.90625 0.6697,6.711362 -10.14128,1.942055 -14.75,3.375 0.6795,4.267846 5.75208,5.468895 9.3125,4.03125 5.63266,-3.150837 6.0036,0.453882 5.34375,6 -5.01782,1.609979 -10.73884,2.859265 -15.71875,0.53125 -12.01787,-5.155343 -9.72816,-27.149655 4,-27.78125 0.49028,-0.05278 0.97317,-0.07433 1.4375,-0.0625 z m -50.96875,0.03125 c 0.25546,-4.33e-4 0.49531,0.0093 0.75,0.03125 10.41417,-0.19187 15.1914,12.213535 11.6875,20.8125 -3.52793,11.257989 -22.23949,10.905066 -25.0625,-0.65625 -3.21326,-8.422972 1.74493,-20.383051 11.84375,-20.15625 0.25472,-0.02017 0.52579,-0.03082 0.78125,-0.03125 z M 175,60.3125 c 0.27433,-0.0046 0.56339,-0.01434 0.84375,0 2.51836,0.307518 10.25424,-0.501947 9.0625,3.40625 1.60282,6.314471 -1.89506,5.335862 -6.3125,4.09375 -5.77182,-1.744673 -8.49633,5.805968 -6.5625,10.21875 1.64835,6.113164 9.60793,3.494617 13.15625,1.3125 0.11864,4.374539 1.25434,9.710269 -4.53125,9.46875 -7.93457,2.789713 -17.04896,-2.855892 -17.8125,-11.28125 C 160.97452,69.546203 166.49588,60.456537 175,60.3125 z m 93.28125,0.09375 c 3.16583,-0.01303 7.25547,1.69276 6.4375,5.1875 2.18424,6.969216 4.38574,13.841246 6.75,3 0.97108,-6.769895 4.79582,-9.325412 11.4375,-7.75 -2.49861,6.453124 -5.09002,12.873606 -7.625,19.3125 -1.51636,5.796246 -3.60595,10.845651 -10.53125,8.6875 -3.16564,-8.430038 -6.28831,-16.876265 -9.4375,-25.3125 -1.39418,-2.06044 0.50644,-3.114866 2.96875,-3.125 z m -69.75,7.125 c -0.16494,-0.01326 -0.32177,0.0058 -0.5,0.03125 -2.61501,-0.25401 -5.42748,4.184057 -0.125,2.6875 3.98536,1.720476 3.09913,-2.519924 0.625,-2.71875 z m 104.90625,0 c -0.16579,-0.01149 -0.35186,0.0031 -0.53125,0.03125 -2.56462,-0.293267 -5.24508,4.132377 -0.15625,2.6875 4.01137,1.75013 3.17439,-2.546444 0.6875,-2.71875 z m -79.96875,0.03125 c -4.83305,0.98391 -4.1215,8.686307 -3.09375,12.21875 2.51087,4.636242 10.59428,-0.704694 7.96875,-5.3125 1.46854,-3.894639 -1.01816,-7.154893 -4.875,-6.90625 z m 29.1875,0 c -4.83917,-0.0469 -4.69129,6.28134 -4.375,9.59375 -0.55884,5.172074 7.34838,6.945086 8.8125,2.15625 1.31107,-3.839954 1.51358,-12.078854 -4.4375,-11.75 z"
         id="rect12260"
         style="fill:url(#linearGradient14046);fill-opacity:1;stroke:none" />
    </mask>
    <linearGradient
       x1="232"
       y1="199.5"
       x2="232"
       y2="133"
       id="linearGradient2393"
       xlink:href="#linearGradient22783"
       gradientUnits="userSpaceOnUse"
       gradientTransform="matrix(0.606013,0,0,1,4.061872,-75.24342)" />
    <mask
       id="mask2390">
      <rect
         width="165.44148"
         height="55"
         x="144.65685"
         y="84.756577"
         id="rect21896"
         style="fill:url(#linearGradient2393);fill-opacity:1;stroke:none" />
    </mask>
    <mask
       id="mask6149">
      <rect
         width="55.152679"
         height="55.152679"
         x="36.030788"
         y="28.406021"
         id="rect6151"
         style="fill:#ffffff;fill-opacity:1;stroke:none" />
    </mask>
  </defs>
  <g
     id="layer1">
    <path
       d="m 122.68052,63.501297 a 57.350651,57.350651 0 1 1 -114.7012987,0 57.350651,57.350651 0 1 1 114.7012987,0 z"
       transform="matrix(1.1490625,0.15740197,-0.13111796,0.95718446,-4.254017,5.5007225)"
       id="path1874"
       style="fill:url(#radialGradient5696);fill-opacity:1;stroke:none;display:inline" />
    <path
       d="m 11.912293,3.9987335 c 0.05873,0.2256687 0.0999,0.453385 0.100005,0.6979649 6.52e-4,1.5708974 -1.286418,2.8590368 -2.8573153,2.8596891 -0.244579,9.94e-5 -0.4723283,-0.040889 -0.6980531,-0.099379 l 0.00126,3.0246945 c 0.2256694,-0.05737 0.4533846,-0.0999 0.697964,-0.100005 1.5708984,-6.53e-4 2.8590234,1.253179 2.8596764,2.824077 6.52e-4,1.570897 -1.286418,2.859037 -2.8573158,2.859689 -0.244579,9.9e-5 -0.4723296,-0.04088 -0.6980531,-0.09938 l 0.00126,3.024695 c 0.2256697,-0.05737 0.4533847,-0.0999 0.697964,-0.100006 1.5708979,-6.52e-4 2.8590239,1.25318 2.8596759,2.824077 6.52e-4,1.570898 -1.286417,2.859037 -2.8573152,2.859689 -0.244579,10e-5 -0.4723296,-0.04088 -0.6980531,-0.09938 l 0.00126,3.024694 c 0.2256697,-0.05737 0.4533846,-0.0999 0.697964,-0.100005 1.5708973,-6.54e-4 2.8590223,1.253179 2.8596753,2.824077 6.52e-4,1.570897 -1.286417,2.859037 -2.8573146,2.859689 -0.244579,9.9e-5 -0.4723297,-0.04088 -0.6980531,-0.09938 l 0.00126,3.024695 c 0.2256697,-0.05737 0.4533846,-0.0999 0.697964,-0.100006 1.5708977,-6.53e-4 2.8590227,1.25318 2.8596747,2.824077 6.54e-4,1.570899 -1.286416,2.859037 -2.857314,2.859689 -0.244579,1e-4 -0.4723297,-0.04088 -0.6980531,-0.09938 l 0.00129,3.024463 c 0.2256696,-0.05737 0.4533851,-0.0999 0.697964,-0.100005 1.5708971,-6.54e-4 2.8590231,1.253179 2.8596751,2.824077 6.53e-4,1.570898 -1.286417,2.859037 -2.8573141,2.859689 -0.2445796,9.9e-5 -0.4723297,-0.04088 -0.6980532,-0.09938 l 0.00126,3.024695 c 0.2256699,-0.05737 0.453385,-0.0999 0.6979638,-0.100006 1.5708975,-6.53e-4 2.8590225,1.25318 2.8596755,2.824077 6.53e-4,1.570899 -1.286417,2.859037 -2.8573144,2.859689 -0.2445796,1e-4 -0.4723283,-0.04089 -0.6980532,-0.09938 l 0.00126,3.024694 c 0.22567,-0.05737 0.4533851,-0.0999 0.6979639,-0.100005 1.5708977,-6.54e-4 2.8590227,1.253179 2.8596757,2.824077 6.53e-4,1.570898 -1.286417,2.859036 -2.8573146,2.859689 -0.2445796,9.9e-5 -0.4723283,-0.04089 -0.6980532,-0.09938 l 0.00126,3.024695 c 0.22567,-0.05737 0.4533851,-0.0999 0.6979639,-0.100006 1.5708979,-6.53e-4 2.8590229,1.25318 2.8596749,2.824077 6.53e-4,1.570895 -1.286416,2.859037 -2.8573138,2.859689 -0.2445796,10e-5 -0.4723283,-0.04089 -0.6980532,-0.09938 l 0.00126,3.024695 c 0.22567,-0.05737 0.4533851,-0.0999 0.6979639,-0.100005 1.5708981,-6.5e-4 2.8590231,1.253179 2.8596751,2.824076 6.53e-4,1.570896 -1.286417,2.859037 -2.857314,2.85969 -0.2445796,9.9e-5 -0.4723283,-0.04089 -0.6980532,-0.09938 l 0.00126,3.024695 c 0.22567,-0.05737 0.4533851,-0.0999 0.6979639,-0.100006 1.5708983,-6.49e-4 2.8590233,1.253179 2.8596753,2.824077 6.53e-4,1.570895 -1.286417,2.859037 -2.8573142,2.859689 -0.2445797,9.9e-5 -0.4723283,-0.04089 -0.6980532,-0.09938 l 0.00126,3.024693 c 0.2256656,-0.05733 0.4533852,-0.0999 0.6979637,-0.100005 1.5708987,-6.53e-4 2.8590247,1.253171 2.8596757,2.824075 6.53e-4,1.570893 -1.286416,2.859038 -2.8573139,2.859688 -0.2445796,1e-4 -0.4723311,-0.0409 -0.697981,-0.0999 l 0.00126,3.0247 c 0.2256646,-0.0573 0.4533841,-0.0999 0.6979637,-0.1 1.5708982,-6.6e-4 2.8590232,1.25317 2.8596752,2.82407 6.53e-4,1.57089 -1.286417,2.85904 -2.8573159,2.8597 -0.2445785,10e-5 -0.4723301,-0.0409 -0.69798,-0.0999 l 0.00126,3.0247 c 0.2256646,-0.0573 0.4533841,-0.0999 0.6979637,-0.10001 1.5708972,-6.5e-4 2.8590222,1.25319 2.8596752,2.82408 6.53e-4,1.57089 -1.286417,2.85904 -2.8573144,2.85969 -0.2445786,1e-4 -0.4723301,-0.0409 -0.69798,-0.0999 l 0.00126,3.0247 c 0.2256645,-0.0573 0.4533841,-0.0999 0.6979637,-0.10001 1.5708977,-6.5e-4 2.8590227,1.25318 2.8596757,2.82408 4.8e-5,0.0924 -0.02444,0.1756 -0.0331,0.26593 l 2.891741,-10e-4 c -0.0085,-0.0903 -0.03332,-0.17341 -0.03335,-0.2659 -6.52e-4,-1.5709 1.253193,-2.82578 2.824091,-2.82643 1.570898,-6.6e-4 2.859023,1.25318 2.859676,2.82407 4.8e-5,0.0924 -0.02445,0.17561 -0.0331,0.26593 l 2.891741,-0.001 c -0.0085,-0.0903 -0.03331,-0.17341 -0.03335,-0.26589 -6.51e-4,-1.57091 1.253194,-2.82579 2.824091,-2.82644 1.570897,-6.5e-4 2.859022,1.25319 2.859675,2.82408 4.9e-5,0.0924 -0.02444,0.1756 -0.0331,0.26592 l 2.89174,-10e-4 c -0.0085,-0.0903 -0.0333,-0.17341 -0.03335,-0.26589 -6.52e-4,-1.57091 1.253192,-2.82579 2.824091,-2.82644 1.570898,-6.5e-4 2.859023,1.25318 2.859676,2.82407 4.8e-5,0.0924 -0.02445,0.17561 -0.0331,0.26593 l 2.891741,-0.001 c -0.0085,-0.0903 -0.0333,-0.17341 -0.03335,-0.2659 -6.51e-4,-1.5709 1.253193,-2.82578 2.824091,-2.82643 1.570898,-6.6e-4 2.859023,1.25318 2.859676,2.82407 3.4e-5,0.0926 -0.02445,0.17561 -0.0331,0.26593 l 2.89174,-0.001 c -0.0085,-0.0903 -0.0333,-0.17341 -0.03335,-0.26589 -6.51e-4,-1.5709 1.253192,-2.82578 2.824091,-2.82644 1.570897,-6.5e-4 2.859022,1.25318 2.859675,2.82408 4.9e-5,0.0924 -0.02444,0.1756 -0.0331,0.26593 l 2.891741,-0.001 c -0.0085,-0.0903 -0.03332,-0.17341 -0.03335,-0.2659 -6.51e-4,-1.5709 1.253192,-2.82578 2.824091,-2.82643 1.570898,-6.6e-4 2.859023,1.25318 2.859676,2.82407 4.8e-5,0.0924 -0.02445,0.17561 -0.0331,0.26593 l 2.891741,-10e-4 c -0.0085,-0.0903 -0.03332,-0.1734 -0.03335,-0.26588 -6.5e-4,-1.57091 1.253194,-2.82579 2.824091,-2.82644 1.570897,-6.5e-4 2.859022,1.25319 2.859675,2.82408 4.9e-5,0.0924 -0.02444,0.1756 -0.0331,0.26592 l 2.89174,-0.001 c -0.0085,-0.0903 -0.03332,-0.17341 -0.03335,-0.26589 -6.51e-4,-1.57091 1.253192,-2.82579 2.824091,-2.82644 1.570893,-6.5e-4 2.859022,1.25318 2.859675,2.82407 4.9e-5,0.0924 -0.02444,0.17561 -0.0331,0.26593 l 2.891741,-0.001 c -0.0085,-0.0903 -0.0333,-0.17342 -0.03335,-0.2659 -6.51e-4,-1.5709 1.253192,-2.82578 2.824091,-2.82643 1.570893,-6.6e-4 2.859023,1.25318 2.859676,2.82407 3.3e-5,0.0925 -0.02445,0.17561 -0.0331,0.26593 l 2.89174,-10e-4 c -0.0085,-0.0903 -0.03331,-0.17341 -0.03335,-0.26589 -6.52e-4,-1.57091 1.253192,-2.82579 2.824091,-2.82644 1.570894,-6.5e-4 2.859023,1.25318 2.859677,2.82408 7e-6,0.0924 -0.02445,0.1756 -0.03321,0.26591 l 2.891739,-0.001 c -0.009,-0.0903 -0.03336,-0.17342 -0.03336,-0.26589 -6.52e-4,-1.57091 1.25319,-2.82579 2.8241,-2.82644 1.57089,-6.5e-4 2.85902,1.25318 2.85967,2.82408 1e-5,0.0924 -0.0245,0.1756 -0.0332,0.26591 l 2.89174,-0.001 c -0.009,-0.0903 -0.0334,-0.1734 -0.0334,-0.26588 -6.5e-4,-1.57092 1.25319,-2.8258 2.82408,-2.82644 1.57091,-6.5e-4 2.85902,1.25318 2.85968,2.82408 0,0.0924 -0.0244,0.1756 -0.0332,0.2659 l 2.89174,-10e-4 c -0.009,-0.0903 -0.0333,-0.17342 -0.0333,-0.26589 -6.6e-4,-1.57091 1.25319,-2.82579 2.82408,-2.82644 0.0811,-6e-5 0.15328,0.0264 0.23271,0.0329 l -0.001,-2.89174 c -0.0794,0.007 -0.15157,0.0333 -0.23265,0.0333 -1.5709,6.5e-4 -2.82579,-1.28644 -2.82644,-2.85734 -6.5e-4,-1.5709 1.25319,-2.82578 2.82409,-2.82643 0.0811,-6e-5 0.15327,0.0264 0.2327,0.0329 l -0.001,-2.89174 c -0.0794,0.007 -0.15157,0.0333 -0.23266,0.0333 -1.5709,6.5e-4 -2.8258,-1.28643 -2.82645,-2.85733 -6.6e-4,-1.5709 1.2532,-2.82578 2.82409,-2.82643 0.0811,-4e-5 0.15324,0.0266 0.23268,0.0332 l -10e-4,-2.89175 c -0.0794,0.007 -0.15157,0.0333 -0.23266,0.0333 -1.5709,6.5e-4 -2.82579,-1.286434 -2.82644,-2.857332 -6.6e-4,-1.5709 1.25319,-2.825786 2.82408,-2.826439 0.0811,-3.9e-5 0.15325,0.02658 0.23268,0.03316 l -0.001,-2.891739 c -0.0794,0.0068 -0.15157,0.0333 -0.23266,0.03334 -1.57091,6.51e-4 -2.8258,-1.286432 -2.82646,-2.857329 -6.5e-4,-1.570901 1.25321,-2.825785 2.8241,-2.826438 0.0811,-3.9e-5 0.15324,0.02657 0.23267,0.03316 l -0.001,-2.89174 c -0.0794,0.0068 -0.15157,0.0333 -0.23266,0.03334 -1.5709,6.53e-4 -2.8258,-1.286431 -2.82645,-2.857327 -6.5e-4,-1.570901 1.25319,-2.825786 2.82409,-2.826439 0.0811,-4e-5 0.15324,0.02657 0.23268,0.03316 l -10e-4,-2.891741 c -0.0794,0.0068 -0.15156,0.0333 -0.23265,0.03334 -1.57091,6.52e-4 -2.8258,-1.28643 -2.82645,-2.857328 -6.5e-4,-1.5709 1.25319,-2.825786 2.82409,-2.826438 0.0811,-4e-5 0.15325,0.02658 0.23268,0.03316 l -0.001,-2.891739 c -0.0794,0.0068 -0.15156,0.0333 -0.23265,0.03334 -1.57091,6.52e-4 -2.82581,-1.286432 -2.82646,-2.857329 -6.5e-4,-1.570898 1.2532,-2.825785 2.82409,-2.826438 0.0811,-3.9e-5 0.15324,0.02657 0.23269,0.03316 l -0.001,-2.891741 c -0.0794,0.0068 -0.15156,0.0333 -0.23265,0.03334 -1.57091,6.53e-4 -2.8258,-1.28643 -2.82645,-2.857327 -6.5e-4,-1.570898 1.25319,-2.825786 2.82408,-2.826439 0.0811,-4e-5 0.15325,0.02658 0.23269,0.03316 l -10e-4,-2.890318 c -0.0794,0.0068 -0.15156,0.0333 -0.23265,0.03334 -1.57092,6.51e-4 -2.82581,-1.286432 -2.82646,-2.857329 -6.5e-4,-1.570898 1.2532,-2.825785 2.8241,-2.826438 0.0811,-3.9e-5 0.15323,0.02657 0.23267,0.03316 l -0.001,-2.89174 c -0.0794,0.0068 -0.15156,0.0333 -0.23265,0.03334 -1.57091,6.53e-4 -2.82581,-1.286431 -2.82645,-2.857327 -6.5e-4,-1.570898 1.25319,-2.825786 2.82408,-2.826439 0.0811,-4e-5 0.15324,0.02657 0.23269,0.03316 l -10e-4,-2.891741 c -0.0794,0.0068 -0.15156,0.0333 -0.23266,0.03334 -1.5709,6.52e-4 -2.82579,-1.28643 -2.82644,-2.857328 -6.6e-4,-1.570899 1.25319,-2.825786 2.82408,-2.826438 0.0811,-4e-5 0.15325,0.02658 0.23268,0.03316 l -0.001,-2.891739 c -0.0794,0.0068 -0.15157,0.0333 -0.23266,0.03334 -1.5709,6.52e-4 -2.8258,-1.286432 -2.82645,-2.857329 -6.6e-4,-1.5709 1.2532,-2.825785 2.82409,-2.826438 0.0811,-3.9e-5 0.15324,0.02657 0.23268,0.03316 l -0.001,-2.891741 c -0.0794,0.0068 -0.15157,0.0333 -0.23266,0.03334 -1.5709,6.53e-4 -2.82579,-1.28643 -2.82644,-2.857327 -6.6e-4,-1.570899 1.25319,-2.825786 2.82408,-2.826439 0.0811,-3.7e-5 0.15324,0.02662 0.23268,0.03314 l -10e-4,-2.89174 c -0.0794,0.00676 -0.15157,0.033302 -0.23266,0.033335 -1.57091,6.513e-4 -2.8258,-1.2864319 -2.82645,-2.8573299 -1e-4,-0.2445789 0.0423,-0.4723272 0.0999,-0.6979819 l -3.02469,0.00126 c 0.0587,0.2256693 0.0999,0.4533858 0.1,0.6979648 6.5e-4,1.570898 -1.28642,2.8590373 -2.85731,2.8596899 -1.5709,6.521e-4 -2.82581,-1.2864316 -2.82646,-2.8573294 -1e-4,-0.244579 0.0423,-0.4723301 0.0994,-0.6980542 l -3.02511,0.0011 c 0.0587,0.2256693 0.0999,0.4533856 0.10001,0.6979648 6.5e-4,1.5708979 -1.28641,2.8590374 -2.85732,2.8596899 -1.5709,6.524e-4 -2.825796,-1.2864312 -2.826448,-2.8573292 -9.9e-5,-0.244579 0.04224,-0.4723304 0.09939,-0.698054 l -3.024696,0.00126 c 0.05873,0.2256698 0.0999,0.4533856 0.100005,0.6979649 6.51e-4,1.5708978 -1.286417,2.8590373 -2.857315,2.8596899 -1.570902,6.523e-4 -2.825799,-1.2864313 -2.826451,-2.8573293 -1e-4,-0.244579 0.04224,-0.4723304 0.09938,-0.698054 l -3.024694,0.00126 c 0.05873,0.2256699 0.0999,0.4533857 0.100004,0.697965 6.52e-4,1.5708978 -1.286417,2.8590373 -2.857314,2.8596898 -1.570903,6.524e-4 -2.8258,-1.2864313 -2.826452,-2.8573292 -9.9e-5,-0.244579 0.04224,-0.4723304 0.09938,-0.6980541 l -3.024694,0.00126 c 0.05873,0.2256699 0.0999,0.4533857 0.100005,0.6979649 6.51e-4,1.5708978 -1.286417,2.8590374 -2.857314,2.8596899 -1.570903,6.523e-4 -2.8258,-1.2864313 -2.826452,-2.8573292 -1e-4,-0.244579 0.04224,-0.4723304 0.09938,-0.6980541 l -3.024694,0.00126 c 0.05873,0.2256698 0.0999,0.4533857 0.100004,0.6979649 6.52e-4,1.5708978 -1.286416,2.8590372 -2.857314,2.8596896 -1.570898,6.523e-4 -2.825799,-1.286431 -2.826452,-2.8573289 -9.9e-5,-0.244579 0.04224,-0.4723304 0.09938,-0.6980541 l -3.024693,0.00126 c 0.05873,0.2256698 0.0999,0.4533856 0.100004,0.6979649 6.51e-4,1.5708976 -1.286417,2.8590372 -2.857314,2.8596896 -1.570899,6.522e-4 -2.8258,-1.2864308 -2.826452,-2.8573289 -10e-5,-0.244579 0.04224,-0.4723304 0.09938,-0.6980541 l -3.024694,0.00126 c 0.05873,0.2256698 0.0999,0.4533856 0.100005,0.6979649 6.51e-4,1.5708976 -1.286417,2.8590372 -2.857315,2.8596896 -1.570898,6.522e-4 -2.825799,-1.2864308 -2.826452,-2.8573293 -9.9e-5,-0.2445785 0.04224,-0.4723297 0.09938,-0.6980542 l -3.024693,0.00126 c 0.05873,0.2256689 0.0999,0.4533849 0.100004,0.6979648 6.51e-4,1.5708973 -1.286417,2.8590369 -2.857314,2.8596893 -1.570899,6.522e-4 -2.8258,-1.2864308 -2.826452,-2.8573293 -9.9e-5,-0.2445785 0.04224,-0.4723297 0.09938,-0.6980542 l -3.024694,0.00126 c 0.05873,0.2256689 0.0999,0.4533849 0.100005,0.6979648 6.52e-4,1.5708974 -1.286417,2.8590369 -2.857315,2.8596893 -1.570898,6.522e-4 -2.825799,-1.2864308 -2.826451,-2.8573293 -10e-5,-0.2445786 0.04224,-0.4723297 0.09938,-0.6980543 l -3.024694,0.00126 c 0.05873,0.2256689 0.0999,0.4533849 0.100004,0.6979648 6.53e-4,1.5708974 -1.286417,2.8590368 -2.857314,2.8596892 -1.570899,6.523e-4 -2.8258,-1.2864307 -2.826452,-2.8573292 -9.9e-5,-0.2445786 0.04224,-0.4723298 0.09938,-0.6980543 l -3.024694,0.00126 c 0.05873,0.2256688 0.0999,0.4533849 0.100005,0.6979648 6.52e-4,1.5708974 -1.286417,2.8590368 -2.857314,2.8596892 -1.570899,6.523e-4 -2.8258,-1.2864307 -2.826452,-2.8573292 -10e-5,-0.2445786 0.04224,-0.4723298 0.09938,-0.6980543 l -3.024694,0.00126 z"
       id="path30002"
       style="fill:#babdb6;fill-opacity:1;stroke:#babdb6;stroke-width:2.12725759;stroke-linecap:round;stroke-linejoin:round;stroke-miterlimit:4;stroke-opacity:1;stroke-dasharray:none;stroke-dashoffset:0" />
    <path
       d="m 11.912293,3.9987335 c 0.05873,0.2256687 0.0999,0.453385 0.100005,0.6979649 6.52e-4,1.5708974 -1.286418,2.8590368 -2.8573153,2.8596891 -0.244579,9.94e-5 -0.4723283,-0.040889 -0.6980531,-0.099379 l 0.00126,3.0246945 c 0.2256694,-0.05737 0.4533846,-0.0999 0.697964,-0.100005 1.5708984,-6.53e-4 2.8590234,1.253179 2.8596764,2.824077 6.52e-4,1.570897 -1.286418,2.859037 -2.8573158,2.859689 -0.244579,9.9e-5 -0.4723296,-0.04088 -0.6980531,-0.09938 l 0.00126,3.024695 c 0.2256697,-0.05737 0.4533847,-0.0999 0.697964,-0.100006 1.5708979,-6.52e-4 2.8590239,1.25318 2.8596759,2.824077 6.52e-4,1.570898 -1.286417,2.859037 -2.8573152,2.859689 -0.244579,10e-5 -0.4723296,-0.04088 -0.6980531,-0.09938 l 0.00126,3.024694 c 0.2256697,-0.05737 0.4533846,-0.0999 0.697964,-0.100005 1.5708973,-6.54e-4 2.8590223,1.253179 2.8596753,2.824077 6.52e-4,1.570897 -1.286417,2.859037 -2.8573146,2.859689 -0.244579,9.9e-5 -0.4723297,-0.04088 -0.6980531,-0.09938 l 0.00126,3.024695 c 0.2256697,-0.05737 0.4533846,-0.0999 0.697964,-0.100006 1.5708977,-6.53e-4 2.8590227,1.25318 2.8596747,2.824077 6.54e-4,1.570899 -1.286416,2.859037 -2.857314,2.859689 -0.244579,1e-4 -0.4723297,-0.04088 -0.6980531,-0.09938 l 0.00129,3.024463 c 0.2256696,-0.05737 0.4533851,-0.0999 0.697964,-0.100005 1.5708971,-6.54e-4 2.8590231,1.253179 2.8596751,2.824077 6.53e-4,1.570898 -1.286417,2.859037 -2.8573141,2.859689 -0.2445796,9.9e-5 -0.4723297,-0.04088 -0.6980532,-0.09938 l 0.00126,3.024695 c 0.2256699,-0.05737 0.453385,-0.0999 0.6979638,-0.100006 1.5708975,-6.53e-4 2.8590225,1.25318 2.8596755,2.824077 6.53e-4,1.570899 -1.286417,2.859037 -2.8573144,2.859689 -0.2445796,1e-4 -0.4723283,-0.04089 -0.6980532,-0.09938 l 0.00126,3.024694 c 0.22567,-0.05737 0.4533851,-0.0999 0.6979639,-0.100005 1.5708977,-6.54e-4 2.8590227,1.253179 2.8596757,2.824077 6.53e-4,1.570898 -1.286417,2.859036 -2.8573146,2.859689 -0.2445796,9.9e-5 -0.4723283,-0.04089 -0.6980532,-0.09938 l 0.00126,3.024695 c 0.22567,-0.05737 0.4533851,-0.0999 0.6979639,-0.100006 1.5708979,-6.53e-4 2.8590229,1.25318 2.8596749,2.824077 6.53e-4,1.570895 -1.286416,2.859037 -2.8573138,2.859689 -0.2445796,10e-5 -0.4723283,-0.04089 -0.6980532,-0.09938 l 0.00126,3.024695 c 0.22567,-0.05737 0.4533851,-0.0999 0.6979639,-0.100005 1.5708981,-6.5e-4 2.8590231,1.253179 2.8596751,2.824076 6.53e-4,1.570896 -1.286417,2.859037 -2.857314,2.85969 -0.2445796,9.9e-5 -0.4723283,-0.04089 -0.6980532,-0.09938 l 0.00126,3.024695 c 0.22567,-0.05737 0.4533851,-0.0999 0.6979639,-0.100006 1.5708983,-6.49e-4 2.8590233,1.253179 2.8596753,2.824077 6.53e-4,1.570895 -1.286417,2.859037 -2.8573142,2.859689 -0.2445797,9.9e-5 -0.4723283,-0.04089 -0.6980532,-0.09938 l 0.00126,3.024693 c 0.2256656,-0.05733 0.4533852,-0.0999 0.6979637,-0.100005 1.5708987,-6.53e-4 2.8590247,1.253171 2.8596757,2.824075 6.53e-4,1.570893 -1.286416,2.859038 -2.8573139,2.859688 -0.2445796,1e-4 -0.4723311,-0.0409 -0.697981,-0.0999 l 0.00126,3.0247 c 0.2256646,-0.0573 0.4533841,-0.0999 0.6979637,-0.1 1.5708982,-6.6e-4 2.8590232,1.25317 2.8596752,2.82407 6.53e-4,1.57089 -1.286417,2.85904 -2.8573159,2.8597 -0.2445785,10e-5 -0.4723301,-0.0409 -0.69798,-0.0999 l 0.00126,3.0247 c 0.2256646,-0.0573 0.4533841,-0.0999 0.6979637,-0.10001 1.5708972,-6.5e-4 2.8590222,1.25319 2.8596752,2.82408 6.53e-4,1.57089 -1.286417,2.85904 -2.8573144,2.85969 -0.2445786,1e-4 -0.4723301,-0.0409 -0.69798,-0.0999 l 0.00126,3.0247 c 0.2256645,-0.0573 0.4533841,-0.0999 0.6979637,-0.10001 1.5708977,-6.5e-4 2.8590227,1.25318 2.8596757,2.82408 4.8e-5,0.0924 -0.02444,0.1756 -0.0331,0.26593 l 2.891741,-10e-4 c -0.0085,-0.0903 -0.03332,-0.17341 -0.03335,-0.2659 -6.52e-4,-1.5709 1.253193,-2.82578 2.824091,-2.82643 1.570898,-6.6e-4 2.859023,1.25318 2.859676,2.82407 4.8e-5,0.0924 -0.02445,0.17561 -0.0331,0.26593 l 2.891741,-0.001 c -0.0085,-0.0903 -0.03331,-0.17341 -0.03335,-0.26589 -6.51e-4,-1.57091 1.253194,-2.82579 2.824091,-2.82644 1.570897,-6.5e-4 2.859022,1.25319 2.859675,2.82408 4.9e-5,0.0924 -0.02444,0.1756 -0.0331,0.26592 l 2.89174,-10e-4 c -0.0085,-0.0903 -0.0333,-0.17341 -0.03335,-0.26589 -6.52e-4,-1.57091 1.253192,-2.82579 2.824091,-2.82644 1.570898,-6.5e-4 2.859023,1.25318 2.859676,2.82407 4.8e-5,0.0924 -0.02445,0.17561 -0.0331,0.26593 l 2.891741,-0.001 c -0.0085,-0.0903 -0.0333,-0.17341 -0.03335,-0.2659 -6.51e-4,-1.5709 1.253193,-2.82578 2.824091,-2.82643 1.570898,-6.6e-4 2.859023,1.25318 2.859676,2.82407 3.4e-5,0.0926 -0.02445,0.17561 -0.0331,0.26593 l 2.89174,-0.001 c -0.0085,-0.0903 -0.0333,-0.17341 -0.03335,-0.26589 -6.51e-4,-1.5709 1.253192,-2.82578 2.824091,-2.82644 1.570897,-6.5e-4 2.859022,1.25318 2.859675,2.82408 4.9e-5,0.0924 -0.02444,0.1756 -0.0331,0.26593 l 2.891741,-0.001 c -0.0085,-0.0903 -0.03332,-0.17341 -0.03335,-0.2659 -6.51e-4,-1.5709 1.253192,-2.82578 2.824091,-2.82643 1.570898,-6.6e-4 2.859023,1.25318 2.859676,2.82407 4.8e-5,0.0924 -0.02445,0.17561 -0.0331,0.26593 l 2.891741,-10e-4 c -0.0085,-0.0903 -0.03332,-0.1734 -0.03335,-0.26588 -6.5e-4,-1.57091 1.253194,-2.82579 2.824091,-2.82644 1.570897,-6.5e-4 2.859022,1.25319 2.859675,2.82408 4.9e-5,0.0924 -0.02444,0.1756 -0.0331,0.26592 l 2.89174,-0.001 c -0.0085,-0.0903 -0.03332,-0.17341 -0.03335,-0.26589 -6.51e-4,-1.57091 1.253192,-2.82579 2.824091,-2.82644 1.570893,-6.5e-4 2.859022,1.25318 2.859675,2.82407 4.9e-5,0.0924 -0.02444,0.17561 -0.0331,0.26593 l 2.891741,-0.001 c -0.0085,-0.0903 -0.0333,-0.17342 -0.03335,-0.2659 -6.51e-4,-1.5709 1.253192,-2.82578 2.824091,-2.82643 1.570893,-6.6e-4 2.859023,1.25318 2.859676,2.82407 3.3e-5,0.0925 -0.02445,0.17561 -0.0331,0.26593 l 2.89174,-10e-4 c -0.0085,-0.0903 -0.03331,-0.17341 -0.03335,-0.26589 -6.52e-4,-1.57091 1.253192,-2.82579 2.824091,-2.82644 1.570894,-6.5e-4 2.859023,1.25318 2.859677,2.82408 7e-6,0.0924 -0.02445,0.1756 -0.03321,0.26591 l 2.891739,-0.001 c -0.009,-0.0903 -0.03336,-0.17342 -0.03336,-0.26589 -6.52e-4,-1.57091 1.253187,-2.82579 2.824097,-2.82644 1.57089,-6.5e-4 2.85902,1.25318 2.85967,2.82408 1e-5,0.0924 -0.0245,0.1756 -0.0332,0.26591 l 2.89174,-0.001 c -0.009,-0.0903 -0.0334,-0.1734 -0.0334,-0.26588 -6.5e-4,-1.57092 1.25319,-2.8258 2.82408,-2.82644 1.57091,-6.5e-4 2.85902,1.25318 2.85968,2.82408 0,0.0924 -0.0244,0.1756 -0.0332,0.2659 l 2.89174,-10e-4 c -0.009,-0.0903 -0.0333,-0.17342 -0.0333,-0.26589 -6.6e-4,-1.57091 1.25319,-2.82579 2.82408,-2.82644 0.0811,-6e-5 0.15328,0.0264 0.23271,0.0329 l -0.001,-2.89174 c -0.0794,0.007 -0.15157,0.0333 -0.23265,0.0333 -1.5709,6.5e-4 -2.82579,-1.28644 -2.82644,-2.85734 -6.5e-4,-1.5709 1.25319,-2.82578 2.82409,-2.82643 0.0811,-6e-5 0.15327,0.0264 0.2327,0.0329 l -0.001,-2.89174 c -0.0794,0.007 -0.15157,0.0333 -0.23266,0.0333 -1.5709,6.5e-4 -2.8258,-1.28643 -2.82645,-2.85733 -6.6e-4,-1.5709 1.2532,-2.82578 2.82409,-2.82643 0.0811,-4e-5 0.15324,0.0266 0.23268,0.0332 l -10e-4,-2.89175 c -0.0794,0.007 -0.15157,0.0333 -0.23266,0.0333 -1.5709,6.5e-4 -2.82579,-1.286434 -2.82644,-2.857332 -6.6e-4,-1.5709 1.25319,-2.825786 2.82408,-2.826439 0.0811,-3.9e-5 0.15325,0.02658 0.23268,0.03316 l -0.001,-2.891739 c -0.0794,0.0068 -0.15157,0.0333 -0.23266,0.03334 -1.57091,6.51e-4 -2.8258,-1.286432 -2.82646,-2.857329 -6.5e-4,-1.570901 1.25321,-2.825785 2.8241,-2.826438 0.0811,-3.9e-5 0.15324,0.02657 0.23267,0.03316 l -0.001,-2.89174 c -0.0794,0.0068 -0.15157,0.0333 -0.23266,0.03334 -1.5709,6.53e-4 -2.8258,-1.286431 -2.82645,-2.857327 -6.5e-4,-1.570901 1.25319,-2.825786 2.82409,-2.826439 0.0811,-4e-5 0.15324,0.02657 0.23268,0.03316 l -10e-4,-2.891741 c -0.0794,0.0068 -0.15156,0.0333 -0.23265,0.03334 -1.57091,6.52e-4 -2.8258,-1.28643 -2.82645,-2.857328 -6.5e-4,-1.5709 1.25319,-2.825786 2.82409,-2.826438 0.0811,-4e-5 0.15325,0.02658 0.23268,0.03316 l -0.001,-2.891739 c -0.0794,0.0068 -0.15156,0.0333 -0.23265,0.03334 -1.57091,6.52e-4 -2.82581,-1.286432 -2.82646,-2.857329 -6.5e-4,-1.570898 1.2532,-2.825785 2.82409,-2.826438 0.0811,-3.9e-5 0.15324,0.02657 0.23269,0.03316 l -0.001,-2.891741 c -0.0794,0.0068 -0.15156,0.0333 -0.23265,0.03334 -1.57091,6.53e-4 -2.8258,-1.28643 -2.82645,-2.857327 -6.5e-4,-1.570898 1.25319,-2.825786 2.82408,-2.826439 0.0811,-4e-5 0.15325,0.02658 0.23269,0.03316 l -10e-4,-2.890318 c -0.0794,0.0068 -0.15156,0.0333 -0.23265,0.03334 -1.57092,6.51e-4 -2.82581,-1.286432 -2.82646,-2.857329 -6.5e-4,-1.570898 1.2532,-2.825785 2.8241,-2.826438 0.0811,-3.9e-5 0.15323,0.02657 0.23267,0.03316 l -0.001,-2.89174 c -0.0794,0.0068 -0.15156,0.0333 -0.23265,0.03334 -1.57091,6.53e-4 -2.82581,-1.286431 -2.82645,-2.857327 -6.5e-4,-1.570898 1.25319,-2.825786 2.82408,-2.826439 0.0811,-4e-5 0.15324,0.02657 0.23269,0.03316 l -10e-4,-2.891741 c -0.0794,0.0068 -0.15156,0.0333 -0.23266,0.03334 -1.5709,6.52e-4 -2.82579,-1.28643 -2.82644,-2.857328 -6.6e-4,-1.570899 1.25319,-2.825786 2.82408,-2.826438 0.0811,-4e-5 0.15325,0.02658 0.23268,0.03316 l -0.001,-2.891739 c -0.0794,0.0068 -0.15157,0.0333 -0.23266,0.03334 -1.5709,6.52e-4 -2.8258,-1.286432 -2.82645,-2.857329 -6.6e-4,-1.5709 1.2532,-2.825785 2.82409,-2.826438 0.0811,-3.9e-5 0.15324,0.02657 0.23268,0.03316 l -0.001,-2.891741 c -0.0794,0.0068 -0.15157,0.0333 -0.23266,0.03334 -1.5709,6.53e-4 -2.82579,-1.28643 -2.82644,-2.857327 -6.6e-4,-1.570899 1.25319,-2.825786 2.82408,-2.826439 0.0811,-3.7e-5 0.15324,0.02662 0.23268,0.03314 l -10e-4,-2.89174 c -0.0794,0.00676 -0.15157,0.033302 -0.23266,0.033335 -1.57091,6.513e-4 -2.8258,-1.2864319 -2.82645,-2.8573299 -1e-4,-0.2445789 0.0423,-0.4723272 0.0999,-0.6979819 l -3.02469,0.00126 c 0.0587,0.2256693 0.0999,0.4533858 0.1,0.6979648 6.5e-4,1.570898 -1.28642,2.8590373 -2.85731,2.8596899 -1.5709,6.521e-4 -2.82581,-1.2864316 -2.82646,-2.8573294 -1e-4,-0.244579 0.0423,-0.4723301 0.0994,-0.6980542 l -3.02511,0.0011 c 0.0587,0.2256693 0.0999,0.4533856 0.10001,0.6979648 6.5e-4,1.5708979 -1.28641,2.8590374 -2.85732,2.8596899 -1.5709,6.524e-4 -2.825793,-1.2864312 -2.826445,-2.8573292 -9.9e-5,-0.244579 0.04224,-0.4723304 0.09939,-0.698054 l -3.024698,0.00126 c 0.05873,0.2256698 0.0999,0.4533856 0.100005,0.6979649 6.51e-4,1.5708978 -1.286417,2.8590373 -2.857315,2.8596899 -1.570902,6.523e-4 -2.825799,-1.2864313 -2.826451,-2.8573293 -10e-5,-0.244579 0.04224,-0.4723304 0.09938,-0.698054 l -3.024694,0.00126 c 0.05873,0.2256699 0.0999,0.4533857 0.100004,0.697965 6.52e-4,1.5708978 -1.286417,2.8590373 -2.857314,2.8596898 -1.570903,6.524e-4 -2.8258,-1.2864313 -2.826452,-2.8573292 -9.9e-5,-0.244579 0.04224,-0.4723304 0.09938,-0.6980541 l -3.024694,0.00126 c 0.05873,0.2256699 0.0999,0.4533857 0.100005,0.6979649 6.51e-4,1.5708978 -1.286417,2.8590374 -2.857314,2.8596899 -1.570903,6.523e-4 -2.8258,-1.2864313 -2.826452,-2.8573292 -1e-4,-0.244579 0.04224,-0.4723304 0.09938,-0.6980541 l -3.024694,0.00126 c 0.05873,0.2256698 0.0999,0.4533857 0.100004,0.6979649 6.52e-4,1.5708978 -1.286416,2.8590372 -2.857314,2.8596896 -1.570898,6.523e-4 -2.825799,-1.286431 -2.826452,-2.8573289 -9.9e-5,-0.244579 0.04224,-0.4723304 0.09938,-0.6980541 l -3.024693,0.00126 c 0.05873,0.2256698 0.0999,0.4533856 0.100004,0.6979649 6.51e-4,1.5708976 -1.286417,2.8590372 -2.857314,2.8596896 -1.570899,6.522e-4 -2.8258,-1.2864308 -2.826452,-2.8573289 -10e-5,-0.244579 0.04224,-0.4723304 0.09938,-0.6980541 l -3.024694,0.00126 c 0.05873,0.2256698 0.0999,0.4533856 0.100005,0.6979649 6.51e-4,1.5708976 -1.286417,2.8590372 -2.857315,2.8596896 -1.570898,6.522e-4 -2.825799,-1.2864308 -2.826452,-2.8573293 -9.9e-5,-0.2445785 0.04224,-0.4723297 0.09938,-0.6980542 l -3.024693,0.00126 c 0.05873,0.2256689 0.0999,0.4533849 0.100004,0.6979648 6.51e-4,1.5708973 -1.286417,2.8590369 -2.857314,2.8596893 -1.570899,6.522e-4 -2.8258,-1.2864308 -2.826452,-2.8573293 -9.9e-5,-0.2445785 0.04224,-0.4723297 0.09938,-0.6980542 l -3.024694,0.00126 c 0.05873,0.2256689 0.0999,0.4533849 0.100005,0.6979648 6.52e-4,1.5708974 -1.286417,2.8590369 -2.857315,2.8596893 -1.570898,6.522e-4 -2.825799,-1.2864308 -2.826451,-2.8573293 -10e-5,-0.2445786 0.04224,-0.4723297 0.09938,-0.6980543 l -3.024694,0.00126 c 0.05873,0.2256689 0.0999,0.4533849 0.100004,0.6979648 6.53e-4,1.5708974 -1.286417,2.8590368 -2.857314,2.8596892 -1.570899,6.523e-4 -2.8258,-1.2864307 -2.826452,-2.8573292 -9.9e-5,-0.2445786 0.04224,-0.4723298 0.09938,-0.6980543 l -3.024694,0.00126 c 0.05873,0.2256688 0.0999,0.4533849 0.100005,0.6979648 6.52e-4,1.5708974 -1.286417,2.8590368 -2.857314,2.8596892 -1.570899,6.523e-4 -2.8258,-1.2864307 -2.826452,-2.8573292 -10e-5,-0.2445786 0.04224,-0.4723298 0.09938,-0.6980543 l -3.024694,0.00126 z"
       id="rect25754"
       style="fill:#ffffff;fill-opacity:1;stroke:none" />
    <g
       transform="matrix(1.7203137,-7.1451489e-4,7.1451489e-4,1.7203137,-45.211128,-35.512337)"
       mask="url(#mask6149)"
       id="g27032">
      <rect
         width="108.20067"
         height="108.20067"
         x="9.8996658"
         y="9.8996658"
         id="rect26137"
         style="fill:url(#linearGradient6151);fill-opacity:1;stroke:none" />
      <g
         id="g26086">
        <g
           transform="matrix(0.945724,0,0,0.945724,17.38005,3.769244)"
           id="g3116">
          <path
             d="m 428.62836,222.16092 a 183.90805,183.90805 0 1 1 -367.816104,0 183.90805,183.90805 0 1 1 367.816104,0 z"
             transform="matrix(0,-0.262607,0.262607,0,-9.045471,133.7106)"
             id="path9557"
             style="fill:#4e9a06;fill-opacity:1;stroke:#4e9a06;stroke-width:7.61594343;stroke-linecap:butt;stroke-linejoin:round;stroke-miterlimit:4;stroke-opacity:1;stroke-dasharray:none;stroke-dashoffset:0" />
          <path
             d="m 428.62836,222.16092 a 183.90805,183.90805 0 1 1 -367.816104,0 183.90805,183.90805 0 1 1 367.816104,0 z"
             transform="matrix(0,-0.262607,0.262607,0,-9.045471,133.7106)"
             id="path1872"
             style="fill:url(#linearGradient6153);fill-opacity:1;stroke:none" />
          <path
             d="m 428.62836,222.16092 a 183.90805,183.90805 0 1 1 -367.816104,0 183.90805,183.90805 0 1 1 367.816104,0 z"
             transform="matrix(0,-0.262607,0.262607,0,-9.045471,133.7106)"
             id="path5461"
             style="fill:url(#radialGradient6155);fill-opacity:1;stroke:none" />
          <path
             d="m 428.62836,222.16092 a 183.90805,183.90805 0 1 1 -367.816104,0 183.90805,183.90805 0 1 1 367.816104,0 z"
             transform="matrix(0,-0.153363,0.206196,0,3.486899,125.6807)"
             id="path8142"
             style="fill:url(#radialGradient6159);fill-opacity:1;stroke:none" />
          <g
             transform="matrix(0.262607,0,0,0.262607,-14.96973,11.1044)"
             id="g11789"
             style="opacity:0.5">
            <path
               d="m 201.58219,398.66524 c 0,0 -175.98576,-177.96619 32.57947,-358.777143 C -1.634599,220.03851 202.12567,397.72391 201.58219,398.66524 z"
               id="path8152"
               style="fill:url(#linearGradient6161);fill-opacity:1;fill-rule:evenodd;stroke:none" />
            <path
               d="m 418.06183,185.18557 c 0,0 -177.96626,-175.9856903 -358.777135,32.57961 C 239.43502,-18.031148 417.12049,185.72905 418.06183,185.18557 z"
               id="path9971"
               style="fill:url(#linearGradient6163);fill-opacity:1;fill-rule:evenodd;stroke:none" />
            <path
               d="m 66.93794,267.02123 c 0,0 177.96626,175.98569 358.77713,-32.57961 C 245.56475,470.23795 67.879272,266.47776 66.93794,267.02123 z"
               id="path9981"
               style="fill:url(#linearGradient6165);fill-opacity:1;fill-rule:evenodd;stroke:none" />
            <path
               d="m 283.41758,47.541558 c 0,0 175.98575,177.966182 -32.57947,358.777142 C 486.63436,226.16829 282.8741,48.482895 283.41758,47.541558 z"
               id="path9983"
               style="fill:url(#linearGradient6167);fill-opacity:1;fill-rule:evenodd;stroke:none" />
            <path
               d="M 92,316 C 92,316 262.42047,243.53212 400.71024,137.76606 239,206 91,316 92,316 z"
               id="path9993"
               style="fill:url(#radialGradient6169);fill-opacity:1;fill-rule:evenodd;stroke:none" />
            <path
               d="m 335.46957,381.23563 c 0,0 -72.46788,-170.42047 -178.23394,-308.710239 68.23394,161.710239 178.23394,309.710239 178.23394,308.710239 z"
               id="path10888"
               style="fill:url(#radialGradient6171);fill-opacity:1;fill-rule:evenodd;stroke:none" />
          </g>
          <path
             d="m 176,148.5 a 19.5,19.5 0 1 1 -39,0 19.5,19.5 0 1 1 39,0 z"
             transform="matrix(0.208739,0,0,0.208739,41.51777,14.9021)"
             id="path12698"
             style="fill:url(#radialGradient6175);fill-opacity:1;stroke:none" />
          <path
             d="m 176,148.5 a 19.5,19.5 0 1 1 -39,0 19.5,19.5 0 1 1 39,0 z"
             transform="matrix(0.127937,0,0,0.127937,63.87972,31.89077)"
             id="path12714"
             style="fill:url(#radialGradient6177);fill-opacity:1;stroke:none" />
          <path
             d="m 176,148.5 a 19.5,19.5 0 1 1 -39,0 19.5,19.5 0 1 1 39,0 z"
             transform="matrix(0.262607,0,0,0.262607,-6.828906,4.801832)"
             id="path12726"
             style="fill:url(#radialGradient6179);fill-opacity:1;stroke:none" />
          <path
             d="m 176,148.5 a 19.5,19.5 0 1 1 -39,0 19.5,19.5 0 1 1 39,0 z"
             transform="matrix(0.262607,0,0,0.262607,35.71347,15.30611)"
             id="path12730"
             style="fill:url(#radialGradient6181);fill-opacity:1;stroke:none" />
          <path
             d="m 176,148.5 a 19.5,19.5 0 1 1 -39,0 19.5,19.5 0 1 1 39,0 z"
             transform="matrix(0.262607,0,0,0.262607,23.37092,57.84845)"
             id="path12734"
             style="fill:url(#radialGradient6183);fill-opacity:1;stroke:none" />
          <path
             d="m 176,148.5 a 19.5,19.5 0 1 1 -39,0 19.5,19.5 0 1 1 39,0 z"
             transform="matrix(0.262607,0,0,0.262607,-20.22187,48.132)"
             id="path12738"
             style="fill:url(#radialGradient6185);fill-opacity:1;stroke:none" />
          <path
             d="m 176,148.5 a 19.5,19.5 0 1 1 -39,0 19.5,19.5 0 1 1 39,0 z"
             transform="matrix(0.208739,0,0,0.208739,40.20472,63.747)"
             id="path12742"
             style="fill:url(#radialGradient6187);fill-opacity:1;stroke:none" />
          <path
             d="m 176,148.5 a 19.5,19.5 0 1 1 -39,0 19.5,19.5 0 1 1 39,0 z"
             transform="matrix(0.127937,0,0,0.127937,46.81027,83.88695)"
             id="path12746"
             style="fill:url(#radialGradient6189);fill-opacity:1;stroke:none" />
          <path
             d="m 176,148.5 a 19.5,19.5 0 1 1 -39,0 19.5,19.5 0 1 1 39,0 z"
             transform="matrix(0.208739,0,0,0.208739,-8.114996,64.79745)"
             id="path12750"
             style="fill:url(#radialGradient6191);fill-opacity:1;stroke:none" />
          <path
             d="m 176,148.5 a 19.5,19.5 0 1 1 -39,0 19.5,19.5 0 1 1 39,0 z"
             transform="matrix(0.208739,0,0,0.208739,-8.114996,15.95252)"
             id="path12754"
             style="fill:url(#radialGradient6193);fill-opacity:1;stroke:none" />
          <path
             d="m 176,148.5 a 19.5,19.5 0 1 1 -39,0 19.5,19.5 0 1 1 39,0 z"
             transform="matrix(0.127937,0,0,0.127937,-4.923321,71.807)"
             id="path12758"
             style="fill:url(#radialGradient6195);fill-opacity:1;stroke:none" />
          <path
             d="m 176,148.5 a 19.5,19.5 0 1 1 -39,0 19.5,19.5 0 1 1 39,0 z"
             transform="matrix(0.127937,0,0,0.127937,10.5705,18.49779)"
             id="path12762"
             style="fill:url(#radialGradient6197);fill-opacity:1;stroke:none" />
        </g>
        <g
           transform="matrix(0.945724,0,0,0.945724,3.473691,3.769244)"
           id="g25870">
          <g
             id="g25732">
            <g
               id="g25688">
              <path
                 d="m 24.945445,51.12438 c -0.180927,0.143234 -0.381857,0.343667 -0.621334,0.611318 -3.831619,4.2824 -2.279204,12.177301 -2.279204,12.177301 -10e-7,-3e-6 -1.325979,-8.099656 -2.903706,-3.591866 -1.577727,4.507792 2.481471,11.485535 2.481471,11.485535 -2e-6,-4e-6 -4.507785,-7.666852 -3.60623,-2.933673 0.901561,4.733179 5.411559,9.685594 5.411559,9.685594 0,0 -3.837659,-4.284979 -3.386878,-0.678745 0.450781,3.606232 7.420892,6.540863 7.420892,6.540863 2e-6,0 -5.855159,1.152178 -2.023536,4.307631 3.83162,3.155452 11.731127,0.443909 11.731127,0.443909 0,0 -6.088109,4.93317 0.222797,6.510896 1.819622,0.454905 3.611746,0.48302 5.253425,0.286698 0.561044,1.114769 1.136911,2.219189 1.766746,3.310096 12.167094,21.074023 46.080386,12.069883 48.360706,-16.049302 5.828987,0.747388 16.10402,-4.179333 17.0516,-7.715765 0.89205,-3.329182 -4.48754,-1.321557 -6.01038,-0.535276 1.41028,-0.785853 7.28379,-3.795501 5.16647,-7.926421 -1.45105,-2.831018 -4.36367,-0.449269 -6.49161,1.94371 -1.23757,1.852217 -2.547533,3.27504 -2.547533,3.27504 -3e-6,10e-7 1.091573,-1.637743 2.547533,-3.27504 1.84073,-2.754945 3.49265,-6.485343 0.25149,-7.939421 -2.06699,-0.927314 -3.618394,0.391367 -4.745578,2.342928 -0.461377,3.43484 -2.380889,6.751181 -2.380889,6.751181 2e-6,-10e-7 0.552253,-3.585156 2.380889,-6.751181 0.298532,-2.222543 -0.119102,-4.130467 -2.17494,-3.579606 -0.800922,0.214607 -1.726468,0.402492 -2.679567,0.608854 0.932364,-1.293045 4.886805,-7.083605 3.39471,-10.62019 -1.677041,-3.97496 -3.057851,2.703648 -3.057852,2.703645 -3e-6,2e-6 1.680484,-7.761336 -0.202025,-13.162417 -1.882518,-5.401077 -1.973296,5.144651 -1.973296,5.144651 -3e-6,10e-7 0.02902,-9.570553 -4.26855,-13.268346 -4.297574,-3.697795 -0.863405,5.442046 -0.863401,5.442046 -3e-6,10e-7 -3.080904,-9.058263 -9.561818,-11.186555 -1.012646,-0.332544 -1.570118,-0.379928 -1.814663,-0.143089 -1.320548,1.278935 6.865693,10.554568 6.283515,24.445868 C 80.414877,65.593189 57.449104,66.303484 59.954817,82.51239 57.558953,81.69397 56.256343,78.955671 56.830558,72.913514 57.791587,62.801122 47.870898,60.36894 43.935467,62.641062 39.195752,65.377537 37.218745,70.332572 37.220646,76.260651 34.926189,75.309907 32.88081,73.810967 31.310891,71.337155 24.337905,60.349417 27.659364,48.975861 24.945445,51.12438 z"
                 id="path14069"
                 style="fill:#3465a4;fill-opacity:1;fill-rule:evenodd;stroke:#3465a4;stroke-width:2;stroke-linecap:round;stroke-linejoin:round;stroke-miterlimit:4;stroke-opacity:1;stroke-dasharray:none" />
              <path
                 d="M 61.056745,88.034147 C 56.931179,72.637329 38.743181,83.075578 31.305326,71.355322 23.867471,59.635066 28.149872,47.464032 24.318251,51.746433 c -3.831622,4.282401 -2.253896,12.171034 -2.253896,12.171034 0,0 -1.352334,-8.114023 -2.930061,-3.606232 -1.577727,4.50779 2.479281,11.494866 2.479281,11.494866 0,0 -4.50779,-7.663244 -3.606235,-2.930064 0.901563,4.73318 5.409352,9.691751 5.409352,9.691751 0,0 -3.831625,-4.282402 -3.380844,-0.676168 0.450782,3.606232 7.437855,6.536295 7.437855,6.536295 0,0 -5.860128,1.126948 -2.028505,4.282401 3.831622,3.155454 11.720256,0.450779 11.720256,0.450779 0,0 -6.085518,4.95857 0.225388,6.536297 6.310908,1.577726 12.396425,-2.028506 12.396425,-2.028506 0,0 -2.479284,5.860129 3.831622,5.409349 6.310911,-0.450777 8.959935,-5.363609 7.437856,-11.044088 z"
                 id="path10520"
                 style="fill:url(#linearGradient6199);fill-opacity:1;fill-rule:evenodd;stroke:#729fcf;stroke-width:0.5;stroke-linecap:round;stroke-linejoin:round;stroke-miterlimit:4;stroke-opacity:1;stroke-dasharray:none" />
              <path
                 d="m 74.801332,25.332661 c -1.320545,1.278933 6.865694,10.554568 6.283516,24.445868 C 80.422342,65.586466 57.456567,66.296762 59.96228,82.505668 57.566415,81.687249 56.263806,78.948949 56.83802,72.906792 57.799049,62.7944 47.87836,60.362218 43.94293,62.63434 33.595569,68.60839 36.288537,85.189043 44.420037,99.273215 56.587131,120.34724 90.500423,111.3431 92.780743,83.223913 c 5.828989,0.747386 16.108417,-4.179456 17.055997,-7.715889 0.89205,-3.329184 -4.49722,-1.322852 -6.02006,-0.536567 1.41028,-0.785858 7.28907,-3.794081 5.17175,-7.925004 -1.45105,-2.831016 -4.36366,-0.449268 -6.4916,1.943708 -1.23757,1.852219 -2.54754,3.27504 -2.54754,3.27504 0,10e-7 1.09158,-1.637741 2.54754,-3.27504 1.84073,-2.754945 3.49264,-6.485338 0.25147,-7.939419 -2.06699,-0.927317 -3.618381,0.391365 -4.745566,2.342926 -0.461372,3.434842 -2.380888,6.751181 -2.380888,6.751181 7e-6,1e-6 0.552252,-3.585157 2.380888,-6.751181 0.298535,-2.222545 -0.119101,-4.130467 -2.17494,-3.579606 -0.800919,0.214605 -1.726467,0.402492 -2.679566,0.608854 0.932367,-1.293047 4.886802,-7.083603 3.394706,-10.620188 -1.677041,-3.97496 -3.057848,2.703646 -3.057848,2.703643 0,0 1.680481,-7.761334 -0.202028,-13.162415 -1.882519,-5.401077 -1.973293,5.144649 -1.973293,5.144649 0,0 0.02902,-9.570551 -4.268554,-13.268344 -4.297573,-3.697795 -0.863401,5.442044 -0.863397,5.442044 0,0 -3.080908,-9.058261 -9.561819,-11.186555 -1.012643,-0.332545 -1.570117,-0.379928 -1.814663,-0.143089 z"
                 id="path10522"
                 style="fill:url(#radialGradient6201);fill-opacity:1;fill-rule:evenodd;stroke:#729fcf;stroke-width:0.5;stroke-linecap:round;stroke-linejoin:round;stroke-miterlimit:4;stroke-opacity:1;stroke-dasharray:none" />
              <path
                 d="M 60.400431,84.588774 C 55.502998,66.311305 80.396822,66.246952 81.086813,49.783187 81.776803,33.319422 70.150186,23.348755 76.631104,25.477044 c 6.480913,2.128293 9.541205,11.174681 9.541205,11.174681 0,0 -3.425785,-9.144321 0.871788,-5.446526 4.297572,3.697794 4.273912,13.288905 4.273912,13.288905 0,0 0.08575,-10.553808 1.968268,-5.152731 1.88251,5.401082 0.191409,13.17434 0.191409,13.17434 0,0 1.397306,-6.676785 3.074347,-2.701826 1.677041,3.974961 -3.766911,11.134376 -3.766911,11.134376 0,0 6.693422,-2.319698 4.627219,3.198524 -2.066202,5.518223 -11.781491,7.419947 -11.781491,7.419947 0,0 9.199381,1.485635 3.647887,6.853441 -5.551495,5.367807 -13.9482,5.272447 -13.9482,5.272447"
                 id="path10524"
                 style="fill:#ffffff;fill-opacity:1;fill-rule:evenodd;stroke:#729fcf;stroke-width:0.5;stroke-linecap:round;stroke-linejoin:round;stroke-miterlimit:4;stroke-opacity:1;stroke-dasharray:none" />
              <path
                 d="m 46.322278,72.009213 c -0.648374,0.05705 -1.355933,0.175486 -2.200681,0.418367 1.230234,0.396327 2.156324,1.466447 2.636211,2.430069 1.148223,-1.096589 1.039806,-1.782352 2.777448,-2.157329 -0.633705,-0.394512 -1.299037,-0.655602 -2.081957,-0.728091 -0.522156,-0.68171 -0.560353,-0.11324 -1.131021,0.03698 z"
                 id="path15842"
                 style="fill:#555753;fill-opacity:1;fill-rule:evenodd;stroke:#729fcf;stroke-width:0.25;stroke-linecap:butt;stroke-linejoin:miter;stroke-miterlimit:4;stroke-opacity:1;stroke-dasharray:none" />
              <path
                 d="m 41.722024,65.586999 c 0,0 4.326779,1.068185 2.593903,5.233683 -3.950258,-1.643336 1.430014,-3.559705 -2.593903,-5.233683 z"
                 id="path6450"
                 style="fill:#729fcf;fill-opacity:1;fill-rule:evenodd;stroke:none;display:inline" />
              <g
                 transform="matrix(0.133747,0.05563981,-0.05563981,0.133747,27.2196,35.07171)"
                 id="g9129"
                 style="display:inline">
                <path
                   d="m 193.49611,170.55585 a 8.3116884,8.3116884 0 1 1 -16.62338,0 8.3116884,8.3116884 0 1 1 16.62338,0 z"
                   transform="matrix(1.396026,0,0,1.396026,-71.55557,-66.82562)"
                   id="path7337"
                   style="fill:#000000;fill-opacity:1;stroke:none" />
                <path
                   d="m 193.49611,170.55585 a 8.3116884,8.3116884 0 1 1 -16.62338,0 8.3116884,8.3116884 0 1 1 16.62338,0 z"
                   transform="matrix(0.550417,0,0,0.256292,85.03803,134.2209)"
                   id="path8224"
                   style="fill:url(#linearGradient6203);fill-opacity:1;stroke:none" />
                <path
                   d="m 193.49611,170.55585 a 8.3116884,8.3116884 0 1 1 -16.62338,0 8.3116884,8.3116884 0 1 1 16.62338,0 z"
                   transform="matrix(0.869052,0,0,0.489141,26.03174,83.32977)"
                   id="path9119"
                   style="fill:url(#radialGradient6205);fill-opacity:1;stroke:none" />
              </g>
              <path
                 d="m 54.198937,67.249037 c 0,0 -4.455524,-0.101697 -3.873488,4.372167 4.242691,-0.55196 -0.448314,-3.809915 3.873488,-4.372167 z"
                 id="path18554"
                 style="fill:#729fcf;fill-opacity:1;fill-rule:evenodd;stroke:none;display:inline" />
              <g
                 transform="matrix(-0.143648,0.0186882,0.0186882,0.143648,76.18374,41.59418)"
                 id="g18556"
                 style="display:inline">
                <path
                   d="m 193.49611,170.55585 a 8.3116884,8.3116884 0 1 1 -16.62338,0 8.3116884,8.3116884 0 1 1 16.62338,0 z"
                   transform="matrix(1.396026,0,0,1.396026,-71.55557,-66.82562)"
                   id="path18558"
                   style="fill:#000000;fill-opacity:1;stroke:none" />
                <path
                   d="m 193.49611,170.55585 a 8.3116884,8.3116884 0 1 1 -16.62338,0 8.3116884,8.3116884 0 1 1 16.62338,0 z"
                   transform="matrix(0.550417,0,0,0.256292,85.03803,134.2209)"
                   id="path18560"
                   style="fill:url(#linearGradient6207);fill-opacity:1;stroke:none" />
                <path
                   d="m 193.49611,170.55585 a 8.3116884,8.3116884 0 1 1 -16.62338,0 8.3116884,8.3116884 0 1 1 16.62338,0 z"
                   transform="matrix(0.869052,0,0,0.489141,26.03174,83.32977)"
                   id="path18562"
                   style="fill:url(#radialGradient6209);fill-opacity:1;stroke:none" />
              </g>
              <path
                 d="m 46.420697,72.531746 a 0.28773159,0.35167193 0 1 1 -0.575463,0 0.28773159,0.35167193 0 1 1 0.575463,0 z"
                 transform="matrix(0.996107,-0.08815314,0.08815314,0.996107,-5.970501,4.288031)"
                 id="path20338"
                 style="fill:url(#radialGradient6211);fill-opacity:1;stroke:none" />
              <path
                 d="m 46.420697,72.531746 a 0.28773159,0.35167193 0 1 1 -0.575463,0 0.28773159,0.35167193 0 1 1 0.575463,0 z"
                 transform="matrix(0.98674,0.162307,-0.162307,0.98674,13.86084,-6.525857)"
                 id="path21225"
                 style="fill:url(#radialGradient6213);fill-opacity:1;stroke:none" />
              <path
                 d="m 47.795793,72.858513 a 0.50028783,0.50028783 0 1 1 -1.000575,0 0.50028783,0.50028783 0 1 1 1.000575,0 z"
                 transform="matrix(0.632402,0.04700127,-0.109853,1.478076,25.07223,-37.29287)"
                 id="path23007"
                 style="fill:url(#radialGradient6215);fill-opacity:1;stroke:none" />
            </g>
            <path
               d="m 70.367893,108.73579 c 9.826066,-2.78781 14.983278,-8.02676 18.19398,-14.983282 3.210702,-6.956521 -8.294314,8.829432 -8.294314,8.829432 0,0 4.816053,-12.307693 1.872909,-10.702341 -2.943144,1.605351 -6.153846,12.575251 -6.153846,12.575251 0,0 0.535117,-13.377927 -1.337793,-10.434783 -1.872909,2.943144 -3.745819,12.307693 -3.745819,12.307693 0,0 -1.872909,-13.377927 -3.745819,-9.899666 -1.87291,3.478261 -0.535118,10.969906 -0.535118,10.969906 0,0 -6.688963,-14.180608 -6.688963,-10.434789 0,3.745819 1.87291,10.434789 1.87291,10.434789 0,0 -7.759198,-12.842816 -8.294315,-10.702348 -0.535117,2.140468 2.675586,9.096998 2.675586,9.096998 0,0 -9.899666,-12.040142 -9.632107,-8.561881 0.267558,3.478261 9.59544,15.538691 23.812709,11.505021 z"
               id="path25720"
               style="fill:url(#radialGradient6217);fill-opacity:1;fill-rule:evenodd;stroke:none" />
          </g>
          <path
             d="m 67.692308,81.712375 c 0,0 -1.87291,-4.013378 3.745819,-8.829432 5.618729,-4.816053 9.899666,-7.22408 10.9699,-9.899665 -5.351171,8.561873 -13.110368,11.772575 -12.040134,14.715719 1.070234,2.943143 -2.408027,4.013378 -2.675585,4.013378 z"
             id="path25708"
             style="fill:url(#linearGradient6219);fill-opacity:1;fill-rule:evenodd;stroke:none" />
        </g>
      </g>
    </g>
    <rect
       width="94.879921"
       height="94.879921"
       x="16.787891"
       y="13.33616"
       transform="matrix(0.99999991,-4.1533984e-4,4.1533984e-4,0.99999991,0,0)"
       id="rect25916"
       style="fill:none;stroke:#3465a4;stroke-width:1.06362844;stroke-linecap:round;stroke-linejoin:round;stroke-miterlimit:4;stroke-opacity:1;stroke-dasharray:none;stroke-dashoffset:0" />
    <rect
       width="2.2766628"
       height="4.6695247"
       x="16.256077"
       y="110.77734"
       transform="matrix(0.99999991,-4.1533984e-4,4.1533984e-4,0.99999991,0,0)"
       id="rect31774"
       style="fill:#babdb6;fill-opacity:1;stroke:none" />
    <rect
       width="2.2766628"
       height="4.6695247"
       x="20.510592"
       y="110.77734"
       transform="matrix(0.99999991,-4.1533984e-4,4.1533984e-4,0.99999991,0,0)"
       id="rect32661"
       style="fill:#babdb6;fill-opacity:1;stroke:none" />
    <rect
       width="2.2766628"
       height="4.6695247"
       x="29.019617"
       y="110.77734"
       transform="matrix(0.99999991,-4.1533984e-4,4.1533984e-4,0.99999991,0,0)"
       id="rect32663"
       style="fill:#babdb6;fill-opacity:1;stroke:none" />
    <rect
       width="2.2766628"
       height="4.6695247"
       x="33.274132"
       y="110.77734"
       transform="matrix(0.99999991,-4.1533984e-4,4.1533984e-4,0.99999991,0,0)"
       id="rect32665"
       style="fill:#babdb6;fill-opacity:1;stroke:none" />
    <rect
       width="2.2766628"
       height="4.6695247"
       x="37.528648"
       y="110.77734"
       transform="matrix(0.99999991,-4.1533984e-4,4.1533984e-4,0.99999991,0,0)"
       id="rect32667"
       style="fill:#babdb6;fill-opacity:1;stroke:none" />
    <rect
       width="2.2766628"
       height="4.6695247"
       x="46.037674"
       y="110.77734"
       transform="matrix(0.99999991,-4.1533984e-4,4.1533984e-4,0.99999991,0,0)"
       id="rect32669"
       style="fill:#babdb6;fill-opacity:1;stroke:none" />
    <rect
       width="2.2766628"
       height="4.6695247"
       x="50.292191"
       y="110.77734"
       transform="matrix(0.99999991,-4.1533984e-4,4.1533984e-4,0.99999991,0,0)"
       id="rect32671"
       style="fill:#babdb6;fill-opacity:1;stroke:none" />
    <rect
       width="2.2766628"
       height="4.6695247"
       x="54.5467"
       y="110.77734"
       transform="matrix(0.99999991,-4.1533984e-4,4.1533984e-4,0.99999991,0,0)"
       id="rect32673"
       style="fill:#babdb6;fill-opacity:1;stroke:none" />
    <rect
       width="2.2766628"
       height="4.6695247"
       x="63.055729"
       y="110.77734"
       transform="matrix(0.99999991,-4.1533984e-4,4.1533984e-4,0.99999991,0,0)"
       id="rect32675"
       style="fill:#babdb6;fill-opacity:1;stroke:none" />
    <rect
       width="2.2766628"
       height="4.6695247"
       x="67.310242"
       y="110.77734"
       transform="matrix(0.99999991,-4.1533984e-4,4.1533984e-4,0.99999991,0,0)"
       id="rect32677"
       style="fill:#babdb6;fill-opacity:1;stroke:none" />
    <rect
       width="2.2766628"
       height="4.6695247"
       x="75.819267"
       y="110.77734"
       transform="matrix(0.99999991,-4.1533984e-4,4.1533984e-4,0.99999991,0,0)"
       id="rect32679"
       style="fill:#babdb6;fill-opacity:1;stroke:none" />
    <rect
       width="2.2766628"
       height="4.6695247"
       x="84.3283"
       y="110.77734"
       transform="matrix(0.99999991,-4.1533984e-4,4.1533984e-4,0.99999991,0,0)"
       id="rect32681"
       style="fill:#babdb6;fill-opacity:1;stroke:none" />
    <rect
       width="2.2766628"
       height="4.6695247"
       x="88.582809"
       y="110.77734"
       transform="matrix(0.99999991,-4.1533984e-4,4.1533984e-4,0.99999991,0,0)"
       id="rect32683"
       style="fill:#babdb6;fill-opacity:1;stroke:none" />
    <rect
       width="2.2766628"
       height="4.6695247"
       x="92.837326"
       y="110.77734"
       transform="matrix(0.99999991,-4.1533984e-4,4.1533984e-4,0.99999991,0,0)"
       id="rect32685"
       style="fill:#babdb6;fill-opacity:1;stroke:none" />
    <rect
       width="2.2766628"
       height="4.6695247"
       x="97.091843"
       y="110.77734"
       transform="matrix(0.99999991,-4.1533984e-4,4.1533984e-4,0.99999991,0,0)"
       id="rect32687"
       style="fill:#babdb6;fill-opacity:1;stroke:none" />
    <rect
       width="2.2766628"
       height="4.6695247"
       x="105.60086"
       y="110.77734"
       transform="matrix(0.99999991,-4.1533984e-4,4.1533984e-4,0.99999991,0,0)"
       id="rect32689"
       style="fill:#babdb6;fill-opacity:1;stroke:none" />
    <rect
       width="2.2766628"
       height="4.6695247"
       x="109.85537"
       y="110.77734"
       transform="matrix(0.99999991,-4.1533984e-4,4.1533984e-4,0.99999991,0,0)"
       id="rect32691"
       style="fill:#babdb6;fill-opacity:1;stroke:none" />
  </g>
</svg>
