<?xml version="1.0" encoding="UTF-8" standalone="no"?>
<!-- Created with Inkscape (http://www.inkscape.org/) -->

<svg
   xmlns:dc="http://purl.org/dc/elements/1.1/"
   xmlns:cc="http://creativecommons.org/ns#"
   xmlns:rdf="http://www.w3.org/1999/02/22-rdf-syntax-ns#"
   xmlns:svg="http://www.w3.org/2000/svg"
   xmlns="http://www.w3.org/2000/svg"
   xmlns:xlink="http://www.w3.org/1999/xlink"
   xmlns:sodipodi="http://sodipodi.sourceforge.net/DTD/sodipodi-0.dtd"
   xmlns:inkscape="http://www.inkscape.org/namespaces/inkscape"
   width="180"
   height="45"
   id="svg5652"
   version="1.1"
   inkscape:version="0.48.1 r9760"
   sodipodi:docname="Neues Dokument 7">
  <defs
     id="defs5654">
    <linearGradient
       inkscape:collect="always"
       xlink:href="#linearGradient3645"
       id="linearGradient5312"
       gradientUnits="userSpaceOnUse"
       x1="60.812256"
       y1="222.16092"
       x2="428.62836"
       y2="222.16092" />
    <linearGradient
       id="linearGradient3645">
      <stop
         style="stop-color:#8ae234;stop-opacity:1"
         offset="0"
         id="stop3647" />
      <stop
         style="stop-color:#4e9a06;stop-opacity:1"
         offset="1"
         id="stop3649" />
    </linearGradient>
    <radialGradient
       inkscape:collect="always"
       xlink:href="#linearGradient6348"
       id="radialGradient5314"
       gradientUnits="userSpaceOnUse"
       cx="244.72031"
       cy="222.16092"
       fx="244.72031"
       fy="222.16092"
       r="183.90805" />
    <linearGradient
       id="linearGradient6348">
      <stop
         style="stop-color:white;stop-opacity:0.70103091"
         offset="0"
         id="stop6350" />
      <stop
         style="stop-color:#4e9a06;stop-opacity:0"
         offset="0.80000001"
         id="stop6356" />
      <stop
         style="stop-color:#8ae234;stop-opacity:1"
         offset="1"
         id="stop6352" />
    </linearGradient>
    <radialGradient
       inkscape:collect="always"
       xlink:href="#linearGradient3657"
       id="radialGradient5316"
       gradientUnits="userSpaceOnUse"
       gradientTransform="matrix(1.353938,0,0,1.353938,-33.88875,-78.63119)"
       cx="49.709621"
       cy="222.16092"
       fx="49.709621"
       fy="222.16092"
       r="183.90805" />
    <linearGradient
       id="linearGradient3657">
      <stop
         style="stop-color:white;stop-opacity:1"
         offset="0"
         id="stop3659" />
      <stop
         style="stop-color:white;stop-opacity:0"
         offset="1"
         id="stop3661" />
    </linearGradient>
    <radialGradient
       inkscape:collect="always"
       xlink:href="#linearGradient3657"
       id="radialGradient5318"
       gradientUnits="userSpaceOnUse"
       gradientTransform="matrix(1.353938,0,0,1.353938,-33.88875,-78.63119)"
       cx="69.944862"
       cy="222.16092"
       fx="69.944862"
       fy="222.16092"
       r="183.90805" />
    <linearGradient
       id="linearGradient5463">
      <stop
         style="stop-color:white;stop-opacity:1"
         offset="0"
         id="stop5465" />
      <stop
         style="stop-color:white;stop-opacity:0"
         offset="1"
         id="stop5467" />
    </linearGradient>
    <linearGradient
       inkscape:collect="always"
       xlink:href="#linearGradient3657"
       id="linearGradient5320"
       gradientUnits="userSpaceOnUse"
       gradientTransform="matrix(0.543478,-0.941332,0.941332,0.543478,-156.6701,314.8289)"
       x1="98"
       y1="240.92043"
       x2="420"
       y2="240.92043" />
    <linearGradient
       id="linearGradient5470">
      <stop
         style="stop-color:white;stop-opacity:1"
         offset="0"
         id="stop5472" />
      <stop
         style="stop-color:white;stop-opacity:0"
         offset="1"
         id="stop5474" />
    </linearGradient>
    <linearGradient
       inkscape:collect="always"
       xlink:href="#linearGradient3657"
       id="linearGradient5322"
       gradientUnits="userSpaceOnUse"
       gradientTransform="matrix(-0.941332,0.543478,0.543478,0.941332,334.2253,-173.0667)"
       x1="98"
       y1="240.92043"
       x2="420"
       y2="240.92043" />
    <linearGradient
       id="linearGradient5477">
      <stop
         style="stop-color:white;stop-opacity:1"
         offset="0"
         id="stop5479" />
      <stop
         style="stop-color:white;stop-opacity:0"
         offset="1"
         id="stop5481" />
    </linearGradient>
    <linearGradient
       inkscape:collect="always"
       xlink:href="#linearGradient3657"
       id="linearGradient5324"
       gradientUnits="userSpaceOnUse"
       gradientTransform="matrix(0.941332,-0.543478,-0.543478,-0.941332,150.7744,625.2735)"
       x1="98"
       y1="240.92043"
       x2="420"
       y2="240.92043" />
    <linearGradient
       id="linearGradient5484">
      <stop
         style="stop-color:white;stop-opacity:1"
         offset="0"
         id="stop5486" />
      <stop
         style="stop-color:white;stop-opacity:0"
         offset="1"
         id="stop5488" />
    </linearGradient>
    <linearGradient
       inkscape:collect="always"
       xlink:href="#linearGradient3657"
       id="linearGradient5326"
       gradientUnits="userSpaceOnUse"
       gradientTransform="matrix(-0.543478,0.941332,-0.941332,-0.543478,641.6699,131.3779)"
       x1="98"
       y1="240.92043"
       x2="420"
       y2="240.92043" />
    <linearGradient
       id="linearGradient5491">
      <stop
         style="stop-color:white;stop-opacity:1"
         offset="0"
         id="stop5493" />
      <stop
         style="stop-color:white;stop-opacity:0"
         offset="1"
         id="stop5495" />
    </linearGradient>
    <radialGradient
       inkscape:collect="always"
       xlink:href="#linearGradient3657"
       id="radialGradient5328"
       gradientUnits="userSpaceOnUse"
       gradientTransform="matrix(1,-0.57734,0.12401,0.214795,-28.13556,320.3787)"
       cx="246.35255"
       cy="226.88303"
       fx="246.35255"
       fy="226.88303"
       r="154.3577" />
    <linearGradient
       id="linearGradient5498">
      <stop
         style="stop-color:white;stop-opacity:1"
         offset="0"
         id="stop5500" />
      <stop
         style="stop-color:white;stop-opacity:0"
         offset="1"
         id="stop5502" />
    </linearGradient>
    <radialGradient
       inkscape:collect="always"
       xlink:href="#linearGradient3657"
       id="radialGradient5330"
       gradientUnits="userSpaceOnUse"
       gradientTransform="matrix(-0.57734,-1,0.214795,-0.12401,339.8483,501.3712)"
       cx="246.35255"
       cy="226.88303"
       fx="246.35255"
       fy="226.88303"
       r="154.3577" />
    <linearGradient
       id="linearGradient5505">
      <stop
         style="stop-color:white;stop-opacity:1"
         offset="0"
         id="stop5507" />
      <stop
         style="stop-color:white;stop-opacity:0"
         offset="1"
         id="stop5509" />
    </linearGradient>
    <radialGradient
       inkscape:collect="always"
       xlink:href="#linearGradient12684"
       id="radialGradient5332"
       gradientUnits="userSpaceOnUse"
       cx="156.5"
       cy="148.5"
       fx="156.5"
       fy="148.5"
       r="19.5" />
    <linearGradient
       id="linearGradient12684">
      <stop
         style="stop-color:white;stop-opacity:1"
         offset="0"
         id="stop12686" />
      <stop
         style="stop-color:white;stop-opacity:0.84536082"
         offset="0.34999999"
         id="stop12692" />
      <stop
         style="stop-color:white;stop-opacity:0"
         offset="1"
         id="stop12688" />
    </linearGradient>
    <radialGradient
       inkscape:collect="always"
       xlink:href="#linearGradient12684"
       id="radialGradient5334"
       gradientUnits="userSpaceOnUse"
       cx="156.5"
       cy="148.5"
       fx="156.5"
       fy="148.5"
       r="19.5" />
    <linearGradient
       id="linearGradient5517">
      <stop
         style="stop-color:white;stop-opacity:1"
         offset="0"
         id="stop5519" />
      <stop
         style="stop-color:white;stop-opacity:0.84536082"
         offset="0.34999999"
         id="stop5521" />
      <stop
         style="stop-color:white;stop-opacity:0"
         offset="1"
         id="stop5523" />
    </linearGradient>
    <radialGradient
       inkscape:collect="always"
       xlink:href="#linearGradient12684"
       id="radialGradient5336"
       gradientUnits="userSpaceOnUse"
       cx="156.5"
       cy="148.5"
       fx="156.5"
       fy="148.5"
       r="19.5" />
    <linearGradient
       id="linearGradient5526">
      <stop
         style="stop-color:white;stop-opacity:1"
         offset="0"
         id="stop5528" />
      <stop
         style="stop-color:white;stop-opacity:0.84536082"
         offset="0.34999999"
         id="stop5530" />
      <stop
         style="stop-color:white;stop-opacity:0"
         offset="1"
         id="stop5532" />
    </linearGradient>
    <radialGradient
       inkscape:collect="always"
       xlink:href="#linearGradient12684"
       id="radialGradient5338"
       gradientUnits="userSpaceOnUse"
       cx="156.5"
       cy="148.5"
       fx="156.5"
       fy="148.5"
       r="19.5" />
    <linearGradient
       id="linearGradient5535">
      <stop
         style="stop-color:white;stop-opacity:1"
         offset="0"
         id="stop5537" />
      <stop
         style="stop-color:white;stop-opacity:0.84536082"
         offset="0.34999999"
         id="stop5539" />
      <stop
         style="stop-color:white;stop-opacity:0"
         offset="1"
         id="stop5541" />
    </linearGradient>
    <radialGradient
       inkscape:collect="always"
       xlink:href="#linearGradient12684"
       id="radialGradient5340"
       gradientUnits="userSpaceOnUse"
       cx="156.5"
       cy="148.5"
       fx="156.5"
       fy="148.5"
       r="19.5" />
    <linearGradient
       id="linearGradient5544">
      <stop
         style="stop-color:white;stop-opacity:1"
         offset="0"
         id="stop5546" />
      <stop
         style="stop-color:white;stop-opacity:0.84536082"
         offset="0.34999999"
         id="stop5548" />
      <stop
         style="stop-color:white;stop-opacity:0"
         offset="1"
         id="stop5550" />
    </linearGradient>
    <radialGradient
       inkscape:collect="always"
       xlink:href="#linearGradient12684"
       id="radialGradient5342"
       gradientUnits="userSpaceOnUse"
       cx="156.5"
       cy="148.5"
       fx="156.5"
       fy="148.5"
       r="19.5" />
    <linearGradient
       id="linearGradient5553">
      <stop
         style="stop-color:white;stop-opacity:1"
         offset="0"
         id="stop5555" />
      <stop
         style="stop-color:white;stop-opacity:0.84536082"
         offset="0.34999999"
         id="stop5557" />
      <stop
         style="stop-color:white;stop-opacity:0"
         offset="1"
         id="stop5559" />
    </linearGradient>
    <radialGradient
       inkscape:collect="always"
       xlink:href="#linearGradient12684"
       id="radialGradient5344"
       gradientUnits="userSpaceOnUse"
       cx="156.5"
       cy="148.5"
       fx="156.5"
       fy="148.5"
       r="19.5" />
    <linearGradient
       id="linearGradient5562">
      <stop
         style="stop-color:white;stop-opacity:1"
         offset="0"
         id="stop5564" />
      <stop
         style="stop-color:white;stop-opacity:0.84536082"
         offset="0.34999999"
         id="stop5566" />
      <stop
         style="stop-color:white;stop-opacity:0"
         offset="1"
         id="stop5568" />
    </linearGradient>
    <radialGradient
       inkscape:collect="always"
       xlink:href="#linearGradient12684"
       id="radialGradient5346"
       gradientUnits="userSpaceOnUse"
       cx="156.5"
       cy="148.5"
       fx="156.5"
       fy="148.5"
       r="19.5" />
    <linearGradient
       id="linearGradient5571">
      <stop
         style="stop-color:white;stop-opacity:1"
         offset="0"
         id="stop5573" />
      <stop
         style="stop-color:white;stop-opacity:0.84536082"
         offset="0.34999999"
         id="stop5575" />
      <stop
         style="stop-color:white;stop-opacity:0"
         offset="1"
         id="stop5577" />
    </linearGradient>
    <radialGradient
       inkscape:collect="always"
       xlink:href="#linearGradient12684"
       id="radialGradient5348"
       gradientUnits="userSpaceOnUse"
       cx="156.5"
       cy="148.5"
       fx="156.5"
       fy="148.5"
       r="19.5" />
    <linearGradient
       id="linearGradient5580">
      <stop
         style="stop-color:white;stop-opacity:1"
         offset="0"
         id="stop5582" />
      <stop
         style="stop-color:white;stop-opacity:0.84536082"
         offset="0.34999999"
         id="stop5584" />
      <stop
         style="stop-color:white;stop-opacity:0"
         offset="1"
         id="stop5586" />
    </linearGradient>
    <radialGradient
       inkscape:collect="always"
       xlink:href="#linearGradient12684"
       id="radialGradient5350"
       gradientUnits="userSpaceOnUse"
       cx="156.5"
       cy="148.5"
       fx="156.5"
       fy="148.5"
       r="19.5" />
    <linearGradient
       id="linearGradient5589">
      <stop
         style="stop-color:white;stop-opacity:1"
         offset="0"
         id="stop5591" />
      <stop
         style="stop-color:white;stop-opacity:0.84536082"
         offset="0.34999999"
         id="stop5593" />
      <stop
         style="stop-color:white;stop-opacity:0"
         offset="1"
         id="stop5595" />
    </linearGradient>
    <radialGradient
       inkscape:collect="always"
       xlink:href="#linearGradient12684"
       id="radialGradient5352"
       gradientUnits="userSpaceOnUse"
       cx="156.5"
       cy="148.5"
       fx="156.5"
       fy="148.5"
       r="19.5" />
    <linearGradient
       id="linearGradient5598">
      <stop
         style="stop-color:white;stop-opacity:1"
         offset="0"
         id="stop5600" />
      <stop
         style="stop-color:white;stop-opacity:0.84536082"
         offset="0.34999999"
         id="stop5602" />
      <stop
         style="stop-color:white;stop-opacity:0"
         offset="1"
         id="stop5604" />
    </linearGradient>
    <radialGradient
       inkscape:collect="always"
       xlink:href="#linearGradient12684"
       id="radialGradient5354"
       gradientUnits="userSpaceOnUse"
       cx="156.5"
       cy="148.5"
       fx="156.5"
       fy="148.5"
       r="19.5" />
    <linearGradient
       id="linearGradient5607">
      <stop
         style="stop-color:white;stop-opacity:1"
         offset="0"
         id="stop5609" />
      <stop
         style="stop-color:white;stop-opacity:0.84536082"
         offset="0.34999999"
         id="stop5611" />
      <stop
         style="stop-color:white;stop-opacity:0"
         offset="1"
         id="stop5613" />
    </linearGradient>
    <radialGradient
       inkscape:collect="always"
       xlink:href="#linearGradient12684"
       id="radialGradient5356"
       gradientUnits="userSpaceOnUse"
       cx="156.5"
       cy="148.5"
       fx="156.5"
       fy="148.5"
       r="19.5" />
    <linearGradient
       id="linearGradient5616">
      <stop
         style="stop-color:white;stop-opacity:1"
         offset="0"
         id="stop5618" />
      <stop
         style="stop-color:white;stop-opacity:0.84536082"
         offset="0.34999999"
         id="stop5620" />
      <stop
         style="stop-color:white;stop-opacity:0"
         offset="1"
         id="stop5622" />
    </linearGradient>
    <linearGradient
       inkscape:collect="always"
       xlink:href="#linearGradient3645"
       id="linearGradient5963"
       gradientUnits="userSpaceOnUse"
       x1="60.812256"
       y1="222.16092"
       x2="428.62836"
       y2="222.16092" />
    <radialGradient
       inkscape:collect="always"
       xlink:href="#linearGradient6348"
       id="radialGradient5965"
       gradientUnits="userSpaceOnUse"
       cx="244.72031"
       cy="222.16092"
       fx="244.72031"
       fy="222.16092"
       r="183.90805" />
    <radialGradient
       inkscape:collect="always"
       xlink:href="#linearGradient3657"
       id="radialGradient5967"
       gradientUnits="userSpaceOnUse"
       gradientTransform="matrix(1.353938,0,0,1.353938,-33.88875,-78.63119)"
       cx="49.709621"
       cy="222.16092"
       fx="49.709621"
       fy="222.16092"
       r="183.90805" />
    <radialGradient
       inkscape:collect="always"
       xlink:href="#linearGradient3657"
       id="radialGradient5969"
       gradientUnits="userSpaceOnUse"
       gradientTransform="matrix(1.353938,0,0,1.353938,-33.88875,-78.63119)"
       cx="69.944862"
       cy="222.16092"
       fx="69.944862"
       fy="222.16092"
       r="183.90805" />
    <linearGradient
       inkscape:collect="always"
       xlink:href="#linearGradient3657"
       id="linearGradient5971"
       gradientUnits="userSpaceOnUse"
       gradientTransform="matrix(0.543478,-0.941332,0.941332,0.543478,-156.6701,314.8289)"
       x1="98"
       y1="240.92043"
       x2="420"
       y2="240.92043" />
    <linearGradient
       inkscape:collect="always"
       xlink:href="#linearGradient3657"
       id="linearGradient5973"
       gradientUnits="userSpaceOnUse"
       gradientTransform="matrix(-0.941332,0.543478,0.543478,0.941332,334.2253,-173.0667)"
       x1="98"
       y1="240.92043"
       x2="420"
       y2="240.92043" />
    <linearGradient
       inkscape:collect="always"
       xlink:href="#linearGradient3657"
       id="linearGradient5975"
       gradientUnits="userSpaceOnUse"
       gradientTransform="matrix(0.941332,-0.543478,-0.543478,-0.941332,150.7744,625.2735)"
       x1="98"
       y1="240.92043"
       x2="420"
       y2="240.92043" />
    <linearGradient
       inkscape:collect="always"
       xlink:href="#linearGradient3657"
       id="linearGradient5977"
       gradientUnits="userSpaceOnUse"
       gradientTransform="matrix(-0.543478,0.941332,-0.941332,-0.543478,641.6699,131.3779)"
       x1="98"
       y1="240.92043"
       x2="420"
       y2="240.92043" />
    <radialGradient
       inkscape:collect="always"
       xlink:href="#linearGradient3657"
       id="radialGradient5979"
       gradientUnits="userSpaceOnUse"
       gradientTransform="matrix(1,-0.57734,0.12401,0.214795,-28.13556,320.3787)"
       cx="246.35255"
       cy="226.88303"
       fx="246.35255"
       fy="226.88303"
       r="154.3577" />
    <radialGradient
       inkscape:collect="always"
       xlink:href="#linearGradient3657"
       id="radialGradient5981"
       gradientUnits="userSpaceOnUse"
       gradientTransform="matrix(-0.57734,-1,0.214795,-0.12401,339.8483,501.3712)"
       cx="246.35255"
       cy="226.88303"
       fx="246.35255"
       fy="226.88303"
       r="154.3577" />
    <radialGradient
       inkscape:collect="always"
       xlink:href="#linearGradient12684"
       id="radialGradient5983"
       gradientUnits="userSpaceOnUse"
       cx="156.5"
       cy="148.5"
       fx="156.5"
       fy="148.5"
       r="19.5" />
    <radialGradient
       inkscape:collect="always"
       xlink:href="#linearGradient12684"
       id="radialGradient5985"
       gradientUnits="userSpaceOnUse"
       cx="156.5"
       cy="148.5"
       fx="156.5"
       fy="148.5"
       r="19.5" />
    <radialGradient
       inkscape:collect="always"
       xlink:href="#linearGradient12684"
       id="radialGradient5987"
       gradientUnits="userSpaceOnUse"
       cx="156.5"
       cy="148.5"
       fx="156.5"
       fy="148.5"
       r="19.5" />
    <radialGradient
       inkscape:collect="always"
       xlink:href="#linearGradient12684"
       id="radialGradient5989"
       gradientUnits="userSpaceOnUse"
       cx="156.5"
       cy="148.5"
       fx="156.5"
       fy="148.5"
       r="19.5" />
    <radialGradient
       inkscape:collect="always"
       xlink:href="#linearGradient12684"
       id="radialGradient5991"
       gradientUnits="userSpaceOnUse"
       cx="156.5"
       cy="148.5"
       fx="156.5"
       fy="148.5"
       r="19.5" />
    <radialGradient
       inkscape:collect="always"
       xlink:href="#linearGradient12684"
       id="radialGradient5993"
       gradientUnits="userSpaceOnUse"
       cx="156.5"
       cy="148.5"
       fx="156.5"
       fy="148.5"
       r="19.5" />
    <radialGradient
       inkscape:collect="always"
       xlink:href="#linearGradient12684"
       id="radialGradient5995"
       gradientUnits="userSpaceOnUse"
       cx="156.5"
       cy="148.5"
       fx="156.5"
       fy="148.5"
       r="19.5" />
    <radialGradient
       inkscape:collect="always"
       xlink:href="#linearGradient12684"
       id="radialGradient5997"
       gradientUnits="userSpaceOnUse"
       cx="156.5"
       cy="148.5"
       fx="156.5"
       fy="148.5"
       r="19.5" />
    <radialGradient
       inkscape:collect="always"
       xlink:href="#linearGradient12684"
       id="radialGradient5999"
       gradientUnits="userSpaceOnUse"
       cx="156.5"
       cy="148.5"
       fx="156.5"
       fy="148.5"
       r="19.5" />
    <radialGradient
       inkscape:collect="always"
       xlink:href="#linearGradient12684"
       id="radialGradient6001"
       gradientUnits="userSpaceOnUse"
       cx="156.5"
       cy="148.5"
       fx="156.5"
       fy="148.5"
       r="19.5" />
    <radialGradient
       inkscape:collect="always"
       xlink:href="#linearGradient12684"
       id="radialGradient6003"
       gradientUnits="userSpaceOnUse"
       cx="156.5"
       cy="148.5"
       fx="156.5"
       fy="148.5"
       r="19.5" />
    <radialGradient
       inkscape:collect="always"
       xlink:href="#linearGradient12684"
       id="radialGradient6005"
       gradientUnits="userSpaceOnUse"
       cx="156.5"
       cy="148.5"
       fx="156.5"
       fy="148.5"
       r="19.5" />
    <radialGradient
       inkscape:collect="always"
       xlink:href="#linearGradient12684"
       id="radialGradient6007"
       gradientUnits="userSpaceOnUse"
       cx="156.5"
       cy="148.5"
       fx="156.5"
       fy="148.5"
       r="19.5" />
  </defs>
  <sodipodi:namedview
     id="base"
     pagecolor="#ffffff"
     bordercolor="#666666"
     borderopacity="1.0"
     inkscape:pageopacity="0.0"
     inkscape:pageshadow="2"
     inkscape:zoom="4"
     inkscape:cx="75.434492"
     inkscape:cy="26.073375"
     inkscape:document-units="px"
     inkscape:current-layer="layer1"
     showgrid="false"
     inkscape:window-width="1280"
     inkscape:window-height="724"
     inkscape:window-x="0"
     inkscape:window-y="25"
     inkscape:window-maximized="1" />
  <metadata
     id="metadata5657">
    <rdf:RDF>
      <cc:Work
         rdf:about="">
        <dc:format>image/svg+xml</dc:format>
        <dc:type
           rdf:resource="http://purl.org/dc/dcmitype/StillImage" />
        <dc:title></dc:title>
      </cc:Work>
    </rdf:RDF>
  </metadata>
  <g
     inkscape:label="Ebene 1"
     inkscape:groupmode="layer"
     id="layer1"
     transform="translate(0,-1007.3622)">
    <g
       id="g5933"
       transform="translate(0.57142917,0.07145886)">
      <path
         inkscape:connector-curvature="0"
         id="path2371"
         style="font-size:45.28312683px;font-style:normal;font-weight:normal;text-align:justify;text-anchor:start;fill:#73d216;fill-opacity:1;stroke:none;font-family:LucidaGrande"
         d="m 11.95318,1048.6488 4.34617,0 0,-24 -4.34617,0 0,24 z m 29.75298,-0.7241 0,-3.7589 c -2.14293,1.0264 -4.18036,1.5395 -6.11228,1.5395 -2.44603,0 -4.34803,-0.936 -5.70599,-2.8081 -1.20782,-1.6601 -1.81172,-3.7432 -1.81172,-6.2491 0,-2.5354 0.5735,-4.6483 1.72051,-6.3389 1.35889,-1.9015 3.24568,-2.8523 5.66039,-2.8523 1.54038,0 3.53312,0.3621 5.97823,1.0862 l 0,-3.6677 c -2.38523,-0.5131 -4.46826,-0.7697 -6.24909,-0.7697 -3.86481,0 -6.83872,1.1019 -8.92175,3.3056 -2.08303,2.2341 -3.12455,5.2679 -3.12455,9.1014 0,3.5018 0.99637,6.4453 2.98912,8.8305 2.08303,2.5658 4.8455,3.8487 8.28744,3.8487 2.1125,0 4.54239,-0.4224 7.28969,-1.2672 l 0,0 z m 24.123,-0.046 0,-3.441 c -2.65609,0.9655 -4.88975,1.4482 -6.70099,1.4482 -4.95101,0 -7.74343,-2.8527 -8.37727,-8.5583 l 15.16946,0 0,-1.3584 c 0.0903,-3.6833 -0.69467,-6.6116 -2.35481,-8.7849 -1.56989,-2.0526 -3.81875,-3.079 -6.74659,-3.079 -3.29084,0 -5.90223,1.2677 -7.83416,3.8031 -1.78178,2.3852 -2.67266,5.2532 -2.67266,8.6039 0,3.6529 1.07191,6.672 3.21575,9.0572 2.23412,2.4147 5.16243,3.622 8.78494,3.622 2.02221,0 4.52765,-0.4376 7.51633,-1.3128 l 0,0 z M 50.97754,1034.068 c 0.36206,-4.4682 2.21845,-6.7023 5.56918,-6.7023 3.35071,0 5.02607,2.2341 5.02609,6.7023 l -10.59527,0 z" />
      <path
         inkscape:connector-curvature="0"
         id="path2361"
         style="font-size:45.28312683px;font-style:normal;font-weight:normal;text-align:justify;text-anchor:start;fill:#73a0d0;fill-opacity:1;stroke:none;font-family:LucidaGrande"
         d="m 88.86319,1048.6488 4.34617,0 0,-34.9131 -4.34617,0 0,13.63 c -1.90248,-2.1733 -4.27249,-3.26 -7.11004,-3.26 -3.41154,0 -6.03812,1.4188 -7.87977,4.2564 -1.56988,2.5059 -2.35481,5.5097 -2.35481,9.0115 0,3.3204 0.70985,6.0372 2.12955,8.1507 1.62976,2.4451 4.02971,3.6676 7.19987,3.6676 3.5322,0 6.20393,-1.6906 8.0152,-5.0717 l 0,4.5286 z m 0,-18.294 0,11.0486 c -2.35483,2.6569 -4.72484,3.9854 -7.11004,3.9854 -3.7128,0 -5.56919,-2.8076 -5.56918,-8.4228 -1e-5,-2.657 0.39246,-4.7704 1.1774,-6.3403 1.08619,-2.1733 2.77675,-3.26 5.07169,-3.26 2.02221,0 4.16559,0.9964 6.43013,2.9891 l 0,0 z m 22.455,18.8371 c 3.7137,0 6.61206,-1.1774 8.69512,-3.5322 1.93191,-2.2037 2.89788,-5.2223 2.89791,-9.0558 -3e-5,-3.7441 -0.966,-6.718 -2.89791,-8.9217 -2.02317,-2.3843 -4.87594,-3.5765 -8.55831,-3.5765 -3.68331,0 -6.53608,1.1922 -8.5583,3.5765 -1.93286,2.2949 -2.89929,5.2836 -2.89929,8.9659 0,3.6529 0.95123,6.6269 2.85369,8.9218 2.05262,2.4147 4.87498,3.622 8.46709,3.622 l 0,0 z m 0.0456,-3.26 c -2.38431,0 -4.16515,-0.9963 -5.34255,-2.9891 -0.90563,-1.6297 -1.35844,-3.728 -1.35844,-6.2947 0,-6.1883 2.26406,-9.2824 6.79219,-9.2824 4.55852,0 6.83778,3.0794 6.8378,9.2382 -2e-5,6.2187 -2.30969,9.328 -6.929,9.328 l 0,0 z m 23.28831,2.7169 4.34755,0 9.50907,-24 -4.07531,0 -7.3809,18.6561 -6.97323,-18.6561 -4.34755,0 8.92037,24 z m 36.07116,-0.7697 0,-3.441 c -2.65609,0.9655 -4.88975,1.4482 -6.70099,1.4482 -4.95101,0 -7.74343,-2.8527 -8.37726,-8.5583 l 15.16946,0 0,-1.3584 c 0.0903,-3.6833 -0.69468,-6.6116 -2.35482,-8.7849 -1.56989,-2.0526 -3.81875,-3.079 -6.74658,-3.079 -3.29085,0 -5.90224,1.2677 -7.83417,3.8031 -1.78178,2.3852 -2.67266,5.2532 -2.67266,8.6039 0,3.6529 1.07192,6.672 3.21576,9.0572 2.23411,2.4147 5.16242,3.622 8.78493,3.622 2.02221,0 4.52765,-0.4376 7.51633,-1.3128 l 0,0 z m -14.85161,-13.811 c 0.36206,-4.4683 2.21845,-6.7024 5.56919,-6.7024 3.3507,0 5.02606,2.2341 5.02608,6.7024 l -10.59527,0 z" />
      <g
         id="g17886"
         transform="matrix(0.06052857,0,0,0.06052857,6.24932,1007.9503)">
        <path
           inkscape:connector-curvature="0"
           id="path17888"
           style="fill:#4e9a06;fill-opacity:1;stroke:#4e9a06;stroke-width:7.61594343;stroke-linecap:butt;stroke-linejoin:round;stroke-miterlimit:4;stroke-opacity:1;stroke-dasharray:none;stroke-dashoffset:0"
           transform="matrix(0,-0.525214,0.525214,0,11.42181,267.4213)"
           d="m 428.62836,222.16092 a 183.90805,183.90805 0 1 1 -367.816104,0 183.90805,183.90805 0 1 1 367.816104,0 z" />
        <path
           inkscape:connector-curvature="0"
           id="path17890"
           style="fill:url(#linearGradient5963);fill-opacity:1;stroke:none"
           transform="matrix(0,-0.525214,0.525214,0,11.42181,267.4213)"
           d="m 428.62836,222.16092 a 183.90805,183.90805 0 1 1 -367.816104,0 183.90805,183.90805 0 1 1 367.816104,0 z" />
        <path
           inkscape:connector-curvature="0"
           id="path17892"
           style="fill:url(#radialGradient5965);fill-opacity:1;stroke:none"
           transform="matrix(0,-0.525214,0.525214,0,11.42181,267.4213)"
           d="m 428.62836,222.16092 a 183.90805,183.90805 0 1 1 -367.816104,0 183.90805,183.90805 0 1 1 367.816104,0 z" />
        <path
           inkscape:connector-curvature="0"
           id="path17894"
           style="fill:url(#radialGradient5967);fill-opacity:1;stroke:none"
           transform="matrix(0,0.382405,0.382405,0,43.14837,21.00481)"
           d="m 428.62836,222.16092 a 183.90805,183.90805 0 1 1 -367.816104,0 183.90805,183.90805 0 1 1 367.816104,0 z" />
        <path
           inkscape:connector-curvature="0"
           id="path17896"
           style="fill:url(#radialGradient5969);fill-opacity:1;stroke:none"
           transform="matrix(0,-0.306725,0.412392,0,36.48655,251.3615)"
           d="m 428.62836,222.16092 a 183.90805,183.90805 0 1 1 -367.816104,0 183.90805,183.90805 0 1 1 367.816104,0 z" />
        <g
           id="g17898"
           style="opacity:0.5"
           transform="matrix(0.525214,0,0,0.525214,-0.426697,22.2088)">
          <path
             inkscape:connector-curvature="0"
             id="path17900"
             style="fill:url(#linearGradient5971);fill-opacity:1;fill-rule:evenodd;stroke:none"
             d="m 201.58219,398.66524 c 0,0 -175.98576,-177.96619 32.57947,-358.777143 C -1.634599,220.03851 202.12567,397.72391 201.58219,398.66524 z" />
          <path
             inkscape:connector-curvature="0"
             id="path17902"
             style="fill:url(#linearGradient5973);fill-opacity:1;fill-rule:evenodd;stroke:none"
             d="m 418.06183,185.18557 c 0,0 -177.96626,-175.9856903 -358.777135,32.57961 C 239.43502,-18.031148 417.12049,185.72905 418.06183,185.18557 z" />
          <path
             inkscape:connector-curvature="0"
             id="path17904"
             style="fill:url(#linearGradient5975);fill-opacity:1;fill-rule:evenodd;stroke:none"
             d="m 66.93794,267.02123 c 0,0 177.96626,175.98569 358.77713,-32.57961 C 245.56475,470.23795 67.879272,266.47776 66.93794,267.02123 z" />
          <path
             inkscape:connector-curvature="0"
             id="path17906"
             style="fill:url(#linearGradient5977);fill-opacity:1;fill-rule:evenodd;stroke:none"
             d="m 283.41758,47.541558 c 0,0 175.98575,177.966182 -32.57947,358.777142 C 486.63436,226.16829 282.8741,48.482895 283.41758,47.541558 z" />
          <path
             inkscape:connector-curvature="0"
             id="path17908"
             style="fill:url(#radialGradient5979);fill-opacity:1;fill-rule:evenodd;stroke:none"
             d="M 92,316 C 92,316 262.42047,243.53212 400.71024,137.76606 239,206 91,316 92,316 z" />
          <path
             inkscape:connector-curvature="0"
             id="path17910"
             style="fill:url(#radialGradient5981);fill-opacity:1;fill-rule:evenodd;stroke:none"
             d="m 335.46957,381.23563 c 0,0 -72.46788,-170.42047 -178.23394,-308.710239 68.23394,161.710239 178.23394,309.710239 178.23394,308.710239 z" />
        </g>
        <path
           inkscape:connector-curvature="0"
           id="path17912"
           style="fill:url(#radialGradient5983);fill-opacity:1;stroke:none"
           transform="matrix(0.983093,0,0,0.983093,-24.81549,-4.294319)"
           d="m 176,148.5 a 19.5,19.5 0 1 1 -39,0 19.5,19.5 0 1 1 39,0 z" />
        <path
           inkscape:connector-curvature="0"
           id="path17914"
           style="fill:url(#radialGradient5985);fill-opacity:1;stroke:none"
           transform="matrix(0.417478,0,0,0.417478,112.5483,29.80421)"
           d="m 176,148.5 a 19.5,19.5 0 1 1 -39,0 19.5,19.5 0 1 1 39,0 z" />
        <path
           inkscape:connector-curvature="0"
           id="path17916"
           style="fill:url(#radialGradient5987);fill-opacity:1;stroke:none"
           transform="matrix(0.255874,0,0,0.255874,157.2722,63.78154)"
           d="m 176,148.5 a 19.5,19.5 0 1 1 -39,0 19.5,19.5 0 1 1 39,0 z" />
        <path
           inkscape:connector-curvature="0"
           id="path17918"
           style="fill:url(#radialGradient5989);fill-opacity:1;stroke:none"
           transform="matrix(0.525214,0,0,0.525214,15.85494,9.603656)"
           d="m 176,148.5 a 19.5,19.5 0 1 1 -39,0 19.5,19.5 0 1 1 39,0 z" />
        <path
           inkscape:connector-curvature="0"
           id="path17920"
           style="fill:url(#radialGradient5991);fill-opacity:1;stroke:none"
           transform="matrix(0.525214,0,0,0.525214,100.9397,30.61223)"
           d="m 176,148.5 a 19.5,19.5 0 1 1 -39,0 19.5,19.5 0 1 1 39,0 z" />
        <path
           inkscape:connector-curvature="0"
           id="path17922"
           style="fill:url(#radialGradient5993);fill-opacity:1;stroke:none"
           transform="matrix(0.525214,0,0,0.525214,76.2546,115.6969)"
           d="m 176,148.5 a 19.5,19.5 0 1 1 -39,0 19.5,19.5 0 1 1 39,0 z" />
        <path
           inkscape:connector-curvature="0"
           id="path17924"
           style="fill:url(#radialGradient5995);fill-opacity:1;stroke:none"
           transform="matrix(0.525214,0,0,0.525214,-10.93098,96.264)"
           d="m 176,148.5 a 19.5,19.5 0 1 1 -39,0 19.5,19.5 0 1 1 39,0 z" />
        <path
           inkscape:connector-curvature="0"
           id="path17926"
           style="fill:url(#radialGradient5997);fill-opacity:1;stroke:none"
           transform="matrix(0.417478,0,0,0.417478,109.9222,127.494)"
           d="m 176,148.5 a 19.5,19.5 0 1 1 -39,0 19.5,19.5 0 1 1 39,0 z" />
        <path
           inkscape:connector-curvature="0"
           id="path17928"
           style="fill:url(#radialGradient5999);fill-opacity:1;stroke:none"
           transform="matrix(0.255874,0,0,0.255874,123.1333,167.7739)"
           d="m 176,148.5 a 19.5,19.5 0 1 1 -39,0 19.5,19.5 0 1 1 39,0 z" />
        <path
           inkscape:connector-curvature="0"
           id="path17930"
           style="fill:url(#radialGradient6001);fill-opacity:1;stroke:none"
           transform="matrix(0.417478,0,0,0.417478,13.28276,129.5949)"
           d="m 176,148.5 a 19.5,19.5 0 1 1 -39,0 19.5,19.5 0 1 1 39,0 z" />
        <path
           inkscape:connector-curvature="0"
           id="path17932"
           style="fill:url(#radialGradient6003);fill-opacity:1;stroke:none"
           transform="matrix(0.417478,0,0,0.417478,13.28276,31.90504)"
           d="m 176,148.5 a 19.5,19.5 0 1 1 -39,0 19.5,19.5 0 1 1 39,0 z" />
        <path
           inkscape:connector-curvature="0"
           id="path17934"
           style="fill:url(#radialGradient6005);fill-opacity:1;stroke:none"
           transform="matrix(0.255874,0,0,0.255874,19.66611,143.614)"
           d="m 176,148.5 a 19.5,19.5 0 1 1 -39,0 19.5,19.5 0 1 1 39,0 z" />
        <path
           inkscape:connector-curvature="0"
           id="path17936"
           style="fill:url(#radialGradient6007);fill-opacity:1;stroke:none"
           transform="matrix(0.255874,0,0,0.255874,50.65376,36.99558)"
           d="m 176,148.5 a 19.5,19.5 0 1 1 -39,0 19.5,19.5 0 1 1 39,0 z" />
      </g>
    </g>
  </g>
</svg>
