/* XPM */
static char * makehuman_xpm[] = {
"32 32 126 2",
"  	c #1F2749",
". 	c #1F274C",
"+ 	c #212A51",
"@ 	c #232B4E",
"# 	c #232B51",
"$ 	c #232C4F",
"% 	c #252E52",
"& 	c #262E54",
"* 	c #283051",
"= 	c #2A3149",
"- 	c #2B3354",
"; 	c #2B3357",
"> 	c #2D3558",
", 	c #31384B",
"' 	c #333A5C",
") 	c #343B5C",
"! 	c #3B4048",
"~ 	c #3F4346",
"{ 	c #434745",
"] 	c #404663",
"^ 	c #414760",
"/ 	c #404763",
"( 	c #424965",
"_ 	c #444A66",
": 	c #494F69",
"< 	c #52533F",
"[ 	c #4D536B",
"} 	c #4E546C",
"| 	c #595D70",
"1 	c #595E73",
"2 	c #646239",
"3 	c #5D6175",
"4 	c #696637",
"5 	c #6A6737",
"6 	c #606477",
"7 	c #616678",
"8 	c #646774",
"9 	c #666875",
"0 	c #686C7C",
"a 	c #696C7C",
"b 	c #78712B",
"c 	c #6C6F7E",
"d 	c #7D7630",
"e 	c #707381",
"f 	c #877903",
"g 	c #717481",
"h 	c #74767F",
"i 	c #737682",
"j 	c #827B2E",
"k 	c #7B7D83",
"l 	c #7C7E87",
"m 	c #7B7E8B",
"n 	c #8C832A",
"o 	c #82848B",
"p 	c #938928",
"q 	c #86878D",
"r 	c #888A8F",
"s 	c #898A8D",
"t 	c #898A90",
"u 	c #9B9025",
"v 	c #8C8C8C",
"w 	c #8B8D95",
"x 	c #8E8F91",
"y 	c #A19523",
"z 	c #A39622",
"A 	c #939496",
"B 	c #A99B20",
"C 	c #959697",
"D 	c #969697",
"E 	c #979798",
"F 	c #989999",
"G 	c #999999",
"H 	c #AEA01E",
"I 	c #9B9B9B",
"J 	c #9C9C9C",
"K 	c #B4A41C",
"L 	c #B7A614",
"M 	c #A0A0A0",
"N 	c #B9A81A",
"O 	c #A2A2A2",
"P 	c #A6A6A6",
"Q 	c #C1AF17",
"R 	c #C2B017",
"S 	c #AAAAAA",
"T 	c #ABABAB",
"U 	c #ADADAD",
"V 	c #B3B3B3",
"W 	c #B6B6B6",
"X 	c #BABABA",
"Y 	c #BCBCBC",
"Z 	c #BFBFBF",
"` 	c #E3CA05",
" .	c #E3CB0B",
"..	c #E4CC0B",
"+.	c #E4CD0A",
"@.	c #E7CE05",
"#.	c #C5C5C5",
"$.	c #E9D009",
"%.	c #C9C9C9",
"&.	c #ECD306",
"*.	c #EED406",
"=.	c #EED407",
"-.	c #CBCBCB",
";.	c #F2D805",
">.	c #D3D3D3",
",.	c #D5D5D5",
"'.	c #D9D9D9",
").	c #DADADA",
"!.	c #DBDBDB",
"~.	c #E1E1E1",
"{.	c #E3E3E3",
"].	c #E7E7E7",
"^.	c #EAEAEA",
"/.	c #EDEDED",
"(.	c #EEEEEE",
"_.	c #EFEFEF",
":.	c #F0F0F0",
"<.	c #F1F1F1",
"[.	c #F2F2F2",
"}.	c #F4F4F4",
"|.	c #F7F7F7",
"1.	c #F9F9F9",
"2.	c #FBFBFB",
"3.	c #FDFDFD",
"4.	c #FEFEFE",
"5.	c #FFFFFF",
"5.5.5.5.5.5.5.5.5.5.5.5.5.5.5.5.5.5.5.5.5.5.5.5.5.5.5.5.5.5.5.5.",
"5.5.5.5.5.5.5.5.5.5.5.5.5.5.5.5.5.5.5.5.5.5.5.5.5.5.5.5.5.5.5.5.",
"5.5.5.5.5.5.5.5.5.5.5.5.5.5.5.5.5.5.5.5.5.5.5.5.5.5.5.5.5.5.5.5.",
"5.5.5.5.5.5.5.5.5.5.5.5.5.5.5.5.5.5.5.5.5.5.5.5.5.5.5.5.5.5.5.5.",
"5.5.5.5.5.5.5.5.5.5.5.5.5.5.5.).M G G G G G T ^.5.5.5.5.5.5.5.5.",
"5.5.5.5.5.5.5.5.5.5.5.5.5.X G G G G G G G G G G G ,.5.5.5.5.5.5.",
"5.5.5.5.5.5.5.5.5.5.5.<.G G G G G G G G       ] E G I 5.5.5.5.5.",
"5.5.5.5.5.5.5.5.5.5.~.G G G G G G G   / Q ;.;.  5 r G G 2.5.5.5.",
"5.5.5.5.5.5.5.5.5./.G G G G G G G   [  .;.;.;.;.  ! G G G 5.5.5.",
"5.5.5.5.5.5.5.5.5.G G G G G G G   l N ;.;.;.;.;.;.$.o G G I 5.5.",
"5.5.5.5.5.5.5.5.S G G G G G G G   < ;.;.;.;.;.;.;.  c G G G '.5.",
"5.5.5.5.5.5.5.5.G G G G G G G   ' ;.;.;.;.;.;.;.;.  e G G G G 5.",
"5.5.5.5.5.5.5.Z G G G G G G G A y ;.;.;.;.;.@.v f R C G G G G _.",
"5.5.5.5.5.5.5.G G G G G G G   > ;.;.;.;.;.;.`     & G G G G G V ",
"5.5.5.5.5.5.5.G G G G G G G G p ;.;.;.B +.;.    _ G G G G G G G ",
"5.5.5.5.5.5.5.G G G G G G   } ;.;.;.            4 n q G G G G G ",
"5.5.{.G }.5.      8 G G s   , ;.;.;.  1 G   { ;.;.  3 G G G G G ",
"5.    + w         ^       * H ;.;.;.    0 u ;.;.;.  a G G G G G ",
"5.      m                 . ;.;.;.    | K ;.;.;.;...t G G G G G ",
"                          . ;.;.      @ ;.;.;.;.;.z G G G G G U ",
"                          . ;.;.;.    = ;.=.;.;.  2 G G G G G ].",
"                          . ;.;.    + L   # ;.;.  ~ G G G G G 5.",
"                  +                 $     + ;.;.;.j G G G G %.5.",
"        -       + x               + *.    ) ;.;.;.  ; G G G 5.5.",
"      + G       9 J             + &.  (   7 ;.;.;.;.  % D 1.5.5.",
"      h :.5.  k G 5.#.        b ;.  : G G   d ;.;.    i (.5.5.5.",
"4.G G P 5.5.5.>.4.5.5.!.G G     6 F G G G G     g G G |.5.5.5.5.",
"5.[.).5.5.5.5.5.5.5.5.5.3.O G G G G G G G G G G G W 5.5.5.5.5.5.",
"5.5.5.5.5.5.5.5.5.5.5.5.5.5.3.Y G G G G G G G -.5.5.5.5.5.5.5.5.",
"5.5.5.5.5.5.5.5.5.5.5.5.5.5.5.5.5.5.5.5.5.5.5.5.5.5.5.5.5.5.5.5.",
"5.5.5.5.5.5.5.5.5.5.5.5.5.5.5.5.5.5.5.5.5.5.5.5.5.5.5.5.5.5.5.5.",
"5.5.5.5.5.5.5.5.5.5.5.5.5.5.5.5.5.5.5.5.5.5.5.5.5.5.5.5.5.5.5.  "};
