/* XPM */
static char *glabels[] = {
/* columns rows colors chars-per-pixel */
"32 32 90 1",
"  c black",
". c #0D0D0D",
"X c #1C1C1A",
"o c #34332A",
"O c #343434",
"+ c #3F3E32",
"@ c #3C3C3C",
"# c #49473B",
"$ c #484745",
"% c #4F4F4E",
"& c #52524F",
"* c #555555",
"= c #676555",
"- c #747474",
"; c #787878",
": c #807E6B",
"> c #868370",
", c #8F8C77",
"< c #8E8D83",
"1 c #959494",
"2 c #A5A285",
"3 c #A4A28B",
"4 c #A5A391",
"5 c #A5A49F",
"6 c #AEAA93",
"7 c #B6B396",
"8 c #B5B29C",
"9 c #BAB69D",
"0 c #AAAAAA",
"q c #B1B0A4",
"w c #B8B5A2",
"e c #B8B7A8",
"r c #BEBCA6",
"t c #BDBCAB",
"y c #B8B7B0",
"u c #BEBDB4",
"i c #BABABA",
"p c #C4C2AC",
"a c #CAC6AC",
"s c #CCC9AD",
"d c #C3C2B4",
"f c #C2C1BA",
"g c #C9C6B1",
"h c #C8C7BD",
"j c #CCCAB4",
"k c #CCCABC",
"l c #D1CDAD",
"z c #D1CEB4",
"x c #D0CEBC",
"c c #D6D2B3",
"v c #D5D2BC",
"b c #D9D5B2",
"n c #DDD9B6",
"m c #DCD9BD",
"M c #E2DEBB",
"N c #E4E0BE",
"B c #CAC9C1",
"V c #D0CFC3",
"C c #D5D3C4",
"Z c #D4D3CA",
"A c #D9D7CC",
"S c #DCDAC5",
"D c #DCDACB",
"F c #D7D6D3",
"G c #DDDCD5",
"H c #DADADA",
"J c #E2DFC3",
"K c #E1DFCE",
"L c #E6E2C4",
"P c #E5E2CA",
"I c #E9E6CB",
"U c #EBE8CF",
"Y c #E4E3D5",
"T c #E6E4DC",
"R c #E9E6D2",
"E c #E8E7D8",
"W c #ECE9D3",
"Q c #ECEADA",
"! c #F0EEDD",
"~ c #E5E5E3",
"^ c #EBEAE2",
"/ c #EBEBEB",
"( c #F3F1E4",
") c #F6F5EB",
"_ c #F8F7EF",
"` c #F5F5F5",
"' c #F8F7F0",
"] c #FAF9F4",
"[ c #FBFBFA",
"{ c None",
/* pixels */
"{{{{{{{{{{{{{{{{{{{{{{{{{{{{{{{{",
"{{{{{{{{{{{{{{{{{{{{{{{{{{{{{{{{",
"{{{{{{{{{{{{{{{{{{{{{{{{{{{{{{{{",
"{{{{{{{{{{{{{{{{{{{{{{{{{{{{{{{{",
"{{{{{{{{{{{{{{{{{{{{{{{{{{{{{{{{",
"{{{{{{{{{{{{{{{{{{{{{{{{{{{{{{{{",
"{{{{{{{{{{{{{{{{{{{{{{{{{{{{{{{{",
"{{{                      {{{{{{{",
"  O%&&&*&&&&&&&&&&&&&*..   {{{{{",
" OF())(((((!!!!QQWWWIR@-    {{{{",
" 1')^QQ(QKWQSSSPILLLNN*~-.   {{{",
" 5''GufuAddkeggwppjmmN*`H;    {{",
" 5''TBAAVdkkCvgjpvsLNM%[`~-.   {",
" 5]''))(((!!QQWWIIILLLOH[/F-    ",
" 5]]TyZfVkA!guSjvrmLS6>$1001O   ",
" 5]]TfZZCAC(kgvkj4gzLa6,>=#oX   ",
" 5[]]')))(((!QQWWRIIILLNNl72+   ",
" 5[]^G_)TQYY!CKSWWPvmzzcccnb<   ",
" 5[[^ffFhuhd!kekPIPzz8939lMN5   ",
" 5[]`~^Q/QQY(ERWPRRPLSmvcnNn5   ",
" ;[[[]]'))(((!!!QQWWUILLLNNN;   ",
" Xi)''''_)__)))()((((((((!EqX   ",
"                                ",
"                                ",
"                                ",
"{                               ",
"{{{{{{{{{{{{{{{{{{{{{{{{{{{{{{{{",
"{{{{{{{{{{{{{{{{{{{{{{{{{{{{{{{{",
"{{{{{{{{{{{{{{{{{{{{{{{{{{{{{{{{",
"{{{{{{{{{{{{{{{{{{{{{{{{{{{{{{{{",
"{{{{{{{{{{{{{{{{{{{{{{{{{{{{{{{{",
"{{{{{{{{{{{{{{{{{{{{{{{{{{{{{{{{"
};
