/* XPM */
static char * scribus_cvs_xpm[] = {
"32 32 563 2",
"  	c None",
". 	c #3A89BB",
"+ 	c #5297C4",
"@ 	c #6CA7CD",
"# 	c #76ADD1",
"$ 	c #78AFD1",
"% 	c #6DA7CE",
"& 	c #5398C4",
"* 	c #3989BB",
"= 	c #3685B9",
"- 	c #569AC5",
"; 	c #88B8D7",
"> 	c #B2D1E5",
", 	c #C4DCEB",
"' 	c #C5DCEC",
") 	c #C5DDEC",
"! 	c #C6DDEC",
"~ 	c #87B7D6",
"{ 	c #5E98BD",
"] 	c #727D85",
"^ 	c #3988BB",
"/ 	c #79AED1",
"( 	c #A7CBE1",
"_ 	c #B6D4E6",
": 	c #B7D4E6",
"< 	c #B0C7D6",
"[ 	c #B3B2B3",
"} 	c #969798",
"| 	c #2379AF",
"1 	c #2F83B7",
"2 	c #86B7D6",
"3 	c #A2C8E0",
"4 	c #A3C9E0",
"5 	c #A4C9E0",
"6 	c #A5C9E0",
"7 	c #A5C9E1",
"8 	c #B5C4CE",
"9 	c #D0CFCF",
"0 	c #A7A7A6",
"a 	c #343738",
"b 	c #2679AE",
"c 	c #2A7FB5",
"d 	c #63A3CA",
"e 	c #92BFDA",
"f 	c #93BFDA",
"g 	c #92BEDA",
"h 	c #92BED9",
"i 	c #B2BABF",
"j 	c #C7C6C5",
"k 	c #A1A1A0",
"l 	c #666767",
"m 	c #2D3032",
"n 	c #257BB2",
"o 	c #3A8ABC",
"p 	c #75ADD0",
"q 	c #84B6D5",
"r 	c #83B6D5",
"s 	c #83B5D4",
"t 	c #83B5D5",
"u 	c #86B4D0",
"v 	c #AEB1B3",
"w 	c #B4B4B3",
"x 	c #8A8A8A",
"y 	c #787878",
"z 	c #424242",
"A 	c #495155",
"B 	c #2174A8",
"C 	c #257DB4",
"D 	c #418EBF",
"E 	c #6CA8CD",
"F 	c #71ABCE",
"G 	c #72ABCF",
"H 	c #71AACE",
"I 	c #71ABCF",
"J 	c #7FA5BE",
"K 	c #ACADAE",
"L 	c #909090",
"M 	c #737373",
"N 	c #707070",
"O 	c #585859",
"P 	c #406982",
"Q 	c #267AAF",
"R 	c #206EA0",
"S 	c #2275A9",
"T 	c #2479AF",
"U 	c #3C89BB",
"V 	c #5D9EC7",
"W 	c #62A1C9",
"X 	c #62A2C9",
"Y 	c #63A2C9",
"Z 	c #7998AD",
"` 	c #A6A6A6",
" .	c #717070",
"..	c #636363",
"+.	c #656565",
"@.	c #56636B",
"#.	c #3078A6",
"$.	c #287CB3",
"%.	c #2374A8",
"&.	c #327AA9",
"*.	c #2778AC",
"=.	c #2477AC",
"-.	c #307FB2",
";.	c #4A91BE",
">.	c #5297C2",
",.	c #5197C3",
"'.	c #5096C3",
").	c #5298C4",
"!.	c #5197C4",
"~.	c #5397C2",
"{.	c #798F9F",
"].	c #8E8C8A",
"^.	c #5A5958",
"/.	c #545454",
"(.	c #595B5C",
"_.	c #426E8A",
":.	c #287DB3",
"<.	c #297FB6",
"[.	c #2375AA",
"}.	c #407BA3",
"|.	c #528FB8",
"1.	c #4288B5",
"2.	c #2B7AAC",
"3.	c #2678AB",
"4.	c #3380B1",
"5.	c #3F8AB9",
"6.	c #3F8BBB",
"7.	c #408BBC",
"8.	c #3F8BBC",
"9.	c #3E8BBC",
"0.	c #408CBD",
"a.	c #418DBE",
"b.	c #418DBD",
"c.	c #3E8CBD",
"d.	c #408DBE",
"e.	c #458CB9",
"f.	c #8A9C9E",
"g.	c #B8AD8C",
"h.	c #6F634B",
"i.	c #4E4C49",
"j.	c #485A66",
"k.	c #2D78A8",
"l.	c #297FB7",
"m.	c #226A98",
"n.	c #427FA7",
"o.	c #5994BC",
"p.	c #5995BD",
"q.	c #498CB8",
"r.	c #2D7BAD",
"s.	c #2476AA",
"t.	c #2D7CAE",
"u.	c #2F7FB2",
"v.	c #2F81B5",
"w.	c #3082B6",
"x.	c #2E81B6",
"y.	c #3083B7",
"z.	c #2F82B7",
"A.	c #3183B8",
"B.	c #3284B8",
"C.	c #3184B8",
"D.	c #3584B5",
"E.	c #AFC1B2",
"F.	c #D3BD84",
"G.	c #907138",
"H.	c #595040",
"I.	c #366B8C",
"J.	c #287EB6",
"K.	c #297EB5",
"L.	c #236B9A",
"M.	c #1D557A",
"N.	c #1B5376",
"O.	c #4783AB",
"P.	c #5C96BC",
"Q.	c #5C96BE",
"R.	c #5E98BF",
"S.	c #5593BC",
"T.	c #3780B0",
"U.	c #2777AA",
"V.	c #2677AA",
"W.	c #2779AD",
"X.	c #287CB2",
"Y.	c #297DB3",
"Z.	c #287DB4",
"`.	c #297EB4",
" +	c #2A7EB5",
".+	c #4B8CAF",
"++	c #C6C6A4",
"@+	c #AE8F4F",
"#+	c #8A7341",
"$+	c #446E7F",
"%+	c #2B7FB5",
"&+	c #2571A1",
"*+	c #195072",
"=+	c #1B4F70",
"-+	c #1A5073",
";+	c #4A85AC",
">+	c #5B95BC",
",+	c #5C95BD",
"'+	c #5E97BD",
")+	c #5F97BE",
"!+	c #5B95BD",
"~+	c #4086B3",
"{+	c #2978AA",
"]+	c #2476A8",
"^+	c #2577AB",
"/+	c #277AAF",
"(+	c #277CB1",
"_+	c #297DB2",
":+	c #2A7EB3",
"<+	c #297EB3",
"[+	c #2B7EB3",
"}+	c #709BA6",
"|+	c #CEBC86",
"1+	c #9A7737",
"2+	c #727964",
"3+	c #317DAB",
"4+	c #2A80B6",
"5+	c #287DB2",
"6+	c #1D567B",
"7+	c #194C6C",
"8+	c #1B4D6D",
"9+	c #194D6F",
"0+	c #4D86AD",
"a+	c #6097BD",
"b+	c #6198BE",
"c+	c #6399BE",
"d+	c #639ABF",
"e+	c #6299BF",
"f+	c #629ABF",
"g+	c #4C8DB6",
"h+	c #2C7AAB",
"i+	c #2878A9",
"j+	c #2B7AAB",
"k+	c #2F7FB0",
"l+	c #3181B3",
"m+	c #3382B4",
"n+	c #3383B5",
"o+	c #3382B5",
"p+	c #3985B3",
"q+	c #ADBAA6",
"r+	c #C2A86C",
"s+	c #9E824C",
"t+	c #5B726E",
"u+	c #2D81B5",
"v+	c #2D81B6",
"w+	c #27709D",
"x+	c #1D4F6E",
"y+	c #1D4D6C",
"z+	c #1F4F6E",
"A+	c #1C4F70",
"B+	c #4E86AB",
"C+	c #6499BD",
"D+	c #659ABE",
"E+	c #679BBF",
"F+	c #679CBF",
"G+	c #689CC0",
"H+	c #689DC0",
"I+	c #5D96BC",
"J+	c #3E84B0",
"K+	c #3A82AF",
"L+	c #3D85B1",
"M+	c #4189B5",
"N+	c #438BB8",
"O+	c #438BB9",
"P+	c #428BB9",
"Q+	c #6298B5",
"R+	c #E2D3A4",
"S+	c #AD9054",
"T+	c #A28F63",
"U+	c #52767F",
"V+	c #3080B2",
"W+	c #2A6991",
"X+	c #224F6B",
"Y+	c #214D68",
"Z+	c #23506C",
"`+	c #265471",
" @	c #205677",
".@	c #4982A7",
"+@	c #679ABD",
"@@	c #699CBF",
"#@	c #6A9DC0",
"$@	c #6B9EC0",
"%@	c #6B9EC1",
"&@	c #6D9FC1",
"*@	c #70A1C2",
"=@	c #74A3C4",
"-@	c #6B9FC1",
";@	c #5291B8",
">@	c #4D8DB5",
",@	c #5090B8",
"'@	c #5292BB",
")@	c #5394BE",
"!@	c #5193BE",
"~@	c #94ADAD",
"{@	c #CDBA8B",
"]@	c #AF9562",
"^@	c #A2926C",
"/@	c #56757B",
"(@	c #2E6587",
"_@	c #264D65",
":@	c #264E65",
"<@	c #285571",
"[@	c #2F6689",
"}@	c #306C92",
"|@	c #276993",
"1@	c #2A6C96",
"2@	c #4485AE",
"3@	c #528EB5",
"4@	c #6197BB",
"5@	c #699DBF",
"6@	c #6D9FC0",
"7@	c #75A3C3",
"8@	c #79A6C5",
"9@	c #7FA9C8",
"0@	c #83ADCA",
"a@	c #7CA9C7",
"b@	c #6299BD",
"c@	c #5E98BC",
"d@	c #6099BE",
"e@	c #609CC1",
"f@	c #619CC1",
"g@	c #C1C6B4",
"h@	c #C3AD7D",
"i@	c #B39D70",
"j@	c #9B8457",
"k@	c #5C655D",
"l@	c #315265",
"m@	c #2C4F64",
"n@	c #305D78",
"o@	c #397BA5",
"p@	c #3E87B5",
"q@	c #3A85B4",
"r@	c #276F9C",
"s@	c #20618B",
"t@	c #377BA6",
"u@	c #3C80AB",
"v@	c #3D81AC",
"w@	c #4586AF",
"x@	c #558FB5",
"y@	c #6E9FC0",
"z@	c #7CA8C6",
"A@	c #87AFCB",
"B@	c #8DB3CD",
"C@	c #90B5CF",
"D@	c #8BB3CE",
"E@	c #74A5C4",
"F@	c #6FA2C3",
"G@	c #6EA2C3",
"H@	c #7DAAC4",
"I@	c #D4D0B5",
"J@	c #B39969",
"K@	c #9E885E",
"L@	c #767260",
"M@	c #4E6169",
"N@	c #3D596A",
"O@	c #396078",
"P@	c #4082AC",
"Q@	c #448DBA",
"R@	c #458DBB",
"S@	c #3C85B4",
"T@	c #266791",
"U@	c #265D81",
"V@	c #3678A2",
"W@	c #4384AC",
"X@	c #4484AD",
"Y@	c #4887AF",
"Z@	c #5590B5",
"`@	c #6399BB",
" #	c #75A4C3",
".#	c #8CB3CD",
"+#	c #97BAD2",
"@#	c #9CBDD4",
"##	c #92B8D0",
"$#	c #7DABC8",
"%#	c #7BAAC7",
"&#	c #95B6C6",
"*#	c #CEC4A6",
"=#	c #A5926D",
"-#	c #787E77",
";#	c #556874",
">#	c #4C6271",
",#	c #455E6E",
"'#	c #467593",
")#	c #488EBA",
"!#	c #488FBB",
"~#	c #488EBB",
"{#	c #387FAC",
"]#	c #2D6181",
"^#	c #2C6E98",
"/#	c #4686AF",
"(#	c #4C8BB3",
"_#	c #4D8BB2",
":#	c #508CB2",
"<#	c #5B93B7",
"[#	c #6198BA",
"}#	c #699DBE",
"|#	c #73A3C2",
"1#	c #85AFCA",
"2#	c #9DBED4",
"3#	c #A6C4D8",
"4#	c #8AB3CD",
"5#	c #A9BFC4",
"6#	c #BDB295",
"7#	c #848E8C",
"8#	c #657884",
"9#	c #5F7B8D",
"0#	c #5E87A0",
"a#	c #5B8DAD",
"b#	c #5491B7",
"c#	c #5293BC",
"d#	c #5193BD",
"e#	c #4B8EB8",
"f#	c #30729C",
"g#	c #2C6385",
"h#	c #3E7FA7",
"i#	c #508EB5",
"j#	c #528FB6",
"k#	c #5792B8",
"l#	c #6098BA",
"m#	c #669BBD",
"n#	c #6D9FBF",
"o#	c #74A4C2",
"p#	c #7BA8C5",
"q#	c #86B0CA",
"r#	c #9ABCD2",
"s#	c #AAC7D9",
"t#	c #9BBDD3",
"u#	c #AFBCBC",
"v#	c #9FA49C",
"w#	c #748A99",
"x#	c #7296AE",
"y#	c #70A3C3",
"z#	c #69A1C4",
"A#	c #629CC1",
"B#	c #5B98BF",
"C#	c #5695BD",
"D#	c #5494BC",
"E#	c #4183AD",
"F#	c #326686",
"G#	c #316E95",
"H#	c #508DB3",
"I#	c #5893B8",
"J#	c #5C95B9",
"K#	c #659CBE",
"L#	c #6CA0C1",
"M#	c #72A3C3",
"N#	c #79A8C5",
"O#	c #7FAAC6",
"P#	c #87B0CA",
"Q#	c #8DB4CC",
"R#	c #96BAD1",
"S#	c #9FBFD4",
"T#	c #A6B5B8",
"U#	c #8BA0AC",
"V#	c #7FA7C0",
"W#	c #7AAAC8",
"X#	c #75A7C7",
"Y#	c #6FA3C5",
"Z#	c #69A0C3",
"`#	c #609BC0",
" $	c #5C98BF",
".$	c #5392B9",
"+$	c #367298",
"@$	c #2E5A76",
"#$	c #39779F",
"$$	c #5E97BA",
"%$	c #669CBD",
"&$	c #6CA0C0",
"*$	c #72A4C3",
"=$	c #79A8C6",
"-$	c #7EACC8",
";$	c #83AEC9",
">$	c #87B0C9",
",$	c #8AB1CA",
"'$	c #8BB2CA",
")$	c #8BB0C6",
"!$	c #84AEC8",
"~$	c #7EABC7",
"{$	c #7AA9C7",
"]$	c #6EA3C4",
"^$	c #689FC2",
"/$	c #619BBF",
"($	c #5794BA",
"_$	c #3C7AA2",
":$	c #335B76",
"<$	c #2F6181",
"[$	c #407EA5",
"}$	c #5C95B8",
"|$	c #689DBF",
"1$	c #6EA1C1",
"2$	c #73A4C3",
"3$	c #82AEC9",
"4$	c #85B0CA",
"5$	c #86B0C9",
"6$	c #85AEC9",
"7$	c #82ADC8",
"8$	c #7DAAC6",
"9$	c #7AA8C6",
"0$	c #70A4C5",
"a$	c #6AA0C3",
"b$	c #5E97BB",
"c$	c #417FA6",
"d$	c #346280",
"e$	c #316180",
"f$	c #407CA2",
"g$	c #6298BA",
"h$	c #7CAAC8",
"i$	c #80ADC9",
"j$	c #83AFCA",
"k$	c #84AFCA",
"l$	c #7FABC6",
"m$	c #7CA9C5",
"n$	c #79A7C5",
"o$	c #76A7C6",
"p$	c #70A3C4",
"q$	c #649ABD",
"r$	c #417CA2",
"s$	c #35627F",
"t$	c #325A74",
"u$	c #3B7498",
"v$	c #568EB1",
"w$	c #6EA0BF",
"x$	c #78A7C5",
"y$	c #7CAAC7",
"z$	c #7EACC9",
"A$	c #81AECA",
"B$	c #81ADC9",
"C$	c #80ACC7",
"D$	c #7EAAC6",
"E$	c #7BA8C4",
"F$	c #76A5C2",
"G$	c #6EA1C0",
"H$	c #578FB3",
"I$	c #3D7598",
"J$	c #365B73",
"K$	c #3D5B6D",
"L$	c #366683",
"M$	c #3E799F",
"N$	c #5D93B5",
"O$	c #71A1C0",
"P$	c #7DAAC7",
"Q$	c #7EABC8",
"R$	c #78A6C2",
"S$	c #6F9EBC",
"T$	c #5B90B1",
"U$	c #3F799E",
"V$	c #396683",
"W$	c #415B6C",
"X$	c #475A68",
"Y$	c #345F7C",
"Z$	c #32698C",
"`$	c #40779B",
" %	c #4B81A3",
".%	c #5086A7",
"+%	c #3F7799",
"@%	c #32688A",
"#%	c #365F79",
"$%	c #495B66",
"%%	c #455965",
"&%	c #3C596B",
"*%	c #39596E",
"=%	c #3D596B",
"-%	c #465964",
"                                                                ",
"                                                                ",
"                        . + @ # $ % & *                         ",
"                  = - ; > , ' ) ! ! , > ~ { ]                   ",
"                ^ / ( _ : _ : _ _ : : : : < [ }                 ",
"            | 1 2 3 4 5 6 7 7 7 7 7 5 4 4 8 9 0 a               ",
"          b c d e f g e f f f f f f f g h i j k l m             ",
"          n o p q r r r r s q q s s t s u v w x y z A           ",
"        B C D E F G H H F F I F H H G H J K L M N O P Q         ",
"      R S T U V W W W X W X W W X W Y W Z `  ...+.@.#.$.%.      ",
"      &.*.=.-.;.>.,.'.,.).).!.,.).).).~.{.].^./.(._.:.<.[.      ",
"    }.|.1.2.3.4.5.6.7.8.9.0.a.b.c.d.a.e.f.g.h.i.j.k.l.:.m.      ",
"    n.o.p.q.r.s.t.u.v.w.w.x.y.z.A.B.C.D.E.F.G.H.I.J.K.L.M.N.    ",
"    O.P.Q.R.S.T.U.V.W.X.$.Y.Z.`.c K. +.+++@+#+$+%+l.&+*+=+-+    ",
"    ;+>+,+'+)+!+~+{+]+^+/+(+X._+:+<+[+}+|+1+2+3+4+5+6+7+8+9+    ",
"    0+a+b+c+d+e+f+g+h+i+j+k+l+m+n+o+p+q+r+s+t+u+v+w+x+y+z+A+    ",
"    B+C+D+E+F+F+G+H+I+J+K+L+M+N+O+P+Q+R+S+T+U+V+W+X+Y+Z+`+ @    ",
"    .@+@@@#@$@%@&@*@=@-@;@>@,@'@)@!@~@{@]@^@/@(@_@:@<@[@}@|@    ",
"    1@2@3@4@5@6@7@8@9@0@a@b@c@d@e@f@g@h@i@j@k@l@m@n@o@p@q@r@    ",
"    s@t@u@v@w@x@y@z@A@B@C@D@E@F@G@H@I@J@K@L@M@N@O@P@Q@R@S@T@    ",
"    U@V@W@X@2@Y@Z@`@ #.#+#@###$#%#&#*#=#-#;#>#,#'#)#!#~#{#]#    ",
"      ^#/#(#_#:#<#[#}#|#1#2#3#2#4#5#6#7#8#9#0#a#b#c#d#e#f#      ",
"      g#h#i#j#k#l#m#n#o#p#q#r#s#t#u#v#w#x#y#z#A#B#C#D#E#F#      ",
"        G#H#I#J#K#L#M#N#O#P#Q#R#S#T#U#V#W#X#Y#Z#`# $.$+$        ",
"        @$#$Z@$$%$&$*$=$-$;$>$,$'$)$!$~${$X#]$^$/$($_$:$        ",
"          <$[$}$|$1$2$=$$#3$4$q#5$6$7$8$9$X#0$a$b$c$d$          ",
"            e$f$g$1$E@=$h$i$j$k$;$7$l$m$n$o$p$q$r$s$            ",
"              t$u$v$w$x$y$z$i$A$B$C$D$E$F$G$H$I$J$              ",
"                K$L$M$N$O$n$P$Q$Q$8$R$S$T$U$V$W$                ",
"                    X$Y$Z$`$ %.%.% %+%@%#%$%                    ",
"                          %%&%*%*%=%-%                          ",
"                                                                "};
