<?xml version="1.0" encoding="UTF-8" standalone="no"?>
<!-- Created with Inkscape (http://www.inkscape.org/) -->

<svg
   xmlns:dc="http://purl.org/dc/elements/1.1/"
   xmlns:cc="http://creativecommons.org/ns#"
   xmlns:rdf="http://www.w3.org/1999/02/22-rdf-syntax-ns#"
   xmlns:svg="http://www.w3.org/2000/svg"
   xmlns="http://www.w3.org/2000/svg"
   xmlns:sodipodi="http://sodipodi.sourceforge.net/DTD/sodipodi-0.dtd"
   xmlns:inkscape="http://www.inkscape.org/namespaces/inkscape"
   width="640px"
   height="480px"
   id="svg3134"
   version="1.1"
   inkscape:version="0.48.3.1 r9886"
   sodipodi:docname="New document 11">
  <defs
     id="defs3136" />
  <sodipodi:namedview
     id="base"
     pagecolor="#ffffff"
     bordercolor="#666666"
     borderopacity="1.0"
     inkscape:pageopacity="0.0"
     inkscape:pageshadow="2"
     inkscape:zoom="0.77472527"
     inkscape:cx="317.41844"
     inkscape:cy="245.16312"
     inkscape:current-layer="layer1"
     inkscape:document-units="px"
     showgrid="false"
     inkscape:window-width="800"
     inkscape:window-height="564"
     inkscape:window-x="0"
     inkscape:window-y="12"
     inkscape:window-maximized="0" />
  <metadata
     id="metadata3139">
    <rdf:RDF>
      <cc:Work
         rdf:about="">
        <dc:format>image/svg+xml</dc:format>
        <dc:type
           rdf:resource="http://purl.org/dc/dcmitype/StillImage" />
        <dc:title></dc:title>
      </cc:Work>
    </rdf:RDF>
  </metadata>
  <g
     id="layer1"
     inkscape:label="Layer 1"
     inkscape:groupmode="layer">
    <path
       style="fill:#000000"
       d="m 302.43431,440.4468 c -14.88228,-4.33874 -18.89443,-6.47398 -28.38217,-15.10481 -13.08558,-11.90371 -17.72561,-23.29726 -17.72561,-43.52501 0,-18.30772 4.14768,-29.96528 14.34194,-40.30981 7.27131,-7.37848 18.36439,-13.25052 25.03206,-13.25052 4.73347,0 4.8315,0.27458 4.8315,13.5325 l 0,13.5325 -6.57204,3.04787 c -9.16684,4.25125 -13.05127,12.36242 -12.09267,25.25093 1.53891,20.69072 13.75689,28.81207 43.34566,28.81207 14.25099,0 19.3577,-0.72886 23.91428,-3.41316 12.51899,-7.37499 18.80704,-23.65294 14.28477,-36.97908 -2.56222,-7.55028 -13.65238,-17.88336 -19.19364,-17.88336 -3.36269,0 -3.73837,1.31029 -3.73837,13.03841 l 0,13.0384 -11.88928,-0.55077 -11.88929,-0.55079 0,-25.90026 0,-25.90027 35.19228,0 35.19228,0 0.57499,9.7126 c 0.49269,8.32267 0.0845,9.71665 -2.85343,9.74093 -8.20311,0.0677 -8.706,2.84359 -2.15276,11.88256 6.12053,8.44215 6.33349,9.33743 6.33349,26.62529 0,15.38301 -0.65924,19.1446 -4.70538,26.84845 -9.93611,18.91837 -28.93477,29.1492 -56.00199,30.15722 -10.88743,0.40545 -20.4551,-0.28006 -25.84662,-1.85189 z m -45.65485,-139.01542 0,-13.87514 65.62885,0 65.62884,0 0,13.87514 0,13.87514 -65.62884,0 -65.62885,0 0,-13.87514 z m 49.45942,-38.8504 0,-15.72516 -24.72971,0 -24.72971,0 0,-12.95013 0,-12.95014 24.72971,0 24.72971,0 0,-16.65017 0,-16.65017 15.21829,0 15.21828,0 0,16.65017 0,16.65017 25.68085,0 25.68085,0 0,12.89643 0,12.89645 -25.20528,0.51619 -25.20528,0.51621 -0.5525,15.26265 -0.5525,15.26266 -15.14135,0 -15.14136,0 0,-15.72516 z m 90.58314,-28.97078 c -1.413,-6.87082 -1.79669,-6.34506 5.78198,-7.92291 5.58749,-1.16331 6.09939,-0.83956 7.33692,4.64003 1.45579,6.44604 -0.79787,9.0505 -7.87441,9.1001 -3.02463,0.0211 -4.34501,-1.44337 -5.24449,-5.81722 z m -160.69546,0.49827 c -1.79783,-1.10787 -2.17745,-3.37832 -1.25087,-7.48118 1.23754,-5.47959 1.74944,-5.80335 7.33693,-4.64004 7.57866,1.57785 7.19497,1.05209 5.78198,7.92291 -1.24077,6.03343 -6.10031,7.75249 -11.86804,4.19831 z m 190.42463,-6.76941 c -1.85277,-5.87101 -1.66966,-6.25919 3.83255,-8.12458 3.17805,-1.07743 5.9948,-1.95896 6.25947,-1.95896 0.91633,0 4.67209,11.70301 3.97372,12.38219 -0.38574,0.37517 -3.27056,1.39869 -6.41068,2.27453 -5.34046,1.48954 -5.83503,1.19409 -7.65506,-4.57318 z m -216.85329,0.64986 c -3.40034,-0.87401 -6.18243,-1.85733 -6.18243,-2.18515 0,-0.32782 0.94953,-3.24505 2.11007,-6.48271 1.73496,-4.84015 2.83405,-5.67166 6.18243,-4.67733 7.88037,2.34017 8.42794,3.15845 6.18018,9.23554 -1.96709,5.31825 -2.52062,5.59264 -8.29025,4.10965 z m 245.52541,-10.67191 c -2.12815,-5.48318 -2.11652,-5.49574 11.85359,-12.82409 22.7641,-11.94143 40.5838,-25.97488 57.05249,-44.93026 l 7.53031,-8.66734 5.41145,4.25151 5.41145,4.25151 -17.60152,17.90565 c -16.73035,17.01941 -37.6183,32.42395 -56.39658,41.59159 -10.27596,5.01677 -10.722,4.96367 -13.26119,-1.57857 z m -286.33038,-6.27889 c -21.55151,-11.9442 -31.63729,-19.70355 -49.98909,-38.45829 l -16.54083,-16.90401 5.39695,-4.24028 5.39696,-4.24026 7.53031,8.66734 c 16.46869,18.95538 34.28839,32.98883 57.05248,44.93026 13.97012,7.32835 13.98175,7.34091 11.8536,12.82409 -1.17162,3.01872 -3.03333,5.48856 -4.13709,5.48856 -1.10378,0 -8.55726,-3.63034 -16.56329,-8.06741 z m 375.66016,-70.84688 c -3.97648,-2.69927 -4.05764,-3.18834 -1.36824,-8.24615 2.7937,-5.254 2.98784,-5.31188 8.50732,-2.53606 6.47782,3.25777 6.35114,2.92151 3.44074,9.13364 -2.52039,5.37967 -4.60478,5.70447 -10.57982,1.64857 z M 89.683687,134.84263 c -2.910382,-6.21213 -3.037055,-5.87587 3.440759,-9.13364 5.520337,-2.77624 5.713305,-2.71854 8.512274,2.54533 2.72546,5.12566 2.63957,5.52893 -1.77689,8.3432 -6.255304,3.98601 -7.594703,3.75504 -10.176143,-1.75489 z M 558.86885,114.49806 c -4.66412,-2.46246 -4.94939,-3.21135 -3.14292,-8.25101 1.09275,-3.04849 2.20334,-5.54273 2.46799,-5.54273 1.15984,0 12.46263,4.10838 12.46263,4.52996 0,2.20567 -4.45138,12.10382 -5.41738,12.04614 -0.68234,-0.0407 -3.54898,-1.29279 -6.37032,-2.78236 z M 76.248436,107.82834 c -1.1486,-3.20438 -2.088367,-6.03672 -2.088367,-6.2941 0,-0.42158 11.30279,-4.529954 12.462632,-4.529954 0.264646,0 1.376722,2.498376 2.471297,5.551964 1.832586,5.11256 1.553673,5.77145 -3.524022,8.32508 -7.178882,3.61035 -6.90035,3.70158 -9.32154,-3.05299 z M 568.27869,86.478917 c -4.16144,-1.0576 -4.15124,-1.435966 0.47558,-17.673656 4.71707,-16.554414 4.76128,-15.866207 -0.95115,-14.804204 -3.51666,0.653779 -4.75571,0.08973 -4.75571,-2.164633 0,-1.67682 1.09334,-3.456779 2.42964,-3.95547 1.33629,-0.498709 4.53447,-4.218875 7.10707,-8.267031 3.85384,-6.064326 5.73436,-7.360301 10.68013,-7.360301 4.78765,0 6.24005,0.919681 7.17525,4.543462 0.64491,2.498894 2.13408,6.869564 3.30925,9.712599 4.714,11.40422 2.47433,18.328434 -4.06643,12.571786 -3.92535,-3.4548 -3.4906,-4.351652 -9.63904,19.885132 -2.24473,8.848659 -3.45803,9.62341 -11.76459,7.512316 z M 62.514449,66.506779 57.950276,48.599557 52.639,52.662624 c -2.921206,2.234675 -5.630041,3.75306 -6.019648,3.374157 -0.389608,-0.378884 0.859281,-4.428205 2.775301,-8.998492 1.916001,-4.570287 3.965028,-9.76649 4.553405,-11.547134 0.734891,-2.224093 3.046111,-3.237533 7.383397,-3.237533 5.021102,0 8.14882,1.812001 15.277977,8.851138 4.930401,4.868122 8.964349,10.279427 8.964349,12.025124 0,4.517598 -2.081195,3.939726 -6.8916,-1.913568 -2.299596,-2.798153 -4.818203,-4.473179 -5.596904,-3.722293 -0.778719,0.750904 0.522064,8.499468 2.890599,17.219014 2.368555,8.719565 3.936551,16.213492 3.484473,16.653149 -0.452097,0.439676 -3.422934,1.3053 -6.601862,1.923613 l -5.779866,1.12422 -4.564172,-17.90724 z"
       id="path3050"
       inkscape:connector-curvature="0" />
  </g>
</svg>
